%TF.GenerationSoftware,KiCad,Pcbnew,(5.1.4)-1*%
%TF.CreationDate,2019-10-27T14:01:39-07:00*%
%TF.ProjectId,SolarCell+Y,536f6c61-7243-4656-9c6c-2b592e6b6963,rev?*%
%TF.SameCoordinates,Original*%
%TF.FileFunction,Copper,L4,Inr*%
%TF.FilePolarity,Positive*%
%FSLAX46Y46*%
G04 Gerber Fmt 4.6, Leading zero omitted, Abs format (unit mm)*
G04 Created by KiCad (PCBNEW (5.1.4)-1) date 2019-10-27 14:01:39*
%MOMM*%
%LPD*%
G04 APERTURE LIST*
%ADD10C,0.050000*%
%ADD11C,4.400000*%
%ADD12C,0.584200*%
%ADD13C,0.800000*%
%ADD14C,0.250000*%
%ADD15C,0.254000*%
G04 APERTURE END LIST*
D10*
X198500000Y-42500000D02*
G75*
G03X198500000Y-42500000I-1100000J0D01*
G01*
X198500000Y-87500000D02*
G75*
G03X198500000Y-87500000I-1100000J0D01*
G01*
X153600000Y-87400000D02*
G75*
G03X153600000Y-87400000I-1100000J0D01*
G01*
X200000000Y-40000000D02*
X150000000Y-40000000D01*
X200000000Y-90000000D02*
X200000000Y-40000000D01*
X150000000Y-90000000D02*
X200000000Y-90000000D01*
X150000000Y-40000000D02*
X150000000Y-90000000D01*
X153600000Y-42400000D02*
G75*
G03X153600000Y-42400000I-1100000J0D01*
G01*
D11*
X182937500Y-65000000D03*
X167062500Y-65000000D03*
D12*
X185483500Y-57658000D03*
X184785000Y-57658000D03*
X166624000Y-72644000D03*
X166149480Y-55716447D03*
X176702740Y-60577244D03*
X175432740Y-60577244D03*
X176702740Y-61821844D03*
X173545500Y-59817000D03*
X175425100Y-61846460D03*
X176032160Y-61239400D03*
X178653988Y-59811807D03*
X185801000Y-62357014D03*
X163957006Y-63055500D03*
X163830000Y-67310000D03*
X173863000Y-69342000D03*
X175387000Y-69342000D03*
X171132500Y-66992500D03*
X172132500Y-66992500D03*
X173132500Y-66992500D03*
X174132500Y-66992500D03*
X175132500Y-66992500D03*
X176132500Y-66992500D03*
X177132500Y-66992500D03*
X178132500Y-66992500D03*
X173640500Y-66230500D03*
X172640500Y-66230500D03*
X174640500Y-66230500D03*
X171640500Y-66230500D03*
X173863000Y-68580000D03*
X165925500Y-57594500D03*
X163573965Y-59346218D03*
X163565500Y-58485313D03*
X176042340Y-58392844D03*
X168338500Y-60134500D03*
X177800000Y-63182500D03*
X171323000Y-61531500D03*
X166624000Y-69786500D03*
X165915302Y-56388000D03*
X176085500Y-64071500D03*
X173723328Y-63677810D03*
X178811844Y-61186844D03*
X180086000Y-54356000D03*
D13*
X151000000Y-44500000D03*
X151000000Y-45500000D03*
X164000000Y-69000000D03*
X164000000Y-70500000D03*
X151000000Y-46500000D03*
D12*
X167132000Y-71247000D03*
X166179500Y-71247000D03*
D14*
X163000000Y-69500000D02*
X163500000Y-69500000D01*
X163000000Y-76500000D02*
X163000000Y-69500000D01*
X186500000Y-76500000D02*
X163000000Y-76500000D01*
X186500000Y-53000000D02*
X186500000Y-76500000D01*
X162500000Y-53000000D02*
X186500000Y-53000000D01*
X187000000Y-52500000D02*
X187000000Y-77000000D01*
X162000000Y-52500000D02*
X187000000Y-52500000D01*
X187500000Y-77500000D02*
X162000000Y-77500000D01*
X187500000Y-52000000D02*
X187500000Y-77500000D01*
X161500000Y-52000000D02*
X187500000Y-52000000D01*
X188000000Y-51500000D02*
X188000000Y-78000000D01*
X161000000Y-78500000D02*
X161000000Y-51500000D01*
X188500000Y-78500000D02*
X161000000Y-78500000D01*
X188500000Y-51000000D02*
X188500000Y-78500000D01*
X160500000Y-51000000D02*
X188500000Y-51000000D01*
X160500000Y-79000000D02*
X160500000Y-51000000D01*
X189000000Y-79000000D02*
X160500000Y-79000000D01*
X189000000Y-50500000D02*
X189000000Y-79000000D01*
X155000000Y-46500000D02*
X157500000Y-44000000D01*
X153500000Y-49000000D02*
X155000000Y-47500000D01*
X188000000Y-78000000D02*
X161500000Y-78000000D01*
X194000000Y-40500000D02*
X194000000Y-41157149D01*
X153500000Y-82000000D02*
X153500000Y-49000000D01*
X156500000Y-89000000D02*
X150500000Y-83000000D01*
X157500000Y-86000000D02*
X153500000Y-82000000D01*
X151000000Y-45500000D02*
X151274999Y-45225001D01*
X192500000Y-86000000D02*
X157500000Y-86000000D01*
X196000000Y-82500000D02*
X192500000Y-86000000D01*
X196000000Y-47000000D02*
X196000000Y-82500000D01*
X192500000Y-43500000D02*
X196000000Y-47000000D01*
X151774999Y-45225001D02*
X156500000Y-40500000D01*
X154500000Y-46500000D02*
X157500000Y-43500000D01*
X154500000Y-47500000D02*
X154500000Y-46500000D01*
X153000000Y-49000000D02*
X154500000Y-47500000D01*
X157500000Y-86500000D02*
X153000000Y-82000000D01*
X196500000Y-82500000D02*
X192500000Y-86500000D01*
X196500000Y-47000000D02*
X196500000Y-82500000D01*
X162500000Y-77000000D02*
X162500000Y-53000000D01*
X157000000Y-41000000D02*
X193000000Y-41000000D01*
X192500000Y-43000000D02*
X196500000Y-47000000D01*
X154000000Y-46500000D02*
X157500000Y-43000000D01*
X151000000Y-49000000D02*
X152500000Y-47500000D01*
X154000000Y-47500000D02*
X154000000Y-46500000D01*
X152500000Y-49000000D02*
X154000000Y-47500000D01*
X157500000Y-87000000D02*
X152500000Y-82000000D01*
X197000000Y-82500000D02*
X192500000Y-87000000D01*
X197000000Y-47000000D02*
X197000000Y-82500000D01*
X153500000Y-46500000D02*
X157500000Y-42500000D01*
X152000000Y-49000000D02*
X153500000Y-47500000D01*
X192500000Y-87500000D02*
X157100000Y-87500000D01*
X197500000Y-82500000D02*
X192500000Y-87500000D01*
X197500000Y-47000000D02*
X197500000Y-82500000D01*
X192500000Y-42000000D02*
X197500000Y-47000000D01*
X157500000Y-42000000D02*
X192500000Y-42000000D01*
X153000000Y-46500000D02*
X157500000Y-42000000D01*
X189500000Y-50000000D02*
X189500000Y-79500000D01*
X151000000Y-82500000D02*
X151000000Y-49000000D01*
X153000000Y-47500000D02*
X153000000Y-46500000D01*
X163500000Y-69500000D02*
X164000000Y-69000000D01*
X194000000Y-41157149D02*
X199342851Y-46500000D01*
X152000000Y-47000000D02*
X152000000Y-46000000D01*
X157500000Y-85500000D02*
X154000000Y-82000000D01*
X151500000Y-82500000D02*
X151500000Y-49000000D01*
X161000000Y-51500000D02*
X188000000Y-51500000D01*
X157500000Y-41500000D02*
X192500000Y-41500000D01*
X160000000Y-50500000D02*
X189000000Y-50500000D01*
X151000000Y-48000000D02*
X152000000Y-47000000D01*
X154000000Y-82000000D02*
X154000000Y-49000000D01*
X157500000Y-43500000D02*
X192500000Y-43500000D01*
X157000000Y-88000000D02*
X151500000Y-82500000D01*
X193500000Y-89185702D02*
X192185702Y-89185702D01*
X192500000Y-44500000D02*
X195000000Y-47000000D01*
X191500000Y-48000000D02*
X191500000Y-81500000D01*
X157100000Y-87500000D02*
X152000000Y-82400000D01*
X153500000Y-47500000D02*
X153500000Y-46500000D01*
X157500000Y-43000000D02*
X192500000Y-43000000D01*
X161500000Y-78000000D02*
X161500000Y-52000000D01*
X151274999Y-45225001D02*
X151774999Y-45225001D01*
X187000000Y-77000000D02*
X162500000Y-77000000D01*
X192000000Y-89000000D02*
X156500000Y-89000000D01*
X157500000Y-44500000D02*
X192500000Y-44500000D01*
X158500000Y-49000000D02*
X190500000Y-49000000D01*
X150500000Y-48000000D02*
X151000000Y-48000000D01*
X199342851Y-83342851D02*
X193500000Y-89185702D01*
X159000000Y-49500000D02*
X190000000Y-49500000D01*
X157500000Y-42500000D02*
X192500000Y-42500000D01*
X193000000Y-88500000D02*
X157000000Y-88500000D01*
X159500000Y-50000000D02*
X189500000Y-50000000D01*
X198000000Y-82500000D02*
X192500000Y-88000000D01*
X160000000Y-79500000D02*
X160000000Y-50500000D01*
X192185702Y-89185702D02*
X192000000Y-89000000D01*
X192500000Y-44000000D02*
X195500000Y-47000000D01*
X156500000Y-40500000D02*
X194000000Y-40500000D01*
X154000000Y-49000000D02*
X155500000Y-47500000D01*
X151500000Y-49000000D02*
X153000000Y-47500000D01*
X152500000Y-82000000D02*
X152500000Y-49000000D01*
X155000000Y-49000000D02*
X156500000Y-47500000D01*
X192500000Y-86500000D02*
X157500000Y-86500000D01*
X192500000Y-42500000D02*
X197000000Y-47000000D01*
X156000000Y-82000000D02*
X156000000Y-49000000D01*
X193000000Y-41000000D02*
X199000000Y-47000000D01*
X153000000Y-82000000D02*
X153000000Y-49000000D01*
X159000000Y-80500000D02*
X159000000Y-49500000D01*
X198500000Y-47500000D02*
X198500000Y-83000000D01*
X152000000Y-82400000D02*
X152000000Y-49000000D01*
X198500000Y-83000000D02*
X193000000Y-88500000D01*
X195000000Y-47000000D02*
X195000000Y-82500000D01*
X189500000Y-79500000D02*
X160000000Y-79500000D01*
X157000000Y-88500000D02*
X151000000Y-82500000D01*
X195000000Y-82500000D02*
X192500000Y-85000000D01*
X155000000Y-47500000D02*
X155000000Y-46500000D01*
X158500000Y-81000000D02*
X158500000Y-49000000D01*
X162000000Y-77500000D02*
X162000000Y-52500000D01*
X152500000Y-47500000D02*
X152500000Y-46500000D01*
X192500000Y-85000000D02*
X157500000Y-85000000D01*
X192500000Y-87000000D02*
X157500000Y-87000000D01*
X199000000Y-47000000D02*
X198500000Y-47500000D01*
X192000000Y-47500000D02*
X192000000Y-82000000D01*
X192500000Y-88000000D02*
X157000000Y-88000000D01*
X157500000Y-44000000D02*
X192500000Y-44000000D01*
X195500000Y-47000000D02*
X195500000Y-82500000D01*
X195500000Y-82500000D02*
X192500000Y-85500000D01*
X192500000Y-85500000D02*
X157500000Y-85500000D01*
X155500000Y-47500000D02*
X155500000Y-46500000D01*
X155500000Y-46500000D02*
X157500000Y-44500000D01*
X157500000Y-85000000D02*
X154500000Y-82000000D01*
X154500000Y-82000000D02*
X154500000Y-49000000D01*
X154500000Y-49000000D02*
X156000000Y-47500000D01*
X156000000Y-47500000D02*
X156000000Y-46500000D01*
X156000000Y-46500000D02*
X157500000Y-45000000D01*
X157500000Y-45000000D02*
X192500000Y-45000000D01*
X192500000Y-45000000D02*
X194500000Y-47000000D01*
X194500000Y-47000000D02*
X194500000Y-82500000D01*
X194500000Y-82500000D02*
X192500000Y-84500000D01*
X192500000Y-84500000D02*
X157500000Y-84500000D01*
X157500000Y-84500000D02*
X155000000Y-82000000D01*
X155000000Y-82000000D02*
X155000000Y-49000000D01*
X156500000Y-47500000D02*
X156500000Y-46500000D01*
X156500000Y-46500000D02*
X157500000Y-45500000D01*
X157500000Y-45500000D02*
X192500000Y-45500000D01*
X192500000Y-45500000D02*
X194000000Y-47000000D01*
X194000000Y-47000000D02*
X194000000Y-82500000D01*
X194000000Y-82500000D02*
X192500000Y-84000000D01*
X192500000Y-84000000D02*
X157500000Y-84000000D01*
X157500000Y-84000000D02*
X155500000Y-82000000D01*
X155500000Y-82000000D02*
X155500000Y-49000000D01*
X155500000Y-49000000D02*
X157000000Y-47500000D01*
X157000000Y-47500000D02*
X157000000Y-46500000D01*
X157000000Y-46500000D02*
X157500000Y-46000000D01*
X157500000Y-46000000D02*
X192500000Y-46000000D01*
X192500000Y-46000000D02*
X193500000Y-47000000D01*
X150500000Y-83000000D02*
X150500000Y-48000000D01*
X193500000Y-47000000D02*
X193500000Y-82500000D01*
X193500000Y-82500000D02*
X192500000Y-83500000D01*
X192500000Y-83500000D02*
X157500000Y-83500000D01*
X157500000Y-83500000D02*
X156000000Y-82000000D01*
X156000000Y-49000000D02*
X157500000Y-47500000D01*
X157500000Y-47500000D02*
X157500000Y-46500000D01*
X157500000Y-46500000D02*
X192500000Y-46500000D01*
X192500000Y-46500000D02*
X193000000Y-47000000D01*
X152500000Y-46500000D02*
X157500000Y-41500000D01*
X193000000Y-47000000D02*
X193000000Y-82500000D01*
X193000000Y-82500000D02*
X192500000Y-83000000D01*
X199342851Y-46500000D02*
X199342851Y-83342851D01*
X192500000Y-83000000D02*
X157500000Y-83000000D01*
X157500000Y-83000000D02*
X156500000Y-82000000D01*
X156500000Y-82000000D02*
X156500000Y-49000000D01*
X156500000Y-49000000D02*
X158500000Y-47000000D01*
X158500000Y-47000000D02*
X192500000Y-47000000D01*
X192500000Y-47000000D02*
X192500000Y-82500000D01*
X192500000Y-82500000D02*
X157500000Y-82500000D01*
X198000000Y-47000000D02*
X198000000Y-82500000D01*
X157500000Y-82500000D02*
X157000000Y-82000000D01*
X157000000Y-82000000D02*
X157000000Y-49000000D01*
X157000000Y-49000000D02*
X158500000Y-47500000D01*
X158500000Y-47500000D02*
X192000000Y-47500000D01*
X192000000Y-82000000D02*
X157500000Y-82000000D01*
X157500000Y-82000000D02*
X157500000Y-49000000D01*
X192500000Y-41500000D02*
X198000000Y-47000000D01*
X157500000Y-49000000D02*
X158500000Y-48000000D01*
X158500000Y-48000000D02*
X191500000Y-48000000D01*
X191500000Y-81500000D02*
X158000000Y-81500000D01*
X158000000Y-81500000D02*
X158000000Y-49000000D01*
X158000000Y-49000000D02*
X158500000Y-48500000D01*
X158500000Y-48500000D02*
X191000000Y-48500000D01*
X191000000Y-48500000D02*
X191000000Y-81000000D01*
X191000000Y-81000000D02*
X158500000Y-81000000D01*
X190500000Y-49000000D02*
X190500000Y-80500000D01*
X190500000Y-80500000D02*
X159000000Y-80500000D01*
X190000000Y-49500000D02*
X190000000Y-80000000D01*
X152000000Y-46000000D02*
X157000000Y-41000000D01*
X190000000Y-80000000D02*
X159500000Y-80000000D01*
X159500000Y-80000000D02*
X159500000Y-50000000D01*
D15*
G36*
X185801000Y-57213359D02*
G01*
X185742175Y-57174053D01*
X185642791Y-57132887D01*
X185537286Y-57111900D01*
X185429714Y-57111900D01*
X185324209Y-57132887D01*
X185224825Y-57174053D01*
X185135382Y-57233817D01*
X185134250Y-57234949D01*
X185133118Y-57233817D01*
X185043675Y-57174053D01*
X184944291Y-57132887D01*
X184838786Y-57111900D01*
X184731214Y-57111900D01*
X184625709Y-57132887D01*
X184526325Y-57174053D01*
X184436882Y-57233817D01*
X184360817Y-57309882D01*
X184301053Y-57399325D01*
X184259887Y-57498709D01*
X184238900Y-57604214D01*
X184238900Y-57711786D01*
X184259887Y-57817291D01*
X184301053Y-57916675D01*
X184360817Y-58006118D01*
X184436882Y-58082183D01*
X184526325Y-58141947D01*
X184625709Y-58183113D01*
X184731214Y-58204100D01*
X184838786Y-58204100D01*
X184944291Y-58183113D01*
X185043675Y-58141947D01*
X185133118Y-58082183D01*
X185134250Y-58081051D01*
X185135382Y-58082183D01*
X185224825Y-58141947D01*
X185324209Y-58183113D01*
X185429714Y-58204100D01*
X185537286Y-58204100D01*
X185642791Y-58183113D01*
X185742175Y-58141947D01*
X185801000Y-58102641D01*
X185801000Y-75565000D01*
X164719000Y-75565000D01*
X164719000Y-72590214D01*
X166077900Y-72590214D01*
X166077900Y-72697786D01*
X166098887Y-72803291D01*
X166140053Y-72902675D01*
X166199817Y-72992118D01*
X166275882Y-73068183D01*
X166365325Y-73127947D01*
X166464709Y-73169113D01*
X166570214Y-73190100D01*
X166677786Y-73190100D01*
X166783291Y-73169113D01*
X166882675Y-73127947D01*
X166972118Y-73068183D01*
X167048183Y-72992118D01*
X167107947Y-72902675D01*
X167149113Y-72803291D01*
X167170100Y-72697786D01*
X167170100Y-72590214D01*
X167149113Y-72484709D01*
X167107947Y-72385325D01*
X167048183Y-72295882D01*
X166972118Y-72219817D01*
X166882675Y-72160053D01*
X166783291Y-72118887D01*
X166677786Y-72097900D01*
X166570214Y-72097900D01*
X166464709Y-72118887D01*
X166365325Y-72160053D01*
X166275882Y-72219817D01*
X166199817Y-72295882D01*
X166140053Y-72385325D01*
X166098887Y-72484709D01*
X166077900Y-72590214D01*
X164719000Y-72590214D01*
X164719000Y-71193214D01*
X165633400Y-71193214D01*
X165633400Y-71300786D01*
X165654387Y-71406291D01*
X165695553Y-71505675D01*
X165755317Y-71595118D01*
X165831382Y-71671183D01*
X165920825Y-71730947D01*
X166020209Y-71772113D01*
X166125714Y-71793100D01*
X166233286Y-71793100D01*
X166338791Y-71772113D01*
X166438175Y-71730947D01*
X166527618Y-71671183D01*
X166603683Y-71595118D01*
X166655750Y-71517194D01*
X166707817Y-71595118D01*
X166783882Y-71671183D01*
X166873325Y-71730947D01*
X166972709Y-71772113D01*
X167078214Y-71793100D01*
X167185786Y-71793100D01*
X167291291Y-71772113D01*
X167390675Y-71730947D01*
X167480118Y-71671183D01*
X167556183Y-71595118D01*
X167615947Y-71505675D01*
X167657113Y-71406291D01*
X167678100Y-71300786D01*
X167678100Y-71193214D01*
X167657113Y-71087709D01*
X167615947Y-70988325D01*
X167556183Y-70898882D01*
X167480118Y-70822817D01*
X167390675Y-70763053D01*
X167291291Y-70721887D01*
X167185786Y-70700900D01*
X167078214Y-70700900D01*
X166972709Y-70721887D01*
X166873325Y-70763053D01*
X166783882Y-70822817D01*
X166707817Y-70898882D01*
X166655750Y-70976806D01*
X166603683Y-70898882D01*
X166527618Y-70822817D01*
X166438175Y-70763053D01*
X166338791Y-70721887D01*
X166233286Y-70700900D01*
X166125714Y-70700900D01*
X166020209Y-70721887D01*
X165920825Y-70763053D01*
X165831382Y-70822817D01*
X165755317Y-70898882D01*
X165695553Y-70988325D01*
X165654387Y-71087709D01*
X165633400Y-71193214D01*
X164719000Y-71193214D01*
X164719000Y-69732714D01*
X166077900Y-69732714D01*
X166077900Y-69840286D01*
X166098887Y-69945791D01*
X166140053Y-70045175D01*
X166199817Y-70134618D01*
X166275882Y-70210683D01*
X166365325Y-70270447D01*
X166464709Y-70311613D01*
X166570214Y-70332600D01*
X166677786Y-70332600D01*
X166783291Y-70311613D01*
X166882675Y-70270447D01*
X166972118Y-70210683D01*
X167048183Y-70134618D01*
X167107947Y-70045175D01*
X167149113Y-69945791D01*
X167170100Y-69840286D01*
X167170100Y-69732714D01*
X167149113Y-69627209D01*
X167107947Y-69527825D01*
X167048183Y-69438382D01*
X166972118Y-69362317D01*
X166882675Y-69302553D01*
X166783291Y-69261387D01*
X166677786Y-69240400D01*
X166570214Y-69240400D01*
X166464709Y-69261387D01*
X166365325Y-69302553D01*
X166275882Y-69362317D01*
X166199817Y-69438382D01*
X166140053Y-69527825D01*
X166098887Y-69627209D01*
X166077900Y-69732714D01*
X164719000Y-69732714D01*
X164719000Y-65754901D01*
X164887793Y-66162405D01*
X165156354Y-66564334D01*
X165498166Y-66906146D01*
X165900095Y-67174707D01*
X166346695Y-67359694D01*
X166820802Y-67454000D01*
X167304198Y-67454000D01*
X167778305Y-67359694D01*
X168224905Y-67174707D01*
X168626834Y-66906146D01*
X168968646Y-66564334D01*
X169237207Y-66162405D01*
X169422194Y-65715805D01*
X169516500Y-65241698D01*
X169516500Y-64758302D01*
X180483500Y-64758302D01*
X180483500Y-65241698D01*
X180577806Y-65715805D01*
X180762793Y-66162405D01*
X181031354Y-66564334D01*
X181373166Y-66906146D01*
X181775095Y-67174707D01*
X182221695Y-67359694D01*
X182695802Y-67454000D01*
X183179198Y-67454000D01*
X183653305Y-67359694D01*
X184099905Y-67174707D01*
X184501834Y-66906146D01*
X184843646Y-66564334D01*
X185112207Y-66162405D01*
X185297194Y-65715805D01*
X185391500Y-65241698D01*
X185391500Y-64758302D01*
X185297194Y-64284195D01*
X185112207Y-63837595D01*
X184843646Y-63435666D01*
X184501834Y-63093854D01*
X184099905Y-62825293D01*
X183653305Y-62640306D01*
X183179198Y-62546000D01*
X182695802Y-62546000D01*
X182221695Y-62640306D01*
X181775095Y-62825293D01*
X181373166Y-63093854D01*
X181031354Y-63435666D01*
X180762793Y-63837595D01*
X180577806Y-64284195D01*
X180483500Y-64758302D01*
X169516500Y-64758302D01*
X169422194Y-64284195D01*
X169237207Y-63837595D01*
X169094504Y-63624024D01*
X173177228Y-63624024D01*
X173177228Y-63731596D01*
X173198215Y-63837101D01*
X173239381Y-63936485D01*
X173299145Y-64025928D01*
X173375210Y-64101993D01*
X173464653Y-64161757D01*
X173564037Y-64202923D01*
X173669542Y-64223910D01*
X173777114Y-64223910D01*
X173882619Y-64202923D01*
X173982003Y-64161757D01*
X174071446Y-64101993D01*
X174147511Y-64025928D01*
X174152999Y-64017714D01*
X175539400Y-64017714D01*
X175539400Y-64125286D01*
X175560387Y-64230791D01*
X175601553Y-64330175D01*
X175661317Y-64419618D01*
X175737382Y-64495683D01*
X175826825Y-64555447D01*
X175926209Y-64596613D01*
X176031714Y-64617600D01*
X176139286Y-64617600D01*
X176244791Y-64596613D01*
X176344175Y-64555447D01*
X176433618Y-64495683D01*
X176509683Y-64419618D01*
X176569447Y-64330175D01*
X176610613Y-64230791D01*
X176631600Y-64125286D01*
X176631600Y-64017714D01*
X176610613Y-63912209D01*
X176569447Y-63812825D01*
X176509683Y-63723382D01*
X176433618Y-63647317D01*
X176344175Y-63587553D01*
X176244791Y-63546387D01*
X176139286Y-63525400D01*
X176031714Y-63525400D01*
X175926209Y-63546387D01*
X175826825Y-63587553D01*
X175737382Y-63647317D01*
X175661317Y-63723382D01*
X175601553Y-63812825D01*
X175560387Y-63912209D01*
X175539400Y-64017714D01*
X174152999Y-64017714D01*
X174207275Y-63936485D01*
X174248441Y-63837101D01*
X174269428Y-63731596D01*
X174269428Y-63624024D01*
X174248441Y-63518519D01*
X174207275Y-63419135D01*
X174147511Y-63329692D01*
X174071446Y-63253627D01*
X173982003Y-63193863D01*
X173882619Y-63152697D01*
X173777114Y-63131710D01*
X173669542Y-63131710D01*
X173564037Y-63152697D01*
X173464653Y-63193863D01*
X173375210Y-63253627D01*
X173299145Y-63329692D01*
X173239381Y-63419135D01*
X173198215Y-63518519D01*
X173177228Y-63624024D01*
X169094504Y-63624024D01*
X168968646Y-63435666D01*
X168661694Y-63128714D01*
X177253900Y-63128714D01*
X177253900Y-63236286D01*
X177274887Y-63341791D01*
X177316053Y-63441175D01*
X177375817Y-63530618D01*
X177451882Y-63606683D01*
X177541325Y-63666447D01*
X177640709Y-63707613D01*
X177746214Y-63728600D01*
X177853786Y-63728600D01*
X177959291Y-63707613D01*
X178058675Y-63666447D01*
X178148118Y-63606683D01*
X178224183Y-63530618D01*
X178283947Y-63441175D01*
X178325113Y-63341791D01*
X178346100Y-63236286D01*
X178346100Y-63128714D01*
X178325113Y-63023209D01*
X178283947Y-62923825D01*
X178224183Y-62834382D01*
X178148118Y-62758317D01*
X178058675Y-62698553D01*
X177959291Y-62657387D01*
X177853786Y-62636400D01*
X177746214Y-62636400D01*
X177640709Y-62657387D01*
X177541325Y-62698553D01*
X177451882Y-62758317D01*
X177375817Y-62834382D01*
X177316053Y-62923825D01*
X177274887Y-63023209D01*
X177253900Y-63128714D01*
X168661694Y-63128714D01*
X168626834Y-63093854D01*
X168224905Y-62825293D01*
X167778305Y-62640306D01*
X167304198Y-62546000D01*
X166820802Y-62546000D01*
X166346695Y-62640306D01*
X165900095Y-62825293D01*
X165498166Y-63093854D01*
X165156354Y-63435666D01*
X164887793Y-63837595D01*
X164719000Y-64245099D01*
X164719000Y-61477714D01*
X170776900Y-61477714D01*
X170776900Y-61585286D01*
X170797887Y-61690791D01*
X170839053Y-61790175D01*
X170898817Y-61879618D01*
X170974882Y-61955683D01*
X171064325Y-62015447D01*
X171163709Y-62056613D01*
X171269214Y-62077600D01*
X171376786Y-62077600D01*
X171482291Y-62056613D01*
X171581675Y-62015447D01*
X171671118Y-61955683D01*
X171747183Y-61879618D01*
X171806947Y-61790175D01*
X171848113Y-61690791D01*
X171869100Y-61585286D01*
X171869100Y-61477714D01*
X171848113Y-61372209D01*
X171806947Y-61272825D01*
X171747183Y-61183382D01*
X171696859Y-61133058D01*
X178265744Y-61133058D01*
X178265744Y-61240630D01*
X178286731Y-61346135D01*
X178327897Y-61445519D01*
X178387661Y-61534962D01*
X178463726Y-61611027D01*
X178553169Y-61670791D01*
X178652553Y-61711957D01*
X178758058Y-61732944D01*
X178865630Y-61732944D01*
X178971135Y-61711957D01*
X179070519Y-61670791D01*
X179159962Y-61611027D01*
X179236027Y-61534962D01*
X179295791Y-61445519D01*
X179336957Y-61346135D01*
X179357944Y-61240630D01*
X179357944Y-61133058D01*
X179336957Y-61027553D01*
X179295791Y-60928169D01*
X179236027Y-60838726D01*
X179159962Y-60762661D01*
X179070519Y-60702897D01*
X178971135Y-60661731D01*
X178865630Y-60640744D01*
X178758058Y-60640744D01*
X178652553Y-60661731D01*
X178553169Y-60702897D01*
X178463726Y-60762661D01*
X178387661Y-60838726D01*
X178327897Y-60928169D01*
X178286731Y-61027553D01*
X178265744Y-61133058D01*
X171696859Y-61133058D01*
X171671118Y-61107317D01*
X171581675Y-61047553D01*
X171482291Y-61006387D01*
X171376786Y-60985400D01*
X171269214Y-60985400D01*
X171163709Y-61006387D01*
X171064325Y-61047553D01*
X170974882Y-61107317D01*
X170898817Y-61183382D01*
X170839053Y-61272825D01*
X170797887Y-61372209D01*
X170776900Y-61477714D01*
X164719000Y-61477714D01*
X164719000Y-60080714D01*
X167792400Y-60080714D01*
X167792400Y-60188286D01*
X167813387Y-60293791D01*
X167854553Y-60393175D01*
X167914317Y-60482618D01*
X167990382Y-60558683D01*
X168079825Y-60618447D01*
X168179209Y-60659613D01*
X168284714Y-60680600D01*
X168392286Y-60680600D01*
X168497791Y-60659613D01*
X168597175Y-60618447D01*
X168686618Y-60558683D01*
X168762683Y-60482618D01*
X168822447Y-60393175D01*
X168863613Y-60293791D01*
X168884600Y-60188286D01*
X168884600Y-60080714D01*
X168863613Y-59975209D01*
X168822447Y-59875825D01*
X168762683Y-59786382D01*
X168686618Y-59710317D01*
X168597175Y-59650553D01*
X168497791Y-59609387D01*
X168392286Y-59588400D01*
X168284714Y-59588400D01*
X168179209Y-59609387D01*
X168079825Y-59650553D01*
X167990382Y-59710317D01*
X167914317Y-59786382D01*
X167854553Y-59875825D01*
X167813387Y-59975209D01*
X167792400Y-60080714D01*
X164719000Y-60080714D01*
X164719000Y-58339058D01*
X175496240Y-58339058D01*
X175496240Y-58446630D01*
X175517227Y-58552135D01*
X175558393Y-58651519D01*
X175618157Y-58740962D01*
X175694222Y-58817027D01*
X175783665Y-58876791D01*
X175883049Y-58917957D01*
X175988554Y-58938944D01*
X176096126Y-58938944D01*
X176201631Y-58917957D01*
X176301015Y-58876791D01*
X176390458Y-58817027D01*
X176466523Y-58740962D01*
X176526287Y-58651519D01*
X176567453Y-58552135D01*
X176588440Y-58446630D01*
X176588440Y-58339058D01*
X176567453Y-58233553D01*
X176526287Y-58134169D01*
X176466523Y-58044726D01*
X176390458Y-57968661D01*
X176301015Y-57908897D01*
X176201631Y-57867731D01*
X176096126Y-57846744D01*
X175988554Y-57846744D01*
X175883049Y-57867731D01*
X175783665Y-57908897D01*
X175694222Y-57968661D01*
X175618157Y-58044726D01*
X175558393Y-58134169D01*
X175517227Y-58233553D01*
X175496240Y-58339058D01*
X164719000Y-58339058D01*
X164719000Y-57540714D01*
X165379400Y-57540714D01*
X165379400Y-57648286D01*
X165400387Y-57753791D01*
X165441553Y-57853175D01*
X165501317Y-57942618D01*
X165577382Y-58018683D01*
X165666825Y-58078447D01*
X165766209Y-58119613D01*
X165871714Y-58140600D01*
X165979286Y-58140600D01*
X166084791Y-58119613D01*
X166184175Y-58078447D01*
X166273618Y-58018683D01*
X166349683Y-57942618D01*
X166409447Y-57853175D01*
X166450613Y-57753791D01*
X166471600Y-57648286D01*
X166471600Y-57540714D01*
X166450613Y-57435209D01*
X166409447Y-57335825D01*
X166349683Y-57246382D01*
X166273618Y-57170317D01*
X166184175Y-57110553D01*
X166084791Y-57069387D01*
X165979286Y-57048400D01*
X165871714Y-57048400D01*
X165766209Y-57069387D01*
X165666825Y-57110553D01*
X165577382Y-57170317D01*
X165501317Y-57246382D01*
X165441553Y-57335825D01*
X165400387Y-57435209D01*
X165379400Y-57540714D01*
X164719000Y-57540714D01*
X164719000Y-56334214D01*
X165369202Y-56334214D01*
X165369202Y-56441786D01*
X165390189Y-56547291D01*
X165431355Y-56646675D01*
X165491119Y-56736118D01*
X165567184Y-56812183D01*
X165656627Y-56871947D01*
X165756011Y-56913113D01*
X165861516Y-56934100D01*
X165969088Y-56934100D01*
X166074593Y-56913113D01*
X166173977Y-56871947D01*
X166263420Y-56812183D01*
X166339485Y-56736118D01*
X166399249Y-56646675D01*
X166440415Y-56547291D01*
X166461402Y-56441786D01*
X166461402Y-56334214D01*
X166440415Y-56228709D01*
X166424236Y-56189649D01*
X166497598Y-56140630D01*
X166573663Y-56064565D01*
X166633427Y-55975122D01*
X166674593Y-55875738D01*
X166695580Y-55770233D01*
X166695580Y-55662661D01*
X166674593Y-55557156D01*
X166633427Y-55457772D01*
X166573663Y-55368329D01*
X166497598Y-55292264D01*
X166408155Y-55232500D01*
X166308771Y-55191334D01*
X166203266Y-55170347D01*
X166095694Y-55170347D01*
X165990189Y-55191334D01*
X165890805Y-55232500D01*
X165801362Y-55292264D01*
X165725297Y-55368329D01*
X165665533Y-55457772D01*
X165624367Y-55557156D01*
X165603380Y-55662661D01*
X165603380Y-55770233D01*
X165624367Y-55875738D01*
X165640546Y-55914798D01*
X165567184Y-55963817D01*
X165491119Y-56039882D01*
X165431355Y-56129325D01*
X165390189Y-56228709D01*
X165369202Y-56334214D01*
X164719000Y-56334214D01*
X164719000Y-54302214D01*
X179539900Y-54302214D01*
X179539900Y-54409786D01*
X179560887Y-54515291D01*
X179602053Y-54614675D01*
X179661817Y-54704118D01*
X179737882Y-54780183D01*
X179827325Y-54839947D01*
X179926709Y-54881113D01*
X180032214Y-54902100D01*
X180139786Y-54902100D01*
X180245291Y-54881113D01*
X180344675Y-54839947D01*
X180434118Y-54780183D01*
X180510183Y-54704118D01*
X180569947Y-54614675D01*
X180611113Y-54515291D01*
X180632100Y-54409786D01*
X180632100Y-54302214D01*
X180611113Y-54196709D01*
X180569947Y-54097325D01*
X180510183Y-54007882D01*
X180434118Y-53931817D01*
X180344675Y-53872053D01*
X180245291Y-53830887D01*
X180139786Y-53809900D01*
X180032214Y-53809900D01*
X179926709Y-53830887D01*
X179827325Y-53872053D01*
X179737882Y-53931817D01*
X179661817Y-54007882D01*
X179602053Y-54097325D01*
X179560887Y-54196709D01*
X179539900Y-54302214D01*
X164719000Y-54302214D01*
X164719000Y-53721000D01*
X185801000Y-53721000D01*
X185801000Y-57213359D01*
X185801000Y-57213359D01*
G37*
X185801000Y-57213359D02*
X185742175Y-57174053D01*
X185642791Y-57132887D01*
X185537286Y-57111900D01*
X185429714Y-57111900D01*
X185324209Y-57132887D01*
X185224825Y-57174053D01*
X185135382Y-57233817D01*
X185134250Y-57234949D01*
X185133118Y-57233817D01*
X185043675Y-57174053D01*
X184944291Y-57132887D01*
X184838786Y-57111900D01*
X184731214Y-57111900D01*
X184625709Y-57132887D01*
X184526325Y-57174053D01*
X184436882Y-57233817D01*
X184360817Y-57309882D01*
X184301053Y-57399325D01*
X184259887Y-57498709D01*
X184238900Y-57604214D01*
X184238900Y-57711786D01*
X184259887Y-57817291D01*
X184301053Y-57916675D01*
X184360817Y-58006118D01*
X184436882Y-58082183D01*
X184526325Y-58141947D01*
X184625709Y-58183113D01*
X184731214Y-58204100D01*
X184838786Y-58204100D01*
X184944291Y-58183113D01*
X185043675Y-58141947D01*
X185133118Y-58082183D01*
X185134250Y-58081051D01*
X185135382Y-58082183D01*
X185224825Y-58141947D01*
X185324209Y-58183113D01*
X185429714Y-58204100D01*
X185537286Y-58204100D01*
X185642791Y-58183113D01*
X185742175Y-58141947D01*
X185801000Y-58102641D01*
X185801000Y-75565000D01*
X164719000Y-75565000D01*
X164719000Y-72590214D01*
X166077900Y-72590214D01*
X166077900Y-72697786D01*
X166098887Y-72803291D01*
X166140053Y-72902675D01*
X166199817Y-72992118D01*
X166275882Y-73068183D01*
X166365325Y-73127947D01*
X166464709Y-73169113D01*
X166570214Y-73190100D01*
X166677786Y-73190100D01*
X166783291Y-73169113D01*
X166882675Y-73127947D01*
X166972118Y-73068183D01*
X167048183Y-72992118D01*
X167107947Y-72902675D01*
X167149113Y-72803291D01*
X167170100Y-72697786D01*
X167170100Y-72590214D01*
X167149113Y-72484709D01*
X167107947Y-72385325D01*
X167048183Y-72295882D01*
X166972118Y-72219817D01*
X166882675Y-72160053D01*
X166783291Y-72118887D01*
X166677786Y-72097900D01*
X166570214Y-72097900D01*
X166464709Y-72118887D01*
X166365325Y-72160053D01*
X166275882Y-72219817D01*
X166199817Y-72295882D01*
X166140053Y-72385325D01*
X166098887Y-72484709D01*
X166077900Y-72590214D01*
X164719000Y-72590214D01*
X164719000Y-71193214D01*
X165633400Y-71193214D01*
X165633400Y-71300786D01*
X165654387Y-71406291D01*
X165695553Y-71505675D01*
X165755317Y-71595118D01*
X165831382Y-71671183D01*
X165920825Y-71730947D01*
X166020209Y-71772113D01*
X166125714Y-71793100D01*
X166233286Y-71793100D01*
X166338791Y-71772113D01*
X166438175Y-71730947D01*
X166527618Y-71671183D01*
X166603683Y-71595118D01*
X166655750Y-71517194D01*
X166707817Y-71595118D01*
X166783882Y-71671183D01*
X166873325Y-71730947D01*
X166972709Y-71772113D01*
X167078214Y-71793100D01*
X167185786Y-71793100D01*
X167291291Y-71772113D01*
X167390675Y-71730947D01*
X167480118Y-71671183D01*
X167556183Y-71595118D01*
X167615947Y-71505675D01*
X167657113Y-71406291D01*
X167678100Y-71300786D01*
X167678100Y-71193214D01*
X167657113Y-71087709D01*
X167615947Y-70988325D01*
X167556183Y-70898882D01*
X167480118Y-70822817D01*
X167390675Y-70763053D01*
X167291291Y-70721887D01*
X167185786Y-70700900D01*
X167078214Y-70700900D01*
X166972709Y-70721887D01*
X166873325Y-70763053D01*
X166783882Y-70822817D01*
X166707817Y-70898882D01*
X166655750Y-70976806D01*
X166603683Y-70898882D01*
X166527618Y-70822817D01*
X166438175Y-70763053D01*
X166338791Y-70721887D01*
X166233286Y-70700900D01*
X166125714Y-70700900D01*
X166020209Y-70721887D01*
X165920825Y-70763053D01*
X165831382Y-70822817D01*
X165755317Y-70898882D01*
X165695553Y-70988325D01*
X165654387Y-71087709D01*
X165633400Y-71193214D01*
X164719000Y-71193214D01*
X164719000Y-69732714D01*
X166077900Y-69732714D01*
X166077900Y-69840286D01*
X166098887Y-69945791D01*
X166140053Y-70045175D01*
X166199817Y-70134618D01*
X166275882Y-70210683D01*
X166365325Y-70270447D01*
X166464709Y-70311613D01*
X166570214Y-70332600D01*
X166677786Y-70332600D01*
X166783291Y-70311613D01*
X166882675Y-70270447D01*
X166972118Y-70210683D01*
X167048183Y-70134618D01*
X167107947Y-70045175D01*
X167149113Y-69945791D01*
X167170100Y-69840286D01*
X167170100Y-69732714D01*
X167149113Y-69627209D01*
X167107947Y-69527825D01*
X167048183Y-69438382D01*
X166972118Y-69362317D01*
X166882675Y-69302553D01*
X166783291Y-69261387D01*
X166677786Y-69240400D01*
X166570214Y-69240400D01*
X166464709Y-69261387D01*
X166365325Y-69302553D01*
X166275882Y-69362317D01*
X166199817Y-69438382D01*
X166140053Y-69527825D01*
X166098887Y-69627209D01*
X166077900Y-69732714D01*
X164719000Y-69732714D01*
X164719000Y-65754901D01*
X164887793Y-66162405D01*
X165156354Y-66564334D01*
X165498166Y-66906146D01*
X165900095Y-67174707D01*
X166346695Y-67359694D01*
X166820802Y-67454000D01*
X167304198Y-67454000D01*
X167778305Y-67359694D01*
X168224905Y-67174707D01*
X168626834Y-66906146D01*
X168968646Y-66564334D01*
X169237207Y-66162405D01*
X169422194Y-65715805D01*
X169516500Y-65241698D01*
X169516500Y-64758302D01*
X180483500Y-64758302D01*
X180483500Y-65241698D01*
X180577806Y-65715805D01*
X180762793Y-66162405D01*
X181031354Y-66564334D01*
X181373166Y-66906146D01*
X181775095Y-67174707D01*
X182221695Y-67359694D01*
X182695802Y-67454000D01*
X183179198Y-67454000D01*
X183653305Y-67359694D01*
X184099905Y-67174707D01*
X184501834Y-66906146D01*
X184843646Y-66564334D01*
X185112207Y-66162405D01*
X185297194Y-65715805D01*
X185391500Y-65241698D01*
X185391500Y-64758302D01*
X185297194Y-64284195D01*
X185112207Y-63837595D01*
X184843646Y-63435666D01*
X184501834Y-63093854D01*
X184099905Y-62825293D01*
X183653305Y-62640306D01*
X183179198Y-62546000D01*
X182695802Y-62546000D01*
X182221695Y-62640306D01*
X181775095Y-62825293D01*
X181373166Y-63093854D01*
X181031354Y-63435666D01*
X180762793Y-63837595D01*
X180577806Y-64284195D01*
X180483500Y-64758302D01*
X169516500Y-64758302D01*
X169422194Y-64284195D01*
X169237207Y-63837595D01*
X169094504Y-63624024D01*
X173177228Y-63624024D01*
X173177228Y-63731596D01*
X173198215Y-63837101D01*
X173239381Y-63936485D01*
X173299145Y-64025928D01*
X173375210Y-64101993D01*
X173464653Y-64161757D01*
X173564037Y-64202923D01*
X173669542Y-64223910D01*
X173777114Y-64223910D01*
X173882619Y-64202923D01*
X173982003Y-64161757D01*
X174071446Y-64101993D01*
X174147511Y-64025928D01*
X174152999Y-64017714D01*
X175539400Y-64017714D01*
X175539400Y-64125286D01*
X175560387Y-64230791D01*
X175601553Y-64330175D01*
X175661317Y-64419618D01*
X175737382Y-64495683D01*
X175826825Y-64555447D01*
X175926209Y-64596613D01*
X176031714Y-64617600D01*
X176139286Y-64617600D01*
X176244791Y-64596613D01*
X176344175Y-64555447D01*
X176433618Y-64495683D01*
X176509683Y-64419618D01*
X176569447Y-64330175D01*
X176610613Y-64230791D01*
X176631600Y-64125286D01*
X176631600Y-64017714D01*
X176610613Y-63912209D01*
X176569447Y-63812825D01*
X176509683Y-63723382D01*
X176433618Y-63647317D01*
X176344175Y-63587553D01*
X176244791Y-63546387D01*
X176139286Y-63525400D01*
X176031714Y-63525400D01*
X175926209Y-63546387D01*
X175826825Y-63587553D01*
X175737382Y-63647317D01*
X175661317Y-63723382D01*
X175601553Y-63812825D01*
X175560387Y-63912209D01*
X175539400Y-64017714D01*
X174152999Y-64017714D01*
X174207275Y-63936485D01*
X174248441Y-63837101D01*
X174269428Y-63731596D01*
X174269428Y-63624024D01*
X174248441Y-63518519D01*
X174207275Y-63419135D01*
X174147511Y-63329692D01*
X174071446Y-63253627D01*
X173982003Y-63193863D01*
X173882619Y-63152697D01*
X173777114Y-63131710D01*
X173669542Y-63131710D01*
X173564037Y-63152697D01*
X173464653Y-63193863D01*
X173375210Y-63253627D01*
X173299145Y-63329692D01*
X173239381Y-63419135D01*
X173198215Y-63518519D01*
X173177228Y-63624024D01*
X169094504Y-63624024D01*
X168968646Y-63435666D01*
X168661694Y-63128714D01*
X177253900Y-63128714D01*
X177253900Y-63236286D01*
X177274887Y-63341791D01*
X177316053Y-63441175D01*
X177375817Y-63530618D01*
X177451882Y-63606683D01*
X177541325Y-63666447D01*
X177640709Y-63707613D01*
X177746214Y-63728600D01*
X177853786Y-63728600D01*
X177959291Y-63707613D01*
X178058675Y-63666447D01*
X178148118Y-63606683D01*
X178224183Y-63530618D01*
X178283947Y-63441175D01*
X178325113Y-63341791D01*
X178346100Y-63236286D01*
X178346100Y-63128714D01*
X178325113Y-63023209D01*
X178283947Y-62923825D01*
X178224183Y-62834382D01*
X178148118Y-62758317D01*
X178058675Y-62698553D01*
X177959291Y-62657387D01*
X177853786Y-62636400D01*
X177746214Y-62636400D01*
X177640709Y-62657387D01*
X177541325Y-62698553D01*
X177451882Y-62758317D01*
X177375817Y-62834382D01*
X177316053Y-62923825D01*
X177274887Y-63023209D01*
X177253900Y-63128714D01*
X168661694Y-63128714D01*
X168626834Y-63093854D01*
X168224905Y-62825293D01*
X167778305Y-62640306D01*
X167304198Y-62546000D01*
X166820802Y-62546000D01*
X166346695Y-62640306D01*
X165900095Y-62825293D01*
X165498166Y-63093854D01*
X165156354Y-63435666D01*
X164887793Y-63837595D01*
X164719000Y-64245099D01*
X164719000Y-61477714D01*
X170776900Y-61477714D01*
X170776900Y-61585286D01*
X170797887Y-61690791D01*
X170839053Y-61790175D01*
X170898817Y-61879618D01*
X170974882Y-61955683D01*
X171064325Y-62015447D01*
X171163709Y-62056613D01*
X171269214Y-62077600D01*
X171376786Y-62077600D01*
X171482291Y-62056613D01*
X171581675Y-62015447D01*
X171671118Y-61955683D01*
X171747183Y-61879618D01*
X171806947Y-61790175D01*
X171848113Y-61690791D01*
X171869100Y-61585286D01*
X171869100Y-61477714D01*
X171848113Y-61372209D01*
X171806947Y-61272825D01*
X171747183Y-61183382D01*
X171696859Y-61133058D01*
X178265744Y-61133058D01*
X178265744Y-61240630D01*
X178286731Y-61346135D01*
X178327897Y-61445519D01*
X178387661Y-61534962D01*
X178463726Y-61611027D01*
X178553169Y-61670791D01*
X178652553Y-61711957D01*
X178758058Y-61732944D01*
X178865630Y-61732944D01*
X178971135Y-61711957D01*
X179070519Y-61670791D01*
X179159962Y-61611027D01*
X179236027Y-61534962D01*
X179295791Y-61445519D01*
X179336957Y-61346135D01*
X179357944Y-61240630D01*
X179357944Y-61133058D01*
X179336957Y-61027553D01*
X179295791Y-60928169D01*
X179236027Y-60838726D01*
X179159962Y-60762661D01*
X179070519Y-60702897D01*
X178971135Y-60661731D01*
X178865630Y-60640744D01*
X178758058Y-60640744D01*
X178652553Y-60661731D01*
X178553169Y-60702897D01*
X178463726Y-60762661D01*
X178387661Y-60838726D01*
X178327897Y-60928169D01*
X178286731Y-61027553D01*
X178265744Y-61133058D01*
X171696859Y-61133058D01*
X171671118Y-61107317D01*
X171581675Y-61047553D01*
X171482291Y-61006387D01*
X171376786Y-60985400D01*
X171269214Y-60985400D01*
X171163709Y-61006387D01*
X171064325Y-61047553D01*
X170974882Y-61107317D01*
X170898817Y-61183382D01*
X170839053Y-61272825D01*
X170797887Y-61372209D01*
X170776900Y-61477714D01*
X164719000Y-61477714D01*
X164719000Y-60080714D01*
X167792400Y-60080714D01*
X167792400Y-60188286D01*
X167813387Y-60293791D01*
X167854553Y-60393175D01*
X167914317Y-60482618D01*
X167990382Y-60558683D01*
X168079825Y-60618447D01*
X168179209Y-60659613D01*
X168284714Y-60680600D01*
X168392286Y-60680600D01*
X168497791Y-60659613D01*
X168597175Y-60618447D01*
X168686618Y-60558683D01*
X168762683Y-60482618D01*
X168822447Y-60393175D01*
X168863613Y-60293791D01*
X168884600Y-60188286D01*
X168884600Y-60080714D01*
X168863613Y-59975209D01*
X168822447Y-59875825D01*
X168762683Y-59786382D01*
X168686618Y-59710317D01*
X168597175Y-59650553D01*
X168497791Y-59609387D01*
X168392286Y-59588400D01*
X168284714Y-59588400D01*
X168179209Y-59609387D01*
X168079825Y-59650553D01*
X167990382Y-59710317D01*
X167914317Y-59786382D01*
X167854553Y-59875825D01*
X167813387Y-59975209D01*
X167792400Y-60080714D01*
X164719000Y-60080714D01*
X164719000Y-58339058D01*
X175496240Y-58339058D01*
X175496240Y-58446630D01*
X175517227Y-58552135D01*
X175558393Y-58651519D01*
X175618157Y-58740962D01*
X175694222Y-58817027D01*
X175783665Y-58876791D01*
X175883049Y-58917957D01*
X175988554Y-58938944D01*
X176096126Y-58938944D01*
X176201631Y-58917957D01*
X176301015Y-58876791D01*
X176390458Y-58817027D01*
X176466523Y-58740962D01*
X176526287Y-58651519D01*
X176567453Y-58552135D01*
X176588440Y-58446630D01*
X176588440Y-58339058D01*
X176567453Y-58233553D01*
X176526287Y-58134169D01*
X176466523Y-58044726D01*
X176390458Y-57968661D01*
X176301015Y-57908897D01*
X176201631Y-57867731D01*
X176096126Y-57846744D01*
X175988554Y-57846744D01*
X175883049Y-57867731D01*
X175783665Y-57908897D01*
X175694222Y-57968661D01*
X175618157Y-58044726D01*
X175558393Y-58134169D01*
X175517227Y-58233553D01*
X175496240Y-58339058D01*
X164719000Y-58339058D01*
X164719000Y-57540714D01*
X165379400Y-57540714D01*
X165379400Y-57648286D01*
X165400387Y-57753791D01*
X165441553Y-57853175D01*
X165501317Y-57942618D01*
X165577382Y-58018683D01*
X165666825Y-58078447D01*
X165766209Y-58119613D01*
X165871714Y-58140600D01*
X165979286Y-58140600D01*
X166084791Y-58119613D01*
X166184175Y-58078447D01*
X166273618Y-58018683D01*
X166349683Y-57942618D01*
X166409447Y-57853175D01*
X166450613Y-57753791D01*
X166471600Y-57648286D01*
X166471600Y-57540714D01*
X166450613Y-57435209D01*
X166409447Y-57335825D01*
X166349683Y-57246382D01*
X166273618Y-57170317D01*
X166184175Y-57110553D01*
X166084791Y-57069387D01*
X165979286Y-57048400D01*
X165871714Y-57048400D01*
X165766209Y-57069387D01*
X165666825Y-57110553D01*
X165577382Y-57170317D01*
X165501317Y-57246382D01*
X165441553Y-57335825D01*
X165400387Y-57435209D01*
X165379400Y-57540714D01*
X164719000Y-57540714D01*
X164719000Y-56334214D01*
X165369202Y-56334214D01*
X165369202Y-56441786D01*
X165390189Y-56547291D01*
X165431355Y-56646675D01*
X165491119Y-56736118D01*
X165567184Y-56812183D01*
X165656627Y-56871947D01*
X165756011Y-56913113D01*
X165861516Y-56934100D01*
X165969088Y-56934100D01*
X166074593Y-56913113D01*
X166173977Y-56871947D01*
X166263420Y-56812183D01*
X166339485Y-56736118D01*
X166399249Y-56646675D01*
X166440415Y-56547291D01*
X166461402Y-56441786D01*
X166461402Y-56334214D01*
X166440415Y-56228709D01*
X166424236Y-56189649D01*
X166497598Y-56140630D01*
X166573663Y-56064565D01*
X166633427Y-55975122D01*
X166674593Y-55875738D01*
X166695580Y-55770233D01*
X166695580Y-55662661D01*
X166674593Y-55557156D01*
X166633427Y-55457772D01*
X166573663Y-55368329D01*
X166497598Y-55292264D01*
X166408155Y-55232500D01*
X166308771Y-55191334D01*
X166203266Y-55170347D01*
X166095694Y-55170347D01*
X165990189Y-55191334D01*
X165890805Y-55232500D01*
X165801362Y-55292264D01*
X165725297Y-55368329D01*
X165665533Y-55457772D01*
X165624367Y-55557156D01*
X165603380Y-55662661D01*
X165603380Y-55770233D01*
X165624367Y-55875738D01*
X165640546Y-55914798D01*
X165567184Y-55963817D01*
X165491119Y-56039882D01*
X165431355Y-56129325D01*
X165390189Y-56228709D01*
X165369202Y-56334214D01*
X164719000Y-56334214D01*
X164719000Y-54302214D01*
X179539900Y-54302214D01*
X179539900Y-54409786D01*
X179560887Y-54515291D01*
X179602053Y-54614675D01*
X179661817Y-54704118D01*
X179737882Y-54780183D01*
X179827325Y-54839947D01*
X179926709Y-54881113D01*
X180032214Y-54902100D01*
X180139786Y-54902100D01*
X180245291Y-54881113D01*
X180344675Y-54839947D01*
X180434118Y-54780183D01*
X180510183Y-54704118D01*
X180569947Y-54614675D01*
X180611113Y-54515291D01*
X180632100Y-54409786D01*
X180632100Y-54302214D01*
X180611113Y-54196709D01*
X180569947Y-54097325D01*
X180510183Y-54007882D01*
X180434118Y-53931817D01*
X180344675Y-53872053D01*
X180245291Y-53830887D01*
X180139786Y-53809900D01*
X180032214Y-53809900D01*
X179926709Y-53830887D01*
X179827325Y-53872053D01*
X179737882Y-53931817D01*
X179661817Y-54007882D01*
X179602053Y-54097325D01*
X179560887Y-54196709D01*
X179539900Y-54302214D01*
X164719000Y-54302214D01*
X164719000Y-53721000D01*
X185801000Y-53721000D01*
X185801000Y-57213359D01*
M02*
