%TF.GenerationSoftware,KiCad,Pcbnew,(5.1.4)-1*%
%TF.CreationDate,2019-10-25T20:37:58-07:00*%
%TF.ProjectId,SolarCellZ_v1,536f6c61-7243-4656-9c6c-5a5f76312e6b,rev?*%
%TF.SameCoordinates,Original*%
%TF.FileFunction,Paste,Bot*%
%TF.FilePolarity,Positive*%
%FSLAX46Y46*%
G04 Gerber Fmt 4.6, Leading zero omitted, Abs format (unit mm)*
G04 Created by KiCad (PCBNEW (5.1.4)-1) date 2019-10-25 20:37:58*
%MOMM*%
%LPD*%
G04 APERTURE LIST*
%ADD10C,0.050000*%
%ADD11R,2.209800X0.609600*%
%ADD12C,0.100000*%
%ADD13C,0.590000*%
%ADD14R,0.900000X0.800000*%
%ADD15R,0.800000X0.800000*%
%ADD16R,1.100000X2.000000*%
%ADD17C,0.875000*%
%ADD18R,0.500000X0.700000*%
%ADD19R,2.150000X2.150000*%
%ADD20R,0.300000X0.900000*%
%ADD21R,0.900000X0.300000*%
%ADD22R,1.500000X1.700000*%
%ADD23R,1.100000X0.250000*%
%ADD24R,1.435100X4.394200*%
G04 APERTURE END LIST*
D10*
X99200000Y-52750000D02*
X99200000Y-56250000D01*
X99200000Y-56250000D02*
X107400000Y-56250000D01*
X107400000Y-52750000D02*
X107400000Y-56250000D01*
X99200000Y-52750000D02*
X107400000Y-52750000D01*
X96200000Y-73400000D02*
G75*
G03X96200000Y-73400000I-1100000J0D01*
G01*
X136000000Y-73400000D02*
G75*
G03X136000000Y-73400000I-1100000J0D01*
G01*
X136000000Y-55000000D02*
G75*
G03X136000000Y-55000000I-1100000J0D01*
G01*
X96200000Y-55000000D02*
G75*
G03X96200000Y-55000000I-1100000J0D01*
G01*
X138400000Y-88400000D02*
X90000000Y-88400000D01*
X90000000Y-88400000D02*
X90000000Y-40000000D01*
X138400000Y-40000000D02*
X138400000Y-88400000D01*
X90000000Y-40000000D02*
X138400000Y-40000000D01*
D11*
X110604300Y-45339000D03*
X110604300Y-46609000D03*
X110604300Y-47879000D03*
X110604300Y-49149000D03*
X115836700Y-49149000D03*
X115836700Y-47879000D03*
X115836700Y-46609000D03*
X115836700Y-45339000D03*
D12*
G36*
X118487458Y-45067710D02*
G01*
X118501776Y-45069834D01*
X118515817Y-45073351D01*
X118529446Y-45078228D01*
X118542531Y-45084417D01*
X118554947Y-45091858D01*
X118566573Y-45100481D01*
X118577298Y-45110202D01*
X118587019Y-45120927D01*
X118595642Y-45132553D01*
X118603083Y-45144969D01*
X118609272Y-45158054D01*
X118614149Y-45171683D01*
X118617666Y-45185724D01*
X118619790Y-45200042D01*
X118620500Y-45214500D01*
X118620500Y-45509500D01*
X118619790Y-45523958D01*
X118617666Y-45538276D01*
X118614149Y-45552317D01*
X118609272Y-45565946D01*
X118603083Y-45579031D01*
X118595642Y-45591447D01*
X118587019Y-45603073D01*
X118577298Y-45613798D01*
X118566573Y-45623519D01*
X118554947Y-45632142D01*
X118542531Y-45639583D01*
X118529446Y-45645772D01*
X118515817Y-45650649D01*
X118501776Y-45654166D01*
X118487458Y-45656290D01*
X118473000Y-45657000D01*
X118128000Y-45657000D01*
X118113542Y-45656290D01*
X118099224Y-45654166D01*
X118085183Y-45650649D01*
X118071554Y-45645772D01*
X118058469Y-45639583D01*
X118046053Y-45632142D01*
X118034427Y-45623519D01*
X118023702Y-45613798D01*
X118013981Y-45603073D01*
X118005358Y-45591447D01*
X117997917Y-45579031D01*
X117991728Y-45565946D01*
X117986851Y-45552317D01*
X117983334Y-45538276D01*
X117981210Y-45523958D01*
X117980500Y-45509500D01*
X117980500Y-45214500D01*
X117981210Y-45200042D01*
X117983334Y-45185724D01*
X117986851Y-45171683D01*
X117991728Y-45158054D01*
X117997917Y-45144969D01*
X118005358Y-45132553D01*
X118013981Y-45120927D01*
X118023702Y-45110202D01*
X118034427Y-45100481D01*
X118046053Y-45091858D01*
X118058469Y-45084417D01*
X118071554Y-45078228D01*
X118085183Y-45073351D01*
X118099224Y-45069834D01*
X118113542Y-45067710D01*
X118128000Y-45067000D01*
X118473000Y-45067000D01*
X118487458Y-45067710D01*
X118487458Y-45067710D01*
G37*
D13*
X118300500Y-45362000D03*
D12*
G36*
X118487458Y-46037710D02*
G01*
X118501776Y-46039834D01*
X118515817Y-46043351D01*
X118529446Y-46048228D01*
X118542531Y-46054417D01*
X118554947Y-46061858D01*
X118566573Y-46070481D01*
X118577298Y-46080202D01*
X118587019Y-46090927D01*
X118595642Y-46102553D01*
X118603083Y-46114969D01*
X118609272Y-46128054D01*
X118614149Y-46141683D01*
X118617666Y-46155724D01*
X118619790Y-46170042D01*
X118620500Y-46184500D01*
X118620500Y-46479500D01*
X118619790Y-46493958D01*
X118617666Y-46508276D01*
X118614149Y-46522317D01*
X118609272Y-46535946D01*
X118603083Y-46549031D01*
X118595642Y-46561447D01*
X118587019Y-46573073D01*
X118577298Y-46583798D01*
X118566573Y-46593519D01*
X118554947Y-46602142D01*
X118542531Y-46609583D01*
X118529446Y-46615772D01*
X118515817Y-46620649D01*
X118501776Y-46624166D01*
X118487458Y-46626290D01*
X118473000Y-46627000D01*
X118128000Y-46627000D01*
X118113542Y-46626290D01*
X118099224Y-46624166D01*
X118085183Y-46620649D01*
X118071554Y-46615772D01*
X118058469Y-46609583D01*
X118046053Y-46602142D01*
X118034427Y-46593519D01*
X118023702Y-46583798D01*
X118013981Y-46573073D01*
X118005358Y-46561447D01*
X117997917Y-46549031D01*
X117991728Y-46535946D01*
X117986851Y-46522317D01*
X117983334Y-46508276D01*
X117981210Y-46493958D01*
X117980500Y-46479500D01*
X117980500Y-46184500D01*
X117981210Y-46170042D01*
X117983334Y-46155724D01*
X117986851Y-46141683D01*
X117991728Y-46128054D01*
X117997917Y-46114969D01*
X118005358Y-46102553D01*
X118013981Y-46090927D01*
X118023702Y-46080202D01*
X118034427Y-46070481D01*
X118046053Y-46061858D01*
X118058469Y-46054417D01*
X118071554Y-46048228D01*
X118085183Y-46043351D01*
X118099224Y-46039834D01*
X118113542Y-46037710D01*
X118128000Y-46037000D01*
X118473000Y-46037000D01*
X118487458Y-46037710D01*
X118487458Y-46037710D01*
G37*
D13*
X118300500Y-46332000D03*
D12*
G36*
X120455958Y-45004210D02*
G01*
X120470276Y-45006334D01*
X120484317Y-45009851D01*
X120497946Y-45014728D01*
X120511031Y-45020917D01*
X120523447Y-45028358D01*
X120535073Y-45036981D01*
X120545798Y-45046702D01*
X120555519Y-45057427D01*
X120564142Y-45069053D01*
X120571583Y-45081469D01*
X120577772Y-45094554D01*
X120582649Y-45108183D01*
X120586166Y-45122224D01*
X120588290Y-45136542D01*
X120589000Y-45151000D01*
X120589000Y-45446000D01*
X120588290Y-45460458D01*
X120586166Y-45474776D01*
X120582649Y-45488817D01*
X120577772Y-45502446D01*
X120571583Y-45515531D01*
X120564142Y-45527947D01*
X120555519Y-45539573D01*
X120545798Y-45550298D01*
X120535073Y-45560019D01*
X120523447Y-45568642D01*
X120511031Y-45576083D01*
X120497946Y-45582272D01*
X120484317Y-45587149D01*
X120470276Y-45590666D01*
X120455958Y-45592790D01*
X120441500Y-45593500D01*
X120096500Y-45593500D01*
X120082042Y-45592790D01*
X120067724Y-45590666D01*
X120053683Y-45587149D01*
X120040054Y-45582272D01*
X120026969Y-45576083D01*
X120014553Y-45568642D01*
X120002927Y-45560019D01*
X119992202Y-45550298D01*
X119982481Y-45539573D01*
X119973858Y-45527947D01*
X119966417Y-45515531D01*
X119960228Y-45502446D01*
X119955351Y-45488817D01*
X119951834Y-45474776D01*
X119949710Y-45460458D01*
X119949000Y-45446000D01*
X119949000Y-45151000D01*
X119949710Y-45136542D01*
X119951834Y-45122224D01*
X119955351Y-45108183D01*
X119960228Y-45094554D01*
X119966417Y-45081469D01*
X119973858Y-45069053D01*
X119982481Y-45057427D01*
X119992202Y-45046702D01*
X120002927Y-45036981D01*
X120014553Y-45028358D01*
X120026969Y-45020917D01*
X120040054Y-45014728D01*
X120053683Y-45009851D01*
X120067724Y-45006334D01*
X120082042Y-45004210D01*
X120096500Y-45003500D01*
X120441500Y-45003500D01*
X120455958Y-45004210D01*
X120455958Y-45004210D01*
G37*
D13*
X120269000Y-45298500D03*
D12*
G36*
X120455958Y-45974210D02*
G01*
X120470276Y-45976334D01*
X120484317Y-45979851D01*
X120497946Y-45984728D01*
X120511031Y-45990917D01*
X120523447Y-45998358D01*
X120535073Y-46006981D01*
X120545798Y-46016702D01*
X120555519Y-46027427D01*
X120564142Y-46039053D01*
X120571583Y-46051469D01*
X120577772Y-46064554D01*
X120582649Y-46078183D01*
X120586166Y-46092224D01*
X120588290Y-46106542D01*
X120589000Y-46121000D01*
X120589000Y-46416000D01*
X120588290Y-46430458D01*
X120586166Y-46444776D01*
X120582649Y-46458817D01*
X120577772Y-46472446D01*
X120571583Y-46485531D01*
X120564142Y-46497947D01*
X120555519Y-46509573D01*
X120545798Y-46520298D01*
X120535073Y-46530019D01*
X120523447Y-46538642D01*
X120511031Y-46546083D01*
X120497946Y-46552272D01*
X120484317Y-46557149D01*
X120470276Y-46560666D01*
X120455958Y-46562790D01*
X120441500Y-46563500D01*
X120096500Y-46563500D01*
X120082042Y-46562790D01*
X120067724Y-46560666D01*
X120053683Y-46557149D01*
X120040054Y-46552272D01*
X120026969Y-46546083D01*
X120014553Y-46538642D01*
X120002927Y-46530019D01*
X119992202Y-46520298D01*
X119982481Y-46509573D01*
X119973858Y-46497947D01*
X119966417Y-46485531D01*
X119960228Y-46472446D01*
X119955351Y-46458817D01*
X119951834Y-46444776D01*
X119949710Y-46430458D01*
X119949000Y-46416000D01*
X119949000Y-46121000D01*
X119949710Y-46106542D01*
X119951834Y-46092224D01*
X119955351Y-46078183D01*
X119960228Y-46064554D01*
X119966417Y-46051469D01*
X119973858Y-46039053D01*
X119982481Y-46027427D01*
X119992202Y-46016702D01*
X120002927Y-46006981D01*
X120014553Y-45998358D01*
X120026969Y-45990917D01*
X120040054Y-45984728D01*
X120053683Y-45979851D01*
X120067724Y-45976334D01*
X120082042Y-45974210D01*
X120096500Y-45973500D01*
X120441500Y-45973500D01*
X120455958Y-45974210D01*
X120455958Y-45974210D01*
G37*
D13*
X120269000Y-46268500D03*
D12*
G36*
X122106958Y-48450710D02*
G01*
X122121276Y-48452834D01*
X122135317Y-48456351D01*
X122148946Y-48461228D01*
X122162031Y-48467417D01*
X122174447Y-48474858D01*
X122186073Y-48483481D01*
X122196798Y-48493202D01*
X122206519Y-48503927D01*
X122215142Y-48515553D01*
X122222583Y-48527969D01*
X122228772Y-48541054D01*
X122233649Y-48554683D01*
X122237166Y-48568724D01*
X122239290Y-48583042D01*
X122240000Y-48597500D01*
X122240000Y-48892500D01*
X122239290Y-48906958D01*
X122237166Y-48921276D01*
X122233649Y-48935317D01*
X122228772Y-48948946D01*
X122222583Y-48962031D01*
X122215142Y-48974447D01*
X122206519Y-48986073D01*
X122196798Y-48996798D01*
X122186073Y-49006519D01*
X122174447Y-49015142D01*
X122162031Y-49022583D01*
X122148946Y-49028772D01*
X122135317Y-49033649D01*
X122121276Y-49037166D01*
X122106958Y-49039290D01*
X122092500Y-49040000D01*
X121747500Y-49040000D01*
X121733042Y-49039290D01*
X121718724Y-49037166D01*
X121704683Y-49033649D01*
X121691054Y-49028772D01*
X121677969Y-49022583D01*
X121665553Y-49015142D01*
X121653927Y-49006519D01*
X121643202Y-48996798D01*
X121633481Y-48986073D01*
X121624858Y-48974447D01*
X121617417Y-48962031D01*
X121611228Y-48948946D01*
X121606351Y-48935317D01*
X121602834Y-48921276D01*
X121600710Y-48906958D01*
X121600000Y-48892500D01*
X121600000Y-48597500D01*
X121600710Y-48583042D01*
X121602834Y-48568724D01*
X121606351Y-48554683D01*
X121611228Y-48541054D01*
X121617417Y-48527969D01*
X121624858Y-48515553D01*
X121633481Y-48503927D01*
X121643202Y-48493202D01*
X121653927Y-48483481D01*
X121665553Y-48474858D01*
X121677969Y-48467417D01*
X121691054Y-48461228D01*
X121704683Y-48456351D01*
X121718724Y-48452834D01*
X121733042Y-48450710D01*
X121747500Y-48450000D01*
X122092500Y-48450000D01*
X122106958Y-48450710D01*
X122106958Y-48450710D01*
G37*
D13*
X121920000Y-48745000D03*
D12*
G36*
X122106958Y-47480710D02*
G01*
X122121276Y-47482834D01*
X122135317Y-47486351D01*
X122148946Y-47491228D01*
X122162031Y-47497417D01*
X122174447Y-47504858D01*
X122186073Y-47513481D01*
X122196798Y-47523202D01*
X122206519Y-47533927D01*
X122215142Y-47545553D01*
X122222583Y-47557969D01*
X122228772Y-47571054D01*
X122233649Y-47584683D01*
X122237166Y-47598724D01*
X122239290Y-47613042D01*
X122240000Y-47627500D01*
X122240000Y-47922500D01*
X122239290Y-47936958D01*
X122237166Y-47951276D01*
X122233649Y-47965317D01*
X122228772Y-47978946D01*
X122222583Y-47992031D01*
X122215142Y-48004447D01*
X122206519Y-48016073D01*
X122196798Y-48026798D01*
X122186073Y-48036519D01*
X122174447Y-48045142D01*
X122162031Y-48052583D01*
X122148946Y-48058772D01*
X122135317Y-48063649D01*
X122121276Y-48067166D01*
X122106958Y-48069290D01*
X122092500Y-48070000D01*
X121747500Y-48070000D01*
X121733042Y-48069290D01*
X121718724Y-48067166D01*
X121704683Y-48063649D01*
X121691054Y-48058772D01*
X121677969Y-48052583D01*
X121665553Y-48045142D01*
X121653927Y-48036519D01*
X121643202Y-48026798D01*
X121633481Y-48016073D01*
X121624858Y-48004447D01*
X121617417Y-47992031D01*
X121611228Y-47978946D01*
X121606351Y-47965317D01*
X121602834Y-47951276D01*
X121600710Y-47936958D01*
X121600000Y-47922500D01*
X121600000Y-47627500D01*
X121600710Y-47613042D01*
X121602834Y-47598724D01*
X121606351Y-47584683D01*
X121611228Y-47571054D01*
X121617417Y-47557969D01*
X121624858Y-47545553D01*
X121633481Y-47533927D01*
X121643202Y-47523202D01*
X121653927Y-47513481D01*
X121665553Y-47504858D01*
X121677969Y-47497417D01*
X121691054Y-47491228D01*
X121704683Y-47486351D01*
X121718724Y-47482834D01*
X121733042Y-47480710D01*
X121747500Y-47480000D01*
X122092500Y-47480000D01*
X122106958Y-47480710D01*
X122106958Y-47480710D01*
G37*
D13*
X121920000Y-47775000D03*
D14*
X118316500Y-48831500D03*
X120316500Y-49781500D03*
X120316500Y-47881500D03*
D15*
X102235000Y-68219000D03*
D16*
X102235000Y-70119000D03*
D12*
G36*
X123503958Y-69088210D02*
G01*
X123518276Y-69090334D01*
X123532317Y-69093851D01*
X123545946Y-69098728D01*
X123559031Y-69104917D01*
X123571447Y-69112358D01*
X123583073Y-69120981D01*
X123593798Y-69130702D01*
X123603519Y-69141427D01*
X123612142Y-69153053D01*
X123619583Y-69165469D01*
X123625772Y-69178554D01*
X123630649Y-69192183D01*
X123634166Y-69206224D01*
X123636290Y-69220542D01*
X123637000Y-69235000D01*
X123637000Y-69530000D01*
X123636290Y-69544458D01*
X123634166Y-69558776D01*
X123630649Y-69572817D01*
X123625772Y-69586446D01*
X123619583Y-69599531D01*
X123612142Y-69611947D01*
X123603519Y-69623573D01*
X123593798Y-69634298D01*
X123583073Y-69644019D01*
X123571447Y-69652642D01*
X123559031Y-69660083D01*
X123545946Y-69666272D01*
X123532317Y-69671149D01*
X123518276Y-69674666D01*
X123503958Y-69676790D01*
X123489500Y-69677500D01*
X123144500Y-69677500D01*
X123130042Y-69676790D01*
X123115724Y-69674666D01*
X123101683Y-69671149D01*
X123088054Y-69666272D01*
X123074969Y-69660083D01*
X123062553Y-69652642D01*
X123050927Y-69644019D01*
X123040202Y-69634298D01*
X123030481Y-69623573D01*
X123021858Y-69611947D01*
X123014417Y-69599531D01*
X123008228Y-69586446D01*
X123003351Y-69572817D01*
X122999834Y-69558776D01*
X122997710Y-69544458D01*
X122997000Y-69530000D01*
X122997000Y-69235000D01*
X122997710Y-69220542D01*
X122999834Y-69206224D01*
X123003351Y-69192183D01*
X123008228Y-69178554D01*
X123014417Y-69165469D01*
X123021858Y-69153053D01*
X123030481Y-69141427D01*
X123040202Y-69130702D01*
X123050927Y-69120981D01*
X123062553Y-69112358D01*
X123074969Y-69104917D01*
X123088054Y-69098728D01*
X123101683Y-69093851D01*
X123115724Y-69090334D01*
X123130042Y-69088210D01*
X123144500Y-69087500D01*
X123489500Y-69087500D01*
X123503958Y-69088210D01*
X123503958Y-69088210D01*
G37*
D13*
X123317000Y-69382500D03*
D12*
G36*
X123503958Y-68118210D02*
G01*
X123518276Y-68120334D01*
X123532317Y-68123851D01*
X123545946Y-68128728D01*
X123559031Y-68134917D01*
X123571447Y-68142358D01*
X123583073Y-68150981D01*
X123593798Y-68160702D01*
X123603519Y-68171427D01*
X123612142Y-68183053D01*
X123619583Y-68195469D01*
X123625772Y-68208554D01*
X123630649Y-68222183D01*
X123634166Y-68236224D01*
X123636290Y-68250542D01*
X123637000Y-68265000D01*
X123637000Y-68560000D01*
X123636290Y-68574458D01*
X123634166Y-68588776D01*
X123630649Y-68602817D01*
X123625772Y-68616446D01*
X123619583Y-68629531D01*
X123612142Y-68641947D01*
X123603519Y-68653573D01*
X123593798Y-68664298D01*
X123583073Y-68674019D01*
X123571447Y-68682642D01*
X123559031Y-68690083D01*
X123545946Y-68696272D01*
X123532317Y-68701149D01*
X123518276Y-68704666D01*
X123503958Y-68706790D01*
X123489500Y-68707500D01*
X123144500Y-68707500D01*
X123130042Y-68706790D01*
X123115724Y-68704666D01*
X123101683Y-68701149D01*
X123088054Y-68696272D01*
X123074969Y-68690083D01*
X123062553Y-68682642D01*
X123050927Y-68674019D01*
X123040202Y-68664298D01*
X123030481Y-68653573D01*
X123021858Y-68641947D01*
X123014417Y-68629531D01*
X123008228Y-68616446D01*
X123003351Y-68602817D01*
X122999834Y-68588776D01*
X122997710Y-68574458D01*
X122997000Y-68560000D01*
X122997000Y-68265000D01*
X122997710Y-68250542D01*
X122999834Y-68236224D01*
X123003351Y-68222183D01*
X123008228Y-68208554D01*
X123014417Y-68195469D01*
X123021858Y-68183053D01*
X123030481Y-68171427D01*
X123040202Y-68160702D01*
X123050927Y-68150981D01*
X123062553Y-68142358D01*
X123074969Y-68134917D01*
X123088054Y-68128728D01*
X123101683Y-68123851D01*
X123115724Y-68120334D01*
X123130042Y-68118210D01*
X123144500Y-68117500D01*
X123489500Y-68117500D01*
X123503958Y-68118210D01*
X123503958Y-68118210D01*
G37*
D13*
X123317000Y-68412500D03*
D12*
G36*
X115276191Y-61311053D02*
G01*
X115297426Y-61314203D01*
X115318250Y-61319419D01*
X115338462Y-61326651D01*
X115357868Y-61335830D01*
X115376281Y-61346866D01*
X115393524Y-61359654D01*
X115409430Y-61374070D01*
X115423846Y-61389976D01*
X115436634Y-61407219D01*
X115447670Y-61425632D01*
X115456849Y-61445038D01*
X115464081Y-61465250D01*
X115469297Y-61486074D01*
X115472447Y-61507309D01*
X115473500Y-61528750D01*
X115473500Y-61966250D01*
X115472447Y-61987691D01*
X115469297Y-62008926D01*
X115464081Y-62029750D01*
X115456849Y-62049962D01*
X115447670Y-62069368D01*
X115436634Y-62087781D01*
X115423846Y-62105024D01*
X115409430Y-62120930D01*
X115393524Y-62135346D01*
X115376281Y-62148134D01*
X115357868Y-62159170D01*
X115338462Y-62168349D01*
X115318250Y-62175581D01*
X115297426Y-62180797D01*
X115276191Y-62183947D01*
X115254750Y-62185000D01*
X114742250Y-62185000D01*
X114720809Y-62183947D01*
X114699574Y-62180797D01*
X114678750Y-62175581D01*
X114658538Y-62168349D01*
X114639132Y-62159170D01*
X114620719Y-62148134D01*
X114603476Y-62135346D01*
X114587570Y-62120930D01*
X114573154Y-62105024D01*
X114560366Y-62087781D01*
X114549330Y-62069368D01*
X114540151Y-62049962D01*
X114532919Y-62029750D01*
X114527703Y-62008926D01*
X114524553Y-61987691D01*
X114523500Y-61966250D01*
X114523500Y-61528750D01*
X114524553Y-61507309D01*
X114527703Y-61486074D01*
X114532919Y-61465250D01*
X114540151Y-61445038D01*
X114549330Y-61425632D01*
X114560366Y-61407219D01*
X114573154Y-61389976D01*
X114587570Y-61374070D01*
X114603476Y-61359654D01*
X114620719Y-61346866D01*
X114639132Y-61335830D01*
X114658538Y-61326651D01*
X114678750Y-61319419D01*
X114699574Y-61314203D01*
X114720809Y-61311053D01*
X114742250Y-61310000D01*
X115254750Y-61310000D01*
X115276191Y-61311053D01*
X115276191Y-61311053D01*
G37*
D17*
X114998500Y-61747500D03*
D12*
G36*
X115276191Y-59736053D02*
G01*
X115297426Y-59739203D01*
X115318250Y-59744419D01*
X115338462Y-59751651D01*
X115357868Y-59760830D01*
X115376281Y-59771866D01*
X115393524Y-59784654D01*
X115409430Y-59799070D01*
X115423846Y-59814976D01*
X115436634Y-59832219D01*
X115447670Y-59850632D01*
X115456849Y-59870038D01*
X115464081Y-59890250D01*
X115469297Y-59911074D01*
X115472447Y-59932309D01*
X115473500Y-59953750D01*
X115473500Y-60391250D01*
X115472447Y-60412691D01*
X115469297Y-60433926D01*
X115464081Y-60454750D01*
X115456849Y-60474962D01*
X115447670Y-60494368D01*
X115436634Y-60512781D01*
X115423846Y-60530024D01*
X115409430Y-60545930D01*
X115393524Y-60560346D01*
X115376281Y-60573134D01*
X115357868Y-60584170D01*
X115338462Y-60593349D01*
X115318250Y-60600581D01*
X115297426Y-60605797D01*
X115276191Y-60608947D01*
X115254750Y-60610000D01*
X114742250Y-60610000D01*
X114720809Y-60608947D01*
X114699574Y-60605797D01*
X114678750Y-60600581D01*
X114658538Y-60593349D01*
X114639132Y-60584170D01*
X114620719Y-60573134D01*
X114603476Y-60560346D01*
X114587570Y-60545930D01*
X114573154Y-60530024D01*
X114560366Y-60512781D01*
X114549330Y-60494368D01*
X114540151Y-60474962D01*
X114532919Y-60454750D01*
X114527703Y-60433926D01*
X114524553Y-60412691D01*
X114523500Y-60391250D01*
X114523500Y-59953750D01*
X114524553Y-59932309D01*
X114527703Y-59911074D01*
X114532919Y-59890250D01*
X114540151Y-59870038D01*
X114549330Y-59850632D01*
X114560366Y-59832219D01*
X114573154Y-59814976D01*
X114587570Y-59799070D01*
X114603476Y-59784654D01*
X114620719Y-59771866D01*
X114639132Y-59760830D01*
X114658538Y-59751651D01*
X114678750Y-59744419D01*
X114699574Y-59739203D01*
X114720809Y-59736053D01*
X114742250Y-59735000D01*
X115254750Y-59735000D01*
X115276191Y-59736053D01*
X115276191Y-59736053D01*
G37*
D17*
X114998500Y-60172500D03*
D12*
G36*
X110291118Y-70383366D02*
G01*
X110305436Y-70385490D01*
X110319477Y-70389007D01*
X110333106Y-70393884D01*
X110346191Y-70400073D01*
X110358607Y-70407514D01*
X110370233Y-70416137D01*
X110380958Y-70425858D01*
X110390679Y-70436583D01*
X110399302Y-70448209D01*
X110406743Y-70460625D01*
X110412932Y-70473710D01*
X110417809Y-70487339D01*
X110421326Y-70501380D01*
X110423450Y-70515698D01*
X110424160Y-70530156D01*
X110424160Y-70875156D01*
X110423450Y-70889614D01*
X110421326Y-70903932D01*
X110417809Y-70917973D01*
X110412932Y-70931602D01*
X110406743Y-70944687D01*
X110399302Y-70957103D01*
X110390679Y-70968729D01*
X110380958Y-70979454D01*
X110370233Y-70989175D01*
X110358607Y-70997798D01*
X110346191Y-71005239D01*
X110333106Y-71011428D01*
X110319477Y-71016305D01*
X110305436Y-71019822D01*
X110291118Y-71021946D01*
X110276660Y-71022656D01*
X109981660Y-71022656D01*
X109967202Y-71021946D01*
X109952884Y-71019822D01*
X109938843Y-71016305D01*
X109925214Y-71011428D01*
X109912129Y-71005239D01*
X109899713Y-70997798D01*
X109888087Y-70989175D01*
X109877362Y-70979454D01*
X109867641Y-70968729D01*
X109859018Y-70957103D01*
X109851577Y-70944687D01*
X109845388Y-70931602D01*
X109840511Y-70917973D01*
X109836994Y-70903932D01*
X109834870Y-70889614D01*
X109834160Y-70875156D01*
X109834160Y-70530156D01*
X109834870Y-70515698D01*
X109836994Y-70501380D01*
X109840511Y-70487339D01*
X109845388Y-70473710D01*
X109851577Y-70460625D01*
X109859018Y-70448209D01*
X109867641Y-70436583D01*
X109877362Y-70425858D01*
X109888087Y-70416137D01*
X109899713Y-70407514D01*
X109912129Y-70400073D01*
X109925214Y-70393884D01*
X109938843Y-70389007D01*
X109952884Y-70385490D01*
X109967202Y-70383366D01*
X109981660Y-70382656D01*
X110276660Y-70382656D01*
X110291118Y-70383366D01*
X110291118Y-70383366D01*
G37*
D13*
X110129160Y-70702656D03*
D12*
G36*
X109321118Y-70383366D02*
G01*
X109335436Y-70385490D01*
X109349477Y-70389007D01*
X109363106Y-70393884D01*
X109376191Y-70400073D01*
X109388607Y-70407514D01*
X109400233Y-70416137D01*
X109410958Y-70425858D01*
X109420679Y-70436583D01*
X109429302Y-70448209D01*
X109436743Y-70460625D01*
X109442932Y-70473710D01*
X109447809Y-70487339D01*
X109451326Y-70501380D01*
X109453450Y-70515698D01*
X109454160Y-70530156D01*
X109454160Y-70875156D01*
X109453450Y-70889614D01*
X109451326Y-70903932D01*
X109447809Y-70917973D01*
X109442932Y-70931602D01*
X109436743Y-70944687D01*
X109429302Y-70957103D01*
X109420679Y-70968729D01*
X109410958Y-70979454D01*
X109400233Y-70989175D01*
X109388607Y-70997798D01*
X109376191Y-71005239D01*
X109363106Y-71011428D01*
X109349477Y-71016305D01*
X109335436Y-71019822D01*
X109321118Y-71021946D01*
X109306660Y-71022656D01*
X109011660Y-71022656D01*
X108997202Y-71021946D01*
X108982884Y-71019822D01*
X108968843Y-71016305D01*
X108955214Y-71011428D01*
X108942129Y-71005239D01*
X108929713Y-70997798D01*
X108918087Y-70989175D01*
X108907362Y-70979454D01*
X108897641Y-70968729D01*
X108889018Y-70957103D01*
X108881577Y-70944687D01*
X108875388Y-70931602D01*
X108870511Y-70917973D01*
X108866994Y-70903932D01*
X108864870Y-70889614D01*
X108864160Y-70875156D01*
X108864160Y-70530156D01*
X108864870Y-70515698D01*
X108866994Y-70501380D01*
X108870511Y-70487339D01*
X108875388Y-70473710D01*
X108881577Y-70460625D01*
X108889018Y-70448209D01*
X108897641Y-70436583D01*
X108907362Y-70425858D01*
X108918087Y-70416137D01*
X108929713Y-70407514D01*
X108942129Y-70400073D01*
X108955214Y-70393884D01*
X108968843Y-70389007D01*
X108982884Y-70385490D01*
X108997202Y-70383366D01*
X109011660Y-70382656D01*
X109306660Y-70382656D01*
X109321118Y-70383366D01*
X109321118Y-70383366D01*
G37*
D13*
X109159160Y-70702656D03*
D12*
G36*
X121931691Y-66836053D02*
G01*
X121952926Y-66839203D01*
X121973750Y-66844419D01*
X121993962Y-66851651D01*
X122013368Y-66860830D01*
X122031781Y-66871866D01*
X122049024Y-66884654D01*
X122064930Y-66899070D01*
X122079346Y-66914976D01*
X122092134Y-66932219D01*
X122103170Y-66950632D01*
X122112349Y-66970038D01*
X122119581Y-66990250D01*
X122124797Y-67011074D01*
X122127947Y-67032309D01*
X122129000Y-67053750D01*
X122129000Y-67566250D01*
X122127947Y-67587691D01*
X122124797Y-67608926D01*
X122119581Y-67629750D01*
X122112349Y-67649962D01*
X122103170Y-67669368D01*
X122092134Y-67687781D01*
X122079346Y-67705024D01*
X122064930Y-67720930D01*
X122049024Y-67735346D01*
X122031781Y-67748134D01*
X122013368Y-67759170D01*
X121993962Y-67768349D01*
X121973750Y-67775581D01*
X121952926Y-67780797D01*
X121931691Y-67783947D01*
X121910250Y-67785000D01*
X121472750Y-67785000D01*
X121451309Y-67783947D01*
X121430074Y-67780797D01*
X121409250Y-67775581D01*
X121389038Y-67768349D01*
X121369632Y-67759170D01*
X121351219Y-67748134D01*
X121333976Y-67735346D01*
X121318070Y-67720930D01*
X121303654Y-67705024D01*
X121290866Y-67687781D01*
X121279830Y-67669368D01*
X121270651Y-67649962D01*
X121263419Y-67629750D01*
X121258203Y-67608926D01*
X121255053Y-67587691D01*
X121254000Y-67566250D01*
X121254000Y-67053750D01*
X121255053Y-67032309D01*
X121258203Y-67011074D01*
X121263419Y-66990250D01*
X121270651Y-66970038D01*
X121279830Y-66950632D01*
X121290866Y-66932219D01*
X121303654Y-66914976D01*
X121318070Y-66899070D01*
X121333976Y-66884654D01*
X121351219Y-66871866D01*
X121369632Y-66860830D01*
X121389038Y-66851651D01*
X121409250Y-66844419D01*
X121430074Y-66839203D01*
X121451309Y-66836053D01*
X121472750Y-66835000D01*
X121910250Y-66835000D01*
X121931691Y-66836053D01*
X121931691Y-66836053D01*
G37*
D17*
X121691500Y-67310000D03*
D12*
G36*
X120356691Y-66836053D02*
G01*
X120377926Y-66839203D01*
X120398750Y-66844419D01*
X120418962Y-66851651D01*
X120438368Y-66860830D01*
X120456781Y-66871866D01*
X120474024Y-66884654D01*
X120489930Y-66899070D01*
X120504346Y-66914976D01*
X120517134Y-66932219D01*
X120528170Y-66950632D01*
X120537349Y-66970038D01*
X120544581Y-66990250D01*
X120549797Y-67011074D01*
X120552947Y-67032309D01*
X120554000Y-67053750D01*
X120554000Y-67566250D01*
X120552947Y-67587691D01*
X120549797Y-67608926D01*
X120544581Y-67629750D01*
X120537349Y-67649962D01*
X120528170Y-67669368D01*
X120517134Y-67687781D01*
X120504346Y-67705024D01*
X120489930Y-67720930D01*
X120474024Y-67735346D01*
X120456781Y-67748134D01*
X120438368Y-67759170D01*
X120418962Y-67768349D01*
X120398750Y-67775581D01*
X120377926Y-67780797D01*
X120356691Y-67783947D01*
X120335250Y-67785000D01*
X119897750Y-67785000D01*
X119876309Y-67783947D01*
X119855074Y-67780797D01*
X119834250Y-67775581D01*
X119814038Y-67768349D01*
X119794632Y-67759170D01*
X119776219Y-67748134D01*
X119758976Y-67735346D01*
X119743070Y-67720930D01*
X119728654Y-67705024D01*
X119715866Y-67687781D01*
X119704830Y-67669368D01*
X119695651Y-67649962D01*
X119688419Y-67629750D01*
X119683203Y-67608926D01*
X119680053Y-67587691D01*
X119679000Y-67566250D01*
X119679000Y-67053750D01*
X119680053Y-67032309D01*
X119683203Y-67011074D01*
X119688419Y-66990250D01*
X119695651Y-66970038D01*
X119704830Y-66950632D01*
X119715866Y-66932219D01*
X119728654Y-66914976D01*
X119743070Y-66899070D01*
X119758976Y-66884654D01*
X119776219Y-66871866D01*
X119794632Y-66860830D01*
X119814038Y-66851651D01*
X119834250Y-66844419D01*
X119855074Y-66839203D01*
X119876309Y-66836053D01*
X119897750Y-66835000D01*
X120335250Y-66835000D01*
X120356691Y-66836053D01*
X120356691Y-66836053D01*
G37*
D17*
X120116500Y-67310000D03*
D18*
X103949500Y-64770000D03*
X103949500Y-63470000D03*
D19*
X109624160Y-64098656D03*
D20*
X108624160Y-65798656D03*
X109124160Y-65798656D03*
X109624160Y-65798656D03*
X110124160Y-65798656D03*
X110624160Y-65798656D03*
D21*
X111324160Y-65098656D03*
X111324160Y-64598656D03*
X111324160Y-64098656D03*
X111324160Y-63598656D03*
X111324160Y-63098656D03*
D20*
X110624160Y-62398656D03*
X110124160Y-62398656D03*
X109624160Y-62398656D03*
X109124160Y-62398656D03*
X108624160Y-62398656D03*
D21*
X107924160Y-63098656D03*
X107924160Y-63598656D03*
X107924160Y-64098656D03*
X107924160Y-64598656D03*
X107924160Y-65098656D03*
D15*
X116840000Y-69703000D03*
D16*
X116840000Y-67803000D03*
D12*
G36*
X106882458Y-60069210D02*
G01*
X106896776Y-60071334D01*
X106910817Y-60074851D01*
X106924446Y-60079728D01*
X106937531Y-60085917D01*
X106949947Y-60093358D01*
X106961573Y-60101981D01*
X106972298Y-60111702D01*
X106982019Y-60122427D01*
X106990642Y-60134053D01*
X106998083Y-60146469D01*
X107004272Y-60159554D01*
X107009149Y-60173183D01*
X107012666Y-60187224D01*
X107014790Y-60201542D01*
X107015500Y-60216000D01*
X107015500Y-60561000D01*
X107014790Y-60575458D01*
X107012666Y-60589776D01*
X107009149Y-60603817D01*
X107004272Y-60617446D01*
X106998083Y-60630531D01*
X106990642Y-60642947D01*
X106982019Y-60654573D01*
X106972298Y-60665298D01*
X106961573Y-60675019D01*
X106949947Y-60683642D01*
X106937531Y-60691083D01*
X106924446Y-60697272D01*
X106910817Y-60702149D01*
X106896776Y-60705666D01*
X106882458Y-60707790D01*
X106868000Y-60708500D01*
X106573000Y-60708500D01*
X106558542Y-60707790D01*
X106544224Y-60705666D01*
X106530183Y-60702149D01*
X106516554Y-60697272D01*
X106503469Y-60691083D01*
X106491053Y-60683642D01*
X106479427Y-60675019D01*
X106468702Y-60665298D01*
X106458981Y-60654573D01*
X106450358Y-60642947D01*
X106442917Y-60630531D01*
X106436728Y-60617446D01*
X106431851Y-60603817D01*
X106428334Y-60589776D01*
X106426210Y-60575458D01*
X106425500Y-60561000D01*
X106425500Y-60216000D01*
X106426210Y-60201542D01*
X106428334Y-60187224D01*
X106431851Y-60173183D01*
X106436728Y-60159554D01*
X106442917Y-60146469D01*
X106450358Y-60134053D01*
X106458981Y-60122427D01*
X106468702Y-60111702D01*
X106479427Y-60101981D01*
X106491053Y-60093358D01*
X106503469Y-60085917D01*
X106516554Y-60079728D01*
X106530183Y-60074851D01*
X106544224Y-60071334D01*
X106558542Y-60069210D01*
X106573000Y-60068500D01*
X106868000Y-60068500D01*
X106882458Y-60069210D01*
X106882458Y-60069210D01*
G37*
D13*
X106720500Y-60388500D03*
D12*
G36*
X105912458Y-60069210D02*
G01*
X105926776Y-60071334D01*
X105940817Y-60074851D01*
X105954446Y-60079728D01*
X105967531Y-60085917D01*
X105979947Y-60093358D01*
X105991573Y-60101981D01*
X106002298Y-60111702D01*
X106012019Y-60122427D01*
X106020642Y-60134053D01*
X106028083Y-60146469D01*
X106034272Y-60159554D01*
X106039149Y-60173183D01*
X106042666Y-60187224D01*
X106044790Y-60201542D01*
X106045500Y-60216000D01*
X106045500Y-60561000D01*
X106044790Y-60575458D01*
X106042666Y-60589776D01*
X106039149Y-60603817D01*
X106034272Y-60617446D01*
X106028083Y-60630531D01*
X106020642Y-60642947D01*
X106012019Y-60654573D01*
X106002298Y-60665298D01*
X105991573Y-60675019D01*
X105979947Y-60683642D01*
X105967531Y-60691083D01*
X105954446Y-60697272D01*
X105940817Y-60702149D01*
X105926776Y-60705666D01*
X105912458Y-60707790D01*
X105898000Y-60708500D01*
X105603000Y-60708500D01*
X105588542Y-60707790D01*
X105574224Y-60705666D01*
X105560183Y-60702149D01*
X105546554Y-60697272D01*
X105533469Y-60691083D01*
X105521053Y-60683642D01*
X105509427Y-60675019D01*
X105498702Y-60665298D01*
X105488981Y-60654573D01*
X105480358Y-60642947D01*
X105472917Y-60630531D01*
X105466728Y-60617446D01*
X105461851Y-60603817D01*
X105458334Y-60589776D01*
X105456210Y-60575458D01*
X105455500Y-60561000D01*
X105455500Y-60216000D01*
X105456210Y-60201542D01*
X105458334Y-60187224D01*
X105461851Y-60173183D01*
X105466728Y-60159554D01*
X105472917Y-60146469D01*
X105480358Y-60134053D01*
X105488981Y-60122427D01*
X105498702Y-60111702D01*
X105509427Y-60101981D01*
X105521053Y-60093358D01*
X105533469Y-60085917D01*
X105546554Y-60079728D01*
X105560183Y-60074851D01*
X105574224Y-60071334D01*
X105588542Y-60069210D01*
X105603000Y-60068500D01*
X105898000Y-60068500D01*
X105912458Y-60069210D01*
X105912458Y-60069210D01*
G37*
D13*
X105750500Y-60388500D03*
D12*
G36*
X108200458Y-59164710D02*
G01*
X108214776Y-59166834D01*
X108228817Y-59170351D01*
X108242446Y-59175228D01*
X108255531Y-59181417D01*
X108267947Y-59188858D01*
X108279573Y-59197481D01*
X108290298Y-59207202D01*
X108300019Y-59217927D01*
X108308642Y-59229553D01*
X108316083Y-59241969D01*
X108322272Y-59255054D01*
X108327149Y-59268683D01*
X108330666Y-59282724D01*
X108332790Y-59297042D01*
X108333500Y-59311500D01*
X108333500Y-59606500D01*
X108332790Y-59620958D01*
X108330666Y-59635276D01*
X108327149Y-59649317D01*
X108322272Y-59662946D01*
X108316083Y-59676031D01*
X108308642Y-59688447D01*
X108300019Y-59700073D01*
X108290298Y-59710798D01*
X108279573Y-59720519D01*
X108267947Y-59729142D01*
X108255531Y-59736583D01*
X108242446Y-59742772D01*
X108228817Y-59747649D01*
X108214776Y-59751166D01*
X108200458Y-59753290D01*
X108186000Y-59754000D01*
X107841000Y-59754000D01*
X107826542Y-59753290D01*
X107812224Y-59751166D01*
X107798183Y-59747649D01*
X107784554Y-59742772D01*
X107771469Y-59736583D01*
X107759053Y-59729142D01*
X107747427Y-59720519D01*
X107736702Y-59710798D01*
X107726981Y-59700073D01*
X107718358Y-59688447D01*
X107710917Y-59676031D01*
X107704728Y-59662946D01*
X107699851Y-59649317D01*
X107696334Y-59635276D01*
X107694210Y-59620958D01*
X107693500Y-59606500D01*
X107693500Y-59311500D01*
X107694210Y-59297042D01*
X107696334Y-59282724D01*
X107699851Y-59268683D01*
X107704728Y-59255054D01*
X107710917Y-59241969D01*
X107718358Y-59229553D01*
X107726981Y-59217927D01*
X107736702Y-59207202D01*
X107747427Y-59197481D01*
X107759053Y-59188858D01*
X107771469Y-59181417D01*
X107784554Y-59175228D01*
X107798183Y-59170351D01*
X107812224Y-59166834D01*
X107826542Y-59164710D01*
X107841000Y-59164000D01*
X108186000Y-59164000D01*
X108200458Y-59164710D01*
X108200458Y-59164710D01*
G37*
D13*
X108013500Y-59459000D03*
D12*
G36*
X108200458Y-60134710D02*
G01*
X108214776Y-60136834D01*
X108228817Y-60140351D01*
X108242446Y-60145228D01*
X108255531Y-60151417D01*
X108267947Y-60158858D01*
X108279573Y-60167481D01*
X108290298Y-60177202D01*
X108300019Y-60187927D01*
X108308642Y-60199553D01*
X108316083Y-60211969D01*
X108322272Y-60225054D01*
X108327149Y-60238683D01*
X108330666Y-60252724D01*
X108332790Y-60267042D01*
X108333500Y-60281500D01*
X108333500Y-60576500D01*
X108332790Y-60590958D01*
X108330666Y-60605276D01*
X108327149Y-60619317D01*
X108322272Y-60632946D01*
X108316083Y-60646031D01*
X108308642Y-60658447D01*
X108300019Y-60670073D01*
X108290298Y-60680798D01*
X108279573Y-60690519D01*
X108267947Y-60699142D01*
X108255531Y-60706583D01*
X108242446Y-60712772D01*
X108228817Y-60717649D01*
X108214776Y-60721166D01*
X108200458Y-60723290D01*
X108186000Y-60724000D01*
X107841000Y-60724000D01*
X107826542Y-60723290D01*
X107812224Y-60721166D01*
X107798183Y-60717649D01*
X107784554Y-60712772D01*
X107771469Y-60706583D01*
X107759053Y-60699142D01*
X107747427Y-60690519D01*
X107736702Y-60680798D01*
X107726981Y-60670073D01*
X107718358Y-60658447D01*
X107710917Y-60646031D01*
X107704728Y-60632946D01*
X107699851Y-60619317D01*
X107696334Y-60605276D01*
X107694210Y-60590958D01*
X107693500Y-60576500D01*
X107693500Y-60281500D01*
X107694210Y-60267042D01*
X107696334Y-60252724D01*
X107699851Y-60238683D01*
X107704728Y-60225054D01*
X107710917Y-60211969D01*
X107718358Y-60199553D01*
X107726981Y-60187927D01*
X107736702Y-60177202D01*
X107747427Y-60167481D01*
X107759053Y-60158858D01*
X107771469Y-60151417D01*
X107784554Y-60145228D01*
X107798183Y-60140351D01*
X107812224Y-60136834D01*
X107826542Y-60134710D01*
X107841000Y-60134000D01*
X108186000Y-60134000D01*
X108200458Y-60134710D01*
X108200458Y-60134710D01*
G37*
D13*
X108013500Y-60429000D03*
D12*
G36*
X106420458Y-71943710D02*
G01*
X106434776Y-71945834D01*
X106448817Y-71949351D01*
X106462446Y-71954228D01*
X106475531Y-71960417D01*
X106487947Y-71967858D01*
X106499573Y-71976481D01*
X106510298Y-71986202D01*
X106520019Y-71996927D01*
X106528642Y-72008553D01*
X106536083Y-72020969D01*
X106542272Y-72034054D01*
X106547149Y-72047683D01*
X106550666Y-72061724D01*
X106552790Y-72076042D01*
X106553500Y-72090500D01*
X106553500Y-72435500D01*
X106552790Y-72449958D01*
X106550666Y-72464276D01*
X106547149Y-72478317D01*
X106542272Y-72491946D01*
X106536083Y-72505031D01*
X106528642Y-72517447D01*
X106520019Y-72529073D01*
X106510298Y-72539798D01*
X106499573Y-72549519D01*
X106487947Y-72558142D01*
X106475531Y-72565583D01*
X106462446Y-72571772D01*
X106448817Y-72576649D01*
X106434776Y-72580166D01*
X106420458Y-72582290D01*
X106406000Y-72583000D01*
X106111000Y-72583000D01*
X106096542Y-72582290D01*
X106082224Y-72580166D01*
X106068183Y-72576649D01*
X106054554Y-72571772D01*
X106041469Y-72565583D01*
X106029053Y-72558142D01*
X106017427Y-72549519D01*
X106006702Y-72539798D01*
X105996981Y-72529073D01*
X105988358Y-72517447D01*
X105980917Y-72505031D01*
X105974728Y-72491946D01*
X105969851Y-72478317D01*
X105966334Y-72464276D01*
X105964210Y-72449958D01*
X105963500Y-72435500D01*
X105963500Y-72090500D01*
X105964210Y-72076042D01*
X105966334Y-72061724D01*
X105969851Y-72047683D01*
X105974728Y-72034054D01*
X105980917Y-72020969D01*
X105988358Y-72008553D01*
X105996981Y-71996927D01*
X106006702Y-71986202D01*
X106017427Y-71976481D01*
X106029053Y-71967858D01*
X106041469Y-71960417D01*
X106054554Y-71954228D01*
X106068183Y-71949351D01*
X106082224Y-71945834D01*
X106096542Y-71943710D01*
X106111000Y-71943000D01*
X106406000Y-71943000D01*
X106420458Y-71943710D01*
X106420458Y-71943710D01*
G37*
D13*
X106258500Y-72263000D03*
D12*
G36*
X107390458Y-71943710D02*
G01*
X107404776Y-71945834D01*
X107418817Y-71949351D01*
X107432446Y-71954228D01*
X107445531Y-71960417D01*
X107457947Y-71967858D01*
X107469573Y-71976481D01*
X107480298Y-71986202D01*
X107490019Y-71996927D01*
X107498642Y-72008553D01*
X107506083Y-72020969D01*
X107512272Y-72034054D01*
X107517149Y-72047683D01*
X107520666Y-72061724D01*
X107522790Y-72076042D01*
X107523500Y-72090500D01*
X107523500Y-72435500D01*
X107522790Y-72449958D01*
X107520666Y-72464276D01*
X107517149Y-72478317D01*
X107512272Y-72491946D01*
X107506083Y-72505031D01*
X107498642Y-72517447D01*
X107490019Y-72529073D01*
X107480298Y-72539798D01*
X107469573Y-72549519D01*
X107457947Y-72558142D01*
X107445531Y-72565583D01*
X107432446Y-72571772D01*
X107418817Y-72576649D01*
X107404776Y-72580166D01*
X107390458Y-72582290D01*
X107376000Y-72583000D01*
X107081000Y-72583000D01*
X107066542Y-72582290D01*
X107052224Y-72580166D01*
X107038183Y-72576649D01*
X107024554Y-72571772D01*
X107011469Y-72565583D01*
X106999053Y-72558142D01*
X106987427Y-72549519D01*
X106976702Y-72539798D01*
X106966981Y-72529073D01*
X106958358Y-72517447D01*
X106950917Y-72505031D01*
X106944728Y-72491946D01*
X106939851Y-72478317D01*
X106936334Y-72464276D01*
X106934210Y-72449958D01*
X106933500Y-72435500D01*
X106933500Y-72090500D01*
X106934210Y-72076042D01*
X106936334Y-72061724D01*
X106939851Y-72047683D01*
X106944728Y-72034054D01*
X106950917Y-72020969D01*
X106958358Y-72008553D01*
X106966981Y-71996927D01*
X106976702Y-71986202D01*
X106987427Y-71976481D01*
X106999053Y-71967858D01*
X107011469Y-71960417D01*
X107024554Y-71954228D01*
X107038183Y-71949351D01*
X107052224Y-71945834D01*
X107066542Y-71943710D01*
X107081000Y-71943000D01*
X107376000Y-71943000D01*
X107390458Y-71943710D01*
X107390458Y-71943710D01*
G37*
D13*
X107228500Y-72263000D03*
D12*
G36*
X110291118Y-68451210D02*
G01*
X110305436Y-68453334D01*
X110319477Y-68456851D01*
X110333106Y-68461728D01*
X110346191Y-68467917D01*
X110358607Y-68475358D01*
X110370233Y-68483981D01*
X110380958Y-68493702D01*
X110390679Y-68504427D01*
X110399302Y-68516053D01*
X110406743Y-68528469D01*
X110412932Y-68541554D01*
X110417809Y-68555183D01*
X110421326Y-68569224D01*
X110423450Y-68583542D01*
X110424160Y-68598000D01*
X110424160Y-68943000D01*
X110423450Y-68957458D01*
X110421326Y-68971776D01*
X110417809Y-68985817D01*
X110412932Y-68999446D01*
X110406743Y-69012531D01*
X110399302Y-69024947D01*
X110390679Y-69036573D01*
X110380958Y-69047298D01*
X110370233Y-69057019D01*
X110358607Y-69065642D01*
X110346191Y-69073083D01*
X110333106Y-69079272D01*
X110319477Y-69084149D01*
X110305436Y-69087666D01*
X110291118Y-69089790D01*
X110276660Y-69090500D01*
X109981660Y-69090500D01*
X109967202Y-69089790D01*
X109952884Y-69087666D01*
X109938843Y-69084149D01*
X109925214Y-69079272D01*
X109912129Y-69073083D01*
X109899713Y-69065642D01*
X109888087Y-69057019D01*
X109877362Y-69047298D01*
X109867641Y-69036573D01*
X109859018Y-69024947D01*
X109851577Y-69012531D01*
X109845388Y-68999446D01*
X109840511Y-68985817D01*
X109836994Y-68971776D01*
X109834870Y-68957458D01*
X109834160Y-68943000D01*
X109834160Y-68598000D01*
X109834870Y-68583542D01*
X109836994Y-68569224D01*
X109840511Y-68555183D01*
X109845388Y-68541554D01*
X109851577Y-68528469D01*
X109859018Y-68516053D01*
X109867641Y-68504427D01*
X109877362Y-68493702D01*
X109888087Y-68483981D01*
X109899713Y-68475358D01*
X109912129Y-68467917D01*
X109925214Y-68461728D01*
X109938843Y-68456851D01*
X109952884Y-68453334D01*
X109967202Y-68451210D01*
X109981660Y-68450500D01*
X110276660Y-68450500D01*
X110291118Y-68451210D01*
X110291118Y-68451210D01*
G37*
D13*
X110129160Y-68770500D03*
D12*
G36*
X109321118Y-68451210D02*
G01*
X109335436Y-68453334D01*
X109349477Y-68456851D01*
X109363106Y-68461728D01*
X109376191Y-68467917D01*
X109388607Y-68475358D01*
X109400233Y-68483981D01*
X109410958Y-68493702D01*
X109420679Y-68504427D01*
X109429302Y-68516053D01*
X109436743Y-68528469D01*
X109442932Y-68541554D01*
X109447809Y-68555183D01*
X109451326Y-68569224D01*
X109453450Y-68583542D01*
X109454160Y-68598000D01*
X109454160Y-68943000D01*
X109453450Y-68957458D01*
X109451326Y-68971776D01*
X109447809Y-68985817D01*
X109442932Y-68999446D01*
X109436743Y-69012531D01*
X109429302Y-69024947D01*
X109420679Y-69036573D01*
X109410958Y-69047298D01*
X109400233Y-69057019D01*
X109388607Y-69065642D01*
X109376191Y-69073083D01*
X109363106Y-69079272D01*
X109349477Y-69084149D01*
X109335436Y-69087666D01*
X109321118Y-69089790D01*
X109306660Y-69090500D01*
X109011660Y-69090500D01*
X108997202Y-69089790D01*
X108982884Y-69087666D01*
X108968843Y-69084149D01*
X108955214Y-69079272D01*
X108942129Y-69073083D01*
X108929713Y-69065642D01*
X108918087Y-69057019D01*
X108907362Y-69047298D01*
X108897641Y-69036573D01*
X108889018Y-69024947D01*
X108881577Y-69012531D01*
X108875388Y-68999446D01*
X108870511Y-68985817D01*
X108866994Y-68971776D01*
X108864870Y-68957458D01*
X108864160Y-68943000D01*
X108864160Y-68598000D01*
X108864870Y-68583542D01*
X108866994Y-68569224D01*
X108870511Y-68555183D01*
X108875388Y-68541554D01*
X108881577Y-68528469D01*
X108889018Y-68516053D01*
X108897641Y-68504427D01*
X108907362Y-68493702D01*
X108918087Y-68483981D01*
X108929713Y-68475358D01*
X108942129Y-68467917D01*
X108955214Y-68461728D01*
X108968843Y-68456851D01*
X108982884Y-68453334D01*
X108997202Y-68451210D01*
X109011660Y-68450500D01*
X109306660Y-68450500D01*
X109321118Y-68451210D01*
X109321118Y-68451210D01*
G37*
D13*
X109159160Y-68770500D03*
D22*
X122835500Y-64860000D03*
X122835500Y-57060000D03*
D23*
X118935500Y-63210000D03*
X118935500Y-62710000D03*
X118935500Y-62210000D03*
X118935500Y-61710000D03*
X118935500Y-61210000D03*
X118935500Y-60710000D03*
X118935500Y-60210000D03*
X118935500Y-59710000D03*
X118935500Y-59210000D03*
X118935500Y-58710000D03*
D12*
G36*
X121804691Y-69249053D02*
G01*
X121825926Y-69252203D01*
X121846750Y-69257419D01*
X121866962Y-69264651D01*
X121886368Y-69273830D01*
X121904781Y-69284866D01*
X121922024Y-69297654D01*
X121937930Y-69312070D01*
X121952346Y-69327976D01*
X121965134Y-69345219D01*
X121976170Y-69363632D01*
X121985349Y-69383038D01*
X121992581Y-69403250D01*
X121997797Y-69424074D01*
X122000947Y-69445309D01*
X122002000Y-69466750D01*
X122002000Y-69979250D01*
X122000947Y-70000691D01*
X121997797Y-70021926D01*
X121992581Y-70042750D01*
X121985349Y-70062962D01*
X121976170Y-70082368D01*
X121965134Y-70100781D01*
X121952346Y-70118024D01*
X121937930Y-70133930D01*
X121922024Y-70148346D01*
X121904781Y-70161134D01*
X121886368Y-70172170D01*
X121866962Y-70181349D01*
X121846750Y-70188581D01*
X121825926Y-70193797D01*
X121804691Y-70196947D01*
X121783250Y-70198000D01*
X121345750Y-70198000D01*
X121324309Y-70196947D01*
X121303074Y-70193797D01*
X121282250Y-70188581D01*
X121262038Y-70181349D01*
X121242632Y-70172170D01*
X121224219Y-70161134D01*
X121206976Y-70148346D01*
X121191070Y-70133930D01*
X121176654Y-70118024D01*
X121163866Y-70100781D01*
X121152830Y-70082368D01*
X121143651Y-70062962D01*
X121136419Y-70042750D01*
X121131203Y-70021926D01*
X121128053Y-70000691D01*
X121127000Y-69979250D01*
X121127000Y-69466750D01*
X121128053Y-69445309D01*
X121131203Y-69424074D01*
X121136419Y-69403250D01*
X121143651Y-69383038D01*
X121152830Y-69363632D01*
X121163866Y-69345219D01*
X121176654Y-69327976D01*
X121191070Y-69312070D01*
X121206976Y-69297654D01*
X121224219Y-69284866D01*
X121242632Y-69273830D01*
X121262038Y-69264651D01*
X121282250Y-69257419D01*
X121303074Y-69252203D01*
X121324309Y-69249053D01*
X121345750Y-69248000D01*
X121783250Y-69248000D01*
X121804691Y-69249053D01*
X121804691Y-69249053D01*
G37*
D17*
X121564500Y-69723000D03*
D12*
G36*
X120229691Y-69249053D02*
G01*
X120250926Y-69252203D01*
X120271750Y-69257419D01*
X120291962Y-69264651D01*
X120311368Y-69273830D01*
X120329781Y-69284866D01*
X120347024Y-69297654D01*
X120362930Y-69312070D01*
X120377346Y-69327976D01*
X120390134Y-69345219D01*
X120401170Y-69363632D01*
X120410349Y-69383038D01*
X120417581Y-69403250D01*
X120422797Y-69424074D01*
X120425947Y-69445309D01*
X120427000Y-69466750D01*
X120427000Y-69979250D01*
X120425947Y-70000691D01*
X120422797Y-70021926D01*
X120417581Y-70042750D01*
X120410349Y-70062962D01*
X120401170Y-70082368D01*
X120390134Y-70100781D01*
X120377346Y-70118024D01*
X120362930Y-70133930D01*
X120347024Y-70148346D01*
X120329781Y-70161134D01*
X120311368Y-70172170D01*
X120291962Y-70181349D01*
X120271750Y-70188581D01*
X120250926Y-70193797D01*
X120229691Y-70196947D01*
X120208250Y-70198000D01*
X119770750Y-70198000D01*
X119749309Y-70196947D01*
X119728074Y-70193797D01*
X119707250Y-70188581D01*
X119687038Y-70181349D01*
X119667632Y-70172170D01*
X119649219Y-70161134D01*
X119631976Y-70148346D01*
X119616070Y-70133930D01*
X119601654Y-70118024D01*
X119588866Y-70100781D01*
X119577830Y-70082368D01*
X119568651Y-70062962D01*
X119561419Y-70042750D01*
X119556203Y-70021926D01*
X119553053Y-70000691D01*
X119552000Y-69979250D01*
X119552000Y-69466750D01*
X119553053Y-69445309D01*
X119556203Y-69424074D01*
X119561419Y-69403250D01*
X119568651Y-69383038D01*
X119577830Y-69363632D01*
X119588866Y-69345219D01*
X119601654Y-69327976D01*
X119616070Y-69312070D01*
X119631976Y-69297654D01*
X119649219Y-69284866D01*
X119667632Y-69273830D01*
X119687038Y-69264651D01*
X119707250Y-69257419D01*
X119728074Y-69252203D01*
X119749309Y-69249053D01*
X119770750Y-69248000D01*
X120208250Y-69248000D01*
X120229691Y-69249053D01*
X120229691Y-69249053D01*
G37*
D17*
X119989500Y-69723000D03*
D12*
G36*
X118677958Y-66086210D02*
G01*
X118692276Y-66088334D01*
X118706317Y-66091851D01*
X118719946Y-66096728D01*
X118733031Y-66102917D01*
X118745447Y-66110358D01*
X118757073Y-66118981D01*
X118767798Y-66128702D01*
X118777519Y-66139427D01*
X118786142Y-66151053D01*
X118793583Y-66163469D01*
X118799772Y-66176554D01*
X118804649Y-66190183D01*
X118808166Y-66204224D01*
X118810290Y-66218542D01*
X118811000Y-66233000D01*
X118811000Y-66528000D01*
X118810290Y-66542458D01*
X118808166Y-66556776D01*
X118804649Y-66570817D01*
X118799772Y-66584446D01*
X118793583Y-66597531D01*
X118786142Y-66609947D01*
X118777519Y-66621573D01*
X118767798Y-66632298D01*
X118757073Y-66642019D01*
X118745447Y-66650642D01*
X118733031Y-66658083D01*
X118719946Y-66664272D01*
X118706317Y-66669149D01*
X118692276Y-66672666D01*
X118677958Y-66674790D01*
X118663500Y-66675500D01*
X118318500Y-66675500D01*
X118304042Y-66674790D01*
X118289724Y-66672666D01*
X118275683Y-66669149D01*
X118262054Y-66664272D01*
X118248969Y-66658083D01*
X118236553Y-66650642D01*
X118224927Y-66642019D01*
X118214202Y-66632298D01*
X118204481Y-66621573D01*
X118195858Y-66609947D01*
X118188417Y-66597531D01*
X118182228Y-66584446D01*
X118177351Y-66570817D01*
X118173834Y-66556776D01*
X118171710Y-66542458D01*
X118171000Y-66528000D01*
X118171000Y-66233000D01*
X118171710Y-66218542D01*
X118173834Y-66204224D01*
X118177351Y-66190183D01*
X118182228Y-66176554D01*
X118188417Y-66163469D01*
X118195858Y-66151053D01*
X118204481Y-66139427D01*
X118214202Y-66128702D01*
X118224927Y-66118981D01*
X118236553Y-66110358D01*
X118248969Y-66102917D01*
X118262054Y-66096728D01*
X118275683Y-66091851D01*
X118289724Y-66088334D01*
X118304042Y-66086210D01*
X118318500Y-66085500D01*
X118663500Y-66085500D01*
X118677958Y-66086210D01*
X118677958Y-66086210D01*
G37*
D13*
X118491000Y-66380500D03*
D12*
G36*
X118677958Y-67056210D02*
G01*
X118692276Y-67058334D01*
X118706317Y-67061851D01*
X118719946Y-67066728D01*
X118733031Y-67072917D01*
X118745447Y-67080358D01*
X118757073Y-67088981D01*
X118767798Y-67098702D01*
X118777519Y-67109427D01*
X118786142Y-67121053D01*
X118793583Y-67133469D01*
X118799772Y-67146554D01*
X118804649Y-67160183D01*
X118808166Y-67174224D01*
X118810290Y-67188542D01*
X118811000Y-67203000D01*
X118811000Y-67498000D01*
X118810290Y-67512458D01*
X118808166Y-67526776D01*
X118804649Y-67540817D01*
X118799772Y-67554446D01*
X118793583Y-67567531D01*
X118786142Y-67579947D01*
X118777519Y-67591573D01*
X118767798Y-67602298D01*
X118757073Y-67612019D01*
X118745447Y-67620642D01*
X118733031Y-67628083D01*
X118719946Y-67634272D01*
X118706317Y-67639149D01*
X118692276Y-67642666D01*
X118677958Y-67644790D01*
X118663500Y-67645500D01*
X118318500Y-67645500D01*
X118304042Y-67644790D01*
X118289724Y-67642666D01*
X118275683Y-67639149D01*
X118262054Y-67634272D01*
X118248969Y-67628083D01*
X118236553Y-67620642D01*
X118224927Y-67612019D01*
X118214202Y-67602298D01*
X118204481Y-67591573D01*
X118195858Y-67579947D01*
X118188417Y-67567531D01*
X118182228Y-67554446D01*
X118177351Y-67540817D01*
X118173834Y-67526776D01*
X118171710Y-67512458D01*
X118171000Y-67498000D01*
X118171000Y-67203000D01*
X118171710Y-67188542D01*
X118173834Y-67174224D01*
X118177351Y-67160183D01*
X118182228Y-67146554D01*
X118188417Y-67133469D01*
X118195858Y-67121053D01*
X118204481Y-67109427D01*
X118214202Y-67098702D01*
X118224927Y-67088981D01*
X118236553Y-67080358D01*
X118248969Y-67072917D01*
X118262054Y-67066728D01*
X118275683Y-67061851D01*
X118289724Y-67058334D01*
X118304042Y-67056210D01*
X118318500Y-67055500D01*
X118663500Y-67055500D01*
X118677958Y-67056210D01*
X118677958Y-67056210D01*
G37*
D13*
X118491000Y-67350500D03*
D12*
G36*
X109470458Y-60134710D02*
G01*
X109484776Y-60136834D01*
X109498817Y-60140351D01*
X109512446Y-60145228D01*
X109525531Y-60151417D01*
X109537947Y-60158858D01*
X109549573Y-60167481D01*
X109560298Y-60177202D01*
X109570019Y-60187927D01*
X109578642Y-60199553D01*
X109586083Y-60211969D01*
X109592272Y-60225054D01*
X109597149Y-60238683D01*
X109600666Y-60252724D01*
X109602790Y-60267042D01*
X109603500Y-60281500D01*
X109603500Y-60576500D01*
X109602790Y-60590958D01*
X109600666Y-60605276D01*
X109597149Y-60619317D01*
X109592272Y-60632946D01*
X109586083Y-60646031D01*
X109578642Y-60658447D01*
X109570019Y-60670073D01*
X109560298Y-60680798D01*
X109549573Y-60690519D01*
X109537947Y-60699142D01*
X109525531Y-60706583D01*
X109512446Y-60712772D01*
X109498817Y-60717649D01*
X109484776Y-60721166D01*
X109470458Y-60723290D01*
X109456000Y-60724000D01*
X109111000Y-60724000D01*
X109096542Y-60723290D01*
X109082224Y-60721166D01*
X109068183Y-60717649D01*
X109054554Y-60712772D01*
X109041469Y-60706583D01*
X109029053Y-60699142D01*
X109017427Y-60690519D01*
X109006702Y-60680798D01*
X108996981Y-60670073D01*
X108988358Y-60658447D01*
X108980917Y-60646031D01*
X108974728Y-60632946D01*
X108969851Y-60619317D01*
X108966334Y-60605276D01*
X108964210Y-60590958D01*
X108963500Y-60576500D01*
X108963500Y-60281500D01*
X108964210Y-60267042D01*
X108966334Y-60252724D01*
X108969851Y-60238683D01*
X108974728Y-60225054D01*
X108980917Y-60211969D01*
X108988358Y-60199553D01*
X108996981Y-60187927D01*
X109006702Y-60177202D01*
X109017427Y-60167481D01*
X109029053Y-60158858D01*
X109041469Y-60151417D01*
X109054554Y-60145228D01*
X109068183Y-60140351D01*
X109082224Y-60136834D01*
X109096542Y-60134710D01*
X109111000Y-60134000D01*
X109456000Y-60134000D01*
X109470458Y-60134710D01*
X109470458Y-60134710D01*
G37*
D13*
X109283500Y-60429000D03*
D12*
G36*
X109470458Y-59164710D02*
G01*
X109484776Y-59166834D01*
X109498817Y-59170351D01*
X109512446Y-59175228D01*
X109525531Y-59181417D01*
X109537947Y-59188858D01*
X109549573Y-59197481D01*
X109560298Y-59207202D01*
X109570019Y-59217927D01*
X109578642Y-59229553D01*
X109586083Y-59241969D01*
X109592272Y-59255054D01*
X109597149Y-59268683D01*
X109600666Y-59282724D01*
X109602790Y-59297042D01*
X109603500Y-59311500D01*
X109603500Y-59606500D01*
X109602790Y-59620958D01*
X109600666Y-59635276D01*
X109597149Y-59649317D01*
X109592272Y-59662946D01*
X109586083Y-59676031D01*
X109578642Y-59688447D01*
X109570019Y-59700073D01*
X109560298Y-59710798D01*
X109549573Y-59720519D01*
X109537947Y-59729142D01*
X109525531Y-59736583D01*
X109512446Y-59742772D01*
X109498817Y-59747649D01*
X109484776Y-59751166D01*
X109470458Y-59753290D01*
X109456000Y-59754000D01*
X109111000Y-59754000D01*
X109096542Y-59753290D01*
X109082224Y-59751166D01*
X109068183Y-59747649D01*
X109054554Y-59742772D01*
X109041469Y-59736583D01*
X109029053Y-59729142D01*
X109017427Y-59720519D01*
X109006702Y-59710798D01*
X108996981Y-59700073D01*
X108988358Y-59688447D01*
X108980917Y-59676031D01*
X108974728Y-59662946D01*
X108969851Y-59649317D01*
X108966334Y-59635276D01*
X108964210Y-59620958D01*
X108963500Y-59606500D01*
X108963500Y-59311500D01*
X108964210Y-59297042D01*
X108966334Y-59282724D01*
X108969851Y-59268683D01*
X108974728Y-59255054D01*
X108980917Y-59241969D01*
X108988358Y-59229553D01*
X108996981Y-59217927D01*
X109006702Y-59207202D01*
X109017427Y-59197481D01*
X109029053Y-59188858D01*
X109041469Y-59181417D01*
X109054554Y-59175228D01*
X109068183Y-59170351D01*
X109082224Y-59166834D01*
X109096542Y-59164710D01*
X109111000Y-59164000D01*
X109456000Y-59164000D01*
X109470458Y-59164710D01*
X109470458Y-59164710D01*
G37*
D13*
X109283500Y-59459000D03*
D12*
G36*
X112833958Y-62609210D02*
G01*
X112848276Y-62611334D01*
X112862317Y-62614851D01*
X112875946Y-62619728D01*
X112889031Y-62625917D01*
X112901447Y-62633358D01*
X112913073Y-62641981D01*
X112923798Y-62651702D01*
X112933519Y-62662427D01*
X112942142Y-62674053D01*
X112949583Y-62686469D01*
X112955772Y-62699554D01*
X112960649Y-62713183D01*
X112964166Y-62727224D01*
X112966290Y-62741542D01*
X112967000Y-62756000D01*
X112967000Y-63101000D01*
X112966290Y-63115458D01*
X112964166Y-63129776D01*
X112960649Y-63143817D01*
X112955772Y-63157446D01*
X112949583Y-63170531D01*
X112942142Y-63182947D01*
X112933519Y-63194573D01*
X112923798Y-63205298D01*
X112913073Y-63215019D01*
X112901447Y-63223642D01*
X112889031Y-63231083D01*
X112875946Y-63237272D01*
X112862317Y-63242149D01*
X112848276Y-63245666D01*
X112833958Y-63247790D01*
X112819500Y-63248500D01*
X112524500Y-63248500D01*
X112510042Y-63247790D01*
X112495724Y-63245666D01*
X112481683Y-63242149D01*
X112468054Y-63237272D01*
X112454969Y-63231083D01*
X112442553Y-63223642D01*
X112430927Y-63215019D01*
X112420202Y-63205298D01*
X112410481Y-63194573D01*
X112401858Y-63182947D01*
X112394417Y-63170531D01*
X112388228Y-63157446D01*
X112383351Y-63143817D01*
X112379834Y-63129776D01*
X112377710Y-63115458D01*
X112377000Y-63101000D01*
X112377000Y-62756000D01*
X112377710Y-62741542D01*
X112379834Y-62727224D01*
X112383351Y-62713183D01*
X112388228Y-62699554D01*
X112394417Y-62686469D01*
X112401858Y-62674053D01*
X112410481Y-62662427D01*
X112420202Y-62651702D01*
X112430927Y-62641981D01*
X112442553Y-62633358D01*
X112454969Y-62625917D01*
X112468054Y-62619728D01*
X112481683Y-62614851D01*
X112495724Y-62611334D01*
X112510042Y-62609210D01*
X112524500Y-62608500D01*
X112819500Y-62608500D01*
X112833958Y-62609210D01*
X112833958Y-62609210D01*
G37*
D13*
X112672000Y-62928500D03*
D12*
G36*
X113803958Y-62609210D02*
G01*
X113818276Y-62611334D01*
X113832317Y-62614851D01*
X113845946Y-62619728D01*
X113859031Y-62625917D01*
X113871447Y-62633358D01*
X113883073Y-62641981D01*
X113893798Y-62651702D01*
X113903519Y-62662427D01*
X113912142Y-62674053D01*
X113919583Y-62686469D01*
X113925772Y-62699554D01*
X113930649Y-62713183D01*
X113934166Y-62727224D01*
X113936290Y-62741542D01*
X113937000Y-62756000D01*
X113937000Y-63101000D01*
X113936290Y-63115458D01*
X113934166Y-63129776D01*
X113930649Y-63143817D01*
X113925772Y-63157446D01*
X113919583Y-63170531D01*
X113912142Y-63182947D01*
X113903519Y-63194573D01*
X113893798Y-63205298D01*
X113883073Y-63215019D01*
X113871447Y-63223642D01*
X113859031Y-63231083D01*
X113845946Y-63237272D01*
X113832317Y-63242149D01*
X113818276Y-63245666D01*
X113803958Y-63247790D01*
X113789500Y-63248500D01*
X113494500Y-63248500D01*
X113480042Y-63247790D01*
X113465724Y-63245666D01*
X113451683Y-63242149D01*
X113438054Y-63237272D01*
X113424969Y-63231083D01*
X113412553Y-63223642D01*
X113400927Y-63215019D01*
X113390202Y-63205298D01*
X113380481Y-63194573D01*
X113371858Y-63182947D01*
X113364417Y-63170531D01*
X113358228Y-63157446D01*
X113353351Y-63143817D01*
X113349834Y-63129776D01*
X113347710Y-63115458D01*
X113347000Y-63101000D01*
X113347000Y-62756000D01*
X113347710Y-62741542D01*
X113349834Y-62727224D01*
X113353351Y-62713183D01*
X113358228Y-62699554D01*
X113364417Y-62686469D01*
X113371858Y-62674053D01*
X113380481Y-62662427D01*
X113390202Y-62651702D01*
X113400927Y-62641981D01*
X113412553Y-62633358D01*
X113424969Y-62625917D01*
X113438054Y-62619728D01*
X113451683Y-62614851D01*
X113465724Y-62611334D01*
X113480042Y-62609210D01*
X113494500Y-62608500D01*
X113789500Y-62608500D01*
X113803958Y-62609210D01*
X113803958Y-62609210D01*
G37*
D13*
X113642000Y-62928500D03*
D12*
G36*
X112833958Y-60069210D02*
G01*
X112848276Y-60071334D01*
X112862317Y-60074851D01*
X112875946Y-60079728D01*
X112889031Y-60085917D01*
X112901447Y-60093358D01*
X112913073Y-60101981D01*
X112923798Y-60111702D01*
X112933519Y-60122427D01*
X112942142Y-60134053D01*
X112949583Y-60146469D01*
X112955772Y-60159554D01*
X112960649Y-60173183D01*
X112964166Y-60187224D01*
X112966290Y-60201542D01*
X112967000Y-60216000D01*
X112967000Y-60561000D01*
X112966290Y-60575458D01*
X112964166Y-60589776D01*
X112960649Y-60603817D01*
X112955772Y-60617446D01*
X112949583Y-60630531D01*
X112942142Y-60642947D01*
X112933519Y-60654573D01*
X112923798Y-60665298D01*
X112913073Y-60675019D01*
X112901447Y-60683642D01*
X112889031Y-60691083D01*
X112875946Y-60697272D01*
X112862317Y-60702149D01*
X112848276Y-60705666D01*
X112833958Y-60707790D01*
X112819500Y-60708500D01*
X112524500Y-60708500D01*
X112510042Y-60707790D01*
X112495724Y-60705666D01*
X112481683Y-60702149D01*
X112468054Y-60697272D01*
X112454969Y-60691083D01*
X112442553Y-60683642D01*
X112430927Y-60675019D01*
X112420202Y-60665298D01*
X112410481Y-60654573D01*
X112401858Y-60642947D01*
X112394417Y-60630531D01*
X112388228Y-60617446D01*
X112383351Y-60603817D01*
X112379834Y-60589776D01*
X112377710Y-60575458D01*
X112377000Y-60561000D01*
X112377000Y-60216000D01*
X112377710Y-60201542D01*
X112379834Y-60187224D01*
X112383351Y-60173183D01*
X112388228Y-60159554D01*
X112394417Y-60146469D01*
X112401858Y-60134053D01*
X112410481Y-60122427D01*
X112420202Y-60111702D01*
X112430927Y-60101981D01*
X112442553Y-60093358D01*
X112454969Y-60085917D01*
X112468054Y-60079728D01*
X112481683Y-60074851D01*
X112495724Y-60071334D01*
X112510042Y-60069210D01*
X112524500Y-60068500D01*
X112819500Y-60068500D01*
X112833958Y-60069210D01*
X112833958Y-60069210D01*
G37*
D13*
X112672000Y-60388500D03*
D12*
G36*
X113803958Y-60069210D02*
G01*
X113818276Y-60071334D01*
X113832317Y-60074851D01*
X113845946Y-60079728D01*
X113859031Y-60085917D01*
X113871447Y-60093358D01*
X113883073Y-60101981D01*
X113893798Y-60111702D01*
X113903519Y-60122427D01*
X113912142Y-60134053D01*
X113919583Y-60146469D01*
X113925772Y-60159554D01*
X113930649Y-60173183D01*
X113934166Y-60187224D01*
X113936290Y-60201542D01*
X113937000Y-60216000D01*
X113937000Y-60561000D01*
X113936290Y-60575458D01*
X113934166Y-60589776D01*
X113930649Y-60603817D01*
X113925772Y-60617446D01*
X113919583Y-60630531D01*
X113912142Y-60642947D01*
X113903519Y-60654573D01*
X113893798Y-60665298D01*
X113883073Y-60675019D01*
X113871447Y-60683642D01*
X113859031Y-60691083D01*
X113845946Y-60697272D01*
X113832317Y-60702149D01*
X113818276Y-60705666D01*
X113803958Y-60707790D01*
X113789500Y-60708500D01*
X113494500Y-60708500D01*
X113480042Y-60707790D01*
X113465724Y-60705666D01*
X113451683Y-60702149D01*
X113438054Y-60697272D01*
X113424969Y-60691083D01*
X113412553Y-60683642D01*
X113400927Y-60675019D01*
X113390202Y-60665298D01*
X113380481Y-60654573D01*
X113371858Y-60642947D01*
X113364417Y-60630531D01*
X113358228Y-60617446D01*
X113353351Y-60603817D01*
X113349834Y-60589776D01*
X113347710Y-60575458D01*
X113347000Y-60561000D01*
X113347000Y-60216000D01*
X113347710Y-60201542D01*
X113349834Y-60187224D01*
X113353351Y-60173183D01*
X113358228Y-60159554D01*
X113364417Y-60146469D01*
X113371858Y-60134053D01*
X113380481Y-60122427D01*
X113390202Y-60111702D01*
X113400927Y-60101981D01*
X113412553Y-60093358D01*
X113424969Y-60085917D01*
X113438054Y-60079728D01*
X113451683Y-60074851D01*
X113465724Y-60071334D01*
X113480042Y-60069210D01*
X113494500Y-60068500D01*
X113789500Y-60068500D01*
X113803958Y-60069210D01*
X113803958Y-60069210D01*
G37*
D13*
X113642000Y-60388500D03*
D12*
G36*
X112833958Y-61339210D02*
G01*
X112848276Y-61341334D01*
X112862317Y-61344851D01*
X112875946Y-61349728D01*
X112889031Y-61355917D01*
X112901447Y-61363358D01*
X112913073Y-61371981D01*
X112923798Y-61381702D01*
X112933519Y-61392427D01*
X112942142Y-61404053D01*
X112949583Y-61416469D01*
X112955772Y-61429554D01*
X112960649Y-61443183D01*
X112964166Y-61457224D01*
X112966290Y-61471542D01*
X112967000Y-61486000D01*
X112967000Y-61831000D01*
X112966290Y-61845458D01*
X112964166Y-61859776D01*
X112960649Y-61873817D01*
X112955772Y-61887446D01*
X112949583Y-61900531D01*
X112942142Y-61912947D01*
X112933519Y-61924573D01*
X112923798Y-61935298D01*
X112913073Y-61945019D01*
X112901447Y-61953642D01*
X112889031Y-61961083D01*
X112875946Y-61967272D01*
X112862317Y-61972149D01*
X112848276Y-61975666D01*
X112833958Y-61977790D01*
X112819500Y-61978500D01*
X112524500Y-61978500D01*
X112510042Y-61977790D01*
X112495724Y-61975666D01*
X112481683Y-61972149D01*
X112468054Y-61967272D01*
X112454969Y-61961083D01*
X112442553Y-61953642D01*
X112430927Y-61945019D01*
X112420202Y-61935298D01*
X112410481Y-61924573D01*
X112401858Y-61912947D01*
X112394417Y-61900531D01*
X112388228Y-61887446D01*
X112383351Y-61873817D01*
X112379834Y-61859776D01*
X112377710Y-61845458D01*
X112377000Y-61831000D01*
X112377000Y-61486000D01*
X112377710Y-61471542D01*
X112379834Y-61457224D01*
X112383351Y-61443183D01*
X112388228Y-61429554D01*
X112394417Y-61416469D01*
X112401858Y-61404053D01*
X112410481Y-61392427D01*
X112420202Y-61381702D01*
X112430927Y-61371981D01*
X112442553Y-61363358D01*
X112454969Y-61355917D01*
X112468054Y-61349728D01*
X112481683Y-61344851D01*
X112495724Y-61341334D01*
X112510042Y-61339210D01*
X112524500Y-61338500D01*
X112819500Y-61338500D01*
X112833958Y-61339210D01*
X112833958Y-61339210D01*
G37*
D13*
X112672000Y-61658500D03*
D12*
G36*
X113803958Y-61339210D02*
G01*
X113818276Y-61341334D01*
X113832317Y-61344851D01*
X113845946Y-61349728D01*
X113859031Y-61355917D01*
X113871447Y-61363358D01*
X113883073Y-61371981D01*
X113893798Y-61381702D01*
X113903519Y-61392427D01*
X113912142Y-61404053D01*
X113919583Y-61416469D01*
X113925772Y-61429554D01*
X113930649Y-61443183D01*
X113934166Y-61457224D01*
X113936290Y-61471542D01*
X113937000Y-61486000D01*
X113937000Y-61831000D01*
X113936290Y-61845458D01*
X113934166Y-61859776D01*
X113930649Y-61873817D01*
X113925772Y-61887446D01*
X113919583Y-61900531D01*
X113912142Y-61912947D01*
X113903519Y-61924573D01*
X113893798Y-61935298D01*
X113883073Y-61945019D01*
X113871447Y-61953642D01*
X113859031Y-61961083D01*
X113845946Y-61967272D01*
X113832317Y-61972149D01*
X113818276Y-61975666D01*
X113803958Y-61977790D01*
X113789500Y-61978500D01*
X113494500Y-61978500D01*
X113480042Y-61977790D01*
X113465724Y-61975666D01*
X113451683Y-61972149D01*
X113438054Y-61967272D01*
X113424969Y-61961083D01*
X113412553Y-61953642D01*
X113400927Y-61945019D01*
X113390202Y-61935298D01*
X113380481Y-61924573D01*
X113371858Y-61912947D01*
X113364417Y-61900531D01*
X113358228Y-61887446D01*
X113353351Y-61873817D01*
X113349834Y-61859776D01*
X113347710Y-61845458D01*
X113347000Y-61831000D01*
X113347000Y-61486000D01*
X113347710Y-61471542D01*
X113349834Y-61457224D01*
X113353351Y-61443183D01*
X113358228Y-61429554D01*
X113364417Y-61416469D01*
X113371858Y-61404053D01*
X113380481Y-61392427D01*
X113390202Y-61381702D01*
X113400927Y-61371981D01*
X113412553Y-61363358D01*
X113424969Y-61355917D01*
X113438054Y-61349728D01*
X113451683Y-61344851D01*
X113465724Y-61341334D01*
X113480042Y-61339210D01*
X113494500Y-61338500D01*
X113789500Y-61338500D01*
X113803958Y-61339210D01*
X113803958Y-61339210D01*
G37*
D13*
X113642000Y-61658500D03*
D12*
G36*
X110547958Y-60069210D02*
G01*
X110562276Y-60071334D01*
X110576317Y-60074851D01*
X110589946Y-60079728D01*
X110603031Y-60085917D01*
X110615447Y-60093358D01*
X110627073Y-60101981D01*
X110637798Y-60111702D01*
X110647519Y-60122427D01*
X110656142Y-60134053D01*
X110663583Y-60146469D01*
X110669772Y-60159554D01*
X110674649Y-60173183D01*
X110678166Y-60187224D01*
X110680290Y-60201542D01*
X110681000Y-60216000D01*
X110681000Y-60561000D01*
X110680290Y-60575458D01*
X110678166Y-60589776D01*
X110674649Y-60603817D01*
X110669772Y-60617446D01*
X110663583Y-60630531D01*
X110656142Y-60642947D01*
X110647519Y-60654573D01*
X110637798Y-60665298D01*
X110627073Y-60675019D01*
X110615447Y-60683642D01*
X110603031Y-60691083D01*
X110589946Y-60697272D01*
X110576317Y-60702149D01*
X110562276Y-60705666D01*
X110547958Y-60707790D01*
X110533500Y-60708500D01*
X110238500Y-60708500D01*
X110224042Y-60707790D01*
X110209724Y-60705666D01*
X110195683Y-60702149D01*
X110182054Y-60697272D01*
X110168969Y-60691083D01*
X110156553Y-60683642D01*
X110144927Y-60675019D01*
X110134202Y-60665298D01*
X110124481Y-60654573D01*
X110115858Y-60642947D01*
X110108417Y-60630531D01*
X110102228Y-60617446D01*
X110097351Y-60603817D01*
X110093834Y-60589776D01*
X110091710Y-60575458D01*
X110091000Y-60561000D01*
X110091000Y-60216000D01*
X110091710Y-60201542D01*
X110093834Y-60187224D01*
X110097351Y-60173183D01*
X110102228Y-60159554D01*
X110108417Y-60146469D01*
X110115858Y-60134053D01*
X110124481Y-60122427D01*
X110134202Y-60111702D01*
X110144927Y-60101981D01*
X110156553Y-60093358D01*
X110168969Y-60085917D01*
X110182054Y-60079728D01*
X110195683Y-60074851D01*
X110209724Y-60071334D01*
X110224042Y-60069210D01*
X110238500Y-60068500D01*
X110533500Y-60068500D01*
X110547958Y-60069210D01*
X110547958Y-60069210D01*
G37*
D13*
X110386000Y-60388500D03*
D12*
G36*
X111517958Y-60069210D02*
G01*
X111532276Y-60071334D01*
X111546317Y-60074851D01*
X111559946Y-60079728D01*
X111573031Y-60085917D01*
X111585447Y-60093358D01*
X111597073Y-60101981D01*
X111607798Y-60111702D01*
X111617519Y-60122427D01*
X111626142Y-60134053D01*
X111633583Y-60146469D01*
X111639772Y-60159554D01*
X111644649Y-60173183D01*
X111648166Y-60187224D01*
X111650290Y-60201542D01*
X111651000Y-60216000D01*
X111651000Y-60561000D01*
X111650290Y-60575458D01*
X111648166Y-60589776D01*
X111644649Y-60603817D01*
X111639772Y-60617446D01*
X111633583Y-60630531D01*
X111626142Y-60642947D01*
X111617519Y-60654573D01*
X111607798Y-60665298D01*
X111597073Y-60675019D01*
X111585447Y-60683642D01*
X111573031Y-60691083D01*
X111559946Y-60697272D01*
X111546317Y-60702149D01*
X111532276Y-60705666D01*
X111517958Y-60707790D01*
X111503500Y-60708500D01*
X111208500Y-60708500D01*
X111194042Y-60707790D01*
X111179724Y-60705666D01*
X111165683Y-60702149D01*
X111152054Y-60697272D01*
X111138969Y-60691083D01*
X111126553Y-60683642D01*
X111114927Y-60675019D01*
X111104202Y-60665298D01*
X111094481Y-60654573D01*
X111085858Y-60642947D01*
X111078417Y-60630531D01*
X111072228Y-60617446D01*
X111067351Y-60603817D01*
X111063834Y-60589776D01*
X111061710Y-60575458D01*
X111061000Y-60561000D01*
X111061000Y-60216000D01*
X111061710Y-60201542D01*
X111063834Y-60187224D01*
X111067351Y-60173183D01*
X111072228Y-60159554D01*
X111078417Y-60146469D01*
X111085858Y-60134053D01*
X111094481Y-60122427D01*
X111104202Y-60111702D01*
X111114927Y-60101981D01*
X111126553Y-60093358D01*
X111138969Y-60085917D01*
X111152054Y-60079728D01*
X111165683Y-60074851D01*
X111179724Y-60071334D01*
X111194042Y-60069210D01*
X111208500Y-60068500D01*
X111503500Y-60068500D01*
X111517958Y-60069210D01*
X111517958Y-60069210D01*
G37*
D13*
X111356000Y-60388500D03*
D12*
G36*
X105404458Y-63117210D02*
G01*
X105418776Y-63119334D01*
X105432817Y-63122851D01*
X105446446Y-63127728D01*
X105459531Y-63133917D01*
X105471947Y-63141358D01*
X105483573Y-63149981D01*
X105494298Y-63159702D01*
X105504019Y-63170427D01*
X105512642Y-63182053D01*
X105520083Y-63194469D01*
X105526272Y-63207554D01*
X105531149Y-63221183D01*
X105534666Y-63235224D01*
X105536790Y-63249542D01*
X105537500Y-63264000D01*
X105537500Y-63609000D01*
X105536790Y-63623458D01*
X105534666Y-63637776D01*
X105531149Y-63651817D01*
X105526272Y-63665446D01*
X105520083Y-63678531D01*
X105512642Y-63690947D01*
X105504019Y-63702573D01*
X105494298Y-63713298D01*
X105483573Y-63723019D01*
X105471947Y-63731642D01*
X105459531Y-63739083D01*
X105446446Y-63745272D01*
X105432817Y-63750149D01*
X105418776Y-63753666D01*
X105404458Y-63755790D01*
X105390000Y-63756500D01*
X105095000Y-63756500D01*
X105080542Y-63755790D01*
X105066224Y-63753666D01*
X105052183Y-63750149D01*
X105038554Y-63745272D01*
X105025469Y-63739083D01*
X105013053Y-63731642D01*
X105001427Y-63723019D01*
X104990702Y-63713298D01*
X104980981Y-63702573D01*
X104972358Y-63690947D01*
X104964917Y-63678531D01*
X104958728Y-63665446D01*
X104953851Y-63651817D01*
X104950334Y-63637776D01*
X104948210Y-63623458D01*
X104947500Y-63609000D01*
X104947500Y-63264000D01*
X104948210Y-63249542D01*
X104950334Y-63235224D01*
X104953851Y-63221183D01*
X104958728Y-63207554D01*
X104964917Y-63194469D01*
X104972358Y-63182053D01*
X104980981Y-63170427D01*
X104990702Y-63159702D01*
X105001427Y-63149981D01*
X105013053Y-63141358D01*
X105025469Y-63133917D01*
X105038554Y-63127728D01*
X105052183Y-63122851D01*
X105066224Y-63119334D01*
X105080542Y-63117210D01*
X105095000Y-63116500D01*
X105390000Y-63116500D01*
X105404458Y-63117210D01*
X105404458Y-63117210D01*
G37*
D13*
X105242500Y-63436500D03*
D12*
G36*
X106374458Y-63117210D02*
G01*
X106388776Y-63119334D01*
X106402817Y-63122851D01*
X106416446Y-63127728D01*
X106429531Y-63133917D01*
X106441947Y-63141358D01*
X106453573Y-63149981D01*
X106464298Y-63159702D01*
X106474019Y-63170427D01*
X106482642Y-63182053D01*
X106490083Y-63194469D01*
X106496272Y-63207554D01*
X106501149Y-63221183D01*
X106504666Y-63235224D01*
X106506790Y-63249542D01*
X106507500Y-63264000D01*
X106507500Y-63609000D01*
X106506790Y-63623458D01*
X106504666Y-63637776D01*
X106501149Y-63651817D01*
X106496272Y-63665446D01*
X106490083Y-63678531D01*
X106482642Y-63690947D01*
X106474019Y-63702573D01*
X106464298Y-63713298D01*
X106453573Y-63723019D01*
X106441947Y-63731642D01*
X106429531Y-63739083D01*
X106416446Y-63745272D01*
X106402817Y-63750149D01*
X106388776Y-63753666D01*
X106374458Y-63755790D01*
X106360000Y-63756500D01*
X106065000Y-63756500D01*
X106050542Y-63755790D01*
X106036224Y-63753666D01*
X106022183Y-63750149D01*
X106008554Y-63745272D01*
X105995469Y-63739083D01*
X105983053Y-63731642D01*
X105971427Y-63723019D01*
X105960702Y-63713298D01*
X105950981Y-63702573D01*
X105942358Y-63690947D01*
X105934917Y-63678531D01*
X105928728Y-63665446D01*
X105923851Y-63651817D01*
X105920334Y-63637776D01*
X105918210Y-63623458D01*
X105917500Y-63609000D01*
X105917500Y-63264000D01*
X105918210Y-63249542D01*
X105920334Y-63235224D01*
X105923851Y-63221183D01*
X105928728Y-63207554D01*
X105934917Y-63194469D01*
X105942358Y-63182053D01*
X105950981Y-63170427D01*
X105960702Y-63159702D01*
X105971427Y-63149981D01*
X105983053Y-63141358D01*
X105995469Y-63133917D01*
X106008554Y-63127728D01*
X106022183Y-63122851D01*
X106036224Y-63119334D01*
X106050542Y-63117210D01*
X106065000Y-63116500D01*
X106360000Y-63116500D01*
X106374458Y-63117210D01*
X106374458Y-63117210D01*
G37*
D13*
X106212500Y-63436500D03*
D12*
G36*
X105167958Y-71943710D02*
G01*
X105182276Y-71945834D01*
X105196317Y-71949351D01*
X105209946Y-71954228D01*
X105223031Y-71960417D01*
X105235447Y-71967858D01*
X105247073Y-71976481D01*
X105257798Y-71986202D01*
X105267519Y-71996927D01*
X105276142Y-72008553D01*
X105283583Y-72020969D01*
X105289772Y-72034054D01*
X105294649Y-72047683D01*
X105298166Y-72061724D01*
X105300290Y-72076042D01*
X105301000Y-72090500D01*
X105301000Y-72435500D01*
X105300290Y-72449958D01*
X105298166Y-72464276D01*
X105294649Y-72478317D01*
X105289772Y-72491946D01*
X105283583Y-72505031D01*
X105276142Y-72517447D01*
X105267519Y-72529073D01*
X105257798Y-72539798D01*
X105247073Y-72549519D01*
X105235447Y-72558142D01*
X105223031Y-72565583D01*
X105209946Y-72571772D01*
X105196317Y-72576649D01*
X105182276Y-72580166D01*
X105167958Y-72582290D01*
X105153500Y-72583000D01*
X104858500Y-72583000D01*
X104844042Y-72582290D01*
X104829724Y-72580166D01*
X104815683Y-72576649D01*
X104802054Y-72571772D01*
X104788969Y-72565583D01*
X104776553Y-72558142D01*
X104764927Y-72549519D01*
X104754202Y-72539798D01*
X104744481Y-72529073D01*
X104735858Y-72517447D01*
X104728417Y-72505031D01*
X104722228Y-72491946D01*
X104717351Y-72478317D01*
X104713834Y-72464276D01*
X104711710Y-72449958D01*
X104711000Y-72435500D01*
X104711000Y-72090500D01*
X104711710Y-72076042D01*
X104713834Y-72061724D01*
X104717351Y-72047683D01*
X104722228Y-72034054D01*
X104728417Y-72020969D01*
X104735858Y-72008553D01*
X104744481Y-71996927D01*
X104754202Y-71986202D01*
X104764927Y-71976481D01*
X104776553Y-71967858D01*
X104788969Y-71960417D01*
X104802054Y-71954228D01*
X104815683Y-71949351D01*
X104829724Y-71945834D01*
X104844042Y-71943710D01*
X104858500Y-71943000D01*
X105153500Y-71943000D01*
X105167958Y-71943710D01*
X105167958Y-71943710D01*
G37*
D13*
X105006000Y-72263000D03*
D12*
G36*
X104197958Y-71943710D02*
G01*
X104212276Y-71945834D01*
X104226317Y-71949351D01*
X104239946Y-71954228D01*
X104253031Y-71960417D01*
X104265447Y-71967858D01*
X104277073Y-71976481D01*
X104287798Y-71986202D01*
X104297519Y-71996927D01*
X104306142Y-72008553D01*
X104313583Y-72020969D01*
X104319772Y-72034054D01*
X104324649Y-72047683D01*
X104328166Y-72061724D01*
X104330290Y-72076042D01*
X104331000Y-72090500D01*
X104331000Y-72435500D01*
X104330290Y-72449958D01*
X104328166Y-72464276D01*
X104324649Y-72478317D01*
X104319772Y-72491946D01*
X104313583Y-72505031D01*
X104306142Y-72517447D01*
X104297519Y-72529073D01*
X104287798Y-72539798D01*
X104277073Y-72549519D01*
X104265447Y-72558142D01*
X104253031Y-72565583D01*
X104239946Y-72571772D01*
X104226317Y-72576649D01*
X104212276Y-72580166D01*
X104197958Y-72582290D01*
X104183500Y-72583000D01*
X103888500Y-72583000D01*
X103874042Y-72582290D01*
X103859724Y-72580166D01*
X103845683Y-72576649D01*
X103832054Y-72571772D01*
X103818969Y-72565583D01*
X103806553Y-72558142D01*
X103794927Y-72549519D01*
X103784202Y-72539798D01*
X103774481Y-72529073D01*
X103765858Y-72517447D01*
X103758417Y-72505031D01*
X103752228Y-72491946D01*
X103747351Y-72478317D01*
X103743834Y-72464276D01*
X103741710Y-72449958D01*
X103741000Y-72435500D01*
X103741000Y-72090500D01*
X103741710Y-72076042D01*
X103743834Y-72061724D01*
X103747351Y-72047683D01*
X103752228Y-72034054D01*
X103758417Y-72020969D01*
X103765858Y-72008553D01*
X103774481Y-71996927D01*
X103784202Y-71986202D01*
X103794927Y-71976481D01*
X103806553Y-71967858D01*
X103818969Y-71960417D01*
X103832054Y-71954228D01*
X103845683Y-71949351D01*
X103859724Y-71945834D01*
X103874042Y-71943710D01*
X103888500Y-71943000D01*
X104183500Y-71943000D01*
X104197958Y-71943710D01*
X104197958Y-71943710D01*
G37*
D13*
X104036000Y-72263000D03*
D12*
G36*
X116455458Y-59880710D02*
G01*
X116469776Y-59882834D01*
X116483817Y-59886351D01*
X116497446Y-59891228D01*
X116510531Y-59897417D01*
X116522947Y-59904858D01*
X116534573Y-59913481D01*
X116545298Y-59923202D01*
X116555019Y-59933927D01*
X116563642Y-59945553D01*
X116571083Y-59957969D01*
X116577272Y-59971054D01*
X116582149Y-59984683D01*
X116585666Y-59998724D01*
X116587790Y-60013042D01*
X116588500Y-60027500D01*
X116588500Y-60322500D01*
X116587790Y-60336958D01*
X116585666Y-60351276D01*
X116582149Y-60365317D01*
X116577272Y-60378946D01*
X116571083Y-60392031D01*
X116563642Y-60404447D01*
X116555019Y-60416073D01*
X116545298Y-60426798D01*
X116534573Y-60436519D01*
X116522947Y-60445142D01*
X116510531Y-60452583D01*
X116497446Y-60458772D01*
X116483817Y-60463649D01*
X116469776Y-60467166D01*
X116455458Y-60469290D01*
X116441000Y-60470000D01*
X116096000Y-60470000D01*
X116081542Y-60469290D01*
X116067224Y-60467166D01*
X116053183Y-60463649D01*
X116039554Y-60458772D01*
X116026469Y-60452583D01*
X116014053Y-60445142D01*
X116002427Y-60436519D01*
X115991702Y-60426798D01*
X115981981Y-60416073D01*
X115973358Y-60404447D01*
X115965917Y-60392031D01*
X115959728Y-60378946D01*
X115954851Y-60365317D01*
X115951334Y-60351276D01*
X115949210Y-60336958D01*
X115948500Y-60322500D01*
X115948500Y-60027500D01*
X115949210Y-60013042D01*
X115951334Y-59998724D01*
X115954851Y-59984683D01*
X115959728Y-59971054D01*
X115965917Y-59957969D01*
X115973358Y-59945553D01*
X115981981Y-59933927D01*
X115991702Y-59923202D01*
X116002427Y-59913481D01*
X116014053Y-59904858D01*
X116026469Y-59897417D01*
X116039554Y-59891228D01*
X116053183Y-59886351D01*
X116067224Y-59882834D01*
X116081542Y-59880710D01*
X116096000Y-59880000D01*
X116441000Y-59880000D01*
X116455458Y-59880710D01*
X116455458Y-59880710D01*
G37*
D13*
X116268500Y-60175000D03*
D12*
G36*
X116455458Y-58910710D02*
G01*
X116469776Y-58912834D01*
X116483817Y-58916351D01*
X116497446Y-58921228D01*
X116510531Y-58927417D01*
X116522947Y-58934858D01*
X116534573Y-58943481D01*
X116545298Y-58953202D01*
X116555019Y-58963927D01*
X116563642Y-58975553D01*
X116571083Y-58987969D01*
X116577272Y-59001054D01*
X116582149Y-59014683D01*
X116585666Y-59028724D01*
X116587790Y-59043042D01*
X116588500Y-59057500D01*
X116588500Y-59352500D01*
X116587790Y-59366958D01*
X116585666Y-59381276D01*
X116582149Y-59395317D01*
X116577272Y-59408946D01*
X116571083Y-59422031D01*
X116563642Y-59434447D01*
X116555019Y-59446073D01*
X116545298Y-59456798D01*
X116534573Y-59466519D01*
X116522947Y-59475142D01*
X116510531Y-59482583D01*
X116497446Y-59488772D01*
X116483817Y-59493649D01*
X116469776Y-59497166D01*
X116455458Y-59499290D01*
X116441000Y-59500000D01*
X116096000Y-59500000D01*
X116081542Y-59499290D01*
X116067224Y-59497166D01*
X116053183Y-59493649D01*
X116039554Y-59488772D01*
X116026469Y-59482583D01*
X116014053Y-59475142D01*
X116002427Y-59466519D01*
X115991702Y-59456798D01*
X115981981Y-59446073D01*
X115973358Y-59434447D01*
X115965917Y-59422031D01*
X115959728Y-59408946D01*
X115954851Y-59395317D01*
X115951334Y-59381276D01*
X115949210Y-59366958D01*
X115948500Y-59352500D01*
X115948500Y-59057500D01*
X115949210Y-59043042D01*
X115951334Y-59028724D01*
X115954851Y-59014683D01*
X115959728Y-59001054D01*
X115965917Y-58987969D01*
X115973358Y-58975553D01*
X115981981Y-58963927D01*
X115991702Y-58953202D01*
X116002427Y-58943481D01*
X116014053Y-58934858D01*
X116026469Y-58927417D01*
X116039554Y-58921228D01*
X116053183Y-58916351D01*
X116067224Y-58912834D01*
X116081542Y-58910710D01*
X116096000Y-58910000D01*
X116441000Y-58910000D01*
X116455458Y-58910710D01*
X116455458Y-58910710D01*
G37*
D13*
X116268500Y-59205000D03*
D12*
G36*
X117598458Y-60325210D02*
G01*
X117612776Y-60327334D01*
X117626817Y-60330851D01*
X117640446Y-60335728D01*
X117653531Y-60341917D01*
X117665947Y-60349358D01*
X117677573Y-60357981D01*
X117688298Y-60367702D01*
X117698019Y-60378427D01*
X117706642Y-60390053D01*
X117714083Y-60402469D01*
X117720272Y-60415554D01*
X117725149Y-60429183D01*
X117728666Y-60443224D01*
X117730790Y-60457542D01*
X117731500Y-60472000D01*
X117731500Y-60767000D01*
X117730790Y-60781458D01*
X117728666Y-60795776D01*
X117725149Y-60809817D01*
X117720272Y-60823446D01*
X117714083Y-60836531D01*
X117706642Y-60848947D01*
X117698019Y-60860573D01*
X117688298Y-60871298D01*
X117677573Y-60881019D01*
X117665947Y-60889642D01*
X117653531Y-60897083D01*
X117640446Y-60903272D01*
X117626817Y-60908149D01*
X117612776Y-60911666D01*
X117598458Y-60913790D01*
X117584000Y-60914500D01*
X117239000Y-60914500D01*
X117224542Y-60913790D01*
X117210224Y-60911666D01*
X117196183Y-60908149D01*
X117182554Y-60903272D01*
X117169469Y-60897083D01*
X117157053Y-60889642D01*
X117145427Y-60881019D01*
X117134702Y-60871298D01*
X117124981Y-60860573D01*
X117116358Y-60848947D01*
X117108917Y-60836531D01*
X117102728Y-60823446D01*
X117097851Y-60809817D01*
X117094334Y-60795776D01*
X117092210Y-60781458D01*
X117091500Y-60767000D01*
X117091500Y-60472000D01*
X117092210Y-60457542D01*
X117094334Y-60443224D01*
X117097851Y-60429183D01*
X117102728Y-60415554D01*
X117108917Y-60402469D01*
X117116358Y-60390053D01*
X117124981Y-60378427D01*
X117134702Y-60367702D01*
X117145427Y-60357981D01*
X117157053Y-60349358D01*
X117169469Y-60341917D01*
X117182554Y-60335728D01*
X117196183Y-60330851D01*
X117210224Y-60327334D01*
X117224542Y-60325210D01*
X117239000Y-60324500D01*
X117584000Y-60324500D01*
X117598458Y-60325210D01*
X117598458Y-60325210D01*
G37*
D13*
X117411500Y-60619500D03*
D12*
G36*
X117598458Y-59355210D02*
G01*
X117612776Y-59357334D01*
X117626817Y-59360851D01*
X117640446Y-59365728D01*
X117653531Y-59371917D01*
X117665947Y-59379358D01*
X117677573Y-59387981D01*
X117688298Y-59397702D01*
X117698019Y-59408427D01*
X117706642Y-59420053D01*
X117714083Y-59432469D01*
X117720272Y-59445554D01*
X117725149Y-59459183D01*
X117728666Y-59473224D01*
X117730790Y-59487542D01*
X117731500Y-59502000D01*
X117731500Y-59797000D01*
X117730790Y-59811458D01*
X117728666Y-59825776D01*
X117725149Y-59839817D01*
X117720272Y-59853446D01*
X117714083Y-59866531D01*
X117706642Y-59878947D01*
X117698019Y-59890573D01*
X117688298Y-59901298D01*
X117677573Y-59911019D01*
X117665947Y-59919642D01*
X117653531Y-59927083D01*
X117640446Y-59933272D01*
X117626817Y-59938149D01*
X117612776Y-59941666D01*
X117598458Y-59943790D01*
X117584000Y-59944500D01*
X117239000Y-59944500D01*
X117224542Y-59943790D01*
X117210224Y-59941666D01*
X117196183Y-59938149D01*
X117182554Y-59933272D01*
X117169469Y-59927083D01*
X117157053Y-59919642D01*
X117145427Y-59911019D01*
X117134702Y-59901298D01*
X117124981Y-59890573D01*
X117116358Y-59878947D01*
X117108917Y-59866531D01*
X117102728Y-59853446D01*
X117097851Y-59839817D01*
X117094334Y-59825776D01*
X117092210Y-59811458D01*
X117091500Y-59797000D01*
X117091500Y-59502000D01*
X117092210Y-59487542D01*
X117094334Y-59473224D01*
X117097851Y-59459183D01*
X117102728Y-59445554D01*
X117108917Y-59432469D01*
X117116358Y-59420053D01*
X117124981Y-59408427D01*
X117134702Y-59397702D01*
X117145427Y-59387981D01*
X117157053Y-59379358D01*
X117169469Y-59371917D01*
X117182554Y-59365728D01*
X117196183Y-59360851D01*
X117210224Y-59357334D01*
X117224542Y-59355210D01*
X117239000Y-59354500D01*
X117584000Y-59354500D01*
X117598458Y-59355210D01*
X117598458Y-59355210D01*
G37*
D13*
X117411500Y-59649500D03*
D12*
G36*
X113803958Y-63625210D02*
G01*
X113818276Y-63627334D01*
X113832317Y-63630851D01*
X113845946Y-63635728D01*
X113859031Y-63641917D01*
X113871447Y-63649358D01*
X113883073Y-63657981D01*
X113893798Y-63667702D01*
X113903519Y-63678427D01*
X113912142Y-63690053D01*
X113919583Y-63702469D01*
X113925772Y-63715554D01*
X113930649Y-63729183D01*
X113934166Y-63743224D01*
X113936290Y-63757542D01*
X113937000Y-63772000D01*
X113937000Y-64117000D01*
X113936290Y-64131458D01*
X113934166Y-64145776D01*
X113930649Y-64159817D01*
X113925772Y-64173446D01*
X113919583Y-64186531D01*
X113912142Y-64198947D01*
X113903519Y-64210573D01*
X113893798Y-64221298D01*
X113883073Y-64231019D01*
X113871447Y-64239642D01*
X113859031Y-64247083D01*
X113845946Y-64253272D01*
X113832317Y-64258149D01*
X113818276Y-64261666D01*
X113803958Y-64263790D01*
X113789500Y-64264500D01*
X113494500Y-64264500D01*
X113480042Y-64263790D01*
X113465724Y-64261666D01*
X113451683Y-64258149D01*
X113438054Y-64253272D01*
X113424969Y-64247083D01*
X113412553Y-64239642D01*
X113400927Y-64231019D01*
X113390202Y-64221298D01*
X113380481Y-64210573D01*
X113371858Y-64198947D01*
X113364417Y-64186531D01*
X113358228Y-64173446D01*
X113353351Y-64159817D01*
X113349834Y-64145776D01*
X113347710Y-64131458D01*
X113347000Y-64117000D01*
X113347000Y-63772000D01*
X113347710Y-63757542D01*
X113349834Y-63743224D01*
X113353351Y-63729183D01*
X113358228Y-63715554D01*
X113364417Y-63702469D01*
X113371858Y-63690053D01*
X113380481Y-63678427D01*
X113390202Y-63667702D01*
X113400927Y-63657981D01*
X113412553Y-63649358D01*
X113424969Y-63641917D01*
X113438054Y-63635728D01*
X113451683Y-63630851D01*
X113465724Y-63627334D01*
X113480042Y-63625210D01*
X113494500Y-63624500D01*
X113789500Y-63624500D01*
X113803958Y-63625210D01*
X113803958Y-63625210D01*
G37*
D13*
X113642000Y-63944500D03*
D12*
G36*
X112833958Y-63625210D02*
G01*
X112848276Y-63627334D01*
X112862317Y-63630851D01*
X112875946Y-63635728D01*
X112889031Y-63641917D01*
X112901447Y-63649358D01*
X112913073Y-63657981D01*
X112923798Y-63667702D01*
X112933519Y-63678427D01*
X112942142Y-63690053D01*
X112949583Y-63702469D01*
X112955772Y-63715554D01*
X112960649Y-63729183D01*
X112964166Y-63743224D01*
X112966290Y-63757542D01*
X112967000Y-63772000D01*
X112967000Y-64117000D01*
X112966290Y-64131458D01*
X112964166Y-64145776D01*
X112960649Y-64159817D01*
X112955772Y-64173446D01*
X112949583Y-64186531D01*
X112942142Y-64198947D01*
X112933519Y-64210573D01*
X112923798Y-64221298D01*
X112913073Y-64231019D01*
X112901447Y-64239642D01*
X112889031Y-64247083D01*
X112875946Y-64253272D01*
X112862317Y-64258149D01*
X112848276Y-64261666D01*
X112833958Y-64263790D01*
X112819500Y-64264500D01*
X112524500Y-64264500D01*
X112510042Y-64263790D01*
X112495724Y-64261666D01*
X112481683Y-64258149D01*
X112468054Y-64253272D01*
X112454969Y-64247083D01*
X112442553Y-64239642D01*
X112430927Y-64231019D01*
X112420202Y-64221298D01*
X112410481Y-64210573D01*
X112401858Y-64198947D01*
X112394417Y-64186531D01*
X112388228Y-64173446D01*
X112383351Y-64159817D01*
X112379834Y-64145776D01*
X112377710Y-64131458D01*
X112377000Y-64117000D01*
X112377000Y-63772000D01*
X112377710Y-63757542D01*
X112379834Y-63743224D01*
X112383351Y-63729183D01*
X112388228Y-63715554D01*
X112394417Y-63702469D01*
X112401858Y-63690053D01*
X112410481Y-63678427D01*
X112420202Y-63667702D01*
X112430927Y-63657981D01*
X112442553Y-63649358D01*
X112454969Y-63641917D01*
X112468054Y-63635728D01*
X112481683Y-63630851D01*
X112495724Y-63627334D01*
X112510042Y-63625210D01*
X112524500Y-63624500D01*
X112819500Y-63624500D01*
X112833958Y-63625210D01*
X112833958Y-63625210D01*
G37*
D13*
X112672000Y-63944500D03*
D24*
X114905790Y-68927980D03*
X111946690Y-68927980D03*
X107016550Y-68961000D03*
X104057450Y-68961000D03*
D12*
G36*
X110628691Y-71789053D02*
G01*
X110649926Y-71792203D01*
X110670750Y-71797419D01*
X110690962Y-71804651D01*
X110710368Y-71813830D01*
X110728781Y-71824866D01*
X110746024Y-71837654D01*
X110761930Y-71852070D01*
X110776346Y-71867976D01*
X110789134Y-71885219D01*
X110800170Y-71903632D01*
X110809349Y-71923038D01*
X110816581Y-71943250D01*
X110821797Y-71964074D01*
X110824947Y-71985309D01*
X110826000Y-72006750D01*
X110826000Y-72519250D01*
X110824947Y-72540691D01*
X110821797Y-72561926D01*
X110816581Y-72582750D01*
X110809349Y-72602962D01*
X110800170Y-72622368D01*
X110789134Y-72640781D01*
X110776346Y-72658024D01*
X110761930Y-72673930D01*
X110746024Y-72688346D01*
X110728781Y-72701134D01*
X110710368Y-72712170D01*
X110690962Y-72721349D01*
X110670750Y-72728581D01*
X110649926Y-72733797D01*
X110628691Y-72736947D01*
X110607250Y-72738000D01*
X110169750Y-72738000D01*
X110148309Y-72736947D01*
X110127074Y-72733797D01*
X110106250Y-72728581D01*
X110086038Y-72721349D01*
X110066632Y-72712170D01*
X110048219Y-72701134D01*
X110030976Y-72688346D01*
X110015070Y-72673930D01*
X110000654Y-72658024D01*
X109987866Y-72640781D01*
X109976830Y-72622368D01*
X109967651Y-72602962D01*
X109960419Y-72582750D01*
X109955203Y-72561926D01*
X109952053Y-72540691D01*
X109951000Y-72519250D01*
X109951000Y-72006750D01*
X109952053Y-71985309D01*
X109955203Y-71964074D01*
X109960419Y-71943250D01*
X109967651Y-71923038D01*
X109976830Y-71903632D01*
X109987866Y-71885219D01*
X110000654Y-71867976D01*
X110015070Y-71852070D01*
X110030976Y-71837654D01*
X110048219Y-71824866D01*
X110066632Y-71813830D01*
X110086038Y-71804651D01*
X110106250Y-71797419D01*
X110127074Y-71792203D01*
X110148309Y-71789053D01*
X110169750Y-71788000D01*
X110607250Y-71788000D01*
X110628691Y-71789053D01*
X110628691Y-71789053D01*
G37*
D17*
X110388500Y-72263000D03*
D12*
G36*
X109053691Y-71789053D02*
G01*
X109074926Y-71792203D01*
X109095750Y-71797419D01*
X109115962Y-71804651D01*
X109135368Y-71813830D01*
X109153781Y-71824866D01*
X109171024Y-71837654D01*
X109186930Y-71852070D01*
X109201346Y-71867976D01*
X109214134Y-71885219D01*
X109225170Y-71903632D01*
X109234349Y-71923038D01*
X109241581Y-71943250D01*
X109246797Y-71964074D01*
X109249947Y-71985309D01*
X109251000Y-72006750D01*
X109251000Y-72519250D01*
X109249947Y-72540691D01*
X109246797Y-72561926D01*
X109241581Y-72582750D01*
X109234349Y-72602962D01*
X109225170Y-72622368D01*
X109214134Y-72640781D01*
X109201346Y-72658024D01*
X109186930Y-72673930D01*
X109171024Y-72688346D01*
X109153781Y-72701134D01*
X109135368Y-72712170D01*
X109115962Y-72721349D01*
X109095750Y-72728581D01*
X109074926Y-72733797D01*
X109053691Y-72736947D01*
X109032250Y-72738000D01*
X108594750Y-72738000D01*
X108573309Y-72736947D01*
X108552074Y-72733797D01*
X108531250Y-72728581D01*
X108511038Y-72721349D01*
X108491632Y-72712170D01*
X108473219Y-72701134D01*
X108455976Y-72688346D01*
X108440070Y-72673930D01*
X108425654Y-72658024D01*
X108412866Y-72640781D01*
X108401830Y-72622368D01*
X108392651Y-72602962D01*
X108385419Y-72582750D01*
X108380203Y-72561926D01*
X108377053Y-72540691D01*
X108376000Y-72519250D01*
X108376000Y-72006750D01*
X108377053Y-71985309D01*
X108380203Y-71964074D01*
X108385419Y-71943250D01*
X108392651Y-71923038D01*
X108401830Y-71903632D01*
X108412866Y-71885219D01*
X108425654Y-71867976D01*
X108440070Y-71852070D01*
X108455976Y-71837654D01*
X108473219Y-71824866D01*
X108491632Y-71813830D01*
X108511038Y-71804651D01*
X108531250Y-71797419D01*
X108552074Y-71792203D01*
X108573309Y-71789053D01*
X108594750Y-71788000D01*
X109032250Y-71788000D01*
X109053691Y-71789053D01*
X109053691Y-71789053D01*
G37*
D17*
X108813500Y-72263000D03*
D12*
G36*
X113595958Y-65403210D02*
G01*
X113610276Y-65405334D01*
X113624317Y-65408851D01*
X113637946Y-65413728D01*
X113651031Y-65419917D01*
X113663447Y-65427358D01*
X113675073Y-65435981D01*
X113685798Y-65445702D01*
X113695519Y-65456427D01*
X113704142Y-65468053D01*
X113711583Y-65480469D01*
X113717772Y-65493554D01*
X113722649Y-65507183D01*
X113726166Y-65521224D01*
X113728290Y-65535542D01*
X113729000Y-65550000D01*
X113729000Y-65895000D01*
X113728290Y-65909458D01*
X113726166Y-65923776D01*
X113722649Y-65937817D01*
X113717772Y-65951446D01*
X113711583Y-65964531D01*
X113704142Y-65976947D01*
X113695519Y-65988573D01*
X113685798Y-65999298D01*
X113675073Y-66009019D01*
X113663447Y-66017642D01*
X113651031Y-66025083D01*
X113637946Y-66031272D01*
X113624317Y-66036149D01*
X113610276Y-66039666D01*
X113595958Y-66041790D01*
X113581500Y-66042500D01*
X113286500Y-66042500D01*
X113272042Y-66041790D01*
X113257724Y-66039666D01*
X113243683Y-66036149D01*
X113230054Y-66031272D01*
X113216969Y-66025083D01*
X113204553Y-66017642D01*
X113192927Y-66009019D01*
X113182202Y-65999298D01*
X113172481Y-65988573D01*
X113163858Y-65976947D01*
X113156417Y-65964531D01*
X113150228Y-65951446D01*
X113145351Y-65937817D01*
X113141834Y-65923776D01*
X113139710Y-65909458D01*
X113139000Y-65895000D01*
X113139000Y-65550000D01*
X113139710Y-65535542D01*
X113141834Y-65521224D01*
X113145351Y-65507183D01*
X113150228Y-65493554D01*
X113156417Y-65480469D01*
X113163858Y-65468053D01*
X113172481Y-65456427D01*
X113182202Y-65445702D01*
X113192927Y-65435981D01*
X113204553Y-65427358D01*
X113216969Y-65419917D01*
X113230054Y-65413728D01*
X113243683Y-65408851D01*
X113257724Y-65405334D01*
X113272042Y-65403210D01*
X113286500Y-65402500D01*
X113581500Y-65402500D01*
X113595958Y-65403210D01*
X113595958Y-65403210D01*
G37*
D13*
X113434000Y-65722500D03*
D12*
G36*
X114565958Y-65403210D02*
G01*
X114580276Y-65405334D01*
X114594317Y-65408851D01*
X114607946Y-65413728D01*
X114621031Y-65419917D01*
X114633447Y-65427358D01*
X114645073Y-65435981D01*
X114655798Y-65445702D01*
X114665519Y-65456427D01*
X114674142Y-65468053D01*
X114681583Y-65480469D01*
X114687772Y-65493554D01*
X114692649Y-65507183D01*
X114696166Y-65521224D01*
X114698290Y-65535542D01*
X114699000Y-65550000D01*
X114699000Y-65895000D01*
X114698290Y-65909458D01*
X114696166Y-65923776D01*
X114692649Y-65937817D01*
X114687772Y-65951446D01*
X114681583Y-65964531D01*
X114674142Y-65976947D01*
X114665519Y-65988573D01*
X114655798Y-65999298D01*
X114645073Y-66009019D01*
X114633447Y-66017642D01*
X114621031Y-66025083D01*
X114607946Y-66031272D01*
X114594317Y-66036149D01*
X114580276Y-66039666D01*
X114565958Y-66041790D01*
X114551500Y-66042500D01*
X114256500Y-66042500D01*
X114242042Y-66041790D01*
X114227724Y-66039666D01*
X114213683Y-66036149D01*
X114200054Y-66031272D01*
X114186969Y-66025083D01*
X114174553Y-66017642D01*
X114162927Y-66009019D01*
X114152202Y-65999298D01*
X114142481Y-65988573D01*
X114133858Y-65976947D01*
X114126417Y-65964531D01*
X114120228Y-65951446D01*
X114115351Y-65937817D01*
X114111834Y-65923776D01*
X114109710Y-65909458D01*
X114109000Y-65895000D01*
X114109000Y-65550000D01*
X114109710Y-65535542D01*
X114111834Y-65521224D01*
X114115351Y-65507183D01*
X114120228Y-65493554D01*
X114126417Y-65480469D01*
X114133858Y-65468053D01*
X114142481Y-65456427D01*
X114152202Y-65445702D01*
X114162927Y-65435981D01*
X114174553Y-65427358D01*
X114186969Y-65419917D01*
X114200054Y-65413728D01*
X114213683Y-65408851D01*
X114227724Y-65405334D01*
X114242042Y-65403210D01*
X114256500Y-65402500D01*
X114551500Y-65402500D01*
X114565958Y-65403210D01*
X114565958Y-65403210D01*
G37*
D13*
X114404000Y-65722500D03*
D12*
G36*
X105404458Y-62037710D02*
G01*
X105418776Y-62039834D01*
X105432817Y-62043351D01*
X105446446Y-62048228D01*
X105459531Y-62054417D01*
X105471947Y-62061858D01*
X105483573Y-62070481D01*
X105494298Y-62080202D01*
X105504019Y-62090927D01*
X105512642Y-62102553D01*
X105520083Y-62114969D01*
X105526272Y-62128054D01*
X105531149Y-62141683D01*
X105534666Y-62155724D01*
X105536790Y-62170042D01*
X105537500Y-62184500D01*
X105537500Y-62529500D01*
X105536790Y-62543958D01*
X105534666Y-62558276D01*
X105531149Y-62572317D01*
X105526272Y-62585946D01*
X105520083Y-62599031D01*
X105512642Y-62611447D01*
X105504019Y-62623073D01*
X105494298Y-62633798D01*
X105483573Y-62643519D01*
X105471947Y-62652142D01*
X105459531Y-62659583D01*
X105446446Y-62665772D01*
X105432817Y-62670649D01*
X105418776Y-62674166D01*
X105404458Y-62676290D01*
X105390000Y-62677000D01*
X105095000Y-62677000D01*
X105080542Y-62676290D01*
X105066224Y-62674166D01*
X105052183Y-62670649D01*
X105038554Y-62665772D01*
X105025469Y-62659583D01*
X105013053Y-62652142D01*
X105001427Y-62643519D01*
X104990702Y-62633798D01*
X104980981Y-62623073D01*
X104972358Y-62611447D01*
X104964917Y-62599031D01*
X104958728Y-62585946D01*
X104953851Y-62572317D01*
X104950334Y-62558276D01*
X104948210Y-62543958D01*
X104947500Y-62529500D01*
X104947500Y-62184500D01*
X104948210Y-62170042D01*
X104950334Y-62155724D01*
X104953851Y-62141683D01*
X104958728Y-62128054D01*
X104964917Y-62114969D01*
X104972358Y-62102553D01*
X104980981Y-62090927D01*
X104990702Y-62080202D01*
X105001427Y-62070481D01*
X105013053Y-62061858D01*
X105025469Y-62054417D01*
X105038554Y-62048228D01*
X105052183Y-62043351D01*
X105066224Y-62039834D01*
X105080542Y-62037710D01*
X105095000Y-62037000D01*
X105390000Y-62037000D01*
X105404458Y-62037710D01*
X105404458Y-62037710D01*
G37*
D13*
X105242500Y-62357000D03*
D12*
G36*
X106374458Y-62037710D02*
G01*
X106388776Y-62039834D01*
X106402817Y-62043351D01*
X106416446Y-62048228D01*
X106429531Y-62054417D01*
X106441947Y-62061858D01*
X106453573Y-62070481D01*
X106464298Y-62080202D01*
X106474019Y-62090927D01*
X106482642Y-62102553D01*
X106490083Y-62114969D01*
X106496272Y-62128054D01*
X106501149Y-62141683D01*
X106504666Y-62155724D01*
X106506790Y-62170042D01*
X106507500Y-62184500D01*
X106507500Y-62529500D01*
X106506790Y-62543958D01*
X106504666Y-62558276D01*
X106501149Y-62572317D01*
X106496272Y-62585946D01*
X106490083Y-62599031D01*
X106482642Y-62611447D01*
X106474019Y-62623073D01*
X106464298Y-62633798D01*
X106453573Y-62643519D01*
X106441947Y-62652142D01*
X106429531Y-62659583D01*
X106416446Y-62665772D01*
X106402817Y-62670649D01*
X106388776Y-62674166D01*
X106374458Y-62676290D01*
X106360000Y-62677000D01*
X106065000Y-62677000D01*
X106050542Y-62676290D01*
X106036224Y-62674166D01*
X106022183Y-62670649D01*
X106008554Y-62665772D01*
X105995469Y-62659583D01*
X105983053Y-62652142D01*
X105971427Y-62643519D01*
X105960702Y-62633798D01*
X105950981Y-62623073D01*
X105942358Y-62611447D01*
X105934917Y-62599031D01*
X105928728Y-62585946D01*
X105923851Y-62572317D01*
X105920334Y-62558276D01*
X105918210Y-62543958D01*
X105917500Y-62529500D01*
X105917500Y-62184500D01*
X105918210Y-62170042D01*
X105920334Y-62155724D01*
X105923851Y-62141683D01*
X105928728Y-62128054D01*
X105934917Y-62114969D01*
X105942358Y-62102553D01*
X105950981Y-62090927D01*
X105960702Y-62080202D01*
X105971427Y-62070481D01*
X105983053Y-62061858D01*
X105995469Y-62054417D01*
X106008554Y-62048228D01*
X106022183Y-62043351D01*
X106036224Y-62039834D01*
X106050542Y-62037710D01*
X106065000Y-62037000D01*
X106360000Y-62037000D01*
X106374458Y-62037710D01*
X106374458Y-62037710D01*
G37*
D13*
X106212500Y-62357000D03*
D12*
G36*
X103072458Y-71943710D02*
G01*
X103086776Y-71945834D01*
X103100817Y-71949351D01*
X103114446Y-71954228D01*
X103127531Y-71960417D01*
X103139947Y-71967858D01*
X103151573Y-71976481D01*
X103162298Y-71986202D01*
X103172019Y-71996927D01*
X103180642Y-72008553D01*
X103188083Y-72020969D01*
X103194272Y-72034054D01*
X103199149Y-72047683D01*
X103202666Y-72061724D01*
X103204790Y-72076042D01*
X103205500Y-72090500D01*
X103205500Y-72435500D01*
X103204790Y-72449958D01*
X103202666Y-72464276D01*
X103199149Y-72478317D01*
X103194272Y-72491946D01*
X103188083Y-72505031D01*
X103180642Y-72517447D01*
X103172019Y-72529073D01*
X103162298Y-72539798D01*
X103151573Y-72549519D01*
X103139947Y-72558142D01*
X103127531Y-72565583D01*
X103114446Y-72571772D01*
X103100817Y-72576649D01*
X103086776Y-72580166D01*
X103072458Y-72582290D01*
X103058000Y-72583000D01*
X102763000Y-72583000D01*
X102748542Y-72582290D01*
X102734224Y-72580166D01*
X102720183Y-72576649D01*
X102706554Y-72571772D01*
X102693469Y-72565583D01*
X102681053Y-72558142D01*
X102669427Y-72549519D01*
X102658702Y-72539798D01*
X102648981Y-72529073D01*
X102640358Y-72517447D01*
X102632917Y-72505031D01*
X102626728Y-72491946D01*
X102621851Y-72478317D01*
X102618334Y-72464276D01*
X102616210Y-72449958D01*
X102615500Y-72435500D01*
X102615500Y-72090500D01*
X102616210Y-72076042D01*
X102618334Y-72061724D01*
X102621851Y-72047683D01*
X102626728Y-72034054D01*
X102632917Y-72020969D01*
X102640358Y-72008553D01*
X102648981Y-71996927D01*
X102658702Y-71986202D01*
X102669427Y-71976481D01*
X102681053Y-71967858D01*
X102693469Y-71960417D01*
X102706554Y-71954228D01*
X102720183Y-71949351D01*
X102734224Y-71945834D01*
X102748542Y-71943710D01*
X102763000Y-71943000D01*
X103058000Y-71943000D01*
X103072458Y-71943710D01*
X103072458Y-71943710D01*
G37*
D13*
X102910500Y-72263000D03*
D12*
G36*
X102102458Y-71943710D02*
G01*
X102116776Y-71945834D01*
X102130817Y-71949351D01*
X102144446Y-71954228D01*
X102157531Y-71960417D01*
X102169947Y-71967858D01*
X102181573Y-71976481D01*
X102192298Y-71986202D01*
X102202019Y-71996927D01*
X102210642Y-72008553D01*
X102218083Y-72020969D01*
X102224272Y-72034054D01*
X102229149Y-72047683D01*
X102232666Y-72061724D01*
X102234790Y-72076042D01*
X102235500Y-72090500D01*
X102235500Y-72435500D01*
X102234790Y-72449958D01*
X102232666Y-72464276D01*
X102229149Y-72478317D01*
X102224272Y-72491946D01*
X102218083Y-72505031D01*
X102210642Y-72517447D01*
X102202019Y-72529073D01*
X102192298Y-72539798D01*
X102181573Y-72549519D01*
X102169947Y-72558142D01*
X102157531Y-72565583D01*
X102144446Y-72571772D01*
X102130817Y-72576649D01*
X102116776Y-72580166D01*
X102102458Y-72582290D01*
X102088000Y-72583000D01*
X101793000Y-72583000D01*
X101778542Y-72582290D01*
X101764224Y-72580166D01*
X101750183Y-72576649D01*
X101736554Y-72571772D01*
X101723469Y-72565583D01*
X101711053Y-72558142D01*
X101699427Y-72549519D01*
X101688702Y-72539798D01*
X101678981Y-72529073D01*
X101670358Y-72517447D01*
X101662917Y-72505031D01*
X101656728Y-72491946D01*
X101651851Y-72478317D01*
X101648334Y-72464276D01*
X101646210Y-72449958D01*
X101645500Y-72435500D01*
X101645500Y-72090500D01*
X101646210Y-72076042D01*
X101648334Y-72061724D01*
X101651851Y-72047683D01*
X101656728Y-72034054D01*
X101662917Y-72020969D01*
X101670358Y-72008553D01*
X101678981Y-71996927D01*
X101688702Y-71986202D01*
X101699427Y-71976481D01*
X101711053Y-71967858D01*
X101723469Y-71960417D01*
X101736554Y-71954228D01*
X101750183Y-71949351D01*
X101764224Y-71945834D01*
X101778542Y-71943710D01*
X101793000Y-71943000D01*
X102088000Y-71943000D01*
X102102458Y-71943710D01*
X102102458Y-71943710D01*
G37*
D13*
X101940500Y-72263000D03*
D12*
G36*
X118677958Y-68499210D02*
G01*
X118692276Y-68501334D01*
X118706317Y-68504851D01*
X118719946Y-68509728D01*
X118733031Y-68515917D01*
X118745447Y-68523358D01*
X118757073Y-68531981D01*
X118767798Y-68541702D01*
X118777519Y-68552427D01*
X118786142Y-68564053D01*
X118793583Y-68576469D01*
X118799772Y-68589554D01*
X118804649Y-68603183D01*
X118808166Y-68617224D01*
X118810290Y-68631542D01*
X118811000Y-68646000D01*
X118811000Y-68941000D01*
X118810290Y-68955458D01*
X118808166Y-68969776D01*
X118804649Y-68983817D01*
X118799772Y-68997446D01*
X118793583Y-69010531D01*
X118786142Y-69022947D01*
X118777519Y-69034573D01*
X118767798Y-69045298D01*
X118757073Y-69055019D01*
X118745447Y-69063642D01*
X118733031Y-69071083D01*
X118719946Y-69077272D01*
X118706317Y-69082149D01*
X118692276Y-69085666D01*
X118677958Y-69087790D01*
X118663500Y-69088500D01*
X118318500Y-69088500D01*
X118304042Y-69087790D01*
X118289724Y-69085666D01*
X118275683Y-69082149D01*
X118262054Y-69077272D01*
X118248969Y-69071083D01*
X118236553Y-69063642D01*
X118224927Y-69055019D01*
X118214202Y-69045298D01*
X118204481Y-69034573D01*
X118195858Y-69022947D01*
X118188417Y-69010531D01*
X118182228Y-68997446D01*
X118177351Y-68983817D01*
X118173834Y-68969776D01*
X118171710Y-68955458D01*
X118171000Y-68941000D01*
X118171000Y-68646000D01*
X118171710Y-68631542D01*
X118173834Y-68617224D01*
X118177351Y-68603183D01*
X118182228Y-68589554D01*
X118188417Y-68576469D01*
X118195858Y-68564053D01*
X118204481Y-68552427D01*
X118214202Y-68541702D01*
X118224927Y-68531981D01*
X118236553Y-68523358D01*
X118248969Y-68515917D01*
X118262054Y-68509728D01*
X118275683Y-68504851D01*
X118289724Y-68501334D01*
X118304042Y-68499210D01*
X118318500Y-68498500D01*
X118663500Y-68498500D01*
X118677958Y-68499210D01*
X118677958Y-68499210D01*
G37*
D13*
X118491000Y-68793500D03*
D12*
G36*
X118677958Y-69469210D02*
G01*
X118692276Y-69471334D01*
X118706317Y-69474851D01*
X118719946Y-69479728D01*
X118733031Y-69485917D01*
X118745447Y-69493358D01*
X118757073Y-69501981D01*
X118767798Y-69511702D01*
X118777519Y-69522427D01*
X118786142Y-69534053D01*
X118793583Y-69546469D01*
X118799772Y-69559554D01*
X118804649Y-69573183D01*
X118808166Y-69587224D01*
X118810290Y-69601542D01*
X118811000Y-69616000D01*
X118811000Y-69911000D01*
X118810290Y-69925458D01*
X118808166Y-69939776D01*
X118804649Y-69953817D01*
X118799772Y-69967446D01*
X118793583Y-69980531D01*
X118786142Y-69992947D01*
X118777519Y-70004573D01*
X118767798Y-70015298D01*
X118757073Y-70025019D01*
X118745447Y-70033642D01*
X118733031Y-70041083D01*
X118719946Y-70047272D01*
X118706317Y-70052149D01*
X118692276Y-70055666D01*
X118677958Y-70057790D01*
X118663500Y-70058500D01*
X118318500Y-70058500D01*
X118304042Y-70057790D01*
X118289724Y-70055666D01*
X118275683Y-70052149D01*
X118262054Y-70047272D01*
X118248969Y-70041083D01*
X118236553Y-70033642D01*
X118224927Y-70025019D01*
X118214202Y-70015298D01*
X118204481Y-70004573D01*
X118195858Y-69992947D01*
X118188417Y-69980531D01*
X118182228Y-69967446D01*
X118177351Y-69953817D01*
X118173834Y-69939776D01*
X118171710Y-69925458D01*
X118171000Y-69911000D01*
X118171000Y-69616000D01*
X118171710Y-69601542D01*
X118173834Y-69587224D01*
X118177351Y-69573183D01*
X118182228Y-69559554D01*
X118188417Y-69546469D01*
X118195858Y-69534053D01*
X118204481Y-69522427D01*
X118214202Y-69511702D01*
X118224927Y-69501981D01*
X118236553Y-69493358D01*
X118248969Y-69485917D01*
X118262054Y-69479728D01*
X118275683Y-69474851D01*
X118289724Y-69471334D01*
X118304042Y-69469210D01*
X118318500Y-69468500D01*
X118663500Y-69468500D01*
X118677958Y-69469210D01*
X118677958Y-69469210D01*
G37*
D13*
X118491000Y-69763500D03*
D12*
G36*
X105404458Y-64577710D02*
G01*
X105418776Y-64579834D01*
X105432817Y-64583351D01*
X105446446Y-64588228D01*
X105459531Y-64594417D01*
X105471947Y-64601858D01*
X105483573Y-64610481D01*
X105494298Y-64620202D01*
X105504019Y-64630927D01*
X105512642Y-64642553D01*
X105520083Y-64654969D01*
X105526272Y-64668054D01*
X105531149Y-64681683D01*
X105534666Y-64695724D01*
X105536790Y-64710042D01*
X105537500Y-64724500D01*
X105537500Y-65069500D01*
X105536790Y-65083958D01*
X105534666Y-65098276D01*
X105531149Y-65112317D01*
X105526272Y-65125946D01*
X105520083Y-65139031D01*
X105512642Y-65151447D01*
X105504019Y-65163073D01*
X105494298Y-65173798D01*
X105483573Y-65183519D01*
X105471947Y-65192142D01*
X105459531Y-65199583D01*
X105446446Y-65205772D01*
X105432817Y-65210649D01*
X105418776Y-65214166D01*
X105404458Y-65216290D01*
X105390000Y-65217000D01*
X105095000Y-65217000D01*
X105080542Y-65216290D01*
X105066224Y-65214166D01*
X105052183Y-65210649D01*
X105038554Y-65205772D01*
X105025469Y-65199583D01*
X105013053Y-65192142D01*
X105001427Y-65183519D01*
X104990702Y-65173798D01*
X104980981Y-65163073D01*
X104972358Y-65151447D01*
X104964917Y-65139031D01*
X104958728Y-65125946D01*
X104953851Y-65112317D01*
X104950334Y-65098276D01*
X104948210Y-65083958D01*
X104947500Y-65069500D01*
X104947500Y-64724500D01*
X104948210Y-64710042D01*
X104950334Y-64695724D01*
X104953851Y-64681683D01*
X104958728Y-64668054D01*
X104964917Y-64654969D01*
X104972358Y-64642553D01*
X104980981Y-64630927D01*
X104990702Y-64620202D01*
X105001427Y-64610481D01*
X105013053Y-64601858D01*
X105025469Y-64594417D01*
X105038554Y-64588228D01*
X105052183Y-64583351D01*
X105066224Y-64579834D01*
X105080542Y-64577710D01*
X105095000Y-64577000D01*
X105390000Y-64577000D01*
X105404458Y-64577710D01*
X105404458Y-64577710D01*
G37*
D13*
X105242500Y-64897000D03*
D12*
G36*
X106374458Y-64577710D02*
G01*
X106388776Y-64579834D01*
X106402817Y-64583351D01*
X106416446Y-64588228D01*
X106429531Y-64594417D01*
X106441947Y-64601858D01*
X106453573Y-64610481D01*
X106464298Y-64620202D01*
X106474019Y-64630927D01*
X106482642Y-64642553D01*
X106490083Y-64654969D01*
X106496272Y-64668054D01*
X106501149Y-64681683D01*
X106504666Y-64695724D01*
X106506790Y-64710042D01*
X106507500Y-64724500D01*
X106507500Y-65069500D01*
X106506790Y-65083958D01*
X106504666Y-65098276D01*
X106501149Y-65112317D01*
X106496272Y-65125946D01*
X106490083Y-65139031D01*
X106482642Y-65151447D01*
X106474019Y-65163073D01*
X106464298Y-65173798D01*
X106453573Y-65183519D01*
X106441947Y-65192142D01*
X106429531Y-65199583D01*
X106416446Y-65205772D01*
X106402817Y-65210649D01*
X106388776Y-65214166D01*
X106374458Y-65216290D01*
X106360000Y-65217000D01*
X106065000Y-65217000D01*
X106050542Y-65216290D01*
X106036224Y-65214166D01*
X106022183Y-65210649D01*
X106008554Y-65205772D01*
X105995469Y-65199583D01*
X105983053Y-65192142D01*
X105971427Y-65183519D01*
X105960702Y-65173798D01*
X105950981Y-65163073D01*
X105942358Y-65151447D01*
X105934917Y-65139031D01*
X105928728Y-65125946D01*
X105923851Y-65112317D01*
X105920334Y-65098276D01*
X105918210Y-65083958D01*
X105917500Y-65069500D01*
X105917500Y-64724500D01*
X105918210Y-64710042D01*
X105920334Y-64695724D01*
X105923851Y-64681683D01*
X105928728Y-64668054D01*
X105934917Y-64654969D01*
X105942358Y-64642553D01*
X105950981Y-64630927D01*
X105960702Y-64620202D01*
X105971427Y-64610481D01*
X105983053Y-64601858D01*
X105995469Y-64594417D01*
X106008554Y-64588228D01*
X106022183Y-64583351D01*
X106036224Y-64579834D01*
X106050542Y-64577710D01*
X106065000Y-64577000D01*
X106360000Y-64577000D01*
X106374458Y-64577710D01*
X106374458Y-64577710D01*
G37*
D13*
X106212500Y-64897000D03*
D12*
G36*
X115772458Y-62609210D02*
G01*
X115786776Y-62611334D01*
X115800817Y-62614851D01*
X115814446Y-62619728D01*
X115827531Y-62625917D01*
X115839947Y-62633358D01*
X115851573Y-62641981D01*
X115862298Y-62651702D01*
X115872019Y-62662427D01*
X115880642Y-62674053D01*
X115888083Y-62686469D01*
X115894272Y-62699554D01*
X115899149Y-62713183D01*
X115902666Y-62727224D01*
X115904790Y-62741542D01*
X115905500Y-62756000D01*
X115905500Y-63101000D01*
X115904790Y-63115458D01*
X115902666Y-63129776D01*
X115899149Y-63143817D01*
X115894272Y-63157446D01*
X115888083Y-63170531D01*
X115880642Y-63182947D01*
X115872019Y-63194573D01*
X115862298Y-63205298D01*
X115851573Y-63215019D01*
X115839947Y-63223642D01*
X115827531Y-63231083D01*
X115814446Y-63237272D01*
X115800817Y-63242149D01*
X115786776Y-63245666D01*
X115772458Y-63247790D01*
X115758000Y-63248500D01*
X115463000Y-63248500D01*
X115448542Y-63247790D01*
X115434224Y-63245666D01*
X115420183Y-63242149D01*
X115406554Y-63237272D01*
X115393469Y-63231083D01*
X115381053Y-63223642D01*
X115369427Y-63215019D01*
X115358702Y-63205298D01*
X115348981Y-63194573D01*
X115340358Y-63182947D01*
X115332917Y-63170531D01*
X115326728Y-63157446D01*
X115321851Y-63143817D01*
X115318334Y-63129776D01*
X115316210Y-63115458D01*
X115315500Y-63101000D01*
X115315500Y-62756000D01*
X115316210Y-62741542D01*
X115318334Y-62727224D01*
X115321851Y-62713183D01*
X115326728Y-62699554D01*
X115332917Y-62686469D01*
X115340358Y-62674053D01*
X115348981Y-62662427D01*
X115358702Y-62651702D01*
X115369427Y-62641981D01*
X115381053Y-62633358D01*
X115393469Y-62625917D01*
X115406554Y-62619728D01*
X115420183Y-62614851D01*
X115434224Y-62611334D01*
X115448542Y-62609210D01*
X115463000Y-62608500D01*
X115758000Y-62608500D01*
X115772458Y-62609210D01*
X115772458Y-62609210D01*
G37*
D13*
X115610500Y-62928500D03*
D12*
G36*
X114802458Y-62609210D02*
G01*
X114816776Y-62611334D01*
X114830817Y-62614851D01*
X114844446Y-62619728D01*
X114857531Y-62625917D01*
X114869947Y-62633358D01*
X114881573Y-62641981D01*
X114892298Y-62651702D01*
X114902019Y-62662427D01*
X114910642Y-62674053D01*
X114918083Y-62686469D01*
X114924272Y-62699554D01*
X114929149Y-62713183D01*
X114932666Y-62727224D01*
X114934790Y-62741542D01*
X114935500Y-62756000D01*
X114935500Y-63101000D01*
X114934790Y-63115458D01*
X114932666Y-63129776D01*
X114929149Y-63143817D01*
X114924272Y-63157446D01*
X114918083Y-63170531D01*
X114910642Y-63182947D01*
X114902019Y-63194573D01*
X114892298Y-63205298D01*
X114881573Y-63215019D01*
X114869947Y-63223642D01*
X114857531Y-63231083D01*
X114844446Y-63237272D01*
X114830817Y-63242149D01*
X114816776Y-63245666D01*
X114802458Y-63247790D01*
X114788000Y-63248500D01*
X114493000Y-63248500D01*
X114478542Y-63247790D01*
X114464224Y-63245666D01*
X114450183Y-63242149D01*
X114436554Y-63237272D01*
X114423469Y-63231083D01*
X114411053Y-63223642D01*
X114399427Y-63215019D01*
X114388702Y-63205298D01*
X114378981Y-63194573D01*
X114370358Y-63182947D01*
X114362917Y-63170531D01*
X114356728Y-63157446D01*
X114351851Y-63143817D01*
X114348334Y-63129776D01*
X114346210Y-63115458D01*
X114345500Y-63101000D01*
X114345500Y-62756000D01*
X114346210Y-62741542D01*
X114348334Y-62727224D01*
X114351851Y-62713183D01*
X114356728Y-62699554D01*
X114362917Y-62686469D01*
X114370358Y-62674053D01*
X114378981Y-62662427D01*
X114388702Y-62651702D01*
X114399427Y-62641981D01*
X114411053Y-62633358D01*
X114423469Y-62625917D01*
X114436554Y-62619728D01*
X114450183Y-62614851D01*
X114464224Y-62611334D01*
X114478542Y-62609210D01*
X114493000Y-62608500D01*
X114788000Y-62608500D01*
X114802458Y-62609210D01*
X114802458Y-62609210D01*
G37*
D13*
X114640500Y-62928500D03*
M02*
