%TF.GenerationSoftware,KiCad,Pcbnew,(5.1.4)-1*%
%TF.CreationDate,2019-10-25T20:37:58-07:00*%
%TF.ProjectId,SolarCellZ_v1,536f6c61-7243-4656-9c6c-5a5f76312e6b,rev?*%
%TF.SameCoordinates,Original*%
%TF.FileFunction,Soldermask,Bot*%
%TF.FilePolarity,Negative*%
%FSLAX46Y46*%
G04 Gerber Fmt 4.6, Leading zero omitted, Abs format (unit mm)*
G04 Created by KiCad (PCBNEW (5.1.4)-1) date 2019-10-25 20:37:58*
%MOMM*%
%LPD*%
G04 APERTURE LIST*
%ADD10C,0.050000*%
%ADD11C,0.300000*%
%ADD12C,1.117600*%
%ADD13R,2.311400X0.711200*%
%ADD14C,0.100000*%
%ADD15C,0.691600*%
%ADD16R,1.001600X0.901600*%
%ADD17R,0.901600X0.901600*%
%ADD18R,1.201600X2.101600*%
%ADD19C,0.976600*%
%ADD20R,0.627000X0.827000*%
%ADD21R,2.251600X2.251600*%
%ADD22R,0.401600X1.001600*%
%ADD23R,1.001600X0.401600*%
%ADD24R,1.601600X1.801600*%
%ADD25R,1.201600X0.351600*%
%ADD26R,1.562100X4.521200*%
G04 APERTURE END LIST*
D10*
X99200000Y-52750000D02*
X99200000Y-56250000D01*
X99200000Y-56250000D02*
X107400000Y-56250000D01*
X107400000Y-52750000D02*
X107400000Y-56250000D01*
X99200000Y-52750000D02*
X107400000Y-52750000D01*
X96200000Y-73400000D02*
G75*
G03X96200000Y-73400000I-1100000J0D01*
G01*
X136000000Y-73400000D02*
G75*
G03X136000000Y-73400000I-1100000J0D01*
G01*
X136000000Y-55000000D02*
G75*
G03X136000000Y-55000000I-1100000J0D01*
G01*
X96200000Y-55000000D02*
G75*
G03X96200000Y-55000000I-1100000J0D01*
G01*
X138400000Y-88400000D02*
X90000000Y-88400000D01*
X90000000Y-88400000D02*
X90000000Y-40000000D01*
X138400000Y-40000000D02*
X138400000Y-88400000D01*
X90000000Y-40000000D02*
X138400000Y-40000000D01*
D11*
X254325214Y-145347571D02*
X253968071Y-146347571D01*
X253610928Y-145347571D01*
X252753785Y-144847571D02*
X252610928Y-144847571D01*
X252468071Y-144919000D01*
X252396642Y-144990428D01*
X252325214Y-145133285D01*
X252253785Y-145419000D01*
X252253785Y-145776142D01*
X252325214Y-146061857D01*
X252396642Y-146204714D01*
X252468071Y-146276142D01*
X252610928Y-146347571D01*
X252753785Y-146347571D01*
X252896642Y-146276142D01*
X252968071Y-146204714D01*
X253039500Y-146061857D01*
X253110928Y-145776142D01*
X253110928Y-145419000D01*
X253039500Y-145133285D01*
X252968071Y-144990428D01*
X252896642Y-144919000D01*
X252753785Y-144847571D01*
X251325214Y-144847571D02*
X251182357Y-144847571D01*
X251039500Y-144919000D01*
X250968071Y-144990428D01*
X250896642Y-145133285D01*
X250825214Y-145419000D01*
X250825214Y-145776142D01*
X250896642Y-146061857D01*
X250968071Y-146204714D01*
X251039500Y-146276142D01*
X251182357Y-146347571D01*
X251325214Y-146347571D01*
X251468071Y-146276142D01*
X251539500Y-146204714D01*
X251610928Y-146061857D01*
X251682357Y-145776142D01*
X251682357Y-145419000D01*
X251610928Y-145133285D01*
X251539500Y-144990428D01*
X251468071Y-144919000D01*
X251325214Y-144847571D01*
D12*
X116700000Y-51500000D03*
X117650000Y-51500000D03*
X111700000Y-51500000D03*
X110750000Y-51500000D03*
X118600000Y-51500000D03*
X109800000Y-51500000D03*
D13*
X110604300Y-45339000D03*
X110604300Y-46609000D03*
X110604300Y-47879000D03*
X110604300Y-49149000D03*
X115836700Y-49149000D03*
X115836700Y-47879000D03*
X115836700Y-46609000D03*
X115836700Y-45339000D03*
D14*
G36*
X118515347Y-45017033D02*
G01*
X118532131Y-45019522D01*
X118548590Y-45023645D01*
X118564566Y-45029361D01*
X118579904Y-45036616D01*
X118594458Y-45045339D01*
X118608087Y-45055446D01*
X118620659Y-45066841D01*
X118632054Y-45079413D01*
X118642161Y-45093042D01*
X118650884Y-45107596D01*
X118658139Y-45122934D01*
X118663855Y-45138910D01*
X118667978Y-45155369D01*
X118670467Y-45172153D01*
X118671300Y-45189100D01*
X118671300Y-45534900D01*
X118670467Y-45551847D01*
X118667978Y-45568631D01*
X118663855Y-45585090D01*
X118658139Y-45601066D01*
X118650884Y-45616404D01*
X118642161Y-45630958D01*
X118632054Y-45644587D01*
X118620659Y-45657159D01*
X118608087Y-45668554D01*
X118594458Y-45678661D01*
X118579904Y-45687384D01*
X118564566Y-45694639D01*
X118548590Y-45700355D01*
X118532131Y-45704478D01*
X118515347Y-45706967D01*
X118498400Y-45707800D01*
X118102600Y-45707800D01*
X118085653Y-45706967D01*
X118068869Y-45704478D01*
X118052410Y-45700355D01*
X118036434Y-45694639D01*
X118021096Y-45687384D01*
X118006542Y-45678661D01*
X117992913Y-45668554D01*
X117980341Y-45657159D01*
X117968946Y-45644587D01*
X117958839Y-45630958D01*
X117950116Y-45616404D01*
X117942861Y-45601066D01*
X117937145Y-45585090D01*
X117933022Y-45568631D01*
X117930533Y-45551847D01*
X117929700Y-45534900D01*
X117929700Y-45189100D01*
X117930533Y-45172153D01*
X117933022Y-45155369D01*
X117937145Y-45138910D01*
X117942861Y-45122934D01*
X117950116Y-45107596D01*
X117958839Y-45093042D01*
X117968946Y-45079413D01*
X117980341Y-45066841D01*
X117992913Y-45055446D01*
X118006542Y-45045339D01*
X118021096Y-45036616D01*
X118036434Y-45029361D01*
X118052410Y-45023645D01*
X118068869Y-45019522D01*
X118085653Y-45017033D01*
X118102600Y-45016200D01*
X118498400Y-45016200D01*
X118515347Y-45017033D01*
X118515347Y-45017033D01*
G37*
D15*
X118300500Y-45362000D03*
D14*
G36*
X118515347Y-45987033D02*
G01*
X118532131Y-45989522D01*
X118548590Y-45993645D01*
X118564566Y-45999361D01*
X118579904Y-46006616D01*
X118594458Y-46015339D01*
X118608087Y-46025446D01*
X118620659Y-46036841D01*
X118632054Y-46049413D01*
X118642161Y-46063042D01*
X118650884Y-46077596D01*
X118658139Y-46092934D01*
X118663855Y-46108910D01*
X118667978Y-46125369D01*
X118670467Y-46142153D01*
X118671300Y-46159100D01*
X118671300Y-46504900D01*
X118670467Y-46521847D01*
X118667978Y-46538631D01*
X118663855Y-46555090D01*
X118658139Y-46571066D01*
X118650884Y-46586404D01*
X118642161Y-46600958D01*
X118632054Y-46614587D01*
X118620659Y-46627159D01*
X118608087Y-46638554D01*
X118594458Y-46648661D01*
X118579904Y-46657384D01*
X118564566Y-46664639D01*
X118548590Y-46670355D01*
X118532131Y-46674478D01*
X118515347Y-46676967D01*
X118498400Y-46677800D01*
X118102600Y-46677800D01*
X118085653Y-46676967D01*
X118068869Y-46674478D01*
X118052410Y-46670355D01*
X118036434Y-46664639D01*
X118021096Y-46657384D01*
X118006542Y-46648661D01*
X117992913Y-46638554D01*
X117980341Y-46627159D01*
X117968946Y-46614587D01*
X117958839Y-46600958D01*
X117950116Y-46586404D01*
X117942861Y-46571066D01*
X117937145Y-46555090D01*
X117933022Y-46538631D01*
X117930533Y-46521847D01*
X117929700Y-46504900D01*
X117929700Y-46159100D01*
X117930533Y-46142153D01*
X117933022Y-46125369D01*
X117937145Y-46108910D01*
X117942861Y-46092934D01*
X117950116Y-46077596D01*
X117958839Y-46063042D01*
X117968946Y-46049413D01*
X117980341Y-46036841D01*
X117992913Y-46025446D01*
X118006542Y-46015339D01*
X118021096Y-46006616D01*
X118036434Y-45999361D01*
X118052410Y-45993645D01*
X118068869Y-45989522D01*
X118085653Y-45987033D01*
X118102600Y-45986200D01*
X118498400Y-45986200D01*
X118515347Y-45987033D01*
X118515347Y-45987033D01*
G37*
D15*
X118300500Y-46332000D03*
D14*
G36*
X120483847Y-44953533D02*
G01*
X120500631Y-44956022D01*
X120517090Y-44960145D01*
X120533066Y-44965861D01*
X120548404Y-44973116D01*
X120562958Y-44981839D01*
X120576587Y-44991946D01*
X120589159Y-45003341D01*
X120600554Y-45015913D01*
X120610661Y-45029542D01*
X120619384Y-45044096D01*
X120626639Y-45059434D01*
X120632355Y-45075410D01*
X120636478Y-45091869D01*
X120638967Y-45108653D01*
X120639800Y-45125600D01*
X120639800Y-45471400D01*
X120638967Y-45488347D01*
X120636478Y-45505131D01*
X120632355Y-45521590D01*
X120626639Y-45537566D01*
X120619384Y-45552904D01*
X120610661Y-45567458D01*
X120600554Y-45581087D01*
X120589159Y-45593659D01*
X120576587Y-45605054D01*
X120562958Y-45615161D01*
X120548404Y-45623884D01*
X120533066Y-45631139D01*
X120517090Y-45636855D01*
X120500631Y-45640978D01*
X120483847Y-45643467D01*
X120466900Y-45644300D01*
X120071100Y-45644300D01*
X120054153Y-45643467D01*
X120037369Y-45640978D01*
X120020910Y-45636855D01*
X120004934Y-45631139D01*
X119989596Y-45623884D01*
X119975042Y-45615161D01*
X119961413Y-45605054D01*
X119948841Y-45593659D01*
X119937446Y-45581087D01*
X119927339Y-45567458D01*
X119918616Y-45552904D01*
X119911361Y-45537566D01*
X119905645Y-45521590D01*
X119901522Y-45505131D01*
X119899033Y-45488347D01*
X119898200Y-45471400D01*
X119898200Y-45125600D01*
X119899033Y-45108653D01*
X119901522Y-45091869D01*
X119905645Y-45075410D01*
X119911361Y-45059434D01*
X119918616Y-45044096D01*
X119927339Y-45029542D01*
X119937446Y-45015913D01*
X119948841Y-45003341D01*
X119961413Y-44991946D01*
X119975042Y-44981839D01*
X119989596Y-44973116D01*
X120004934Y-44965861D01*
X120020910Y-44960145D01*
X120037369Y-44956022D01*
X120054153Y-44953533D01*
X120071100Y-44952700D01*
X120466900Y-44952700D01*
X120483847Y-44953533D01*
X120483847Y-44953533D01*
G37*
D15*
X120269000Y-45298500D03*
D14*
G36*
X120483847Y-45923533D02*
G01*
X120500631Y-45926022D01*
X120517090Y-45930145D01*
X120533066Y-45935861D01*
X120548404Y-45943116D01*
X120562958Y-45951839D01*
X120576587Y-45961946D01*
X120589159Y-45973341D01*
X120600554Y-45985913D01*
X120610661Y-45999542D01*
X120619384Y-46014096D01*
X120626639Y-46029434D01*
X120632355Y-46045410D01*
X120636478Y-46061869D01*
X120638967Y-46078653D01*
X120639800Y-46095600D01*
X120639800Y-46441400D01*
X120638967Y-46458347D01*
X120636478Y-46475131D01*
X120632355Y-46491590D01*
X120626639Y-46507566D01*
X120619384Y-46522904D01*
X120610661Y-46537458D01*
X120600554Y-46551087D01*
X120589159Y-46563659D01*
X120576587Y-46575054D01*
X120562958Y-46585161D01*
X120548404Y-46593884D01*
X120533066Y-46601139D01*
X120517090Y-46606855D01*
X120500631Y-46610978D01*
X120483847Y-46613467D01*
X120466900Y-46614300D01*
X120071100Y-46614300D01*
X120054153Y-46613467D01*
X120037369Y-46610978D01*
X120020910Y-46606855D01*
X120004934Y-46601139D01*
X119989596Y-46593884D01*
X119975042Y-46585161D01*
X119961413Y-46575054D01*
X119948841Y-46563659D01*
X119937446Y-46551087D01*
X119927339Y-46537458D01*
X119918616Y-46522904D01*
X119911361Y-46507566D01*
X119905645Y-46491590D01*
X119901522Y-46475131D01*
X119899033Y-46458347D01*
X119898200Y-46441400D01*
X119898200Y-46095600D01*
X119899033Y-46078653D01*
X119901522Y-46061869D01*
X119905645Y-46045410D01*
X119911361Y-46029434D01*
X119918616Y-46014096D01*
X119927339Y-45999542D01*
X119937446Y-45985913D01*
X119948841Y-45973341D01*
X119961413Y-45961946D01*
X119975042Y-45951839D01*
X119989596Y-45943116D01*
X120004934Y-45935861D01*
X120020910Y-45930145D01*
X120037369Y-45926022D01*
X120054153Y-45923533D01*
X120071100Y-45922700D01*
X120466900Y-45922700D01*
X120483847Y-45923533D01*
X120483847Y-45923533D01*
G37*
D15*
X120269000Y-46268500D03*
D14*
G36*
X122134847Y-48400033D02*
G01*
X122151631Y-48402522D01*
X122168090Y-48406645D01*
X122184066Y-48412361D01*
X122199404Y-48419616D01*
X122213958Y-48428339D01*
X122227587Y-48438446D01*
X122240159Y-48449841D01*
X122251554Y-48462413D01*
X122261661Y-48476042D01*
X122270384Y-48490596D01*
X122277639Y-48505934D01*
X122283355Y-48521910D01*
X122287478Y-48538369D01*
X122289967Y-48555153D01*
X122290800Y-48572100D01*
X122290800Y-48917900D01*
X122289967Y-48934847D01*
X122287478Y-48951631D01*
X122283355Y-48968090D01*
X122277639Y-48984066D01*
X122270384Y-48999404D01*
X122261661Y-49013958D01*
X122251554Y-49027587D01*
X122240159Y-49040159D01*
X122227587Y-49051554D01*
X122213958Y-49061661D01*
X122199404Y-49070384D01*
X122184066Y-49077639D01*
X122168090Y-49083355D01*
X122151631Y-49087478D01*
X122134847Y-49089967D01*
X122117900Y-49090800D01*
X121722100Y-49090800D01*
X121705153Y-49089967D01*
X121688369Y-49087478D01*
X121671910Y-49083355D01*
X121655934Y-49077639D01*
X121640596Y-49070384D01*
X121626042Y-49061661D01*
X121612413Y-49051554D01*
X121599841Y-49040159D01*
X121588446Y-49027587D01*
X121578339Y-49013958D01*
X121569616Y-48999404D01*
X121562361Y-48984066D01*
X121556645Y-48968090D01*
X121552522Y-48951631D01*
X121550033Y-48934847D01*
X121549200Y-48917900D01*
X121549200Y-48572100D01*
X121550033Y-48555153D01*
X121552522Y-48538369D01*
X121556645Y-48521910D01*
X121562361Y-48505934D01*
X121569616Y-48490596D01*
X121578339Y-48476042D01*
X121588446Y-48462413D01*
X121599841Y-48449841D01*
X121612413Y-48438446D01*
X121626042Y-48428339D01*
X121640596Y-48419616D01*
X121655934Y-48412361D01*
X121671910Y-48406645D01*
X121688369Y-48402522D01*
X121705153Y-48400033D01*
X121722100Y-48399200D01*
X122117900Y-48399200D01*
X122134847Y-48400033D01*
X122134847Y-48400033D01*
G37*
D15*
X121920000Y-48745000D03*
D14*
G36*
X122134847Y-47430033D02*
G01*
X122151631Y-47432522D01*
X122168090Y-47436645D01*
X122184066Y-47442361D01*
X122199404Y-47449616D01*
X122213958Y-47458339D01*
X122227587Y-47468446D01*
X122240159Y-47479841D01*
X122251554Y-47492413D01*
X122261661Y-47506042D01*
X122270384Y-47520596D01*
X122277639Y-47535934D01*
X122283355Y-47551910D01*
X122287478Y-47568369D01*
X122289967Y-47585153D01*
X122290800Y-47602100D01*
X122290800Y-47947900D01*
X122289967Y-47964847D01*
X122287478Y-47981631D01*
X122283355Y-47998090D01*
X122277639Y-48014066D01*
X122270384Y-48029404D01*
X122261661Y-48043958D01*
X122251554Y-48057587D01*
X122240159Y-48070159D01*
X122227587Y-48081554D01*
X122213958Y-48091661D01*
X122199404Y-48100384D01*
X122184066Y-48107639D01*
X122168090Y-48113355D01*
X122151631Y-48117478D01*
X122134847Y-48119967D01*
X122117900Y-48120800D01*
X121722100Y-48120800D01*
X121705153Y-48119967D01*
X121688369Y-48117478D01*
X121671910Y-48113355D01*
X121655934Y-48107639D01*
X121640596Y-48100384D01*
X121626042Y-48091661D01*
X121612413Y-48081554D01*
X121599841Y-48070159D01*
X121588446Y-48057587D01*
X121578339Y-48043958D01*
X121569616Y-48029404D01*
X121562361Y-48014066D01*
X121556645Y-47998090D01*
X121552522Y-47981631D01*
X121550033Y-47964847D01*
X121549200Y-47947900D01*
X121549200Y-47602100D01*
X121550033Y-47585153D01*
X121552522Y-47568369D01*
X121556645Y-47551910D01*
X121562361Y-47535934D01*
X121569616Y-47520596D01*
X121578339Y-47506042D01*
X121588446Y-47492413D01*
X121599841Y-47479841D01*
X121612413Y-47468446D01*
X121626042Y-47458339D01*
X121640596Y-47449616D01*
X121655934Y-47442361D01*
X121671910Y-47436645D01*
X121688369Y-47432522D01*
X121705153Y-47430033D01*
X121722100Y-47429200D01*
X122117900Y-47429200D01*
X122134847Y-47430033D01*
X122134847Y-47430033D01*
G37*
D15*
X121920000Y-47775000D03*
D16*
X118316500Y-48831500D03*
X120316500Y-49781500D03*
X120316500Y-47881500D03*
D17*
X102235000Y-68219000D03*
D18*
X102235000Y-70119000D03*
D14*
G36*
X123531847Y-69037533D02*
G01*
X123548631Y-69040022D01*
X123565090Y-69044145D01*
X123581066Y-69049861D01*
X123596404Y-69057116D01*
X123610958Y-69065839D01*
X123624587Y-69075946D01*
X123637159Y-69087341D01*
X123648554Y-69099913D01*
X123658661Y-69113542D01*
X123667384Y-69128096D01*
X123674639Y-69143434D01*
X123680355Y-69159410D01*
X123684478Y-69175869D01*
X123686967Y-69192653D01*
X123687800Y-69209600D01*
X123687800Y-69555400D01*
X123686967Y-69572347D01*
X123684478Y-69589131D01*
X123680355Y-69605590D01*
X123674639Y-69621566D01*
X123667384Y-69636904D01*
X123658661Y-69651458D01*
X123648554Y-69665087D01*
X123637159Y-69677659D01*
X123624587Y-69689054D01*
X123610958Y-69699161D01*
X123596404Y-69707884D01*
X123581066Y-69715139D01*
X123565090Y-69720855D01*
X123548631Y-69724978D01*
X123531847Y-69727467D01*
X123514900Y-69728300D01*
X123119100Y-69728300D01*
X123102153Y-69727467D01*
X123085369Y-69724978D01*
X123068910Y-69720855D01*
X123052934Y-69715139D01*
X123037596Y-69707884D01*
X123023042Y-69699161D01*
X123009413Y-69689054D01*
X122996841Y-69677659D01*
X122985446Y-69665087D01*
X122975339Y-69651458D01*
X122966616Y-69636904D01*
X122959361Y-69621566D01*
X122953645Y-69605590D01*
X122949522Y-69589131D01*
X122947033Y-69572347D01*
X122946200Y-69555400D01*
X122946200Y-69209600D01*
X122947033Y-69192653D01*
X122949522Y-69175869D01*
X122953645Y-69159410D01*
X122959361Y-69143434D01*
X122966616Y-69128096D01*
X122975339Y-69113542D01*
X122985446Y-69099913D01*
X122996841Y-69087341D01*
X123009413Y-69075946D01*
X123023042Y-69065839D01*
X123037596Y-69057116D01*
X123052934Y-69049861D01*
X123068910Y-69044145D01*
X123085369Y-69040022D01*
X123102153Y-69037533D01*
X123119100Y-69036700D01*
X123514900Y-69036700D01*
X123531847Y-69037533D01*
X123531847Y-69037533D01*
G37*
D15*
X123317000Y-69382500D03*
D14*
G36*
X123531847Y-68067533D02*
G01*
X123548631Y-68070022D01*
X123565090Y-68074145D01*
X123581066Y-68079861D01*
X123596404Y-68087116D01*
X123610958Y-68095839D01*
X123624587Y-68105946D01*
X123637159Y-68117341D01*
X123648554Y-68129913D01*
X123658661Y-68143542D01*
X123667384Y-68158096D01*
X123674639Y-68173434D01*
X123680355Y-68189410D01*
X123684478Y-68205869D01*
X123686967Y-68222653D01*
X123687800Y-68239600D01*
X123687800Y-68585400D01*
X123686967Y-68602347D01*
X123684478Y-68619131D01*
X123680355Y-68635590D01*
X123674639Y-68651566D01*
X123667384Y-68666904D01*
X123658661Y-68681458D01*
X123648554Y-68695087D01*
X123637159Y-68707659D01*
X123624587Y-68719054D01*
X123610958Y-68729161D01*
X123596404Y-68737884D01*
X123581066Y-68745139D01*
X123565090Y-68750855D01*
X123548631Y-68754978D01*
X123531847Y-68757467D01*
X123514900Y-68758300D01*
X123119100Y-68758300D01*
X123102153Y-68757467D01*
X123085369Y-68754978D01*
X123068910Y-68750855D01*
X123052934Y-68745139D01*
X123037596Y-68737884D01*
X123023042Y-68729161D01*
X123009413Y-68719054D01*
X122996841Y-68707659D01*
X122985446Y-68695087D01*
X122975339Y-68681458D01*
X122966616Y-68666904D01*
X122959361Y-68651566D01*
X122953645Y-68635590D01*
X122949522Y-68619131D01*
X122947033Y-68602347D01*
X122946200Y-68585400D01*
X122946200Y-68239600D01*
X122947033Y-68222653D01*
X122949522Y-68205869D01*
X122953645Y-68189410D01*
X122959361Y-68173434D01*
X122966616Y-68158096D01*
X122975339Y-68143542D01*
X122985446Y-68129913D01*
X122996841Y-68117341D01*
X123009413Y-68105946D01*
X123023042Y-68095839D01*
X123037596Y-68087116D01*
X123052934Y-68079861D01*
X123068910Y-68074145D01*
X123085369Y-68070022D01*
X123102153Y-68067533D01*
X123119100Y-68066700D01*
X123514900Y-68066700D01*
X123531847Y-68067533D01*
X123531847Y-68067533D01*
G37*
D15*
X123317000Y-68412500D03*
D14*
G36*
X115304081Y-61260376D02*
G01*
X115327781Y-61263891D01*
X115351023Y-61269713D01*
X115373582Y-61277785D01*
X115395242Y-61288029D01*
X115415792Y-61300347D01*
X115435037Y-61314619D01*
X115452790Y-61330710D01*
X115468881Y-61348463D01*
X115483153Y-61367708D01*
X115495471Y-61388258D01*
X115505715Y-61409918D01*
X115513787Y-61432477D01*
X115519609Y-61455719D01*
X115523124Y-61479419D01*
X115524300Y-61503350D01*
X115524300Y-61991650D01*
X115523124Y-62015581D01*
X115519609Y-62039281D01*
X115513787Y-62062523D01*
X115505715Y-62085082D01*
X115495471Y-62106742D01*
X115483153Y-62127292D01*
X115468881Y-62146537D01*
X115452790Y-62164290D01*
X115435037Y-62180381D01*
X115415792Y-62194653D01*
X115395242Y-62206971D01*
X115373582Y-62217215D01*
X115351023Y-62225287D01*
X115327781Y-62231109D01*
X115304081Y-62234624D01*
X115280150Y-62235800D01*
X114716850Y-62235800D01*
X114692919Y-62234624D01*
X114669219Y-62231109D01*
X114645977Y-62225287D01*
X114623418Y-62217215D01*
X114601758Y-62206971D01*
X114581208Y-62194653D01*
X114561963Y-62180381D01*
X114544210Y-62164290D01*
X114528119Y-62146537D01*
X114513847Y-62127292D01*
X114501529Y-62106742D01*
X114491285Y-62085082D01*
X114483213Y-62062523D01*
X114477391Y-62039281D01*
X114473876Y-62015581D01*
X114472700Y-61991650D01*
X114472700Y-61503350D01*
X114473876Y-61479419D01*
X114477391Y-61455719D01*
X114483213Y-61432477D01*
X114491285Y-61409918D01*
X114501529Y-61388258D01*
X114513847Y-61367708D01*
X114528119Y-61348463D01*
X114544210Y-61330710D01*
X114561963Y-61314619D01*
X114581208Y-61300347D01*
X114601758Y-61288029D01*
X114623418Y-61277785D01*
X114645977Y-61269713D01*
X114669219Y-61263891D01*
X114692919Y-61260376D01*
X114716850Y-61259200D01*
X115280150Y-61259200D01*
X115304081Y-61260376D01*
X115304081Y-61260376D01*
G37*
D19*
X114998500Y-61747500D03*
D14*
G36*
X115304081Y-59685376D02*
G01*
X115327781Y-59688891D01*
X115351023Y-59694713D01*
X115373582Y-59702785D01*
X115395242Y-59713029D01*
X115415792Y-59725347D01*
X115435037Y-59739619D01*
X115452790Y-59755710D01*
X115468881Y-59773463D01*
X115483153Y-59792708D01*
X115495471Y-59813258D01*
X115505715Y-59834918D01*
X115513787Y-59857477D01*
X115519609Y-59880719D01*
X115523124Y-59904419D01*
X115524300Y-59928350D01*
X115524300Y-60416650D01*
X115523124Y-60440581D01*
X115519609Y-60464281D01*
X115513787Y-60487523D01*
X115505715Y-60510082D01*
X115495471Y-60531742D01*
X115483153Y-60552292D01*
X115468881Y-60571537D01*
X115452790Y-60589290D01*
X115435037Y-60605381D01*
X115415792Y-60619653D01*
X115395242Y-60631971D01*
X115373582Y-60642215D01*
X115351023Y-60650287D01*
X115327781Y-60656109D01*
X115304081Y-60659624D01*
X115280150Y-60660800D01*
X114716850Y-60660800D01*
X114692919Y-60659624D01*
X114669219Y-60656109D01*
X114645977Y-60650287D01*
X114623418Y-60642215D01*
X114601758Y-60631971D01*
X114581208Y-60619653D01*
X114561963Y-60605381D01*
X114544210Y-60589290D01*
X114528119Y-60571537D01*
X114513847Y-60552292D01*
X114501529Y-60531742D01*
X114491285Y-60510082D01*
X114483213Y-60487523D01*
X114477391Y-60464281D01*
X114473876Y-60440581D01*
X114472700Y-60416650D01*
X114472700Y-59928350D01*
X114473876Y-59904419D01*
X114477391Y-59880719D01*
X114483213Y-59857477D01*
X114491285Y-59834918D01*
X114501529Y-59813258D01*
X114513847Y-59792708D01*
X114528119Y-59773463D01*
X114544210Y-59755710D01*
X114561963Y-59739619D01*
X114581208Y-59725347D01*
X114601758Y-59713029D01*
X114623418Y-59702785D01*
X114645977Y-59694713D01*
X114669219Y-59688891D01*
X114692919Y-59685376D01*
X114716850Y-59684200D01*
X115280150Y-59684200D01*
X115304081Y-59685376D01*
X115304081Y-59685376D01*
G37*
D19*
X114998500Y-60172500D03*
D14*
G36*
X110319007Y-70332689D02*
G01*
X110335791Y-70335178D01*
X110352250Y-70339301D01*
X110368226Y-70345017D01*
X110383564Y-70352272D01*
X110398118Y-70360995D01*
X110411747Y-70371102D01*
X110424319Y-70382497D01*
X110435714Y-70395069D01*
X110445821Y-70408698D01*
X110454544Y-70423252D01*
X110461799Y-70438590D01*
X110467515Y-70454566D01*
X110471638Y-70471025D01*
X110474127Y-70487809D01*
X110474960Y-70504756D01*
X110474960Y-70900556D01*
X110474127Y-70917503D01*
X110471638Y-70934287D01*
X110467515Y-70950746D01*
X110461799Y-70966722D01*
X110454544Y-70982060D01*
X110445821Y-70996614D01*
X110435714Y-71010243D01*
X110424319Y-71022815D01*
X110411747Y-71034210D01*
X110398118Y-71044317D01*
X110383564Y-71053040D01*
X110368226Y-71060295D01*
X110352250Y-71066011D01*
X110335791Y-71070134D01*
X110319007Y-71072623D01*
X110302060Y-71073456D01*
X109956260Y-71073456D01*
X109939313Y-71072623D01*
X109922529Y-71070134D01*
X109906070Y-71066011D01*
X109890094Y-71060295D01*
X109874756Y-71053040D01*
X109860202Y-71044317D01*
X109846573Y-71034210D01*
X109834001Y-71022815D01*
X109822606Y-71010243D01*
X109812499Y-70996614D01*
X109803776Y-70982060D01*
X109796521Y-70966722D01*
X109790805Y-70950746D01*
X109786682Y-70934287D01*
X109784193Y-70917503D01*
X109783360Y-70900556D01*
X109783360Y-70504756D01*
X109784193Y-70487809D01*
X109786682Y-70471025D01*
X109790805Y-70454566D01*
X109796521Y-70438590D01*
X109803776Y-70423252D01*
X109812499Y-70408698D01*
X109822606Y-70395069D01*
X109834001Y-70382497D01*
X109846573Y-70371102D01*
X109860202Y-70360995D01*
X109874756Y-70352272D01*
X109890094Y-70345017D01*
X109906070Y-70339301D01*
X109922529Y-70335178D01*
X109939313Y-70332689D01*
X109956260Y-70331856D01*
X110302060Y-70331856D01*
X110319007Y-70332689D01*
X110319007Y-70332689D01*
G37*
D15*
X110129160Y-70702656D03*
D14*
G36*
X109349007Y-70332689D02*
G01*
X109365791Y-70335178D01*
X109382250Y-70339301D01*
X109398226Y-70345017D01*
X109413564Y-70352272D01*
X109428118Y-70360995D01*
X109441747Y-70371102D01*
X109454319Y-70382497D01*
X109465714Y-70395069D01*
X109475821Y-70408698D01*
X109484544Y-70423252D01*
X109491799Y-70438590D01*
X109497515Y-70454566D01*
X109501638Y-70471025D01*
X109504127Y-70487809D01*
X109504960Y-70504756D01*
X109504960Y-70900556D01*
X109504127Y-70917503D01*
X109501638Y-70934287D01*
X109497515Y-70950746D01*
X109491799Y-70966722D01*
X109484544Y-70982060D01*
X109475821Y-70996614D01*
X109465714Y-71010243D01*
X109454319Y-71022815D01*
X109441747Y-71034210D01*
X109428118Y-71044317D01*
X109413564Y-71053040D01*
X109398226Y-71060295D01*
X109382250Y-71066011D01*
X109365791Y-71070134D01*
X109349007Y-71072623D01*
X109332060Y-71073456D01*
X108986260Y-71073456D01*
X108969313Y-71072623D01*
X108952529Y-71070134D01*
X108936070Y-71066011D01*
X108920094Y-71060295D01*
X108904756Y-71053040D01*
X108890202Y-71044317D01*
X108876573Y-71034210D01*
X108864001Y-71022815D01*
X108852606Y-71010243D01*
X108842499Y-70996614D01*
X108833776Y-70982060D01*
X108826521Y-70966722D01*
X108820805Y-70950746D01*
X108816682Y-70934287D01*
X108814193Y-70917503D01*
X108813360Y-70900556D01*
X108813360Y-70504756D01*
X108814193Y-70487809D01*
X108816682Y-70471025D01*
X108820805Y-70454566D01*
X108826521Y-70438590D01*
X108833776Y-70423252D01*
X108842499Y-70408698D01*
X108852606Y-70395069D01*
X108864001Y-70382497D01*
X108876573Y-70371102D01*
X108890202Y-70360995D01*
X108904756Y-70352272D01*
X108920094Y-70345017D01*
X108936070Y-70339301D01*
X108952529Y-70335178D01*
X108969313Y-70332689D01*
X108986260Y-70331856D01*
X109332060Y-70331856D01*
X109349007Y-70332689D01*
X109349007Y-70332689D01*
G37*
D15*
X109159160Y-70702656D03*
D14*
G36*
X121959581Y-66785376D02*
G01*
X121983281Y-66788891D01*
X122006523Y-66794713D01*
X122029082Y-66802785D01*
X122050742Y-66813029D01*
X122071292Y-66825347D01*
X122090537Y-66839619D01*
X122108290Y-66855710D01*
X122124381Y-66873463D01*
X122138653Y-66892708D01*
X122150971Y-66913258D01*
X122161215Y-66934918D01*
X122169287Y-66957477D01*
X122175109Y-66980719D01*
X122178624Y-67004419D01*
X122179800Y-67028350D01*
X122179800Y-67591650D01*
X122178624Y-67615581D01*
X122175109Y-67639281D01*
X122169287Y-67662523D01*
X122161215Y-67685082D01*
X122150971Y-67706742D01*
X122138653Y-67727292D01*
X122124381Y-67746537D01*
X122108290Y-67764290D01*
X122090537Y-67780381D01*
X122071292Y-67794653D01*
X122050742Y-67806971D01*
X122029082Y-67817215D01*
X122006523Y-67825287D01*
X121983281Y-67831109D01*
X121959581Y-67834624D01*
X121935650Y-67835800D01*
X121447350Y-67835800D01*
X121423419Y-67834624D01*
X121399719Y-67831109D01*
X121376477Y-67825287D01*
X121353918Y-67817215D01*
X121332258Y-67806971D01*
X121311708Y-67794653D01*
X121292463Y-67780381D01*
X121274710Y-67764290D01*
X121258619Y-67746537D01*
X121244347Y-67727292D01*
X121232029Y-67706742D01*
X121221785Y-67685082D01*
X121213713Y-67662523D01*
X121207891Y-67639281D01*
X121204376Y-67615581D01*
X121203200Y-67591650D01*
X121203200Y-67028350D01*
X121204376Y-67004419D01*
X121207891Y-66980719D01*
X121213713Y-66957477D01*
X121221785Y-66934918D01*
X121232029Y-66913258D01*
X121244347Y-66892708D01*
X121258619Y-66873463D01*
X121274710Y-66855710D01*
X121292463Y-66839619D01*
X121311708Y-66825347D01*
X121332258Y-66813029D01*
X121353918Y-66802785D01*
X121376477Y-66794713D01*
X121399719Y-66788891D01*
X121423419Y-66785376D01*
X121447350Y-66784200D01*
X121935650Y-66784200D01*
X121959581Y-66785376D01*
X121959581Y-66785376D01*
G37*
D19*
X121691500Y-67310000D03*
D14*
G36*
X120384581Y-66785376D02*
G01*
X120408281Y-66788891D01*
X120431523Y-66794713D01*
X120454082Y-66802785D01*
X120475742Y-66813029D01*
X120496292Y-66825347D01*
X120515537Y-66839619D01*
X120533290Y-66855710D01*
X120549381Y-66873463D01*
X120563653Y-66892708D01*
X120575971Y-66913258D01*
X120586215Y-66934918D01*
X120594287Y-66957477D01*
X120600109Y-66980719D01*
X120603624Y-67004419D01*
X120604800Y-67028350D01*
X120604800Y-67591650D01*
X120603624Y-67615581D01*
X120600109Y-67639281D01*
X120594287Y-67662523D01*
X120586215Y-67685082D01*
X120575971Y-67706742D01*
X120563653Y-67727292D01*
X120549381Y-67746537D01*
X120533290Y-67764290D01*
X120515537Y-67780381D01*
X120496292Y-67794653D01*
X120475742Y-67806971D01*
X120454082Y-67817215D01*
X120431523Y-67825287D01*
X120408281Y-67831109D01*
X120384581Y-67834624D01*
X120360650Y-67835800D01*
X119872350Y-67835800D01*
X119848419Y-67834624D01*
X119824719Y-67831109D01*
X119801477Y-67825287D01*
X119778918Y-67817215D01*
X119757258Y-67806971D01*
X119736708Y-67794653D01*
X119717463Y-67780381D01*
X119699710Y-67764290D01*
X119683619Y-67746537D01*
X119669347Y-67727292D01*
X119657029Y-67706742D01*
X119646785Y-67685082D01*
X119638713Y-67662523D01*
X119632891Y-67639281D01*
X119629376Y-67615581D01*
X119628200Y-67591650D01*
X119628200Y-67028350D01*
X119629376Y-67004419D01*
X119632891Y-66980719D01*
X119638713Y-66957477D01*
X119646785Y-66934918D01*
X119657029Y-66913258D01*
X119669347Y-66892708D01*
X119683619Y-66873463D01*
X119699710Y-66855710D01*
X119717463Y-66839619D01*
X119736708Y-66825347D01*
X119757258Y-66813029D01*
X119778918Y-66802785D01*
X119801477Y-66794713D01*
X119824719Y-66788891D01*
X119848419Y-66785376D01*
X119872350Y-66784200D01*
X120360650Y-66784200D01*
X120384581Y-66785376D01*
X120384581Y-66785376D01*
G37*
D19*
X120116500Y-67310000D03*
D20*
X103949500Y-64770000D03*
X103949500Y-63470000D03*
D21*
X109624160Y-64098656D03*
D22*
X108624160Y-65798656D03*
X109124160Y-65798656D03*
X109624160Y-65798656D03*
X110124160Y-65798656D03*
X110624160Y-65798656D03*
D23*
X111324160Y-65098656D03*
X111324160Y-64598656D03*
X111324160Y-64098656D03*
X111324160Y-63598656D03*
X111324160Y-63098656D03*
D22*
X110624160Y-62398656D03*
X110124160Y-62398656D03*
X109624160Y-62398656D03*
X109124160Y-62398656D03*
X108624160Y-62398656D03*
D23*
X107924160Y-63098656D03*
X107924160Y-63598656D03*
X107924160Y-64098656D03*
X107924160Y-64598656D03*
X107924160Y-65098656D03*
D17*
X116840000Y-69703000D03*
D18*
X116840000Y-67803000D03*
D14*
G36*
X106910347Y-60018533D02*
G01*
X106927131Y-60021022D01*
X106943590Y-60025145D01*
X106959566Y-60030861D01*
X106974904Y-60038116D01*
X106989458Y-60046839D01*
X107003087Y-60056946D01*
X107015659Y-60068341D01*
X107027054Y-60080913D01*
X107037161Y-60094542D01*
X107045884Y-60109096D01*
X107053139Y-60124434D01*
X107058855Y-60140410D01*
X107062978Y-60156869D01*
X107065467Y-60173653D01*
X107066300Y-60190600D01*
X107066300Y-60586400D01*
X107065467Y-60603347D01*
X107062978Y-60620131D01*
X107058855Y-60636590D01*
X107053139Y-60652566D01*
X107045884Y-60667904D01*
X107037161Y-60682458D01*
X107027054Y-60696087D01*
X107015659Y-60708659D01*
X107003087Y-60720054D01*
X106989458Y-60730161D01*
X106974904Y-60738884D01*
X106959566Y-60746139D01*
X106943590Y-60751855D01*
X106927131Y-60755978D01*
X106910347Y-60758467D01*
X106893400Y-60759300D01*
X106547600Y-60759300D01*
X106530653Y-60758467D01*
X106513869Y-60755978D01*
X106497410Y-60751855D01*
X106481434Y-60746139D01*
X106466096Y-60738884D01*
X106451542Y-60730161D01*
X106437913Y-60720054D01*
X106425341Y-60708659D01*
X106413946Y-60696087D01*
X106403839Y-60682458D01*
X106395116Y-60667904D01*
X106387861Y-60652566D01*
X106382145Y-60636590D01*
X106378022Y-60620131D01*
X106375533Y-60603347D01*
X106374700Y-60586400D01*
X106374700Y-60190600D01*
X106375533Y-60173653D01*
X106378022Y-60156869D01*
X106382145Y-60140410D01*
X106387861Y-60124434D01*
X106395116Y-60109096D01*
X106403839Y-60094542D01*
X106413946Y-60080913D01*
X106425341Y-60068341D01*
X106437913Y-60056946D01*
X106451542Y-60046839D01*
X106466096Y-60038116D01*
X106481434Y-60030861D01*
X106497410Y-60025145D01*
X106513869Y-60021022D01*
X106530653Y-60018533D01*
X106547600Y-60017700D01*
X106893400Y-60017700D01*
X106910347Y-60018533D01*
X106910347Y-60018533D01*
G37*
D15*
X106720500Y-60388500D03*
D14*
G36*
X105940347Y-60018533D02*
G01*
X105957131Y-60021022D01*
X105973590Y-60025145D01*
X105989566Y-60030861D01*
X106004904Y-60038116D01*
X106019458Y-60046839D01*
X106033087Y-60056946D01*
X106045659Y-60068341D01*
X106057054Y-60080913D01*
X106067161Y-60094542D01*
X106075884Y-60109096D01*
X106083139Y-60124434D01*
X106088855Y-60140410D01*
X106092978Y-60156869D01*
X106095467Y-60173653D01*
X106096300Y-60190600D01*
X106096300Y-60586400D01*
X106095467Y-60603347D01*
X106092978Y-60620131D01*
X106088855Y-60636590D01*
X106083139Y-60652566D01*
X106075884Y-60667904D01*
X106067161Y-60682458D01*
X106057054Y-60696087D01*
X106045659Y-60708659D01*
X106033087Y-60720054D01*
X106019458Y-60730161D01*
X106004904Y-60738884D01*
X105989566Y-60746139D01*
X105973590Y-60751855D01*
X105957131Y-60755978D01*
X105940347Y-60758467D01*
X105923400Y-60759300D01*
X105577600Y-60759300D01*
X105560653Y-60758467D01*
X105543869Y-60755978D01*
X105527410Y-60751855D01*
X105511434Y-60746139D01*
X105496096Y-60738884D01*
X105481542Y-60730161D01*
X105467913Y-60720054D01*
X105455341Y-60708659D01*
X105443946Y-60696087D01*
X105433839Y-60682458D01*
X105425116Y-60667904D01*
X105417861Y-60652566D01*
X105412145Y-60636590D01*
X105408022Y-60620131D01*
X105405533Y-60603347D01*
X105404700Y-60586400D01*
X105404700Y-60190600D01*
X105405533Y-60173653D01*
X105408022Y-60156869D01*
X105412145Y-60140410D01*
X105417861Y-60124434D01*
X105425116Y-60109096D01*
X105433839Y-60094542D01*
X105443946Y-60080913D01*
X105455341Y-60068341D01*
X105467913Y-60056946D01*
X105481542Y-60046839D01*
X105496096Y-60038116D01*
X105511434Y-60030861D01*
X105527410Y-60025145D01*
X105543869Y-60021022D01*
X105560653Y-60018533D01*
X105577600Y-60017700D01*
X105923400Y-60017700D01*
X105940347Y-60018533D01*
X105940347Y-60018533D01*
G37*
D15*
X105750500Y-60388500D03*
D14*
G36*
X108228347Y-59114033D02*
G01*
X108245131Y-59116522D01*
X108261590Y-59120645D01*
X108277566Y-59126361D01*
X108292904Y-59133616D01*
X108307458Y-59142339D01*
X108321087Y-59152446D01*
X108333659Y-59163841D01*
X108345054Y-59176413D01*
X108355161Y-59190042D01*
X108363884Y-59204596D01*
X108371139Y-59219934D01*
X108376855Y-59235910D01*
X108380978Y-59252369D01*
X108383467Y-59269153D01*
X108384300Y-59286100D01*
X108384300Y-59631900D01*
X108383467Y-59648847D01*
X108380978Y-59665631D01*
X108376855Y-59682090D01*
X108371139Y-59698066D01*
X108363884Y-59713404D01*
X108355161Y-59727958D01*
X108345054Y-59741587D01*
X108333659Y-59754159D01*
X108321087Y-59765554D01*
X108307458Y-59775661D01*
X108292904Y-59784384D01*
X108277566Y-59791639D01*
X108261590Y-59797355D01*
X108245131Y-59801478D01*
X108228347Y-59803967D01*
X108211400Y-59804800D01*
X107815600Y-59804800D01*
X107798653Y-59803967D01*
X107781869Y-59801478D01*
X107765410Y-59797355D01*
X107749434Y-59791639D01*
X107734096Y-59784384D01*
X107719542Y-59775661D01*
X107705913Y-59765554D01*
X107693341Y-59754159D01*
X107681946Y-59741587D01*
X107671839Y-59727958D01*
X107663116Y-59713404D01*
X107655861Y-59698066D01*
X107650145Y-59682090D01*
X107646022Y-59665631D01*
X107643533Y-59648847D01*
X107642700Y-59631900D01*
X107642700Y-59286100D01*
X107643533Y-59269153D01*
X107646022Y-59252369D01*
X107650145Y-59235910D01*
X107655861Y-59219934D01*
X107663116Y-59204596D01*
X107671839Y-59190042D01*
X107681946Y-59176413D01*
X107693341Y-59163841D01*
X107705913Y-59152446D01*
X107719542Y-59142339D01*
X107734096Y-59133616D01*
X107749434Y-59126361D01*
X107765410Y-59120645D01*
X107781869Y-59116522D01*
X107798653Y-59114033D01*
X107815600Y-59113200D01*
X108211400Y-59113200D01*
X108228347Y-59114033D01*
X108228347Y-59114033D01*
G37*
D15*
X108013500Y-59459000D03*
D14*
G36*
X108228347Y-60084033D02*
G01*
X108245131Y-60086522D01*
X108261590Y-60090645D01*
X108277566Y-60096361D01*
X108292904Y-60103616D01*
X108307458Y-60112339D01*
X108321087Y-60122446D01*
X108333659Y-60133841D01*
X108345054Y-60146413D01*
X108355161Y-60160042D01*
X108363884Y-60174596D01*
X108371139Y-60189934D01*
X108376855Y-60205910D01*
X108380978Y-60222369D01*
X108383467Y-60239153D01*
X108384300Y-60256100D01*
X108384300Y-60601900D01*
X108383467Y-60618847D01*
X108380978Y-60635631D01*
X108376855Y-60652090D01*
X108371139Y-60668066D01*
X108363884Y-60683404D01*
X108355161Y-60697958D01*
X108345054Y-60711587D01*
X108333659Y-60724159D01*
X108321087Y-60735554D01*
X108307458Y-60745661D01*
X108292904Y-60754384D01*
X108277566Y-60761639D01*
X108261590Y-60767355D01*
X108245131Y-60771478D01*
X108228347Y-60773967D01*
X108211400Y-60774800D01*
X107815600Y-60774800D01*
X107798653Y-60773967D01*
X107781869Y-60771478D01*
X107765410Y-60767355D01*
X107749434Y-60761639D01*
X107734096Y-60754384D01*
X107719542Y-60745661D01*
X107705913Y-60735554D01*
X107693341Y-60724159D01*
X107681946Y-60711587D01*
X107671839Y-60697958D01*
X107663116Y-60683404D01*
X107655861Y-60668066D01*
X107650145Y-60652090D01*
X107646022Y-60635631D01*
X107643533Y-60618847D01*
X107642700Y-60601900D01*
X107642700Y-60256100D01*
X107643533Y-60239153D01*
X107646022Y-60222369D01*
X107650145Y-60205910D01*
X107655861Y-60189934D01*
X107663116Y-60174596D01*
X107671839Y-60160042D01*
X107681946Y-60146413D01*
X107693341Y-60133841D01*
X107705913Y-60122446D01*
X107719542Y-60112339D01*
X107734096Y-60103616D01*
X107749434Y-60096361D01*
X107765410Y-60090645D01*
X107781869Y-60086522D01*
X107798653Y-60084033D01*
X107815600Y-60083200D01*
X108211400Y-60083200D01*
X108228347Y-60084033D01*
X108228347Y-60084033D01*
G37*
D15*
X108013500Y-60429000D03*
D14*
G36*
X106448347Y-71893033D02*
G01*
X106465131Y-71895522D01*
X106481590Y-71899645D01*
X106497566Y-71905361D01*
X106512904Y-71912616D01*
X106527458Y-71921339D01*
X106541087Y-71931446D01*
X106553659Y-71942841D01*
X106565054Y-71955413D01*
X106575161Y-71969042D01*
X106583884Y-71983596D01*
X106591139Y-71998934D01*
X106596855Y-72014910D01*
X106600978Y-72031369D01*
X106603467Y-72048153D01*
X106604300Y-72065100D01*
X106604300Y-72460900D01*
X106603467Y-72477847D01*
X106600978Y-72494631D01*
X106596855Y-72511090D01*
X106591139Y-72527066D01*
X106583884Y-72542404D01*
X106575161Y-72556958D01*
X106565054Y-72570587D01*
X106553659Y-72583159D01*
X106541087Y-72594554D01*
X106527458Y-72604661D01*
X106512904Y-72613384D01*
X106497566Y-72620639D01*
X106481590Y-72626355D01*
X106465131Y-72630478D01*
X106448347Y-72632967D01*
X106431400Y-72633800D01*
X106085600Y-72633800D01*
X106068653Y-72632967D01*
X106051869Y-72630478D01*
X106035410Y-72626355D01*
X106019434Y-72620639D01*
X106004096Y-72613384D01*
X105989542Y-72604661D01*
X105975913Y-72594554D01*
X105963341Y-72583159D01*
X105951946Y-72570587D01*
X105941839Y-72556958D01*
X105933116Y-72542404D01*
X105925861Y-72527066D01*
X105920145Y-72511090D01*
X105916022Y-72494631D01*
X105913533Y-72477847D01*
X105912700Y-72460900D01*
X105912700Y-72065100D01*
X105913533Y-72048153D01*
X105916022Y-72031369D01*
X105920145Y-72014910D01*
X105925861Y-71998934D01*
X105933116Y-71983596D01*
X105941839Y-71969042D01*
X105951946Y-71955413D01*
X105963341Y-71942841D01*
X105975913Y-71931446D01*
X105989542Y-71921339D01*
X106004096Y-71912616D01*
X106019434Y-71905361D01*
X106035410Y-71899645D01*
X106051869Y-71895522D01*
X106068653Y-71893033D01*
X106085600Y-71892200D01*
X106431400Y-71892200D01*
X106448347Y-71893033D01*
X106448347Y-71893033D01*
G37*
D15*
X106258500Y-72263000D03*
D14*
G36*
X107418347Y-71893033D02*
G01*
X107435131Y-71895522D01*
X107451590Y-71899645D01*
X107467566Y-71905361D01*
X107482904Y-71912616D01*
X107497458Y-71921339D01*
X107511087Y-71931446D01*
X107523659Y-71942841D01*
X107535054Y-71955413D01*
X107545161Y-71969042D01*
X107553884Y-71983596D01*
X107561139Y-71998934D01*
X107566855Y-72014910D01*
X107570978Y-72031369D01*
X107573467Y-72048153D01*
X107574300Y-72065100D01*
X107574300Y-72460900D01*
X107573467Y-72477847D01*
X107570978Y-72494631D01*
X107566855Y-72511090D01*
X107561139Y-72527066D01*
X107553884Y-72542404D01*
X107545161Y-72556958D01*
X107535054Y-72570587D01*
X107523659Y-72583159D01*
X107511087Y-72594554D01*
X107497458Y-72604661D01*
X107482904Y-72613384D01*
X107467566Y-72620639D01*
X107451590Y-72626355D01*
X107435131Y-72630478D01*
X107418347Y-72632967D01*
X107401400Y-72633800D01*
X107055600Y-72633800D01*
X107038653Y-72632967D01*
X107021869Y-72630478D01*
X107005410Y-72626355D01*
X106989434Y-72620639D01*
X106974096Y-72613384D01*
X106959542Y-72604661D01*
X106945913Y-72594554D01*
X106933341Y-72583159D01*
X106921946Y-72570587D01*
X106911839Y-72556958D01*
X106903116Y-72542404D01*
X106895861Y-72527066D01*
X106890145Y-72511090D01*
X106886022Y-72494631D01*
X106883533Y-72477847D01*
X106882700Y-72460900D01*
X106882700Y-72065100D01*
X106883533Y-72048153D01*
X106886022Y-72031369D01*
X106890145Y-72014910D01*
X106895861Y-71998934D01*
X106903116Y-71983596D01*
X106911839Y-71969042D01*
X106921946Y-71955413D01*
X106933341Y-71942841D01*
X106945913Y-71931446D01*
X106959542Y-71921339D01*
X106974096Y-71912616D01*
X106989434Y-71905361D01*
X107005410Y-71899645D01*
X107021869Y-71895522D01*
X107038653Y-71893033D01*
X107055600Y-71892200D01*
X107401400Y-71892200D01*
X107418347Y-71893033D01*
X107418347Y-71893033D01*
G37*
D15*
X107228500Y-72263000D03*
D14*
G36*
X110319007Y-68400533D02*
G01*
X110335791Y-68403022D01*
X110352250Y-68407145D01*
X110368226Y-68412861D01*
X110383564Y-68420116D01*
X110398118Y-68428839D01*
X110411747Y-68438946D01*
X110424319Y-68450341D01*
X110435714Y-68462913D01*
X110445821Y-68476542D01*
X110454544Y-68491096D01*
X110461799Y-68506434D01*
X110467515Y-68522410D01*
X110471638Y-68538869D01*
X110474127Y-68555653D01*
X110474960Y-68572600D01*
X110474960Y-68968400D01*
X110474127Y-68985347D01*
X110471638Y-69002131D01*
X110467515Y-69018590D01*
X110461799Y-69034566D01*
X110454544Y-69049904D01*
X110445821Y-69064458D01*
X110435714Y-69078087D01*
X110424319Y-69090659D01*
X110411747Y-69102054D01*
X110398118Y-69112161D01*
X110383564Y-69120884D01*
X110368226Y-69128139D01*
X110352250Y-69133855D01*
X110335791Y-69137978D01*
X110319007Y-69140467D01*
X110302060Y-69141300D01*
X109956260Y-69141300D01*
X109939313Y-69140467D01*
X109922529Y-69137978D01*
X109906070Y-69133855D01*
X109890094Y-69128139D01*
X109874756Y-69120884D01*
X109860202Y-69112161D01*
X109846573Y-69102054D01*
X109834001Y-69090659D01*
X109822606Y-69078087D01*
X109812499Y-69064458D01*
X109803776Y-69049904D01*
X109796521Y-69034566D01*
X109790805Y-69018590D01*
X109786682Y-69002131D01*
X109784193Y-68985347D01*
X109783360Y-68968400D01*
X109783360Y-68572600D01*
X109784193Y-68555653D01*
X109786682Y-68538869D01*
X109790805Y-68522410D01*
X109796521Y-68506434D01*
X109803776Y-68491096D01*
X109812499Y-68476542D01*
X109822606Y-68462913D01*
X109834001Y-68450341D01*
X109846573Y-68438946D01*
X109860202Y-68428839D01*
X109874756Y-68420116D01*
X109890094Y-68412861D01*
X109906070Y-68407145D01*
X109922529Y-68403022D01*
X109939313Y-68400533D01*
X109956260Y-68399700D01*
X110302060Y-68399700D01*
X110319007Y-68400533D01*
X110319007Y-68400533D01*
G37*
D15*
X110129160Y-68770500D03*
D14*
G36*
X109349007Y-68400533D02*
G01*
X109365791Y-68403022D01*
X109382250Y-68407145D01*
X109398226Y-68412861D01*
X109413564Y-68420116D01*
X109428118Y-68428839D01*
X109441747Y-68438946D01*
X109454319Y-68450341D01*
X109465714Y-68462913D01*
X109475821Y-68476542D01*
X109484544Y-68491096D01*
X109491799Y-68506434D01*
X109497515Y-68522410D01*
X109501638Y-68538869D01*
X109504127Y-68555653D01*
X109504960Y-68572600D01*
X109504960Y-68968400D01*
X109504127Y-68985347D01*
X109501638Y-69002131D01*
X109497515Y-69018590D01*
X109491799Y-69034566D01*
X109484544Y-69049904D01*
X109475821Y-69064458D01*
X109465714Y-69078087D01*
X109454319Y-69090659D01*
X109441747Y-69102054D01*
X109428118Y-69112161D01*
X109413564Y-69120884D01*
X109398226Y-69128139D01*
X109382250Y-69133855D01*
X109365791Y-69137978D01*
X109349007Y-69140467D01*
X109332060Y-69141300D01*
X108986260Y-69141300D01*
X108969313Y-69140467D01*
X108952529Y-69137978D01*
X108936070Y-69133855D01*
X108920094Y-69128139D01*
X108904756Y-69120884D01*
X108890202Y-69112161D01*
X108876573Y-69102054D01*
X108864001Y-69090659D01*
X108852606Y-69078087D01*
X108842499Y-69064458D01*
X108833776Y-69049904D01*
X108826521Y-69034566D01*
X108820805Y-69018590D01*
X108816682Y-69002131D01*
X108814193Y-68985347D01*
X108813360Y-68968400D01*
X108813360Y-68572600D01*
X108814193Y-68555653D01*
X108816682Y-68538869D01*
X108820805Y-68522410D01*
X108826521Y-68506434D01*
X108833776Y-68491096D01*
X108842499Y-68476542D01*
X108852606Y-68462913D01*
X108864001Y-68450341D01*
X108876573Y-68438946D01*
X108890202Y-68428839D01*
X108904756Y-68420116D01*
X108920094Y-68412861D01*
X108936070Y-68407145D01*
X108952529Y-68403022D01*
X108969313Y-68400533D01*
X108986260Y-68399700D01*
X109332060Y-68399700D01*
X109349007Y-68400533D01*
X109349007Y-68400533D01*
G37*
D15*
X109159160Y-68770500D03*
D24*
X122835500Y-64860000D03*
X122835500Y-57060000D03*
D25*
X118935500Y-63210000D03*
X118935500Y-62710000D03*
X118935500Y-62210000D03*
X118935500Y-61710000D03*
X118935500Y-61210000D03*
X118935500Y-60710000D03*
X118935500Y-60210000D03*
X118935500Y-59710000D03*
X118935500Y-59210000D03*
X118935500Y-58710000D03*
D14*
G36*
X121832581Y-69198376D02*
G01*
X121856281Y-69201891D01*
X121879523Y-69207713D01*
X121902082Y-69215785D01*
X121923742Y-69226029D01*
X121944292Y-69238347D01*
X121963537Y-69252619D01*
X121981290Y-69268710D01*
X121997381Y-69286463D01*
X122011653Y-69305708D01*
X122023971Y-69326258D01*
X122034215Y-69347918D01*
X122042287Y-69370477D01*
X122048109Y-69393719D01*
X122051624Y-69417419D01*
X122052800Y-69441350D01*
X122052800Y-70004650D01*
X122051624Y-70028581D01*
X122048109Y-70052281D01*
X122042287Y-70075523D01*
X122034215Y-70098082D01*
X122023971Y-70119742D01*
X122011653Y-70140292D01*
X121997381Y-70159537D01*
X121981290Y-70177290D01*
X121963537Y-70193381D01*
X121944292Y-70207653D01*
X121923742Y-70219971D01*
X121902082Y-70230215D01*
X121879523Y-70238287D01*
X121856281Y-70244109D01*
X121832581Y-70247624D01*
X121808650Y-70248800D01*
X121320350Y-70248800D01*
X121296419Y-70247624D01*
X121272719Y-70244109D01*
X121249477Y-70238287D01*
X121226918Y-70230215D01*
X121205258Y-70219971D01*
X121184708Y-70207653D01*
X121165463Y-70193381D01*
X121147710Y-70177290D01*
X121131619Y-70159537D01*
X121117347Y-70140292D01*
X121105029Y-70119742D01*
X121094785Y-70098082D01*
X121086713Y-70075523D01*
X121080891Y-70052281D01*
X121077376Y-70028581D01*
X121076200Y-70004650D01*
X121076200Y-69441350D01*
X121077376Y-69417419D01*
X121080891Y-69393719D01*
X121086713Y-69370477D01*
X121094785Y-69347918D01*
X121105029Y-69326258D01*
X121117347Y-69305708D01*
X121131619Y-69286463D01*
X121147710Y-69268710D01*
X121165463Y-69252619D01*
X121184708Y-69238347D01*
X121205258Y-69226029D01*
X121226918Y-69215785D01*
X121249477Y-69207713D01*
X121272719Y-69201891D01*
X121296419Y-69198376D01*
X121320350Y-69197200D01*
X121808650Y-69197200D01*
X121832581Y-69198376D01*
X121832581Y-69198376D01*
G37*
D19*
X121564500Y-69723000D03*
D14*
G36*
X120257581Y-69198376D02*
G01*
X120281281Y-69201891D01*
X120304523Y-69207713D01*
X120327082Y-69215785D01*
X120348742Y-69226029D01*
X120369292Y-69238347D01*
X120388537Y-69252619D01*
X120406290Y-69268710D01*
X120422381Y-69286463D01*
X120436653Y-69305708D01*
X120448971Y-69326258D01*
X120459215Y-69347918D01*
X120467287Y-69370477D01*
X120473109Y-69393719D01*
X120476624Y-69417419D01*
X120477800Y-69441350D01*
X120477800Y-70004650D01*
X120476624Y-70028581D01*
X120473109Y-70052281D01*
X120467287Y-70075523D01*
X120459215Y-70098082D01*
X120448971Y-70119742D01*
X120436653Y-70140292D01*
X120422381Y-70159537D01*
X120406290Y-70177290D01*
X120388537Y-70193381D01*
X120369292Y-70207653D01*
X120348742Y-70219971D01*
X120327082Y-70230215D01*
X120304523Y-70238287D01*
X120281281Y-70244109D01*
X120257581Y-70247624D01*
X120233650Y-70248800D01*
X119745350Y-70248800D01*
X119721419Y-70247624D01*
X119697719Y-70244109D01*
X119674477Y-70238287D01*
X119651918Y-70230215D01*
X119630258Y-70219971D01*
X119609708Y-70207653D01*
X119590463Y-70193381D01*
X119572710Y-70177290D01*
X119556619Y-70159537D01*
X119542347Y-70140292D01*
X119530029Y-70119742D01*
X119519785Y-70098082D01*
X119511713Y-70075523D01*
X119505891Y-70052281D01*
X119502376Y-70028581D01*
X119501200Y-70004650D01*
X119501200Y-69441350D01*
X119502376Y-69417419D01*
X119505891Y-69393719D01*
X119511713Y-69370477D01*
X119519785Y-69347918D01*
X119530029Y-69326258D01*
X119542347Y-69305708D01*
X119556619Y-69286463D01*
X119572710Y-69268710D01*
X119590463Y-69252619D01*
X119609708Y-69238347D01*
X119630258Y-69226029D01*
X119651918Y-69215785D01*
X119674477Y-69207713D01*
X119697719Y-69201891D01*
X119721419Y-69198376D01*
X119745350Y-69197200D01*
X120233650Y-69197200D01*
X120257581Y-69198376D01*
X120257581Y-69198376D01*
G37*
D19*
X119989500Y-69723000D03*
D14*
G36*
X118705847Y-66035533D02*
G01*
X118722631Y-66038022D01*
X118739090Y-66042145D01*
X118755066Y-66047861D01*
X118770404Y-66055116D01*
X118784958Y-66063839D01*
X118798587Y-66073946D01*
X118811159Y-66085341D01*
X118822554Y-66097913D01*
X118832661Y-66111542D01*
X118841384Y-66126096D01*
X118848639Y-66141434D01*
X118854355Y-66157410D01*
X118858478Y-66173869D01*
X118860967Y-66190653D01*
X118861800Y-66207600D01*
X118861800Y-66553400D01*
X118860967Y-66570347D01*
X118858478Y-66587131D01*
X118854355Y-66603590D01*
X118848639Y-66619566D01*
X118841384Y-66634904D01*
X118832661Y-66649458D01*
X118822554Y-66663087D01*
X118811159Y-66675659D01*
X118798587Y-66687054D01*
X118784958Y-66697161D01*
X118770404Y-66705884D01*
X118755066Y-66713139D01*
X118739090Y-66718855D01*
X118722631Y-66722978D01*
X118705847Y-66725467D01*
X118688900Y-66726300D01*
X118293100Y-66726300D01*
X118276153Y-66725467D01*
X118259369Y-66722978D01*
X118242910Y-66718855D01*
X118226934Y-66713139D01*
X118211596Y-66705884D01*
X118197042Y-66697161D01*
X118183413Y-66687054D01*
X118170841Y-66675659D01*
X118159446Y-66663087D01*
X118149339Y-66649458D01*
X118140616Y-66634904D01*
X118133361Y-66619566D01*
X118127645Y-66603590D01*
X118123522Y-66587131D01*
X118121033Y-66570347D01*
X118120200Y-66553400D01*
X118120200Y-66207600D01*
X118121033Y-66190653D01*
X118123522Y-66173869D01*
X118127645Y-66157410D01*
X118133361Y-66141434D01*
X118140616Y-66126096D01*
X118149339Y-66111542D01*
X118159446Y-66097913D01*
X118170841Y-66085341D01*
X118183413Y-66073946D01*
X118197042Y-66063839D01*
X118211596Y-66055116D01*
X118226934Y-66047861D01*
X118242910Y-66042145D01*
X118259369Y-66038022D01*
X118276153Y-66035533D01*
X118293100Y-66034700D01*
X118688900Y-66034700D01*
X118705847Y-66035533D01*
X118705847Y-66035533D01*
G37*
D15*
X118491000Y-66380500D03*
D14*
G36*
X118705847Y-67005533D02*
G01*
X118722631Y-67008022D01*
X118739090Y-67012145D01*
X118755066Y-67017861D01*
X118770404Y-67025116D01*
X118784958Y-67033839D01*
X118798587Y-67043946D01*
X118811159Y-67055341D01*
X118822554Y-67067913D01*
X118832661Y-67081542D01*
X118841384Y-67096096D01*
X118848639Y-67111434D01*
X118854355Y-67127410D01*
X118858478Y-67143869D01*
X118860967Y-67160653D01*
X118861800Y-67177600D01*
X118861800Y-67523400D01*
X118860967Y-67540347D01*
X118858478Y-67557131D01*
X118854355Y-67573590D01*
X118848639Y-67589566D01*
X118841384Y-67604904D01*
X118832661Y-67619458D01*
X118822554Y-67633087D01*
X118811159Y-67645659D01*
X118798587Y-67657054D01*
X118784958Y-67667161D01*
X118770404Y-67675884D01*
X118755066Y-67683139D01*
X118739090Y-67688855D01*
X118722631Y-67692978D01*
X118705847Y-67695467D01*
X118688900Y-67696300D01*
X118293100Y-67696300D01*
X118276153Y-67695467D01*
X118259369Y-67692978D01*
X118242910Y-67688855D01*
X118226934Y-67683139D01*
X118211596Y-67675884D01*
X118197042Y-67667161D01*
X118183413Y-67657054D01*
X118170841Y-67645659D01*
X118159446Y-67633087D01*
X118149339Y-67619458D01*
X118140616Y-67604904D01*
X118133361Y-67589566D01*
X118127645Y-67573590D01*
X118123522Y-67557131D01*
X118121033Y-67540347D01*
X118120200Y-67523400D01*
X118120200Y-67177600D01*
X118121033Y-67160653D01*
X118123522Y-67143869D01*
X118127645Y-67127410D01*
X118133361Y-67111434D01*
X118140616Y-67096096D01*
X118149339Y-67081542D01*
X118159446Y-67067913D01*
X118170841Y-67055341D01*
X118183413Y-67043946D01*
X118197042Y-67033839D01*
X118211596Y-67025116D01*
X118226934Y-67017861D01*
X118242910Y-67012145D01*
X118259369Y-67008022D01*
X118276153Y-67005533D01*
X118293100Y-67004700D01*
X118688900Y-67004700D01*
X118705847Y-67005533D01*
X118705847Y-67005533D01*
G37*
D15*
X118491000Y-67350500D03*
D14*
G36*
X109498347Y-60084033D02*
G01*
X109515131Y-60086522D01*
X109531590Y-60090645D01*
X109547566Y-60096361D01*
X109562904Y-60103616D01*
X109577458Y-60112339D01*
X109591087Y-60122446D01*
X109603659Y-60133841D01*
X109615054Y-60146413D01*
X109625161Y-60160042D01*
X109633884Y-60174596D01*
X109641139Y-60189934D01*
X109646855Y-60205910D01*
X109650978Y-60222369D01*
X109653467Y-60239153D01*
X109654300Y-60256100D01*
X109654300Y-60601900D01*
X109653467Y-60618847D01*
X109650978Y-60635631D01*
X109646855Y-60652090D01*
X109641139Y-60668066D01*
X109633884Y-60683404D01*
X109625161Y-60697958D01*
X109615054Y-60711587D01*
X109603659Y-60724159D01*
X109591087Y-60735554D01*
X109577458Y-60745661D01*
X109562904Y-60754384D01*
X109547566Y-60761639D01*
X109531590Y-60767355D01*
X109515131Y-60771478D01*
X109498347Y-60773967D01*
X109481400Y-60774800D01*
X109085600Y-60774800D01*
X109068653Y-60773967D01*
X109051869Y-60771478D01*
X109035410Y-60767355D01*
X109019434Y-60761639D01*
X109004096Y-60754384D01*
X108989542Y-60745661D01*
X108975913Y-60735554D01*
X108963341Y-60724159D01*
X108951946Y-60711587D01*
X108941839Y-60697958D01*
X108933116Y-60683404D01*
X108925861Y-60668066D01*
X108920145Y-60652090D01*
X108916022Y-60635631D01*
X108913533Y-60618847D01*
X108912700Y-60601900D01*
X108912700Y-60256100D01*
X108913533Y-60239153D01*
X108916022Y-60222369D01*
X108920145Y-60205910D01*
X108925861Y-60189934D01*
X108933116Y-60174596D01*
X108941839Y-60160042D01*
X108951946Y-60146413D01*
X108963341Y-60133841D01*
X108975913Y-60122446D01*
X108989542Y-60112339D01*
X109004096Y-60103616D01*
X109019434Y-60096361D01*
X109035410Y-60090645D01*
X109051869Y-60086522D01*
X109068653Y-60084033D01*
X109085600Y-60083200D01*
X109481400Y-60083200D01*
X109498347Y-60084033D01*
X109498347Y-60084033D01*
G37*
D15*
X109283500Y-60429000D03*
D14*
G36*
X109498347Y-59114033D02*
G01*
X109515131Y-59116522D01*
X109531590Y-59120645D01*
X109547566Y-59126361D01*
X109562904Y-59133616D01*
X109577458Y-59142339D01*
X109591087Y-59152446D01*
X109603659Y-59163841D01*
X109615054Y-59176413D01*
X109625161Y-59190042D01*
X109633884Y-59204596D01*
X109641139Y-59219934D01*
X109646855Y-59235910D01*
X109650978Y-59252369D01*
X109653467Y-59269153D01*
X109654300Y-59286100D01*
X109654300Y-59631900D01*
X109653467Y-59648847D01*
X109650978Y-59665631D01*
X109646855Y-59682090D01*
X109641139Y-59698066D01*
X109633884Y-59713404D01*
X109625161Y-59727958D01*
X109615054Y-59741587D01*
X109603659Y-59754159D01*
X109591087Y-59765554D01*
X109577458Y-59775661D01*
X109562904Y-59784384D01*
X109547566Y-59791639D01*
X109531590Y-59797355D01*
X109515131Y-59801478D01*
X109498347Y-59803967D01*
X109481400Y-59804800D01*
X109085600Y-59804800D01*
X109068653Y-59803967D01*
X109051869Y-59801478D01*
X109035410Y-59797355D01*
X109019434Y-59791639D01*
X109004096Y-59784384D01*
X108989542Y-59775661D01*
X108975913Y-59765554D01*
X108963341Y-59754159D01*
X108951946Y-59741587D01*
X108941839Y-59727958D01*
X108933116Y-59713404D01*
X108925861Y-59698066D01*
X108920145Y-59682090D01*
X108916022Y-59665631D01*
X108913533Y-59648847D01*
X108912700Y-59631900D01*
X108912700Y-59286100D01*
X108913533Y-59269153D01*
X108916022Y-59252369D01*
X108920145Y-59235910D01*
X108925861Y-59219934D01*
X108933116Y-59204596D01*
X108941839Y-59190042D01*
X108951946Y-59176413D01*
X108963341Y-59163841D01*
X108975913Y-59152446D01*
X108989542Y-59142339D01*
X109004096Y-59133616D01*
X109019434Y-59126361D01*
X109035410Y-59120645D01*
X109051869Y-59116522D01*
X109068653Y-59114033D01*
X109085600Y-59113200D01*
X109481400Y-59113200D01*
X109498347Y-59114033D01*
X109498347Y-59114033D01*
G37*
D15*
X109283500Y-59459000D03*
D14*
G36*
X112861847Y-62558533D02*
G01*
X112878631Y-62561022D01*
X112895090Y-62565145D01*
X112911066Y-62570861D01*
X112926404Y-62578116D01*
X112940958Y-62586839D01*
X112954587Y-62596946D01*
X112967159Y-62608341D01*
X112978554Y-62620913D01*
X112988661Y-62634542D01*
X112997384Y-62649096D01*
X113004639Y-62664434D01*
X113010355Y-62680410D01*
X113014478Y-62696869D01*
X113016967Y-62713653D01*
X113017800Y-62730600D01*
X113017800Y-63126400D01*
X113016967Y-63143347D01*
X113014478Y-63160131D01*
X113010355Y-63176590D01*
X113004639Y-63192566D01*
X112997384Y-63207904D01*
X112988661Y-63222458D01*
X112978554Y-63236087D01*
X112967159Y-63248659D01*
X112954587Y-63260054D01*
X112940958Y-63270161D01*
X112926404Y-63278884D01*
X112911066Y-63286139D01*
X112895090Y-63291855D01*
X112878631Y-63295978D01*
X112861847Y-63298467D01*
X112844900Y-63299300D01*
X112499100Y-63299300D01*
X112482153Y-63298467D01*
X112465369Y-63295978D01*
X112448910Y-63291855D01*
X112432934Y-63286139D01*
X112417596Y-63278884D01*
X112403042Y-63270161D01*
X112389413Y-63260054D01*
X112376841Y-63248659D01*
X112365446Y-63236087D01*
X112355339Y-63222458D01*
X112346616Y-63207904D01*
X112339361Y-63192566D01*
X112333645Y-63176590D01*
X112329522Y-63160131D01*
X112327033Y-63143347D01*
X112326200Y-63126400D01*
X112326200Y-62730600D01*
X112327033Y-62713653D01*
X112329522Y-62696869D01*
X112333645Y-62680410D01*
X112339361Y-62664434D01*
X112346616Y-62649096D01*
X112355339Y-62634542D01*
X112365446Y-62620913D01*
X112376841Y-62608341D01*
X112389413Y-62596946D01*
X112403042Y-62586839D01*
X112417596Y-62578116D01*
X112432934Y-62570861D01*
X112448910Y-62565145D01*
X112465369Y-62561022D01*
X112482153Y-62558533D01*
X112499100Y-62557700D01*
X112844900Y-62557700D01*
X112861847Y-62558533D01*
X112861847Y-62558533D01*
G37*
D15*
X112672000Y-62928500D03*
D14*
G36*
X113831847Y-62558533D02*
G01*
X113848631Y-62561022D01*
X113865090Y-62565145D01*
X113881066Y-62570861D01*
X113896404Y-62578116D01*
X113910958Y-62586839D01*
X113924587Y-62596946D01*
X113937159Y-62608341D01*
X113948554Y-62620913D01*
X113958661Y-62634542D01*
X113967384Y-62649096D01*
X113974639Y-62664434D01*
X113980355Y-62680410D01*
X113984478Y-62696869D01*
X113986967Y-62713653D01*
X113987800Y-62730600D01*
X113987800Y-63126400D01*
X113986967Y-63143347D01*
X113984478Y-63160131D01*
X113980355Y-63176590D01*
X113974639Y-63192566D01*
X113967384Y-63207904D01*
X113958661Y-63222458D01*
X113948554Y-63236087D01*
X113937159Y-63248659D01*
X113924587Y-63260054D01*
X113910958Y-63270161D01*
X113896404Y-63278884D01*
X113881066Y-63286139D01*
X113865090Y-63291855D01*
X113848631Y-63295978D01*
X113831847Y-63298467D01*
X113814900Y-63299300D01*
X113469100Y-63299300D01*
X113452153Y-63298467D01*
X113435369Y-63295978D01*
X113418910Y-63291855D01*
X113402934Y-63286139D01*
X113387596Y-63278884D01*
X113373042Y-63270161D01*
X113359413Y-63260054D01*
X113346841Y-63248659D01*
X113335446Y-63236087D01*
X113325339Y-63222458D01*
X113316616Y-63207904D01*
X113309361Y-63192566D01*
X113303645Y-63176590D01*
X113299522Y-63160131D01*
X113297033Y-63143347D01*
X113296200Y-63126400D01*
X113296200Y-62730600D01*
X113297033Y-62713653D01*
X113299522Y-62696869D01*
X113303645Y-62680410D01*
X113309361Y-62664434D01*
X113316616Y-62649096D01*
X113325339Y-62634542D01*
X113335446Y-62620913D01*
X113346841Y-62608341D01*
X113359413Y-62596946D01*
X113373042Y-62586839D01*
X113387596Y-62578116D01*
X113402934Y-62570861D01*
X113418910Y-62565145D01*
X113435369Y-62561022D01*
X113452153Y-62558533D01*
X113469100Y-62557700D01*
X113814900Y-62557700D01*
X113831847Y-62558533D01*
X113831847Y-62558533D01*
G37*
D15*
X113642000Y-62928500D03*
D14*
G36*
X112861847Y-60018533D02*
G01*
X112878631Y-60021022D01*
X112895090Y-60025145D01*
X112911066Y-60030861D01*
X112926404Y-60038116D01*
X112940958Y-60046839D01*
X112954587Y-60056946D01*
X112967159Y-60068341D01*
X112978554Y-60080913D01*
X112988661Y-60094542D01*
X112997384Y-60109096D01*
X113004639Y-60124434D01*
X113010355Y-60140410D01*
X113014478Y-60156869D01*
X113016967Y-60173653D01*
X113017800Y-60190600D01*
X113017800Y-60586400D01*
X113016967Y-60603347D01*
X113014478Y-60620131D01*
X113010355Y-60636590D01*
X113004639Y-60652566D01*
X112997384Y-60667904D01*
X112988661Y-60682458D01*
X112978554Y-60696087D01*
X112967159Y-60708659D01*
X112954587Y-60720054D01*
X112940958Y-60730161D01*
X112926404Y-60738884D01*
X112911066Y-60746139D01*
X112895090Y-60751855D01*
X112878631Y-60755978D01*
X112861847Y-60758467D01*
X112844900Y-60759300D01*
X112499100Y-60759300D01*
X112482153Y-60758467D01*
X112465369Y-60755978D01*
X112448910Y-60751855D01*
X112432934Y-60746139D01*
X112417596Y-60738884D01*
X112403042Y-60730161D01*
X112389413Y-60720054D01*
X112376841Y-60708659D01*
X112365446Y-60696087D01*
X112355339Y-60682458D01*
X112346616Y-60667904D01*
X112339361Y-60652566D01*
X112333645Y-60636590D01*
X112329522Y-60620131D01*
X112327033Y-60603347D01*
X112326200Y-60586400D01*
X112326200Y-60190600D01*
X112327033Y-60173653D01*
X112329522Y-60156869D01*
X112333645Y-60140410D01*
X112339361Y-60124434D01*
X112346616Y-60109096D01*
X112355339Y-60094542D01*
X112365446Y-60080913D01*
X112376841Y-60068341D01*
X112389413Y-60056946D01*
X112403042Y-60046839D01*
X112417596Y-60038116D01*
X112432934Y-60030861D01*
X112448910Y-60025145D01*
X112465369Y-60021022D01*
X112482153Y-60018533D01*
X112499100Y-60017700D01*
X112844900Y-60017700D01*
X112861847Y-60018533D01*
X112861847Y-60018533D01*
G37*
D15*
X112672000Y-60388500D03*
D14*
G36*
X113831847Y-60018533D02*
G01*
X113848631Y-60021022D01*
X113865090Y-60025145D01*
X113881066Y-60030861D01*
X113896404Y-60038116D01*
X113910958Y-60046839D01*
X113924587Y-60056946D01*
X113937159Y-60068341D01*
X113948554Y-60080913D01*
X113958661Y-60094542D01*
X113967384Y-60109096D01*
X113974639Y-60124434D01*
X113980355Y-60140410D01*
X113984478Y-60156869D01*
X113986967Y-60173653D01*
X113987800Y-60190600D01*
X113987800Y-60586400D01*
X113986967Y-60603347D01*
X113984478Y-60620131D01*
X113980355Y-60636590D01*
X113974639Y-60652566D01*
X113967384Y-60667904D01*
X113958661Y-60682458D01*
X113948554Y-60696087D01*
X113937159Y-60708659D01*
X113924587Y-60720054D01*
X113910958Y-60730161D01*
X113896404Y-60738884D01*
X113881066Y-60746139D01*
X113865090Y-60751855D01*
X113848631Y-60755978D01*
X113831847Y-60758467D01*
X113814900Y-60759300D01*
X113469100Y-60759300D01*
X113452153Y-60758467D01*
X113435369Y-60755978D01*
X113418910Y-60751855D01*
X113402934Y-60746139D01*
X113387596Y-60738884D01*
X113373042Y-60730161D01*
X113359413Y-60720054D01*
X113346841Y-60708659D01*
X113335446Y-60696087D01*
X113325339Y-60682458D01*
X113316616Y-60667904D01*
X113309361Y-60652566D01*
X113303645Y-60636590D01*
X113299522Y-60620131D01*
X113297033Y-60603347D01*
X113296200Y-60586400D01*
X113296200Y-60190600D01*
X113297033Y-60173653D01*
X113299522Y-60156869D01*
X113303645Y-60140410D01*
X113309361Y-60124434D01*
X113316616Y-60109096D01*
X113325339Y-60094542D01*
X113335446Y-60080913D01*
X113346841Y-60068341D01*
X113359413Y-60056946D01*
X113373042Y-60046839D01*
X113387596Y-60038116D01*
X113402934Y-60030861D01*
X113418910Y-60025145D01*
X113435369Y-60021022D01*
X113452153Y-60018533D01*
X113469100Y-60017700D01*
X113814900Y-60017700D01*
X113831847Y-60018533D01*
X113831847Y-60018533D01*
G37*
D15*
X113642000Y-60388500D03*
D14*
G36*
X112861847Y-61288533D02*
G01*
X112878631Y-61291022D01*
X112895090Y-61295145D01*
X112911066Y-61300861D01*
X112926404Y-61308116D01*
X112940958Y-61316839D01*
X112954587Y-61326946D01*
X112967159Y-61338341D01*
X112978554Y-61350913D01*
X112988661Y-61364542D01*
X112997384Y-61379096D01*
X113004639Y-61394434D01*
X113010355Y-61410410D01*
X113014478Y-61426869D01*
X113016967Y-61443653D01*
X113017800Y-61460600D01*
X113017800Y-61856400D01*
X113016967Y-61873347D01*
X113014478Y-61890131D01*
X113010355Y-61906590D01*
X113004639Y-61922566D01*
X112997384Y-61937904D01*
X112988661Y-61952458D01*
X112978554Y-61966087D01*
X112967159Y-61978659D01*
X112954587Y-61990054D01*
X112940958Y-62000161D01*
X112926404Y-62008884D01*
X112911066Y-62016139D01*
X112895090Y-62021855D01*
X112878631Y-62025978D01*
X112861847Y-62028467D01*
X112844900Y-62029300D01*
X112499100Y-62029300D01*
X112482153Y-62028467D01*
X112465369Y-62025978D01*
X112448910Y-62021855D01*
X112432934Y-62016139D01*
X112417596Y-62008884D01*
X112403042Y-62000161D01*
X112389413Y-61990054D01*
X112376841Y-61978659D01*
X112365446Y-61966087D01*
X112355339Y-61952458D01*
X112346616Y-61937904D01*
X112339361Y-61922566D01*
X112333645Y-61906590D01*
X112329522Y-61890131D01*
X112327033Y-61873347D01*
X112326200Y-61856400D01*
X112326200Y-61460600D01*
X112327033Y-61443653D01*
X112329522Y-61426869D01*
X112333645Y-61410410D01*
X112339361Y-61394434D01*
X112346616Y-61379096D01*
X112355339Y-61364542D01*
X112365446Y-61350913D01*
X112376841Y-61338341D01*
X112389413Y-61326946D01*
X112403042Y-61316839D01*
X112417596Y-61308116D01*
X112432934Y-61300861D01*
X112448910Y-61295145D01*
X112465369Y-61291022D01*
X112482153Y-61288533D01*
X112499100Y-61287700D01*
X112844900Y-61287700D01*
X112861847Y-61288533D01*
X112861847Y-61288533D01*
G37*
D15*
X112672000Y-61658500D03*
D14*
G36*
X113831847Y-61288533D02*
G01*
X113848631Y-61291022D01*
X113865090Y-61295145D01*
X113881066Y-61300861D01*
X113896404Y-61308116D01*
X113910958Y-61316839D01*
X113924587Y-61326946D01*
X113937159Y-61338341D01*
X113948554Y-61350913D01*
X113958661Y-61364542D01*
X113967384Y-61379096D01*
X113974639Y-61394434D01*
X113980355Y-61410410D01*
X113984478Y-61426869D01*
X113986967Y-61443653D01*
X113987800Y-61460600D01*
X113987800Y-61856400D01*
X113986967Y-61873347D01*
X113984478Y-61890131D01*
X113980355Y-61906590D01*
X113974639Y-61922566D01*
X113967384Y-61937904D01*
X113958661Y-61952458D01*
X113948554Y-61966087D01*
X113937159Y-61978659D01*
X113924587Y-61990054D01*
X113910958Y-62000161D01*
X113896404Y-62008884D01*
X113881066Y-62016139D01*
X113865090Y-62021855D01*
X113848631Y-62025978D01*
X113831847Y-62028467D01*
X113814900Y-62029300D01*
X113469100Y-62029300D01*
X113452153Y-62028467D01*
X113435369Y-62025978D01*
X113418910Y-62021855D01*
X113402934Y-62016139D01*
X113387596Y-62008884D01*
X113373042Y-62000161D01*
X113359413Y-61990054D01*
X113346841Y-61978659D01*
X113335446Y-61966087D01*
X113325339Y-61952458D01*
X113316616Y-61937904D01*
X113309361Y-61922566D01*
X113303645Y-61906590D01*
X113299522Y-61890131D01*
X113297033Y-61873347D01*
X113296200Y-61856400D01*
X113296200Y-61460600D01*
X113297033Y-61443653D01*
X113299522Y-61426869D01*
X113303645Y-61410410D01*
X113309361Y-61394434D01*
X113316616Y-61379096D01*
X113325339Y-61364542D01*
X113335446Y-61350913D01*
X113346841Y-61338341D01*
X113359413Y-61326946D01*
X113373042Y-61316839D01*
X113387596Y-61308116D01*
X113402934Y-61300861D01*
X113418910Y-61295145D01*
X113435369Y-61291022D01*
X113452153Y-61288533D01*
X113469100Y-61287700D01*
X113814900Y-61287700D01*
X113831847Y-61288533D01*
X113831847Y-61288533D01*
G37*
D15*
X113642000Y-61658500D03*
D14*
G36*
X110575847Y-60018533D02*
G01*
X110592631Y-60021022D01*
X110609090Y-60025145D01*
X110625066Y-60030861D01*
X110640404Y-60038116D01*
X110654958Y-60046839D01*
X110668587Y-60056946D01*
X110681159Y-60068341D01*
X110692554Y-60080913D01*
X110702661Y-60094542D01*
X110711384Y-60109096D01*
X110718639Y-60124434D01*
X110724355Y-60140410D01*
X110728478Y-60156869D01*
X110730967Y-60173653D01*
X110731800Y-60190600D01*
X110731800Y-60586400D01*
X110730967Y-60603347D01*
X110728478Y-60620131D01*
X110724355Y-60636590D01*
X110718639Y-60652566D01*
X110711384Y-60667904D01*
X110702661Y-60682458D01*
X110692554Y-60696087D01*
X110681159Y-60708659D01*
X110668587Y-60720054D01*
X110654958Y-60730161D01*
X110640404Y-60738884D01*
X110625066Y-60746139D01*
X110609090Y-60751855D01*
X110592631Y-60755978D01*
X110575847Y-60758467D01*
X110558900Y-60759300D01*
X110213100Y-60759300D01*
X110196153Y-60758467D01*
X110179369Y-60755978D01*
X110162910Y-60751855D01*
X110146934Y-60746139D01*
X110131596Y-60738884D01*
X110117042Y-60730161D01*
X110103413Y-60720054D01*
X110090841Y-60708659D01*
X110079446Y-60696087D01*
X110069339Y-60682458D01*
X110060616Y-60667904D01*
X110053361Y-60652566D01*
X110047645Y-60636590D01*
X110043522Y-60620131D01*
X110041033Y-60603347D01*
X110040200Y-60586400D01*
X110040200Y-60190600D01*
X110041033Y-60173653D01*
X110043522Y-60156869D01*
X110047645Y-60140410D01*
X110053361Y-60124434D01*
X110060616Y-60109096D01*
X110069339Y-60094542D01*
X110079446Y-60080913D01*
X110090841Y-60068341D01*
X110103413Y-60056946D01*
X110117042Y-60046839D01*
X110131596Y-60038116D01*
X110146934Y-60030861D01*
X110162910Y-60025145D01*
X110179369Y-60021022D01*
X110196153Y-60018533D01*
X110213100Y-60017700D01*
X110558900Y-60017700D01*
X110575847Y-60018533D01*
X110575847Y-60018533D01*
G37*
D15*
X110386000Y-60388500D03*
D14*
G36*
X111545847Y-60018533D02*
G01*
X111562631Y-60021022D01*
X111579090Y-60025145D01*
X111595066Y-60030861D01*
X111610404Y-60038116D01*
X111624958Y-60046839D01*
X111638587Y-60056946D01*
X111651159Y-60068341D01*
X111662554Y-60080913D01*
X111672661Y-60094542D01*
X111681384Y-60109096D01*
X111688639Y-60124434D01*
X111694355Y-60140410D01*
X111698478Y-60156869D01*
X111700967Y-60173653D01*
X111701800Y-60190600D01*
X111701800Y-60586400D01*
X111700967Y-60603347D01*
X111698478Y-60620131D01*
X111694355Y-60636590D01*
X111688639Y-60652566D01*
X111681384Y-60667904D01*
X111672661Y-60682458D01*
X111662554Y-60696087D01*
X111651159Y-60708659D01*
X111638587Y-60720054D01*
X111624958Y-60730161D01*
X111610404Y-60738884D01*
X111595066Y-60746139D01*
X111579090Y-60751855D01*
X111562631Y-60755978D01*
X111545847Y-60758467D01*
X111528900Y-60759300D01*
X111183100Y-60759300D01*
X111166153Y-60758467D01*
X111149369Y-60755978D01*
X111132910Y-60751855D01*
X111116934Y-60746139D01*
X111101596Y-60738884D01*
X111087042Y-60730161D01*
X111073413Y-60720054D01*
X111060841Y-60708659D01*
X111049446Y-60696087D01*
X111039339Y-60682458D01*
X111030616Y-60667904D01*
X111023361Y-60652566D01*
X111017645Y-60636590D01*
X111013522Y-60620131D01*
X111011033Y-60603347D01*
X111010200Y-60586400D01*
X111010200Y-60190600D01*
X111011033Y-60173653D01*
X111013522Y-60156869D01*
X111017645Y-60140410D01*
X111023361Y-60124434D01*
X111030616Y-60109096D01*
X111039339Y-60094542D01*
X111049446Y-60080913D01*
X111060841Y-60068341D01*
X111073413Y-60056946D01*
X111087042Y-60046839D01*
X111101596Y-60038116D01*
X111116934Y-60030861D01*
X111132910Y-60025145D01*
X111149369Y-60021022D01*
X111166153Y-60018533D01*
X111183100Y-60017700D01*
X111528900Y-60017700D01*
X111545847Y-60018533D01*
X111545847Y-60018533D01*
G37*
D15*
X111356000Y-60388500D03*
D14*
G36*
X105432347Y-63066533D02*
G01*
X105449131Y-63069022D01*
X105465590Y-63073145D01*
X105481566Y-63078861D01*
X105496904Y-63086116D01*
X105511458Y-63094839D01*
X105525087Y-63104946D01*
X105537659Y-63116341D01*
X105549054Y-63128913D01*
X105559161Y-63142542D01*
X105567884Y-63157096D01*
X105575139Y-63172434D01*
X105580855Y-63188410D01*
X105584978Y-63204869D01*
X105587467Y-63221653D01*
X105588300Y-63238600D01*
X105588300Y-63634400D01*
X105587467Y-63651347D01*
X105584978Y-63668131D01*
X105580855Y-63684590D01*
X105575139Y-63700566D01*
X105567884Y-63715904D01*
X105559161Y-63730458D01*
X105549054Y-63744087D01*
X105537659Y-63756659D01*
X105525087Y-63768054D01*
X105511458Y-63778161D01*
X105496904Y-63786884D01*
X105481566Y-63794139D01*
X105465590Y-63799855D01*
X105449131Y-63803978D01*
X105432347Y-63806467D01*
X105415400Y-63807300D01*
X105069600Y-63807300D01*
X105052653Y-63806467D01*
X105035869Y-63803978D01*
X105019410Y-63799855D01*
X105003434Y-63794139D01*
X104988096Y-63786884D01*
X104973542Y-63778161D01*
X104959913Y-63768054D01*
X104947341Y-63756659D01*
X104935946Y-63744087D01*
X104925839Y-63730458D01*
X104917116Y-63715904D01*
X104909861Y-63700566D01*
X104904145Y-63684590D01*
X104900022Y-63668131D01*
X104897533Y-63651347D01*
X104896700Y-63634400D01*
X104896700Y-63238600D01*
X104897533Y-63221653D01*
X104900022Y-63204869D01*
X104904145Y-63188410D01*
X104909861Y-63172434D01*
X104917116Y-63157096D01*
X104925839Y-63142542D01*
X104935946Y-63128913D01*
X104947341Y-63116341D01*
X104959913Y-63104946D01*
X104973542Y-63094839D01*
X104988096Y-63086116D01*
X105003434Y-63078861D01*
X105019410Y-63073145D01*
X105035869Y-63069022D01*
X105052653Y-63066533D01*
X105069600Y-63065700D01*
X105415400Y-63065700D01*
X105432347Y-63066533D01*
X105432347Y-63066533D01*
G37*
D15*
X105242500Y-63436500D03*
D14*
G36*
X106402347Y-63066533D02*
G01*
X106419131Y-63069022D01*
X106435590Y-63073145D01*
X106451566Y-63078861D01*
X106466904Y-63086116D01*
X106481458Y-63094839D01*
X106495087Y-63104946D01*
X106507659Y-63116341D01*
X106519054Y-63128913D01*
X106529161Y-63142542D01*
X106537884Y-63157096D01*
X106545139Y-63172434D01*
X106550855Y-63188410D01*
X106554978Y-63204869D01*
X106557467Y-63221653D01*
X106558300Y-63238600D01*
X106558300Y-63634400D01*
X106557467Y-63651347D01*
X106554978Y-63668131D01*
X106550855Y-63684590D01*
X106545139Y-63700566D01*
X106537884Y-63715904D01*
X106529161Y-63730458D01*
X106519054Y-63744087D01*
X106507659Y-63756659D01*
X106495087Y-63768054D01*
X106481458Y-63778161D01*
X106466904Y-63786884D01*
X106451566Y-63794139D01*
X106435590Y-63799855D01*
X106419131Y-63803978D01*
X106402347Y-63806467D01*
X106385400Y-63807300D01*
X106039600Y-63807300D01*
X106022653Y-63806467D01*
X106005869Y-63803978D01*
X105989410Y-63799855D01*
X105973434Y-63794139D01*
X105958096Y-63786884D01*
X105943542Y-63778161D01*
X105929913Y-63768054D01*
X105917341Y-63756659D01*
X105905946Y-63744087D01*
X105895839Y-63730458D01*
X105887116Y-63715904D01*
X105879861Y-63700566D01*
X105874145Y-63684590D01*
X105870022Y-63668131D01*
X105867533Y-63651347D01*
X105866700Y-63634400D01*
X105866700Y-63238600D01*
X105867533Y-63221653D01*
X105870022Y-63204869D01*
X105874145Y-63188410D01*
X105879861Y-63172434D01*
X105887116Y-63157096D01*
X105895839Y-63142542D01*
X105905946Y-63128913D01*
X105917341Y-63116341D01*
X105929913Y-63104946D01*
X105943542Y-63094839D01*
X105958096Y-63086116D01*
X105973434Y-63078861D01*
X105989410Y-63073145D01*
X106005869Y-63069022D01*
X106022653Y-63066533D01*
X106039600Y-63065700D01*
X106385400Y-63065700D01*
X106402347Y-63066533D01*
X106402347Y-63066533D01*
G37*
D15*
X106212500Y-63436500D03*
D14*
G36*
X105195847Y-71893033D02*
G01*
X105212631Y-71895522D01*
X105229090Y-71899645D01*
X105245066Y-71905361D01*
X105260404Y-71912616D01*
X105274958Y-71921339D01*
X105288587Y-71931446D01*
X105301159Y-71942841D01*
X105312554Y-71955413D01*
X105322661Y-71969042D01*
X105331384Y-71983596D01*
X105338639Y-71998934D01*
X105344355Y-72014910D01*
X105348478Y-72031369D01*
X105350967Y-72048153D01*
X105351800Y-72065100D01*
X105351800Y-72460900D01*
X105350967Y-72477847D01*
X105348478Y-72494631D01*
X105344355Y-72511090D01*
X105338639Y-72527066D01*
X105331384Y-72542404D01*
X105322661Y-72556958D01*
X105312554Y-72570587D01*
X105301159Y-72583159D01*
X105288587Y-72594554D01*
X105274958Y-72604661D01*
X105260404Y-72613384D01*
X105245066Y-72620639D01*
X105229090Y-72626355D01*
X105212631Y-72630478D01*
X105195847Y-72632967D01*
X105178900Y-72633800D01*
X104833100Y-72633800D01*
X104816153Y-72632967D01*
X104799369Y-72630478D01*
X104782910Y-72626355D01*
X104766934Y-72620639D01*
X104751596Y-72613384D01*
X104737042Y-72604661D01*
X104723413Y-72594554D01*
X104710841Y-72583159D01*
X104699446Y-72570587D01*
X104689339Y-72556958D01*
X104680616Y-72542404D01*
X104673361Y-72527066D01*
X104667645Y-72511090D01*
X104663522Y-72494631D01*
X104661033Y-72477847D01*
X104660200Y-72460900D01*
X104660200Y-72065100D01*
X104661033Y-72048153D01*
X104663522Y-72031369D01*
X104667645Y-72014910D01*
X104673361Y-71998934D01*
X104680616Y-71983596D01*
X104689339Y-71969042D01*
X104699446Y-71955413D01*
X104710841Y-71942841D01*
X104723413Y-71931446D01*
X104737042Y-71921339D01*
X104751596Y-71912616D01*
X104766934Y-71905361D01*
X104782910Y-71899645D01*
X104799369Y-71895522D01*
X104816153Y-71893033D01*
X104833100Y-71892200D01*
X105178900Y-71892200D01*
X105195847Y-71893033D01*
X105195847Y-71893033D01*
G37*
D15*
X105006000Y-72263000D03*
D14*
G36*
X104225847Y-71893033D02*
G01*
X104242631Y-71895522D01*
X104259090Y-71899645D01*
X104275066Y-71905361D01*
X104290404Y-71912616D01*
X104304958Y-71921339D01*
X104318587Y-71931446D01*
X104331159Y-71942841D01*
X104342554Y-71955413D01*
X104352661Y-71969042D01*
X104361384Y-71983596D01*
X104368639Y-71998934D01*
X104374355Y-72014910D01*
X104378478Y-72031369D01*
X104380967Y-72048153D01*
X104381800Y-72065100D01*
X104381800Y-72460900D01*
X104380967Y-72477847D01*
X104378478Y-72494631D01*
X104374355Y-72511090D01*
X104368639Y-72527066D01*
X104361384Y-72542404D01*
X104352661Y-72556958D01*
X104342554Y-72570587D01*
X104331159Y-72583159D01*
X104318587Y-72594554D01*
X104304958Y-72604661D01*
X104290404Y-72613384D01*
X104275066Y-72620639D01*
X104259090Y-72626355D01*
X104242631Y-72630478D01*
X104225847Y-72632967D01*
X104208900Y-72633800D01*
X103863100Y-72633800D01*
X103846153Y-72632967D01*
X103829369Y-72630478D01*
X103812910Y-72626355D01*
X103796934Y-72620639D01*
X103781596Y-72613384D01*
X103767042Y-72604661D01*
X103753413Y-72594554D01*
X103740841Y-72583159D01*
X103729446Y-72570587D01*
X103719339Y-72556958D01*
X103710616Y-72542404D01*
X103703361Y-72527066D01*
X103697645Y-72511090D01*
X103693522Y-72494631D01*
X103691033Y-72477847D01*
X103690200Y-72460900D01*
X103690200Y-72065100D01*
X103691033Y-72048153D01*
X103693522Y-72031369D01*
X103697645Y-72014910D01*
X103703361Y-71998934D01*
X103710616Y-71983596D01*
X103719339Y-71969042D01*
X103729446Y-71955413D01*
X103740841Y-71942841D01*
X103753413Y-71931446D01*
X103767042Y-71921339D01*
X103781596Y-71912616D01*
X103796934Y-71905361D01*
X103812910Y-71899645D01*
X103829369Y-71895522D01*
X103846153Y-71893033D01*
X103863100Y-71892200D01*
X104208900Y-71892200D01*
X104225847Y-71893033D01*
X104225847Y-71893033D01*
G37*
D15*
X104036000Y-72263000D03*
D14*
G36*
X116483347Y-59830033D02*
G01*
X116500131Y-59832522D01*
X116516590Y-59836645D01*
X116532566Y-59842361D01*
X116547904Y-59849616D01*
X116562458Y-59858339D01*
X116576087Y-59868446D01*
X116588659Y-59879841D01*
X116600054Y-59892413D01*
X116610161Y-59906042D01*
X116618884Y-59920596D01*
X116626139Y-59935934D01*
X116631855Y-59951910D01*
X116635978Y-59968369D01*
X116638467Y-59985153D01*
X116639300Y-60002100D01*
X116639300Y-60347900D01*
X116638467Y-60364847D01*
X116635978Y-60381631D01*
X116631855Y-60398090D01*
X116626139Y-60414066D01*
X116618884Y-60429404D01*
X116610161Y-60443958D01*
X116600054Y-60457587D01*
X116588659Y-60470159D01*
X116576087Y-60481554D01*
X116562458Y-60491661D01*
X116547904Y-60500384D01*
X116532566Y-60507639D01*
X116516590Y-60513355D01*
X116500131Y-60517478D01*
X116483347Y-60519967D01*
X116466400Y-60520800D01*
X116070600Y-60520800D01*
X116053653Y-60519967D01*
X116036869Y-60517478D01*
X116020410Y-60513355D01*
X116004434Y-60507639D01*
X115989096Y-60500384D01*
X115974542Y-60491661D01*
X115960913Y-60481554D01*
X115948341Y-60470159D01*
X115936946Y-60457587D01*
X115926839Y-60443958D01*
X115918116Y-60429404D01*
X115910861Y-60414066D01*
X115905145Y-60398090D01*
X115901022Y-60381631D01*
X115898533Y-60364847D01*
X115897700Y-60347900D01*
X115897700Y-60002100D01*
X115898533Y-59985153D01*
X115901022Y-59968369D01*
X115905145Y-59951910D01*
X115910861Y-59935934D01*
X115918116Y-59920596D01*
X115926839Y-59906042D01*
X115936946Y-59892413D01*
X115948341Y-59879841D01*
X115960913Y-59868446D01*
X115974542Y-59858339D01*
X115989096Y-59849616D01*
X116004434Y-59842361D01*
X116020410Y-59836645D01*
X116036869Y-59832522D01*
X116053653Y-59830033D01*
X116070600Y-59829200D01*
X116466400Y-59829200D01*
X116483347Y-59830033D01*
X116483347Y-59830033D01*
G37*
D15*
X116268500Y-60175000D03*
D14*
G36*
X116483347Y-58860033D02*
G01*
X116500131Y-58862522D01*
X116516590Y-58866645D01*
X116532566Y-58872361D01*
X116547904Y-58879616D01*
X116562458Y-58888339D01*
X116576087Y-58898446D01*
X116588659Y-58909841D01*
X116600054Y-58922413D01*
X116610161Y-58936042D01*
X116618884Y-58950596D01*
X116626139Y-58965934D01*
X116631855Y-58981910D01*
X116635978Y-58998369D01*
X116638467Y-59015153D01*
X116639300Y-59032100D01*
X116639300Y-59377900D01*
X116638467Y-59394847D01*
X116635978Y-59411631D01*
X116631855Y-59428090D01*
X116626139Y-59444066D01*
X116618884Y-59459404D01*
X116610161Y-59473958D01*
X116600054Y-59487587D01*
X116588659Y-59500159D01*
X116576087Y-59511554D01*
X116562458Y-59521661D01*
X116547904Y-59530384D01*
X116532566Y-59537639D01*
X116516590Y-59543355D01*
X116500131Y-59547478D01*
X116483347Y-59549967D01*
X116466400Y-59550800D01*
X116070600Y-59550800D01*
X116053653Y-59549967D01*
X116036869Y-59547478D01*
X116020410Y-59543355D01*
X116004434Y-59537639D01*
X115989096Y-59530384D01*
X115974542Y-59521661D01*
X115960913Y-59511554D01*
X115948341Y-59500159D01*
X115936946Y-59487587D01*
X115926839Y-59473958D01*
X115918116Y-59459404D01*
X115910861Y-59444066D01*
X115905145Y-59428090D01*
X115901022Y-59411631D01*
X115898533Y-59394847D01*
X115897700Y-59377900D01*
X115897700Y-59032100D01*
X115898533Y-59015153D01*
X115901022Y-58998369D01*
X115905145Y-58981910D01*
X115910861Y-58965934D01*
X115918116Y-58950596D01*
X115926839Y-58936042D01*
X115936946Y-58922413D01*
X115948341Y-58909841D01*
X115960913Y-58898446D01*
X115974542Y-58888339D01*
X115989096Y-58879616D01*
X116004434Y-58872361D01*
X116020410Y-58866645D01*
X116036869Y-58862522D01*
X116053653Y-58860033D01*
X116070600Y-58859200D01*
X116466400Y-58859200D01*
X116483347Y-58860033D01*
X116483347Y-58860033D01*
G37*
D15*
X116268500Y-59205000D03*
D14*
G36*
X117626347Y-60274533D02*
G01*
X117643131Y-60277022D01*
X117659590Y-60281145D01*
X117675566Y-60286861D01*
X117690904Y-60294116D01*
X117705458Y-60302839D01*
X117719087Y-60312946D01*
X117731659Y-60324341D01*
X117743054Y-60336913D01*
X117753161Y-60350542D01*
X117761884Y-60365096D01*
X117769139Y-60380434D01*
X117774855Y-60396410D01*
X117778978Y-60412869D01*
X117781467Y-60429653D01*
X117782300Y-60446600D01*
X117782300Y-60792400D01*
X117781467Y-60809347D01*
X117778978Y-60826131D01*
X117774855Y-60842590D01*
X117769139Y-60858566D01*
X117761884Y-60873904D01*
X117753161Y-60888458D01*
X117743054Y-60902087D01*
X117731659Y-60914659D01*
X117719087Y-60926054D01*
X117705458Y-60936161D01*
X117690904Y-60944884D01*
X117675566Y-60952139D01*
X117659590Y-60957855D01*
X117643131Y-60961978D01*
X117626347Y-60964467D01*
X117609400Y-60965300D01*
X117213600Y-60965300D01*
X117196653Y-60964467D01*
X117179869Y-60961978D01*
X117163410Y-60957855D01*
X117147434Y-60952139D01*
X117132096Y-60944884D01*
X117117542Y-60936161D01*
X117103913Y-60926054D01*
X117091341Y-60914659D01*
X117079946Y-60902087D01*
X117069839Y-60888458D01*
X117061116Y-60873904D01*
X117053861Y-60858566D01*
X117048145Y-60842590D01*
X117044022Y-60826131D01*
X117041533Y-60809347D01*
X117040700Y-60792400D01*
X117040700Y-60446600D01*
X117041533Y-60429653D01*
X117044022Y-60412869D01*
X117048145Y-60396410D01*
X117053861Y-60380434D01*
X117061116Y-60365096D01*
X117069839Y-60350542D01*
X117079946Y-60336913D01*
X117091341Y-60324341D01*
X117103913Y-60312946D01*
X117117542Y-60302839D01*
X117132096Y-60294116D01*
X117147434Y-60286861D01*
X117163410Y-60281145D01*
X117179869Y-60277022D01*
X117196653Y-60274533D01*
X117213600Y-60273700D01*
X117609400Y-60273700D01*
X117626347Y-60274533D01*
X117626347Y-60274533D01*
G37*
D15*
X117411500Y-60619500D03*
D14*
G36*
X117626347Y-59304533D02*
G01*
X117643131Y-59307022D01*
X117659590Y-59311145D01*
X117675566Y-59316861D01*
X117690904Y-59324116D01*
X117705458Y-59332839D01*
X117719087Y-59342946D01*
X117731659Y-59354341D01*
X117743054Y-59366913D01*
X117753161Y-59380542D01*
X117761884Y-59395096D01*
X117769139Y-59410434D01*
X117774855Y-59426410D01*
X117778978Y-59442869D01*
X117781467Y-59459653D01*
X117782300Y-59476600D01*
X117782300Y-59822400D01*
X117781467Y-59839347D01*
X117778978Y-59856131D01*
X117774855Y-59872590D01*
X117769139Y-59888566D01*
X117761884Y-59903904D01*
X117753161Y-59918458D01*
X117743054Y-59932087D01*
X117731659Y-59944659D01*
X117719087Y-59956054D01*
X117705458Y-59966161D01*
X117690904Y-59974884D01*
X117675566Y-59982139D01*
X117659590Y-59987855D01*
X117643131Y-59991978D01*
X117626347Y-59994467D01*
X117609400Y-59995300D01*
X117213600Y-59995300D01*
X117196653Y-59994467D01*
X117179869Y-59991978D01*
X117163410Y-59987855D01*
X117147434Y-59982139D01*
X117132096Y-59974884D01*
X117117542Y-59966161D01*
X117103913Y-59956054D01*
X117091341Y-59944659D01*
X117079946Y-59932087D01*
X117069839Y-59918458D01*
X117061116Y-59903904D01*
X117053861Y-59888566D01*
X117048145Y-59872590D01*
X117044022Y-59856131D01*
X117041533Y-59839347D01*
X117040700Y-59822400D01*
X117040700Y-59476600D01*
X117041533Y-59459653D01*
X117044022Y-59442869D01*
X117048145Y-59426410D01*
X117053861Y-59410434D01*
X117061116Y-59395096D01*
X117069839Y-59380542D01*
X117079946Y-59366913D01*
X117091341Y-59354341D01*
X117103913Y-59342946D01*
X117117542Y-59332839D01*
X117132096Y-59324116D01*
X117147434Y-59316861D01*
X117163410Y-59311145D01*
X117179869Y-59307022D01*
X117196653Y-59304533D01*
X117213600Y-59303700D01*
X117609400Y-59303700D01*
X117626347Y-59304533D01*
X117626347Y-59304533D01*
G37*
D15*
X117411500Y-59649500D03*
D14*
G36*
X113831847Y-63574533D02*
G01*
X113848631Y-63577022D01*
X113865090Y-63581145D01*
X113881066Y-63586861D01*
X113896404Y-63594116D01*
X113910958Y-63602839D01*
X113924587Y-63612946D01*
X113937159Y-63624341D01*
X113948554Y-63636913D01*
X113958661Y-63650542D01*
X113967384Y-63665096D01*
X113974639Y-63680434D01*
X113980355Y-63696410D01*
X113984478Y-63712869D01*
X113986967Y-63729653D01*
X113987800Y-63746600D01*
X113987800Y-64142400D01*
X113986967Y-64159347D01*
X113984478Y-64176131D01*
X113980355Y-64192590D01*
X113974639Y-64208566D01*
X113967384Y-64223904D01*
X113958661Y-64238458D01*
X113948554Y-64252087D01*
X113937159Y-64264659D01*
X113924587Y-64276054D01*
X113910958Y-64286161D01*
X113896404Y-64294884D01*
X113881066Y-64302139D01*
X113865090Y-64307855D01*
X113848631Y-64311978D01*
X113831847Y-64314467D01*
X113814900Y-64315300D01*
X113469100Y-64315300D01*
X113452153Y-64314467D01*
X113435369Y-64311978D01*
X113418910Y-64307855D01*
X113402934Y-64302139D01*
X113387596Y-64294884D01*
X113373042Y-64286161D01*
X113359413Y-64276054D01*
X113346841Y-64264659D01*
X113335446Y-64252087D01*
X113325339Y-64238458D01*
X113316616Y-64223904D01*
X113309361Y-64208566D01*
X113303645Y-64192590D01*
X113299522Y-64176131D01*
X113297033Y-64159347D01*
X113296200Y-64142400D01*
X113296200Y-63746600D01*
X113297033Y-63729653D01*
X113299522Y-63712869D01*
X113303645Y-63696410D01*
X113309361Y-63680434D01*
X113316616Y-63665096D01*
X113325339Y-63650542D01*
X113335446Y-63636913D01*
X113346841Y-63624341D01*
X113359413Y-63612946D01*
X113373042Y-63602839D01*
X113387596Y-63594116D01*
X113402934Y-63586861D01*
X113418910Y-63581145D01*
X113435369Y-63577022D01*
X113452153Y-63574533D01*
X113469100Y-63573700D01*
X113814900Y-63573700D01*
X113831847Y-63574533D01*
X113831847Y-63574533D01*
G37*
D15*
X113642000Y-63944500D03*
D14*
G36*
X112861847Y-63574533D02*
G01*
X112878631Y-63577022D01*
X112895090Y-63581145D01*
X112911066Y-63586861D01*
X112926404Y-63594116D01*
X112940958Y-63602839D01*
X112954587Y-63612946D01*
X112967159Y-63624341D01*
X112978554Y-63636913D01*
X112988661Y-63650542D01*
X112997384Y-63665096D01*
X113004639Y-63680434D01*
X113010355Y-63696410D01*
X113014478Y-63712869D01*
X113016967Y-63729653D01*
X113017800Y-63746600D01*
X113017800Y-64142400D01*
X113016967Y-64159347D01*
X113014478Y-64176131D01*
X113010355Y-64192590D01*
X113004639Y-64208566D01*
X112997384Y-64223904D01*
X112988661Y-64238458D01*
X112978554Y-64252087D01*
X112967159Y-64264659D01*
X112954587Y-64276054D01*
X112940958Y-64286161D01*
X112926404Y-64294884D01*
X112911066Y-64302139D01*
X112895090Y-64307855D01*
X112878631Y-64311978D01*
X112861847Y-64314467D01*
X112844900Y-64315300D01*
X112499100Y-64315300D01*
X112482153Y-64314467D01*
X112465369Y-64311978D01*
X112448910Y-64307855D01*
X112432934Y-64302139D01*
X112417596Y-64294884D01*
X112403042Y-64286161D01*
X112389413Y-64276054D01*
X112376841Y-64264659D01*
X112365446Y-64252087D01*
X112355339Y-64238458D01*
X112346616Y-64223904D01*
X112339361Y-64208566D01*
X112333645Y-64192590D01*
X112329522Y-64176131D01*
X112327033Y-64159347D01*
X112326200Y-64142400D01*
X112326200Y-63746600D01*
X112327033Y-63729653D01*
X112329522Y-63712869D01*
X112333645Y-63696410D01*
X112339361Y-63680434D01*
X112346616Y-63665096D01*
X112355339Y-63650542D01*
X112365446Y-63636913D01*
X112376841Y-63624341D01*
X112389413Y-63612946D01*
X112403042Y-63602839D01*
X112417596Y-63594116D01*
X112432934Y-63586861D01*
X112448910Y-63581145D01*
X112465369Y-63577022D01*
X112482153Y-63574533D01*
X112499100Y-63573700D01*
X112844900Y-63573700D01*
X112861847Y-63574533D01*
X112861847Y-63574533D01*
G37*
D15*
X112672000Y-63944500D03*
D26*
X114905790Y-68927980D03*
X111946690Y-68927980D03*
X107016550Y-68961000D03*
X104057450Y-68961000D03*
D14*
G36*
X110656581Y-71738376D02*
G01*
X110680281Y-71741891D01*
X110703523Y-71747713D01*
X110726082Y-71755785D01*
X110747742Y-71766029D01*
X110768292Y-71778347D01*
X110787537Y-71792619D01*
X110805290Y-71808710D01*
X110821381Y-71826463D01*
X110835653Y-71845708D01*
X110847971Y-71866258D01*
X110858215Y-71887918D01*
X110866287Y-71910477D01*
X110872109Y-71933719D01*
X110875624Y-71957419D01*
X110876800Y-71981350D01*
X110876800Y-72544650D01*
X110875624Y-72568581D01*
X110872109Y-72592281D01*
X110866287Y-72615523D01*
X110858215Y-72638082D01*
X110847971Y-72659742D01*
X110835653Y-72680292D01*
X110821381Y-72699537D01*
X110805290Y-72717290D01*
X110787537Y-72733381D01*
X110768292Y-72747653D01*
X110747742Y-72759971D01*
X110726082Y-72770215D01*
X110703523Y-72778287D01*
X110680281Y-72784109D01*
X110656581Y-72787624D01*
X110632650Y-72788800D01*
X110144350Y-72788800D01*
X110120419Y-72787624D01*
X110096719Y-72784109D01*
X110073477Y-72778287D01*
X110050918Y-72770215D01*
X110029258Y-72759971D01*
X110008708Y-72747653D01*
X109989463Y-72733381D01*
X109971710Y-72717290D01*
X109955619Y-72699537D01*
X109941347Y-72680292D01*
X109929029Y-72659742D01*
X109918785Y-72638082D01*
X109910713Y-72615523D01*
X109904891Y-72592281D01*
X109901376Y-72568581D01*
X109900200Y-72544650D01*
X109900200Y-71981350D01*
X109901376Y-71957419D01*
X109904891Y-71933719D01*
X109910713Y-71910477D01*
X109918785Y-71887918D01*
X109929029Y-71866258D01*
X109941347Y-71845708D01*
X109955619Y-71826463D01*
X109971710Y-71808710D01*
X109989463Y-71792619D01*
X110008708Y-71778347D01*
X110029258Y-71766029D01*
X110050918Y-71755785D01*
X110073477Y-71747713D01*
X110096719Y-71741891D01*
X110120419Y-71738376D01*
X110144350Y-71737200D01*
X110632650Y-71737200D01*
X110656581Y-71738376D01*
X110656581Y-71738376D01*
G37*
D19*
X110388500Y-72263000D03*
D14*
G36*
X109081581Y-71738376D02*
G01*
X109105281Y-71741891D01*
X109128523Y-71747713D01*
X109151082Y-71755785D01*
X109172742Y-71766029D01*
X109193292Y-71778347D01*
X109212537Y-71792619D01*
X109230290Y-71808710D01*
X109246381Y-71826463D01*
X109260653Y-71845708D01*
X109272971Y-71866258D01*
X109283215Y-71887918D01*
X109291287Y-71910477D01*
X109297109Y-71933719D01*
X109300624Y-71957419D01*
X109301800Y-71981350D01*
X109301800Y-72544650D01*
X109300624Y-72568581D01*
X109297109Y-72592281D01*
X109291287Y-72615523D01*
X109283215Y-72638082D01*
X109272971Y-72659742D01*
X109260653Y-72680292D01*
X109246381Y-72699537D01*
X109230290Y-72717290D01*
X109212537Y-72733381D01*
X109193292Y-72747653D01*
X109172742Y-72759971D01*
X109151082Y-72770215D01*
X109128523Y-72778287D01*
X109105281Y-72784109D01*
X109081581Y-72787624D01*
X109057650Y-72788800D01*
X108569350Y-72788800D01*
X108545419Y-72787624D01*
X108521719Y-72784109D01*
X108498477Y-72778287D01*
X108475918Y-72770215D01*
X108454258Y-72759971D01*
X108433708Y-72747653D01*
X108414463Y-72733381D01*
X108396710Y-72717290D01*
X108380619Y-72699537D01*
X108366347Y-72680292D01*
X108354029Y-72659742D01*
X108343785Y-72638082D01*
X108335713Y-72615523D01*
X108329891Y-72592281D01*
X108326376Y-72568581D01*
X108325200Y-72544650D01*
X108325200Y-71981350D01*
X108326376Y-71957419D01*
X108329891Y-71933719D01*
X108335713Y-71910477D01*
X108343785Y-71887918D01*
X108354029Y-71866258D01*
X108366347Y-71845708D01*
X108380619Y-71826463D01*
X108396710Y-71808710D01*
X108414463Y-71792619D01*
X108433708Y-71778347D01*
X108454258Y-71766029D01*
X108475918Y-71755785D01*
X108498477Y-71747713D01*
X108521719Y-71741891D01*
X108545419Y-71738376D01*
X108569350Y-71737200D01*
X109057650Y-71737200D01*
X109081581Y-71738376D01*
X109081581Y-71738376D01*
G37*
D19*
X108813500Y-72263000D03*
D14*
G36*
X113623847Y-65352533D02*
G01*
X113640631Y-65355022D01*
X113657090Y-65359145D01*
X113673066Y-65364861D01*
X113688404Y-65372116D01*
X113702958Y-65380839D01*
X113716587Y-65390946D01*
X113729159Y-65402341D01*
X113740554Y-65414913D01*
X113750661Y-65428542D01*
X113759384Y-65443096D01*
X113766639Y-65458434D01*
X113772355Y-65474410D01*
X113776478Y-65490869D01*
X113778967Y-65507653D01*
X113779800Y-65524600D01*
X113779800Y-65920400D01*
X113778967Y-65937347D01*
X113776478Y-65954131D01*
X113772355Y-65970590D01*
X113766639Y-65986566D01*
X113759384Y-66001904D01*
X113750661Y-66016458D01*
X113740554Y-66030087D01*
X113729159Y-66042659D01*
X113716587Y-66054054D01*
X113702958Y-66064161D01*
X113688404Y-66072884D01*
X113673066Y-66080139D01*
X113657090Y-66085855D01*
X113640631Y-66089978D01*
X113623847Y-66092467D01*
X113606900Y-66093300D01*
X113261100Y-66093300D01*
X113244153Y-66092467D01*
X113227369Y-66089978D01*
X113210910Y-66085855D01*
X113194934Y-66080139D01*
X113179596Y-66072884D01*
X113165042Y-66064161D01*
X113151413Y-66054054D01*
X113138841Y-66042659D01*
X113127446Y-66030087D01*
X113117339Y-66016458D01*
X113108616Y-66001904D01*
X113101361Y-65986566D01*
X113095645Y-65970590D01*
X113091522Y-65954131D01*
X113089033Y-65937347D01*
X113088200Y-65920400D01*
X113088200Y-65524600D01*
X113089033Y-65507653D01*
X113091522Y-65490869D01*
X113095645Y-65474410D01*
X113101361Y-65458434D01*
X113108616Y-65443096D01*
X113117339Y-65428542D01*
X113127446Y-65414913D01*
X113138841Y-65402341D01*
X113151413Y-65390946D01*
X113165042Y-65380839D01*
X113179596Y-65372116D01*
X113194934Y-65364861D01*
X113210910Y-65359145D01*
X113227369Y-65355022D01*
X113244153Y-65352533D01*
X113261100Y-65351700D01*
X113606900Y-65351700D01*
X113623847Y-65352533D01*
X113623847Y-65352533D01*
G37*
D15*
X113434000Y-65722500D03*
D14*
G36*
X114593847Y-65352533D02*
G01*
X114610631Y-65355022D01*
X114627090Y-65359145D01*
X114643066Y-65364861D01*
X114658404Y-65372116D01*
X114672958Y-65380839D01*
X114686587Y-65390946D01*
X114699159Y-65402341D01*
X114710554Y-65414913D01*
X114720661Y-65428542D01*
X114729384Y-65443096D01*
X114736639Y-65458434D01*
X114742355Y-65474410D01*
X114746478Y-65490869D01*
X114748967Y-65507653D01*
X114749800Y-65524600D01*
X114749800Y-65920400D01*
X114748967Y-65937347D01*
X114746478Y-65954131D01*
X114742355Y-65970590D01*
X114736639Y-65986566D01*
X114729384Y-66001904D01*
X114720661Y-66016458D01*
X114710554Y-66030087D01*
X114699159Y-66042659D01*
X114686587Y-66054054D01*
X114672958Y-66064161D01*
X114658404Y-66072884D01*
X114643066Y-66080139D01*
X114627090Y-66085855D01*
X114610631Y-66089978D01*
X114593847Y-66092467D01*
X114576900Y-66093300D01*
X114231100Y-66093300D01*
X114214153Y-66092467D01*
X114197369Y-66089978D01*
X114180910Y-66085855D01*
X114164934Y-66080139D01*
X114149596Y-66072884D01*
X114135042Y-66064161D01*
X114121413Y-66054054D01*
X114108841Y-66042659D01*
X114097446Y-66030087D01*
X114087339Y-66016458D01*
X114078616Y-66001904D01*
X114071361Y-65986566D01*
X114065645Y-65970590D01*
X114061522Y-65954131D01*
X114059033Y-65937347D01*
X114058200Y-65920400D01*
X114058200Y-65524600D01*
X114059033Y-65507653D01*
X114061522Y-65490869D01*
X114065645Y-65474410D01*
X114071361Y-65458434D01*
X114078616Y-65443096D01*
X114087339Y-65428542D01*
X114097446Y-65414913D01*
X114108841Y-65402341D01*
X114121413Y-65390946D01*
X114135042Y-65380839D01*
X114149596Y-65372116D01*
X114164934Y-65364861D01*
X114180910Y-65359145D01*
X114197369Y-65355022D01*
X114214153Y-65352533D01*
X114231100Y-65351700D01*
X114576900Y-65351700D01*
X114593847Y-65352533D01*
X114593847Y-65352533D01*
G37*
D15*
X114404000Y-65722500D03*
D14*
G36*
X105432347Y-61987033D02*
G01*
X105449131Y-61989522D01*
X105465590Y-61993645D01*
X105481566Y-61999361D01*
X105496904Y-62006616D01*
X105511458Y-62015339D01*
X105525087Y-62025446D01*
X105537659Y-62036841D01*
X105549054Y-62049413D01*
X105559161Y-62063042D01*
X105567884Y-62077596D01*
X105575139Y-62092934D01*
X105580855Y-62108910D01*
X105584978Y-62125369D01*
X105587467Y-62142153D01*
X105588300Y-62159100D01*
X105588300Y-62554900D01*
X105587467Y-62571847D01*
X105584978Y-62588631D01*
X105580855Y-62605090D01*
X105575139Y-62621066D01*
X105567884Y-62636404D01*
X105559161Y-62650958D01*
X105549054Y-62664587D01*
X105537659Y-62677159D01*
X105525087Y-62688554D01*
X105511458Y-62698661D01*
X105496904Y-62707384D01*
X105481566Y-62714639D01*
X105465590Y-62720355D01*
X105449131Y-62724478D01*
X105432347Y-62726967D01*
X105415400Y-62727800D01*
X105069600Y-62727800D01*
X105052653Y-62726967D01*
X105035869Y-62724478D01*
X105019410Y-62720355D01*
X105003434Y-62714639D01*
X104988096Y-62707384D01*
X104973542Y-62698661D01*
X104959913Y-62688554D01*
X104947341Y-62677159D01*
X104935946Y-62664587D01*
X104925839Y-62650958D01*
X104917116Y-62636404D01*
X104909861Y-62621066D01*
X104904145Y-62605090D01*
X104900022Y-62588631D01*
X104897533Y-62571847D01*
X104896700Y-62554900D01*
X104896700Y-62159100D01*
X104897533Y-62142153D01*
X104900022Y-62125369D01*
X104904145Y-62108910D01*
X104909861Y-62092934D01*
X104917116Y-62077596D01*
X104925839Y-62063042D01*
X104935946Y-62049413D01*
X104947341Y-62036841D01*
X104959913Y-62025446D01*
X104973542Y-62015339D01*
X104988096Y-62006616D01*
X105003434Y-61999361D01*
X105019410Y-61993645D01*
X105035869Y-61989522D01*
X105052653Y-61987033D01*
X105069600Y-61986200D01*
X105415400Y-61986200D01*
X105432347Y-61987033D01*
X105432347Y-61987033D01*
G37*
D15*
X105242500Y-62357000D03*
D14*
G36*
X106402347Y-61987033D02*
G01*
X106419131Y-61989522D01*
X106435590Y-61993645D01*
X106451566Y-61999361D01*
X106466904Y-62006616D01*
X106481458Y-62015339D01*
X106495087Y-62025446D01*
X106507659Y-62036841D01*
X106519054Y-62049413D01*
X106529161Y-62063042D01*
X106537884Y-62077596D01*
X106545139Y-62092934D01*
X106550855Y-62108910D01*
X106554978Y-62125369D01*
X106557467Y-62142153D01*
X106558300Y-62159100D01*
X106558300Y-62554900D01*
X106557467Y-62571847D01*
X106554978Y-62588631D01*
X106550855Y-62605090D01*
X106545139Y-62621066D01*
X106537884Y-62636404D01*
X106529161Y-62650958D01*
X106519054Y-62664587D01*
X106507659Y-62677159D01*
X106495087Y-62688554D01*
X106481458Y-62698661D01*
X106466904Y-62707384D01*
X106451566Y-62714639D01*
X106435590Y-62720355D01*
X106419131Y-62724478D01*
X106402347Y-62726967D01*
X106385400Y-62727800D01*
X106039600Y-62727800D01*
X106022653Y-62726967D01*
X106005869Y-62724478D01*
X105989410Y-62720355D01*
X105973434Y-62714639D01*
X105958096Y-62707384D01*
X105943542Y-62698661D01*
X105929913Y-62688554D01*
X105917341Y-62677159D01*
X105905946Y-62664587D01*
X105895839Y-62650958D01*
X105887116Y-62636404D01*
X105879861Y-62621066D01*
X105874145Y-62605090D01*
X105870022Y-62588631D01*
X105867533Y-62571847D01*
X105866700Y-62554900D01*
X105866700Y-62159100D01*
X105867533Y-62142153D01*
X105870022Y-62125369D01*
X105874145Y-62108910D01*
X105879861Y-62092934D01*
X105887116Y-62077596D01*
X105895839Y-62063042D01*
X105905946Y-62049413D01*
X105917341Y-62036841D01*
X105929913Y-62025446D01*
X105943542Y-62015339D01*
X105958096Y-62006616D01*
X105973434Y-61999361D01*
X105989410Y-61993645D01*
X106005869Y-61989522D01*
X106022653Y-61987033D01*
X106039600Y-61986200D01*
X106385400Y-61986200D01*
X106402347Y-61987033D01*
X106402347Y-61987033D01*
G37*
D15*
X106212500Y-62357000D03*
D14*
G36*
X103100347Y-71893033D02*
G01*
X103117131Y-71895522D01*
X103133590Y-71899645D01*
X103149566Y-71905361D01*
X103164904Y-71912616D01*
X103179458Y-71921339D01*
X103193087Y-71931446D01*
X103205659Y-71942841D01*
X103217054Y-71955413D01*
X103227161Y-71969042D01*
X103235884Y-71983596D01*
X103243139Y-71998934D01*
X103248855Y-72014910D01*
X103252978Y-72031369D01*
X103255467Y-72048153D01*
X103256300Y-72065100D01*
X103256300Y-72460900D01*
X103255467Y-72477847D01*
X103252978Y-72494631D01*
X103248855Y-72511090D01*
X103243139Y-72527066D01*
X103235884Y-72542404D01*
X103227161Y-72556958D01*
X103217054Y-72570587D01*
X103205659Y-72583159D01*
X103193087Y-72594554D01*
X103179458Y-72604661D01*
X103164904Y-72613384D01*
X103149566Y-72620639D01*
X103133590Y-72626355D01*
X103117131Y-72630478D01*
X103100347Y-72632967D01*
X103083400Y-72633800D01*
X102737600Y-72633800D01*
X102720653Y-72632967D01*
X102703869Y-72630478D01*
X102687410Y-72626355D01*
X102671434Y-72620639D01*
X102656096Y-72613384D01*
X102641542Y-72604661D01*
X102627913Y-72594554D01*
X102615341Y-72583159D01*
X102603946Y-72570587D01*
X102593839Y-72556958D01*
X102585116Y-72542404D01*
X102577861Y-72527066D01*
X102572145Y-72511090D01*
X102568022Y-72494631D01*
X102565533Y-72477847D01*
X102564700Y-72460900D01*
X102564700Y-72065100D01*
X102565533Y-72048153D01*
X102568022Y-72031369D01*
X102572145Y-72014910D01*
X102577861Y-71998934D01*
X102585116Y-71983596D01*
X102593839Y-71969042D01*
X102603946Y-71955413D01*
X102615341Y-71942841D01*
X102627913Y-71931446D01*
X102641542Y-71921339D01*
X102656096Y-71912616D01*
X102671434Y-71905361D01*
X102687410Y-71899645D01*
X102703869Y-71895522D01*
X102720653Y-71893033D01*
X102737600Y-71892200D01*
X103083400Y-71892200D01*
X103100347Y-71893033D01*
X103100347Y-71893033D01*
G37*
D15*
X102910500Y-72263000D03*
D14*
G36*
X102130347Y-71893033D02*
G01*
X102147131Y-71895522D01*
X102163590Y-71899645D01*
X102179566Y-71905361D01*
X102194904Y-71912616D01*
X102209458Y-71921339D01*
X102223087Y-71931446D01*
X102235659Y-71942841D01*
X102247054Y-71955413D01*
X102257161Y-71969042D01*
X102265884Y-71983596D01*
X102273139Y-71998934D01*
X102278855Y-72014910D01*
X102282978Y-72031369D01*
X102285467Y-72048153D01*
X102286300Y-72065100D01*
X102286300Y-72460900D01*
X102285467Y-72477847D01*
X102282978Y-72494631D01*
X102278855Y-72511090D01*
X102273139Y-72527066D01*
X102265884Y-72542404D01*
X102257161Y-72556958D01*
X102247054Y-72570587D01*
X102235659Y-72583159D01*
X102223087Y-72594554D01*
X102209458Y-72604661D01*
X102194904Y-72613384D01*
X102179566Y-72620639D01*
X102163590Y-72626355D01*
X102147131Y-72630478D01*
X102130347Y-72632967D01*
X102113400Y-72633800D01*
X101767600Y-72633800D01*
X101750653Y-72632967D01*
X101733869Y-72630478D01*
X101717410Y-72626355D01*
X101701434Y-72620639D01*
X101686096Y-72613384D01*
X101671542Y-72604661D01*
X101657913Y-72594554D01*
X101645341Y-72583159D01*
X101633946Y-72570587D01*
X101623839Y-72556958D01*
X101615116Y-72542404D01*
X101607861Y-72527066D01*
X101602145Y-72511090D01*
X101598022Y-72494631D01*
X101595533Y-72477847D01*
X101594700Y-72460900D01*
X101594700Y-72065100D01*
X101595533Y-72048153D01*
X101598022Y-72031369D01*
X101602145Y-72014910D01*
X101607861Y-71998934D01*
X101615116Y-71983596D01*
X101623839Y-71969042D01*
X101633946Y-71955413D01*
X101645341Y-71942841D01*
X101657913Y-71931446D01*
X101671542Y-71921339D01*
X101686096Y-71912616D01*
X101701434Y-71905361D01*
X101717410Y-71899645D01*
X101733869Y-71895522D01*
X101750653Y-71893033D01*
X101767600Y-71892200D01*
X102113400Y-71892200D01*
X102130347Y-71893033D01*
X102130347Y-71893033D01*
G37*
D15*
X101940500Y-72263000D03*
D14*
G36*
X118705847Y-68448533D02*
G01*
X118722631Y-68451022D01*
X118739090Y-68455145D01*
X118755066Y-68460861D01*
X118770404Y-68468116D01*
X118784958Y-68476839D01*
X118798587Y-68486946D01*
X118811159Y-68498341D01*
X118822554Y-68510913D01*
X118832661Y-68524542D01*
X118841384Y-68539096D01*
X118848639Y-68554434D01*
X118854355Y-68570410D01*
X118858478Y-68586869D01*
X118860967Y-68603653D01*
X118861800Y-68620600D01*
X118861800Y-68966400D01*
X118860967Y-68983347D01*
X118858478Y-69000131D01*
X118854355Y-69016590D01*
X118848639Y-69032566D01*
X118841384Y-69047904D01*
X118832661Y-69062458D01*
X118822554Y-69076087D01*
X118811159Y-69088659D01*
X118798587Y-69100054D01*
X118784958Y-69110161D01*
X118770404Y-69118884D01*
X118755066Y-69126139D01*
X118739090Y-69131855D01*
X118722631Y-69135978D01*
X118705847Y-69138467D01*
X118688900Y-69139300D01*
X118293100Y-69139300D01*
X118276153Y-69138467D01*
X118259369Y-69135978D01*
X118242910Y-69131855D01*
X118226934Y-69126139D01*
X118211596Y-69118884D01*
X118197042Y-69110161D01*
X118183413Y-69100054D01*
X118170841Y-69088659D01*
X118159446Y-69076087D01*
X118149339Y-69062458D01*
X118140616Y-69047904D01*
X118133361Y-69032566D01*
X118127645Y-69016590D01*
X118123522Y-69000131D01*
X118121033Y-68983347D01*
X118120200Y-68966400D01*
X118120200Y-68620600D01*
X118121033Y-68603653D01*
X118123522Y-68586869D01*
X118127645Y-68570410D01*
X118133361Y-68554434D01*
X118140616Y-68539096D01*
X118149339Y-68524542D01*
X118159446Y-68510913D01*
X118170841Y-68498341D01*
X118183413Y-68486946D01*
X118197042Y-68476839D01*
X118211596Y-68468116D01*
X118226934Y-68460861D01*
X118242910Y-68455145D01*
X118259369Y-68451022D01*
X118276153Y-68448533D01*
X118293100Y-68447700D01*
X118688900Y-68447700D01*
X118705847Y-68448533D01*
X118705847Y-68448533D01*
G37*
D15*
X118491000Y-68793500D03*
D14*
G36*
X118705847Y-69418533D02*
G01*
X118722631Y-69421022D01*
X118739090Y-69425145D01*
X118755066Y-69430861D01*
X118770404Y-69438116D01*
X118784958Y-69446839D01*
X118798587Y-69456946D01*
X118811159Y-69468341D01*
X118822554Y-69480913D01*
X118832661Y-69494542D01*
X118841384Y-69509096D01*
X118848639Y-69524434D01*
X118854355Y-69540410D01*
X118858478Y-69556869D01*
X118860967Y-69573653D01*
X118861800Y-69590600D01*
X118861800Y-69936400D01*
X118860967Y-69953347D01*
X118858478Y-69970131D01*
X118854355Y-69986590D01*
X118848639Y-70002566D01*
X118841384Y-70017904D01*
X118832661Y-70032458D01*
X118822554Y-70046087D01*
X118811159Y-70058659D01*
X118798587Y-70070054D01*
X118784958Y-70080161D01*
X118770404Y-70088884D01*
X118755066Y-70096139D01*
X118739090Y-70101855D01*
X118722631Y-70105978D01*
X118705847Y-70108467D01*
X118688900Y-70109300D01*
X118293100Y-70109300D01*
X118276153Y-70108467D01*
X118259369Y-70105978D01*
X118242910Y-70101855D01*
X118226934Y-70096139D01*
X118211596Y-70088884D01*
X118197042Y-70080161D01*
X118183413Y-70070054D01*
X118170841Y-70058659D01*
X118159446Y-70046087D01*
X118149339Y-70032458D01*
X118140616Y-70017904D01*
X118133361Y-70002566D01*
X118127645Y-69986590D01*
X118123522Y-69970131D01*
X118121033Y-69953347D01*
X118120200Y-69936400D01*
X118120200Y-69590600D01*
X118121033Y-69573653D01*
X118123522Y-69556869D01*
X118127645Y-69540410D01*
X118133361Y-69524434D01*
X118140616Y-69509096D01*
X118149339Y-69494542D01*
X118159446Y-69480913D01*
X118170841Y-69468341D01*
X118183413Y-69456946D01*
X118197042Y-69446839D01*
X118211596Y-69438116D01*
X118226934Y-69430861D01*
X118242910Y-69425145D01*
X118259369Y-69421022D01*
X118276153Y-69418533D01*
X118293100Y-69417700D01*
X118688900Y-69417700D01*
X118705847Y-69418533D01*
X118705847Y-69418533D01*
G37*
D15*
X118491000Y-69763500D03*
D14*
G36*
X105432347Y-64527033D02*
G01*
X105449131Y-64529522D01*
X105465590Y-64533645D01*
X105481566Y-64539361D01*
X105496904Y-64546616D01*
X105511458Y-64555339D01*
X105525087Y-64565446D01*
X105537659Y-64576841D01*
X105549054Y-64589413D01*
X105559161Y-64603042D01*
X105567884Y-64617596D01*
X105575139Y-64632934D01*
X105580855Y-64648910D01*
X105584978Y-64665369D01*
X105587467Y-64682153D01*
X105588300Y-64699100D01*
X105588300Y-65094900D01*
X105587467Y-65111847D01*
X105584978Y-65128631D01*
X105580855Y-65145090D01*
X105575139Y-65161066D01*
X105567884Y-65176404D01*
X105559161Y-65190958D01*
X105549054Y-65204587D01*
X105537659Y-65217159D01*
X105525087Y-65228554D01*
X105511458Y-65238661D01*
X105496904Y-65247384D01*
X105481566Y-65254639D01*
X105465590Y-65260355D01*
X105449131Y-65264478D01*
X105432347Y-65266967D01*
X105415400Y-65267800D01*
X105069600Y-65267800D01*
X105052653Y-65266967D01*
X105035869Y-65264478D01*
X105019410Y-65260355D01*
X105003434Y-65254639D01*
X104988096Y-65247384D01*
X104973542Y-65238661D01*
X104959913Y-65228554D01*
X104947341Y-65217159D01*
X104935946Y-65204587D01*
X104925839Y-65190958D01*
X104917116Y-65176404D01*
X104909861Y-65161066D01*
X104904145Y-65145090D01*
X104900022Y-65128631D01*
X104897533Y-65111847D01*
X104896700Y-65094900D01*
X104896700Y-64699100D01*
X104897533Y-64682153D01*
X104900022Y-64665369D01*
X104904145Y-64648910D01*
X104909861Y-64632934D01*
X104917116Y-64617596D01*
X104925839Y-64603042D01*
X104935946Y-64589413D01*
X104947341Y-64576841D01*
X104959913Y-64565446D01*
X104973542Y-64555339D01*
X104988096Y-64546616D01*
X105003434Y-64539361D01*
X105019410Y-64533645D01*
X105035869Y-64529522D01*
X105052653Y-64527033D01*
X105069600Y-64526200D01*
X105415400Y-64526200D01*
X105432347Y-64527033D01*
X105432347Y-64527033D01*
G37*
D15*
X105242500Y-64897000D03*
D14*
G36*
X106402347Y-64527033D02*
G01*
X106419131Y-64529522D01*
X106435590Y-64533645D01*
X106451566Y-64539361D01*
X106466904Y-64546616D01*
X106481458Y-64555339D01*
X106495087Y-64565446D01*
X106507659Y-64576841D01*
X106519054Y-64589413D01*
X106529161Y-64603042D01*
X106537884Y-64617596D01*
X106545139Y-64632934D01*
X106550855Y-64648910D01*
X106554978Y-64665369D01*
X106557467Y-64682153D01*
X106558300Y-64699100D01*
X106558300Y-65094900D01*
X106557467Y-65111847D01*
X106554978Y-65128631D01*
X106550855Y-65145090D01*
X106545139Y-65161066D01*
X106537884Y-65176404D01*
X106529161Y-65190958D01*
X106519054Y-65204587D01*
X106507659Y-65217159D01*
X106495087Y-65228554D01*
X106481458Y-65238661D01*
X106466904Y-65247384D01*
X106451566Y-65254639D01*
X106435590Y-65260355D01*
X106419131Y-65264478D01*
X106402347Y-65266967D01*
X106385400Y-65267800D01*
X106039600Y-65267800D01*
X106022653Y-65266967D01*
X106005869Y-65264478D01*
X105989410Y-65260355D01*
X105973434Y-65254639D01*
X105958096Y-65247384D01*
X105943542Y-65238661D01*
X105929913Y-65228554D01*
X105917341Y-65217159D01*
X105905946Y-65204587D01*
X105895839Y-65190958D01*
X105887116Y-65176404D01*
X105879861Y-65161066D01*
X105874145Y-65145090D01*
X105870022Y-65128631D01*
X105867533Y-65111847D01*
X105866700Y-65094900D01*
X105866700Y-64699100D01*
X105867533Y-64682153D01*
X105870022Y-64665369D01*
X105874145Y-64648910D01*
X105879861Y-64632934D01*
X105887116Y-64617596D01*
X105895839Y-64603042D01*
X105905946Y-64589413D01*
X105917341Y-64576841D01*
X105929913Y-64565446D01*
X105943542Y-64555339D01*
X105958096Y-64546616D01*
X105973434Y-64539361D01*
X105989410Y-64533645D01*
X106005869Y-64529522D01*
X106022653Y-64527033D01*
X106039600Y-64526200D01*
X106385400Y-64526200D01*
X106402347Y-64527033D01*
X106402347Y-64527033D01*
G37*
D15*
X106212500Y-64897000D03*
D14*
G36*
X115800347Y-62558533D02*
G01*
X115817131Y-62561022D01*
X115833590Y-62565145D01*
X115849566Y-62570861D01*
X115864904Y-62578116D01*
X115879458Y-62586839D01*
X115893087Y-62596946D01*
X115905659Y-62608341D01*
X115917054Y-62620913D01*
X115927161Y-62634542D01*
X115935884Y-62649096D01*
X115943139Y-62664434D01*
X115948855Y-62680410D01*
X115952978Y-62696869D01*
X115955467Y-62713653D01*
X115956300Y-62730600D01*
X115956300Y-63126400D01*
X115955467Y-63143347D01*
X115952978Y-63160131D01*
X115948855Y-63176590D01*
X115943139Y-63192566D01*
X115935884Y-63207904D01*
X115927161Y-63222458D01*
X115917054Y-63236087D01*
X115905659Y-63248659D01*
X115893087Y-63260054D01*
X115879458Y-63270161D01*
X115864904Y-63278884D01*
X115849566Y-63286139D01*
X115833590Y-63291855D01*
X115817131Y-63295978D01*
X115800347Y-63298467D01*
X115783400Y-63299300D01*
X115437600Y-63299300D01*
X115420653Y-63298467D01*
X115403869Y-63295978D01*
X115387410Y-63291855D01*
X115371434Y-63286139D01*
X115356096Y-63278884D01*
X115341542Y-63270161D01*
X115327913Y-63260054D01*
X115315341Y-63248659D01*
X115303946Y-63236087D01*
X115293839Y-63222458D01*
X115285116Y-63207904D01*
X115277861Y-63192566D01*
X115272145Y-63176590D01*
X115268022Y-63160131D01*
X115265533Y-63143347D01*
X115264700Y-63126400D01*
X115264700Y-62730600D01*
X115265533Y-62713653D01*
X115268022Y-62696869D01*
X115272145Y-62680410D01*
X115277861Y-62664434D01*
X115285116Y-62649096D01*
X115293839Y-62634542D01*
X115303946Y-62620913D01*
X115315341Y-62608341D01*
X115327913Y-62596946D01*
X115341542Y-62586839D01*
X115356096Y-62578116D01*
X115371434Y-62570861D01*
X115387410Y-62565145D01*
X115403869Y-62561022D01*
X115420653Y-62558533D01*
X115437600Y-62557700D01*
X115783400Y-62557700D01*
X115800347Y-62558533D01*
X115800347Y-62558533D01*
G37*
D15*
X115610500Y-62928500D03*
D14*
G36*
X114830347Y-62558533D02*
G01*
X114847131Y-62561022D01*
X114863590Y-62565145D01*
X114879566Y-62570861D01*
X114894904Y-62578116D01*
X114909458Y-62586839D01*
X114923087Y-62596946D01*
X114935659Y-62608341D01*
X114947054Y-62620913D01*
X114957161Y-62634542D01*
X114965884Y-62649096D01*
X114973139Y-62664434D01*
X114978855Y-62680410D01*
X114982978Y-62696869D01*
X114985467Y-62713653D01*
X114986300Y-62730600D01*
X114986300Y-63126400D01*
X114985467Y-63143347D01*
X114982978Y-63160131D01*
X114978855Y-63176590D01*
X114973139Y-63192566D01*
X114965884Y-63207904D01*
X114957161Y-63222458D01*
X114947054Y-63236087D01*
X114935659Y-63248659D01*
X114923087Y-63260054D01*
X114909458Y-63270161D01*
X114894904Y-63278884D01*
X114879566Y-63286139D01*
X114863590Y-63291855D01*
X114847131Y-63295978D01*
X114830347Y-63298467D01*
X114813400Y-63299300D01*
X114467600Y-63299300D01*
X114450653Y-63298467D01*
X114433869Y-63295978D01*
X114417410Y-63291855D01*
X114401434Y-63286139D01*
X114386096Y-63278884D01*
X114371542Y-63270161D01*
X114357913Y-63260054D01*
X114345341Y-63248659D01*
X114333946Y-63236087D01*
X114323839Y-63222458D01*
X114315116Y-63207904D01*
X114307861Y-63192566D01*
X114302145Y-63176590D01*
X114298022Y-63160131D01*
X114295533Y-63143347D01*
X114294700Y-63126400D01*
X114294700Y-62730600D01*
X114295533Y-62713653D01*
X114298022Y-62696869D01*
X114302145Y-62680410D01*
X114307861Y-62664434D01*
X114315116Y-62649096D01*
X114323839Y-62634542D01*
X114333946Y-62620913D01*
X114345341Y-62608341D01*
X114357913Y-62596946D01*
X114371542Y-62586839D01*
X114386096Y-62578116D01*
X114401434Y-62570861D01*
X114417410Y-62565145D01*
X114433869Y-62561022D01*
X114450653Y-62558533D01*
X114467600Y-62557700D01*
X114813400Y-62557700D01*
X114830347Y-62558533D01*
X114830347Y-62558533D01*
G37*
D15*
X114640500Y-62928500D03*
M02*
