M48
INCH,TZ
T1C0.0150
T2C0.0157
T3C0.0236
%
G90
G05
T1
X40250Y-26300
X40250Y-26550
X41600Y-28200
X42077Y-25236
X42139Y-25777
X42475Y-24450
X42907Y-24986
X42907Y-25476
X43150Y-24100
X43167Y-26336
X43171Y-25215
X43407Y-25476
X43410Y-24976
X44075Y-24166
X44650Y-27775
X45000Y-25075
X45775Y-23950
X46300Y-24475
X46300Y-25075
X47275Y-26125
X47288Y-23379
X47350Y-24254
X47400Y-23700
X48000Y-18500
X48000Y-23900
X48125Y-24550
X48150Y-28775
X48525Y-24550
X48550Y-27625
X48650Y-29475
X48825Y-28225
X48825Y-28900
X48837Y-30023
X49025Y-29475
X49700Y-28500
X49725Y-27750
X49725Y-28125
X50100Y-27475
X50100Y-28825
T2
X36000Y-23000
X36000Y-23650
X39500Y-24650
X39500Y-25350
X39500Y-26050
T3
X43228Y-20276
X43602Y-20276
X43976Y-20276
X45945Y-20276
X46319Y-20276
X46693Y-20276
T0
M30
