%TF.GenerationSoftware,KiCad,Pcbnew,(5.1.4)-1*%
%TF.CreationDate,2019-10-25T20:37:58-07:00*%
%TF.ProjectId,SolarCellZ_v1,536f6c61-7243-4656-9c6c-5a5f76312e6b,rev?*%
%TF.SameCoordinates,Original*%
%TF.FileFunction,Legend,Top*%
%TF.FilePolarity,Positive*%
%FSLAX46Y46*%
G04 Gerber Fmt 4.6, Leading zero omitted, Abs format (unit mm)*
G04 Created by KiCad (PCBNEW (5.1.4)-1) date 2019-10-25 20:37:58*
%MOMM*%
%LPD*%
G04 APERTURE LIST*
%ADD10C,0.127000*%
%ADD11C,0.203200*%
%ADD12C,0.120000*%
%ADD13C,0.050000*%
%ADD14C,0.010000*%
%ADD15C,0.100000*%
%ADD16C,0.150000*%
G04 APERTURE END LIST*
D10*
X127928309Y-70137261D02*
X128321404Y-70137261D01*
X128109738Y-70379166D01*
X128200452Y-70379166D01*
X128260928Y-70409404D01*
X128291166Y-70439642D01*
X128321404Y-70500119D01*
X128321404Y-70651309D01*
X128291166Y-70711785D01*
X128260928Y-70742023D01*
X128200452Y-70772261D01*
X128019023Y-70772261D01*
X127958547Y-70742023D01*
X127928309Y-70711785D01*
X128502833Y-70137261D02*
X128714500Y-70772261D01*
X128926166Y-70137261D01*
X129077357Y-70137261D02*
X129470452Y-70137261D01*
X129258785Y-70379166D01*
X129349500Y-70379166D01*
X129409976Y-70409404D01*
X129440214Y-70439642D01*
X129470452Y-70500119D01*
X129470452Y-70651309D01*
X129440214Y-70711785D01*
X129409976Y-70742023D01*
X129349500Y-70772261D01*
X129168071Y-70772261D01*
X129107595Y-70742023D01*
X129077357Y-70711785D01*
D11*
X121484571Y-74757642D02*
X122355428Y-74757642D01*
X121920000Y-75193071D02*
X121920000Y-74322214D01*
D10*
X128294190Y-72199500D02*
X128233714Y-72169261D01*
X128143000Y-72169261D01*
X128052285Y-72199500D01*
X127991809Y-72259976D01*
X127961571Y-72320452D01*
X127931333Y-72441404D01*
X127931333Y-72532119D01*
X127961571Y-72653071D01*
X127991809Y-72713547D01*
X128052285Y-72774023D01*
X128143000Y-72804261D01*
X128203476Y-72804261D01*
X128294190Y-72774023D01*
X128324428Y-72743785D01*
X128324428Y-72532119D01*
X128203476Y-72532119D01*
X128596571Y-72804261D02*
X128596571Y-72169261D01*
X128959428Y-72804261D01*
X128959428Y-72169261D01*
X129261809Y-72804261D02*
X129261809Y-72169261D01*
X129413000Y-72169261D01*
X129503714Y-72199500D01*
X129564190Y-72259976D01*
X129594428Y-72320452D01*
X129624666Y-72441404D01*
X129624666Y-72532119D01*
X129594428Y-72653071D01*
X129564190Y-72713547D01*
X129503714Y-72774023D01*
X129413000Y-72804261D01*
X129261809Y-72804261D01*
X123625428Y-72864738D02*
X123625428Y-73499738D01*
X123262571Y-72864738D01*
X123262571Y-73499738D01*
X123912690Y-77439761D02*
X123912690Y-76804761D01*
X124154595Y-76804761D01*
X124215071Y-76835000D01*
X124245309Y-76865238D01*
X124275547Y-76925714D01*
X124275547Y-77016428D01*
X124245309Y-77076904D01*
X124215071Y-77107142D01*
X124154595Y-77137380D01*
X123912690Y-77137380D01*
D11*
X125739071Y-74757642D02*
X126609928Y-74757642D01*
D12*
X124079000Y-74866500D02*
X123761500Y-74866500D01*
X123126500Y-74866500D02*
X123444000Y-74866500D01*
X122872500Y-74866500D02*
X122555000Y-74866500D01*
X125412500Y-74866500D02*
X125095000Y-74866500D01*
X124460000Y-74866500D02*
X124777500Y-74866500D01*
D13*
X99200000Y-52750000D02*
X99200000Y-56250000D01*
X99200000Y-56250000D02*
X107400000Y-56250000D01*
X107400000Y-52750000D02*
X107400000Y-56250000D01*
X99200000Y-52750000D02*
X107400000Y-52750000D01*
X97100000Y-73400000D02*
G75*
G03X97100000Y-73400000I-2000000J0D01*
G01*
X136900000Y-73400000D02*
G75*
G03X136900000Y-73400000I-2000000J0D01*
G01*
X136900000Y-55000000D02*
G75*
G03X136900000Y-55000000I-2000000J0D01*
G01*
D12*
X97100000Y-55000000D02*
G75*
G03X97100000Y-55000000I-2000000J0D01*
G01*
D13*
X96200000Y-73400000D02*
G75*
G03X96200000Y-73400000I-1100000J0D01*
G01*
X136000000Y-73400000D02*
G75*
G03X136000000Y-73400000I-1100000J0D01*
G01*
X136000000Y-55000000D02*
G75*
G03X136000000Y-55000000I-1100000J0D01*
G01*
X96200000Y-55000000D02*
G75*
G03X96200000Y-55000000I-1100000J0D01*
G01*
X138400000Y-88400000D02*
X90000000Y-88400000D01*
X90000000Y-88400000D02*
X90000000Y-40000000D01*
X138400000Y-40000000D02*
X138400000Y-88400000D01*
X90000000Y-40000000D02*
X138400000Y-40000000D01*
D14*
G36*
X96393000Y-57875733D02*
G01*
X95579580Y-59056492D01*
X95472400Y-59212146D01*
X95369225Y-59362122D01*
X95270975Y-59505075D01*
X95178571Y-59639661D01*
X95092932Y-59764536D01*
X95014978Y-59878354D01*
X94945629Y-59979772D01*
X94885804Y-60067446D01*
X94836424Y-60140031D01*
X94798408Y-60196181D01*
X94772676Y-60234554D01*
X94760148Y-60253805D01*
X94759071Y-60255725D01*
X94760189Y-60259444D01*
X94767749Y-60262638D01*
X94783466Y-60265347D01*
X94809055Y-60267609D01*
X94846230Y-60269462D01*
X94896705Y-60270944D01*
X94962195Y-60272093D01*
X95044414Y-60272949D01*
X95145076Y-60273549D01*
X95265897Y-60273932D01*
X95408589Y-60274136D01*
X95574869Y-60274199D01*
X95585191Y-60274200D01*
X96418400Y-60274200D01*
X96418400Y-60934600D01*
X93687900Y-60934600D01*
X93687900Y-60495927D01*
X94526100Y-59290046D01*
X94635096Y-59133153D01*
X94739964Y-58982041D01*
X94839797Y-58838021D01*
X94933693Y-58702404D01*
X95020746Y-58576502D01*
X95100053Y-58461627D01*
X95170711Y-58359089D01*
X95231813Y-58270200D01*
X95282457Y-58196271D01*
X95321739Y-58138614D01*
X95348754Y-58098540D01*
X95362598Y-58077361D01*
X95364300Y-58074282D01*
X95351965Y-58072511D01*
X95316426Y-58070843D01*
X95259878Y-58069304D01*
X95184514Y-58067924D01*
X95092531Y-58066731D01*
X94986123Y-58065754D01*
X94867486Y-58065020D01*
X94738814Y-58064559D01*
X94602302Y-58064400D01*
X93840300Y-58064400D01*
X93840300Y-57404000D01*
X96393000Y-57404000D01*
X96393000Y-57875733D01*
X96393000Y-57875733D01*
G37*
X96393000Y-57875733D02*
X95579580Y-59056492D01*
X95472400Y-59212146D01*
X95369225Y-59362122D01*
X95270975Y-59505075D01*
X95178571Y-59639661D01*
X95092932Y-59764536D01*
X95014978Y-59878354D01*
X94945629Y-59979772D01*
X94885804Y-60067446D01*
X94836424Y-60140031D01*
X94798408Y-60196181D01*
X94772676Y-60234554D01*
X94760148Y-60253805D01*
X94759071Y-60255725D01*
X94760189Y-60259444D01*
X94767749Y-60262638D01*
X94783466Y-60265347D01*
X94809055Y-60267609D01*
X94846230Y-60269462D01*
X94896705Y-60270944D01*
X94962195Y-60272093D01*
X95044414Y-60272949D01*
X95145076Y-60273549D01*
X95265897Y-60273932D01*
X95408589Y-60274136D01*
X95574869Y-60274199D01*
X95585191Y-60274200D01*
X96418400Y-60274200D01*
X96418400Y-60934600D01*
X93687900Y-60934600D01*
X93687900Y-60495927D01*
X94526100Y-59290046D01*
X94635096Y-59133153D01*
X94739964Y-58982041D01*
X94839797Y-58838021D01*
X94933693Y-58702404D01*
X95020746Y-58576502D01*
X95100053Y-58461627D01*
X95170711Y-58359089D01*
X95231813Y-58270200D01*
X95282457Y-58196271D01*
X95321739Y-58138614D01*
X95348754Y-58098540D01*
X95362598Y-58077361D01*
X95364300Y-58074282D01*
X95351965Y-58072511D01*
X95316426Y-58070843D01*
X95259878Y-58069304D01*
X95184514Y-58067924D01*
X95092531Y-58066731D01*
X94986123Y-58065754D01*
X94867486Y-58065020D01*
X94738814Y-58064559D01*
X94602302Y-58064400D01*
X93840300Y-58064400D01*
X93840300Y-57404000D01*
X96393000Y-57404000D01*
X96393000Y-57875733D01*
D15*
X121561500Y-70487500D02*
G75*
G02X121461500Y-70487500I-50000J0D01*
G01*
X121461500Y-70487500D02*
G75*
G02X121561500Y-70487500I50000J0D01*
G01*
X121461500Y-70487500D02*
X121461500Y-70487500D01*
X121561500Y-70487500D02*
X121561500Y-70487500D01*
X123261500Y-72737500D02*
X124261500Y-72744500D01*
X123261500Y-70137500D02*
X124261500Y-70134500D01*
D12*
X132750000Y-45750000D02*
X134750000Y-45750000D01*
X117450000Y-45750000D02*
X119450000Y-45750000D01*
X118450000Y-44750000D02*
X118450000Y-46750000D01*
X114750000Y-49750000D02*
X114750000Y-41750000D01*
X137750000Y-49750000D02*
X114750000Y-49750000D01*
X137750000Y-41750000D02*
X137750000Y-49750000D01*
X114750000Y-41750000D02*
X137750000Y-41750000D01*
X95500000Y-45750000D02*
X93500000Y-45750000D01*
X110800000Y-45750000D02*
X108800000Y-45750000D01*
X109800000Y-46750000D02*
X109800000Y-44750000D01*
X113500000Y-41750000D02*
X113500000Y-49750000D01*
X90500000Y-41750000D02*
X113500000Y-41750000D01*
X90500000Y-49750000D02*
X90500000Y-41750000D01*
X113500000Y-49750000D02*
X90500000Y-49750000D01*
X127250000Y-57000000D02*
X129250000Y-57000000D01*
X111950000Y-57000000D02*
X113950000Y-57000000D01*
X112950000Y-56000000D02*
X112950000Y-58000000D01*
X109250000Y-61000000D02*
X109250000Y-53000000D01*
X132250000Y-61000000D02*
X109250000Y-61000000D01*
X132250000Y-53000000D02*
X132250000Y-61000000D01*
X109250000Y-53000000D02*
X132250000Y-53000000D01*
X132750000Y-65500000D02*
X134750000Y-65500000D01*
X117450000Y-65500000D02*
X119450000Y-65500000D01*
X118450000Y-64500000D02*
X118450000Y-66500000D01*
X114750000Y-69500000D02*
X114750000Y-61500000D01*
X137750000Y-69500000D02*
X114750000Y-69500000D01*
X137750000Y-61500000D02*
X137750000Y-69500000D01*
X114750000Y-61500000D02*
X137750000Y-61500000D01*
X108500000Y-65500000D02*
X110500000Y-65500000D01*
X93200000Y-65500000D02*
X95200000Y-65500000D01*
X94200000Y-64500000D02*
X94200000Y-66500000D01*
X90500000Y-69500000D02*
X90500000Y-61500000D01*
X113500000Y-69500000D02*
X90500000Y-69500000D01*
X113500000Y-61500000D02*
X113500000Y-69500000D01*
X90500000Y-61500000D02*
X113500000Y-61500000D01*
X116187000Y-74000000D02*
X118187000Y-74000000D01*
X100887000Y-74000000D02*
X102887000Y-74000000D01*
X101887000Y-73000000D02*
X101887000Y-75000000D01*
X98187000Y-78000000D02*
X98187000Y-70000000D01*
X121187000Y-78000000D02*
X98187000Y-78000000D01*
X121187000Y-70000000D02*
X121187000Y-78000000D01*
X98187000Y-70000000D02*
X121187000Y-70000000D01*
X119750000Y-82500000D02*
X117750000Y-82500000D01*
X135050000Y-82500000D02*
X133050000Y-82500000D01*
X134050000Y-83500000D02*
X134050000Y-81500000D01*
X137750000Y-78500000D02*
X137750000Y-86500000D01*
X114750000Y-78500000D02*
X137750000Y-78500000D01*
X114750000Y-86500000D02*
X114750000Y-78500000D01*
X137750000Y-86500000D02*
X114750000Y-86500000D01*
X108750000Y-82500000D02*
X110750000Y-82500000D01*
X93450000Y-82500000D02*
X95450000Y-82500000D01*
X94450000Y-81500000D02*
X94450000Y-83500000D01*
X90750000Y-86500000D02*
X90750000Y-78500000D01*
X113750000Y-86500000D02*
X90750000Y-86500000D01*
X113750000Y-78500000D02*
X113750000Y-86500000D01*
X90750000Y-78500000D02*
X113750000Y-78500000D01*
X126200000Y-52250000D02*
X126600000Y-52250000D01*
X125600000Y-50350000D02*
X128400000Y-50350000D01*
X125600000Y-52150000D02*
X125600000Y-50350000D01*
X128400000Y-52150000D02*
X125600000Y-52150000D01*
X128400000Y-50350000D02*
X128400000Y-52150000D01*
X128435000Y-76152500D02*
X128035000Y-76152500D01*
X129035000Y-78052500D02*
X126235000Y-78052500D01*
X129035000Y-76252500D02*
X129035000Y-78052500D01*
X126235000Y-76252500D02*
X129035000Y-76252500D01*
X126235000Y-78052500D02*
X126235000Y-76252500D01*
D16*
X113416666Y-50952380D02*
X113416666Y-51666666D01*
X113369047Y-51809523D01*
X113273809Y-51904761D01*
X113130952Y-51952380D01*
X113035714Y-51952380D01*
X113892857Y-51952380D02*
X113892857Y-50952380D01*
X114273809Y-50952380D01*
X114369047Y-51000000D01*
X114416666Y-51047619D01*
X114464285Y-51142857D01*
X114464285Y-51285714D01*
X114416666Y-51380952D01*
X114369047Y-51428571D01*
X114273809Y-51476190D01*
X113892857Y-51476190D01*
X115416666Y-51952380D02*
X114845238Y-51952380D01*
X115130952Y-51952380D02*
X115130952Y-50952380D01*
X115035714Y-51095238D01*
X114940476Y-51190476D01*
X114845238Y-51238095D01*
X125188095Y-46154761D02*
X125330952Y-46202380D01*
X125569047Y-46202380D01*
X125664285Y-46154761D01*
X125711904Y-46107142D01*
X125759523Y-46011904D01*
X125759523Y-45916666D01*
X125711904Y-45821428D01*
X125664285Y-45773809D01*
X125569047Y-45726190D01*
X125378571Y-45678571D01*
X125283333Y-45630952D01*
X125235714Y-45583333D01*
X125188095Y-45488095D01*
X125188095Y-45392857D01*
X125235714Y-45297619D01*
X125283333Y-45250000D01*
X125378571Y-45202380D01*
X125616666Y-45202380D01*
X125759523Y-45250000D01*
X126759523Y-46107142D02*
X126711904Y-46154761D01*
X126569047Y-46202380D01*
X126473809Y-46202380D01*
X126330952Y-46154761D01*
X126235714Y-46059523D01*
X126188095Y-45964285D01*
X126140476Y-45773809D01*
X126140476Y-45630952D01*
X126188095Y-45440476D01*
X126235714Y-45345238D01*
X126330952Y-45250000D01*
X126473809Y-45202380D01*
X126569047Y-45202380D01*
X126711904Y-45250000D01*
X126759523Y-45297619D01*
X127330952Y-45630952D02*
X127235714Y-45583333D01*
X127188095Y-45535714D01*
X127140476Y-45440476D01*
X127140476Y-45392857D01*
X127188095Y-45297619D01*
X127235714Y-45250000D01*
X127330952Y-45202380D01*
X127521428Y-45202380D01*
X127616666Y-45250000D01*
X127664285Y-45297619D01*
X127711904Y-45392857D01*
X127711904Y-45440476D01*
X127664285Y-45535714D01*
X127616666Y-45583333D01*
X127521428Y-45630952D01*
X127330952Y-45630952D01*
X127235714Y-45678571D01*
X127188095Y-45726190D01*
X127140476Y-45821428D01*
X127140476Y-46011904D01*
X127188095Y-46107142D01*
X127235714Y-46154761D01*
X127330952Y-46202380D01*
X127521428Y-46202380D01*
X127616666Y-46154761D01*
X127664285Y-46107142D01*
X127711904Y-46011904D01*
X127711904Y-45821428D01*
X127664285Y-45726190D01*
X127616666Y-45678571D01*
X127521428Y-45630952D01*
X100538095Y-46154761D02*
X100680952Y-46202380D01*
X100919047Y-46202380D01*
X101014285Y-46154761D01*
X101061904Y-46107142D01*
X101109523Y-46011904D01*
X101109523Y-45916666D01*
X101061904Y-45821428D01*
X101014285Y-45773809D01*
X100919047Y-45726190D01*
X100728571Y-45678571D01*
X100633333Y-45630952D01*
X100585714Y-45583333D01*
X100538095Y-45488095D01*
X100538095Y-45392857D01*
X100585714Y-45297619D01*
X100633333Y-45250000D01*
X100728571Y-45202380D01*
X100966666Y-45202380D01*
X101109523Y-45250000D01*
X102109523Y-46107142D02*
X102061904Y-46154761D01*
X101919047Y-46202380D01*
X101823809Y-46202380D01*
X101680952Y-46154761D01*
X101585714Y-46059523D01*
X101538095Y-45964285D01*
X101490476Y-45773809D01*
X101490476Y-45630952D01*
X101538095Y-45440476D01*
X101585714Y-45345238D01*
X101680952Y-45250000D01*
X101823809Y-45202380D01*
X101919047Y-45202380D01*
X102061904Y-45250000D01*
X102109523Y-45297619D01*
X102442857Y-45202380D02*
X103109523Y-45202380D01*
X102680952Y-46202380D01*
X119688095Y-57404761D02*
X119830952Y-57452380D01*
X120069047Y-57452380D01*
X120164285Y-57404761D01*
X120211904Y-57357142D01*
X120259523Y-57261904D01*
X120259523Y-57166666D01*
X120211904Y-57071428D01*
X120164285Y-57023809D01*
X120069047Y-56976190D01*
X119878571Y-56928571D01*
X119783333Y-56880952D01*
X119735714Y-56833333D01*
X119688095Y-56738095D01*
X119688095Y-56642857D01*
X119735714Y-56547619D01*
X119783333Y-56500000D01*
X119878571Y-56452380D01*
X120116666Y-56452380D01*
X120259523Y-56500000D01*
X121259523Y-57357142D02*
X121211904Y-57404761D01*
X121069047Y-57452380D01*
X120973809Y-57452380D01*
X120830952Y-57404761D01*
X120735714Y-57309523D01*
X120688095Y-57214285D01*
X120640476Y-57023809D01*
X120640476Y-56880952D01*
X120688095Y-56690476D01*
X120735714Y-56595238D01*
X120830952Y-56500000D01*
X120973809Y-56452380D01*
X121069047Y-56452380D01*
X121211904Y-56500000D01*
X121259523Y-56547619D01*
X122116666Y-56452380D02*
X121926190Y-56452380D01*
X121830952Y-56500000D01*
X121783333Y-56547619D01*
X121688095Y-56690476D01*
X121640476Y-56880952D01*
X121640476Y-57261904D01*
X121688095Y-57357142D01*
X121735714Y-57404761D01*
X121830952Y-57452380D01*
X122021428Y-57452380D01*
X122116666Y-57404761D01*
X122164285Y-57357142D01*
X122211904Y-57261904D01*
X122211904Y-57023809D01*
X122164285Y-56928571D01*
X122116666Y-56880952D01*
X122021428Y-56833333D01*
X121830952Y-56833333D01*
X121735714Y-56880952D01*
X121688095Y-56928571D01*
X121640476Y-57023809D01*
X125188095Y-65904761D02*
X125330952Y-65952380D01*
X125569047Y-65952380D01*
X125664285Y-65904761D01*
X125711904Y-65857142D01*
X125759523Y-65761904D01*
X125759523Y-65666666D01*
X125711904Y-65571428D01*
X125664285Y-65523809D01*
X125569047Y-65476190D01*
X125378571Y-65428571D01*
X125283333Y-65380952D01*
X125235714Y-65333333D01*
X125188095Y-65238095D01*
X125188095Y-65142857D01*
X125235714Y-65047619D01*
X125283333Y-65000000D01*
X125378571Y-64952380D01*
X125616666Y-64952380D01*
X125759523Y-65000000D01*
X126759523Y-65857142D02*
X126711904Y-65904761D01*
X126569047Y-65952380D01*
X126473809Y-65952380D01*
X126330952Y-65904761D01*
X126235714Y-65809523D01*
X126188095Y-65714285D01*
X126140476Y-65523809D01*
X126140476Y-65380952D01*
X126188095Y-65190476D01*
X126235714Y-65095238D01*
X126330952Y-65000000D01*
X126473809Y-64952380D01*
X126569047Y-64952380D01*
X126711904Y-65000000D01*
X126759523Y-65047619D01*
X127664285Y-64952380D02*
X127188095Y-64952380D01*
X127140476Y-65428571D01*
X127188095Y-65380952D01*
X127283333Y-65333333D01*
X127521428Y-65333333D01*
X127616666Y-65380952D01*
X127664285Y-65428571D01*
X127711904Y-65523809D01*
X127711904Y-65761904D01*
X127664285Y-65857142D01*
X127616666Y-65904761D01*
X127521428Y-65952380D01*
X127283333Y-65952380D01*
X127188095Y-65904761D01*
X127140476Y-65857142D01*
X100938095Y-65904761D02*
X101080952Y-65952380D01*
X101319047Y-65952380D01*
X101414285Y-65904761D01*
X101461904Y-65857142D01*
X101509523Y-65761904D01*
X101509523Y-65666666D01*
X101461904Y-65571428D01*
X101414285Y-65523809D01*
X101319047Y-65476190D01*
X101128571Y-65428571D01*
X101033333Y-65380952D01*
X100985714Y-65333333D01*
X100938095Y-65238095D01*
X100938095Y-65142857D01*
X100985714Y-65047619D01*
X101033333Y-65000000D01*
X101128571Y-64952380D01*
X101366666Y-64952380D01*
X101509523Y-65000000D01*
X102509523Y-65857142D02*
X102461904Y-65904761D01*
X102319047Y-65952380D01*
X102223809Y-65952380D01*
X102080952Y-65904761D01*
X101985714Y-65809523D01*
X101938095Y-65714285D01*
X101890476Y-65523809D01*
X101890476Y-65380952D01*
X101938095Y-65190476D01*
X101985714Y-65095238D01*
X102080952Y-65000000D01*
X102223809Y-64952380D01*
X102319047Y-64952380D01*
X102461904Y-65000000D01*
X102509523Y-65047619D01*
X103366666Y-65285714D02*
X103366666Y-65952380D01*
X103128571Y-64904761D02*
X102890476Y-65619047D01*
X103509523Y-65619047D01*
X108625095Y-74404761D02*
X108767952Y-74452380D01*
X109006047Y-74452380D01*
X109101285Y-74404761D01*
X109148904Y-74357142D01*
X109196523Y-74261904D01*
X109196523Y-74166666D01*
X109148904Y-74071428D01*
X109101285Y-74023809D01*
X109006047Y-73976190D01*
X108815571Y-73928571D01*
X108720333Y-73880952D01*
X108672714Y-73833333D01*
X108625095Y-73738095D01*
X108625095Y-73642857D01*
X108672714Y-73547619D01*
X108720333Y-73500000D01*
X108815571Y-73452380D01*
X109053666Y-73452380D01*
X109196523Y-73500000D01*
X110196523Y-74357142D02*
X110148904Y-74404761D01*
X110006047Y-74452380D01*
X109910809Y-74452380D01*
X109767952Y-74404761D01*
X109672714Y-74309523D01*
X109625095Y-74214285D01*
X109577476Y-74023809D01*
X109577476Y-73880952D01*
X109625095Y-73690476D01*
X109672714Y-73595238D01*
X109767952Y-73500000D01*
X109910809Y-73452380D01*
X110006047Y-73452380D01*
X110148904Y-73500000D01*
X110196523Y-73547619D01*
X110529857Y-73452380D02*
X111148904Y-73452380D01*
X110815571Y-73833333D01*
X110958428Y-73833333D01*
X111053666Y-73880952D01*
X111101285Y-73928571D01*
X111148904Y-74023809D01*
X111148904Y-74261904D01*
X111101285Y-74357142D01*
X111053666Y-74404761D01*
X110958428Y-74452380D01*
X110672714Y-74452380D01*
X110577476Y-74404761D01*
X110529857Y-74357142D01*
X124788095Y-82904761D02*
X124930952Y-82952380D01*
X125169047Y-82952380D01*
X125264285Y-82904761D01*
X125311904Y-82857142D01*
X125359523Y-82761904D01*
X125359523Y-82666666D01*
X125311904Y-82571428D01*
X125264285Y-82523809D01*
X125169047Y-82476190D01*
X124978571Y-82428571D01*
X124883333Y-82380952D01*
X124835714Y-82333333D01*
X124788095Y-82238095D01*
X124788095Y-82142857D01*
X124835714Y-82047619D01*
X124883333Y-82000000D01*
X124978571Y-81952380D01*
X125216666Y-81952380D01*
X125359523Y-82000000D01*
X126359523Y-82857142D02*
X126311904Y-82904761D01*
X126169047Y-82952380D01*
X126073809Y-82952380D01*
X125930952Y-82904761D01*
X125835714Y-82809523D01*
X125788095Y-82714285D01*
X125740476Y-82523809D01*
X125740476Y-82380952D01*
X125788095Y-82190476D01*
X125835714Y-82095238D01*
X125930952Y-82000000D01*
X126073809Y-81952380D01*
X126169047Y-81952380D01*
X126311904Y-82000000D01*
X126359523Y-82047619D01*
X126740476Y-82047619D02*
X126788095Y-82000000D01*
X126883333Y-81952380D01*
X127121428Y-81952380D01*
X127216666Y-82000000D01*
X127264285Y-82047619D01*
X127311904Y-82142857D01*
X127311904Y-82238095D01*
X127264285Y-82380952D01*
X126692857Y-82952380D01*
X127311904Y-82952380D01*
X101188095Y-82904761D02*
X101330952Y-82952380D01*
X101569047Y-82952380D01*
X101664285Y-82904761D01*
X101711904Y-82857142D01*
X101759523Y-82761904D01*
X101759523Y-82666666D01*
X101711904Y-82571428D01*
X101664285Y-82523809D01*
X101569047Y-82476190D01*
X101378571Y-82428571D01*
X101283333Y-82380952D01*
X101235714Y-82333333D01*
X101188095Y-82238095D01*
X101188095Y-82142857D01*
X101235714Y-82047619D01*
X101283333Y-82000000D01*
X101378571Y-81952380D01*
X101616666Y-81952380D01*
X101759523Y-82000000D01*
X102759523Y-82857142D02*
X102711904Y-82904761D01*
X102569047Y-82952380D01*
X102473809Y-82952380D01*
X102330952Y-82904761D01*
X102235714Y-82809523D01*
X102188095Y-82714285D01*
X102140476Y-82523809D01*
X102140476Y-82380952D01*
X102188095Y-82190476D01*
X102235714Y-82095238D01*
X102330952Y-82000000D01*
X102473809Y-81952380D01*
X102569047Y-81952380D01*
X102711904Y-82000000D01*
X102759523Y-82047619D01*
X103711904Y-82952380D02*
X103140476Y-82952380D01*
X103426190Y-82952380D02*
X103426190Y-81952380D01*
X103330952Y-82095238D01*
X103235714Y-82190476D01*
X103140476Y-82238095D01*
X126261904Y-49982380D02*
X126261904Y-48982380D01*
X126500000Y-48982380D01*
X126642857Y-49030000D01*
X126738095Y-49125238D01*
X126785714Y-49220476D01*
X126833333Y-49410952D01*
X126833333Y-49553809D01*
X126785714Y-49744285D01*
X126738095Y-49839523D01*
X126642857Y-49934761D01*
X126500000Y-49982380D01*
X126261904Y-49982380D01*
X127166666Y-48982380D02*
X127785714Y-48982380D01*
X127452380Y-49363333D01*
X127595238Y-49363333D01*
X127690476Y-49410952D01*
X127738095Y-49458571D01*
X127785714Y-49553809D01*
X127785714Y-49791904D01*
X127738095Y-49887142D01*
X127690476Y-49934761D01*
X127595238Y-49982380D01*
X127309523Y-49982380D01*
X127214285Y-49934761D01*
X127166666Y-49887142D01*
X131346904Y-77604880D02*
X131346904Y-76604880D01*
X131585000Y-76604880D01*
X131727857Y-76652500D01*
X131823095Y-76747738D01*
X131870714Y-76842976D01*
X131918333Y-77033452D01*
X131918333Y-77176309D01*
X131870714Y-77366785D01*
X131823095Y-77462023D01*
X131727857Y-77557261D01*
X131585000Y-77604880D01*
X131346904Y-77604880D01*
X132299285Y-76700119D02*
X132346904Y-76652500D01*
X132442142Y-76604880D01*
X132680238Y-76604880D01*
X132775476Y-76652500D01*
X132823095Y-76700119D01*
X132870714Y-76795357D01*
X132870714Y-76890595D01*
X132823095Y-77033452D01*
X132251666Y-77604880D01*
X132870714Y-77604880D01*
M02*
