%TF.GenerationSoftware,KiCad,Pcbnew,(5.1.4)-1*%
%TF.CreationDate,2019-10-25T20:37:58-07:00*%
%TF.ProjectId,SolarCellZ_v1,536f6c61-7243-4656-9c6c-5a5f76312e6b,rev?*%
%TF.SameCoordinates,Original*%
%TF.FileFunction,Legend,Bot*%
%TF.FilePolarity,Positive*%
%FSLAX46Y46*%
G04 Gerber Fmt 4.6, Leading zero omitted, Abs format (unit mm)*
G04 Created by KiCad (PCBNEW (5.1.4)-1) date 2019-10-25 20:37:58*
%MOMM*%
%LPD*%
G04 APERTURE LIST*
%ADD10C,0.150000*%
%ADD11C,0.050000*%
%ADD12C,0.203200*%
%ADD13C,0.120000*%
%ADD14C,0.200000*%
%ADD15C,0.250000*%
%ADD16C,0.254000*%
%ADD17C,0.127000*%
%ADD18C,0.101600*%
G04 APERTURE END LIST*
D10*
X221098857Y-125515642D02*
X221146476Y-125563261D01*
X221289333Y-125610880D01*
X221384571Y-125610880D01*
X221527428Y-125563261D01*
X221622666Y-125468023D01*
X221670285Y-125372785D01*
X221717904Y-125182309D01*
X221717904Y-125039452D01*
X221670285Y-124848976D01*
X221622666Y-124753738D01*
X221527428Y-124658500D01*
X221384571Y-124610880D01*
X221289333Y-124610880D01*
X221146476Y-124658500D01*
X221098857Y-124706119D01*
X220527428Y-125610880D02*
X220622666Y-125563261D01*
X220670285Y-125515642D01*
X220717904Y-125420404D01*
X220717904Y-125134690D01*
X220670285Y-125039452D01*
X220622666Y-124991833D01*
X220527428Y-124944214D01*
X220384571Y-124944214D01*
X220289333Y-124991833D01*
X220241714Y-125039452D01*
X220194095Y-125134690D01*
X220194095Y-125420404D01*
X220241714Y-125515642D01*
X220289333Y-125563261D01*
X220384571Y-125610880D01*
X220527428Y-125610880D01*
X219765523Y-125610880D02*
X219765523Y-124944214D01*
X219765523Y-124610880D02*
X219813142Y-124658500D01*
X219765523Y-124706119D01*
X219717904Y-124658500D01*
X219765523Y-124610880D01*
X219765523Y-124706119D01*
X219146476Y-125610880D02*
X219241714Y-125563261D01*
X219289333Y-125468023D01*
X219289333Y-124610880D01*
X218003619Y-125229928D02*
X217241714Y-125229928D01*
X221098857Y-122975642D02*
X221146476Y-123023261D01*
X221289333Y-123070880D01*
X221384571Y-123070880D01*
X221527428Y-123023261D01*
X221622666Y-122928023D01*
X221670285Y-122832785D01*
X221717904Y-122642309D01*
X221717904Y-122499452D01*
X221670285Y-122308976D01*
X221622666Y-122213738D01*
X221527428Y-122118500D01*
X221384571Y-122070880D01*
X221289333Y-122070880D01*
X221146476Y-122118500D01*
X221098857Y-122166119D01*
X220527428Y-123070880D02*
X220622666Y-123023261D01*
X220670285Y-122975642D01*
X220717904Y-122880404D01*
X220717904Y-122594690D01*
X220670285Y-122499452D01*
X220622666Y-122451833D01*
X220527428Y-122404214D01*
X220384571Y-122404214D01*
X220289333Y-122451833D01*
X220241714Y-122499452D01*
X220194095Y-122594690D01*
X220194095Y-122880404D01*
X220241714Y-122975642D01*
X220289333Y-123023261D01*
X220384571Y-123070880D01*
X220527428Y-123070880D01*
X219765523Y-123070880D02*
X219765523Y-122404214D01*
X219765523Y-122070880D02*
X219813142Y-122118500D01*
X219765523Y-122166119D01*
X219717904Y-122118500D01*
X219765523Y-122070880D01*
X219765523Y-122166119D01*
X219146476Y-123070880D02*
X219241714Y-123023261D01*
X219289333Y-122928023D01*
X219289333Y-122070880D01*
X218003619Y-122689928D02*
X217241714Y-122689928D01*
X217622666Y-123070880D02*
X217622666Y-122308976D01*
X98670857Y-66524142D02*
X98718476Y-66571761D01*
X98861333Y-66619380D01*
X98956571Y-66619380D01*
X99099428Y-66571761D01*
X99194666Y-66476523D01*
X99242285Y-66381285D01*
X99289904Y-66190809D01*
X99289904Y-66047952D01*
X99242285Y-65857476D01*
X99194666Y-65762238D01*
X99099428Y-65667000D01*
X98956571Y-65619380D01*
X98861333Y-65619380D01*
X98718476Y-65667000D01*
X98670857Y-65714619D01*
X98099428Y-66619380D02*
X98194666Y-66571761D01*
X98242285Y-66524142D01*
X98289904Y-66428904D01*
X98289904Y-66143190D01*
X98242285Y-66047952D01*
X98194666Y-66000333D01*
X98099428Y-65952714D01*
X97956571Y-65952714D01*
X97861333Y-66000333D01*
X97813714Y-66047952D01*
X97766095Y-66143190D01*
X97766095Y-66428904D01*
X97813714Y-66524142D01*
X97861333Y-66571761D01*
X97956571Y-66619380D01*
X98099428Y-66619380D01*
X97337523Y-66619380D02*
X97337523Y-65952714D01*
X97337523Y-65619380D02*
X97385142Y-65667000D01*
X97337523Y-65714619D01*
X97289904Y-65667000D01*
X97337523Y-65619380D01*
X97337523Y-65714619D01*
X96718476Y-66619380D02*
X96813714Y-66571761D01*
X96861333Y-66476523D01*
X96861333Y-65619380D01*
X95575619Y-66238428D02*
X94813714Y-66238428D01*
X98797857Y-62904642D02*
X98845476Y-62952261D01*
X98988333Y-62999880D01*
X99083571Y-62999880D01*
X99226428Y-62952261D01*
X99321666Y-62857023D01*
X99369285Y-62761785D01*
X99416904Y-62571309D01*
X99416904Y-62428452D01*
X99369285Y-62237976D01*
X99321666Y-62142738D01*
X99226428Y-62047500D01*
X99083571Y-61999880D01*
X98988333Y-61999880D01*
X98845476Y-62047500D01*
X98797857Y-62095119D01*
X98226428Y-62999880D02*
X98321666Y-62952261D01*
X98369285Y-62904642D01*
X98416904Y-62809404D01*
X98416904Y-62523690D01*
X98369285Y-62428452D01*
X98321666Y-62380833D01*
X98226428Y-62333214D01*
X98083571Y-62333214D01*
X97988333Y-62380833D01*
X97940714Y-62428452D01*
X97893095Y-62523690D01*
X97893095Y-62809404D01*
X97940714Y-62904642D01*
X97988333Y-62952261D01*
X98083571Y-62999880D01*
X98226428Y-62999880D01*
X97464523Y-62999880D02*
X97464523Y-62333214D01*
X97464523Y-61999880D02*
X97512142Y-62047500D01*
X97464523Y-62095119D01*
X97416904Y-62047500D01*
X97464523Y-61999880D01*
X97464523Y-62095119D01*
X96845476Y-62999880D02*
X96940714Y-62952261D01*
X96988333Y-62857023D01*
X96988333Y-61999880D01*
X95702619Y-62618928D02*
X94940714Y-62618928D01*
X95321666Y-62999880D02*
X95321666Y-62237976D01*
D11*
X99200000Y-52750000D02*
X99200000Y-56250000D01*
X99200000Y-56250000D02*
X107400000Y-56250000D01*
X107400000Y-52750000D02*
X107400000Y-56250000D01*
X99200000Y-52750000D02*
X107400000Y-52750000D01*
X96200000Y-73400000D02*
G75*
G03X96200000Y-73400000I-1100000J0D01*
G01*
X136000000Y-73400000D02*
G75*
G03X136000000Y-73400000I-1100000J0D01*
G01*
X136000000Y-55000000D02*
G75*
G03X136000000Y-55000000I-1100000J0D01*
G01*
X96200000Y-55000000D02*
G75*
G03X96200000Y-55000000I-1100000J0D01*
G01*
X138400000Y-88400000D02*
X90000000Y-88400000D01*
X90000000Y-88400000D02*
X90000000Y-40000000D01*
X138400000Y-40000000D02*
X138400000Y-88400000D01*
X90000000Y-40000000D02*
X138400000Y-40000000D01*
D12*
X114354700Y-45440600D02*
G75*
G03X114354700Y-45440600I-143600J0D01*
G01*
D13*
X118556500Y-50411500D02*
X120016500Y-50411500D01*
X118556500Y-47251500D02*
X120716500Y-47251500D01*
X118556500Y-47251500D02*
X118556500Y-48181500D01*
X118556500Y-50411500D02*
X118556500Y-49481500D01*
D14*
X102280000Y-71300000D02*
G75*
G03X102280000Y-71300000I-19000J0D01*
G01*
D13*
X115508500Y-60797221D02*
X115508500Y-61122779D01*
X114488500Y-60797221D02*
X114488500Y-61122779D01*
X120741221Y-66800000D02*
X121066779Y-66800000D01*
X120741221Y-67820000D02*
X121066779Y-67820000D01*
D15*
X107599160Y-65848656D02*
G75*
G03X107599160Y-65848656I-125000J0D01*
G01*
D14*
X116833000Y-66622000D02*
G75*
G03X116833000Y-66622000I-19000J0D01*
G01*
X118935500Y-65210000D02*
X118935500Y-63660000D01*
X118935500Y-56710000D02*
X118935500Y-58260000D01*
X118935500Y-65210000D02*
X121785500Y-65210000D01*
X118935500Y-56710000D02*
X121785500Y-56710000D01*
X123815500Y-56710000D02*
X123815500Y-65210000D01*
D13*
X120614221Y-69213000D02*
X120939779Y-69213000D01*
X120614221Y-70233000D02*
X120939779Y-70233000D01*
D16*
X111013240Y-68927980D02*
G75*
G03X111013240Y-68927980I-127000J0D01*
G01*
D17*
X114105690Y-70877430D02*
X112746790Y-70877430D01*
X112746790Y-66978530D02*
X114105690Y-66978530D01*
D16*
X103124000Y-68961000D02*
G75*
G03X103124000Y-68961000I-127000J0D01*
G01*
D17*
X106216450Y-70910450D02*
X104857550Y-70910450D01*
X104857550Y-67011550D02*
X106216450Y-67011550D01*
D13*
X109438221Y-71753000D02*
X109763779Y-71753000D01*
X109438221Y-72773000D02*
X109763779Y-72773000D01*
D11*
X112841892Y-46542675D02*
X113101055Y-46542675D01*
X113131545Y-46557920D01*
X113146790Y-46573165D01*
X113162035Y-46603655D01*
X113162035Y-46664634D01*
X113146790Y-46695124D01*
X113131545Y-46710369D01*
X113101055Y-46725614D01*
X112841892Y-46725614D01*
X113162035Y-47045757D02*
X113162035Y-46862818D01*
X113162035Y-46954287D02*
X112841892Y-46954287D01*
X112887627Y-46923798D01*
X112918117Y-46893308D01*
X112933362Y-46862818D01*
D10*
X118816380Y-43521333D02*
X118340190Y-43188000D01*
X118816380Y-42949904D02*
X117816380Y-42949904D01*
X117816380Y-43330857D01*
X117864000Y-43426095D01*
X117911619Y-43473714D01*
X118006857Y-43521333D01*
X118149714Y-43521333D01*
X118244952Y-43473714D01*
X118292571Y-43426095D01*
X118340190Y-43330857D01*
X118340190Y-42949904D01*
X117816380Y-44426095D02*
X117816380Y-43949904D01*
X118292571Y-43902285D01*
X118244952Y-43949904D01*
X118197333Y-44045142D01*
X118197333Y-44283238D01*
X118244952Y-44378476D01*
X118292571Y-44426095D01*
X118387809Y-44473714D01*
X118625904Y-44473714D01*
X118721142Y-44426095D01*
X118768761Y-44378476D01*
X118816380Y-44283238D01*
X118816380Y-44045142D01*
X118768761Y-43949904D01*
X118721142Y-43902285D01*
X120848380Y-43521333D02*
X120372190Y-43188000D01*
X120848380Y-42949904D02*
X119848380Y-42949904D01*
X119848380Y-43330857D01*
X119896000Y-43426095D01*
X119943619Y-43473714D01*
X120038857Y-43521333D01*
X120181714Y-43521333D01*
X120276952Y-43473714D01*
X120324571Y-43426095D01*
X120372190Y-43330857D01*
X120372190Y-42949904D01*
X120181714Y-44378476D02*
X120848380Y-44378476D01*
X119800761Y-44140380D02*
X120515047Y-43902285D01*
X120515047Y-44521333D01*
X123642380Y-48093333D02*
X123166190Y-47760000D01*
X123642380Y-47521904D02*
X122642380Y-47521904D01*
X122642380Y-47902857D01*
X122690000Y-47998095D01*
X122737619Y-48045714D01*
X122832857Y-48093333D01*
X122975714Y-48093333D01*
X123070952Y-48045714D01*
X123118571Y-47998095D01*
X123166190Y-47902857D01*
X123166190Y-47521904D01*
X122642380Y-48426666D02*
X122642380Y-49045714D01*
X123023333Y-48712380D01*
X123023333Y-48855238D01*
X123070952Y-48950476D01*
X123118571Y-48998095D01*
X123213809Y-49045714D01*
X123451904Y-49045714D01*
X123547142Y-48998095D01*
X123594761Y-48950476D01*
X123642380Y-48855238D01*
X123642380Y-48569523D01*
X123594761Y-48474285D01*
X123547142Y-48426666D01*
X121507238Y-51601619D02*
X121602476Y-51554000D01*
X121697714Y-51458761D01*
X121840571Y-51315904D01*
X121935809Y-51268285D01*
X122031047Y-51268285D01*
X121983428Y-51506380D02*
X122078666Y-51458761D01*
X122173904Y-51363523D01*
X122221523Y-51173047D01*
X122221523Y-50839714D01*
X122173904Y-50649238D01*
X122078666Y-50554000D01*
X121983428Y-50506380D01*
X121792952Y-50506380D01*
X121697714Y-50554000D01*
X121602476Y-50649238D01*
X121554857Y-50839714D01*
X121554857Y-51173047D01*
X121602476Y-51363523D01*
X121697714Y-51458761D01*
X121792952Y-51506380D01*
X121983428Y-51506380D01*
X120602476Y-51506380D02*
X121173904Y-51506380D01*
X120888190Y-51506380D02*
X120888190Y-50506380D01*
X120983428Y-50649238D01*
X121078666Y-50744476D01*
X121173904Y-50792095D01*
D18*
X101182714Y-68906571D02*
X100420714Y-68906571D01*
X100420714Y-69088000D01*
X100457000Y-69196857D01*
X100529571Y-69269428D01*
X100602142Y-69305714D01*
X100747285Y-69342000D01*
X100856142Y-69342000D01*
X101001285Y-69305714D01*
X101073857Y-69269428D01*
X101146428Y-69196857D01*
X101182714Y-69088000D01*
X101182714Y-68906571D01*
X100420714Y-69596000D02*
X100420714Y-70067714D01*
X100711000Y-69813714D01*
X100711000Y-69922571D01*
X100747285Y-69995142D01*
X100783571Y-70031428D01*
X100856142Y-70067714D01*
X101037571Y-70067714D01*
X101110142Y-70031428D01*
X101146428Y-69995142D01*
X101182714Y-69922571D01*
X101182714Y-69704857D01*
X101146428Y-69632285D01*
X101110142Y-69596000D01*
X124986142Y-68707000D02*
X125022428Y-68670714D01*
X125058714Y-68561857D01*
X125058714Y-68489285D01*
X125022428Y-68380428D01*
X124949857Y-68307857D01*
X124877285Y-68271571D01*
X124732142Y-68235285D01*
X124623285Y-68235285D01*
X124478142Y-68271571D01*
X124405571Y-68307857D01*
X124333000Y-68380428D01*
X124296714Y-68489285D01*
X124296714Y-68561857D01*
X124333000Y-68670714D01*
X124369285Y-68707000D01*
X125058714Y-69432714D02*
X125058714Y-68997285D01*
X125058714Y-69215000D02*
X124296714Y-69215000D01*
X124405571Y-69142428D01*
X124478142Y-69069857D01*
X124514428Y-68997285D01*
X115334142Y-58674000D02*
X115370428Y-58637714D01*
X115406714Y-58528857D01*
X115406714Y-58456285D01*
X115370428Y-58347428D01*
X115297857Y-58274857D01*
X115225285Y-58238571D01*
X115080142Y-58202285D01*
X114971285Y-58202285D01*
X114826142Y-58238571D01*
X114753571Y-58274857D01*
X114681000Y-58347428D01*
X114644714Y-58456285D01*
X114644714Y-58528857D01*
X114681000Y-58637714D01*
X114717285Y-58674000D01*
X114644714Y-59327142D02*
X114644714Y-59182000D01*
X114681000Y-59109428D01*
X114717285Y-59073142D01*
X114826142Y-59000571D01*
X114971285Y-58964285D01*
X115261571Y-58964285D01*
X115334142Y-59000571D01*
X115370428Y-59036857D01*
X115406714Y-59109428D01*
X115406714Y-59254571D01*
X115370428Y-59327142D01*
X115334142Y-59363428D01*
X115261571Y-59399714D01*
X115080142Y-59399714D01*
X115007571Y-59363428D01*
X114971285Y-59327142D01*
X114935000Y-59254571D01*
X114935000Y-59109428D01*
X114971285Y-59036857D01*
X115007571Y-59000571D01*
X115080142Y-58964285D01*
X109791500Y-70058642D02*
X109827785Y-70094928D01*
X109936642Y-70131214D01*
X110009214Y-70131214D01*
X110118071Y-70094928D01*
X110190642Y-70022357D01*
X110226928Y-69949785D01*
X110263214Y-69804642D01*
X110263214Y-69695785D01*
X110226928Y-69550642D01*
X110190642Y-69478071D01*
X110118071Y-69405500D01*
X110009214Y-69369214D01*
X109936642Y-69369214D01*
X109827785Y-69405500D01*
X109791500Y-69441785D01*
X109428642Y-70131214D02*
X109283500Y-70131214D01*
X109210928Y-70094928D01*
X109174642Y-70058642D01*
X109102071Y-69949785D01*
X109065785Y-69804642D01*
X109065785Y-69514357D01*
X109102071Y-69441785D01*
X109138357Y-69405500D01*
X109210928Y-69369214D01*
X109356071Y-69369214D01*
X109428642Y-69405500D01*
X109464928Y-69441785D01*
X109501214Y-69514357D01*
X109501214Y-69695785D01*
X109464928Y-69768357D01*
X109428642Y-69804642D01*
X109356071Y-69840928D01*
X109210928Y-69840928D01*
X109138357Y-69804642D01*
X109102071Y-69768357D01*
X109065785Y-69695785D01*
X124124357Y-67615142D02*
X124160642Y-67651428D01*
X124269500Y-67687714D01*
X124342071Y-67687714D01*
X124450928Y-67651428D01*
X124523500Y-67578857D01*
X124559785Y-67506285D01*
X124596071Y-67361142D01*
X124596071Y-67252285D01*
X124559785Y-67107142D01*
X124523500Y-67034571D01*
X124450928Y-66962000D01*
X124342071Y-66925714D01*
X124269500Y-66925714D01*
X124160642Y-66962000D01*
X124124357Y-66998285D01*
X123398642Y-67687714D02*
X123834071Y-67687714D01*
X123616357Y-67687714D02*
X123616357Y-66925714D01*
X123688928Y-67034571D01*
X123761500Y-67107142D01*
X123834071Y-67143428D01*
X122745500Y-67179714D02*
X122745500Y-67687714D01*
X122926928Y-66889428D02*
X123108357Y-67433714D01*
X122636642Y-67433714D01*
X103341714Y-63588174D02*
X102579714Y-63588174D01*
X102579714Y-63769602D01*
X102616000Y-63878460D01*
X102688571Y-63951031D01*
X102761142Y-63987317D01*
X102906285Y-64023602D01*
X103015142Y-64023602D01*
X103160285Y-63987317D01*
X103232857Y-63951031D01*
X103305428Y-63878460D01*
X103341714Y-63769602D01*
X103341714Y-63588174D01*
X103341714Y-64749317D02*
X103341714Y-64313888D01*
X103341714Y-64531602D02*
X102579714Y-64531602D01*
X102688571Y-64459031D01*
X102761142Y-64386460D01*
X102797428Y-64313888D01*
X110204731Y-63681370D02*
X110204731Y-64298227D01*
X110168445Y-64370798D01*
X110132160Y-64407084D01*
X110059588Y-64443370D01*
X109914445Y-64443370D01*
X109841874Y-64407084D01*
X109805588Y-64370798D01*
X109769302Y-64298227D01*
X109769302Y-63681370D01*
X109442731Y-63753941D02*
X109406445Y-63717656D01*
X109333874Y-63681370D01*
X109152445Y-63681370D01*
X109079874Y-63717656D01*
X109043588Y-63753941D01*
X109007302Y-63826513D01*
X109007302Y-63899084D01*
X109043588Y-64007941D01*
X109479017Y-64443370D01*
X109007302Y-64443370D01*
X116803714Y-65096571D02*
X116041714Y-65096571D01*
X116041714Y-65278000D01*
X116078000Y-65386857D01*
X116150571Y-65459428D01*
X116223142Y-65495714D01*
X116368285Y-65532000D01*
X116477142Y-65532000D01*
X116622285Y-65495714D01*
X116694857Y-65459428D01*
X116767428Y-65386857D01*
X116803714Y-65278000D01*
X116803714Y-65096571D01*
X116114285Y-65822285D02*
X116078000Y-65858571D01*
X116041714Y-65931142D01*
X116041714Y-66112571D01*
X116078000Y-66185142D01*
X116114285Y-66221428D01*
X116186857Y-66257714D01*
X116259428Y-66257714D01*
X116368285Y-66221428D01*
X116803714Y-65786000D01*
X116803714Y-66257714D01*
X106362500Y-59780714D02*
X106616500Y-59417857D01*
X106797928Y-59780714D02*
X106797928Y-59018714D01*
X106507642Y-59018714D01*
X106435071Y-59055000D01*
X106398785Y-59091285D01*
X106362500Y-59163857D01*
X106362500Y-59272714D01*
X106398785Y-59345285D01*
X106435071Y-59381571D01*
X106507642Y-59417857D01*
X106797928Y-59417857D01*
X105709357Y-59018714D02*
X105854500Y-59018714D01*
X105927071Y-59055000D01*
X105963357Y-59091285D01*
X106035928Y-59200142D01*
X106072214Y-59345285D01*
X106072214Y-59635571D01*
X106035928Y-59708142D01*
X105999642Y-59744428D01*
X105927071Y-59780714D01*
X105781928Y-59780714D01*
X105709357Y-59744428D01*
X105673071Y-59708142D01*
X105636785Y-59635571D01*
X105636785Y-59454142D01*
X105673071Y-59381571D01*
X105709357Y-59345285D01*
X105781928Y-59309000D01*
X105927071Y-59309000D01*
X105999642Y-59345285D01*
X106035928Y-59381571D01*
X106072214Y-59454142D01*
X108294714Y-57912000D02*
X107931857Y-57658000D01*
X108294714Y-57476571D02*
X107532714Y-57476571D01*
X107532714Y-57766857D01*
X107569000Y-57839428D01*
X107605285Y-57875714D01*
X107677857Y-57912000D01*
X107786714Y-57912000D01*
X107859285Y-57875714D01*
X107895571Y-57839428D01*
X107931857Y-57766857D01*
X107931857Y-57476571D01*
X107532714Y-58601428D02*
X107532714Y-58238571D01*
X107895571Y-58202285D01*
X107859285Y-58238571D01*
X107823000Y-58311142D01*
X107823000Y-58492571D01*
X107859285Y-58565142D01*
X107895571Y-58601428D01*
X107968142Y-58637714D01*
X108149571Y-58637714D01*
X108222142Y-58601428D01*
X108258428Y-58565142D01*
X108294714Y-58492571D01*
X108294714Y-58311142D01*
X108258428Y-58238571D01*
X108222142Y-58202285D01*
X107151714Y-73424142D02*
X106788857Y-73170142D01*
X107151714Y-72988714D02*
X106389714Y-72988714D01*
X106389714Y-73279000D01*
X106426000Y-73351571D01*
X106462285Y-73387857D01*
X106534857Y-73424142D01*
X106643714Y-73424142D01*
X106716285Y-73387857D01*
X106752571Y-73351571D01*
X106788857Y-73279000D01*
X106788857Y-72988714D01*
X107151714Y-74149857D02*
X107151714Y-73714428D01*
X107151714Y-73932142D02*
X106389714Y-73932142D01*
X106498571Y-73859571D01*
X106571142Y-73787000D01*
X106607428Y-73714428D01*
X106389714Y-74803000D02*
X106389714Y-74657857D01*
X106426000Y-74585285D01*
X106462285Y-74549000D01*
X106571142Y-74476428D01*
X106716285Y-74440142D01*
X107006571Y-74440142D01*
X107079142Y-74476428D01*
X107115428Y-74512714D01*
X107151714Y-74585285D01*
X107151714Y-74730428D01*
X107115428Y-74803000D01*
X107079142Y-74839285D01*
X107006571Y-74875571D01*
X106825142Y-74875571D01*
X106752571Y-74839285D01*
X106716285Y-74803000D01*
X106680000Y-74730428D01*
X106680000Y-74585285D01*
X106716285Y-74512714D01*
X106752571Y-74476428D01*
X106825142Y-74440142D01*
X109791500Y-68090142D02*
X109827785Y-68126428D01*
X109936642Y-68162714D01*
X110009214Y-68162714D01*
X110118071Y-68126428D01*
X110190642Y-68053857D01*
X110226928Y-67981285D01*
X110263214Y-67836142D01*
X110263214Y-67727285D01*
X110226928Y-67582142D01*
X110190642Y-67509571D01*
X110118071Y-67437000D01*
X110009214Y-67400714D01*
X109936642Y-67400714D01*
X109827785Y-67437000D01*
X109791500Y-67473285D01*
X109356071Y-67727285D02*
X109428642Y-67691000D01*
X109464928Y-67654714D01*
X109501214Y-67582142D01*
X109501214Y-67545857D01*
X109464928Y-67473285D01*
X109428642Y-67437000D01*
X109356071Y-67400714D01*
X109210928Y-67400714D01*
X109138357Y-67437000D01*
X109102071Y-67473285D01*
X109065785Y-67545857D01*
X109065785Y-67582142D01*
X109102071Y-67654714D01*
X109138357Y-67691000D01*
X109210928Y-67727285D01*
X109356071Y-67727285D01*
X109428642Y-67763571D01*
X109464928Y-67799857D01*
X109501214Y-67872428D01*
X109501214Y-68017571D01*
X109464928Y-68090142D01*
X109428642Y-68126428D01*
X109356071Y-68162714D01*
X109210928Y-68162714D01*
X109138357Y-68126428D01*
X109102071Y-68090142D01*
X109065785Y-68017571D01*
X109065785Y-67872428D01*
X109102071Y-67799857D01*
X109138357Y-67763571D01*
X109210928Y-67727285D01*
X121202254Y-60334140D02*
X121746540Y-60334140D01*
X121855397Y-60297854D01*
X121927968Y-60225282D01*
X121964254Y-60116425D01*
X121964254Y-60043854D01*
X121964254Y-61096140D02*
X121964254Y-60660711D01*
X121964254Y-60878425D02*
X121202254Y-60878425D01*
X121311111Y-60805854D01*
X121383682Y-60733282D01*
X121419968Y-60660711D01*
X121393857Y-71392142D02*
X121430142Y-71428428D01*
X121539000Y-71464714D01*
X121611571Y-71464714D01*
X121720428Y-71428428D01*
X121793000Y-71355857D01*
X121829285Y-71283285D01*
X121865571Y-71138142D01*
X121865571Y-71029285D01*
X121829285Y-70884142D01*
X121793000Y-70811571D01*
X121720428Y-70739000D01*
X121611571Y-70702714D01*
X121539000Y-70702714D01*
X121430142Y-70739000D01*
X121393857Y-70775285D01*
X120668142Y-71464714D02*
X121103571Y-71464714D01*
X120885857Y-71464714D02*
X120885857Y-70702714D01*
X120958428Y-70811571D01*
X121031000Y-70884142D01*
X121103571Y-70920428D01*
X120377857Y-70775285D02*
X120341571Y-70739000D01*
X120269000Y-70702714D01*
X120087571Y-70702714D01*
X120015000Y-70739000D01*
X119978714Y-70775285D01*
X119942428Y-70847857D01*
X119942428Y-70920428D01*
X119978714Y-71029285D01*
X120414142Y-71464714D01*
X119942428Y-71464714D01*
X117874142Y-64915142D02*
X117910428Y-64878857D01*
X117946714Y-64770000D01*
X117946714Y-64697428D01*
X117910428Y-64588571D01*
X117837857Y-64516000D01*
X117765285Y-64479714D01*
X117620142Y-64443428D01*
X117511285Y-64443428D01*
X117366142Y-64479714D01*
X117293571Y-64516000D01*
X117221000Y-64588571D01*
X117184714Y-64697428D01*
X117184714Y-64770000D01*
X117221000Y-64878857D01*
X117257285Y-64915142D01*
X117946714Y-65640857D02*
X117946714Y-65205428D01*
X117946714Y-65423142D02*
X117184714Y-65423142D01*
X117293571Y-65350571D01*
X117366142Y-65278000D01*
X117402428Y-65205428D01*
X117184714Y-65894857D02*
X117184714Y-66366571D01*
X117475000Y-66112571D01*
X117475000Y-66221428D01*
X117511285Y-66294000D01*
X117547571Y-66330285D01*
X117620142Y-66366571D01*
X117801571Y-66366571D01*
X117874142Y-66330285D01*
X117910428Y-66294000D01*
X117946714Y-66221428D01*
X117946714Y-66003714D01*
X117910428Y-65931142D01*
X117874142Y-65894857D01*
X109564714Y-57912000D02*
X109201857Y-57658000D01*
X109564714Y-57476571D02*
X108802714Y-57476571D01*
X108802714Y-57766857D01*
X108839000Y-57839428D01*
X108875285Y-57875714D01*
X108947857Y-57912000D01*
X109056714Y-57912000D01*
X109129285Y-57875714D01*
X109165571Y-57839428D01*
X109201857Y-57766857D01*
X109201857Y-57476571D01*
X108802714Y-58166000D02*
X108802714Y-58674000D01*
X109564714Y-58347428D01*
X113583357Y-59690214D02*
X113837357Y-59327357D01*
X114018785Y-59690214D02*
X114018785Y-58928214D01*
X113728500Y-58928214D01*
X113655928Y-58964500D01*
X113619642Y-59000785D01*
X113583357Y-59073357D01*
X113583357Y-59182214D01*
X113619642Y-59254785D01*
X113655928Y-59291071D01*
X113728500Y-59327357D01*
X114018785Y-59327357D01*
X112857642Y-59690214D02*
X113293071Y-59690214D01*
X113075357Y-59690214D02*
X113075357Y-58928214D01*
X113147928Y-59037071D01*
X113220500Y-59109642D01*
X113293071Y-59145928D01*
X112131928Y-59690214D02*
X112567357Y-59690214D01*
X112349642Y-59690214D02*
X112349642Y-58928214D01*
X112422214Y-59037071D01*
X112494785Y-59109642D01*
X112567357Y-59145928D01*
X113220500Y-57150214D02*
X113474500Y-56787357D01*
X113655928Y-57150214D02*
X113655928Y-56388214D01*
X113365642Y-56388214D01*
X113293071Y-56424500D01*
X113256785Y-56460785D01*
X113220500Y-56533357D01*
X113220500Y-56642214D01*
X113256785Y-56714785D01*
X113293071Y-56751071D01*
X113365642Y-56787357D01*
X113655928Y-56787357D01*
X112857642Y-57150214D02*
X112712500Y-57150214D01*
X112639928Y-57113928D01*
X112603642Y-57077642D01*
X112531071Y-56968785D01*
X112494785Y-56823642D01*
X112494785Y-56533357D01*
X112531071Y-56460785D01*
X112567357Y-56424500D01*
X112639928Y-56388214D01*
X112785071Y-56388214D01*
X112857642Y-56424500D01*
X112893928Y-56460785D01*
X112930214Y-56533357D01*
X112930214Y-56714785D01*
X112893928Y-56787357D01*
X112857642Y-56823642D01*
X112785071Y-56859928D01*
X112639928Y-56859928D01*
X112567357Y-56823642D01*
X112531071Y-56787357D01*
X112494785Y-56714785D01*
X113583357Y-58420214D02*
X113837357Y-58057357D01*
X114018785Y-58420214D02*
X114018785Y-57658214D01*
X113728500Y-57658214D01*
X113655928Y-57694500D01*
X113619642Y-57730785D01*
X113583357Y-57803357D01*
X113583357Y-57912214D01*
X113619642Y-57984785D01*
X113655928Y-58021071D01*
X113728500Y-58057357D01*
X114018785Y-58057357D01*
X112857642Y-58420214D02*
X113293071Y-58420214D01*
X113075357Y-58420214D02*
X113075357Y-57658214D01*
X113147928Y-57767071D01*
X113220500Y-57839642D01*
X113293071Y-57875928D01*
X112385928Y-57658214D02*
X112313357Y-57658214D01*
X112240785Y-57694500D01*
X112204500Y-57730785D01*
X112168214Y-57803357D01*
X112131928Y-57948500D01*
X112131928Y-58129928D01*
X112168214Y-58275071D01*
X112204500Y-58347642D01*
X112240785Y-58383928D01*
X112313357Y-58420214D01*
X112385928Y-58420214D01*
X112458500Y-58383928D01*
X112494785Y-58347642D01*
X112531071Y-58275071D01*
X112567357Y-58129928D01*
X112567357Y-57948500D01*
X112531071Y-57803357D01*
X112494785Y-57730785D01*
X112458500Y-57694500D01*
X112385928Y-57658214D01*
X110998000Y-59563214D02*
X111252000Y-59200357D01*
X111433428Y-59563214D02*
X111433428Y-58801214D01*
X111143142Y-58801214D01*
X111070571Y-58837500D01*
X111034285Y-58873785D01*
X110998000Y-58946357D01*
X110998000Y-59055214D01*
X111034285Y-59127785D01*
X111070571Y-59164071D01*
X111143142Y-59200357D01*
X111433428Y-59200357D01*
X110562571Y-59127785D02*
X110635142Y-59091500D01*
X110671428Y-59055214D01*
X110707714Y-58982642D01*
X110707714Y-58946357D01*
X110671428Y-58873785D01*
X110635142Y-58837500D01*
X110562571Y-58801214D01*
X110417428Y-58801214D01*
X110344857Y-58837500D01*
X110308571Y-58873785D01*
X110272285Y-58946357D01*
X110272285Y-58982642D01*
X110308571Y-59055214D01*
X110344857Y-59091500D01*
X110417428Y-59127785D01*
X110562571Y-59127785D01*
X110635142Y-59164071D01*
X110671428Y-59200357D01*
X110707714Y-59272928D01*
X110707714Y-59418071D01*
X110671428Y-59490642D01*
X110635142Y-59526928D01*
X110562571Y-59563214D01*
X110417428Y-59563214D01*
X110344857Y-59526928D01*
X110308571Y-59490642D01*
X110272285Y-59418071D01*
X110272285Y-59272928D01*
X110308571Y-59200357D01*
X110344857Y-59164071D01*
X110417428Y-59127785D01*
X106979357Y-61431714D02*
X107233357Y-61068857D01*
X107414785Y-61431714D02*
X107414785Y-60669714D01*
X107124500Y-60669714D01*
X107051928Y-60706000D01*
X107015642Y-60742285D01*
X106979357Y-60814857D01*
X106979357Y-60923714D01*
X107015642Y-60996285D01*
X107051928Y-61032571D01*
X107124500Y-61068857D01*
X107414785Y-61068857D01*
X106253642Y-61431714D02*
X106689071Y-61431714D01*
X106471357Y-61431714D02*
X106471357Y-60669714D01*
X106543928Y-60778571D01*
X106616500Y-60851142D01*
X106689071Y-60887428D01*
X105600500Y-60923714D02*
X105600500Y-61431714D01*
X105781928Y-60633428D02*
X105963357Y-61177714D01*
X105491642Y-61177714D01*
X104865714Y-73424142D02*
X104502857Y-73170142D01*
X104865714Y-72988714D02*
X104103714Y-72988714D01*
X104103714Y-73279000D01*
X104140000Y-73351571D01*
X104176285Y-73387857D01*
X104248857Y-73424142D01*
X104357714Y-73424142D01*
X104430285Y-73387857D01*
X104466571Y-73351571D01*
X104502857Y-73279000D01*
X104502857Y-72988714D01*
X104865714Y-74149857D02*
X104865714Y-73714428D01*
X104865714Y-73932142D02*
X104103714Y-73932142D01*
X104212571Y-73859571D01*
X104285142Y-73787000D01*
X104321428Y-73714428D01*
X104103714Y-74839285D02*
X104103714Y-74476428D01*
X104466571Y-74440142D01*
X104430285Y-74476428D01*
X104394000Y-74549000D01*
X104394000Y-74730428D01*
X104430285Y-74803000D01*
X104466571Y-74839285D01*
X104539142Y-74875571D01*
X104720571Y-74875571D01*
X104793142Y-74839285D01*
X104829428Y-74803000D01*
X104865714Y-74730428D01*
X104865714Y-74549000D01*
X104829428Y-74476428D01*
X104793142Y-74440142D01*
X116613214Y-57041142D02*
X116250357Y-56787142D01*
X116613214Y-56605714D02*
X115851214Y-56605714D01*
X115851214Y-56896000D01*
X115887500Y-56968571D01*
X115923785Y-57004857D01*
X115996357Y-57041142D01*
X116105214Y-57041142D01*
X116177785Y-57004857D01*
X116214071Y-56968571D01*
X116250357Y-56896000D01*
X116250357Y-56605714D01*
X116613214Y-57766857D02*
X116613214Y-57331428D01*
X116613214Y-57549142D02*
X115851214Y-57549142D01*
X115960071Y-57476571D01*
X116032642Y-57404000D01*
X116068928Y-57331428D01*
X115851214Y-58020857D02*
X115851214Y-58528857D01*
X116613214Y-58202285D01*
X117819714Y-57041142D02*
X117456857Y-56787142D01*
X117819714Y-56605714D02*
X117057714Y-56605714D01*
X117057714Y-56896000D01*
X117094000Y-56968571D01*
X117130285Y-57004857D01*
X117202857Y-57041142D01*
X117311714Y-57041142D01*
X117384285Y-57004857D01*
X117420571Y-56968571D01*
X117456857Y-56896000D01*
X117456857Y-56605714D01*
X117819714Y-57766857D02*
X117819714Y-57331428D01*
X117819714Y-57549142D02*
X117057714Y-57549142D01*
X117166571Y-57476571D01*
X117239142Y-57404000D01*
X117275428Y-57331428D01*
X117384285Y-58202285D02*
X117348000Y-58129714D01*
X117311714Y-58093428D01*
X117239142Y-58057142D01*
X117202857Y-58057142D01*
X117130285Y-58093428D01*
X117094000Y-58129714D01*
X117057714Y-58202285D01*
X117057714Y-58347428D01*
X117094000Y-58420000D01*
X117130285Y-58456285D01*
X117202857Y-58492571D01*
X117239142Y-58492571D01*
X117311714Y-58456285D01*
X117348000Y-58420000D01*
X117384285Y-58347428D01*
X117384285Y-58202285D01*
X117420571Y-58129714D01*
X117456857Y-58093428D01*
X117529428Y-58057142D01*
X117674571Y-58057142D01*
X117747142Y-58093428D01*
X117783428Y-58129714D01*
X117819714Y-58202285D01*
X117819714Y-58347428D01*
X117783428Y-58420000D01*
X117747142Y-58456285D01*
X117674571Y-58492571D01*
X117529428Y-58492571D01*
X117456857Y-58456285D01*
X117420571Y-58420000D01*
X117384285Y-58347428D01*
X113220500Y-65114714D02*
X113474500Y-64751857D01*
X113655928Y-65114714D02*
X113655928Y-64352714D01*
X113365642Y-64352714D01*
X113293071Y-64389000D01*
X113256785Y-64425285D01*
X113220500Y-64497857D01*
X113220500Y-64606714D01*
X113256785Y-64679285D01*
X113293071Y-64715571D01*
X113365642Y-64751857D01*
X113655928Y-64751857D01*
X112494785Y-65114714D02*
X112930214Y-65114714D01*
X112712500Y-65114714D02*
X112712500Y-64352714D01*
X112785071Y-64461571D01*
X112857642Y-64534142D01*
X112930214Y-64570428D01*
X110090857Y-73868642D02*
X110127142Y-73904928D01*
X110236000Y-73941214D01*
X110308571Y-73941214D01*
X110417428Y-73904928D01*
X110490000Y-73832357D01*
X110526285Y-73759785D01*
X110562571Y-73614642D01*
X110562571Y-73505785D01*
X110526285Y-73360642D01*
X110490000Y-73288071D01*
X110417428Y-73215500D01*
X110308571Y-73179214D01*
X110236000Y-73179214D01*
X110127142Y-73215500D01*
X110090857Y-73251785D01*
X109365142Y-73941214D02*
X109800571Y-73941214D01*
X109582857Y-73941214D02*
X109582857Y-73179214D01*
X109655428Y-73288071D01*
X109728000Y-73360642D01*
X109800571Y-73396928D01*
X108639428Y-73941214D02*
X109074857Y-73941214D01*
X108857142Y-73941214D02*
X108857142Y-73179214D01*
X108929714Y-73288071D01*
X109002285Y-73360642D01*
X109074857Y-73396928D01*
X112458500Y-66439142D02*
X112494785Y-66475428D01*
X112603642Y-66511714D01*
X112676214Y-66511714D01*
X112785071Y-66475428D01*
X112857642Y-66402857D01*
X112893928Y-66330285D01*
X112930214Y-66185142D01*
X112930214Y-66076285D01*
X112893928Y-65931142D01*
X112857642Y-65858571D01*
X112785071Y-65786000D01*
X112676214Y-65749714D01*
X112603642Y-65749714D01*
X112494785Y-65786000D01*
X112458500Y-65822285D01*
X112204500Y-65749714D02*
X111696500Y-65749714D01*
X112023071Y-66511714D01*
X104203500Y-61549642D02*
X104239785Y-61585928D01*
X104348642Y-61622214D01*
X104421214Y-61622214D01*
X104530071Y-61585928D01*
X104602642Y-61513357D01*
X104638928Y-61440785D01*
X104675214Y-61295642D01*
X104675214Y-61186785D01*
X104638928Y-61041642D01*
X104602642Y-60969071D01*
X104530071Y-60896500D01*
X104421214Y-60860214D01*
X104348642Y-60860214D01*
X104239785Y-60896500D01*
X104203500Y-60932785D01*
X103550357Y-61114214D02*
X103550357Y-61622214D01*
X103731785Y-60823928D02*
X103913214Y-61368214D01*
X103441500Y-61368214D01*
X102697642Y-73469500D02*
X102733928Y-73433214D01*
X102770214Y-73324357D01*
X102770214Y-73251785D01*
X102733928Y-73142928D01*
X102661357Y-73070357D01*
X102588785Y-73034071D01*
X102443642Y-72997785D01*
X102334785Y-72997785D01*
X102189642Y-73034071D01*
X102117071Y-73070357D01*
X102044500Y-73142928D01*
X102008214Y-73251785D01*
X102008214Y-73324357D01*
X102044500Y-73433214D01*
X102080785Y-73469500D01*
X102080785Y-73759785D02*
X102044500Y-73796071D01*
X102008214Y-73868642D01*
X102008214Y-74050071D01*
X102044500Y-74122642D01*
X102080785Y-74158928D01*
X102153357Y-74195214D01*
X102225928Y-74195214D01*
X102334785Y-74158928D01*
X102770214Y-73723500D01*
X102770214Y-74195214D01*
X118763142Y-71074642D02*
X118799428Y-71038357D01*
X118835714Y-70929500D01*
X118835714Y-70856928D01*
X118799428Y-70748071D01*
X118726857Y-70675500D01*
X118654285Y-70639214D01*
X118509142Y-70602928D01*
X118400285Y-70602928D01*
X118255142Y-70639214D01*
X118182571Y-70675500D01*
X118110000Y-70748071D01*
X118073714Y-70856928D01*
X118073714Y-70929500D01*
X118110000Y-71038357D01*
X118146285Y-71074642D01*
X118835714Y-71800357D02*
X118835714Y-71364928D01*
X118835714Y-71582642D02*
X118073714Y-71582642D01*
X118182571Y-71510071D01*
X118255142Y-71437500D01*
X118291428Y-71364928D01*
X118073714Y-72272071D02*
X118073714Y-72344642D01*
X118110000Y-72417214D01*
X118146285Y-72453500D01*
X118218857Y-72489785D01*
X118364000Y-72526071D01*
X118545428Y-72526071D01*
X118690571Y-72489785D01*
X118763142Y-72453500D01*
X118799428Y-72417214D01*
X118835714Y-72344642D01*
X118835714Y-72272071D01*
X118799428Y-72199500D01*
X118763142Y-72163214D01*
X118690571Y-72126928D01*
X118545428Y-72090642D01*
X118364000Y-72090642D01*
X118218857Y-72126928D01*
X118146285Y-72163214D01*
X118110000Y-72199500D01*
X118073714Y-72272071D01*
X105854500Y-66248642D02*
X105890785Y-66284928D01*
X105999642Y-66321214D01*
X106072214Y-66321214D01*
X106181071Y-66284928D01*
X106253642Y-66212357D01*
X106289928Y-66139785D01*
X106326214Y-65994642D01*
X106326214Y-65885785D01*
X106289928Y-65740642D01*
X106253642Y-65668071D01*
X106181071Y-65595500D01*
X106072214Y-65559214D01*
X105999642Y-65559214D01*
X105890785Y-65595500D01*
X105854500Y-65631785D01*
X105600500Y-65559214D02*
X105128785Y-65559214D01*
X105382785Y-65849500D01*
X105273928Y-65849500D01*
X105201357Y-65885785D01*
X105165071Y-65922071D01*
X105128785Y-65994642D01*
X105128785Y-66176071D01*
X105165071Y-66248642D01*
X105201357Y-66284928D01*
X105273928Y-66321214D01*
X105491642Y-66321214D01*
X105564214Y-66284928D01*
X105600500Y-66248642D01*
X115252500Y-64370642D02*
X115288785Y-64406928D01*
X115397642Y-64443214D01*
X115470214Y-64443214D01*
X115579071Y-64406928D01*
X115651642Y-64334357D01*
X115687928Y-64261785D01*
X115724214Y-64116642D01*
X115724214Y-64007785D01*
X115687928Y-63862642D01*
X115651642Y-63790071D01*
X115579071Y-63717500D01*
X115470214Y-63681214D01*
X115397642Y-63681214D01*
X115288785Y-63717500D01*
X115252500Y-63753785D01*
X114526785Y-64443214D02*
X114962214Y-64443214D01*
X114744500Y-64443214D02*
X114744500Y-63681214D01*
X114817071Y-63790071D01*
X114889642Y-63862642D01*
X114962214Y-63898928D01*
M02*
