%TF.GenerationSoftware,KiCad,Pcbnew,(5.1.4)-1*%
%TF.CreationDate,2019-10-25T20:37:58-07:00*%
%TF.ProjectId,SolarCellZ_v1,536f6c61-7243-4656-9c6c-5a5f76312e6b,rev?*%
%TF.SameCoordinates,Original*%
%TF.FileFunction,Copper,L2,Inr*%
%TF.FilePolarity,Positive*%
%FSLAX46Y46*%
G04 Gerber Fmt 4.6, Leading zero omitted, Abs format (unit mm)*
G04 Created by KiCad (PCBNEW (5.1.4)-1) date 2019-10-25 20:37:58*
%MOMM*%
%LPD*%
G04 APERTURE LIST*
%ADD10C,0.050000*%
%ADD11C,1.016000*%
%ADD12C,0.584200*%
%ADD13C,0.800000*%
%ADD14C,0.127000*%
G04 APERTURE END LIST*
D10*
X99200000Y-52750000D02*
X99200000Y-56250000D01*
X99200000Y-56250000D02*
X107400000Y-56250000D01*
X107400000Y-52750000D02*
X107400000Y-56250000D01*
X99200000Y-52750000D02*
X107400000Y-52750000D01*
X96200000Y-73400000D02*
G75*
G03X96200000Y-73400000I-1100000J0D01*
G01*
X136000000Y-73400000D02*
G75*
G03X136000000Y-73400000I-1100000J0D01*
G01*
X136000000Y-55000000D02*
G75*
G03X136000000Y-55000000I-1100000J0D01*
G01*
X96200000Y-55000000D02*
G75*
G03X96200000Y-55000000I-1100000J0D01*
G01*
X138400000Y-88400000D02*
X90000000Y-88400000D01*
X90000000Y-88400000D02*
X90000000Y-40000000D01*
X138400000Y-40000000D02*
X138400000Y-88400000D01*
X90000000Y-40000000D02*
X138400000Y-40000000D01*
D11*
X116700000Y-51500000D03*
X117650000Y-51500000D03*
X111700000Y-51500000D03*
X110750000Y-51500000D03*
X118600000Y-51500000D03*
X109800000Y-51500000D03*
D12*
X126301500Y-71437500D03*
X124015500Y-71691500D03*
X120268110Y-61604791D03*
X120078500Y-66357500D03*
X127254000Y-69786500D03*
X123317000Y-70167500D03*
X107032512Y-65473693D03*
X109654340Y-64046100D03*
X113411000Y-70548500D03*
X110253760Y-64708256D03*
X108983760Y-64708256D03*
X110261400Y-63439040D03*
X108983760Y-63463656D03*
X122237500Y-62357000D03*
X123253500Y-62357000D03*
X122301000Y-73088500D03*
X127254000Y-73215500D03*
X126301500Y-70485000D03*
X120111294Y-59382647D03*
X126238000Y-72390000D03*
X120396000Y-60198000D03*
X121920000Y-60706000D03*
X121920000Y-46990000D03*
X124015500Y-73406000D03*
X117602000Y-62166500D03*
X116268500Y-60833000D03*
X109644160Y-66892656D03*
X107886500Y-62103000D03*
X114299990Y-63690500D03*
X124045117Y-76257156D03*
X117602000Y-63690500D03*
X109601000Y-61214000D03*
X111950500Y-61380850D03*
X105664000Y-71628000D03*
X106874656Y-64098656D03*
X102235000Y-67437000D03*
X102235000Y-66802000D03*
D13*
X91440000Y-58420000D03*
X91440000Y-60071000D03*
X100330000Y-64389000D03*
X100330000Y-62611000D03*
X100330000Y-66167000D03*
D12*
X124523500Y-74866500D03*
X123571000Y-74866500D03*
D14*
X113284000Y-49784000D02*
X113284000Y-53213000D01*
X108204000Y-49784000D02*
X113284000Y-49784000D01*
X108204000Y-50673000D02*
X108204000Y-49784000D01*
X100711000Y-50673000D02*
X108204000Y-50673000D01*
X100711000Y-49276000D02*
X100711000Y-50673000D01*
X97790000Y-49276000D02*
X100711000Y-49276000D01*
X97790000Y-45593000D02*
X97790000Y-49276000D01*
X130810000Y-45593000D02*
X97790000Y-45593000D01*
X130810000Y-48514000D02*
X130810000Y-45593000D01*
X128524000Y-48514000D02*
X130810000Y-48514000D01*
X128524000Y-61468000D02*
X128524000Y-48514000D01*
X130810000Y-61468000D02*
X128524000Y-61468000D01*
X130810000Y-67056000D02*
X130810000Y-61468000D01*
X128524000Y-67056000D02*
X130810000Y-67056000D01*
X128524000Y-79756000D02*
X128524000Y-67056000D01*
X130810000Y-79756000D02*
X128524000Y-79756000D01*
X130810000Y-82804000D02*
X130810000Y-79756000D01*
X97536000Y-82804000D02*
X130810000Y-82804000D01*
X97536000Y-78740000D02*
X97536000Y-82804000D01*
X100457000Y-78740000D02*
X97536000Y-78740000D01*
X100457000Y-68072000D02*
X100457000Y-78740000D01*
X97536000Y-68072000D02*
X100457000Y-68072000D01*
X97536000Y-60452000D02*
X97536000Y-68072000D01*
X100457000Y-60452000D02*
X97536000Y-60452000D01*
X100457000Y-58166000D02*
X100457000Y-60452000D01*
X109220000Y-58166000D02*
X100457000Y-58166000D01*
X109220000Y-52959000D02*
X109220000Y-58166000D01*
X113030000Y-52959000D02*
X109220000Y-52959000D01*
X113030000Y-50038000D02*
X113030000Y-52959000D01*
X108458000Y-50038000D02*
X113030000Y-50038000D01*
X108458000Y-50927000D02*
X108458000Y-50038000D01*
X100457000Y-50927000D02*
X108458000Y-50927000D01*
X100457000Y-49530000D02*
X100457000Y-50927000D01*
X97536000Y-49530000D02*
X100457000Y-49530000D01*
X97536000Y-45339000D02*
X97536000Y-49530000D01*
X131064000Y-45339000D02*
X97536000Y-45339000D01*
X131064000Y-48768000D02*
X131064000Y-45339000D01*
X128778000Y-48768000D02*
X131064000Y-48768000D01*
X128778000Y-61214000D02*
X128778000Y-48768000D01*
X131064000Y-61214000D02*
X128778000Y-61214000D01*
X131064000Y-67310000D02*
X131064000Y-61214000D01*
X128778000Y-67310000D02*
X131064000Y-67310000D01*
X128778000Y-79502000D02*
X128778000Y-67310000D01*
X131064000Y-79502000D02*
X128778000Y-79502000D01*
X131064000Y-83058000D02*
X131064000Y-79502000D01*
X97282000Y-83058000D02*
X131064000Y-83058000D01*
X97282000Y-78486000D02*
X97282000Y-83058000D01*
X100203000Y-78486000D02*
X97282000Y-78486000D01*
X100203000Y-68326000D02*
X100203000Y-78486000D01*
X97282000Y-68326000D02*
X100203000Y-68326000D01*
X97282000Y-60198000D02*
X97282000Y-68326000D01*
X100203000Y-60198000D02*
X97282000Y-60198000D01*
X100203000Y-57912000D02*
X100203000Y-60198000D01*
X108966000Y-57912000D02*
X100203000Y-57912000D01*
X108966000Y-52705000D02*
X108966000Y-57912000D01*
X112776000Y-52705000D02*
X108966000Y-52705000D01*
X112776000Y-50292000D02*
X112776000Y-52705000D01*
X108712000Y-50292000D02*
X112776000Y-50292000D01*
X108712000Y-51181000D02*
X108712000Y-50292000D01*
X100203000Y-51181000D02*
X108712000Y-51181000D01*
X100203000Y-49784000D02*
X100203000Y-51181000D01*
X97282000Y-49784000D02*
X100203000Y-49784000D01*
X97282000Y-45085000D02*
X97282000Y-49784000D01*
X131318000Y-45085000D02*
X97282000Y-45085000D01*
X131318000Y-49022000D02*
X131318000Y-45085000D01*
X129032000Y-49022000D02*
X131318000Y-49022000D01*
X129032000Y-60960000D02*
X129032000Y-49022000D01*
X131318000Y-60960000D02*
X129032000Y-60960000D01*
X131318000Y-67564000D02*
X131318000Y-60960000D01*
X129032000Y-67564000D02*
X131318000Y-67564000D01*
X129032000Y-79248000D02*
X129032000Y-67564000D01*
X131318000Y-79248000D02*
X129032000Y-79248000D01*
X131318000Y-83312000D02*
X131318000Y-79248000D01*
X97028000Y-83312000D02*
X131318000Y-83312000D01*
X97028000Y-78232000D02*
X97028000Y-83312000D01*
X99949000Y-78232000D02*
X97028000Y-78232000D01*
X99949000Y-68580000D02*
X99949000Y-78232000D01*
X97028000Y-68580000D02*
X99949000Y-68580000D01*
X131064000Y-58928000D02*
X131064000Y-51054000D01*
X133350000Y-58928000D02*
X131064000Y-58928000D01*
X133350000Y-69596000D02*
X133350000Y-58928000D01*
X131064000Y-69596000D02*
X133350000Y-69596000D01*
X131064000Y-77216000D02*
X131064000Y-69596000D01*
X133350000Y-77216000D02*
X131064000Y-77216000D01*
X133350000Y-85344000D02*
X133350000Y-77216000D01*
X94996000Y-85344000D02*
X133350000Y-85344000D01*
X97917000Y-76200000D02*
X94996000Y-76200000D01*
X94996000Y-57912000D02*
X94996000Y-70612000D01*
X97917000Y-57912000D02*
X94996000Y-57912000D01*
X94996000Y-42799000D02*
X94996000Y-52070000D01*
X133604000Y-42799000D02*
X94996000Y-42799000D01*
X133604000Y-51308000D02*
X133604000Y-42799000D01*
X131318000Y-51308000D02*
X133604000Y-51308000D01*
X131318000Y-58674000D02*
X131318000Y-51308000D01*
X131318000Y-76962000D02*
X131318000Y-69850000D01*
X133604000Y-76962000D02*
X131318000Y-76962000D01*
X133604000Y-85598000D02*
X133604000Y-76962000D01*
X94742000Y-85598000D02*
X133604000Y-85598000D01*
X94742000Y-75946000D02*
X94742000Y-85598000D01*
X97663000Y-75946000D02*
X94742000Y-75946000D01*
X94742000Y-70866000D02*
X97663000Y-70866000D01*
X94742000Y-57658000D02*
X94742000Y-70866000D01*
X94742000Y-42545000D02*
X94742000Y-52324000D01*
X133858000Y-42545000D02*
X94742000Y-42545000D01*
X131572000Y-51562000D02*
X133858000Y-51562000D01*
X131572000Y-58420000D02*
X131572000Y-51562000D01*
X133858000Y-58420000D02*
X131572000Y-58420000D01*
X133858000Y-70104000D02*
X133858000Y-58420000D01*
X131572000Y-70104000D02*
X133858000Y-70104000D01*
X131572000Y-76708000D02*
X131572000Y-70104000D01*
X133858000Y-76708000D02*
X131572000Y-76708000D01*
X133858000Y-85852000D02*
X133858000Y-76708000D01*
X94488000Y-85852000D02*
X133858000Y-85852000D01*
X94488000Y-75692000D02*
X94488000Y-85852000D01*
X97409000Y-75692000D02*
X94488000Y-75692000D01*
X131572000Y-83566000D02*
X131572000Y-78994000D01*
X97409000Y-71120000D02*
X97409000Y-75692000D01*
X94488000Y-71120000D02*
X97409000Y-71120000D01*
X94488000Y-57404000D02*
X94488000Y-71120000D01*
X97409000Y-57404000D02*
X94488000Y-57404000D01*
X97409000Y-52578000D02*
X97409000Y-57404000D01*
X129540000Y-78740000D02*
X129540000Y-68072000D01*
X94488000Y-52578000D02*
X97409000Y-52578000D01*
X94488000Y-42291000D02*
X94488000Y-52578000D01*
X134112000Y-42291000D02*
X94488000Y-42291000D01*
X134112000Y-51816000D02*
X134112000Y-42291000D01*
X131826000Y-51816000D02*
X134112000Y-51816000D01*
X131826000Y-58166000D02*
X131826000Y-51816000D01*
X134112000Y-58166000D02*
X131826000Y-58166000D01*
X134112000Y-70358000D02*
X134112000Y-58166000D01*
X131826000Y-70358000D02*
X134112000Y-70358000D01*
X131826000Y-76454000D02*
X131826000Y-70358000D01*
X134112000Y-76454000D02*
X131826000Y-76454000D01*
X134112000Y-86106000D02*
X134112000Y-76454000D01*
X94234000Y-86106000D02*
X134112000Y-86106000D01*
X94234000Y-75438000D02*
X94234000Y-86106000D01*
X97155000Y-75438000D02*
X94234000Y-75438000D01*
X97028000Y-44831000D02*
X97028000Y-50038000D01*
X97155000Y-71374000D02*
X97155000Y-75438000D01*
X94234000Y-71374000D02*
X97155000Y-71374000D01*
X94234000Y-57150000D02*
X94234000Y-71374000D01*
X96520000Y-83820000D02*
X131826000Y-83820000D01*
X97155000Y-57150000D02*
X94234000Y-57150000D01*
X99695000Y-51689000D02*
X108458000Y-51689000D01*
X97155000Y-52832000D02*
X97155000Y-57150000D01*
X99949000Y-51435000D02*
X108712000Y-51435000D01*
X94234000Y-52832000D02*
X97155000Y-52832000D01*
X94234000Y-42037000D02*
X94234000Y-52832000D01*
X134366000Y-42037000D02*
X94234000Y-42037000D01*
X134366000Y-52070000D02*
X134366000Y-42037000D01*
X132080000Y-52070000D02*
X134366000Y-52070000D01*
X132080000Y-57912000D02*
X132080000Y-52070000D01*
X134366000Y-57912000D02*
X132080000Y-57912000D01*
X134366000Y-70612000D02*
X134366000Y-57912000D01*
X132080000Y-70612000D02*
X134366000Y-70612000D01*
X132080000Y-76200000D02*
X132080000Y-70612000D01*
X134366000Y-76200000D02*
X132080000Y-76200000D01*
X134366000Y-86360000D02*
X134366000Y-76200000D01*
X93980000Y-86360000D02*
X134366000Y-86360000D01*
X99949000Y-57658000D02*
X99949000Y-59944000D01*
X135128000Y-52832000D02*
X135128000Y-41275000D01*
X131572000Y-60706000D02*
X129286000Y-60706000D01*
X132842000Y-57150000D02*
X132842000Y-52832000D01*
X108458000Y-57404000D02*
X99695000Y-57404000D01*
X135128000Y-57150000D02*
X132842000Y-57150000D01*
X131572000Y-67818000D02*
X131572000Y-60706000D01*
X132842000Y-71374000D02*
X135128000Y-71374000D01*
X99441000Y-77724000D02*
X96520000Y-77724000D01*
X94996000Y-76200000D02*
X94996000Y-85344000D01*
X132842000Y-75438000D02*
X132842000Y-71374000D01*
X135128000Y-87122000D02*
X135128000Y-75438000D01*
X93218000Y-87122000D02*
X135128000Y-87122000D01*
X129286000Y-49276000D02*
X131572000Y-49276000D01*
X96901000Y-56896000D02*
X93980000Y-56896000D01*
X93218000Y-41021000D02*
X93218000Y-87122000D01*
X99441000Y-57150000D02*
X99441000Y-59436000D01*
X133096000Y-53086000D02*
X135382000Y-53086000D01*
X99695000Y-57404000D02*
X99695000Y-59690000D01*
X133096000Y-56896000D02*
X133096000Y-53086000D01*
X96520000Y-77724000D02*
X96520000Y-83820000D01*
X135382000Y-53086000D02*
X135382000Y-41021000D01*
X135382000Y-56896000D02*
X133096000Y-56896000D01*
X132334000Y-52324000D02*
X134620000Y-52324000D01*
X131318000Y-69850000D02*
X133604000Y-69850000D01*
X135382000Y-71628000D02*
X135382000Y-56896000D01*
X96901000Y-53086000D02*
X96901000Y-56896000D01*
X97917000Y-52070000D02*
X97917000Y-57912000D01*
X133096000Y-75184000D02*
X133096000Y-71628000D01*
X135128000Y-71374000D02*
X135128000Y-57150000D01*
X135382000Y-75184000D02*
X133096000Y-75184000D01*
X132842000Y-52832000D02*
X135128000Y-52832000D01*
X96774000Y-83566000D02*
X131572000Y-83566000D01*
X133350000Y-74930000D02*
X133350000Y-71882000D01*
X99441000Y-69088000D02*
X99441000Y-77724000D01*
X133350000Y-71882000D02*
X135636000Y-71882000D01*
X134620000Y-57658000D02*
X132334000Y-57658000D01*
X94996000Y-52070000D02*
X97917000Y-52070000D01*
X135636000Y-74930000D02*
X133350000Y-74930000D01*
X129540000Y-60452000D02*
X129540000Y-49530000D01*
X133858000Y-51562000D02*
X133858000Y-42545000D01*
X135636000Y-87630000D02*
X135636000Y-74930000D01*
X92964000Y-40767000D02*
X92964000Y-87376000D01*
X96774000Y-44577000D02*
X96774000Y-50292000D01*
X94996000Y-70612000D02*
X97917000Y-70612000D01*
X135382000Y-87376000D02*
X135382000Y-75184000D01*
X131826000Y-78740000D02*
X129540000Y-78740000D01*
X92710000Y-87630000D02*
X135636000Y-87630000D01*
X92710000Y-60071000D02*
X92710000Y-87630000D01*
X99695000Y-77978000D02*
X96774000Y-77978000D01*
X97917000Y-70612000D02*
X97917000Y-76200000D01*
X91440000Y-60071000D02*
X92710000Y-60071000D01*
X135636000Y-71882000D02*
X135636000Y-56642000D01*
X96774000Y-50292000D02*
X99695000Y-50292000D01*
X92964000Y-87376000D02*
X135382000Y-87376000D01*
X99441000Y-59436000D02*
X96520000Y-59436000D01*
X135128000Y-75438000D02*
X132842000Y-75438000D01*
X134620000Y-41783000D02*
X93980000Y-41783000D01*
X135636000Y-56642000D02*
X133350000Y-56642000D01*
X129540000Y-68072000D02*
X131826000Y-68072000D01*
X133096000Y-71628000D02*
X135382000Y-71628000D01*
X99949000Y-50038000D02*
X99949000Y-51435000D01*
X133604000Y-69850000D02*
X133604000Y-58674000D01*
X133350000Y-56642000D02*
X133350000Y-53340000D01*
X133350000Y-53340000D02*
X135636000Y-53340000D01*
X129540000Y-49530000D02*
X131826000Y-49530000D01*
X135636000Y-53340000D02*
X135636000Y-40767000D01*
X131572000Y-49276000D02*
X131572000Y-44831000D01*
X132334000Y-70866000D02*
X134620000Y-70866000D01*
X135382000Y-41021000D02*
X93218000Y-41021000D01*
X132334000Y-57658000D02*
X132334000Y-52324000D01*
X135636000Y-40767000D02*
X92964000Y-40767000D01*
X135128000Y-41275000D02*
X93472000Y-41275000D01*
X96520000Y-69088000D02*
X99441000Y-69088000D01*
X93472000Y-41275000D02*
X93472000Y-86868000D01*
X131572000Y-78994000D02*
X129286000Y-78994000D01*
X93472000Y-86868000D02*
X134874000Y-86868000D01*
X99949000Y-59944000D02*
X97028000Y-59944000D01*
X93980000Y-71628000D02*
X96901000Y-71628000D01*
X134874000Y-86868000D02*
X134874000Y-75692000D01*
X129286000Y-78994000D02*
X129286000Y-67818000D01*
X134874000Y-75692000D02*
X132588000Y-75692000D01*
X99695000Y-68834000D02*
X99695000Y-77978000D01*
X132588000Y-75692000D02*
X132588000Y-71120000D01*
X96774000Y-68834000D02*
X99695000Y-68834000D01*
X132588000Y-71120000D02*
X134874000Y-71120000D01*
X97028000Y-59944000D02*
X97028000Y-68580000D01*
X96901000Y-75184000D02*
X93980000Y-75184000D01*
X134874000Y-71120000D02*
X134874000Y-57404000D01*
X129286000Y-67818000D02*
X131572000Y-67818000D01*
X134874000Y-57404000D02*
X132588000Y-57404000D01*
X131826000Y-44577000D02*
X96774000Y-44577000D01*
X132588000Y-57404000D02*
X132588000Y-52578000D01*
X108712000Y-51435000D02*
X108712000Y-57658000D01*
X134620000Y-52324000D02*
X134620000Y-41783000D01*
X132588000Y-52578000D02*
X134874000Y-52578000D01*
X134620000Y-70866000D02*
X134620000Y-57658000D01*
X134874000Y-52578000D02*
X134874000Y-41529000D01*
X129286000Y-60706000D02*
X129286000Y-49276000D01*
X94742000Y-52324000D02*
X97663000Y-52324000D01*
X134874000Y-41529000D02*
X93726000Y-41529000D01*
X93726000Y-41529000D02*
X93726000Y-53340000D01*
X108458000Y-51689000D02*
X108458000Y-57404000D01*
X97663000Y-70866000D02*
X97663000Y-75946000D01*
X93726000Y-53340000D02*
X96647000Y-53340000D01*
X96647000Y-53340000D02*
X96647000Y-56642000D01*
X99695000Y-50292000D02*
X99695000Y-51689000D01*
X96647000Y-56642000D02*
X93726000Y-56642000D01*
X131826000Y-49530000D02*
X131826000Y-44577000D01*
X93980000Y-56896000D02*
X93980000Y-71628000D01*
X93726000Y-56642000D02*
X93726000Y-71882000D01*
X96774000Y-59690000D02*
X96774000Y-68834000D01*
X97663000Y-52324000D02*
X97663000Y-57658000D01*
X93726000Y-71882000D02*
X96647000Y-71882000D01*
X96647000Y-71882000D02*
X96647000Y-74930000D01*
X131572000Y-44831000D02*
X97028000Y-44831000D01*
X133604000Y-58674000D02*
X131318000Y-58674000D01*
X96647000Y-74930000D02*
X93726000Y-74930000D01*
X93726000Y-74930000D02*
X93726000Y-86614000D01*
X96520000Y-59436000D02*
X96520000Y-69088000D01*
X93726000Y-86614000D02*
X134620000Y-86614000D01*
X108712000Y-57658000D02*
X99949000Y-57658000D01*
X134620000Y-86614000D02*
X134620000Y-75946000D01*
X131826000Y-68072000D02*
X131826000Y-60452000D01*
X97663000Y-57658000D02*
X94742000Y-57658000D01*
X134620000Y-75946000D02*
X132334000Y-75946000D01*
X96901000Y-71628000D02*
X96901000Y-75184000D01*
X132334000Y-75946000D02*
X132334000Y-70866000D01*
X97028000Y-50038000D02*
X99949000Y-50038000D01*
X93980000Y-41783000D02*
X93980000Y-53086000D01*
X99695000Y-59690000D02*
X96774000Y-59690000D01*
X93980000Y-53086000D02*
X96901000Y-53086000D01*
X96774000Y-77978000D02*
X96774000Y-83566000D01*
X93980000Y-75184000D02*
X93980000Y-86360000D01*
X131064000Y-51054000D02*
X133350000Y-51054000D01*
X133350000Y-51054000D02*
X133350000Y-43053000D01*
X133350000Y-43053000D02*
X95250000Y-43053000D01*
X95250000Y-43053000D02*
X95250000Y-51816000D01*
X95250000Y-51816000D02*
X98171000Y-51816000D01*
X98171000Y-51816000D02*
X98171000Y-58166000D01*
X98171000Y-58166000D02*
X95250000Y-58166000D01*
X95250000Y-58166000D02*
X95250000Y-70358000D01*
X95250000Y-70358000D02*
X98171000Y-70358000D01*
X98171000Y-70358000D02*
X98171000Y-76454000D01*
X98171000Y-76454000D02*
X95250000Y-76454000D01*
X95250000Y-76454000D02*
X95250000Y-85090000D01*
X95250000Y-85090000D02*
X133096000Y-85090000D01*
X133096000Y-85090000D02*
X133096000Y-77470000D01*
X133096000Y-77470000D02*
X130810000Y-77470000D01*
X130810000Y-77470000D02*
X130810000Y-69342000D01*
X130810000Y-69342000D02*
X133096000Y-69342000D01*
X133096000Y-69342000D02*
X133096000Y-59182000D01*
X133096000Y-59182000D02*
X130810000Y-59182000D01*
X130810000Y-59182000D02*
X130810000Y-50800000D01*
X130810000Y-50800000D02*
X133096000Y-50800000D01*
X133096000Y-50800000D02*
X133096000Y-43307000D01*
X133096000Y-43307000D02*
X95504000Y-43307000D01*
X95504000Y-43307000D02*
X95504000Y-51562000D01*
X95504000Y-51562000D02*
X98425000Y-51562000D01*
X98425000Y-51562000D02*
X98425000Y-58420000D01*
X98425000Y-58420000D02*
X95504000Y-58420000D01*
X95504000Y-58420000D02*
X95504000Y-70104000D01*
X95504000Y-70104000D02*
X98425000Y-70104000D01*
X98425000Y-70104000D02*
X98425000Y-76708000D01*
X98425000Y-76708000D02*
X95504000Y-76708000D01*
X95504000Y-76708000D02*
X95504000Y-84836000D01*
X95504000Y-84836000D02*
X132842000Y-84836000D01*
X132842000Y-84836000D02*
X132842000Y-77724000D01*
X132842000Y-77724000D02*
X130556000Y-77724000D01*
X130556000Y-77724000D02*
X130556000Y-69088000D01*
X130556000Y-69088000D02*
X132842000Y-69088000D01*
X132842000Y-69088000D02*
X132842000Y-59436000D01*
X132842000Y-59436000D02*
X130556000Y-59436000D01*
X130556000Y-59436000D02*
X130556000Y-50546000D01*
X130556000Y-50546000D02*
X132842000Y-50546000D01*
X132842000Y-50546000D02*
X132842000Y-43561000D01*
X132842000Y-43561000D02*
X95758000Y-43561000D01*
X95758000Y-43561000D02*
X95758000Y-51308000D01*
X95758000Y-51308000D02*
X98679000Y-51308000D01*
X98679000Y-51308000D02*
X98679000Y-58674000D01*
X98679000Y-58674000D02*
X95758000Y-58674000D01*
X95758000Y-58674000D02*
X95758000Y-69850000D01*
X95758000Y-69850000D02*
X98679000Y-69850000D01*
X98679000Y-69850000D02*
X98679000Y-76962000D01*
X98679000Y-76962000D02*
X95758000Y-76962000D01*
X95758000Y-76962000D02*
X95758000Y-84582000D01*
X95758000Y-84582000D02*
X132588000Y-84582000D01*
X132588000Y-84582000D02*
X132588000Y-77978000D01*
X132588000Y-77978000D02*
X130302000Y-77978000D01*
X130302000Y-77978000D02*
X130302000Y-68834000D01*
X130302000Y-68834000D02*
X132588000Y-68834000D01*
X132588000Y-68834000D02*
X132588000Y-59690000D01*
X132588000Y-59690000D02*
X130302000Y-59690000D01*
X130302000Y-59690000D02*
X130302000Y-50292000D01*
X130302000Y-50292000D02*
X132588000Y-50292000D01*
X132588000Y-50292000D02*
X132588000Y-43815000D01*
X132588000Y-43815000D02*
X96012000Y-43815000D01*
X96012000Y-43815000D02*
X96012000Y-51054000D01*
X96012000Y-51054000D02*
X98933000Y-51054000D01*
X98933000Y-51054000D02*
X98933000Y-52451000D01*
X98933000Y-52451000D02*
X107509014Y-52451000D01*
X107509014Y-52451000D02*
X107688510Y-52630496D01*
X107688510Y-52630496D02*
X107688510Y-56369504D01*
X107688510Y-56369504D02*
X107416014Y-56642000D01*
X107416014Y-56642000D02*
X98933000Y-56642000D01*
X98933000Y-56642000D02*
X98933000Y-58928000D01*
X98933000Y-58928000D02*
X96012000Y-58928000D01*
X96012000Y-58928000D02*
X96012000Y-69596000D01*
X96012000Y-69596000D02*
X98933000Y-69596000D01*
X98933000Y-69596000D02*
X98933000Y-77216000D01*
X98933000Y-77216000D02*
X96012000Y-77216000D01*
X96012000Y-77216000D02*
X96012000Y-84328000D01*
X96012000Y-84328000D02*
X132334000Y-84328000D01*
X132334000Y-84328000D02*
X132334000Y-78232000D01*
X132334000Y-78232000D02*
X130048000Y-78232000D01*
X130048000Y-78232000D02*
X130048000Y-68580000D01*
X130048000Y-68580000D02*
X132334000Y-68580000D01*
X132334000Y-68580000D02*
X132334000Y-59944000D01*
X132334000Y-59944000D02*
X130048000Y-59944000D01*
X130048000Y-59944000D02*
X130048000Y-50038000D01*
X130048000Y-50038000D02*
X132334000Y-50038000D01*
X132334000Y-50038000D02*
X132334000Y-44069000D01*
X132334000Y-44069000D02*
X96266000Y-44069000D01*
X96266000Y-44069000D02*
X96266000Y-50800000D01*
X96266000Y-50800000D02*
X99187000Y-50800000D01*
X99187000Y-50800000D02*
X99187000Y-52197000D01*
X99187000Y-52197000D02*
X107950000Y-52197000D01*
X107950000Y-52197000D02*
X107950000Y-56896000D01*
X107950000Y-56896000D02*
X99187000Y-56896000D01*
X99187000Y-56896000D02*
X99187000Y-59182000D01*
X99187000Y-59182000D02*
X96266000Y-59182000D01*
X96266000Y-59182000D02*
X96266000Y-69342000D01*
X96266000Y-69342000D02*
X99187000Y-69342000D01*
X132080000Y-78486000D02*
X129794000Y-78486000D01*
X99187000Y-69342000D02*
X99187000Y-77470000D01*
X99187000Y-77470000D02*
X96266000Y-77470000D01*
X96266000Y-77470000D02*
X96266000Y-84074000D01*
X96266000Y-84074000D02*
X132080000Y-84074000D01*
X132080000Y-84074000D02*
X132080000Y-78486000D01*
X129794000Y-78486000D02*
X129794000Y-68326000D01*
X129794000Y-68326000D02*
X132080000Y-68326000D01*
X132080000Y-68326000D02*
X132080000Y-60198000D01*
X132080000Y-60198000D02*
X129794000Y-60198000D01*
X129794000Y-60198000D02*
X129794000Y-49784000D01*
X129794000Y-49784000D02*
X132080000Y-49784000D01*
X132080000Y-49784000D02*
X132080000Y-44323000D01*
X132080000Y-44323000D02*
X96520000Y-44323000D01*
X96520000Y-44323000D02*
X96520000Y-50546000D01*
X96520000Y-50546000D02*
X99441000Y-50546000D01*
X99441000Y-50546000D02*
X99441000Y-51943000D01*
X99441000Y-51943000D02*
X108204000Y-51943000D01*
X108204000Y-51943000D02*
X108204000Y-57150000D01*
X108204000Y-57150000D02*
X99441000Y-57150000D01*
X131826000Y-83820000D02*
X131826000Y-78740000D01*
X131826000Y-60452000D02*
X129540000Y-60452000D01*
X113284000Y-53213000D02*
X109474000Y-53213000D01*
X109474000Y-53213000D02*
X109474000Y-58420000D01*
X109474000Y-58420000D02*
X100711000Y-58420000D01*
X100711000Y-58420000D02*
X100711000Y-60706000D01*
X100711000Y-60706000D02*
X97790000Y-60706000D01*
X97790000Y-60706000D02*
X97790000Y-67818000D01*
X97790000Y-67818000D02*
X100711000Y-67818000D01*
X100711000Y-67818000D02*
X100711000Y-78994000D01*
X100711000Y-78994000D02*
X97790000Y-78994000D01*
X97790000Y-78994000D02*
X97790000Y-82550000D01*
X97790000Y-82550000D02*
X130556000Y-82550000D01*
X130556000Y-82550000D02*
X130556000Y-80010000D01*
X130556000Y-80010000D02*
X128270000Y-80010000D01*
X128270000Y-80010000D02*
X128270000Y-66802000D01*
X128270000Y-66802000D02*
X130556000Y-66802000D01*
X130556000Y-66802000D02*
X130556000Y-61722000D01*
X130556000Y-61722000D02*
X128270000Y-61722000D01*
X128270000Y-61722000D02*
X128270000Y-48260000D01*
X128270000Y-48260000D02*
X130556000Y-48260000D01*
X130556000Y-48260000D02*
X130556000Y-45847000D01*
X130556000Y-45847000D02*
X98044000Y-45847000D01*
X98044000Y-45847000D02*
X98044000Y-49022000D01*
X98044000Y-49022000D02*
X100965000Y-49022000D01*
X100965000Y-49022000D02*
X100965000Y-50419000D01*
X100965000Y-50419000D02*
X107950000Y-50419000D01*
X107950000Y-50419000D02*
X107950000Y-49530000D01*
X107950000Y-49530000D02*
X113538000Y-49530000D01*
X113538000Y-49530000D02*
X113538000Y-53467000D01*
X113538000Y-53467000D02*
X109728000Y-53467000D01*
X109728000Y-53467000D02*
X109728000Y-58674000D01*
X109728000Y-58674000D02*
X100965000Y-58674000D01*
X100965000Y-58674000D02*
X100965000Y-60960000D01*
X100965000Y-60960000D02*
X98044000Y-60960000D01*
X98044000Y-60960000D02*
X98044000Y-67564000D01*
X98044000Y-67564000D02*
X100965000Y-67564000D01*
X100965000Y-67564000D02*
X100965000Y-79248000D01*
X100965000Y-79248000D02*
X98044000Y-79248000D01*
X98044000Y-79248000D02*
X98044000Y-82296000D01*
X98044000Y-82296000D02*
X130302000Y-82296000D01*
X130302000Y-82296000D02*
X130302000Y-80264000D01*
X130302000Y-80264000D02*
X128016000Y-80264000D01*
X128016000Y-80264000D02*
X128016000Y-66548000D01*
X128016000Y-66548000D02*
X130302000Y-66548000D01*
X130302000Y-66548000D02*
X130302000Y-61976000D01*
X130302000Y-61976000D02*
X128016000Y-61976000D01*
X128016000Y-61976000D02*
X128016000Y-48006000D01*
X128016000Y-48006000D02*
X130302000Y-48006000D01*
X130302000Y-48006000D02*
X130302000Y-46101000D01*
X130302000Y-46101000D02*
X98298000Y-46101000D01*
X98298000Y-46101000D02*
X98298000Y-48768000D01*
X98298000Y-48768000D02*
X101219000Y-48768000D01*
X101219000Y-48768000D02*
X101219000Y-50165000D01*
X101219000Y-50165000D02*
X107696000Y-50165000D01*
X107696000Y-50165000D02*
X107696000Y-49276000D01*
X107696000Y-49276000D02*
X113792000Y-49276000D01*
X113792000Y-49276000D02*
X113792000Y-53721000D01*
X113792000Y-53721000D02*
X109982000Y-53721000D01*
X109982000Y-53721000D02*
X109982000Y-58928000D01*
X109982000Y-58928000D02*
X101219000Y-58928000D01*
X101219000Y-58928000D02*
X101219000Y-61214000D01*
X101219000Y-61214000D02*
X98298000Y-61214000D01*
X98298000Y-61214000D02*
X98298000Y-67310000D01*
X98298000Y-67310000D02*
X101219000Y-67310000D01*
X101219000Y-67310000D02*
X101219000Y-79502000D01*
X101219000Y-79502000D02*
X98298000Y-79502000D01*
X98298000Y-79502000D02*
X98298000Y-82042000D01*
X98298000Y-82042000D02*
X130048000Y-82042000D01*
X130048000Y-82042000D02*
X130048000Y-80518000D01*
X130048000Y-80518000D02*
X127762000Y-80518000D01*
X127762000Y-80518000D02*
X127762000Y-66294000D01*
X127762000Y-66294000D02*
X130048000Y-66294000D01*
X130048000Y-66294000D02*
X130048000Y-62230000D01*
X130048000Y-62230000D02*
X127762000Y-62230000D01*
X127762000Y-62230000D02*
X127762000Y-47752000D01*
X127762000Y-47752000D02*
X130048000Y-47752000D01*
X130048000Y-47752000D02*
X130048000Y-46355000D01*
X130048000Y-46355000D02*
X98552000Y-46355000D01*
X98552000Y-46355000D02*
X98552000Y-48514000D01*
X98552000Y-48514000D02*
X101473000Y-48514000D01*
X101473000Y-48514000D02*
X101473000Y-49911000D01*
X101473000Y-49911000D02*
X107442000Y-49911000D01*
X107442000Y-49911000D02*
X107442000Y-49022000D01*
X107442000Y-49022000D02*
X114046000Y-49022000D01*
X114046000Y-49022000D02*
X114046000Y-53975000D01*
X114046000Y-53975000D02*
X110236000Y-53975000D01*
X110236000Y-53975000D02*
X110236000Y-59182000D01*
X110236000Y-59182000D02*
X101473000Y-59182000D01*
X101473000Y-59182000D02*
X101473000Y-61468000D01*
X101473000Y-61468000D02*
X98552000Y-61468000D01*
X99764315Y-62611000D02*
X98552000Y-62611000D01*
X100330000Y-62611000D02*
X99764315Y-62611000D01*
X98552000Y-61468000D02*
X98552000Y-62611000D01*
M02*
