%TF.GenerationSoftware,KiCad,Pcbnew,(5.1.4)-1*%
%TF.CreationDate,2019-10-25T20:37:58-07:00*%
%TF.ProjectId,SolarCellZ_v1,536f6c61-7243-4656-9c6c-5a5f76312e6b,rev?*%
%TF.SameCoordinates,Original*%
%TF.FileFunction,Soldermask,Top*%
%TF.FilePolarity,Negative*%
%FSLAX46Y46*%
G04 Gerber Fmt 4.6, Leading zero omitted, Abs format (unit mm)*
G04 Created by KiCad (PCBNEW (5.1.4)-1) date 2019-10-25 20:37:58*
%MOMM*%
%LPD*%
G04 APERTURE LIST*
%ADD10C,0.300000*%
%ADD11C,0.050000*%
%ADD12C,1.117600*%
%ADD13R,1.001600X0.801600*%
%ADD14R,2.101600X7.501600*%
%ADD15R,1.501600X1.501600*%
%ADD16R,2.801600X1.501600*%
%ADD17C,0.100000*%
%ADD18C,0.691600*%
G04 APERTURE END LIST*
D10*
X251007785Y-145347571D02*
X251364928Y-146347571D01*
X251722071Y-145347571D01*
X252579214Y-144847571D02*
X252722071Y-144847571D01*
X252864928Y-144919000D01*
X252936357Y-144990428D01*
X253007785Y-145133285D01*
X253079214Y-145419000D01*
X253079214Y-145776142D01*
X253007785Y-146061857D01*
X252936357Y-146204714D01*
X252864928Y-146276142D01*
X252722071Y-146347571D01*
X252579214Y-146347571D01*
X252436357Y-146276142D01*
X252364928Y-146204714D01*
X252293500Y-146061857D01*
X252222071Y-145776142D01*
X252222071Y-145419000D01*
X252293500Y-145133285D01*
X252364928Y-144990428D01*
X252436357Y-144919000D01*
X252579214Y-144847571D01*
X254007785Y-144847571D02*
X254150642Y-144847571D01*
X254293500Y-144919000D01*
X254364928Y-144990428D01*
X254436357Y-145133285D01*
X254507785Y-145419000D01*
X254507785Y-145776142D01*
X254436357Y-146061857D01*
X254364928Y-146204714D01*
X254293500Y-146276142D01*
X254150642Y-146347571D01*
X254007785Y-146347571D01*
X253864928Y-146276142D01*
X253793500Y-146204714D01*
X253722071Y-146061857D01*
X253650642Y-145776142D01*
X253650642Y-145419000D01*
X253722071Y-145133285D01*
X253793500Y-144990428D01*
X253864928Y-144919000D01*
X254007785Y-144847571D01*
D11*
X99200000Y-52750000D02*
X99200000Y-56250000D01*
X99200000Y-56250000D02*
X107400000Y-56250000D01*
X107400000Y-52750000D02*
X107400000Y-56250000D01*
X99200000Y-52750000D02*
X107400000Y-52750000D01*
X96200000Y-73400000D02*
G75*
G03X96200000Y-73400000I-1100000J0D01*
G01*
X136000000Y-73400000D02*
G75*
G03X136000000Y-73400000I-1100000J0D01*
G01*
X136000000Y-55000000D02*
G75*
G03X136000000Y-55000000I-1100000J0D01*
G01*
X96200000Y-55000000D02*
G75*
G03X96200000Y-55000000I-1100000J0D01*
G01*
X138400000Y-88400000D02*
X90000000Y-88400000D01*
X90000000Y-88400000D02*
X90000000Y-40000000D01*
X138400000Y-40000000D02*
X138400000Y-88400000D01*
X90000000Y-40000000D02*
X138400000Y-40000000D01*
D12*
X116700000Y-51500000D03*
X117650000Y-51500000D03*
X111700000Y-51500000D03*
X110750000Y-51500000D03*
X118600000Y-51500000D03*
X109800000Y-51500000D03*
D13*
X125211500Y-70487500D03*
X125211500Y-71437500D03*
X125211500Y-72387500D03*
X122311500Y-72387500D03*
X122311500Y-71437500D03*
X122311500Y-70487500D03*
D14*
X136750000Y-45750000D03*
X115750000Y-45750000D03*
X91500000Y-45750000D03*
X112500000Y-45750000D03*
X131250000Y-57000000D03*
X110250000Y-57000000D03*
X136750000Y-65500000D03*
X115750000Y-65500000D03*
X112500000Y-65500000D03*
X91500000Y-65500000D03*
X120187000Y-74000000D03*
X99187000Y-74000000D03*
X115750000Y-82500000D03*
X136750000Y-82500000D03*
X112750000Y-82500000D03*
X91750000Y-82500000D03*
D15*
X128850000Y-51250000D03*
D16*
X125800000Y-51250000D03*
D15*
X125785000Y-77152500D03*
D16*
X128835000Y-77152500D03*
D17*
G36*
X124228347Y-73798033D02*
G01*
X124245131Y-73800522D01*
X124261590Y-73804645D01*
X124277566Y-73810361D01*
X124292904Y-73817616D01*
X124307458Y-73826339D01*
X124321087Y-73836446D01*
X124333659Y-73847841D01*
X124345054Y-73860413D01*
X124355161Y-73874042D01*
X124363884Y-73888596D01*
X124371139Y-73903934D01*
X124376855Y-73919910D01*
X124380978Y-73936369D01*
X124383467Y-73953153D01*
X124384300Y-73970100D01*
X124384300Y-74365900D01*
X124383467Y-74382847D01*
X124380978Y-74399631D01*
X124376855Y-74416090D01*
X124371139Y-74432066D01*
X124363884Y-74447404D01*
X124355161Y-74461958D01*
X124345054Y-74475587D01*
X124333659Y-74488159D01*
X124321087Y-74499554D01*
X124307458Y-74509661D01*
X124292904Y-74518384D01*
X124277566Y-74525639D01*
X124261590Y-74531355D01*
X124245131Y-74535478D01*
X124228347Y-74537967D01*
X124211400Y-74538800D01*
X123865600Y-74538800D01*
X123848653Y-74537967D01*
X123831869Y-74535478D01*
X123815410Y-74531355D01*
X123799434Y-74525639D01*
X123784096Y-74518384D01*
X123769542Y-74509661D01*
X123755913Y-74499554D01*
X123743341Y-74488159D01*
X123731946Y-74475587D01*
X123721839Y-74461958D01*
X123713116Y-74447404D01*
X123705861Y-74432066D01*
X123700145Y-74416090D01*
X123696022Y-74399631D01*
X123693533Y-74382847D01*
X123692700Y-74365900D01*
X123692700Y-73970100D01*
X123693533Y-73953153D01*
X123696022Y-73936369D01*
X123700145Y-73919910D01*
X123705861Y-73903934D01*
X123713116Y-73888596D01*
X123721839Y-73874042D01*
X123731946Y-73860413D01*
X123743341Y-73847841D01*
X123755913Y-73836446D01*
X123769542Y-73826339D01*
X123784096Y-73817616D01*
X123799434Y-73810361D01*
X123815410Y-73804645D01*
X123831869Y-73800522D01*
X123848653Y-73798033D01*
X123865600Y-73797200D01*
X124211400Y-73797200D01*
X124228347Y-73798033D01*
X124228347Y-73798033D01*
G37*
D18*
X124038500Y-74168000D03*
D17*
G36*
X125198347Y-73798033D02*
G01*
X125215131Y-73800522D01*
X125231590Y-73804645D01*
X125247566Y-73810361D01*
X125262904Y-73817616D01*
X125277458Y-73826339D01*
X125291087Y-73836446D01*
X125303659Y-73847841D01*
X125315054Y-73860413D01*
X125325161Y-73874042D01*
X125333884Y-73888596D01*
X125341139Y-73903934D01*
X125346855Y-73919910D01*
X125350978Y-73936369D01*
X125353467Y-73953153D01*
X125354300Y-73970100D01*
X125354300Y-74365900D01*
X125353467Y-74382847D01*
X125350978Y-74399631D01*
X125346855Y-74416090D01*
X125341139Y-74432066D01*
X125333884Y-74447404D01*
X125325161Y-74461958D01*
X125315054Y-74475587D01*
X125303659Y-74488159D01*
X125291087Y-74499554D01*
X125277458Y-74509661D01*
X125262904Y-74518384D01*
X125247566Y-74525639D01*
X125231590Y-74531355D01*
X125215131Y-74535478D01*
X125198347Y-74537967D01*
X125181400Y-74538800D01*
X124835600Y-74538800D01*
X124818653Y-74537967D01*
X124801869Y-74535478D01*
X124785410Y-74531355D01*
X124769434Y-74525639D01*
X124754096Y-74518384D01*
X124739542Y-74509661D01*
X124725913Y-74499554D01*
X124713341Y-74488159D01*
X124701946Y-74475587D01*
X124691839Y-74461958D01*
X124683116Y-74447404D01*
X124675861Y-74432066D01*
X124670145Y-74416090D01*
X124666022Y-74399631D01*
X124663533Y-74382847D01*
X124662700Y-74365900D01*
X124662700Y-73970100D01*
X124663533Y-73953153D01*
X124666022Y-73936369D01*
X124670145Y-73919910D01*
X124675861Y-73903934D01*
X124683116Y-73888596D01*
X124691839Y-73874042D01*
X124701946Y-73860413D01*
X124713341Y-73847841D01*
X124725913Y-73836446D01*
X124739542Y-73826339D01*
X124754096Y-73817616D01*
X124769434Y-73810361D01*
X124785410Y-73804645D01*
X124801869Y-73800522D01*
X124818653Y-73798033D01*
X124835600Y-73797200D01*
X125181400Y-73797200D01*
X125198347Y-73798033D01*
X125198347Y-73798033D01*
G37*
D18*
X125008500Y-74168000D03*
D17*
G36*
X123258067Y-73798033D02*
G01*
X123274851Y-73800522D01*
X123291310Y-73804645D01*
X123307286Y-73810361D01*
X123322624Y-73817616D01*
X123337178Y-73826339D01*
X123350807Y-73836446D01*
X123363379Y-73847841D01*
X123374774Y-73860413D01*
X123384881Y-73874042D01*
X123393604Y-73888596D01*
X123400859Y-73903934D01*
X123406575Y-73919910D01*
X123410698Y-73936369D01*
X123413187Y-73953153D01*
X123414020Y-73970100D01*
X123414020Y-74365900D01*
X123413187Y-74382847D01*
X123410698Y-74399631D01*
X123406575Y-74416090D01*
X123400859Y-74432066D01*
X123393604Y-74447404D01*
X123384881Y-74461958D01*
X123374774Y-74475587D01*
X123363379Y-74488159D01*
X123350807Y-74499554D01*
X123337178Y-74509661D01*
X123322624Y-74518384D01*
X123307286Y-74525639D01*
X123291310Y-74531355D01*
X123274851Y-74535478D01*
X123258067Y-74537967D01*
X123241120Y-74538800D01*
X122895320Y-74538800D01*
X122878373Y-74537967D01*
X122861589Y-74535478D01*
X122845130Y-74531355D01*
X122829154Y-74525639D01*
X122813816Y-74518384D01*
X122799262Y-74509661D01*
X122785633Y-74499554D01*
X122773061Y-74488159D01*
X122761666Y-74475587D01*
X122751559Y-74461958D01*
X122742836Y-74447404D01*
X122735581Y-74432066D01*
X122729865Y-74416090D01*
X122725742Y-74399631D01*
X122723253Y-74382847D01*
X122722420Y-74365900D01*
X122722420Y-73970100D01*
X122723253Y-73953153D01*
X122725742Y-73936369D01*
X122729865Y-73919910D01*
X122735581Y-73903934D01*
X122742836Y-73888596D01*
X122751559Y-73874042D01*
X122761666Y-73860413D01*
X122773061Y-73847841D01*
X122785633Y-73836446D01*
X122799262Y-73826339D01*
X122813816Y-73817616D01*
X122829154Y-73810361D01*
X122845130Y-73804645D01*
X122861589Y-73800522D01*
X122878373Y-73798033D01*
X122895320Y-73797200D01*
X123241120Y-73797200D01*
X123258067Y-73798033D01*
X123258067Y-73798033D01*
G37*
D18*
X123068220Y-74168000D03*
D17*
G36*
X124228067Y-73798033D02*
G01*
X124244851Y-73800522D01*
X124261310Y-73804645D01*
X124277286Y-73810361D01*
X124292624Y-73817616D01*
X124307178Y-73826339D01*
X124320807Y-73836446D01*
X124333379Y-73847841D01*
X124344774Y-73860413D01*
X124354881Y-73874042D01*
X124363604Y-73888596D01*
X124370859Y-73903934D01*
X124376575Y-73919910D01*
X124380698Y-73936369D01*
X124383187Y-73953153D01*
X124384020Y-73970100D01*
X124384020Y-74365900D01*
X124383187Y-74382847D01*
X124380698Y-74399631D01*
X124376575Y-74416090D01*
X124370859Y-74432066D01*
X124363604Y-74447404D01*
X124354881Y-74461958D01*
X124344774Y-74475587D01*
X124333379Y-74488159D01*
X124320807Y-74499554D01*
X124307178Y-74509661D01*
X124292624Y-74518384D01*
X124277286Y-74525639D01*
X124261310Y-74531355D01*
X124244851Y-74535478D01*
X124228067Y-74537967D01*
X124211120Y-74538800D01*
X123865320Y-74538800D01*
X123848373Y-74537967D01*
X123831589Y-74535478D01*
X123815130Y-74531355D01*
X123799154Y-74525639D01*
X123783816Y-74518384D01*
X123769262Y-74509661D01*
X123755633Y-74499554D01*
X123743061Y-74488159D01*
X123731666Y-74475587D01*
X123721559Y-74461958D01*
X123712836Y-74447404D01*
X123705581Y-74432066D01*
X123699865Y-74416090D01*
X123695742Y-74399631D01*
X123693253Y-74382847D01*
X123692420Y-74365900D01*
X123692420Y-73970100D01*
X123693253Y-73953153D01*
X123695742Y-73936369D01*
X123699865Y-73919910D01*
X123705581Y-73903934D01*
X123712836Y-73888596D01*
X123721559Y-73874042D01*
X123731666Y-73860413D01*
X123743061Y-73847841D01*
X123755633Y-73836446D01*
X123769262Y-73826339D01*
X123783816Y-73817616D01*
X123799154Y-73810361D01*
X123815130Y-73804645D01*
X123831589Y-73800522D01*
X123848373Y-73798033D01*
X123865320Y-73797200D01*
X124211120Y-73797200D01*
X124228067Y-73798033D01*
X124228067Y-73798033D01*
G37*
D18*
X124038220Y-74168000D03*
D17*
G36*
X124228347Y-75195033D02*
G01*
X124245131Y-75197522D01*
X124261590Y-75201645D01*
X124277566Y-75207361D01*
X124292904Y-75214616D01*
X124307458Y-75223339D01*
X124321087Y-75233446D01*
X124333659Y-75244841D01*
X124345054Y-75257413D01*
X124355161Y-75271042D01*
X124363884Y-75285596D01*
X124371139Y-75300934D01*
X124376855Y-75316910D01*
X124380978Y-75333369D01*
X124383467Y-75350153D01*
X124384300Y-75367100D01*
X124384300Y-75762900D01*
X124383467Y-75779847D01*
X124380978Y-75796631D01*
X124376855Y-75813090D01*
X124371139Y-75829066D01*
X124363884Y-75844404D01*
X124355161Y-75858958D01*
X124345054Y-75872587D01*
X124333659Y-75885159D01*
X124321087Y-75896554D01*
X124307458Y-75906661D01*
X124292904Y-75915384D01*
X124277566Y-75922639D01*
X124261590Y-75928355D01*
X124245131Y-75932478D01*
X124228347Y-75934967D01*
X124211400Y-75935800D01*
X123865600Y-75935800D01*
X123848653Y-75934967D01*
X123831869Y-75932478D01*
X123815410Y-75928355D01*
X123799434Y-75922639D01*
X123784096Y-75915384D01*
X123769542Y-75906661D01*
X123755913Y-75896554D01*
X123743341Y-75885159D01*
X123731946Y-75872587D01*
X123721839Y-75858958D01*
X123713116Y-75844404D01*
X123705861Y-75829066D01*
X123700145Y-75813090D01*
X123696022Y-75796631D01*
X123693533Y-75779847D01*
X123692700Y-75762900D01*
X123692700Y-75367100D01*
X123693533Y-75350153D01*
X123696022Y-75333369D01*
X123700145Y-75316910D01*
X123705861Y-75300934D01*
X123713116Y-75285596D01*
X123721839Y-75271042D01*
X123731946Y-75257413D01*
X123743341Y-75244841D01*
X123755913Y-75233446D01*
X123769542Y-75223339D01*
X123784096Y-75214616D01*
X123799434Y-75207361D01*
X123815410Y-75201645D01*
X123831869Y-75197522D01*
X123848653Y-75195033D01*
X123865600Y-75194200D01*
X124211400Y-75194200D01*
X124228347Y-75195033D01*
X124228347Y-75195033D01*
G37*
D18*
X124038500Y-75565000D03*
D17*
G36*
X125198347Y-75195033D02*
G01*
X125215131Y-75197522D01*
X125231590Y-75201645D01*
X125247566Y-75207361D01*
X125262904Y-75214616D01*
X125277458Y-75223339D01*
X125291087Y-75233446D01*
X125303659Y-75244841D01*
X125315054Y-75257413D01*
X125325161Y-75271042D01*
X125333884Y-75285596D01*
X125341139Y-75300934D01*
X125346855Y-75316910D01*
X125350978Y-75333369D01*
X125353467Y-75350153D01*
X125354300Y-75367100D01*
X125354300Y-75762900D01*
X125353467Y-75779847D01*
X125350978Y-75796631D01*
X125346855Y-75813090D01*
X125341139Y-75829066D01*
X125333884Y-75844404D01*
X125325161Y-75858958D01*
X125315054Y-75872587D01*
X125303659Y-75885159D01*
X125291087Y-75896554D01*
X125277458Y-75906661D01*
X125262904Y-75915384D01*
X125247566Y-75922639D01*
X125231590Y-75928355D01*
X125215131Y-75932478D01*
X125198347Y-75934967D01*
X125181400Y-75935800D01*
X124835600Y-75935800D01*
X124818653Y-75934967D01*
X124801869Y-75932478D01*
X124785410Y-75928355D01*
X124769434Y-75922639D01*
X124754096Y-75915384D01*
X124739542Y-75906661D01*
X124725913Y-75896554D01*
X124713341Y-75885159D01*
X124701946Y-75872587D01*
X124691839Y-75858958D01*
X124683116Y-75844404D01*
X124675861Y-75829066D01*
X124670145Y-75813090D01*
X124666022Y-75796631D01*
X124663533Y-75779847D01*
X124662700Y-75762900D01*
X124662700Y-75367100D01*
X124663533Y-75350153D01*
X124666022Y-75333369D01*
X124670145Y-75316910D01*
X124675861Y-75300934D01*
X124683116Y-75285596D01*
X124691839Y-75271042D01*
X124701946Y-75257413D01*
X124713341Y-75244841D01*
X124725913Y-75233446D01*
X124739542Y-75223339D01*
X124754096Y-75214616D01*
X124769434Y-75207361D01*
X124785410Y-75201645D01*
X124801869Y-75197522D01*
X124818653Y-75195033D01*
X124835600Y-75194200D01*
X125181400Y-75194200D01*
X125198347Y-75195033D01*
X125198347Y-75195033D01*
G37*
D18*
X125008500Y-75565000D03*
D17*
G36*
X123258067Y-75195033D02*
G01*
X123274851Y-75197522D01*
X123291310Y-75201645D01*
X123307286Y-75207361D01*
X123322624Y-75214616D01*
X123337178Y-75223339D01*
X123350807Y-75233446D01*
X123363379Y-75244841D01*
X123374774Y-75257413D01*
X123384881Y-75271042D01*
X123393604Y-75285596D01*
X123400859Y-75300934D01*
X123406575Y-75316910D01*
X123410698Y-75333369D01*
X123413187Y-75350153D01*
X123414020Y-75367100D01*
X123414020Y-75762900D01*
X123413187Y-75779847D01*
X123410698Y-75796631D01*
X123406575Y-75813090D01*
X123400859Y-75829066D01*
X123393604Y-75844404D01*
X123384881Y-75858958D01*
X123374774Y-75872587D01*
X123363379Y-75885159D01*
X123350807Y-75896554D01*
X123337178Y-75906661D01*
X123322624Y-75915384D01*
X123307286Y-75922639D01*
X123291310Y-75928355D01*
X123274851Y-75932478D01*
X123258067Y-75934967D01*
X123241120Y-75935800D01*
X122895320Y-75935800D01*
X122878373Y-75934967D01*
X122861589Y-75932478D01*
X122845130Y-75928355D01*
X122829154Y-75922639D01*
X122813816Y-75915384D01*
X122799262Y-75906661D01*
X122785633Y-75896554D01*
X122773061Y-75885159D01*
X122761666Y-75872587D01*
X122751559Y-75858958D01*
X122742836Y-75844404D01*
X122735581Y-75829066D01*
X122729865Y-75813090D01*
X122725742Y-75796631D01*
X122723253Y-75779847D01*
X122722420Y-75762900D01*
X122722420Y-75367100D01*
X122723253Y-75350153D01*
X122725742Y-75333369D01*
X122729865Y-75316910D01*
X122735581Y-75300934D01*
X122742836Y-75285596D01*
X122751559Y-75271042D01*
X122761666Y-75257413D01*
X122773061Y-75244841D01*
X122785633Y-75233446D01*
X122799262Y-75223339D01*
X122813816Y-75214616D01*
X122829154Y-75207361D01*
X122845130Y-75201645D01*
X122861589Y-75197522D01*
X122878373Y-75195033D01*
X122895320Y-75194200D01*
X123241120Y-75194200D01*
X123258067Y-75195033D01*
X123258067Y-75195033D01*
G37*
D18*
X123068220Y-75565000D03*
D17*
G36*
X124228067Y-75195033D02*
G01*
X124244851Y-75197522D01*
X124261310Y-75201645D01*
X124277286Y-75207361D01*
X124292624Y-75214616D01*
X124307178Y-75223339D01*
X124320807Y-75233446D01*
X124333379Y-75244841D01*
X124344774Y-75257413D01*
X124354881Y-75271042D01*
X124363604Y-75285596D01*
X124370859Y-75300934D01*
X124376575Y-75316910D01*
X124380698Y-75333369D01*
X124383187Y-75350153D01*
X124384020Y-75367100D01*
X124384020Y-75762900D01*
X124383187Y-75779847D01*
X124380698Y-75796631D01*
X124376575Y-75813090D01*
X124370859Y-75829066D01*
X124363604Y-75844404D01*
X124354881Y-75858958D01*
X124344774Y-75872587D01*
X124333379Y-75885159D01*
X124320807Y-75896554D01*
X124307178Y-75906661D01*
X124292624Y-75915384D01*
X124277286Y-75922639D01*
X124261310Y-75928355D01*
X124244851Y-75932478D01*
X124228067Y-75934967D01*
X124211120Y-75935800D01*
X123865320Y-75935800D01*
X123848373Y-75934967D01*
X123831589Y-75932478D01*
X123815130Y-75928355D01*
X123799154Y-75922639D01*
X123783816Y-75915384D01*
X123769262Y-75906661D01*
X123755633Y-75896554D01*
X123743061Y-75885159D01*
X123731666Y-75872587D01*
X123721559Y-75858958D01*
X123712836Y-75844404D01*
X123705581Y-75829066D01*
X123699865Y-75813090D01*
X123695742Y-75796631D01*
X123693253Y-75779847D01*
X123692420Y-75762900D01*
X123692420Y-75367100D01*
X123693253Y-75350153D01*
X123695742Y-75333369D01*
X123699865Y-75316910D01*
X123705581Y-75300934D01*
X123712836Y-75285596D01*
X123721559Y-75271042D01*
X123731666Y-75257413D01*
X123743061Y-75244841D01*
X123755633Y-75233446D01*
X123769262Y-75223339D01*
X123783816Y-75214616D01*
X123799154Y-75207361D01*
X123815130Y-75201645D01*
X123831589Y-75197522D01*
X123848373Y-75195033D01*
X123865320Y-75194200D01*
X124211120Y-75194200D01*
X124228067Y-75195033D01*
X124228067Y-75195033D01*
G37*
D18*
X124038220Y-75565000D03*
D17*
G36*
X127468847Y-71138533D02*
G01*
X127485631Y-71141022D01*
X127502090Y-71145145D01*
X127518066Y-71150861D01*
X127533404Y-71158116D01*
X127547958Y-71166839D01*
X127561587Y-71176946D01*
X127574159Y-71188341D01*
X127585554Y-71200913D01*
X127595661Y-71214542D01*
X127604384Y-71229096D01*
X127611639Y-71244434D01*
X127617355Y-71260410D01*
X127621478Y-71276869D01*
X127623967Y-71293653D01*
X127624800Y-71310600D01*
X127624800Y-71656400D01*
X127623967Y-71673347D01*
X127621478Y-71690131D01*
X127617355Y-71706590D01*
X127611639Y-71722566D01*
X127604384Y-71737904D01*
X127595661Y-71752458D01*
X127585554Y-71766087D01*
X127574159Y-71778659D01*
X127561587Y-71790054D01*
X127547958Y-71800161D01*
X127533404Y-71808884D01*
X127518066Y-71816139D01*
X127502090Y-71821855D01*
X127485631Y-71825978D01*
X127468847Y-71828467D01*
X127451900Y-71829300D01*
X127056100Y-71829300D01*
X127039153Y-71828467D01*
X127022369Y-71825978D01*
X127005910Y-71821855D01*
X126989934Y-71816139D01*
X126974596Y-71808884D01*
X126960042Y-71800161D01*
X126946413Y-71790054D01*
X126933841Y-71778659D01*
X126922446Y-71766087D01*
X126912339Y-71752458D01*
X126903616Y-71737904D01*
X126896361Y-71722566D01*
X126890645Y-71706590D01*
X126886522Y-71690131D01*
X126884033Y-71673347D01*
X126883200Y-71656400D01*
X126883200Y-71310600D01*
X126884033Y-71293653D01*
X126886522Y-71276869D01*
X126890645Y-71260410D01*
X126896361Y-71244434D01*
X126903616Y-71229096D01*
X126912339Y-71214542D01*
X126922446Y-71200913D01*
X126933841Y-71188341D01*
X126946413Y-71176946D01*
X126960042Y-71166839D01*
X126974596Y-71158116D01*
X126989934Y-71150861D01*
X127005910Y-71145145D01*
X127022369Y-71141022D01*
X127039153Y-71138533D01*
X127056100Y-71137700D01*
X127451900Y-71137700D01*
X127468847Y-71138533D01*
X127468847Y-71138533D01*
G37*
D18*
X127254000Y-71483500D03*
D17*
G36*
X127468847Y-72108533D02*
G01*
X127485631Y-72111022D01*
X127502090Y-72115145D01*
X127518066Y-72120861D01*
X127533404Y-72128116D01*
X127547958Y-72136839D01*
X127561587Y-72146946D01*
X127574159Y-72158341D01*
X127585554Y-72170913D01*
X127595661Y-72184542D01*
X127604384Y-72199096D01*
X127611639Y-72214434D01*
X127617355Y-72230410D01*
X127621478Y-72246869D01*
X127623967Y-72263653D01*
X127624800Y-72280600D01*
X127624800Y-72626400D01*
X127623967Y-72643347D01*
X127621478Y-72660131D01*
X127617355Y-72676590D01*
X127611639Y-72692566D01*
X127604384Y-72707904D01*
X127595661Y-72722458D01*
X127585554Y-72736087D01*
X127574159Y-72748659D01*
X127561587Y-72760054D01*
X127547958Y-72770161D01*
X127533404Y-72778884D01*
X127518066Y-72786139D01*
X127502090Y-72791855D01*
X127485631Y-72795978D01*
X127468847Y-72798467D01*
X127451900Y-72799300D01*
X127056100Y-72799300D01*
X127039153Y-72798467D01*
X127022369Y-72795978D01*
X127005910Y-72791855D01*
X126989934Y-72786139D01*
X126974596Y-72778884D01*
X126960042Y-72770161D01*
X126946413Y-72760054D01*
X126933841Y-72748659D01*
X126922446Y-72736087D01*
X126912339Y-72722458D01*
X126903616Y-72707904D01*
X126896361Y-72692566D01*
X126890645Y-72676590D01*
X126886522Y-72660131D01*
X126884033Y-72643347D01*
X126883200Y-72626400D01*
X126883200Y-72280600D01*
X126884033Y-72263653D01*
X126886522Y-72246869D01*
X126890645Y-72230410D01*
X126896361Y-72214434D01*
X126903616Y-72199096D01*
X126912339Y-72184542D01*
X126922446Y-72170913D01*
X126933841Y-72158341D01*
X126946413Y-72146946D01*
X126960042Y-72136839D01*
X126974596Y-72128116D01*
X126989934Y-72120861D01*
X127005910Y-72115145D01*
X127022369Y-72111022D01*
X127039153Y-72108533D01*
X127056100Y-72107700D01*
X127451900Y-72107700D01*
X127468847Y-72108533D01*
X127468847Y-72108533D01*
G37*
D18*
X127254000Y-72453500D03*
D17*
G36*
X127468847Y-70163033D02*
G01*
X127485631Y-70165522D01*
X127502090Y-70169645D01*
X127518066Y-70175361D01*
X127533404Y-70182616D01*
X127547958Y-70191339D01*
X127561587Y-70201446D01*
X127574159Y-70212841D01*
X127585554Y-70225413D01*
X127595661Y-70239042D01*
X127604384Y-70253596D01*
X127611639Y-70268934D01*
X127617355Y-70284910D01*
X127621478Y-70301369D01*
X127623967Y-70318153D01*
X127624800Y-70335100D01*
X127624800Y-70680900D01*
X127623967Y-70697847D01*
X127621478Y-70714631D01*
X127617355Y-70731090D01*
X127611639Y-70747066D01*
X127604384Y-70762404D01*
X127595661Y-70776958D01*
X127585554Y-70790587D01*
X127574159Y-70803159D01*
X127561587Y-70814554D01*
X127547958Y-70824661D01*
X127533404Y-70833384D01*
X127518066Y-70840639D01*
X127502090Y-70846355D01*
X127485631Y-70850478D01*
X127468847Y-70852967D01*
X127451900Y-70853800D01*
X127056100Y-70853800D01*
X127039153Y-70852967D01*
X127022369Y-70850478D01*
X127005910Y-70846355D01*
X126989934Y-70840639D01*
X126974596Y-70833384D01*
X126960042Y-70824661D01*
X126946413Y-70814554D01*
X126933841Y-70803159D01*
X126922446Y-70790587D01*
X126912339Y-70776958D01*
X126903616Y-70762404D01*
X126896361Y-70747066D01*
X126890645Y-70731090D01*
X126886522Y-70714631D01*
X126884033Y-70697847D01*
X126883200Y-70680900D01*
X126883200Y-70335100D01*
X126884033Y-70318153D01*
X126886522Y-70301369D01*
X126890645Y-70284910D01*
X126896361Y-70268934D01*
X126903616Y-70253596D01*
X126912339Y-70239042D01*
X126922446Y-70225413D01*
X126933841Y-70212841D01*
X126946413Y-70201446D01*
X126960042Y-70191339D01*
X126974596Y-70182616D01*
X126989934Y-70175361D01*
X127005910Y-70169645D01*
X127022369Y-70165522D01*
X127039153Y-70163033D01*
X127056100Y-70162200D01*
X127451900Y-70162200D01*
X127468847Y-70163033D01*
X127468847Y-70163033D01*
G37*
D18*
X127254000Y-70508000D03*
D17*
G36*
X127468847Y-71133033D02*
G01*
X127485631Y-71135522D01*
X127502090Y-71139645D01*
X127518066Y-71145361D01*
X127533404Y-71152616D01*
X127547958Y-71161339D01*
X127561587Y-71171446D01*
X127574159Y-71182841D01*
X127585554Y-71195413D01*
X127595661Y-71209042D01*
X127604384Y-71223596D01*
X127611639Y-71238934D01*
X127617355Y-71254910D01*
X127621478Y-71271369D01*
X127623967Y-71288153D01*
X127624800Y-71305100D01*
X127624800Y-71650900D01*
X127623967Y-71667847D01*
X127621478Y-71684631D01*
X127617355Y-71701090D01*
X127611639Y-71717066D01*
X127604384Y-71732404D01*
X127595661Y-71746958D01*
X127585554Y-71760587D01*
X127574159Y-71773159D01*
X127561587Y-71784554D01*
X127547958Y-71794661D01*
X127533404Y-71803384D01*
X127518066Y-71810639D01*
X127502090Y-71816355D01*
X127485631Y-71820478D01*
X127468847Y-71822967D01*
X127451900Y-71823800D01*
X127056100Y-71823800D01*
X127039153Y-71822967D01*
X127022369Y-71820478D01*
X127005910Y-71816355D01*
X126989934Y-71810639D01*
X126974596Y-71803384D01*
X126960042Y-71794661D01*
X126946413Y-71784554D01*
X126933841Y-71773159D01*
X126922446Y-71760587D01*
X126912339Y-71746958D01*
X126903616Y-71732404D01*
X126896361Y-71717066D01*
X126890645Y-71701090D01*
X126886522Y-71684631D01*
X126884033Y-71667847D01*
X126883200Y-71650900D01*
X126883200Y-71305100D01*
X126884033Y-71288153D01*
X126886522Y-71271369D01*
X126890645Y-71254910D01*
X126896361Y-71238934D01*
X126903616Y-71223596D01*
X126912339Y-71209042D01*
X126922446Y-71195413D01*
X126933841Y-71182841D01*
X126946413Y-71171446D01*
X126960042Y-71161339D01*
X126974596Y-71152616D01*
X126989934Y-71145361D01*
X127005910Y-71139645D01*
X127022369Y-71135522D01*
X127039153Y-71133033D01*
X127056100Y-71132200D01*
X127451900Y-71132200D01*
X127468847Y-71133033D01*
X127468847Y-71133033D01*
G37*
D18*
X127254000Y-71478000D03*
M02*
