M48
; DRILL file {KiCad (5.1.4)-1} date 10/25/2019 8:38:11 PM
; FORMAT={-:-/ absolute / inch / decimal}
; #@! TF.CreationDate,2019-10-25T20:38:11-07:00
; #@! TF.GenerationSoftware,Kicad,Pcbnew,(5.1.4)-1
FMAT,2
INCH
T1C0.0150
T2C0.0157
T3C0.0236
%
G90
G05
T1
X4.025Y-2.63
X4.025Y-2.655
X4.16Y-2.82
X4.2077Y-2.5236
X4.2139Y-2.5777
X4.2475Y-2.445
X4.2907Y-2.4986
X4.2907Y-2.5476
X4.315Y-2.41
X4.3167Y-2.6336
X4.3171Y-2.5215
X4.3407Y-2.5476
X4.341Y-2.4976
X4.4075Y-2.4166
X4.465Y-2.7775
X4.5Y-2.5075
X4.5775Y-2.395
X4.63Y-2.4475
X4.63Y-2.5075
X4.7275Y-2.6125
X4.7288Y-2.3379
X4.735Y-2.4254
X4.74Y-2.37
X4.8Y-1.85
X4.8Y-2.39
X4.8125Y-2.455
X4.815Y-2.8775
X4.8525Y-2.455
X4.855Y-2.7625
X4.865Y-2.9475
X4.8825Y-2.8225
X4.8825Y-2.89
X4.8837Y-3.0023
X4.9025Y-2.9475
X4.97Y-2.85
X4.9725Y-2.775
X4.9725Y-2.8125
X5.01Y-2.7475
X5.01Y-2.8825
T2
X3.6Y-2.3
X3.6Y-2.365
X3.95Y-2.465
X3.95Y-2.535
X3.95Y-2.605
T3
X4.3228Y-2.0276
X4.3602Y-2.0276
X4.3976Y-2.0276
X4.5945Y-2.0276
X4.6319Y-2.0276
X4.6693Y-2.0276
T0
M30
