M48
INCH,TZ
T1C0.0150
%
G90
G05
T1
X38800Y-25000
X38800Y-25500
X38800Y-26000
X39175Y-21200
X39175Y-21450
X40525Y-23100
X41002Y-20136
X41064Y-20677
X41400Y-19350
X41832Y-19886
X41832Y-20376
X42075Y-19000
X42092Y-21236
X42096Y-20115
X42332Y-20376
X42335Y-19876
X43005Y-19155
X43075Y-20675
X43950Y-20000
X44700Y-18850
X44850Y-19200
X44850Y-19925
X45225Y-19925
X45750Y-20375
X46175Y-18675
X46200Y-21025
X46275Y-19154
X46475Y-18600
X48425Y-19050
X48425Y-19400
X48425Y-20425
X48425Y-20700
X48425Y-20975
X48875Y-19475
X49025Y-20050
X49600Y-18800
X49850Y-34500
X50000Y-18800
X50000Y-19400
X50425Y-20050
X50950Y-34500
T0
M30
