G04 #@! TF.GenerationSoftware,KiCad,Pcbnew,(5.1.4)-1*
G04 #@! TF.CreationDate,2019-10-25T18:14:47-07:00*
G04 #@! TF.ProjectId,SolarCellX_v3,536f6c61-7243-4656-9c6c-585f76332e6b,rev?*
G04 #@! TF.SameCoordinates,Original*
G04 #@! TF.FileFunction,Legend,Top*
G04 #@! TF.FilePolarity,Positive*
%FSLAX46Y46*%
G04 Gerber Fmt 4.6, Leading zero omitted, Abs format (unit mm)*
G04 Created by KiCad (PCBNEW (5.1.4)-1) date 2019-10-25 18:14:47*
%MOMM*%
%LPD*%
G04 APERTURE LIST*
%ADD10C,0.127000*%
%ADD11C,0.203200*%
%ADD12C,0.120000*%
%ADD13C,0.050000*%
%ADD14C,0.010000*%
%ADD15C,0.100000*%
%ADD16C,0.101600*%
G04 APERTURE END LIST*
D10*
X127039309Y-51468261D02*
X127432404Y-51468261D01*
X127220738Y-51710166D01*
X127311452Y-51710166D01*
X127371928Y-51740404D01*
X127402166Y-51770642D01*
X127432404Y-51831119D01*
X127432404Y-51982309D01*
X127402166Y-52042785D01*
X127371928Y-52073023D01*
X127311452Y-52103261D01*
X127130023Y-52103261D01*
X127069547Y-52073023D01*
X127039309Y-52042785D01*
X127613833Y-51468261D02*
X127825500Y-52103261D01*
X128037166Y-51468261D01*
X128188357Y-51468261D02*
X128581452Y-51468261D01*
X128369785Y-51710166D01*
X128460500Y-51710166D01*
X128520976Y-51740404D01*
X128551214Y-51770642D01*
X128581452Y-51831119D01*
X128581452Y-51982309D01*
X128551214Y-52042785D01*
X128520976Y-52073023D01*
X128460500Y-52103261D01*
X128279071Y-52103261D01*
X128218595Y-52073023D01*
X128188357Y-52042785D01*
X124484190Y-51498500D02*
X124423714Y-51468261D01*
X124333000Y-51468261D01*
X124242285Y-51498500D01*
X124181809Y-51558976D01*
X124151571Y-51619452D01*
X124121333Y-51740404D01*
X124121333Y-51831119D01*
X124151571Y-51952071D01*
X124181809Y-52012547D01*
X124242285Y-52073023D01*
X124333000Y-52103261D01*
X124393476Y-52103261D01*
X124484190Y-52073023D01*
X124514428Y-52042785D01*
X124514428Y-51831119D01*
X124393476Y-51831119D01*
X124786571Y-52103261D02*
X124786571Y-51468261D01*
X125149428Y-52103261D01*
X125149428Y-51468261D01*
X125451809Y-52103261D02*
X125451809Y-51468261D01*
X125603000Y-51468261D01*
X125693714Y-51498500D01*
X125754190Y-51558976D01*
X125784428Y-51619452D01*
X125814666Y-51740404D01*
X125814666Y-51831119D01*
X125784428Y-51952071D01*
X125754190Y-52012547D01*
X125693714Y-52073023D01*
X125603000Y-52103261D01*
X125451809Y-52103261D01*
D11*
X116531571Y-50627642D02*
X117402428Y-50627642D01*
D10*
X114197190Y-52547761D02*
X114197190Y-51912761D01*
X114439095Y-51912761D01*
X114499571Y-51943000D01*
X114529809Y-51973238D01*
X114560047Y-52033714D01*
X114560047Y-52124428D01*
X114529809Y-52184904D01*
X114499571Y-52215142D01*
X114439095Y-52245380D01*
X114197190Y-52245380D01*
X114544928Y-48798238D02*
X114544928Y-49433238D01*
X114182071Y-48798238D01*
X114182071Y-49433238D01*
D11*
X111896071Y-50627642D02*
X112766928Y-50627642D01*
X112331500Y-51063071D02*
X112331500Y-50192214D01*
D12*
X113538000Y-50609500D02*
X113220500Y-50609500D01*
X114744500Y-50609500D02*
X114427000Y-50609500D01*
X113792000Y-50609500D02*
X114109500Y-50609500D01*
X115125500Y-50609500D02*
X115443000Y-50609500D01*
X116078000Y-50609500D02*
X115760500Y-50609500D01*
D13*
X96200000Y-47000000D02*
G75*
G03X96200000Y-47000000I-1100000J0D01*
G01*
X97100000Y-81400000D02*
G75*
G03X97100000Y-81400000I-2000000J0D01*
G01*
X136900000Y-81400000D02*
G75*
G03X136900000Y-81400000I-2000000J0D01*
G01*
X136900000Y-47000000D02*
G75*
G03X136900000Y-47000000I-2000000J0D01*
G01*
X97100000Y-47000000D02*
G75*
G03X97100000Y-47000000I-2000000J0D01*
G01*
X96200000Y-81400000D02*
G75*
G03X96200000Y-81400000I-1100000J0D01*
G01*
X136000000Y-81400000D02*
G75*
G03X136000000Y-81400000I-1100000J0D01*
G01*
X136000000Y-47000000D02*
G75*
G03X136000000Y-47000000I-1100000J0D01*
G01*
X90000000Y-88400000D02*
X138400000Y-88400000D01*
X90000000Y-88400000D02*
X90000000Y-40000000D01*
X138400000Y-40000000D02*
X138400000Y-88400000D01*
X90000000Y-40000000D02*
X138400000Y-40000000D01*
D14*
G36*
X126128639Y-80584081D02*
G01*
X126265896Y-80584527D01*
X126277940Y-80584577D01*
X127054480Y-80587850D01*
X127389917Y-81286350D01*
X127501025Y-81518293D01*
X127600994Y-81728208D01*
X127690126Y-81916741D01*
X127768722Y-82084542D01*
X127837084Y-82232258D01*
X127895512Y-82360539D01*
X127944309Y-82470031D01*
X127983777Y-82561383D01*
X127991013Y-82578575D01*
X128010741Y-82623427D01*
X128027567Y-82657572D01*
X128038725Y-82675542D01*
X128040806Y-82677000D01*
X128047966Y-82665762D01*
X128062502Y-82634592D01*
X128082772Y-82587302D01*
X128107135Y-82527704D01*
X128129677Y-82470625D01*
X128195999Y-82303822D01*
X128270017Y-82124745D01*
X128352537Y-81931542D01*
X128444367Y-81722362D01*
X128546313Y-81495353D01*
X128659182Y-81248664D01*
X128712262Y-81133950D01*
X128965736Y-80587850D01*
X129735468Y-80584576D01*
X129879562Y-80584143D01*
X130013553Y-80584094D01*
X130135490Y-80584410D01*
X130243427Y-80585069D01*
X130335415Y-80586052D01*
X130409506Y-80587338D01*
X130463752Y-80588909D01*
X130496205Y-80590743D01*
X130505200Y-80592496D01*
X130498961Y-80604657D01*
X130480739Y-80637506D01*
X130451277Y-80689751D01*
X130411315Y-80760097D01*
X130361596Y-80847251D01*
X130302862Y-80949919D01*
X130235854Y-81066807D01*
X130161315Y-81196622D01*
X130079986Y-81338070D01*
X129992608Y-81489858D01*
X129899925Y-81650690D01*
X129802678Y-81819275D01*
X129701609Y-81994317D01*
X129666442Y-82055184D01*
X129564278Y-82232185D01*
X129465774Y-82403243D01*
X129371667Y-82567059D01*
X129282694Y-82722333D01*
X129199590Y-82867767D01*
X129123092Y-83002063D01*
X129053938Y-83123922D01*
X128992863Y-83232044D01*
X128940604Y-83325132D01*
X128897897Y-83401886D01*
X128865479Y-83461009D01*
X128844086Y-83501200D01*
X128834455Y-83521162D01*
X128833990Y-83523109D01*
X128841008Y-83535871D01*
X128860043Y-83569330D01*
X128890361Y-83622211D01*
X128931226Y-83693245D01*
X128981903Y-83781159D01*
X129041659Y-83884682D01*
X129109757Y-84002542D01*
X129185463Y-84133468D01*
X129268042Y-84276188D01*
X129356759Y-84429430D01*
X129450879Y-84591923D01*
X129549667Y-84762395D01*
X129652389Y-84939575D01*
X129717198Y-85051321D01*
X129821851Y-85231789D01*
X129922942Y-85406203D01*
X130019743Y-85573304D01*
X130111526Y-85731831D01*
X130197563Y-85880524D01*
X130277125Y-86018121D01*
X130349486Y-86143363D01*
X130413916Y-86254990D01*
X130469689Y-86351740D01*
X130516075Y-86432354D01*
X130552347Y-86495571D01*
X130577776Y-86540131D01*
X130591636Y-86564773D01*
X130594100Y-86569500D01*
X130581761Y-86570633D01*
X130546190Y-86571702D01*
X130489556Y-86572689D01*
X130414026Y-86573576D01*
X130321768Y-86574346D01*
X130214951Y-86574981D01*
X130095742Y-86575463D01*
X129966310Y-86575775D01*
X129828822Y-86575898D01*
X129813014Y-86575900D01*
X129031928Y-86575900D01*
X128495389Y-85497096D01*
X128418453Y-85342538D01*
X128344677Y-85194588D01*
X128274849Y-85054812D01*
X128209756Y-84924776D01*
X128150186Y-84806045D01*
X128096929Y-84700184D01*
X128050770Y-84608760D01*
X128012500Y-84533337D01*
X127982905Y-84475482D01*
X127962773Y-84436759D01*
X127952894Y-84418736D01*
X127952033Y-84417596D01*
X127945284Y-84428519D01*
X127931265Y-84459057D01*
X127911752Y-84505091D01*
X127888519Y-84562500D01*
X127877099Y-84591525D01*
X127857511Y-84639695D01*
X127828396Y-84708455D01*
X127790866Y-84795333D01*
X127746034Y-84897854D01*
X127695014Y-85013547D01*
X127638918Y-85139936D01*
X127578859Y-85274549D01*
X127515952Y-85414913D01*
X127451307Y-85558555D01*
X127386039Y-85703000D01*
X127321261Y-85845777D01*
X127258086Y-85984411D01*
X127197627Y-86116429D01*
X127140996Y-86239359D01*
X127089307Y-86350726D01*
X127043673Y-86448058D01*
X127005499Y-86528275D01*
X126982595Y-86575900D01*
X125435391Y-86575900D01*
X125461487Y-86531669D01*
X125477330Y-86504467D01*
X125504173Y-86457956D01*
X125541131Y-86393686D01*
X125587320Y-86313205D01*
X125641854Y-86218065D01*
X125703848Y-86109815D01*
X125772419Y-85990005D01*
X125846681Y-85860185D01*
X125925749Y-85721904D01*
X126008739Y-85576713D01*
X126094765Y-85426161D01*
X126182943Y-85271798D01*
X126272389Y-85115175D01*
X126362217Y-84957841D01*
X126451542Y-84801345D01*
X126539481Y-84647238D01*
X126625147Y-84497070D01*
X126707656Y-84352390D01*
X126786124Y-84214749D01*
X126859665Y-84085696D01*
X126927395Y-83966781D01*
X126988429Y-83859554D01*
X127041882Y-83765565D01*
X127086870Y-83686364D01*
X127122507Y-83623500D01*
X127147909Y-83578524D01*
X127162191Y-83552985D01*
X127165100Y-83547509D01*
X127158970Y-83535865D01*
X127141064Y-83503399D01*
X127112108Y-83451403D01*
X127072826Y-83381167D01*
X127023945Y-83293980D01*
X126966190Y-83191132D01*
X126900286Y-83073913D01*
X126826958Y-82943614D01*
X126746933Y-82801524D01*
X126660934Y-82648933D01*
X126569689Y-82487131D01*
X126473922Y-82317409D01*
X126374358Y-82141056D01*
X126333250Y-82068269D01*
X126232355Y-81889594D01*
X126134965Y-81717021D01*
X126041804Y-81551840D01*
X125953597Y-81395343D01*
X125871071Y-81248820D01*
X125794951Y-81113561D01*
X125725961Y-80990858D01*
X125664829Y-80882000D01*
X125612278Y-80788279D01*
X125569035Y-80710985D01*
X125535826Y-80651409D01*
X125513375Y-80610841D01*
X125502408Y-80590572D01*
X125501400Y-80588434D01*
X125513737Y-80587221D01*
X125549299Y-80586177D01*
X125605913Y-80585313D01*
X125681402Y-80584641D01*
X125773594Y-80584171D01*
X125880314Y-80583914D01*
X125999387Y-80583880D01*
X126128639Y-80584081D01*
X126128639Y-80584081D01*
G37*
X126128639Y-80584081D02*
X126265896Y-80584527D01*
X126277940Y-80584577D01*
X127054480Y-80587850D01*
X127389917Y-81286350D01*
X127501025Y-81518293D01*
X127600994Y-81728208D01*
X127690126Y-81916741D01*
X127768722Y-82084542D01*
X127837084Y-82232258D01*
X127895512Y-82360539D01*
X127944309Y-82470031D01*
X127983777Y-82561383D01*
X127991013Y-82578575D01*
X128010741Y-82623427D01*
X128027567Y-82657572D01*
X128038725Y-82675542D01*
X128040806Y-82677000D01*
X128047966Y-82665762D01*
X128062502Y-82634592D01*
X128082772Y-82587302D01*
X128107135Y-82527704D01*
X128129677Y-82470625D01*
X128195999Y-82303822D01*
X128270017Y-82124745D01*
X128352537Y-81931542D01*
X128444367Y-81722362D01*
X128546313Y-81495353D01*
X128659182Y-81248664D01*
X128712262Y-81133950D01*
X128965736Y-80587850D01*
X129735468Y-80584576D01*
X129879562Y-80584143D01*
X130013553Y-80584094D01*
X130135490Y-80584410D01*
X130243427Y-80585069D01*
X130335415Y-80586052D01*
X130409506Y-80587338D01*
X130463752Y-80588909D01*
X130496205Y-80590743D01*
X130505200Y-80592496D01*
X130498961Y-80604657D01*
X130480739Y-80637506D01*
X130451277Y-80689751D01*
X130411315Y-80760097D01*
X130361596Y-80847251D01*
X130302862Y-80949919D01*
X130235854Y-81066807D01*
X130161315Y-81196622D01*
X130079986Y-81338070D01*
X129992608Y-81489858D01*
X129899925Y-81650690D01*
X129802678Y-81819275D01*
X129701609Y-81994317D01*
X129666442Y-82055184D01*
X129564278Y-82232185D01*
X129465774Y-82403243D01*
X129371667Y-82567059D01*
X129282694Y-82722333D01*
X129199590Y-82867767D01*
X129123092Y-83002063D01*
X129053938Y-83123922D01*
X128992863Y-83232044D01*
X128940604Y-83325132D01*
X128897897Y-83401886D01*
X128865479Y-83461009D01*
X128844086Y-83501200D01*
X128834455Y-83521162D01*
X128833990Y-83523109D01*
X128841008Y-83535871D01*
X128860043Y-83569330D01*
X128890361Y-83622211D01*
X128931226Y-83693245D01*
X128981903Y-83781159D01*
X129041659Y-83884682D01*
X129109757Y-84002542D01*
X129185463Y-84133468D01*
X129268042Y-84276188D01*
X129356759Y-84429430D01*
X129450879Y-84591923D01*
X129549667Y-84762395D01*
X129652389Y-84939575D01*
X129717198Y-85051321D01*
X129821851Y-85231789D01*
X129922942Y-85406203D01*
X130019743Y-85573304D01*
X130111526Y-85731831D01*
X130197563Y-85880524D01*
X130277125Y-86018121D01*
X130349486Y-86143363D01*
X130413916Y-86254990D01*
X130469689Y-86351740D01*
X130516075Y-86432354D01*
X130552347Y-86495571D01*
X130577776Y-86540131D01*
X130591636Y-86564773D01*
X130594100Y-86569500D01*
X130581761Y-86570633D01*
X130546190Y-86571702D01*
X130489556Y-86572689D01*
X130414026Y-86573576D01*
X130321768Y-86574346D01*
X130214951Y-86574981D01*
X130095742Y-86575463D01*
X129966310Y-86575775D01*
X129828822Y-86575898D01*
X129813014Y-86575900D01*
X129031928Y-86575900D01*
X128495389Y-85497096D01*
X128418453Y-85342538D01*
X128344677Y-85194588D01*
X128274849Y-85054812D01*
X128209756Y-84924776D01*
X128150186Y-84806045D01*
X128096929Y-84700184D01*
X128050770Y-84608760D01*
X128012500Y-84533337D01*
X127982905Y-84475482D01*
X127962773Y-84436759D01*
X127952894Y-84418736D01*
X127952033Y-84417596D01*
X127945284Y-84428519D01*
X127931265Y-84459057D01*
X127911752Y-84505091D01*
X127888519Y-84562500D01*
X127877099Y-84591525D01*
X127857511Y-84639695D01*
X127828396Y-84708455D01*
X127790866Y-84795333D01*
X127746034Y-84897854D01*
X127695014Y-85013547D01*
X127638918Y-85139936D01*
X127578859Y-85274549D01*
X127515952Y-85414913D01*
X127451307Y-85558555D01*
X127386039Y-85703000D01*
X127321261Y-85845777D01*
X127258086Y-85984411D01*
X127197627Y-86116429D01*
X127140996Y-86239359D01*
X127089307Y-86350726D01*
X127043673Y-86448058D01*
X127005499Y-86528275D01*
X126982595Y-86575900D01*
X125435391Y-86575900D01*
X125461487Y-86531669D01*
X125477330Y-86504467D01*
X125504173Y-86457956D01*
X125541131Y-86393686D01*
X125587320Y-86313205D01*
X125641854Y-86218065D01*
X125703848Y-86109815D01*
X125772419Y-85990005D01*
X125846681Y-85860185D01*
X125925749Y-85721904D01*
X126008739Y-85576713D01*
X126094765Y-85426161D01*
X126182943Y-85271798D01*
X126272389Y-85115175D01*
X126362217Y-84957841D01*
X126451542Y-84801345D01*
X126539481Y-84647238D01*
X126625147Y-84497070D01*
X126707656Y-84352390D01*
X126786124Y-84214749D01*
X126859665Y-84085696D01*
X126927395Y-83966781D01*
X126988429Y-83859554D01*
X127041882Y-83765565D01*
X127086870Y-83686364D01*
X127122507Y-83623500D01*
X127147909Y-83578524D01*
X127162191Y-83552985D01*
X127165100Y-83547509D01*
X127158970Y-83535865D01*
X127141064Y-83503399D01*
X127112108Y-83451403D01*
X127072826Y-83381167D01*
X127023945Y-83293980D01*
X126966190Y-83191132D01*
X126900286Y-83073913D01*
X126826958Y-82943614D01*
X126746933Y-82801524D01*
X126660934Y-82648933D01*
X126569689Y-82487131D01*
X126473922Y-82317409D01*
X126374358Y-82141056D01*
X126333250Y-82068269D01*
X126232355Y-81889594D01*
X126134965Y-81717021D01*
X126041804Y-81551840D01*
X125953597Y-81395343D01*
X125871071Y-81248820D01*
X125794951Y-81113561D01*
X125725961Y-80990858D01*
X125664829Y-80882000D01*
X125612278Y-80788279D01*
X125569035Y-80710985D01*
X125535826Y-80651409D01*
X125513375Y-80610841D01*
X125502408Y-80590572D01*
X125501400Y-80588434D01*
X125513737Y-80587221D01*
X125549299Y-80586177D01*
X125605913Y-80585313D01*
X125681402Y-80584641D01*
X125773594Y-80584171D01*
X125880314Y-80583914D01*
X125999387Y-80583880D01*
X126128639Y-80584081D01*
D15*
X124292000Y-47564000D02*
G75*
G02X124192000Y-47564000I-50000J0D01*
G01*
X124192000Y-47564000D02*
G75*
G02X124292000Y-47564000I50000J0D01*
G01*
X124192000Y-47564000D02*
X124192000Y-47564000D01*
X124292000Y-47564000D02*
X124292000Y-47564000D01*
X125992000Y-49814000D02*
X126992000Y-49821000D01*
X125992000Y-47214000D02*
X126992000Y-47211000D01*
D12*
X101666500Y-49600000D02*
X101666500Y-51400000D01*
X101666500Y-51400000D02*
X98866500Y-51400000D01*
X98866500Y-51400000D02*
X98866500Y-49600000D01*
X98866500Y-49600000D02*
X101666500Y-49600000D01*
X99466500Y-51500000D02*
X99866500Y-51500000D01*
X120358000Y-51500000D02*
X120758000Y-51500000D01*
X119758000Y-49600000D02*
X122558000Y-49600000D01*
X119758000Y-51400000D02*
X119758000Y-49600000D01*
X122558000Y-51400000D02*
X119758000Y-51400000D01*
X122558000Y-49600000D02*
X122558000Y-51400000D01*
X116250000Y-83750000D02*
X118250000Y-83750000D01*
X100950000Y-83750000D02*
X102950000Y-83750000D01*
X101950000Y-82750000D02*
X101950000Y-84750000D01*
X98250000Y-87750000D02*
X98250000Y-79750000D01*
X121250000Y-87750000D02*
X98250000Y-87750000D01*
X121250000Y-79750000D02*
X121250000Y-87750000D01*
X98250000Y-79750000D02*
X121250000Y-79750000D01*
X132750000Y-74500000D02*
X134750000Y-74500000D01*
X117450000Y-74500000D02*
X119450000Y-74500000D01*
X118450000Y-73500000D02*
X118450000Y-75500000D01*
X114750000Y-78500000D02*
X114750000Y-70500000D01*
X137750000Y-78500000D02*
X114750000Y-78500000D01*
X137750000Y-70500000D02*
X137750000Y-78500000D01*
X114750000Y-70500000D02*
X137750000Y-70500000D01*
X132750000Y-65250000D02*
X134750000Y-65250000D01*
X117450000Y-65250000D02*
X119450000Y-65250000D01*
X118450000Y-64250000D02*
X118450000Y-66250000D01*
X114750000Y-69250000D02*
X114750000Y-61250000D01*
X137750000Y-69250000D02*
X114750000Y-69250000D01*
X137750000Y-61250000D02*
X137750000Y-69250000D01*
X114750000Y-61250000D02*
X137750000Y-61250000D01*
X132750000Y-56250000D02*
X134750000Y-56250000D01*
X117450000Y-56250000D02*
X119450000Y-56250000D01*
X118450000Y-55250000D02*
X118450000Y-57250000D01*
X114750000Y-60250000D02*
X114750000Y-52250000D01*
X137750000Y-60250000D02*
X114750000Y-60250000D01*
X137750000Y-52250000D02*
X137750000Y-60250000D01*
X114750000Y-52250000D02*
X137750000Y-52250000D01*
X116000000Y-44750000D02*
X118000000Y-44750000D01*
X100700000Y-44750000D02*
X102700000Y-44750000D01*
X101700000Y-43750000D02*
X101700000Y-45750000D01*
X98000000Y-48750000D02*
X98000000Y-40750000D01*
X121000000Y-48750000D02*
X98000000Y-48750000D01*
X121000000Y-40750000D02*
X121000000Y-48750000D01*
X98000000Y-40750000D02*
X121000000Y-40750000D01*
X108750000Y-56250000D02*
X110750000Y-56250000D01*
X93450000Y-56250000D02*
X95450000Y-56250000D01*
X94450000Y-55250000D02*
X94450000Y-57250000D01*
X90750000Y-60250000D02*
X90750000Y-52250000D01*
X113750000Y-60250000D02*
X90750000Y-60250000D01*
X113750000Y-52250000D02*
X113750000Y-60250000D01*
X90750000Y-52250000D02*
X113750000Y-52250000D01*
X108750000Y-65250000D02*
X110750000Y-65250000D01*
X93450000Y-65250000D02*
X95450000Y-65250000D01*
X94450000Y-64250000D02*
X94450000Y-66250000D01*
X90750000Y-69250000D02*
X90750000Y-61250000D01*
X113750000Y-69250000D02*
X90750000Y-69250000D01*
X113750000Y-61250000D02*
X113750000Y-69250000D01*
X90750000Y-61250000D02*
X113750000Y-61250000D01*
X108750000Y-74500000D02*
X110750000Y-74500000D01*
X93450000Y-74500000D02*
X95450000Y-74500000D01*
X94450000Y-73500000D02*
X94450000Y-75500000D01*
X90750000Y-78500000D02*
X90750000Y-70500000D01*
X113750000Y-78500000D02*
X90750000Y-78500000D01*
X113750000Y-70500000D02*
X113750000Y-78500000D01*
X90750000Y-70500000D02*
X113750000Y-70500000D01*
D16*
X125847928Y-46064714D02*
X125847928Y-46681571D01*
X125884214Y-46754142D01*
X125920500Y-46790428D01*
X125993071Y-46826714D01*
X126138214Y-46826714D01*
X126210785Y-46790428D01*
X126247071Y-46754142D01*
X126283357Y-46681571D01*
X126283357Y-46064714D01*
X126573642Y-46064714D02*
X127045357Y-46064714D01*
X126791357Y-46355000D01*
X126900214Y-46355000D01*
X126972785Y-46391285D01*
X127009071Y-46427571D01*
X127045357Y-46500142D01*
X127045357Y-46681571D01*
X127009071Y-46754142D01*
X126972785Y-46790428D01*
X126900214Y-46826714D01*
X126682500Y-46826714D01*
X126609928Y-46790428D01*
X126573642Y-46754142D01*
X124160642Y-46355000D02*
X124196928Y-46391285D01*
X124233214Y-46500142D01*
X124233214Y-46572714D01*
X124196928Y-46681571D01*
X124124357Y-46754142D01*
X124051785Y-46790428D01*
X123906642Y-46826714D01*
X123797785Y-46826714D01*
X123652642Y-46790428D01*
X123580071Y-46754142D01*
X123507500Y-46681571D01*
X123471214Y-46572714D01*
X123471214Y-46500142D01*
X123507500Y-46391285D01*
X123543785Y-46355000D01*
X123471214Y-45665571D02*
X123471214Y-46028428D01*
X123834071Y-46064714D01*
X123797785Y-46028428D01*
X123761500Y-45955857D01*
X123761500Y-45774428D01*
X123797785Y-45701857D01*
X123834071Y-45665571D01*
X123906642Y-45629285D01*
X124088071Y-45629285D01*
X124160642Y-45665571D01*
X124196928Y-45701857D01*
X124233214Y-45774428D01*
X124233214Y-45955857D01*
X124196928Y-46028428D01*
X124160642Y-46064714D01*
X103954071Y-50844714D02*
X103954071Y-50082714D01*
X104135500Y-50082714D01*
X104244357Y-50119000D01*
X104316928Y-50191571D01*
X104353214Y-50264142D01*
X104389500Y-50409285D01*
X104389500Y-50518142D01*
X104353214Y-50663285D01*
X104316928Y-50735857D01*
X104244357Y-50808428D01*
X104135500Y-50844714D01*
X103954071Y-50844714D01*
X105042642Y-50336714D02*
X105042642Y-50844714D01*
X104861214Y-50046428D02*
X104679785Y-50590714D01*
X105151500Y-50590714D01*
X121548071Y-49049214D02*
X121548071Y-48287214D01*
X121729500Y-48287214D01*
X121838357Y-48323500D01*
X121910928Y-48396071D01*
X121947214Y-48468642D01*
X121983500Y-48613785D01*
X121983500Y-48722642D01*
X121947214Y-48867785D01*
X121910928Y-48940357D01*
X121838357Y-49012928D01*
X121729500Y-49049214D01*
X121548071Y-49049214D01*
X122672928Y-48287214D02*
X122310071Y-48287214D01*
X122273785Y-48650071D01*
X122310071Y-48613785D01*
X122382642Y-48577500D01*
X122564071Y-48577500D01*
X122636642Y-48613785D01*
X122672928Y-48650071D01*
X122709214Y-48722642D01*
X122709214Y-48904071D01*
X122672928Y-48976642D01*
X122636642Y-49012928D01*
X122564071Y-49049214D01*
X122382642Y-49049214D01*
X122310071Y-49012928D01*
X122273785Y-48976642D01*
X108988428Y-84058428D02*
X109097285Y-84094714D01*
X109278714Y-84094714D01*
X109351285Y-84058428D01*
X109387571Y-84022142D01*
X109423857Y-83949571D01*
X109423857Y-83877000D01*
X109387571Y-83804428D01*
X109351285Y-83768142D01*
X109278714Y-83731857D01*
X109133571Y-83695571D01*
X109061000Y-83659285D01*
X109024714Y-83623000D01*
X108988428Y-83550428D01*
X108988428Y-83477857D01*
X109024714Y-83405285D01*
X109061000Y-83369000D01*
X109133571Y-83332714D01*
X109315000Y-83332714D01*
X109423857Y-83369000D01*
X110185857Y-84022142D02*
X110149571Y-84058428D01*
X110040714Y-84094714D01*
X109968142Y-84094714D01*
X109859285Y-84058428D01*
X109786714Y-83985857D01*
X109750428Y-83913285D01*
X109714142Y-83768142D01*
X109714142Y-83659285D01*
X109750428Y-83514142D01*
X109786714Y-83441571D01*
X109859285Y-83369000D01*
X109968142Y-83332714D01*
X110040714Y-83332714D01*
X110149571Y-83369000D01*
X110185857Y-83405285D01*
X110911571Y-84094714D02*
X110476142Y-84094714D01*
X110693857Y-84094714D02*
X110693857Y-83332714D01*
X110621285Y-83441571D01*
X110548714Y-83514142D01*
X110476142Y-83550428D01*
X125488428Y-74808428D02*
X125597285Y-74844714D01*
X125778714Y-74844714D01*
X125851285Y-74808428D01*
X125887571Y-74772142D01*
X125923857Y-74699571D01*
X125923857Y-74627000D01*
X125887571Y-74554428D01*
X125851285Y-74518142D01*
X125778714Y-74481857D01*
X125633571Y-74445571D01*
X125561000Y-74409285D01*
X125524714Y-74373000D01*
X125488428Y-74300428D01*
X125488428Y-74227857D01*
X125524714Y-74155285D01*
X125561000Y-74119000D01*
X125633571Y-74082714D01*
X125815000Y-74082714D01*
X125923857Y-74119000D01*
X126685857Y-74772142D02*
X126649571Y-74808428D01*
X126540714Y-74844714D01*
X126468142Y-74844714D01*
X126359285Y-74808428D01*
X126286714Y-74735857D01*
X126250428Y-74663285D01*
X126214142Y-74518142D01*
X126214142Y-74409285D01*
X126250428Y-74264142D01*
X126286714Y-74191571D01*
X126359285Y-74119000D01*
X126468142Y-74082714D01*
X126540714Y-74082714D01*
X126649571Y-74119000D01*
X126685857Y-74155285D01*
X127121285Y-74409285D02*
X127048714Y-74373000D01*
X127012428Y-74336714D01*
X126976142Y-74264142D01*
X126976142Y-74227857D01*
X127012428Y-74155285D01*
X127048714Y-74119000D01*
X127121285Y-74082714D01*
X127266428Y-74082714D01*
X127339000Y-74119000D01*
X127375285Y-74155285D01*
X127411571Y-74227857D01*
X127411571Y-74264142D01*
X127375285Y-74336714D01*
X127339000Y-74373000D01*
X127266428Y-74409285D01*
X127121285Y-74409285D01*
X127048714Y-74445571D01*
X127012428Y-74481857D01*
X126976142Y-74554428D01*
X126976142Y-74699571D01*
X127012428Y-74772142D01*
X127048714Y-74808428D01*
X127121285Y-74844714D01*
X127266428Y-74844714D01*
X127339000Y-74808428D01*
X127375285Y-74772142D01*
X127411571Y-74699571D01*
X127411571Y-74554428D01*
X127375285Y-74481857D01*
X127339000Y-74445571D01*
X127266428Y-74409285D01*
X125488428Y-65558428D02*
X125597285Y-65594714D01*
X125778714Y-65594714D01*
X125851285Y-65558428D01*
X125887571Y-65522142D01*
X125923857Y-65449571D01*
X125923857Y-65377000D01*
X125887571Y-65304428D01*
X125851285Y-65268142D01*
X125778714Y-65231857D01*
X125633571Y-65195571D01*
X125561000Y-65159285D01*
X125524714Y-65123000D01*
X125488428Y-65050428D01*
X125488428Y-64977857D01*
X125524714Y-64905285D01*
X125561000Y-64869000D01*
X125633571Y-64832714D01*
X125815000Y-64832714D01*
X125923857Y-64869000D01*
X126685857Y-65522142D02*
X126649571Y-65558428D01*
X126540714Y-65594714D01*
X126468142Y-65594714D01*
X126359285Y-65558428D01*
X126286714Y-65485857D01*
X126250428Y-65413285D01*
X126214142Y-65268142D01*
X126214142Y-65159285D01*
X126250428Y-65014142D01*
X126286714Y-64941571D01*
X126359285Y-64869000D01*
X126468142Y-64832714D01*
X126540714Y-64832714D01*
X126649571Y-64869000D01*
X126685857Y-64905285D01*
X126939857Y-64832714D02*
X127447857Y-64832714D01*
X127121285Y-65594714D01*
X125488428Y-56558428D02*
X125597285Y-56594714D01*
X125778714Y-56594714D01*
X125851285Y-56558428D01*
X125887571Y-56522142D01*
X125923857Y-56449571D01*
X125923857Y-56377000D01*
X125887571Y-56304428D01*
X125851285Y-56268142D01*
X125778714Y-56231857D01*
X125633571Y-56195571D01*
X125561000Y-56159285D01*
X125524714Y-56123000D01*
X125488428Y-56050428D01*
X125488428Y-55977857D01*
X125524714Y-55905285D01*
X125561000Y-55869000D01*
X125633571Y-55832714D01*
X125815000Y-55832714D01*
X125923857Y-55869000D01*
X126685857Y-56522142D02*
X126649571Y-56558428D01*
X126540714Y-56594714D01*
X126468142Y-56594714D01*
X126359285Y-56558428D01*
X126286714Y-56485857D01*
X126250428Y-56413285D01*
X126214142Y-56268142D01*
X126214142Y-56159285D01*
X126250428Y-56014142D01*
X126286714Y-55941571D01*
X126359285Y-55869000D01*
X126468142Y-55832714D01*
X126540714Y-55832714D01*
X126649571Y-55869000D01*
X126685857Y-55905285D01*
X127339000Y-55832714D02*
X127193857Y-55832714D01*
X127121285Y-55869000D01*
X127085000Y-55905285D01*
X127012428Y-56014142D01*
X126976142Y-56159285D01*
X126976142Y-56449571D01*
X127012428Y-56522142D01*
X127048714Y-56558428D01*
X127121285Y-56594714D01*
X127266428Y-56594714D01*
X127339000Y-56558428D01*
X127375285Y-56522142D01*
X127411571Y-56449571D01*
X127411571Y-56268142D01*
X127375285Y-56195571D01*
X127339000Y-56159285D01*
X127266428Y-56123000D01*
X127121285Y-56123000D01*
X127048714Y-56159285D01*
X127012428Y-56195571D01*
X126976142Y-56268142D01*
X108738428Y-45058428D02*
X108847285Y-45094714D01*
X109028714Y-45094714D01*
X109101285Y-45058428D01*
X109137571Y-45022142D01*
X109173857Y-44949571D01*
X109173857Y-44877000D01*
X109137571Y-44804428D01*
X109101285Y-44768142D01*
X109028714Y-44731857D01*
X108883571Y-44695571D01*
X108811000Y-44659285D01*
X108774714Y-44623000D01*
X108738428Y-44550428D01*
X108738428Y-44477857D01*
X108774714Y-44405285D01*
X108811000Y-44369000D01*
X108883571Y-44332714D01*
X109065000Y-44332714D01*
X109173857Y-44369000D01*
X109935857Y-45022142D02*
X109899571Y-45058428D01*
X109790714Y-45094714D01*
X109718142Y-45094714D01*
X109609285Y-45058428D01*
X109536714Y-44985857D01*
X109500428Y-44913285D01*
X109464142Y-44768142D01*
X109464142Y-44659285D01*
X109500428Y-44514142D01*
X109536714Y-44441571D01*
X109609285Y-44369000D01*
X109718142Y-44332714D01*
X109790714Y-44332714D01*
X109899571Y-44369000D01*
X109935857Y-44405285D01*
X110625285Y-44332714D02*
X110262428Y-44332714D01*
X110226142Y-44695571D01*
X110262428Y-44659285D01*
X110335000Y-44623000D01*
X110516428Y-44623000D01*
X110589000Y-44659285D01*
X110625285Y-44695571D01*
X110661571Y-44768142D01*
X110661571Y-44949571D01*
X110625285Y-45022142D01*
X110589000Y-45058428D01*
X110516428Y-45094714D01*
X110335000Y-45094714D01*
X110262428Y-45058428D01*
X110226142Y-45022142D01*
X101488428Y-56558428D02*
X101597285Y-56594714D01*
X101778714Y-56594714D01*
X101851285Y-56558428D01*
X101887571Y-56522142D01*
X101923857Y-56449571D01*
X101923857Y-56377000D01*
X101887571Y-56304428D01*
X101851285Y-56268142D01*
X101778714Y-56231857D01*
X101633571Y-56195571D01*
X101561000Y-56159285D01*
X101524714Y-56123000D01*
X101488428Y-56050428D01*
X101488428Y-55977857D01*
X101524714Y-55905285D01*
X101561000Y-55869000D01*
X101633571Y-55832714D01*
X101815000Y-55832714D01*
X101923857Y-55869000D01*
X102685857Y-56522142D02*
X102649571Y-56558428D01*
X102540714Y-56594714D01*
X102468142Y-56594714D01*
X102359285Y-56558428D01*
X102286714Y-56485857D01*
X102250428Y-56413285D01*
X102214142Y-56268142D01*
X102214142Y-56159285D01*
X102250428Y-56014142D01*
X102286714Y-55941571D01*
X102359285Y-55869000D01*
X102468142Y-55832714D01*
X102540714Y-55832714D01*
X102649571Y-55869000D01*
X102685857Y-55905285D01*
X103339000Y-56086714D02*
X103339000Y-56594714D01*
X103157571Y-55796428D02*
X102976142Y-56340714D01*
X103447857Y-56340714D01*
X101488428Y-65558428D02*
X101597285Y-65594714D01*
X101778714Y-65594714D01*
X101851285Y-65558428D01*
X101887571Y-65522142D01*
X101923857Y-65449571D01*
X101923857Y-65377000D01*
X101887571Y-65304428D01*
X101851285Y-65268142D01*
X101778714Y-65231857D01*
X101633571Y-65195571D01*
X101561000Y-65159285D01*
X101524714Y-65123000D01*
X101488428Y-65050428D01*
X101488428Y-64977857D01*
X101524714Y-64905285D01*
X101561000Y-64869000D01*
X101633571Y-64832714D01*
X101815000Y-64832714D01*
X101923857Y-64869000D01*
X102685857Y-65522142D02*
X102649571Y-65558428D01*
X102540714Y-65594714D01*
X102468142Y-65594714D01*
X102359285Y-65558428D01*
X102286714Y-65485857D01*
X102250428Y-65413285D01*
X102214142Y-65268142D01*
X102214142Y-65159285D01*
X102250428Y-65014142D01*
X102286714Y-64941571D01*
X102359285Y-64869000D01*
X102468142Y-64832714D01*
X102540714Y-64832714D01*
X102649571Y-64869000D01*
X102685857Y-64905285D01*
X102939857Y-64832714D02*
X103411571Y-64832714D01*
X103157571Y-65123000D01*
X103266428Y-65123000D01*
X103339000Y-65159285D01*
X103375285Y-65195571D01*
X103411571Y-65268142D01*
X103411571Y-65449571D01*
X103375285Y-65522142D01*
X103339000Y-65558428D01*
X103266428Y-65594714D01*
X103048714Y-65594714D01*
X102976142Y-65558428D01*
X102939857Y-65522142D01*
X101488428Y-74808428D02*
X101597285Y-74844714D01*
X101778714Y-74844714D01*
X101851285Y-74808428D01*
X101887571Y-74772142D01*
X101923857Y-74699571D01*
X101923857Y-74627000D01*
X101887571Y-74554428D01*
X101851285Y-74518142D01*
X101778714Y-74481857D01*
X101633571Y-74445571D01*
X101561000Y-74409285D01*
X101524714Y-74373000D01*
X101488428Y-74300428D01*
X101488428Y-74227857D01*
X101524714Y-74155285D01*
X101561000Y-74119000D01*
X101633571Y-74082714D01*
X101815000Y-74082714D01*
X101923857Y-74119000D01*
X102685857Y-74772142D02*
X102649571Y-74808428D01*
X102540714Y-74844714D01*
X102468142Y-74844714D01*
X102359285Y-74808428D01*
X102286714Y-74735857D01*
X102250428Y-74663285D01*
X102214142Y-74518142D01*
X102214142Y-74409285D01*
X102250428Y-74264142D01*
X102286714Y-74191571D01*
X102359285Y-74119000D01*
X102468142Y-74082714D01*
X102540714Y-74082714D01*
X102649571Y-74119000D01*
X102685857Y-74155285D01*
X102976142Y-74155285D02*
X103012428Y-74119000D01*
X103085000Y-74082714D01*
X103266428Y-74082714D01*
X103339000Y-74119000D01*
X103375285Y-74155285D01*
X103411571Y-74227857D01*
X103411571Y-74300428D01*
X103375285Y-74409285D01*
X102939857Y-74844714D01*
X103411571Y-74844714D01*
M02*
