G04 #@! TF.GenerationSoftware,KiCad,Pcbnew,(5.1.4)-1*
G04 #@! TF.CreationDate,2019-10-25T18:14:47-07:00*
G04 #@! TF.ProjectId,SolarCellX_v3,536f6c61-7243-4656-9c6c-585f76332e6b,rev?*
G04 #@! TF.SameCoordinates,Original*
G04 #@! TF.FileFunction,Paste,Top*
G04 #@! TF.FilePolarity,Positive*
%FSLAX46Y46*%
G04 Gerber Fmt 4.6, Leading zero omitted, Abs format (unit mm)*
G04 Created by KiCad (PCBNEW (5.1.4)-1) date 2019-10-25 18:14:47*
%MOMM*%
%LPD*%
G04 APERTURE LIST*
%ADD10C,0.050000*%
%ADD11C,0.100000*%
%ADD12C,0.590000*%
%ADD13R,0.900000X0.700000*%
%ADD14R,2.700000X1.400000*%
%ADD15R,1.400000X1.400000*%
%ADD16R,2.000000X7.400000*%
G04 APERTURE END LIST*
D10*
X96200000Y-47000000D02*
G75*
G03X96200000Y-47000000I-1100000J0D01*
G01*
X96200000Y-81400000D02*
G75*
G03X96200000Y-81400000I-1100000J0D01*
G01*
X136000000Y-81400000D02*
G75*
G03X136000000Y-81400000I-1100000J0D01*
G01*
X136000000Y-47000000D02*
G75*
G03X136000000Y-47000000I-1100000J0D01*
G01*
X90000000Y-88400000D02*
X138400000Y-88400000D01*
X90000000Y-88400000D02*
X90000000Y-40000000D01*
X138400000Y-40000000D02*
X138400000Y-88400000D01*
X90000000Y-40000000D02*
X138400000Y-40000000D01*
D11*
G36*
X114548458Y-49591710D02*
G01*
X114562776Y-49593834D01*
X114576817Y-49597351D01*
X114590446Y-49602228D01*
X114603531Y-49608417D01*
X114615947Y-49615858D01*
X114627573Y-49624481D01*
X114638298Y-49634202D01*
X114648019Y-49644927D01*
X114656642Y-49656553D01*
X114664083Y-49668969D01*
X114670272Y-49682054D01*
X114675149Y-49695683D01*
X114678666Y-49709724D01*
X114680790Y-49724042D01*
X114681500Y-49738500D01*
X114681500Y-50083500D01*
X114680790Y-50097958D01*
X114678666Y-50112276D01*
X114675149Y-50126317D01*
X114670272Y-50139946D01*
X114664083Y-50153031D01*
X114656642Y-50165447D01*
X114648019Y-50177073D01*
X114638298Y-50187798D01*
X114627573Y-50197519D01*
X114615947Y-50206142D01*
X114603531Y-50213583D01*
X114590446Y-50219772D01*
X114576817Y-50224649D01*
X114562776Y-50228166D01*
X114548458Y-50230290D01*
X114534000Y-50231000D01*
X114239000Y-50231000D01*
X114224542Y-50230290D01*
X114210224Y-50228166D01*
X114196183Y-50224649D01*
X114182554Y-50219772D01*
X114169469Y-50213583D01*
X114157053Y-50206142D01*
X114145427Y-50197519D01*
X114134702Y-50187798D01*
X114124981Y-50177073D01*
X114116358Y-50165447D01*
X114108917Y-50153031D01*
X114102728Y-50139946D01*
X114097851Y-50126317D01*
X114094334Y-50112276D01*
X114092210Y-50097958D01*
X114091500Y-50083500D01*
X114091500Y-49738500D01*
X114092210Y-49724042D01*
X114094334Y-49709724D01*
X114097851Y-49695683D01*
X114102728Y-49682054D01*
X114108917Y-49668969D01*
X114116358Y-49656553D01*
X114124981Y-49644927D01*
X114134702Y-49634202D01*
X114145427Y-49624481D01*
X114157053Y-49615858D01*
X114169469Y-49608417D01*
X114182554Y-49602228D01*
X114196183Y-49597351D01*
X114210224Y-49593834D01*
X114224542Y-49591710D01*
X114239000Y-49591000D01*
X114534000Y-49591000D01*
X114548458Y-49591710D01*
X114548458Y-49591710D01*
G37*
D12*
X114386500Y-49911000D03*
D11*
G36*
X115518458Y-49591710D02*
G01*
X115532776Y-49593834D01*
X115546817Y-49597351D01*
X115560446Y-49602228D01*
X115573531Y-49608417D01*
X115585947Y-49615858D01*
X115597573Y-49624481D01*
X115608298Y-49634202D01*
X115618019Y-49644927D01*
X115626642Y-49656553D01*
X115634083Y-49668969D01*
X115640272Y-49682054D01*
X115645149Y-49695683D01*
X115648666Y-49709724D01*
X115650790Y-49724042D01*
X115651500Y-49738500D01*
X115651500Y-50083500D01*
X115650790Y-50097958D01*
X115648666Y-50112276D01*
X115645149Y-50126317D01*
X115640272Y-50139946D01*
X115634083Y-50153031D01*
X115626642Y-50165447D01*
X115618019Y-50177073D01*
X115608298Y-50187798D01*
X115597573Y-50197519D01*
X115585947Y-50206142D01*
X115573531Y-50213583D01*
X115560446Y-50219772D01*
X115546817Y-50224649D01*
X115532776Y-50228166D01*
X115518458Y-50230290D01*
X115504000Y-50231000D01*
X115209000Y-50231000D01*
X115194542Y-50230290D01*
X115180224Y-50228166D01*
X115166183Y-50224649D01*
X115152554Y-50219772D01*
X115139469Y-50213583D01*
X115127053Y-50206142D01*
X115115427Y-50197519D01*
X115104702Y-50187798D01*
X115094981Y-50177073D01*
X115086358Y-50165447D01*
X115078917Y-50153031D01*
X115072728Y-50139946D01*
X115067851Y-50126317D01*
X115064334Y-50112276D01*
X115062210Y-50097958D01*
X115061500Y-50083500D01*
X115061500Y-49738500D01*
X115062210Y-49724042D01*
X115064334Y-49709724D01*
X115067851Y-49695683D01*
X115072728Y-49682054D01*
X115078917Y-49668969D01*
X115086358Y-49656553D01*
X115094981Y-49644927D01*
X115104702Y-49634202D01*
X115115427Y-49624481D01*
X115127053Y-49615858D01*
X115139469Y-49608417D01*
X115152554Y-49602228D01*
X115166183Y-49597351D01*
X115180224Y-49593834D01*
X115194542Y-49591710D01*
X115209000Y-49591000D01*
X115504000Y-49591000D01*
X115518458Y-49591710D01*
X115518458Y-49591710D01*
G37*
D12*
X115356500Y-49911000D03*
D11*
G36*
X113578178Y-49591710D02*
G01*
X113592496Y-49593834D01*
X113606537Y-49597351D01*
X113620166Y-49602228D01*
X113633251Y-49608417D01*
X113645667Y-49615858D01*
X113657293Y-49624481D01*
X113668018Y-49634202D01*
X113677739Y-49644927D01*
X113686362Y-49656553D01*
X113693803Y-49668969D01*
X113699992Y-49682054D01*
X113704869Y-49695683D01*
X113708386Y-49709724D01*
X113710510Y-49724042D01*
X113711220Y-49738500D01*
X113711220Y-50083500D01*
X113710510Y-50097958D01*
X113708386Y-50112276D01*
X113704869Y-50126317D01*
X113699992Y-50139946D01*
X113693803Y-50153031D01*
X113686362Y-50165447D01*
X113677739Y-50177073D01*
X113668018Y-50187798D01*
X113657293Y-50197519D01*
X113645667Y-50206142D01*
X113633251Y-50213583D01*
X113620166Y-50219772D01*
X113606537Y-50224649D01*
X113592496Y-50228166D01*
X113578178Y-50230290D01*
X113563720Y-50231000D01*
X113268720Y-50231000D01*
X113254262Y-50230290D01*
X113239944Y-50228166D01*
X113225903Y-50224649D01*
X113212274Y-50219772D01*
X113199189Y-50213583D01*
X113186773Y-50206142D01*
X113175147Y-50197519D01*
X113164422Y-50187798D01*
X113154701Y-50177073D01*
X113146078Y-50165447D01*
X113138637Y-50153031D01*
X113132448Y-50139946D01*
X113127571Y-50126317D01*
X113124054Y-50112276D01*
X113121930Y-50097958D01*
X113121220Y-50083500D01*
X113121220Y-49738500D01*
X113121930Y-49724042D01*
X113124054Y-49709724D01*
X113127571Y-49695683D01*
X113132448Y-49682054D01*
X113138637Y-49668969D01*
X113146078Y-49656553D01*
X113154701Y-49644927D01*
X113164422Y-49634202D01*
X113175147Y-49624481D01*
X113186773Y-49615858D01*
X113199189Y-49608417D01*
X113212274Y-49602228D01*
X113225903Y-49597351D01*
X113239944Y-49593834D01*
X113254262Y-49591710D01*
X113268720Y-49591000D01*
X113563720Y-49591000D01*
X113578178Y-49591710D01*
X113578178Y-49591710D01*
G37*
D12*
X113416220Y-49911000D03*
D11*
G36*
X114548178Y-49591710D02*
G01*
X114562496Y-49593834D01*
X114576537Y-49597351D01*
X114590166Y-49602228D01*
X114603251Y-49608417D01*
X114615667Y-49615858D01*
X114627293Y-49624481D01*
X114638018Y-49634202D01*
X114647739Y-49644927D01*
X114656362Y-49656553D01*
X114663803Y-49668969D01*
X114669992Y-49682054D01*
X114674869Y-49695683D01*
X114678386Y-49709724D01*
X114680510Y-49724042D01*
X114681220Y-49738500D01*
X114681220Y-50083500D01*
X114680510Y-50097958D01*
X114678386Y-50112276D01*
X114674869Y-50126317D01*
X114669992Y-50139946D01*
X114663803Y-50153031D01*
X114656362Y-50165447D01*
X114647739Y-50177073D01*
X114638018Y-50187798D01*
X114627293Y-50197519D01*
X114615667Y-50206142D01*
X114603251Y-50213583D01*
X114590166Y-50219772D01*
X114576537Y-50224649D01*
X114562496Y-50228166D01*
X114548178Y-50230290D01*
X114533720Y-50231000D01*
X114238720Y-50231000D01*
X114224262Y-50230290D01*
X114209944Y-50228166D01*
X114195903Y-50224649D01*
X114182274Y-50219772D01*
X114169189Y-50213583D01*
X114156773Y-50206142D01*
X114145147Y-50197519D01*
X114134422Y-50187798D01*
X114124701Y-50177073D01*
X114116078Y-50165447D01*
X114108637Y-50153031D01*
X114102448Y-50139946D01*
X114097571Y-50126317D01*
X114094054Y-50112276D01*
X114091930Y-50097958D01*
X114091220Y-50083500D01*
X114091220Y-49738500D01*
X114091930Y-49724042D01*
X114094054Y-49709724D01*
X114097571Y-49695683D01*
X114102448Y-49682054D01*
X114108637Y-49668969D01*
X114116078Y-49656553D01*
X114124701Y-49644927D01*
X114134422Y-49634202D01*
X114145147Y-49624481D01*
X114156773Y-49615858D01*
X114169189Y-49608417D01*
X114182274Y-49602228D01*
X114195903Y-49597351D01*
X114209944Y-49593834D01*
X114224262Y-49591710D01*
X114238720Y-49591000D01*
X114533720Y-49591000D01*
X114548178Y-49591710D01*
X114548178Y-49591710D01*
G37*
D12*
X114386220Y-49911000D03*
D11*
G36*
X114548458Y-50988710D02*
G01*
X114562776Y-50990834D01*
X114576817Y-50994351D01*
X114590446Y-50999228D01*
X114603531Y-51005417D01*
X114615947Y-51012858D01*
X114627573Y-51021481D01*
X114638298Y-51031202D01*
X114648019Y-51041927D01*
X114656642Y-51053553D01*
X114664083Y-51065969D01*
X114670272Y-51079054D01*
X114675149Y-51092683D01*
X114678666Y-51106724D01*
X114680790Y-51121042D01*
X114681500Y-51135500D01*
X114681500Y-51480500D01*
X114680790Y-51494958D01*
X114678666Y-51509276D01*
X114675149Y-51523317D01*
X114670272Y-51536946D01*
X114664083Y-51550031D01*
X114656642Y-51562447D01*
X114648019Y-51574073D01*
X114638298Y-51584798D01*
X114627573Y-51594519D01*
X114615947Y-51603142D01*
X114603531Y-51610583D01*
X114590446Y-51616772D01*
X114576817Y-51621649D01*
X114562776Y-51625166D01*
X114548458Y-51627290D01*
X114534000Y-51628000D01*
X114239000Y-51628000D01*
X114224542Y-51627290D01*
X114210224Y-51625166D01*
X114196183Y-51621649D01*
X114182554Y-51616772D01*
X114169469Y-51610583D01*
X114157053Y-51603142D01*
X114145427Y-51594519D01*
X114134702Y-51584798D01*
X114124981Y-51574073D01*
X114116358Y-51562447D01*
X114108917Y-51550031D01*
X114102728Y-51536946D01*
X114097851Y-51523317D01*
X114094334Y-51509276D01*
X114092210Y-51494958D01*
X114091500Y-51480500D01*
X114091500Y-51135500D01*
X114092210Y-51121042D01*
X114094334Y-51106724D01*
X114097851Y-51092683D01*
X114102728Y-51079054D01*
X114108917Y-51065969D01*
X114116358Y-51053553D01*
X114124981Y-51041927D01*
X114134702Y-51031202D01*
X114145427Y-51021481D01*
X114157053Y-51012858D01*
X114169469Y-51005417D01*
X114182554Y-50999228D01*
X114196183Y-50994351D01*
X114210224Y-50990834D01*
X114224542Y-50988710D01*
X114239000Y-50988000D01*
X114534000Y-50988000D01*
X114548458Y-50988710D01*
X114548458Y-50988710D01*
G37*
D12*
X114386500Y-51308000D03*
D11*
G36*
X115518458Y-50988710D02*
G01*
X115532776Y-50990834D01*
X115546817Y-50994351D01*
X115560446Y-50999228D01*
X115573531Y-51005417D01*
X115585947Y-51012858D01*
X115597573Y-51021481D01*
X115608298Y-51031202D01*
X115618019Y-51041927D01*
X115626642Y-51053553D01*
X115634083Y-51065969D01*
X115640272Y-51079054D01*
X115645149Y-51092683D01*
X115648666Y-51106724D01*
X115650790Y-51121042D01*
X115651500Y-51135500D01*
X115651500Y-51480500D01*
X115650790Y-51494958D01*
X115648666Y-51509276D01*
X115645149Y-51523317D01*
X115640272Y-51536946D01*
X115634083Y-51550031D01*
X115626642Y-51562447D01*
X115618019Y-51574073D01*
X115608298Y-51584798D01*
X115597573Y-51594519D01*
X115585947Y-51603142D01*
X115573531Y-51610583D01*
X115560446Y-51616772D01*
X115546817Y-51621649D01*
X115532776Y-51625166D01*
X115518458Y-51627290D01*
X115504000Y-51628000D01*
X115209000Y-51628000D01*
X115194542Y-51627290D01*
X115180224Y-51625166D01*
X115166183Y-51621649D01*
X115152554Y-51616772D01*
X115139469Y-51610583D01*
X115127053Y-51603142D01*
X115115427Y-51594519D01*
X115104702Y-51584798D01*
X115094981Y-51574073D01*
X115086358Y-51562447D01*
X115078917Y-51550031D01*
X115072728Y-51536946D01*
X115067851Y-51523317D01*
X115064334Y-51509276D01*
X115062210Y-51494958D01*
X115061500Y-51480500D01*
X115061500Y-51135500D01*
X115062210Y-51121042D01*
X115064334Y-51106724D01*
X115067851Y-51092683D01*
X115072728Y-51079054D01*
X115078917Y-51065969D01*
X115086358Y-51053553D01*
X115094981Y-51041927D01*
X115104702Y-51031202D01*
X115115427Y-51021481D01*
X115127053Y-51012858D01*
X115139469Y-51005417D01*
X115152554Y-50999228D01*
X115166183Y-50994351D01*
X115180224Y-50990834D01*
X115194542Y-50988710D01*
X115209000Y-50988000D01*
X115504000Y-50988000D01*
X115518458Y-50988710D01*
X115518458Y-50988710D01*
G37*
D12*
X115356500Y-51308000D03*
D11*
G36*
X113578178Y-50988710D02*
G01*
X113592496Y-50990834D01*
X113606537Y-50994351D01*
X113620166Y-50999228D01*
X113633251Y-51005417D01*
X113645667Y-51012858D01*
X113657293Y-51021481D01*
X113668018Y-51031202D01*
X113677739Y-51041927D01*
X113686362Y-51053553D01*
X113693803Y-51065969D01*
X113699992Y-51079054D01*
X113704869Y-51092683D01*
X113708386Y-51106724D01*
X113710510Y-51121042D01*
X113711220Y-51135500D01*
X113711220Y-51480500D01*
X113710510Y-51494958D01*
X113708386Y-51509276D01*
X113704869Y-51523317D01*
X113699992Y-51536946D01*
X113693803Y-51550031D01*
X113686362Y-51562447D01*
X113677739Y-51574073D01*
X113668018Y-51584798D01*
X113657293Y-51594519D01*
X113645667Y-51603142D01*
X113633251Y-51610583D01*
X113620166Y-51616772D01*
X113606537Y-51621649D01*
X113592496Y-51625166D01*
X113578178Y-51627290D01*
X113563720Y-51628000D01*
X113268720Y-51628000D01*
X113254262Y-51627290D01*
X113239944Y-51625166D01*
X113225903Y-51621649D01*
X113212274Y-51616772D01*
X113199189Y-51610583D01*
X113186773Y-51603142D01*
X113175147Y-51594519D01*
X113164422Y-51584798D01*
X113154701Y-51574073D01*
X113146078Y-51562447D01*
X113138637Y-51550031D01*
X113132448Y-51536946D01*
X113127571Y-51523317D01*
X113124054Y-51509276D01*
X113121930Y-51494958D01*
X113121220Y-51480500D01*
X113121220Y-51135500D01*
X113121930Y-51121042D01*
X113124054Y-51106724D01*
X113127571Y-51092683D01*
X113132448Y-51079054D01*
X113138637Y-51065969D01*
X113146078Y-51053553D01*
X113154701Y-51041927D01*
X113164422Y-51031202D01*
X113175147Y-51021481D01*
X113186773Y-51012858D01*
X113199189Y-51005417D01*
X113212274Y-50999228D01*
X113225903Y-50994351D01*
X113239944Y-50990834D01*
X113254262Y-50988710D01*
X113268720Y-50988000D01*
X113563720Y-50988000D01*
X113578178Y-50988710D01*
X113578178Y-50988710D01*
G37*
D12*
X113416220Y-51308000D03*
D11*
G36*
X114548178Y-50988710D02*
G01*
X114562496Y-50990834D01*
X114576537Y-50994351D01*
X114590166Y-50999228D01*
X114603251Y-51005417D01*
X114615667Y-51012858D01*
X114627293Y-51021481D01*
X114638018Y-51031202D01*
X114647739Y-51041927D01*
X114656362Y-51053553D01*
X114663803Y-51065969D01*
X114669992Y-51079054D01*
X114674869Y-51092683D01*
X114678386Y-51106724D01*
X114680510Y-51121042D01*
X114681220Y-51135500D01*
X114681220Y-51480500D01*
X114680510Y-51494958D01*
X114678386Y-51509276D01*
X114674869Y-51523317D01*
X114669992Y-51536946D01*
X114663803Y-51550031D01*
X114656362Y-51562447D01*
X114647739Y-51574073D01*
X114638018Y-51584798D01*
X114627293Y-51594519D01*
X114615667Y-51603142D01*
X114603251Y-51610583D01*
X114590166Y-51616772D01*
X114576537Y-51621649D01*
X114562496Y-51625166D01*
X114548178Y-51627290D01*
X114533720Y-51628000D01*
X114238720Y-51628000D01*
X114224262Y-51627290D01*
X114209944Y-51625166D01*
X114195903Y-51621649D01*
X114182274Y-51616772D01*
X114169189Y-51610583D01*
X114156773Y-51603142D01*
X114145147Y-51594519D01*
X114134422Y-51584798D01*
X114124701Y-51574073D01*
X114116078Y-51562447D01*
X114108637Y-51550031D01*
X114102448Y-51536946D01*
X114097571Y-51523317D01*
X114094054Y-51509276D01*
X114091930Y-51494958D01*
X114091220Y-51480500D01*
X114091220Y-51135500D01*
X114091930Y-51121042D01*
X114094054Y-51106724D01*
X114097571Y-51092683D01*
X114102448Y-51079054D01*
X114108637Y-51065969D01*
X114116078Y-51053553D01*
X114124701Y-51041927D01*
X114134422Y-51031202D01*
X114145147Y-51021481D01*
X114156773Y-51012858D01*
X114169189Y-51005417D01*
X114182274Y-50999228D01*
X114195903Y-50994351D01*
X114209944Y-50990834D01*
X114224262Y-50988710D01*
X114238720Y-50988000D01*
X114533720Y-50988000D01*
X114548178Y-50988710D01*
X114548178Y-50988710D01*
G37*
D12*
X114386220Y-51308000D03*
D13*
X127942000Y-47564000D03*
X127942000Y-48514000D03*
X127942000Y-49464000D03*
X125042000Y-49464000D03*
X125042000Y-48514000D03*
X125042000Y-47564000D03*
D11*
G36*
X126480958Y-50607710D02*
G01*
X126495276Y-50609834D01*
X126509317Y-50613351D01*
X126522946Y-50618228D01*
X126536031Y-50624417D01*
X126548447Y-50631858D01*
X126560073Y-50640481D01*
X126570798Y-50650202D01*
X126580519Y-50660927D01*
X126589142Y-50672553D01*
X126596583Y-50684969D01*
X126602772Y-50698054D01*
X126607649Y-50711683D01*
X126611166Y-50725724D01*
X126613290Y-50740042D01*
X126614000Y-50754500D01*
X126614000Y-51099500D01*
X126613290Y-51113958D01*
X126611166Y-51128276D01*
X126607649Y-51142317D01*
X126602772Y-51155946D01*
X126596583Y-51169031D01*
X126589142Y-51181447D01*
X126580519Y-51193073D01*
X126570798Y-51203798D01*
X126560073Y-51213519D01*
X126548447Y-51222142D01*
X126536031Y-51229583D01*
X126522946Y-51235772D01*
X126509317Y-51240649D01*
X126495276Y-51244166D01*
X126480958Y-51246290D01*
X126466500Y-51247000D01*
X126171500Y-51247000D01*
X126157042Y-51246290D01*
X126142724Y-51244166D01*
X126128683Y-51240649D01*
X126115054Y-51235772D01*
X126101969Y-51229583D01*
X126089553Y-51222142D01*
X126077927Y-51213519D01*
X126067202Y-51203798D01*
X126057481Y-51193073D01*
X126048858Y-51181447D01*
X126041417Y-51169031D01*
X126035228Y-51155946D01*
X126030351Y-51142317D01*
X126026834Y-51128276D01*
X126024710Y-51113958D01*
X126024000Y-51099500D01*
X126024000Y-50754500D01*
X126024710Y-50740042D01*
X126026834Y-50725724D01*
X126030351Y-50711683D01*
X126035228Y-50698054D01*
X126041417Y-50684969D01*
X126048858Y-50672553D01*
X126057481Y-50660927D01*
X126067202Y-50650202D01*
X126077927Y-50640481D01*
X126089553Y-50631858D01*
X126101969Y-50624417D01*
X126115054Y-50618228D01*
X126128683Y-50613351D01*
X126142724Y-50609834D01*
X126157042Y-50607710D01*
X126171500Y-50607000D01*
X126466500Y-50607000D01*
X126480958Y-50607710D01*
X126480958Y-50607710D01*
G37*
D12*
X126319000Y-50927000D03*
D11*
G36*
X125510958Y-50607710D02*
G01*
X125525276Y-50609834D01*
X125539317Y-50613351D01*
X125552946Y-50618228D01*
X125566031Y-50624417D01*
X125578447Y-50631858D01*
X125590073Y-50640481D01*
X125600798Y-50650202D01*
X125610519Y-50660927D01*
X125619142Y-50672553D01*
X125626583Y-50684969D01*
X125632772Y-50698054D01*
X125637649Y-50711683D01*
X125641166Y-50725724D01*
X125643290Y-50740042D01*
X125644000Y-50754500D01*
X125644000Y-51099500D01*
X125643290Y-51113958D01*
X125641166Y-51128276D01*
X125637649Y-51142317D01*
X125632772Y-51155946D01*
X125626583Y-51169031D01*
X125619142Y-51181447D01*
X125610519Y-51193073D01*
X125600798Y-51203798D01*
X125590073Y-51213519D01*
X125578447Y-51222142D01*
X125566031Y-51229583D01*
X125552946Y-51235772D01*
X125539317Y-51240649D01*
X125525276Y-51244166D01*
X125510958Y-51246290D01*
X125496500Y-51247000D01*
X125201500Y-51247000D01*
X125187042Y-51246290D01*
X125172724Y-51244166D01*
X125158683Y-51240649D01*
X125145054Y-51235772D01*
X125131969Y-51229583D01*
X125119553Y-51222142D01*
X125107927Y-51213519D01*
X125097202Y-51203798D01*
X125087481Y-51193073D01*
X125078858Y-51181447D01*
X125071417Y-51169031D01*
X125065228Y-51155946D01*
X125060351Y-51142317D01*
X125056834Y-51128276D01*
X125054710Y-51113958D01*
X125054000Y-51099500D01*
X125054000Y-50754500D01*
X125054710Y-50740042D01*
X125056834Y-50725724D01*
X125060351Y-50711683D01*
X125065228Y-50698054D01*
X125071417Y-50684969D01*
X125078858Y-50672553D01*
X125087481Y-50660927D01*
X125097202Y-50650202D01*
X125107927Y-50640481D01*
X125119553Y-50631858D01*
X125131969Y-50624417D01*
X125145054Y-50618228D01*
X125158683Y-50613351D01*
X125172724Y-50609834D01*
X125187042Y-50607710D01*
X125201500Y-50607000D01*
X125496500Y-50607000D01*
X125510958Y-50607710D01*
X125510958Y-50607710D01*
G37*
D12*
X125349000Y-50927000D03*
D11*
G36*
X127456458Y-50607710D02*
G01*
X127470776Y-50609834D01*
X127484817Y-50613351D01*
X127498446Y-50618228D01*
X127511531Y-50624417D01*
X127523947Y-50631858D01*
X127535573Y-50640481D01*
X127546298Y-50650202D01*
X127556019Y-50660927D01*
X127564642Y-50672553D01*
X127572083Y-50684969D01*
X127578272Y-50698054D01*
X127583149Y-50711683D01*
X127586666Y-50725724D01*
X127588790Y-50740042D01*
X127589500Y-50754500D01*
X127589500Y-51099500D01*
X127588790Y-51113958D01*
X127586666Y-51128276D01*
X127583149Y-51142317D01*
X127578272Y-51155946D01*
X127572083Y-51169031D01*
X127564642Y-51181447D01*
X127556019Y-51193073D01*
X127546298Y-51203798D01*
X127535573Y-51213519D01*
X127523947Y-51222142D01*
X127511531Y-51229583D01*
X127498446Y-51235772D01*
X127484817Y-51240649D01*
X127470776Y-51244166D01*
X127456458Y-51246290D01*
X127442000Y-51247000D01*
X127147000Y-51247000D01*
X127132542Y-51246290D01*
X127118224Y-51244166D01*
X127104183Y-51240649D01*
X127090554Y-51235772D01*
X127077469Y-51229583D01*
X127065053Y-51222142D01*
X127053427Y-51213519D01*
X127042702Y-51203798D01*
X127032981Y-51193073D01*
X127024358Y-51181447D01*
X127016917Y-51169031D01*
X127010728Y-51155946D01*
X127005851Y-51142317D01*
X127002334Y-51128276D01*
X127000210Y-51113958D01*
X126999500Y-51099500D01*
X126999500Y-50754500D01*
X127000210Y-50740042D01*
X127002334Y-50725724D01*
X127005851Y-50711683D01*
X127010728Y-50698054D01*
X127016917Y-50684969D01*
X127024358Y-50672553D01*
X127032981Y-50660927D01*
X127042702Y-50650202D01*
X127053427Y-50640481D01*
X127065053Y-50631858D01*
X127077469Y-50624417D01*
X127090554Y-50618228D01*
X127104183Y-50613351D01*
X127118224Y-50609834D01*
X127132542Y-50607710D01*
X127147000Y-50607000D01*
X127442000Y-50607000D01*
X127456458Y-50607710D01*
X127456458Y-50607710D01*
G37*
D12*
X127294500Y-50927000D03*
D11*
G36*
X126486458Y-50607710D02*
G01*
X126500776Y-50609834D01*
X126514817Y-50613351D01*
X126528446Y-50618228D01*
X126541531Y-50624417D01*
X126553947Y-50631858D01*
X126565573Y-50640481D01*
X126576298Y-50650202D01*
X126586019Y-50660927D01*
X126594642Y-50672553D01*
X126602083Y-50684969D01*
X126608272Y-50698054D01*
X126613149Y-50711683D01*
X126616666Y-50725724D01*
X126618790Y-50740042D01*
X126619500Y-50754500D01*
X126619500Y-51099500D01*
X126618790Y-51113958D01*
X126616666Y-51128276D01*
X126613149Y-51142317D01*
X126608272Y-51155946D01*
X126602083Y-51169031D01*
X126594642Y-51181447D01*
X126586019Y-51193073D01*
X126576298Y-51203798D01*
X126565573Y-51213519D01*
X126553947Y-51222142D01*
X126541531Y-51229583D01*
X126528446Y-51235772D01*
X126514817Y-51240649D01*
X126500776Y-51244166D01*
X126486458Y-51246290D01*
X126472000Y-51247000D01*
X126177000Y-51247000D01*
X126162542Y-51246290D01*
X126148224Y-51244166D01*
X126134183Y-51240649D01*
X126120554Y-51235772D01*
X126107469Y-51229583D01*
X126095053Y-51222142D01*
X126083427Y-51213519D01*
X126072702Y-51203798D01*
X126062981Y-51193073D01*
X126054358Y-51181447D01*
X126046917Y-51169031D01*
X126040728Y-51155946D01*
X126035851Y-51142317D01*
X126032334Y-51128276D01*
X126030210Y-51113958D01*
X126029500Y-51099500D01*
X126029500Y-50754500D01*
X126030210Y-50740042D01*
X126032334Y-50725724D01*
X126035851Y-50711683D01*
X126040728Y-50698054D01*
X126046917Y-50684969D01*
X126054358Y-50672553D01*
X126062981Y-50660927D01*
X126072702Y-50650202D01*
X126083427Y-50640481D01*
X126095053Y-50631858D01*
X126107469Y-50624417D01*
X126120554Y-50618228D01*
X126134183Y-50613351D01*
X126148224Y-50609834D01*
X126162542Y-50607710D01*
X126177000Y-50607000D01*
X126472000Y-50607000D01*
X126486458Y-50607710D01*
X126486458Y-50607710D01*
G37*
D12*
X126324500Y-50927000D03*
D11*
G36*
X124075458Y-47290210D02*
G01*
X124089776Y-47292334D01*
X124103817Y-47295851D01*
X124117446Y-47300728D01*
X124130531Y-47306917D01*
X124142947Y-47314358D01*
X124154573Y-47322981D01*
X124165298Y-47332702D01*
X124175019Y-47343427D01*
X124183642Y-47355053D01*
X124191083Y-47367469D01*
X124197272Y-47380554D01*
X124202149Y-47394183D01*
X124205666Y-47408224D01*
X124207790Y-47422542D01*
X124208500Y-47437000D01*
X124208500Y-47732000D01*
X124207790Y-47746458D01*
X124205666Y-47760776D01*
X124202149Y-47774817D01*
X124197272Y-47788446D01*
X124191083Y-47801531D01*
X124183642Y-47813947D01*
X124175019Y-47825573D01*
X124165298Y-47836298D01*
X124154573Y-47846019D01*
X124142947Y-47854642D01*
X124130531Y-47862083D01*
X124117446Y-47868272D01*
X124103817Y-47873149D01*
X124089776Y-47876666D01*
X124075458Y-47878790D01*
X124061000Y-47879500D01*
X123716000Y-47879500D01*
X123701542Y-47878790D01*
X123687224Y-47876666D01*
X123673183Y-47873149D01*
X123659554Y-47868272D01*
X123646469Y-47862083D01*
X123634053Y-47854642D01*
X123622427Y-47846019D01*
X123611702Y-47836298D01*
X123601981Y-47825573D01*
X123593358Y-47813947D01*
X123585917Y-47801531D01*
X123579728Y-47788446D01*
X123574851Y-47774817D01*
X123571334Y-47760776D01*
X123569210Y-47746458D01*
X123568500Y-47732000D01*
X123568500Y-47437000D01*
X123569210Y-47422542D01*
X123571334Y-47408224D01*
X123574851Y-47394183D01*
X123579728Y-47380554D01*
X123585917Y-47367469D01*
X123593358Y-47355053D01*
X123601981Y-47343427D01*
X123611702Y-47332702D01*
X123622427Y-47322981D01*
X123634053Y-47314358D01*
X123646469Y-47306917D01*
X123659554Y-47300728D01*
X123673183Y-47295851D01*
X123687224Y-47292334D01*
X123701542Y-47290210D01*
X123716000Y-47289500D01*
X124061000Y-47289500D01*
X124075458Y-47290210D01*
X124075458Y-47290210D01*
G37*
D12*
X123888500Y-47584500D03*
D11*
G36*
X124075458Y-48260210D02*
G01*
X124089776Y-48262334D01*
X124103817Y-48265851D01*
X124117446Y-48270728D01*
X124130531Y-48276917D01*
X124142947Y-48284358D01*
X124154573Y-48292981D01*
X124165298Y-48302702D01*
X124175019Y-48313427D01*
X124183642Y-48325053D01*
X124191083Y-48337469D01*
X124197272Y-48350554D01*
X124202149Y-48364183D01*
X124205666Y-48378224D01*
X124207790Y-48392542D01*
X124208500Y-48407000D01*
X124208500Y-48702000D01*
X124207790Y-48716458D01*
X124205666Y-48730776D01*
X124202149Y-48744817D01*
X124197272Y-48758446D01*
X124191083Y-48771531D01*
X124183642Y-48783947D01*
X124175019Y-48795573D01*
X124165298Y-48806298D01*
X124154573Y-48816019D01*
X124142947Y-48824642D01*
X124130531Y-48832083D01*
X124117446Y-48838272D01*
X124103817Y-48843149D01*
X124089776Y-48846666D01*
X124075458Y-48848790D01*
X124061000Y-48849500D01*
X123716000Y-48849500D01*
X123701542Y-48848790D01*
X123687224Y-48846666D01*
X123673183Y-48843149D01*
X123659554Y-48838272D01*
X123646469Y-48832083D01*
X123634053Y-48824642D01*
X123622427Y-48816019D01*
X123611702Y-48806298D01*
X123601981Y-48795573D01*
X123593358Y-48783947D01*
X123585917Y-48771531D01*
X123579728Y-48758446D01*
X123574851Y-48744817D01*
X123571334Y-48730776D01*
X123569210Y-48716458D01*
X123568500Y-48702000D01*
X123568500Y-48407000D01*
X123569210Y-48392542D01*
X123571334Y-48378224D01*
X123574851Y-48364183D01*
X123579728Y-48350554D01*
X123585917Y-48337469D01*
X123593358Y-48325053D01*
X123601981Y-48313427D01*
X123611702Y-48302702D01*
X123622427Y-48292981D01*
X123634053Y-48284358D01*
X123646469Y-48276917D01*
X123659554Y-48270728D01*
X123673183Y-48265851D01*
X123687224Y-48262334D01*
X123701542Y-48260210D01*
X123716000Y-48259500D01*
X124061000Y-48259500D01*
X124075458Y-48260210D01*
X124075458Y-48260210D01*
G37*
D12*
X123888500Y-48554500D03*
D14*
X99066500Y-50500000D03*
D15*
X102116500Y-50500000D03*
X123008000Y-50500000D03*
D14*
X119958000Y-50500000D03*
D16*
X120250000Y-83750000D03*
X99250000Y-83750000D03*
X136750000Y-74500000D03*
X115750000Y-74500000D03*
X136750000Y-65250000D03*
X115750000Y-65250000D03*
X136750000Y-56250000D03*
X115750000Y-56250000D03*
X120000000Y-44750000D03*
X99000000Y-44750000D03*
X112750000Y-56250000D03*
X91750000Y-56250000D03*
X112750000Y-65250000D03*
X91750000Y-65250000D03*
X112750000Y-74500000D03*
X91750000Y-74500000D03*
M02*
