M48
INCH
T1C0.0150
%
G90
G05
T1
X3.88Y-2.5
X3.88Y-2.55
X3.88Y-2.6
X3.9175Y-2.12
X3.9175Y-2.145
X4.0525Y-2.31
X4.1002Y-2.0136
X4.1064Y-2.0677
X4.14Y-1.935
X4.1832Y-1.9886
X4.1832Y-2.0376
X4.2075Y-1.9
X4.2092Y-2.1236
X4.2096Y-2.0115
X4.2332Y-2.0376
X4.2335Y-1.9876
X4.3005Y-1.9155
X4.3075Y-2.0675
X4.395Y-2.0
X4.47Y-1.885
X4.485Y-1.92
X4.485Y-1.9925
X4.5225Y-1.9925
X4.575Y-2.0375
X4.6175Y-1.8675
X4.62Y-2.1025
X4.6275Y-1.9154
X4.6475Y-1.86
X4.8425Y-1.905
X4.8425Y-1.94
X4.8425Y-2.0425
X4.8425Y-2.07
X4.8425Y-2.0975
X4.8875Y-1.9475
X4.9025Y-2.005
X4.96Y-1.88
X4.985Y-3.45
X5.0Y-1.88
X5.0Y-1.94
X5.0425Y-2.005
X5.095Y-3.45
T0
M30
