%TF.GenerationSoftware,KiCad,Pcbnew,(5.1.4)-1*%
%TF.CreationDate,2019-10-25T20:31:38-07:00*%
%TF.ProjectId,SolarCellX_v3,536f6c61-7243-4656-9c6c-585f76332e6b,rev?*%
%TF.SameCoordinates,Original*%
%TF.FileFunction,Copper,L3,Inr*%
%TF.FilePolarity,Positive*%
%FSLAX46Y46*%
G04 Gerber Fmt 4.6, Leading zero omitted, Abs format (unit mm)*
G04 Created by KiCad (PCBNEW (5.1.4)-1) date 2019-10-25 20:31:38*
%MOMM*%
%LPD*%
G04 APERTURE LIST*
%ADD10C,0.050000*%
%ADD11C,0.584200*%
%ADD12C,0.127000*%
G04 APERTURE END LIST*
D10*
X96200000Y-47000000D02*
G75*
G03X96200000Y-47000000I-1100000J0D01*
G01*
X96200000Y-81400000D02*
G75*
G03X96200000Y-81400000I-1100000J0D01*
G01*
X136000000Y-81400000D02*
G75*
G03X136000000Y-81400000I-1100000J0D01*
G01*
X136000000Y-47000000D02*
G75*
G03X136000000Y-47000000I-1100000J0D01*
G01*
X90000000Y-88400000D02*
X138400000Y-88400000D01*
X90000000Y-88400000D02*
X90000000Y-40000000D01*
X138400000Y-40000000D02*
X138400000Y-88400000D01*
X90000000Y-40000000D02*
X138400000Y-40000000D01*
D11*
X106253260Y-51754256D03*
X107523260Y-51754256D03*
X106253260Y-50509656D03*
X109410500Y-52514500D03*
X107530900Y-50485040D03*
X106923840Y-51092100D03*
X104302012Y-52519693D03*
X122999500Y-53276500D03*
X122999500Y-52578000D03*
X122999500Y-51879500D03*
X122999500Y-49276000D03*
X124142510Y-49466500D03*
X124523500Y-50927000D03*
X122999500Y-48387000D03*
X125984000Y-47752000D03*
X117537610Y-48650791D03*
X117348000Y-53403500D03*
X128079500Y-50927000D03*
X127000000Y-47752000D03*
X118047740Y-47243775D03*
X127000000Y-49276000D03*
X117284500Y-47434502D03*
X106913660Y-53938656D03*
X113538000Y-47879000D03*
X105156000Y-49149000D03*
X111633000Y-50800000D03*
X113919000Y-48768000D03*
X116205000Y-51752500D03*
X106870500Y-48260000D03*
X109232672Y-48653690D03*
X104144156Y-51144656D03*
X102933500Y-58674000D03*
X99504500Y-53848000D03*
X99504500Y-54483000D03*
X126619000Y-87630000D03*
X98552000Y-64770000D03*
X98552000Y-63500000D03*
X98552000Y-66040000D03*
X129413000Y-87630000D03*
X113919000Y-50609500D03*
X114871500Y-50609500D03*
D12*
X130556000Y-82296000D02*
X129921000Y-82296000D01*
X130556000Y-77089000D02*
X130556000Y-82296000D01*
X133350000Y-77089000D02*
X130556000Y-77089000D01*
X133350000Y-51435000D02*
X133350000Y-77089000D01*
X130556000Y-51435000D02*
X133350000Y-51435000D01*
X130556000Y-44831000D02*
X130556000Y-51435000D01*
X97409000Y-44577000D02*
X130810000Y-44577000D01*
X97663000Y-82550000D02*
X97663000Y-78867000D01*
X131064000Y-82804000D02*
X97409000Y-82804000D01*
X130048000Y-82296000D02*
X129921000Y-82296000D01*
X131064000Y-77597000D02*
X131064000Y-82804000D01*
X96901000Y-79629000D02*
X93980000Y-79629000D01*
X133604000Y-51181000D02*
X133604000Y-77343000D01*
X94488000Y-79121000D02*
X94488000Y-49276000D01*
X97663000Y-44831000D02*
X130556000Y-44831000D01*
X94488000Y-49276000D02*
X97409000Y-49276000D01*
X131318000Y-44069000D02*
X131318000Y-50673000D01*
X97155000Y-49022000D02*
X97155000Y-44958000D01*
X133858000Y-50927000D02*
X133858000Y-77597000D01*
X93980000Y-79629000D02*
X93980000Y-48768000D01*
X93980000Y-48768000D02*
X96901000Y-48768000D01*
X96901000Y-48768000D02*
X96901000Y-45212000D01*
X96901000Y-45212000D02*
X93980000Y-45212000D01*
X93980000Y-45212000D02*
X93980000Y-44069000D01*
X93980000Y-44069000D02*
X131318000Y-44069000D01*
X131318000Y-50673000D02*
X134112000Y-50673000D01*
X134112000Y-50673000D02*
X134112000Y-77851000D01*
X134112000Y-77851000D02*
X131318000Y-77851000D01*
X131318000Y-77851000D02*
X131318000Y-83058000D01*
X131318000Y-83058000D02*
X97155000Y-83058000D01*
X97155000Y-79375000D02*
X94234000Y-79375000D01*
X94234000Y-79375000D02*
X94234000Y-49022000D01*
X94234000Y-49022000D02*
X97155000Y-49022000D01*
X97155000Y-44958000D02*
X94234000Y-44958000D01*
X94234000Y-44958000D02*
X94234000Y-44323000D01*
X94234000Y-44323000D02*
X131064000Y-44323000D01*
X131064000Y-44323000D02*
X131064000Y-50927000D01*
X131064000Y-50927000D02*
X133858000Y-50927000D01*
X133858000Y-77597000D02*
X131064000Y-77597000D01*
X97409000Y-82804000D02*
X97409000Y-79121000D01*
X97409000Y-79121000D02*
X94488000Y-79121000D01*
X97409000Y-49276000D02*
X97409000Y-44577000D01*
X130810000Y-44577000D02*
X130810000Y-51181000D01*
X130810000Y-51181000D02*
X133604000Y-51181000D01*
X133604000Y-77343000D02*
X130810000Y-77343000D01*
X130810000Y-77343000D02*
X130810000Y-82550000D01*
X130810000Y-82550000D02*
X97663000Y-82550000D01*
X97663000Y-78867000D02*
X94742000Y-78867000D01*
X94742000Y-78867000D02*
X94742000Y-49530000D01*
X94742000Y-49530000D02*
X97663000Y-49530000D01*
X97663000Y-49530000D02*
X97663000Y-44831000D01*
X129413000Y-86868000D02*
X129413000Y-87630000D01*
X90424000Y-86868000D02*
X129413000Y-86868000D01*
X90424000Y-40513000D02*
X90424000Y-86868000D01*
X137668000Y-40513000D02*
X90424000Y-40513000D01*
X137668000Y-86614000D02*
X137668000Y-40513000D01*
X90678000Y-86614000D02*
X137668000Y-86614000D01*
X90678000Y-40767000D02*
X90678000Y-86614000D01*
X90932000Y-86360000D02*
X137414000Y-86360000D01*
X90932000Y-41021000D02*
X90932000Y-86360000D01*
X137160000Y-41021000D02*
X90932000Y-41021000D01*
X137160000Y-86106000D02*
X137160000Y-41021000D01*
X91186000Y-86106000D02*
X137160000Y-86106000D01*
X91186000Y-41275000D02*
X91186000Y-86106000D01*
X136906000Y-41275000D02*
X91186000Y-41275000D01*
X91440000Y-41529000D02*
X91440000Y-85852000D01*
X136652000Y-41529000D02*
X91440000Y-41529000D01*
X136652000Y-85598000D02*
X136652000Y-41529000D01*
X91694000Y-85598000D02*
X136652000Y-85598000D01*
X91694000Y-41783000D02*
X91694000Y-85598000D01*
X136398000Y-41783000D02*
X91694000Y-41783000D01*
X136398000Y-85344000D02*
X136398000Y-41783000D01*
X91948000Y-85344000D02*
X136398000Y-85344000D01*
X91948000Y-42037000D02*
X91948000Y-85344000D01*
X136144000Y-42037000D02*
X91948000Y-42037000D01*
X136144000Y-45466000D02*
X136144000Y-42037000D01*
X133350000Y-45466000D02*
X136144000Y-45466000D01*
X133350000Y-48641000D02*
X133350000Y-45466000D01*
X136144000Y-48641000D02*
X133350000Y-48641000D01*
X136144000Y-79883000D02*
X136144000Y-48641000D01*
X133350000Y-79883000D02*
X136144000Y-79883000D01*
X133350000Y-82931000D02*
X133350000Y-79883000D01*
X136144000Y-82931000D02*
X133350000Y-82931000D01*
X136144000Y-85090000D02*
X136144000Y-82931000D01*
X92202000Y-85090000D02*
X136144000Y-85090000D01*
X92202000Y-42291000D02*
X92202000Y-85090000D01*
X135890000Y-42291000D02*
X92202000Y-42291000D01*
X135890000Y-45212000D02*
X135890000Y-42291000D01*
X133096000Y-45212000D02*
X135890000Y-45212000D01*
X132080000Y-49911000D02*
X132080000Y-44196000D01*
X135128000Y-43053000D02*
X92964000Y-43053000D01*
X134874000Y-78613000D02*
X134874000Y-49911000D01*
X132842000Y-79375000D02*
X135636000Y-79375000D01*
X132080000Y-83820000D02*
X132080000Y-78613000D01*
X93218000Y-43307000D02*
X93218000Y-84074000D01*
X93472000Y-43561000D02*
X93472000Y-83820000D01*
X134620000Y-43561000D02*
X93472000Y-43561000D01*
X135890000Y-83185000D02*
X133096000Y-83185000D01*
X131826000Y-50165000D02*
X131826000Y-43942000D01*
X134620000Y-50165000D02*
X131826000Y-50165000D01*
X132080000Y-44196000D02*
X134874000Y-44196000D01*
X134620000Y-78359000D02*
X134620000Y-50165000D01*
X131826000Y-78359000D02*
X134620000Y-78359000D01*
X137414000Y-86360000D02*
X137414000Y-40767000D01*
X134874000Y-43307000D02*
X93218000Y-43307000D01*
X135890000Y-84836000D02*
X135890000Y-83185000D01*
X131826000Y-83566000D02*
X131826000Y-78359000D01*
X134874000Y-44196000D02*
X134874000Y-43307000D01*
X135382000Y-49403000D02*
X132588000Y-49403000D01*
X93726000Y-83566000D02*
X131826000Y-83566000D01*
X132842000Y-83439000D02*
X132842000Y-79375000D01*
X137414000Y-40767000D02*
X90678000Y-40767000D01*
X131572000Y-50419000D02*
X131572000Y-43815000D01*
X132334000Y-44450000D02*
X135128000Y-44450000D01*
X96647000Y-48514000D02*
X93726000Y-48514000D01*
X134366000Y-50419000D02*
X131572000Y-50419000D01*
X92710000Y-42799000D02*
X92710000Y-84582000D01*
X134366000Y-78105000D02*
X134366000Y-50419000D01*
X134620000Y-43942000D02*
X134620000Y-43561000D01*
X93726000Y-48514000D02*
X93726000Y-79883000D01*
X135636000Y-42545000D02*
X92456000Y-42545000D01*
X131572000Y-78105000D02*
X134366000Y-78105000D01*
X132080000Y-78613000D02*
X134874000Y-78613000D01*
X96901000Y-83312000D02*
X131572000Y-83312000D01*
X92710000Y-84582000D02*
X135636000Y-84582000D01*
X134874000Y-49911000D02*
X132080000Y-49911000D01*
X133096000Y-48895000D02*
X133096000Y-45212000D01*
X131572000Y-43815000D02*
X93726000Y-43815000D01*
X131572000Y-83312000D02*
X131572000Y-78105000D01*
X93472000Y-83820000D02*
X132080000Y-83820000D01*
X93726000Y-43815000D02*
X93726000Y-45466000D01*
X96647000Y-45466000D02*
X96647000Y-48514000D01*
X93726000Y-79883000D02*
X96647000Y-79883000D01*
X135636000Y-44958000D02*
X135636000Y-42545000D01*
X96647000Y-79883000D02*
X96647000Y-82931000D01*
X133096000Y-79629000D02*
X135890000Y-79629000D01*
X93726000Y-45466000D02*
X96647000Y-45466000D01*
X136906000Y-85852000D02*
X136906000Y-41275000D01*
X96647000Y-82931000D02*
X93726000Y-82931000D01*
X131826000Y-43942000D02*
X134620000Y-43942000D01*
X93726000Y-82931000D02*
X93726000Y-83566000D01*
X135382000Y-42799000D02*
X92710000Y-42799000D01*
X93218000Y-84074000D02*
X132334000Y-84074000D01*
X135636000Y-79375000D02*
X135636000Y-49149000D01*
X91440000Y-85852000D02*
X136906000Y-85852000D01*
X132334000Y-84074000D02*
X132334000Y-78867000D01*
X135128000Y-49657000D02*
X132334000Y-49657000D01*
X132334000Y-78867000D02*
X135128000Y-78867000D01*
X135128000Y-78867000D02*
X135128000Y-49657000D01*
X132334000Y-49657000D02*
X132334000Y-44450000D01*
X135128000Y-44450000D02*
X135128000Y-43053000D01*
X92964000Y-43053000D02*
X92964000Y-84328000D01*
X92964000Y-84328000D02*
X135382000Y-84328000D01*
X135382000Y-84328000D02*
X135382000Y-83693000D01*
X135382000Y-83693000D02*
X132588000Y-83693000D01*
X132588000Y-83693000D02*
X132588000Y-79121000D01*
X132588000Y-79121000D02*
X135382000Y-79121000D01*
X135382000Y-79121000D02*
X135382000Y-49403000D01*
X132588000Y-49403000D02*
X132588000Y-44704000D01*
X132588000Y-44704000D02*
X135382000Y-44704000D01*
X135382000Y-44704000D02*
X135382000Y-42799000D01*
X135636000Y-84582000D02*
X135636000Y-83439000D01*
X135636000Y-83439000D02*
X132842000Y-83439000D01*
X135636000Y-49149000D02*
X132842000Y-49149000D01*
X132842000Y-49149000D02*
X132842000Y-44958000D01*
X132842000Y-44958000D02*
X135636000Y-44958000D01*
X92456000Y-42545000D02*
X92456000Y-84836000D01*
X92456000Y-84836000D02*
X135890000Y-84836000D01*
X133096000Y-83185000D02*
X133096000Y-79629000D01*
X135890000Y-79629000D02*
X135890000Y-48895000D01*
X135890000Y-48895000D02*
X133096000Y-48895000D01*
X96901000Y-79629000D02*
X96901000Y-83312000D01*
X97155000Y-79375000D02*
X97155000Y-83058000D01*
X96520000Y-77089000D02*
X96520000Y-64770000D01*
X99441000Y-77089000D02*
X96520000Y-77089000D01*
X99441000Y-80772000D02*
X99441000Y-77089000D01*
X129032000Y-80772000D02*
X99441000Y-80772000D01*
X131826000Y-75565000D02*
X129032000Y-75565000D01*
X131826000Y-52959000D02*
X131826000Y-75565000D01*
X129032000Y-52959000D02*
X131826000Y-52959000D01*
X99187000Y-51054000D02*
X99187000Y-46355000D01*
X96266000Y-51054000D02*
X99187000Y-51054000D01*
X96266000Y-77343000D02*
X96266000Y-51054000D01*
X99187000Y-77343000D02*
X96266000Y-77343000D01*
X99187000Y-81026000D02*
X99187000Y-77343000D01*
X129286000Y-81026000D02*
X99187000Y-81026000D01*
X129286000Y-75819000D02*
X129286000Y-81026000D01*
X132080000Y-52705000D02*
X132080000Y-75819000D01*
X98933000Y-46101000D02*
X129286000Y-46101000D01*
X96012000Y-77597000D02*
X96012000Y-50800000D01*
X132334000Y-76073000D02*
X129540000Y-76073000D01*
X132334000Y-52451000D02*
X132334000Y-76073000D01*
X98679000Y-45847000D02*
X129540000Y-45847000D01*
X98679000Y-50546000D02*
X98679000Y-45847000D01*
X95758000Y-50546000D02*
X98679000Y-50546000D01*
X98679000Y-77851000D02*
X95758000Y-77851000D01*
X98679000Y-81534000D02*
X98679000Y-77851000D01*
X129794000Y-81534000D02*
X98679000Y-81534000D01*
X132588000Y-76327000D02*
X129794000Y-76327000D01*
X132588000Y-52197000D02*
X132588000Y-76327000D01*
X129794000Y-52197000D02*
X132588000Y-52197000D01*
X129794000Y-45593000D02*
X129794000Y-52197000D01*
X98425000Y-45593000D02*
X129794000Y-45593000D01*
X98425000Y-50292000D02*
X98425000Y-45593000D01*
X98425000Y-78105000D02*
X95504000Y-78105000D01*
X129286000Y-46101000D02*
X129286000Y-52705000D01*
X129032000Y-75565000D02*
X129032000Y-80772000D01*
X132842000Y-76581000D02*
X130048000Y-76581000D01*
X129540000Y-81280000D02*
X98933000Y-81280000D01*
X130048000Y-45339000D02*
X130048000Y-51943000D01*
X130048000Y-76581000D02*
X130048000Y-81788000D01*
X130048000Y-51943000D02*
X132842000Y-51943000D01*
X96012000Y-50800000D02*
X98933000Y-50800000D01*
X129794000Y-76327000D02*
X129794000Y-81534000D01*
X96520000Y-64770000D02*
X98552000Y-64770000D01*
X129921000Y-82296000D02*
X97917000Y-82296000D01*
X133096000Y-51689000D02*
X133096000Y-76835000D01*
X98933000Y-81280000D02*
X98933000Y-77597000D01*
X95504000Y-50292000D02*
X98425000Y-50292000D01*
X99187000Y-46355000D02*
X129032000Y-46355000D01*
X98425000Y-81788000D02*
X98425000Y-78105000D01*
X98933000Y-77597000D02*
X96012000Y-77597000D01*
X95250000Y-78359000D02*
X95250000Y-50038000D01*
X129540000Y-76073000D02*
X129540000Y-81280000D01*
X129286000Y-52705000D02*
X132080000Y-52705000D01*
X97917000Y-82296000D02*
X97917000Y-78613000D01*
X97917000Y-78613000D02*
X94996000Y-78613000D01*
X132080000Y-75819000D02*
X129286000Y-75819000D01*
X95504000Y-78105000D02*
X95504000Y-50292000D01*
X130302000Y-45085000D02*
X130302000Y-51689000D01*
X129540000Y-45847000D02*
X129540000Y-52451000D01*
X98933000Y-50800000D02*
X98933000Y-46101000D01*
X129032000Y-46355000D02*
X129032000Y-52959000D01*
X133096000Y-76835000D02*
X130302000Y-76835000D01*
X130048000Y-81788000D02*
X98425000Y-81788000D01*
X130302000Y-76835000D02*
X130302000Y-82042000D01*
X129540000Y-52451000D02*
X132334000Y-52451000D01*
X132842000Y-51943000D02*
X132842000Y-76581000D01*
X94996000Y-49784000D02*
X97917000Y-49784000D01*
X98171000Y-82042000D02*
X98171000Y-78359000D01*
X95758000Y-77851000D02*
X95758000Y-50546000D01*
X94996000Y-78613000D02*
X94996000Y-49784000D01*
X98171000Y-45339000D02*
X130048000Y-45339000D01*
X97917000Y-49784000D02*
X97917000Y-45085000D01*
X97917000Y-45085000D02*
X130302000Y-45085000D01*
X130302000Y-51689000D02*
X133096000Y-51689000D01*
X130302000Y-82042000D02*
X98171000Y-82042000D01*
X98171000Y-78359000D02*
X95250000Y-78359000D01*
X95250000Y-50038000D02*
X98171000Y-50038000D01*
X98171000Y-50038000D02*
X98171000Y-45339000D01*
M02*
