G04 #@! TF.GenerationSoftware,KiCad,Pcbnew,(5.1.4)-1*
G04 #@! TF.CreationDate,2019-10-25T18:14:47-07:00*
G04 #@! TF.ProjectId,SolarCellX_v3,536f6c61-7243-4656-9c6c-585f76332e6b,rev?*
G04 #@! TF.SameCoordinates,Original*
G04 #@! TF.FileFunction,Soldermask,Bot*
G04 #@! TF.FilePolarity,Negative*
%FSLAX46Y46*%
G04 Gerber Fmt 4.6, Leading zero omitted, Abs format (unit mm)*
G04 Created by KiCad (PCBNEW (5.1.4)-1) date 2019-10-25 18:14:47*
%MOMM*%
%LPD*%
G04 APERTURE LIST*
%ADD10C,0.300000*%
%ADD11C,0.050000*%
%ADD12R,0.901600X0.901600*%
%ADD13R,1.201600X2.101600*%
%ADD14C,0.100000*%
%ADD15C,0.976600*%
%ADD16C,0.691600*%
%ADD17R,0.627000X0.827000*%
%ADD18R,2.251600X2.251600*%
%ADD19R,0.401600X1.001600*%
%ADD20R,1.001600X0.401600*%
%ADD21R,1.601600X1.801600*%
%ADD22R,1.201600X0.351600*%
%ADD23R,1.562100X4.521200*%
G04 APERTURE END LIST*
D10*
X136723214Y-86229071D02*
X136366071Y-87229071D01*
X136008928Y-86229071D01*
X135151785Y-85729071D02*
X135008928Y-85729071D01*
X134866071Y-85800500D01*
X134794642Y-85871928D01*
X134723214Y-86014785D01*
X134651785Y-86300500D01*
X134651785Y-86657642D01*
X134723214Y-86943357D01*
X134794642Y-87086214D01*
X134866071Y-87157642D01*
X135008928Y-87229071D01*
X135151785Y-87229071D01*
X135294642Y-87157642D01*
X135366071Y-87086214D01*
X135437500Y-86943357D01*
X135508928Y-86657642D01*
X135508928Y-86300500D01*
X135437500Y-86014785D01*
X135366071Y-85871928D01*
X135294642Y-85800500D01*
X135151785Y-85729071D01*
X133723214Y-85729071D02*
X133580357Y-85729071D01*
X133437500Y-85800500D01*
X133366071Y-85871928D01*
X133294642Y-86014785D01*
X133223214Y-86300500D01*
X133223214Y-86657642D01*
X133294642Y-86943357D01*
X133366071Y-87086214D01*
X133437500Y-87157642D01*
X133580357Y-87229071D01*
X133723214Y-87229071D01*
X133866071Y-87157642D01*
X133937500Y-87086214D01*
X134008928Y-86943357D01*
X134080357Y-86657642D01*
X134080357Y-86300500D01*
X134008928Y-86014785D01*
X133937500Y-85871928D01*
X133866071Y-85800500D01*
X133723214Y-85729071D01*
D11*
X96200000Y-47000000D02*
G75*
G03X96200000Y-47000000I-1100000J0D01*
G01*
X96200000Y-81400000D02*
G75*
G03X96200000Y-81400000I-1100000J0D01*
G01*
X136000000Y-81400000D02*
G75*
G03X136000000Y-81400000I-1100000J0D01*
G01*
X136000000Y-47000000D02*
G75*
G03X136000000Y-47000000I-1100000J0D01*
G01*
X90000000Y-88400000D02*
X138400000Y-88400000D01*
X90000000Y-88400000D02*
X90000000Y-40000000D01*
X138400000Y-40000000D02*
X138400000Y-88400000D01*
X90000000Y-40000000D02*
X138400000Y-40000000D01*
D12*
X99504500Y-55265000D03*
D13*
X99504500Y-57165000D03*
D14*
G36*
X112573581Y-48306376D02*
G01*
X112597281Y-48309891D01*
X112620523Y-48315713D01*
X112643082Y-48323785D01*
X112664742Y-48334029D01*
X112685292Y-48346347D01*
X112704537Y-48360619D01*
X112722290Y-48376710D01*
X112738381Y-48394463D01*
X112752653Y-48413708D01*
X112764971Y-48434258D01*
X112775215Y-48455918D01*
X112783287Y-48478477D01*
X112789109Y-48501719D01*
X112792624Y-48525419D01*
X112793800Y-48549350D01*
X112793800Y-49037650D01*
X112792624Y-49061581D01*
X112789109Y-49085281D01*
X112783287Y-49108523D01*
X112775215Y-49131082D01*
X112764971Y-49152742D01*
X112752653Y-49173292D01*
X112738381Y-49192537D01*
X112722290Y-49210290D01*
X112704537Y-49226381D01*
X112685292Y-49240653D01*
X112664742Y-49252971D01*
X112643082Y-49263215D01*
X112620523Y-49271287D01*
X112597281Y-49277109D01*
X112573581Y-49280624D01*
X112549650Y-49281800D01*
X111986350Y-49281800D01*
X111962419Y-49280624D01*
X111938719Y-49277109D01*
X111915477Y-49271287D01*
X111892918Y-49263215D01*
X111871258Y-49252971D01*
X111850708Y-49240653D01*
X111831463Y-49226381D01*
X111813710Y-49210290D01*
X111797619Y-49192537D01*
X111783347Y-49173292D01*
X111771029Y-49152742D01*
X111760785Y-49131082D01*
X111752713Y-49108523D01*
X111746891Y-49085281D01*
X111743376Y-49061581D01*
X111742200Y-49037650D01*
X111742200Y-48549350D01*
X111743376Y-48525419D01*
X111746891Y-48501719D01*
X111752713Y-48478477D01*
X111760785Y-48455918D01*
X111771029Y-48434258D01*
X111783347Y-48413708D01*
X111797619Y-48394463D01*
X111813710Y-48376710D01*
X111831463Y-48360619D01*
X111850708Y-48346347D01*
X111871258Y-48334029D01*
X111892918Y-48323785D01*
X111915477Y-48315713D01*
X111938719Y-48309891D01*
X111962419Y-48306376D01*
X111986350Y-48305200D01*
X112549650Y-48305200D01*
X112573581Y-48306376D01*
X112573581Y-48306376D01*
G37*
D15*
X112268000Y-48793500D03*
D14*
G36*
X112573581Y-46731376D02*
G01*
X112597281Y-46734891D01*
X112620523Y-46740713D01*
X112643082Y-46748785D01*
X112664742Y-46759029D01*
X112685292Y-46771347D01*
X112704537Y-46785619D01*
X112722290Y-46801710D01*
X112738381Y-46819463D01*
X112752653Y-46838708D01*
X112764971Y-46859258D01*
X112775215Y-46880918D01*
X112783287Y-46903477D01*
X112789109Y-46926719D01*
X112792624Y-46950419D01*
X112793800Y-46974350D01*
X112793800Y-47462650D01*
X112792624Y-47486581D01*
X112789109Y-47510281D01*
X112783287Y-47533523D01*
X112775215Y-47556082D01*
X112764971Y-47577742D01*
X112752653Y-47598292D01*
X112738381Y-47617537D01*
X112722290Y-47635290D01*
X112704537Y-47651381D01*
X112685292Y-47665653D01*
X112664742Y-47677971D01*
X112643082Y-47688215D01*
X112620523Y-47696287D01*
X112597281Y-47702109D01*
X112573581Y-47705624D01*
X112549650Y-47706800D01*
X111986350Y-47706800D01*
X111962419Y-47705624D01*
X111938719Y-47702109D01*
X111915477Y-47696287D01*
X111892918Y-47688215D01*
X111871258Y-47677971D01*
X111850708Y-47665653D01*
X111831463Y-47651381D01*
X111813710Y-47635290D01*
X111797619Y-47617537D01*
X111783347Y-47598292D01*
X111771029Y-47577742D01*
X111760785Y-47556082D01*
X111752713Y-47533523D01*
X111746891Y-47510281D01*
X111743376Y-47486581D01*
X111742200Y-47462650D01*
X111742200Y-46974350D01*
X111743376Y-46950419D01*
X111746891Y-46926719D01*
X111752713Y-46903477D01*
X111760785Y-46880918D01*
X111771029Y-46859258D01*
X111783347Y-46838708D01*
X111797619Y-46819463D01*
X111813710Y-46801710D01*
X111831463Y-46785619D01*
X111850708Y-46771347D01*
X111871258Y-46759029D01*
X111892918Y-46748785D01*
X111915477Y-46740713D01*
X111938719Y-46734891D01*
X111962419Y-46731376D01*
X111986350Y-46730200D01*
X112549650Y-46730200D01*
X112573581Y-46731376D01*
X112573581Y-46731376D01*
G37*
D15*
X112268000Y-47218500D03*
D14*
G36*
X107588507Y-57378689D02*
G01*
X107605291Y-57381178D01*
X107621750Y-57385301D01*
X107637726Y-57391017D01*
X107653064Y-57398272D01*
X107667618Y-57406995D01*
X107681247Y-57417102D01*
X107693819Y-57428497D01*
X107705214Y-57441069D01*
X107715321Y-57454698D01*
X107724044Y-57469252D01*
X107731299Y-57484590D01*
X107737015Y-57500566D01*
X107741138Y-57517025D01*
X107743627Y-57533809D01*
X107744460Y-57550756D01*
X107744460Y-57946556D01*
X107743627Y-57963503D01*
X107741138Y-57980287D01*
X107737015Y-57996746D01*
X107731299Y-58012722D01*
X107724044Y-58028060D01*
X107715321Y-58042614D01*
X107705214Y-58056243D01*
X107693819Y-58068815D01*
X107681247Y-58080210D01*
X107667618Y-58090317D01*
X107653064Y-58099040D01*
X107637726Y-58106295D01*
X107621750Y-58112011D01*
X107605291Y-58116134D01*
X107588507Y-58118623D01*
X107571560Y-58119456D01*
X107225760Y-58119456D01*
X107208813Y-58118623D01*
X107192029Y-58116134D01*
X107175570Y-58112011D01*
X107159594Y-58106295D01*
X107144256Y-58099040D01*
X107129702Y-58090317D01*
X107116073Y-58080210D01*
X107103501Y-58068815D01*
X107092106Y-58056243D01*
X107081999Y-58042614D01*
X107073276Y-58028060D01*
X107066021Y-58012722D01*
X107060305Y-57996746D01*
X107056182Y-57980287D01*
X107053693Y-57963503D01*
X107052860Y-57946556D01*
X107052860Y-57550756D01*
X107053693Y-57533809D01*
X107056182Y-57517025D01*
X107060305Y-57500566D01*
X107066021Y-57484590D01*
X107073276Y-57469252D01*
X107081999Y-57454698D01*
X107092106Y-57441069D01*
X107103501Y-57428497D01*
X107116073Y-57417102D01*
X107129702Y-57406995D01*
X107144256Y-57398272D01*
X107159594Y-57391017D01*
X107175570Y-57385301D01*
X107192029Y-57381178D01*
X107208813Y-57378689D01*
X107225760Y-57377856D01*
X107571560Y-57377856D01*
X107588507Y-57378689D01*
X107588507Y-57378689D01*
G37*
D16*
X107398660Y-57748656D03*
D14*
G36*
X106618507Y-57378689D02*
G01*
X106635291Y-57381178D01*
X106651750Y-57385301D01*
X106667726Y-57391017D01*
X106683064Y-57398272D01*
X106697618Y-57406995D01*
X106711247Y-57417102D01*
X106723819Y-57428497D01*
X106735214Y-57441069D01*
X106745321Y-57454698D01*
X106754044Y-57469252D01*
X106761299Y-57484590D01*
X106767015Y-57500566D01*
X106771138Y-57517025D01*
X106773627Y-57533809D01*
X106774460Y-57550756D01*
X106774460Y-57946556D01*
X106773627Y-57963503D01*
X106771138Y-57980287D01*
X106767015Y-57996746D01*
X106761299Y-58012722D01*
X106754044Y-58028060D01*
X106745321Y-58042614D01*
X106735214Y-58056243D01*
X106723819Y-58068815D01*
X106711247Y-58080210D01*
X106697618Y-58090317D01*
X106683064Y-58099040D01*
X106667726Y-58106295D01*
X106651750Y-58112011D01*
X106635291Y-58116134D01*
X106618507Y-58118623D01*
X106601560Y-58119456D01*
X106255760Y-58119456D01*
X106238813Y-58118623D01*
X106222029Y-58116134D01*
X106205570Y-58112011D01*
X106189594Y-58106295D01*
X106174256Y-58099040D01*
X106159702Y-58090317D01*
X106146073Y-58080210D01*
X106133501Y-58068815D01*
X106122106Y-58056243D01*
X106111999Y-58042614D01*
X106103276Y-58028060D01*
X106096021Y-58012722D01*
X106090305Y-57996746D01*
X106086182Y-57980287D01*
X106083693Y-57963503D01*
X106082860Y-57946556D01*
X106082860Y-57550756D01*
X106083693Y-57533809D01*
X106086182Y-57517025D01*
X106090305Y-57500566D01*
X106096021Y-57484590D01*
X106103276Y-57469252D01*
X106111999Y-57454698D01*
X106122106Y-57441069D01*
X106133501Y-57428497D01*
X106146073Y-57417102D01*
X106159702Y-57406995D01*
X106174256Y-57398272D01*
X106189594Y-57391017D01*
X106205570Y-57385301D01*
X106222029Y-57381178D01*
X106238813Y-57378689D01*
X106255760Y-57377856D01*
X106601560Y-57377856D01*
X106618507Y-57378689D01*
X106618507Y-57378689D01*
G37*
D16*
X106428660Y-57748656D03*
D14*
G36*
X119229081Y-53831376D02*
G01*
X119252781Y-53834891D01*
X119276023Y-53840713D01*
X119298582Y-53848785D01*
X119320242Y-53859029D01*
X119340792Y-53871347D01*
X119360037Y-53885619D01*
X119377790Y-53901710D01*
X119393881Y-53919463D01*
X119408153Y-53938708D01*
X119420471Y-53959258D01*
X119430715Y-53980918D01*
X119438787Y-54003477D01*
X119444609Y-54026719D01*
X119448124Y-54050419D01*
X119449300Y-54074350D01*
X119449300Y-54637650D01*
X119448124Y-54661581D01*
X119444609Y-54685281D01*
X119438787Y-54708523D01*
X119430715Y-54731082D01*
X119420471Y-54752742D01*
X119408153Y-54773292D01*
X119393881Y-54792537D01*
X119377790Y-54810290D01*
X119360037Y-54826381D01*
X119340792Y-54840653D01*
X119320242Y-54852971D01*
X119298582Y-54863215D01*
X119276023Y-54871287D01*
X119252781Y-54877109D01*
X119229081Y-54880624D01*
X119205150Y-54881800D01*
X118716850Y-54881800D01*
X118692919Y-54880624D01*
X118669219Y-54877109D01*
X118645977Y-54871287D01*
X118623418Y-54863215D01*
X118601758Y-54852971D01*
X118581208Y-54840653D01*
X118561963Y-54826381D01*
X118544210Y-54810290D01*
X118528119Y-54792537D01*
X118513847Y-54773292D01*
X118501529Y-54752742D01*
X118491285Y-54731082D01*
X118483213Y-54708523D01*
X118477391Y-54685281D01*
X118473876Y-54661581D01*
X118472700Y-54637650D01*
X118472700Y-54074350D01*
X118473876Y-54050419D01*
X118477391Y-54026719D01*
X118483213Y-54003477D01*
X118491285Y-53980918D01*
X118501529Y-53959258D01*
X118513847Y-53938708D01*
X118528119Y-53919463D01*
X118544210Y-53901710D01*
X118561963Y-53885619D01*
X118581208Y-53871347D01*
X118601758Y-53859029D01*
X118623418Y-53848785D01*
X118645977Y-53840713D01*
X118669219Y-53834891D01*
X118692919Y-53831376D01*
X118716850Y-53830200D01*
X119205150Y-53830200D01*
X119229081Y-53831376D01*
X119229081Y-53831376D01*
G37*
D15*
X118961000Y-54356000D03*
D14*
G36*
X117654081Y-53831376D02*
G01*
X117677781Y-53834891D01*
X117701023Y-53840713D01*
X117723582Y-53848785D01*
X117745242Y-53859029D01*
X117765792Y-53871347D01*
X117785037Y-53885619D01*
X117802790Y-53901710D01*
X117818881Y-53919463D01*
X117833153Y-53938708D01*
X117845471Y-53959258D01*
X117855715Y-53980918D01*
X117863787Y-54003477D01*
X117869609Y-54026719D01*
X117873124Y-54050419D01*
X117874300Y-54074350D01*
X117874300Y-54637650D01*
X117873124Y-54661581D01*
X117869609Y-54685281D01*
X117863787Y-54708523D01*
X117855715Y-54731082D01*
X117845471Y-54752742D01*
X117833153Y-54773292D01*
X117818881Y-54792537D01*
X117802790Y-54810290D01*
X117785037Y-54826381D01*
X117765792Y-54840653D01*
X117745242Y-54852971D01*
X117723582Y-54863215D01*
X117701023Y-54871287D01*
X117677781Y-54877109D01*
X117654081Y-54880624D01*
X117630150Y-54881800D01*
X117141850Y-54881800D01*
X117117919Y-54880624D01*
X117094219Y-54877109D01*
X117070977Y-54871287D01*
X117048418Y-54863215D01*
X117026758Y-54852971D01*
X117006208Y-54840653D01*
X116986963Y-54826381D01*
X116969210Y-54810290D01*
X116953119Y-54792537D01*
X116938847Y-54773292D01*
X116926529Y-54752742D01*
X116916285Y-54731082D01*
X116908213Y-54708523D01*
X116902391Y-54685281D01*
X116898876Y-54661581D01*
X116897700Y-54637650D01*
X116897700Y-54074350D01*
X116898876Y-54050419D01*
X116902391Y-54026719D01*
X116908213Y-54003477D01*
X116916285Y-53980918D01*
X116926529Y-53959258D01*
X116938847Y-53938708D01*
X116953119Y-53919463D01*
X116969210Y-53901710D01*
X116986963Y-53885619D01*
X117006208Y-53871347D01*
X117026758Y-53859029D01*
X117048418Y-53848785D01*
X117070977Y-53840713D01*
X117094219Y-53834891D01*
X117117919Y-53831376D01*
X117141850Y-53830200D01*
X117630150Y-53830200D01*
X117654081Y-53831376D01*
X117654081Y-53831376D01*
G37*
D15*
X117386000Y-54356000D03*
D17*
X101219000Y-51816000D03*
X101219000Y-50516000D03*
D18*
X106893660Y-51144656D03*
D19*
X105893660Y-52844656D03*
X106393660Y-52844656D03*
X106893660Y-52844656D03*
X107393660Y-52844656D03*
X107893660Y-52844656D03*
D20*
X108593660Y-52144656D03*
X108593660Y-51644656D03*
X108593660Y-51144656D03*
X108593660Y-50644656D03*
X108593660Y-50144656D03*
D19*
X107893660Y-49444656D03*
X107393660Y-49444656D03*
X106893660Y-49444656D03*
X106393660Y-49444656D03*
X105893660Y-49444656D03*
D20*
X105193660Y-50144656D03*
X105193660Y-50644656D03*
X105193660Y-51144656D03*
X105193660Y-51644656D03*
X105193660Y-52144656D03*
D12*
X114109500Y-56749000D03*
D13*
X114109500Y-54849000D03*
D14*
G36*
X104179847Y-47064533D02*
G01*
X104196631Y-47067022D01*
X104213090Y-47071145D01*
X104229066Y-47076861D01*
X104244404Y-47084116D01*
X104258958Y-47092839D01*
X104272587Y-47102946D01*
X104285159Y-47114341D01*
X104296554Y-47126913D01*
X104306661Y-47140542D01*
X104315384Y-47155096D01*
X104322639Y-47170434D01*
X104328355Y-47186410D01*
X104332478Y-47202869D01*
X104334967Y-47219653D01*
X104335800Y-47236600D01*
X104335800Y-47632400D01*
X104334967Y-47649347D01*
X104332478Y-47666131D01*
X104328355Y-47682590D01*
X104322639Y-47698566D01*
X104315384Y-47713904D01*
X104306661Y-47728458D01*
X104296554Y-47742087D01*
X104285159Y-47754659D01*
X104272587Y-47766054D01*
X104258958Y-47776161D01*
X104244404Y-47784884D01*
X104229066Y-47792139D01*
X104213090Y-47797855D01*
X104196631Y-47801978D01*
X104179847Y-47804467D01*
X104162900Y-47805300D01*
X103817100Y-47805300D01*
X103800153Y-47804467D01*
X103783369Y-47801978D01*
X103766910Y-47797855D01*
X103750934Y-47792139D01*
X103735596Y-47784884D01*
X103721042Y-47776161D01*
X103707413Y-47766054D01*
X103694841Y-47754659D01*
X103683446Y-47742087D01*
X103673339Y-47728458D01*
X103664616Y-47713904D01*
X103657361Y-47698566D01*
X103651645Y-47682590D01*
X103647522Y-47666131D01*
X103645033Y-47649347D01*
X103644200Y-47632400D01*
X103644200Y-47236600D01*
X103645033Y-47219653D01*
X103647522Y-47202869D01*
X103651645Y-47186410D01*
X103657361Y-47170434D01*
X103664616Y-47155096D01*
X103673339Y-47140542D01*
X103683446Y-47126913D01*
X103694841Y-47114341D01*
X103707413Y-47102946D01*
X103721042Y-47092839D01*
X103735596Y-47084116D01*
X103750934Y-47076861D01*
X103766910Y-47071145D01*
X103783369Y-47067022D01*
X103800153Y-47064533D01*
X103817100Y-47063700D01*
X104162900Y-47063700D01*
X104179847Y-47064533D01*
X104179847Y-47064533D01*
G37*
D16*
X103990000Y-47434500D03*
D14*
G36*
X103209847Y-47064533D02*
G01*
X103226631Y-47067022D01*
X103243090Y-47071145D01*
X103259066Y-47076861D01*
X103274404Y-47084116D01*
X103288958Y-47092839D01*
X103302587Y-47102946D01*
X103315159Y-47114341D01*
X103326554Y-47126913D01*
X103336661Y-47140542D01*
X103345384Y-47155096D01*
X103352639Y-47170434D01*
X103358355Y-47186410D01*
X103362478Y-47202869D01*
X103364967Y-47219653D01*
X103365800Y-47236600D01*
X103365800Y-47632400D01*
X103364967Y-47649347D01*
X103362478Y-47666131D01*
X103358355Y-47682590D01*
X103352639Y-47698566D01*
X103345384Y-47713904D01*
X103336661Y-47728458D01*
X103326554Y-47742087D01*
X103315159Y-47754659D01*
X103302587Y-47766054D01*
X103288958Y-47776161D01*
X103274404Y-47784884D01*
X103259066Y-47792139D01*
X103243090Y-47797855D01*
X103226631Y-47801978D01*
X103209847Y-47804467D01*
X103192900Y-47805300D01*
X102847100Y-47805300D01*
X102830153Y-47804467D01*
X102813369Y-47801978D01*
X102796910Y-47797855D01*
X102780934Y-47792139D01*
X102765596Y-47784884D01*
X102751042Y-47776161D01*
X102737413Y-47766054D01*
X102724841Y-47754659D01*
X102713446Y-47742087D01*
X102703339Y-47728458D01*
X102694616Y-47713904D01*
X102687361Y-47698566D01*
X102681645Y-47682590D01*
X102677522Y-47666131D01*
X102675033Y-47649347D01*
X102674200Y-47632400D01*
X102674200Y-47236600D01*
X102675033Y-47219653D01*
X102677522Y-47202869D01*
X102681645Y-47186410D01*
X102687361Y-47170434D01*
X102694616Y-47155096D01*
X102703339Y-47140542D01*
X102713446Y-47126913D01*
X102724841Y-47114341D01*
X102737413Y-47102946D01*
X102751042Y-47092839D01*
X102765596Y-47084116D01*
X102780934Y-47076861D01*
X102796910Y-47071145D01*
X102813369Y-47067022D01*
X102830153Y-47064533D01*
X102847100Y-47063700D01*
X103192900Y-47063700D01*
X103209847Y-47064533D01*
X103209847Y-47064533D01*
G37*
D16*
X103020000Y-47434500D03*
D14*
G36*
X105497847Y-46160033D02*
G01*
X105514631Y-46162522D01*
X105531090Y-46166645D01*
X105547066Y-46172361D01*
X105562404Y-46179616D01*
X105576958Y-46188339D01*
X105590587Y-46198446D01*
X105603159Y-46209841D01*
X105614554Y-46222413D01*
X105624661Y-46236042D01*
X105633384Y-46250596D01*
X105640639Y-46265934D01*
X105646355Y-46281910D01*
X105650478Y-46298369D01*
X105652967Y-46315153D01*
X105653800Y-46332100D01*
X105653800Y-46677900D01*
X105652967Y-46694847D01*
X105650478Y-46711631D01*
X105646355Y-46728090D01*
X105640639Y-46744066D01*
X105633384Y-46759404D01*
X105624661Y-46773958D01*
X105614554Y-46787587D01*
X105603159Y-46800159D01*
X105590587Y-46811554D01*
X105576958Y-46821661D01*
X105562404Y-46830384D01*
X105547066Y-46837639D01*
X105531090Y-46843355D01*
X105514631Y-46847478D01*
X105497847Y-46849967D01*
X105480900Y-46850800D01*
X105085100Y-46850800D01*
X105068153Y-46849967D01*
X105051369Y-46847478D01*
X105034910Y-46843355D01*
X105018934Y-46837639D01*
X105003596Y-46830384D01*
X104989042Y-46821661D01*
X104975413Y-46811554D01*
X104962841Y-46800159D01*
X104951446Y-46787587D01*
X104941339Y-46773958D01*
X104932616Y-46759404D01*
X104925361Y-46744066D01*
X104919645Y-46728090D01*
X104915522Y-46711631D01*
X104913033Y-46694847D01*
X104912200Y-46677900D01*
X104912200Y-46332100D01*
X104913033Y-46315153D01*
X104915522Y-46298369D01*
X104919645Y-46281910D01*
X104925361Y-46265934D01*
X104932616Y-46250596D01*
X104941339Y-46236042D01*
X104951446Y-46222413D01*
X104962841Y-46209841D01*
X104975413Y-46198446D01*
X104989042Y-46188339D01*
X105003596Y-46179616D01*
X105018934Y-46172361D01*
X105034910Y-46166645D01*
X105051369Y-46162522D01*
X105068153Y-46160033D01*
X105085100Y-46159200D01*
X105480900Y-46159200D01*
X105497847Y-46160033D01*
X105497847Y-46160033D01*
G37*
D16*
X105283000Y-46505000D03*
D14*
G36*
X105497847Y-47130033D02*
G01*
X105514631Y-47132522D01*
X105531090Y-47136645D01*
X105547066Y-47142361D01*
X105562404Y-47149616D01*
X105576958Y-47158339D01*
X105590587Y-47168446D01*
X105603159Y-47179841D01*
X105614554Y-47192413D01*
X105624661Y-47206042D01*
X105633384Y-47220596D01*
X105640639Y-47235934D01*
X105646355Y-47251910D01*
X105650478Y-47268369D01*
X105652967Y-47285153D01*
X105653800Y-47302100D01*
X105653800Y-47647900D01*
X105652967Y-47664847D01*
X105650478Y-47681631D01*
X105646355Y-47698090D01*
X105640639Y-47714066D01*
X105633384Y-47729404D01*
X105624661Y-47743958D01*
X105614554Y-47757587D01*
X105603159Y-47770159D01*
X105590587Y-47781554D01*
X105576958Y-47791661D01*
X105562404Y-47800384D01*
X105547066Y-47807639D01*
X105531090Y-47813355D01*
X105514631Y-47817478D01*
X105497847Y-47819967D01*
X105480900Y-47820800D01*
X105085100Y-47820800D01*
X105068153Y-47819967D01*
X105051369Y-47817478D01*
X105034910Y-47813355D01*
X105018934Y-47807639D01*
X105003596Y-47800384D01*
X104989042Y-47791661D01*
X104975413Y-47781554D01*
X104962841Y-47770159D01*
X104951446Y-47757587D01*
X104941339Y-47743958D01*
X104932616Y-47729404D01*
X104925361Y-47714066D01*
X104919645Y-47698090D01*
X104915522Y-47681631D01*
X104913033Y-47664847D01*
X104912200Y-47647900D01*
X104912200Y-47302100D01*
X104913033Y-47285153D01*
X104915522Y-47268369D01*
X104919645Y-47251910D01*
X104925361Y-47235934D01*
X104932616Y-47220596D01*
X104941339Y-47206042D01*
X104951446Y-47192413D01*
X104962841Y-47179841D01*
X104975413Y-47168446D01*
X104989042Y-47158339D01*
X105003596Y-47149616D01*
X105018934Y-47142361D01*
X105034910Y-47136645D01*
X105051369Y-47132522D01*
X105068153Y-47130033D01*
X105085100Y-47129200D01*
X105480900Y-47129200D01*
X105497847Y-47130033D01*
X105497847Y-47130033D01*
G37*
D16*
X105283000Y-47475000D03*
D14*
G36*
X103717847Y-58939033D02*
G01*
X103734631Y-58941522D01*
X103751090Y-58945645D01*
X103767066Y-58951361D01*
X103782404Y-58958616D01*
X103796958Y-58967339D01*
X103810587Y-58977446D01*
X103823159Y-58988841D01*
X103834554Y-59001413D01*
X103844661Y-59015042D01*
X103853384Y-59029596D01*
X103860639Y-59044934D01*
X103866355Y-59060910D01*
X103870478Y-59077369D01*
X103872967Y-59094153D01*
X103873800Y-59111100D01*
X103873800Y-59506900D01*
X103872967Y-59523847D01*
X103870478Y-59540631D01*
X103866355Y-59557090D01*
X103860639Y-59573066D01*
X103853384Y-59588404D01*
X103844661Y-59602958D01*
X103834554Y-59616587D01*
X103823159Y-59629159D01*
X103810587Y-59640554D01*
X103796958Y-59650661D01*
X103782404Y-59659384D01*
X103767066Y-59666639D01*
X103751090Y-59672355D01*
X103734631Y-59676478D01*
X103717847Y-59678967D01*
X103700900Y-59679800D01*
X103355100Y-59679800D01*
X103338153Y-59678967D01*
X103321369Y-59676478D01*
X103304910Y-59672355D01*
X103288934Y-59666639D01*
X103273596Y-59659384D01*
X103259042Y-59650661D01*
X103245413Y-59640554D01*
X103232841Y-59629159D01*
X103221446Y-59616587D01*
X103211339Y-59602958D01*
X103202616Y-59588404D01*
X103195361Y-59573066D01*
X103189645Y-59557090D01*
X103185522Y-59540631D01*
X103183033Y-59523847D01*
X103182200Y-59506900D01*
X103182200Y-59111100D01*
X103183033Y-59094153D01*
X103185522Y-59077369D01*
X103189645Y-59060910D01*
X103195361Y-59044934D01*
X103202616Y-59029596D01*
X103211339Y-59015042D01*
X103221446Y-59001413D01*
X103232841Y-58988841D01*
X103245413Y-58977446D01*
X103259042Y-58967339D01*
X103273596Y-58958616D01*
X103288934Y-58951361D01*
X103304910Y-58945645D01*
X103321369Y-58941522D01*
X103338153Y-58939033D01*
X103355100Y-58938200D01*
X103700900Y-58938200D01*
X103717847Y-58939033D01*
X103717847Y-58939033D01*
G37*
D16*
X103528000Y-59309000D03*
D14*
G36*
X104687847Y-58939033D02*
G01*
X104704631Y-58941522D01*
X104721090Y-58945645D01*
X104737066Y-58951361D01*
X104752404Y-58958616D01*
X104766958Y-58967339D01*
X104780587Y-58977446D01*
X104793159Y-58988841D01*
X104804554Y-59001413D01*
X104814661Y-59015042D01*
X104823384Y-59029596D01*
X104830639Y-59044934D01*
X104836355Y-59060910D01*
X104840478Y-59077369D01*
X104842967Y-59094153D01*
X104843800Y-59111100D01*
X104843800Y-59506900D01*
X104842967Y-59523847D01*
X104840478Y-59540631D01*
X104836355Y-59557090D01*
X104830639Y-59573066D01*
X104823384Y-59588404D01*
X104814661Y-59602958D01*
X104804554Y-59616587D01*
X104793159Y-59629159D01*
X104780587Y-59640554D01*
X104766958Y-59650661D01*
X104752404Y-59659384D01*
X104737066Y-59666639D01*
X104721090Y-59672355D01*
X104704631Y-59676478D01*
X104687847Y-59678967D01*
X104670900Y-59679800D01*
X104325100Y-59679800D01*
X104308153Y-59678967D01*
X104291369Y-59676478D01*
X104274910Y-59672355D01*
X104258934Y-59666639D01*
X104243596Y-59659384D01*
X104229042Y-59650661D01*
X104215413Y-59640554D01*
X104202841Y-59629159D01*
X104191446Y-59616587D01*
X104181339Y-59602958D01*
X104172616Y-59588404D01*
X104165361Y-59573066D01*
X104159645Y-59557090D01*
X104155522Y-59540631D01*
X104153033Y-59523847D01*
X104152200Y-59506900D01*
X104152200Y-59111100D01*
X104153033Y-59094153D01*
X104155522Y-59077369D01*
X104159645Y-59060910D01*
X104165361Y-59044934D01*
X104172616Y-59029596D01*
X104181339Y-59015042D01*
X104191446Y-59001413D01*
X104202841Y-58988841D01*
X104215413Y-58977446D01*
X104229042Y-58967339D01*
X104243596Y-58958616D01*
X104258934Y-58951361D01*
X104274910Y-58945645D01*
X104291369Y-58941522D01*
X104308153Y-58939033D01*
X104325100Y-58938200D01*
X104670900Y-58938200D01*
X104687847Y-58939033D01*
X104687847Y-58939033D01*
G37*
D16*
X104498000Y-59309000D03*
D14*
G36*
X107588507Y-55446533D02*
G01*
X107605291Y-55449022D01*
X107621750Y-55453145D01*
X107637726Y-55458861D01*
X107653064Y-55466116D01*
X107667618Y-55474839D01*
X107681247Y-55484946D01*
X107693819Y-55496341D01*
X107705214Y-55508913D01*
X107715321Y-55522542D01*
X107724044Y-55537096D01*
X107731299Y-55552434D01*
X107737015Y-55568410D01*
X107741138Y-55584869D01*
X107743627Y-55601653D01*
X107744460Y-55618600D01*
X107744460Y-56014400D01*
X107743627Y-56031347D01*
X107741138Y-56048131D01*
X107737015Y-56064590D01*
X107731299Y-56080566D01*
X107724044Y-56095904D01*
X107715321Y-56110458D01*
X107705214Y-56124087D01*
X107693819Y-56136659D01*
X107681247Y-56148054D01*
X107667618Y-56158161D01*
X107653064Y-56166884D01*
X107637726Y-56174139D01*
X107621750Y-56179855D01*
X107605291Y-56183978D01*
X107588507Y-56186467D01*
X107571560Y-56187300D01*
X107225760Y-56187300D01*
X107208813Y-56186467D01*
X107192029Y-56183978D01*
X107175570Y-56179855D01*
X107159594Y-56174139D01*
X107144256Y-56166884D01*
X107129702Y-56158161D01*
X107116073Y-56148054D01*
X107103501Y-56136659D01*
X107092106Y-56124087D01*
X107081999Y-56110458D01*
X107073276Y-56095904D01*
X107066021Y-56080566D01*
X107060305Y-56064590D01*
X107056182Y-56048131D01*
X107053693Y-56031347D01*
X107052860Y-56014400D01*
X107052860Y-55618600D01*
X107053693Y-55601653D01*
X107056182Y-55584869D01*
X107060305Y-55568410D01*
X107066021Y-55552434D01*
X107073276Y-55537096D01*
X107081999Y-55522542D01*
X107092106Y-55508913D01*
X107103501Y-55496341D01*
X107116073Y-55484946D01*
X107129702Y-55474839D01*
X107144256Y-55466116D01*
X107159594Y-55458861D01*
X107175570Y-55453145D01*
X107192029Y-55449022D01*
X107208813Y-55446533D01*
X107225760Y-55445700D01*
X107571560Y-55445700D01*
X107588507Y-55446533D01*
X107588507Y-55446533D01*
G37*
D16*
X107398660Y-55816500D03*
D14*
G36*
X106618507Y-55446533D02*
G01*
X106635291Y-55449022D01*
X106651750Y-55453145D01*
X106667726Y-55458861D01*
X106683064Y-55466116D01*
X106697618Y-55474839D01*
X106711247Y-55484946D01*
X106723819Y-55496341D01*
X106735214Y-55508913D01*
X106745321Y-55522542D01*
X106754044Y-55537096D01*
X106761299Y-55552434D01*
X106767015Y-55568410D01*
X106771138Y-55584869D01*
X106773627Y-55601653D01*
X106774460Y-55618600D01*
X106774460Y-56014400D01*
X106773627Y-56031347D01*
X106771138Y-56048131D01*
X106767015Y-56064590D01*
X106761299Y-56080566D01*
X106754044Y-56095904D01*
X106745321Y-56110458D01*
X106735214Y-56124087D01*
X106723819Y-56136659D01*
X106711247Y-56148054D01*
X106697618Y-56158161D01*
X106683064Y-56166884D01*
X106667726Y-56174139D01*
X106651750Y-56179855D01*
X106635291Y-56183978D01*
X106618507Y-56186467D01*
X106601560Y-56187300D01*
X106255760Y-56187300D01*
X106238813Y-56186467D01*
X106222029Y-56183978D01*
X106205570Y-56179855D01*
X106189594Y-56174139D01*
X106174256Y-56166884D01*
X106159702Y-56158161D01*
X106146073Y-56148054D01*
X106133501Y-56136659D01*
X106122106Y-56124087D01*
X106111999Y-56110458D01*
X106103276Y-56095904D01*
X106096021Y-56080566D01*
X106090305Y-56064590D01*
X106086182Y-56048131D01*
X106083693Y-56031347D01*
X106082860Y-56014400D01*
X106082860Y-55618600D01*
X106083693Y-55601653D01*
X106086182Y-55584869D01*
X106090305Y-55568410D01*
X106096021Y-55552434D01*
X106103276Y-55537096D01*
X106111999Y-55522542D01*
X106122106Y-55508913D01*
X106133501Y-55496341D01*
X106146073Y-55484946D01*
X106159702Y-55474839D01*
X106174256Y-55466116D01*
X106189594Y-55458861D01*
X106205570Y-55453145D01*
X106222029Y-55449022D01*
X106238813Y-55446533D01*
X106255760Y-55445700D01*
X106601560Y-55445700D01*
X106618507Y-55446533D01*
X106618507Y-55446533D01*
G37*
D16*
X106428660Y-55816500D03*
D21*
X120105000Y-51906000D03*
X120105000Y-44106000D03*
D22*
X116205000Y-50256000D03*
X116205000Y-49756000D03*
X116205000Y-49256000D03*
X116205000Y-48756000D03*
X116205000Y-48256000D03*
X116205000Y-47756000D03*
X116205000Y-47256000D03*
X116205000Y-46756000D03*
X116205000Y-46256000D03*
X116205000Y-45756000D03*
D14*
G36*
X119102081Y-56244376D02*
G01*
X119125781Y-56247891D01*
X119149023Y-56253713D01*
X119171582Y-56261785D01*
X119193242Y-56272029D01*
X119213792Y-56284347D01*
X119233037Y-56298619D01*
X119250790Y-56314710D01*
X119266881Y-56332463D01*
X119281153Y-56351708D01*
X119293471Y-56372258D01*
X119303715Y-56393918D01*
X119311787Y-56416477D01*
X119317609Y-56439719D01*
X119321124Y-56463419D01*
X119322300Y-56487350D01*
X119322300Y-57050650D01*
X119321124Y-57074581D01*
X119317609Y-57098281D01*
X119311787Y-57121523D01*
X119303715Y-57144082D01*
X119293471Y-57165742D01*
X119281153Y-57186292D01*
X119266881Y-57205537D01*
X119250790Y-57223290D01*
X119233037Y-57239381D01*
X119213792Y-57253653D01*
X119193242Y-57265971D01*
X119171582Y-57276215D01*
X119149023Y-57284287D01*
X119125781Y-57290109D01*
X119102081Y-57293624D01*
X119078150Y-57294800D01*
X118589850Y-57294800D01*
X118565919Y-57293624D01*
X118542219Y-57290109D01*
X118518977Y-57284287D01*
X118496418Y-57276215D01*
X118474758Y-57265971D01*
X118454208Y-57253653D01*
X118434963Y-57239381D01*
X118417210Y-57223290D01*
X118401119Y-57205537D01*
X118386847Y-57186292D01*
X118374529Y-57165742D01*
X118364285Y-57144082D01*
X118356213Y-57121523D01*
X118350391Y-57098281D01*
X118346876Y-57074581D01*
X118345700Y-57050650D01*
X118345700Y-56487350D01*
X118346876Y-56463419D01*
X118350391Y-56439719D01*
X118356213Y-56416477D01*
X118364285Y-56393918D01*
X118374529Y-56372258D01*
X118386847Y-56351708D01*
X118401119Y-56332463D01*
X118417210Y-56314710D01*
X118434963Y-56298619D01*
X118454208Y-56284347D01*
X118474758Y-56272029D01*
X118496418Y-56261785D01*
X118518977Y-56253713D01*
X118542219Y-56247891D01*
X118565919Y-56244376D01*
X118589850Y-56243200D01*
X119078150Y-56243200D01*
X119102081Y-56244376D01*
X119102081Y-56244376D01*
G37*
D15*
X118834000Y-56769000D03*
D14*
G36*
X117527081Y-56244376D02*
G01*
X117550781Y-56247891D01*
X117574023Y-56253713D01*
X117596582Y-56261785D01*
X117618242Y-56272029D01*
X117638792Y-56284347D01*
X117658037Y-56298619D01*
X117675790Y-56314710D01*
X117691881Y-56332463D01*
X117706153Y-56351708D01*
X117718471Y-56372258D01*
X117728715Y-56393918D01*
X117736787Y-56416477D01*
X117742609Y-56439719D01*
X117746124Y-56463419D01*
X117747300Y-56487350D01*
X117747300Y-57050650D01*
X117746124Y-57074581D01*
X117742609Y-57098281D01*
X117736787Y-57121523D01*
X117728715Y-57144082D01*
X117718471Y-57165742D01*
X117706153Y-57186292D01*
X117691881Y-57205537D01*
X117675790Y-57223290D01*
X117658037Y-57239381D01*
X117638792Y-57253653D01*
X117618242Y-57265971D01*
X117596582Y-57276215D01*
X117574023Y-57284287D01*
X117550781Y-57290109D01*
X117527081Y-57293624D01*
X117503150Y-57294800D01*
X117014850Y-57294800D01*
X116990919Y-57293624D01*
X116967219Y-57290109D01*
X116943977Y-57284287D01*
X116921418Y-57276215D01*
X116899758Y-57265971D01*
X116879208Y-57253653D01*
X116859963Y-57239381D01*
X116842210Y-57223290D01*
X116826119Y-57205537D01*
X116811847Y-57186292D01*
X116799529Y-57165742D01*
X116789285Y-57144082D01*
X116781213Y-57121523D01*
X116775391Y-57098281D01*
X116771876Y-57074581D01*
X116770700Y-57050650D01*
X116770700Y-56487350D01*
X116771876Y-56463419D01*
X116775391Y-56439719D01*
X116781213Y-56416477D01*
X116789285Y-56393918D01*
X116799529Y-56372258D01*
X116811847Y-56351708D01*
X116826119Y-56332463D01*
X116842210Y-56314710D01*
X116859963Y-56298619D01*
X116879208Y-56284347D01*
X116899758Y-56272029D01*
X116921418Y-56261785D01*
X116943977Y-56253713D01*
X116967219Y-56247891D01*
X116990919Y-56244376D01*
X117014850Y-56243200D01*
X117503150Y-56243200D01*
X117527081Y-56244376D01*
X117527081Y-56244376D01*
G37*
D15*
X117259000Y-56769000D03*
D14*
G36*
X115975347Y-53081533D02*
G01*
X115992131Y-53084022D01*
X116008590Y-53088145D01*
X116024566Y-53093861D01*
X116039904Y-53101116D01*
X116054458Y-53109839D01*
X116068087Y-53119946D01*
X116080659Y-53131341D01*
X116092054Y-53143913D01*
X116102161Y-53157542D01*
X116110884Y-53172096D01*
X116118139Y-53187434D01*
X116123855Y-53203410D01*
X116127978Y-53219869D01*
X116130467Y-53236653D01*
X116131300Y-53253600D01*
X116131300Y-53599400D01*
X116130467Y-53616347D01*
X116127978Y-53633131D01*
X116123855Y-53649590D01*
X116118139Y-53665566D01*
X116110884Y-53680904D01*
X116102161Y-53695458D01*
X116092054Y-53709087D01*
X116080659Y-53721659D01*
X116068087Y-53733054D01*
X116054458Y-53743161D01*
X116039904Y-53751884D01*
X116024566Y-53759139D01*
X116008590Y-53764855D01*
X115992131Y-53768978D01*
X115975347Y-53771467D01*
X115958400Y-53772300D01*
X115562600Y-53772300D01*
X115545653Y-53771467D01*
X115528869Y-53768978D01*
X115512410Y-53764855D01*
X115496434Y-53759139D01*
X115481096Y-53751884D01*
X115466542Y-53743161D01*
X115452913Y-53733054D01*
X115440341Y-53721659D01*
X115428946Y-53709087D01*
X115418839Y-53695458D01*
X115410116Y-53680904D01*
X115402861Y-53665566D01*
X115397145Y-53649590D01*
X115393022Y-53633131D01*
X115390533Y-53616347D01*
X115389700Y-53599400D01*
X115389700Y-53253600D01*
X115390533Y-53236653D01*
X115393022Y-53219869D01*
X115397145Y-53203410D01*
X115402861Y-53187434D01*
X115410116Y-53172096D01*
X115418839Y-53157542D01*
X115428946Y-53143913D01*
X115440341Y-53131341D01*
X115452913Y-53119946D01*
X115466542Y-53109839D01*
X115481096Y-53101116D01*
X115496434Y-53093861D01*
X115512410Y-53088145D01*
X115528869Y-53084022D01*
X115545653Y-53081533D01*
X115562600Y-53080700D01*
X115958400Y-53080700D01*
X115975347Y-53081533D01*
X115975347Y-53081533D01*
G37*
D16*
X115760500Y-53426500D03*
D14*
G36*
X115975347Y-54051533D02*
G01*
X115992131Y-54054022D01*
X116008590Y-54058145D01*
X116024566Y-54063861D01*
X116039904Y-54071116D01*
X116054458Y-54079839D01*
X116068087Y-54089946D01*
X116080659Y-54101341D01*
X116092054Y-54113913D01*
X116102161Y-54127542D01*
X116110884Y-54142096D01*
X116118139Y-54157434D01*
X116123855Y-54173410D01*
X116127978Y-54189869D01*
X116130467Y-54206653D01*
X116131300Y-54223600D01*
X116131300Y-54569400D01*
X116130467Y-54586347D01*
X116127978Y-54603131D01*
X116123855Y-54619590D01*
X116118139Y-54635566D01*
X116110884Y-54650904D01*
X116102161Y-54665458D01*
X116092054Y-54679087D01*
X116080659Y-54691659D01*
X116068087Y-54703054D01*
X116054458Y-54713161D01*
X116039904Y-54721884D01*
X116024566Y-54729139D01*
X116008590Y-54734855D01*
X115992131Y-54738978D01*
X115975347Y-54741467D01*
X115958400Y-54742300D01*
X115562600Y-54742300D01*
X115545653Y-54741467D01*
X115528869Y-54738978D01*
X115512410Y-54734855D01*
X115496434Y-54729139D01*
X115481096Y-54721884D01*
X115466542Y-54713161D01*
X115452913Y-54703054D01*
X115440341Y-54691659D01*
X115428946Y-54679087D01*
X115418839Y-54665458D01*
X115410116Y-54650904D01*
X115402861Y-54635566D01*
X115397145Y-54619590D01*
X115393022Y-54603131D01*
X115390533Y-54586347D01*
X115389700Y-54569400D01*
X115389700Y-54223600D01*
X115390533Y-54206653D01*
X115393022Y-54189869D01*
X115397145Y-54173410D01*
X115402861Y-54157434D01*
X115410116Y-54142096D01*
X115418839Y-54127542D01*
X115428946Y-54113913D01*
X115440341Y-54101341D01*
X115452913Y-54089946D01*
X115466542Y-54079839D01*
X115481096Y-54071116D01*
X115496434Y-54063861D01*
X115512410Y-54058145D01*
X115528869Y-54054022D01*
X115545653Y-54051533D01*
X115562600Y-54050700D01*
X115958400Y-54050700D01*
X115975347Y-54051533D01*
X115975347Y-54051533D01*
G37*
D16*
X115760500Y-54396500D03*
D14*
G36*
X106767847Y-47130033D02*
G01*
X106784631Y-47132522D01*
X106801090Y-47136645D01*
X106817066Y-47142361D01*
X106832404Y-47149616D01*
X106846958Y-47158339D01*
X106860587Y-47168446D01*
X106873159Y-47179841D01*
X106884554Y-47192413D01*
X106894661Y-47206042D01*
X106903384Y-47220596D01*
X106910639Y-47235934D01*
X106916355Y-47251910D01*
X106920478Y-47268369D01*
X106922967Y-47285153D01*
X106923800Y-47302100D01*
X106923800Y-47647900D01*
X106922967Y-47664847D01*
X106920478Y-47681631D01*
X106916355Y-47698090D01*
X106910639Y-47714066D01*
X106903384Y-47729404D01*
X106894661Y-47743958D01*
X106884554Y-47757587D01*
X106873159Y-47770159D01*
X106860587Y-47781554D01*
X106846958Y-47791661D01*
X106832404Y-47800384D01*
X106817066Y-47807639D01*
X106801090Y-47813355D01*
X106784631Y-47817478D01*
X106767847Y-47819967D01*
X106750900Y-47820800D01*
X106355100Y-47820800D01*
X106338153Y-47819967D01*
X106321369Y-47817478D01*
X106304910Y-47813355D01*
X106288934Y-47807639D01*
X106273596Y-47800384D01*
X106259042Y-47791661D01*
X106245413Y-47781554D01*
X106232841Y-47770159D01*
X106221446Y-47757587D01*
X106211339Y-47743958D01*
X106202616Y-47729404D01*
X106195361Y-47714066D01*
X106189645Y-47698090D01*
X106185522Y-47681631D01*
X106183033Y-47664847D01*
X106182200Y-47647900D01*
X106182200Y-47302100D01*
X106183033Y-47285153D01*
X106185522Y-47268369D01*
X106189645Y-47251910D01*
X106195361Y-47235934D01*
X106202616Y-47220596D01*
X106211339Y-47206042D01*
X106221446Y-47192413D01*
X106232841Y-47179841D01*
X106245413Y-47168446D01*
X106259042Y-47158339D01*
X106273596Y-47149616D01*
X106288934Y-47142361D01*
X106304910Y-47136645D01*
X106321369Y-47132522D01*
X106338153Y-47130033D01*
X106355100Y-47129200D01*
X106750900Y-47129200D01*
X106767847Y-47130033D01*
X106767847Y-47130033D01*
G37*
D16*
X106553000Y-47475000D03*
D14*
G36*
X106767847Y-46160033D02*
G01*
X106784631Y-46162522D01*
X106801090Y-46166645D01*
X106817066Y-46172361D01*
X106832404Y-46179616D01*
X106846958Y-46188339D01*
X106860587Y-46198446D01*
X106873159Y-46209841D01*
X106884554Y-46222413D01*
X106894661Y-46236042D01*
X106903384Y-46250596D01*
X106910639Y-46265934D01*
X106916355Y-46281910D01*
X106920478Y-46298369D01*
X106922967Y-46315153D01*
X106923800Y-46332100D01*
X106923800Y-46677900D01*
X106922967Y-46694847D01*
X106920478Y-46711631D01*
X106916355Y-46728090D01*
X106910639Y-46744066D01*
X106903384Y-46759404D01*
X106894661Y-46773958D01*
X106884554Y-46787587D01*
X106873159Y-46800159D01*
X106860587Y-46811554D01*
X106846958Y-46821661D01*
X106832404Y-46830384D01*
X106817066Y-46837639D01*
X106801090Y-46843355D01*
X106784631Y-46847478D01*
X106767847Y-46849967D01*
X106750900Y-46850800D01*
X106355100Y-46850800D01*
X106338153Y-46849967D01*
X106321369Y-46847478D01*
X106304910Y-46843355D01*
X106288934Y-46837639D01*
X106273596Y-46830384D01*
X106259042Y-46821661D01*
X106245413Y-46811554D01*
X106232841Y-46800159D01*
X106221446Y-46787587D01*
X106211339Y-46773958D01*
X106202616Y-46759404D01*
X106195361Y-46744066D01*
X106189645Y-46728090D01*
X106185522Y-46711631D01*
X106183033Y-46694847D01*
X106182200Y-46677900D01*
X106182200Y-46332100D01*
X106183033Y-46315153D01*
X106185522Y-46298369D01*
X106189645Y-46281910D01*
X106195361Y-46265934D01*
X106202616Y-46250596D01*
X106211339Y-46236042D01*
X106221446Y-46222413D01*
X106232841Y-46209841D01*
X106245413Y-46198446D01*
X106259042Y-46188339D01*
X106273596Y-46179616D01*
X106288934Y-46172361D01*
X106304910Y-46166645D01*
X106321369Y-46162522D01*
X106338153Y-46160033D01*
X106355100Y-46159200D01*
X106750900Y-46159200D01*
X106767847Y-46160033D01*
X106767847Y-46160033D01*
G37*
D16*
X106553000Y-46505000D03*
D14*
G36*
X110131347Y-49604533D02*
G01*
X110148131Y-49607022D01*
X110164590Y-49611145D01*
X110180566Y-49616861D01*
X110195904Y-49624116D01*
X110210458Y-49632839D01*
X110224087Y-49642946D01*
X110236659Y-49654341D01*
X110248054Y-49666913D01*
X110258161Y-49680542D01*
X110266884Y-49695096D01*
X110274139Y-49710434D01*
X110279855Y-49726410D01*
X110283978Y-49742869D01*
X110286467Y-49759653D01*
X110287300Y-49776600D01*
X110287300Y-50172400D01*
X110286467Y-50189347D01*
X110283978Y-50206131D01*
X110279855Y-50222590D01*
X110274139Y-50238566D01*
X110266884Y-50253904D01*
X110258161Y-50268458D01*
X110248054Y-50282087D01*
X110236659Y-50294659D01*
X110224087Y-50306054D01*
X110210458Y-50316161D01*
X110195904Y-50324884D01*
X110180566Y-50332139D01*
X110164590Y-50337855D01*
X110148131Y-50341978D01*
X110131347Y-50344467D01*
X110114400Y-50345300D01*
X109768600Y-50345300D01*
X109751653Y-50344467D01*
X109734869Y-50341978D01*
X109718410Y-50337855D01*
X109702434Y-50332139D01*
X109687096Y-50324884D01*
X109672542Y-50316161D01*
X109658913Y-50306054D01*
X109646341Y-50294659D01*
X109634946Y-50282087D01*
X109624839Y-50268458D01*
X109616116Y-50253904D01*
X109608861Y-50238566D01*
X109603145Y-50222590D01*
X109599022Y-50206131D01*
X109596533Y-50189347D01*
X109595700Y-50172400D01*
X109595700Y-49776600D01*
X109596533Y-49759653D01*
X109599022Y-49742869D01*
X109603145Y-49726410D01*
X109608861Y-49710434D01*
X109616116Y-49695096D01*
X109624839Y-49680542D01*
X109634946Y-49666913D01*
X109646341Y-49654341D01*
X109658913Y-49642946D01*
X109672542Y-49632839D01*
X109687096Y-49624116D01*
X109702434Y-49616861D01*
X109718410Y-49611145D01*
X109734869Y-49607022D01*
X109751653Y-49604533D01*
X109768600Y-49603700D01*
X110114400Y-49603700D01*
X110131347Y-49604533D01*
X110131347Y-49604533D01*
G37*
D16*
X109941500Y-49974500D03*
D14*
G36*
X111101347Y-49604533D02*
G01*
X111118131Y-49607022D01*
X111134590Y-49611145D01*
X111150566Y-49616861D01*
X111165904Y-49624116D01*
X111180458Y-49632839D01*
X111194087Y-49642946D01*
X111206659Y-49654341D01*
X111218054Y-49666913D01*
X111228161Y-49680542D01*
X111236884Y-49695096D01*
X111244139Y-49710434D01*
X111249855Y-49726410D01*
X111253978Y-49742869D01*
X111256467Y-49759653D01*
X111257300Y-49776600D01*
X111257300Y-50172400D01*
X111256467Y-50189347D01*
X111253978Y-50206131D01*
X111249855Y-50222590D01*
X111244139Y-50238566D01*
X111236884Y-50253904D01*
X111228161Y-50268458D01*
X111218054Y-50282087D01*
X111206659Y-50294659D01*
X111194087Y-50306054D01*
X111180458Y-50316161D01*
X111165904Y-50324884D01*
X111150566Y-50332139D01*
X111134590Y-50337855D01*
X111118131Y-50341978D01*
X111101347Y-50344467D01*
X111084400Y-50345300D01*
X110738600Y-50345300D01*
X110721653Y-50344467D01*
X110704869Y-50341978D01*
X110688410Y-50337855D01*
X110672434Y-50332139D01*
X110657096Y-50324884D01*
X110642542Y-50316161D01*
X110628913Y-50306054D01*
X110616341Y-50294659D01*
X110604946Y-50282087D01*
X110594839Y-50268458D01*
X110586116Y-50253904D01*
X110578861Y-50238566D01*
X110573145Y-50222590D01*
X110569022Y-50206131D01*
X110566533Y-50189347D01*
X110565700Y-50172400D01*
X110565700Y-49776600D01*
X110566533Y-49759653D01*
X110569022Y-49742869D01*
X110573145Y-49726410D01*
X110578861Y-49710434D01*
X110586116Y-49695096D01*
X110594839Y-49680542D01*
X110604946Y-49666913D01*
X110616341Y-49654341D01*
X110628913Y-49642946D01*
X110642542Y-49632839D01*
X110657096Y-49624116D01*
X110672434Y-49616861D01*
X110688410Y-49611145D01*
X110704869Y-49607022D01*
X110721653Y-49604533D01*
X110738600Y-49603700D01*
X111084400Y-49603700D01*
X111101347Y-49604533D01*
X111101347Y-49604533D01*
G37*
D16*
X110911500Y-49974500D03*
D14*
G36*
X110131347Y-47064533D02*
G01*
X110148131Y-47067022D01*
X110164590Y-47071145D01*
X110180566Y-47076861D01*
X110195904Y-47084116D01*
X110210458Y-47092839D01*
X110224087Y-47102946D01*
X110236659Y-47114341D01*
X110248054Y-47126913D01*
X110258161Y-47140542D01*
X110266884Y-47155096D01*
X110274139Y-47170434D01*
X110279855Y-47186410D01*
X110283978Y-47202869D01*
X110286467Y-47219653D01*
X110287300Y-47236600D01*
X110287300Y-47632400D01*
X110286467Y-47649347D01*
X110283978Y-47666131D01*
X110279855Y-47682590D01*
X110274139Y-47698566D01*
X110266884Y-47713904D01*
X110258161Y-47728458D01*
X110248054Y-47742087D01*
X110236659Y-47754659D01*
X110224087Y-47766054D01*
X110210458Y-47776161D01*
X110195904Y-47784884D01*
X110180566Y-47792139D01*
X110164590Y-47797855D01*
X110148131Y-47801978D01*
X110131347Y-47804467D01*
X110114400Y-47805300D01*
X109768600Y-47805300D01*
X109751653Y-47804467D01*
X109734869Y-47801978D01*
X109718410Y-47797855D01*
X109702434Y-47792139D01*
X109687096Y-47784884D01*
X109672542Y-47776161D01*
X109658913Y-47766054D01*
X109646341Y-47754659D01*
X109634946Y-47742087D01*
X109624839Y-47728458D01*
X109616116Y-47713904D01*
X109608861Y-47698566D01*
X109603145Y-47682590D01*
X109599022Y-47666131D01*
X109596533Y-47649347D01*
X109595700Y-47632400D01*
X109595700Y-47236600D01*
X109596533Y-47219653D01*
X109599022Y-47202869D01*
X109603145Y-47186410D01*
X109608861Y-47170434D01*
X109616116Y-47155096D01*
X109624839Y-47140542D01*
X109634946Y-47126913D01*
X109646341Y-47114341D01*
X109658913Y-47102946D01*
X109672542Y-47092839D01*
X109687096Y-47084116D01*
X109702434Y-47076861D01*
X109718410Y-47071145D01*
X109734869Y-47067022D01*
X109751653Y-47064533D01*
X109768600Y-47063700D01*
X110114400Y-47063700D01*
X110131347Y-47064533D01*
X110131347Y-47064533D01*
G37*
D16*
X109941500Y-47434500D03*
D14*
G36*
X111101347Y-47064533D02*
G01*
X111118131Y-47067022D01*
X111134590Y-47071145D01*
X111150566Y-47076861D01*
X111165904Y-47084116D01*
X111180458Y-47092839D01*
X111194087Y-47102946D01*
X111206659Y-47114341D01*
X111218054Y-47126913D01*
X111228161Y-47140542D01*
X111236884Y-47155096D01*
X111244139Y-47170434D01*
X111249855Y-47186410D01*
X111253978Y-47202869D01*
X111256467Y-47219653D01*
X111257300Y-47236600D01*
X111257300Y-47632400D01*
X111256467Y-47649347D01*
X111253978Y-47666131D01*
X111249855Y-47682590D01*
X111244139Y-47698566D01*
X111236884Y-47713904D01*
X111228161Y-47728458D01*
X111218054Y-47742087D01*
X111206659Y-47754659D01*
X111194087Y-47766054D01*
X111180458Y-47776161D01*
X111165904Y-47784884D01*
X111150566Y-47792139D01*
X111134590Y-47797855D01*
X111118131Y-47801978D01*
X111101347Y-47804467D01*
X111084400Y-47805300D01*
X110738600Y-47805300D01*
X110721653Y-47804467D01*
X110704869Y-47801978D01*
X110688410Y-47797855D01*
X110672434Y-47792139D01*
X110657096Y-47784884D01*
X110642542Y-47776161D01*
X110628913Y-47766054D01*
X110616341Y-47754659D01*
X110604946Y-47742087D01*
X110594839Y-47728458D01*
X110586116Y-47713904D01*
X110578861Y-47698566D01*
X110573145Y-47682590D01*
X110569022Y-47666131D01*
X110566533Y-47649347D01*
X110565700Y-47632400D01*
X110565700Y-47236600D01*
X110566533Y-47219653D01*
X110569022Y-47202869D01*
X110573145Y-47186410D01*
X110578861Y-47170434D01*
X110586116Y-47155096D01*
X110594839Y-47140542D01*
X110604946Y-47126913D01*
X110616341Y-47114341D01*
X110628913Y-47102946D01*
X110642542Y-47092839D01*
X110657096Y-47084116D01*
X110672434Y-47076861D01*
X110688410Y-47071145D01*
X110704869Y-47067022D01*
X110721653Y-47064533D01*
X110738600Y-47063700D01*
X111084400Y-47063700D01*
X111101347Y-47064533D01*
X111101347Y-47064533D01*
G37*
D16*
X110911500Y-47434500D03*
D14*
G36*
X110131347Y-48334533D02*
G01*
X110148131Y-48337022D01*
X110164590Y-48341145D01*
X110180566Y-48346861D01*
X110195904Y-48354116D01*
X110210458Y-48362839D01*
X110224087Y-48372946D01*
X110236659Y-48384341D01*
X110248054Y-48396913D01*
X110258161Y-48410542D01*
X110266884Y-48425096D01*
X110274139Y-48440434D01*
X110279855Y-48456410D01*
X110283978Y-48472869D01*
X110286467Y-48489653D01*
X110287300Y-48506600D01*
X110287300Y-48902400D01*
X110286467Y-48919347D01*
X110283978Y-48936131D01*
X110279855Y-48952590D01*
X110274139Y-48968566D01*
X110266884Y-48983904D01*
X110258161Y-48998458D01*
X110248054Y-49012087D01*
X110236659Y-49024659D01*
X110224087Y-49036054D01*
X110210458Y-49046161D01*
X110195904Y-49054884D01*
X110180566Y-49062139D01*
X110164590Y-49067855D01*
X110148131Y-49071978D01*
X110131347Y-49074467D01*
X110114400Y-49075300D01*
X109768600Y-49075300D01*
X109751653Y-49074467D01*
X109734869Y-49071978D01*
X109718410Y-49067855D01*
X109702434Y-49062139D01*
X109687096Y-49054884D01*
X109672542Y-49046161D01*
X109658913Y-49036054D01*
X109646341Y-49024659D01*
X109634946Y-49012087D01*
X109624839Y-48998458D01*
X109616116Y-48983904D01*
X109608861Y-48968566D01*
X109603145Y-48952590D01*
X109599022Y-48936131D01*
X109596533Y-48919347D01*
X109595700Y-48902400D01*
X109595700Y-48506600D01*
X109596533Y-48489653D01*
X109599022Y-48472869D01*
X109603145Y-48456410D01*
X109608861Y-48440434D01*
X109616116Y-48425096D01*
X109624839Y-48410542D01*
X109634946Y-48396913D01*
X109646341Y-48384341D01*
X109658913Y-48372946D01*
X109672542Y-48362839D01*
X109687096Y-48354116D01*
X109702434Y-48346861D01*
X109718410Y-48341145D01*
X109734869Y-48337022D01*
X109751653Y-48334533D01*
X109768600Y-48333700D01*
X110114400Y-48333700D01*
X110131347Y-48334533D01*
X110131347Y-48334533D01*
G37*
D16*
X109941500Y-48704500D03*
D14*
G36*
X111101347Y-48334533D02*
G01*
X111118131Y-48337022D01*
X111134590Y-48341145D01*
X111150566Y-48346861D01*
X111165904Y-48354116D01*
X111180458Y-48362839D01*
X111194087Y-48372946D01*
X111206659Y-48384341D01*
X111218054Y-48396913D01*
X111228161Y-48410542D01*
X111236884Y-48425096D01*
X111244139Y-48440434D01*
X111249855Y-48456410D01*
X111253978Y-48472869D01*
X111256467Y-48489653D01*
X111257300Y-48506600D01*
X111257300Y-48902400D01*
X111256467Y-48919347D01*
X111253978Y-48936131D01*
X111249855Y-48952590D01*
X111244139Y-48968566D01*
X111236884Y-48983904D01*
X111228161Y-48998458D01*
X111218054Y-49012087D01*
X111206659Y-49024659D01*
X111194087Y-49036054D01*
X111180458Y-49046161D01*
X111165904Y-49054884D01*
X111150566Y-49062139D01*
X111134590Y-49067855D01*
X111118131Y-49071978D01*
X111101347Y-49074467D01*
X111084400Y-49075300D01*
X110738600Y-49075300D01*
X110721653Y-49074467D01*
X110704869Y-49071978D01*
X110688410Y-49067855D01*
X110672434Y-49062139D01*
X110657096Y-49054884D01*
X110642542Y-49046161D01*
X110628913Y-49036054D01*
X110616341Y-49024659D01*
X110604946Y-49012087D01*
X110594839Y-48998458D01*
X110586116Y-48983904D01*
X110578861Y-48968566D01*
X110573145Y-48952590D01*
X110569022Y-48936131D01*
X110566533Y-48919347D01*
X110565700Y-48902400D01*
X110565700Y-48506600D01*
X110566533Y-48489653D01*
X110569022Y-48472869D01*
X110573145Y-48456410D01*
X110578861Y-48440434D01*
X110586116Y-48425096D01*
X110594839Y-48410542D01*
X110604946Y-48396913D01*
X110616341Y-48384341D01*
X110628913Y-48372946D01*
X110642542Y-48362839D01*
X110657096Y-48354116D01*
X110672434Y-48346861D01*
X110688410Y-48341145D01*
X110704869Y-48337022D01*
X110721653Y-48334533D01*
X110738600Y-48333700D01*
X111084400Y-48333700D01*
X111101347Y-48334533D01*
X111101347Y-48334533D01*
G37*
D16*
X110911500Y-48704500D03*
D14*
G36*
X107845347Y-47064533D02*
G01*
X107862131Y-47067022D01*
X107878590Y-47071145D01*
X107894566Y-47076861D01*
X107909904Y-47084116D01*
X107924458Y-47092839D01*
X107938087Y-47102946D01*
X107950659Y-47114341D01*
X107962054Y-47126913D01*
X107972161Y-47140542D01*
X107980884Y-47155096D01*
X107988139Y-47170434D01*
X107993855Y-47186410D01*
X107997978Y-47202869D01*
X108000467Y-47219653D01*
X108001300Y-47236600D01*
X108001300Y-47632400D01*
X108000467Y-47649347D01*
X107997978Y-47666131D01*
X107993855Y-47682590D01*
X107988139Y-47698566D01*
X107980884Y-47713904D01*
X107972161Y-47728458D01*
X107962054Y-47742087D01*
X107950659Y-47754659D01*
X107938087Y-47766054D01*
X107924458Y-47776161D01*
X107909904Y-47784884D01*
X107894566Y-47792139D01*
X107878590Y-47797855D01*
X107862131Y-47801978D01*
X107845347Y-47804467D01*
X107828400Y-47805300D01*
X107482600Y-47805300D01*
X107465653Y-47804467D01*
X107448869Y-47801978D01*
X107432410Y-47797855D01*
X107416434Y-47792139D01*
X107401096Y-47784884D01*
X107386542Y-47776161D01*
X107372913Y-47766054D01*
X107360341Y-47754659D01*
X107348946Y-47742087D01*
X107338839Y-47728458D01*
X107330116Y-47713904D01*
X107322861Y-47698566D01*
X107317145Y-47682590D01*
X107313022Y-47666131D01*
X107310533Y-47649347D01*
X107309700Y-47632400D01*
X107309700Y-47236600D01*
X107310533Y-47219653D01*
X107313022Y-47202869D01*
X107317145Y-47186410D01*
X107322861Y-47170434D01*
X107330116Y-47155096D01*
X107338839Y-47140542D01*
X107348946Y-47126913D01*
X107360341Y-47114341D01*
X107372913Y-47102946D01*
X107386542Y-47092839D01*
X107401096Y-47084116D01*
X107416434Y-47076861D01*
X107432410Y-47071145D01*
X107448869Y-47067022D01*
X107465653Y-47064533D01*
X107482600Y-47063700D01*
X107828400Y-47063700D01*
X107845347Y-47064533D01*
X107845347Y-47064533D01*
G37*
D16*
X107655500Y-47434500D03*
D14*
G36*
X108815347Y-47064533D02*
G01*
X108832131Y-47067022D01*
X108848590Y-47071145D01*
X108864566Y-47076861D01*
X108879904Y-47084116D01*
X108894458Y-47092839D01*
X108908087Y-47102946D01*
X108920659Y-47114341D01*
X108932054Y-47126913D01*
X108942161Y-47140542D01*
X108950884Y-47155096D01*
X108958139Y-47170434D01*
X108963855Y-47186410D01*
X108967978Y-47202869D01*
X108970467Y-47219653D01*
X108971300Y-47236600D01*
X108971300Y-47632400D01*
X108970467Y-47649347D01*
X108967978Y-47666131D01*
X108963855Y-47682590D01*
X108958139Y-47698566D01*
X108950884Y-47713904D01*
X108942161Y-47728458D01*
X108932054Y-47742087D01*
X108920659Y-47754659D01*
X108908087Y-47766054D01*
X108894458Y-47776161D01*
X108879904Y-47784884D01*
X108864566Y-47792139D01*
X108848590Y-47797855D01*
X108832131Y-47801978D01*
X108815347Y-47804467D01*
X108798400Y-47805300D01*
X108452600Y-47805300D01*
X108435653Y-47804467D01*
X108418869Y-47801978D01*
X108402410Y-47797855D01*
X108386434Y-47792139D01*
X108371096Y-47784884D01*
X108356542Y-47776161D01*
X108342913Y-47766054D01*
X108330341Y-47754659D01*
X108318946Y-47742087D01*
X108308839Y-47728458D01*
X108300116Y-47713904D01*
X108292861Y-47698566D01*
X108287145Y-47682590D01*
X108283022Y-47666131D01*
X108280533Y-47649347D01*
X108279700Y-47632400D01*
X108279700Y-47236600D01*
X108280533Y-47219653D01*
X108283022Y-47202869D01*
X108287145Y-47186410D01*
X108292861Y-47170434D01*
X108300116Y-47155096D01*
X108308839Y-47140542D01*
X108318946Y-47126913D01*
X108330341Y-47114341D01*
X108342913Y-47102946D01*
X108356542Y-47092839D01*
X108371096Y-47084116D01*
X108386434Y-47076861D01*
X108402410Y-47071145D01*
X108418869Y-47067022D01*
X108435653Y-47064533D01*
X108452600Y-47063700D01*
X108798400Y-47063700D01*
X108815347Y-47064533D01*
X108815347Y-47064533D01*
G37*
D16*
X108625500Y-47434500D03*
D14*
G36*
X102701847Y-50112533D02*
G01*
X102718631Y-50115022D01*
X102735090Y-50119145D01*
X102751066Y-50124861D01*
X102766404Y-50132116D01*
X102780958Y-50140839D01*
X102794587Y-50150946D01*
X102807159Y-50162341D01*
X102818554Y-50174913D01*
X102828661Y-50188542D01*
X102837384Y-50203096D01*
X102844639Y-50218434D01*
X102850355Y-50234410D01*
X102854478Y-50250869D01*
X102856967Y-50267653D01*
X102857800Y-50284600D01*
X102857800Y-50680400D01*
X102856967Y-50697347D01*
X102854478Y-50714131D01*
X102850355Y-50730590D01*
X102844639Y-50746566D01*
X102837384Y-50761904D01*
X102828661Y-50776458D01*
X102818554Y-50790087D01*
X102807159Y-50802659D01*
X102794587Y-50814054D01*
X102780958Y-50824161D01*
X102766404Y-50832884D01*
X102751066Y-50840139D01*
X102735090Y-50845855D01*
X102718631Y-50849978D01*
X102701847Y-50852467D01*
X102684900Y-50853300D01*
X102339100Y-50853300D01*
X102322153Y-50852467D01*
X102305369Y-50849978D01*
X102288910Y-50845855D01*
X102272934Y-50840139D01*
X102257596Y-50832884D01*
X102243042Y-50824161D01*
X102229413Y-50814054D01*
X102216841Y-50802659D01*
X102205446Y-50790087D01*
X102195339Y-50776458D01*
X102186616Y-50761904D01*
X102179361Y-50746566D01*
X102173645Y-50730590D01*
X102169522Y-50714131D01*
X102167033Y-50697347D01*
X102166200Y-50680400D01*
X102166200Y-50284600D01*
X102167033Y-50267653D01*
X102169522Y-50250869D01*
X102173645Y-50234410D01*
X102179361Y-50218434D01*
X102186616Y-50203096D01*
X102195339Y-50188542D01*
X102205446Y-50174913D01*
X102216841Y-50162341D01*
X102229413Y-50150946D01*
X102243042Y-50140839D01*
X102257596Y-50132116D01*
X102272934Y-50124861D01*
X102288910Y-50119145D01*
X102305369Y-50115022D01*
X102322153Y-50112533D01*
X102339100Y-50111700D01*
X102684900Y-50111700D01*
X102701847Y-50112533D01*
X102701847Y-50112533D01*
G37*
D16*
X102512000Y-50482500D03*
D14*
G36*
X103671847Y-50112533D02*
G01*
X103688631Y-50115022D01*
X103705090Y-50119145D01*
X103721066Y-50124861D01*
X103736404Y-50132116D01*
X103750958Y-50140839D01*
X103764587Y-50150946D01*
X103777159Y-50162341D01*
X103788554Y-50174913D01*
X103798661Y-50188542D01*
X103807384Y-50203096D01*
X103814639Y-50218434D01*
X103820355Y-50234410D01*
X103824478Y-50250869D01*
X103826967Y-50267653D01*
X103827800Y-50284600D01*
X103827800Y-50680400D01*
X103826967Y-50697347D01*
X103824478Y-50714131D01*
X103820355Y-50730590D01*
X103814639Y-50746566D01*
X103807384Y-50761904D01*
X103798661Y-50776458D01*
X103788554Y-50790087D01*
X103777159Y-50802659D01*
X103764587Y-50814054D01*
X103750958Y-50824161D01*
X103736404Y-50832884D01*
X103721066Y-50840139D01*
X103705090Y-50845855D01*
X103688631Y-50849978D01*
X103671847Y-50852467D01*
X103654900Y-50853300D01*
X103309100Y-50853300D01*
X103292153Y-50852467D01*
X103275369Y-50849978D01*
X103258910Y-50845855D01*
X103242934Y-50840139D01*
X103227596Y-50832884D01*
X103213042Y-50824161D01*
X103199413Y-50814054D01*
X103186841Y-50802659D01*
X103175446Y-50790087D01*
X103165339Y-50776458D01*
X103156616Y-50761904D01*
X103149361Y-50746566D01*
X103143645Y-50730590D01*
X103139522Y-50714131D01*
X103137033Y-50697347D01*
X103136200Y-50680400D01*
X103136200Y-50284600D01*
X103137033Y-50267653D01*
X103139522Y-50250869D01*
X103143645Y-50234410D01*
X103149361Y-50218434D01*
X103156616Y-50203096D01*
X103165339Y-50188542D01*
X103175446Y-50174913D01*
X103186841Y-50162341D01*
X103199413Y-50150946D01*
X103213042Y-50140839D01*
X103227596Y-50132116D01*
X103242934Y-50124861D01*
X103258910Y-50119145D01*
X103275369Y-50115022D01*
X103292153Y-50112533D01*
X103309100Y-50111700D01*
X103654900Y-50111700D01*
X103671847Y-50112533D01*
X103671847Y-50112533D01*
G37*
D16*
X103482000Y-50482500D03*
D14*
G36*
X102465347Y-58939033D02*
G01*
X102482131Y-58941522D01*
X102498590Y-58945645D01*
X102514566Y-58951361D01*
X102529904Y-58958616D01*
X102544458Y-58967339D01*
X102558087Y-58977446D01*
X102570659Y-58988841D01*
X102582054Y-59001413D01*
X102592161Y-59015042D01*
X102600884Y-59029596D01*
X102608139Y-59044934D01*
X102613855Y-59060910D01*
X102617978Y-59077369D01*
X102620467Y-59094153D01*
X102621300Y-59111100D01*
X102621300Y-59506900D01*
X102620467Y-59523847D01*
X102617978Y-59540631D01*
X102613855Y-59557090D01*
X102608139Y-59573066D01*
X102600884Y-59588404D01*
X102592161Y-59602958D01*
X102582054Y-59616587D01*
X102570659Y-59629159D01*
X102558087Y-59640554D01*
X102544458Y-59650661D01*
X102529904Y-59659384D01*
X102514566Y-59666639D01*
X102498590Y-59672355D01*
X102482131Y-59676478D01*
X102465347Y-59678967D01*
X102448400Y-59679800D01*
X102102600Y-59679800D01*
X102085653Y-59678967D01*
X102068869Y-59676478D01*
X102052410Y-59672355D01*
X102036434Y-59666639D01*
X102021096Y-59659384D01*
X102006542Y-59650661D01*
X101992913Y-59640554D01*
X101980341Y-59629159D01*
X101968946Y-59616587D01*
X101958839Y-59602958D01*
X101950116Y-59588404D01*
X101942861Y-59573066D01*
X101937145Y-59557090D01*
X101933022Y-59540631D01*
X101930533Y-59523847D01*
X101929700Y-59506900D01*
X101929700Y-59111100D01*
X101930533Y-59094153D01*
X101933022Y-59077369D01*
X101937145Y-59060910D01*
X101942861Y-59044934D01*
X101950116Y-59029596D01*
X101958839Y-59015042D01*
X101968946Y-59001413D01*
X101980341Y-58988841D01*
X101992913Y-58977446D01*
X102006542Y-58967339D01*
X102021096Y-58958616D01*
X102036434Y-58951361D01*
X102052410Y-58945645D01*
X102068869Y-58941522D01*
X102085653Y-58939033D01*
X102102600Y-58938200D01*
X102448400Y-58938200D01*
X102465347Y-58939033D01*
X102465347Y-58939033D01*
G37*
D16*
X102275500Y-59309000D03*
D14*
G36*
X101495347Y-58939033D02*
G01*
X101512131Y-58941522D01*
X101528590Y-58945645D01*
X101544566Y-58951361D01*
X101559904Y-58958616D01*
X101574458Y-58967339D01*
X101588087Y-58977446D01*
X101600659Y-58988841D01*
X101612054Y-59001413D01*
X101622161Y-59015042D01*
X101630884Y-59029596D01*
X101638139Y-59044934D01*
X101643855Y-59060910D01*
X101647978Y-59077369D01*
X101650467Y-59094153D01*
X101651300Y-59111100D01*
X101651300Y-59506900D01*
X101650467Y-59523847D01*
X101647978Y-59540631D01*
X101643855Y-59557090D01*
X101638139Y-59573066D01*
X101630884Y-59588404D01*
X101622161Y-59602958D01*
X101612054Y-59616587D01*
X101600659Y-59629159D01*
X101588087Y-59640554D01*
X101574458Y-59650661D01*
X101559904Y-59659384D01*
X101544566Y-59666639D01*
X101528590Y-59672355D01*
X101512131Y-59676478D01*
X101495347Y-59678967D01*
X101478400Y-59679800D01*
X101132600Y-59679800D01*
X101115653Y-59678967D01*
X101098869Y-59676478D01*
X101082410Y-59672355D01*
X101066434Y-59666639D01*
X101051096Y-59659384D01*
X101036542Y-59650661D01*
X101022913Y-59640554D01*
X101010341Y-59629159D01*
X100998946Y-59616587D01*
X100988839Y-59602958D01*
X100980116Y-59588404D01*
X100972861Y-59573066D01*
X100967145Y-59557090D01*
X100963022Y-59540631D01*
X100960533Y-59523847D01*
X100959700Y-59506900D01*
X100959700Y-59111100D01*
X100960533Y-59094153D01*
X100963022Y-59077369D01*
X100967145Y-59060910D01*
X100972861Y-59044934D01*
X100980116Y-59029596D01*
X100988839Y-59015042D01*
X100998946Y-59001413D01*
X101010341Y-58988841D01*
X101022913Y-58977446D01*
X101036542Y-58967339D01*
X101051096Y-58958616D01*
X101066434Y-58951361D01*
X101082410Y-58945645D01*
X101098869Y-58941522D01*
X101115653Y-58939033D01*
X101132600Y-58938200D01*
X101478400Y-58938200D01*
X101495347Y-58939033D01*
X101495347Y-58939033D01*
G37*
D16*
X101305500Y-59309000D03*
D14*
G36*
X113752847Y-46876033D02*
G01*
X113769631Y-46878522D01*
X113786090Y-46882645D01*
X113802066Y-46888361D01*
X113817404Y-46895616D01*
X113831958Y-46904339D01*
X113845587Y-46914446D01*
X113858159Y-46925841D01*
X113869554Y-46938413D01*
X113879661Y-46952042D01*
X113888384Y-46966596D01*
X113895639Y-46981934D01*
X113901355Y-46997910D01*
X113905478Y-47014369D01*
X113907967Y-47031153D01*
X113908800Y-47048100D01*
X113908800Y-47393900D01*
X113907967Y-47410847D01*
X113905478Y-47427631D01*
X113901355Y-47444090D01*
X113895639Y-47460066D01*
X113888384Y-47475404D01*
X113879661Y-47489958D01*
X113869554Y-47503587D01*
X113858159Y-47516159D01*
X113845587Y-47527554D01*
X113831958Y-47537661D01*
X113817404Y-47546384D01*
X113802066Y-47553639D01*
X113786090Y-47559355D01*
X113769631Y-47563478D01*
X113752847Y-47565967D01*
X113735900Y-47566800D01*
X113340100Y-47566800D01*
X113323153Y-47565967D01*
X113306369Y-47563478D01*
X113289910Y-47559355D01*
X113273934Y-47553639D01*
X113258596Y-47546384D01*
X113244042Y-47537661D01*
X113230413Y-47527554D01*
X113217841Y-47516159D01*
X113206446Y-47503587D01*
X113196339Y-47489958D01*
X113187616Y-47475404D01*
X113180361Y-47460066D01*
X113174645Y-47444090D01*
X113170522Y-47427631D01*
X113168033Y-47410847D01*
X113167200Y-47393900D01*
X113167200Y-47048100D01*
X113168033Y-47031153D01*
X113170522Y-47014369D01*
X113174645Y-46997910D01*
X113180361Y-46981934D01*
X113187616Y-46966596D01*
X113196339Y-46952042D01*
X113206446Y-46938413D01*
X113217841Y-46925841D01*
X113230413Y-46914446D01*
X113244042Y-46904339D01*
X113258596Y-46895616D01*
X113273934Y-46888361D01*
X113289910Y-46882645D01*
X113306369Y-46878522D01*
X113323153Y-46876033D01*
X113340100Y-46875200D01*
X113735900Y-46875200D01*
X113752847Y-46876033D01*
X113752847Y-46876033D01*
G37*
D16*
X113538000Y-47221000D03*
D14*
G36*
X113752847Y-45906033D02*
G01*
X113769631Y-45908522D01*
X113786090Y-45912645D01*
X113802066Y-45918361D01*
X113817404Y-45925616D01*
X113831958Y-45934339D01*
X113845587Y-45944446D01*
X113858159Y-45955841D01*
X113869554Y-45968413D01*
X113879661Y-45982042D01*
X113888384Y-45996596D01*
X113895639Y-46011934D01*
X113901355Y-46027910D01*
X113905478Y-46044369D01*
X113907967Y-46061153D01*
X113908800Y-46078100D01*
X113908800Y-46423900D01*
X113907967Y-46440847D01*
X113905478Y-46457631D01*
X113901355Y-46474090D01*
X113895639Y-46490066D01*
X113888384Y-46505404D01*
X113879661Y-46519958D01*
X113869554Y-46533587D01*
X113858159Y-46546159D01*
X113845587Y-46557554D01*
X113831958Y-46567661D01*
X113817404Y-46576384D01*
X113802066Y-46583639D01*
X113786090Y-46589355D01*
X113769631Y-46593478D01*
X113752847Y-46595967D01*
X113735900Y-46596800D01*
X113340100Y-46596800D01*
X113323153Y-46595967D01*
X113306369Y-46593478D01*
X113289910Y-46589355D01*
X113273934Y-46583639D01*
X113258596Y-46576384D01*
X113244042Y-46567661D01*
X113230413Y-46557554D01*
X113217841Y-46546159D01*
X113206446Y-46533587D01*
X113196339Y-46519958D01*
X113187616Y-46505404D01*
X113180361Y-46490066D01*
X113174645Y-46474090D01*
X113170522Y-46457631D01*
X113168033Y-46440847D01*
X113167200Y-46423900D01*
X113167200Y-46078100D01*
X113168033Y-46061153D01*
X113170522Y-46044369D01*
X113174645Y-46027910D01*
X113180361Y-46011934D01*
X113187616Y-45996596D01*
X113196339Y-45982042D01*
X113206446Y-45968413D01*
X113217841Y-45955841D01*
X113230413Y-45944446D01*
X113244042Y-45934339D01*
X113258596Y-45925616D01*
X113273934Y-45918361D01*
X113289910Y-45912645D01*
X113306369Y-45908522D01*
X113323153Y-45906033D01*
X113340100Y-45905200D01*
X113735900Y-45905200D01*
X113752847Y-45906033D01*
X113752847Y-45906033D01*
G37*
D16*
X113538000Y-46251000D03*
D14*
G36*
X114895847Y-47320533D02*
G01*
X114912631Y-47323022D01*
X114929090Y-47327145D01*
X114945066Y-47332861D01*
X114960404Y-47340116D01*
X114974958Y-47348839D01*
X114988587Y-47358946D01*
X115001159Y-47370341D01*
X115012554Y-47382913D01*
X115022661Y-47396542D01*
X115031384Y-47411096D01*
X115038639Y-47426434D01*
X115044355Y-47442410D01*
X115048478Y-47458869D01*
X115050967Y-47475653D01*
X115051800Y-47492600D01*
X115051800Y-47838400D01*
X115050967Y-47855347D01*
X115048478Y-47872131D01*
X115044355Y-47888590D01*
X115038639Y-47904566D01*
X115031384Y-47919904D01*
X115022661Y-47934458D01*
X115012554Y-47948087D01*
X115001159Y-47960659D01*
X114988587Y-47972054D01*
X114974958Y-47982161D01*
X114960404Y-47990884D01*
X114945066Y-47998139D01*
X114929090Y-48003855D01*
X114912631Y-48007978D01*
X114895847Y-48010467D01*
X114878900Y-48011300D01*
X114483100Y-48011300D01*
X114466153Y-48010467D01*
X114449369Y-48007978D01*
X114432910Y-48003855D01*
X114416934Y-47998139D01*
X114401596Y-47990884D01*
X114387042Y-47982161D01*
X114373413Y-47972054D01*
X114360841Y-47960659D01*
X114349446Y-47948087D01*
X114339339Y-47934458D01*
X114330616Y-47919904D01*
X114323361Y-47904566D01*
X114317645Y-47888590D01*
X114313522Y-47872131D01*
X114311033Y-47855347D01*
X114310200Y-47838400D01*
X114310200Y-47492600D01*
X114311033Y-47475653D01*
X114313522Y-47458869D01*
X114317645Y-47442410D01*
X114323361Y-47426434D01*
X114330616Y-47411096D01*
X114339339Y-47396542D01*
X114349446Y-47382913D01*
X114360841Y-47370341D01*
X114373413Y-47358946D01*
X114387042Y-47348839D01*
X114401596Y-47340116D01*
X114416934Y-47332861D01*
X114432910Y-47327145D01*
X114449369Y-47323022D01*
X114466153Y-47320533D01*
X114483100Y-47319700D01*
X114878900Y-47319700D01*
X114895847Y-47320533D01*
X114895847Y-47320533D01*
G37*
D16*
X114681000Y-47665500D03*
D14*
G36*
X114895847Y-46350533D02*
G01*
X114912631Y-46353022D01*
X114929090Y-46357145D01*
X114945066Y-46362861D01*
X114960404Y-46370116D01*
X114974958Y-46378839D01*
X114988587Y-46388946D01*
X115001159Y-46400341D01*
X115012554Y-46412913D01*
X115022661Y-46426542D01*
X115031384Y-46441096D01*
X115038639Y-46456434D01*
X115044355Y-46472410D01*
X115048478Y-46488869D01*
X115050967Y-46505653D01*
X115051800Y-46522600D01*
X115051800Y-46868400D01*
X115050967Y-46885347D01*
X115048478Y-46902131D01*
X115044355Y-46918590D01*
X115038639Y-46934566D01*
X115031384Y-46949904D01*
X115022661Y-46964458D01*
X115012554Y-46978087D01*
X115001159Y-46990659D01*
X114988587Y-47002054D01*
X114974958Y-47012161D01*
X114960404Y-47020884D01*
X114945066Y-47028139D01*
X114929090Y-47033855D01*
X114912631Y-47037978D01*
X114895847Y-47040467D01*
X114878900Y-47041300D01*
X114483100Y-47041300D01*
X114466153Y-47040467D01*
X114449369Y-47037978D01*
X114432910Y-47033855D01*
X114416934Y-47028139D01*
X114401596Y-47020884D01*
X114387042Y-47012161D01*
X114373413Y-47002054D01*
X114360841Y-46990659D01*
X114349446Y-46978087D01*
X114339339Y-46964458D01*
X114330616Y-46949904D01*
X114323361Y-46934566D01*
X114317645Y-46918590D01*
X114313522Y-46902131D01*
X114311033Y-46885347D01*
X114310200Y-46868400D01*
X114310200Y-46522600D01*
X114311033Y-46505653D01*
X114313522Y-46488869D01*
X114317645Y-46472410D01*
X114323361Y-46456434D01*
X114330616Y-46441096D01*
X114339339Y-46426542D01*
X114349446Y-46412913D01*
X114360841Y-46400341D01*
X114373413Y-46388946D01*
X114387042Y-46378839D01*
X114401596Y-46370116D01*
X114416934Y-46362861D01*
X114432910Y-46357145D01*
X114449369Y-46353022D01*
X114466153Y-46350533D01*
X114483100Y-46349700D01*
X114878900Y-46349700D01*
X114895847Y-46350533D01*
X114895847Y-46350533D01*
G37*
D16*
X114681000Y-46695500D03*
D14*
G36*
X111101347Y-50620533D02*
G01*
X111118131Y-50623022D01*
X111134590Y-50627145D01*
X111150566Y-50632861D01*
X111165904Y-50640116D01*
X111180458Y-50648839D01*
X111194087Y-50658946D01*
X111206659Y-50670341D01*
X111218054Y-50682913D01*
X111228161Y-50696542D01*
X111236884Y-50711096D01*
X111244139Y-50726434D01*
X111249855Y-50742410D01*
X111253978Y-50758869D01*
X111256467Y-50775653D01*
X111257300Y-50792600D01*
X111257300Y-51188400D01*
X111256467Y-51205347D01*
X111253978Y-51222131D01*
X111249855Y-51238590D01*
X111244139Y-51254566D01*
X111236884Y-51269904D01*
X111228161Y-51284458D01*
X111218054Y-51298087D01*
X111206659Y-51310659D01*
X111194087Y-51322054D01*
X111180458Y-51332161D01*
X111165904Y-51340884D01*
X111150566Y-51348139D01*
X111134590Y-51353855D01*
X111118131Y-51357978D01*
X111101347Y-51360467D01*
X111084400Y-51361300D01*
X110738600Y-51361300D01*
X110721653Y-51360467D01*
X110704869Y-51357978D01*
X110688410Y-51353855D01*
X110672434Y-51348139D01*
X110657096Y-51340884D01*
X110642542Y-51332161D01*
X110628913Y-51322054D01*
X110616341Y-51310659D01*
X110604946Y-51298087D01*
X110594839Y-51284458D01*
X110586116Y-51269904D01*
X110578861Y-51254566D01*
X110573145Y-51238590D01*
X110569022Y-51222131D01*
X110566533Y-51205347D01*
X110565700Y-51188400D01*
X110565700Y-50792600D01*
X110566533Y-50775653D01*
X110569022Y-50758869D01*
X110573145Y-50742410D01*
X110578861Y-50726434D01*
X110586116Y-50711096D01*
X110594839Y-50696542D01*
X110604946Y-50682913D01*
X110616341Y-50670341D01*
X110628913Y-50658946D01*
X110642542Y-50648839D01*
X110657096Y-50640116D01*
X110672434Y-50632861D01*
X110688410Y-50627145D01*
X110704869Y-50623022D01*
X110721653Y-50620533D01*
X110738600Y-50619700D01*
X111084400Y-50619700D01*
X111101347Y-50620533D01*
X111101347Y-50620533D01*
G37*
D16*
X110911500Y-50990500D03*
D14*
G36*
X110131347Y-50620533D02*
G01*
X110148131Y-50623022D01*
X110164590Y-50627145D01*
X110180566Y-50632861D01*
X110195904Y-50640116D01*
X110210458Y-50648839D01*
X110224087Y-50658946D01*
X110236659Y-50670341D01*
X110248054Y-50682913D01*
X110258161Y-50696542D01*
X110266884Y-50711096D01*
X110274139Y-50726434D01*
X110279855Y-50742410D01*
X110283978Y-50758869D01*
X110286467Y-50775653D01*
X110287300Y-50792600D01*
X110287300Y-51188400D01*
X110286467Y-51205347D01*
X110283978Y-51222131D01*
X110279855Y-51238590D01*
X110274139Y-51254566D01*
X110266884Y-51269904D01*
X110258161Y-51284458D01*
X110248054Y-51298087D01*
X110236659Y-51310659D01*
X110224087Y-51322054D01*
X110210458Y-51332161D01*
X110195904Y-51340884D01*
X110180566Y-51348139D01*
X110164590Y-51353855D01*
X110148131Y-51357978D01*
X110131347Y-51360467D01*
X110114400Y-51361300D01*
X109768600Y-51361300D01*
X109751653Y-51360467D01*
X109734869Y-51357978D01*
X109718410Y-51353855D01*
X109702434Y-51348139D01*
X109687096Y-51340884D01*
X109672542Y-51332161D01*
X109658913Y-51322054D01*
X109646341Y-51310659D01*
X109634946Y-51298087D01*
X109624839Y-51284458D01*
X109616116Y-51269904D01*
X109608861Y-51254566D01*
X109603145Y-51238590D01*
X109599022Y-51222131D01*
X109596533Y-51205347D01*
X109595700Y-51188400D01*
X109595700Y-50792600D01*
X109596533Y-50775653D01*
X109599022Y-50758869D01*
X109603145Y-50742410D01*
X109608861Y-50726434D01*
X109616116Y-50711096D01*
X109624839Y-50696542D01*
X109634946Y-50682913D01*
X109646341Y-50670341D01*
X109658913Y-50658946D01*
X109672542Y-50648839D01*
X109687096Y-50640116D01*
X109702434Y-50632861D01*
X109718410Y-50627145D01*
X109734869Y-50623022D01*
X109751653Y-50620533D01*
X109768600Y-50619700D01*
X110114400Y-50619700D01*
X110131347Y-50620533D01*
X110131347Y-50620533D01*
G37*
D16*
X109941500Y-50990500D03*
D23*
X112175290Y-55973980D03*
X109216190Y-55973980D03*
X104286050Y-56007000D03*
X101326950Y-56007000D03*
D14*
G36*
X107926081Y-58784376D02*
G01*
X107949781Y-58787891D01*
X107973023Y-58793713D01*
X107995582Y-58801785D01*
X108017242Y-58812029D01*
X108037792Y-58824347D01*
X108057037Y-58838619D01*
X108074790Y-58854710D01*
X108090881Y-58872463D01*
X108105153Y-58891708D01*
X108117471Y-58912258D01*
X108127715Y-58933918D01*
X108135787Y-58956477D01*
X108141609Y-58979719D01*
X108145124Y-59003419D01*
X108146300Y-59027350D01*
X108146300Y-59590650D01*
X108145124Y-59614581D01*
X108141609Y-59638281D01*
X108135787Y-59661523D01*
X108127715Y-59684082D01*
X108117471Y-59705742D01*
X108105153Y-59726292D01*
X108090881Y-59745537D01*
X108074790Y-59763290D01*
X108057037Y-59779381D01*
X108037792Y-59793653D01*
X108017242Y-59805971D01*
X107995582Y-59816215D01*
X107973023Y-59824287D01*
X107949781Y-59830109D01*
X107926081Y-59833624D01*
X107902150Y-59834800D01*
X107413850Y-59834800D01*
X107389919Y-59833624D01*
X107366219Y-59830109D01*
X107342977Y-59824287D01*
X107320418Y-59816215D01*
X107298758Y-59805971D01*
X107278208Y-59793653D01*
X107258963Y-59779381D01*
X107241210Y-59763290D01*
X107225119Y-59745537D01*
X107210847Y-59726292D01*
X107198529Y-59705742D01*
X107188285Y-59684082D01*
X107180213Y-59661523D01*
X107174391Y-59638281D01*
X107170876Y-59614581D01*
X107169700Y-59590650D01*
X107169700Y-59027350D01*
X107170876Y-59003419D01*
X107174391Y-58979719D01*
X107180213Y-58956477D01*
X107188285Y-58933918D01*
X107198529Y-58912258D01*
X107210847Y-58891708D01*
X107225119Y-58872463D01*
X107241210Y-58854710D01*
X107258963Y-58838619D01*
X107278208Y-58824347D01*
X107298758Y-58812029D01*
X107320418Y-58801785D01*
X107342977Y-58793713D01*
X107366219Y-58787891D01*
X107389919Y-58784376D01*
X107413850Y-58783200D01*
X107902150Y-58783200D01*
X107926081Y-58784376D01*
X107926081Y-58784376D01*
G37*
D15*
X107658000Y-59309000D03*
D14*
G36*
X106351081Y-58784376D02*
G01*
X106374781Y-58787891D01*
X106398023Y-58793713D01*
X106420582Y-58801785D01*
X106442242Y-58812029D01*
X106462792Y-58824347D01*
X106482037Y-58838619D01*
X106499790Y-58854710D01*
X106515881Y-58872463D01*
X106530153Y-58891708D01*
X106542471Y-58912258D01*
X106552715Y-58933918D01*
X106560787Y-58956477D01*
X106566609Y-58979719D01*
X106570124Y-59003419D01*
X106571300Y-59027350D01*
X106571300Y-59590650D01*
X106570124Y-59614581D01*
X106566609Y-59638281D01*
X106560787Y-59661523D01*
X106552715Y-59684082D01*
X106542471Y-59705742D01*
X106530153Y-59726292D01*
X106515881Y-59745537D01*
X106499790Y-59763290D01*
X106482037Y-59779381D01*
X106462792Y-59793653D01*
X106442242Y-59805971D01*
X106420582Y-59816215D01*
X106398023Y-59824287D01*
X106374781Y-59830109D01*
X106351081Y-59833624D01*
X106327150Y-59834800D01*
X105838850Y-59834800D01*
X105814919Y-59833624D01*
X105791219Y-59830109D01*
X105767977Y-59824287D01*
X105745418Y-59816215D01*
X105723758Y-59805971D01*
X105703208Y-59793653D01*
X105683963Y-59779381D01*
X105666210Y-59763290D01*
X105650119Y-59745537D01*
X105635847Y-59726292D01*
X105623529Y-59705742D01*
X105613285Y-59684082D01*
X105605213Y-59661523D01*
X105599391Y-59638281D01*
X105595876Y-59614581D01*
X105594700Y-59590650D01*
X105594700Y-59027350D01*
X105595876Y-59003419D01*
X105599391Y-58979719D01*
X105605213Y-58956477D01*
X105613285Y-58933918D01*
X105623529Y-58912258D01*
X105635847Y-58891708D01*
X105650119Y-58872463D01*
X105666210Y-58854710D01*
X105683963Y-58838619D01*
X105703208Y-58824347D01*
X105723758Y-58812029D01*
X105745418Y-58801785D01*
X105767977Y-58793713D01*
X105791219Y-58787891D01*
X105814919Y-58784376D01*
X105838850Y-58783200D01*
X106327150Y-58783200D01*
X106351081Y-58784376D01*
X106351081Y-58784376D01*
G37*
D15*
X106083000Y-59309000D03*
D14*
G36*
X110893347Y-52398533D02*
G01*
X110910131Y-52401022D01*
X110926590Y-52405145D01*
X110942566Y-52410861D01*
X110957904Y-52418116D01*
X110972458Y-52426839D01*
X110986087Y-52436946D01*
X110998659Y-52448341D01*
X111010054Y-52460913D01*
X111020161Y-52474542D01*
X111028884Y-52489096D01*
X111036139Y-52504434D01*
X111041855Y-52520410D01*
X111045978Y-52536869D01*
X111048467Y-52553653D01*
X111049300Y-52570600D01*
X111049300Y-52966400D01*
X111048467Y-52983347D01*
X111045978Y-53000131D01*
X111041855Y-53016590D01*
X111036139Y-53032566D01*
X111028884Y-53047904D01*
X111020161Y-53062458D01*
X111010054Y-53076087D01*
X110998659Y-53088659D01*
X110986087Y-53100054D01*
X110972458Y-53110161D01*
X110957904Y-53118884D01*
X110942566Y-53126139D01*
X110926590Y-53131855D01*
X110910131Y-53135978D01*
X110893347Y-53138467D01*
X110876400Y-53139300D01*
X110530600Y-53139300D01*
X110513653Y-53138467D01*
X110496869Y-53135978D01*
X110480410Y-53131855D01*
X110464434Y-53126139D01*
X110449096Y-53118884D01*
X110434542Y-53110161D01*
X110420913Y-53100054D01*
X110408341Y-53088659D01*
X110396946Y-53076087D01*
X110386839Y-53062458D01*
X110378116Y-53047904D01*
X110370861Y-53032566D01*
X110365145Y-53016590D01*
X110361022Y-53000131D01*
X110358533Y-52983347D01*
X110357700Y-52966400D01*
X110357700Y-52570600D01*
X110358533Y-52553653D01*
X110361022Y-52536869D01*
X110365145Y-52520410D01*
X110370861Y-52504434D01*
X110378116Y-52489096D01*
X110386839Y-52474542D01*
X110396946Y-52460913D01*
X110408341Y-52448341D01*
X110420913Y-52436946D01*
X110434542Y-52426839D01*
X110449096Y-52418116D01*
X110464434Y-52410861D01*
X110480410Y-52405145D01*
X110496869Y-52401022D01*
X110513653Y-52398533D01*
X110530600Y-52397700D01*
X110876400Y-52397700D01*
X110893347Y-52398533D01*
X110893347Y-52398533D01*
G37*
D16*
X110703500Y-52768500D03*
D14*
G36*
X111863347Y-52398533D02*
G01*
X111880131Y-52401022D01*
X111896590Y-52405145D01*
X111912566Y-52410861D01*
X111927904Y-52418116D01*
X111942458Y-52426839D01*
X111956087Y-52436946D01*
X111968659Y-52448341D01*
X111980054Y-52460913D01*
X111990161Y-52474542D01*
X111998884Y-52489096D01*
X112006139Y-52504434D01*
X112011855Y-52520410D01*
X112015978Y-52536869D01*
X112018467Y-52553653D01*
X112019300Y-52570600D01*
X112019300Y-52966400D01*
X112018467Y-52983347D01*
X112015978Y-53000131D01*
X112011855Y-53016590D01*
X112006139Y-53032566D01*
X111998884Y-53047904D01*
X111990161Y-53062458D01*
X111980054Y-53076087D01*
X111968659Y-53088659D01*
X111956087Y-53100054D01*
X111942458Y-53110161D01*
X111927904Y-53118884D01*
X111912566Y-53126139D01*
X111896590Y-53131855D01*
X111880131Y-53135978D01*
X111863347Y-53138467D01*
X111846400Y-53139300D01*
X111500600Y-53139300D01*
X111483653Y-53138467D01*
X111466869Y-53135978D01*
X111450410Y-53131855D01*
X111434434Y-53126139D01*
X111419096Y-53118884D01*
X111404542Y-53110161D01*
X111390913Y-53100054D01*
X111378341Y-53088659D01*
X111366946Y-53076087D01*
X111356839Y-53062458D01*
X111348116Y-53047904D01*
X111340861Y-53032566D01*
X111335145Y-53016590D01*
X111331022Y-53000131D01*
X111328533Y-52983347D01*
X111327700Y-52966400D01*
X111327700Y-52570600D01*
X111328533Y-52553653D01*
X111331022Y-52536869D01*
X111335145Y-52520410D01*
X111340861Y-52504434D01*
X111348116Y-52489096D01*
X111356839Y-52474542D01*
X111366946Y-52460913D01*
X111378341Y-52448341D01*
X111390913Y-52436946D01*
X111404542Y-52426839D01*
X111419096Y-52418116D01*
X111434434Y-52410861D01*
X111450410Y-52405145D01*
X111466869Y-52401022D01*
X111483653Y-52398533D01*
X111500600Y-52397700D01*
X111846400Y-52397700D01*
X111863347Y-52398533D01*
X111863347Y-52398533D01*
G37*
D16*
X111673500Y-52768500D03*
D14*
G36*
X102701847Y-49033033D02*
G01*
X102718631Y-49035522D01*
X102735090Y-49039645D01*
X102751066Y-49045361D01*
X102766404Y-49052616D01*
X102780958Y-49061339D01*
X102794587Y-49071446D01*
X102807159Y-49082841D01*
X102818554Y-49095413D01*
X102828661Y-49109042D01*
X102837384Y-49123596D01*
X102844639Y-49138934D01*
X102850355Y-49154910D01*
X102854478Y-49171369D01*
X102856967Y-49188153D01*
X102857800Y-49205100D01*
X102857800Y-49600900D01*
X102856967Y-49617847D01*
X102854478Y-49634631D01*
X102850355Y-49651090D01*
X102844639Y-49667066D01*
X102837384Y-49682404D01*
X102828661Y-49696958D01*
X102818554Y-49710587D01*
X102807159Y-49723159D01*
X102794587Y-49734554D01*
X102780958Y-49744661D01*
X102766404Y-49753384D01*
X102751066Y-49760639D01*
X102735090Y-49766355D01*
X102718631Y-49770478D01*
X102701847Y-49772967D01*
X102684900Y-49773800D01*
X102339100Y-49773800D01*
X102322153Y-49772967D01*
X102305369Y-49770478D01*
X102288910Y-49766355D01*
X102272934Y-49760639D01*
X102257596Y-49753384D01*
X102243042Y-49744661D01*
X102229413Y-49734554D01*
X102216841Y-49723159D01*
X102205446Y-49710587D01*
X102195339Y-49696958D01*
X102186616Y-49682404D01*
X102179361Y-49667066D01*
X102173645Y-49651090D01*
X102169522Y-49634631D01*
X102167033Y-49617847D01*
X102166200Y-49600900D01*
X102166200Y-49205100D01*
X102167033Y-49188153D01*
X102169522Y-49171369D01*
X102173645Y-49154910D01*
X102179361Y-49138934D01*
X102186616Y-49123596D01*
X102195339Y-49109042D01*
X102205446Y-49095413D01*
X102216841Y-49082841D01*
X102229413Y-49071446D01*
X102243042Y-49061339D01*
X102257596Y-49052616D01*
X102272934Y-49045361D01*
X102288910Y-49039645D01*
X102305369Y-49035522D01*
X102322153Y-49033033D01*
X102339100Y-49032200D01*
X102684900Y-49032200D01*
X102701847Y-49033033D01*
X102701847Y-49033033D01*
G37*
D16*
X102512000Y-49403000D03*
D14*
G36*
X103671847Y-49033033D02*
G01*
X103688631Y-49035522D01*
X103705090Y-49039645D01*
X103721066Y-49045361D01*
X103736404Y-49052616D01*
X103750958Y-49061339D01*
X103764587Y-49071446D01*
X103777159Y-49082841D01*
X103788554Y-49095413D01*
X103798661Y-49109042D01*
X103807384Y-49123596D01*
X103814639Y-49138934D01*
X103820355Y-49154910D01*
X103824478Y-49171369D01*
X103826967Y-49188153D01*
X103827800Y-49205100D01*
X103827800Y-49600900D01*
X103826967Y-49617847D01*
X103824478Y-49634631D01*
X103820355Y-49651090D01*
X103814639Y-49667066D01*
X103807384Y-49682404D01*
X103798661Y-49696958D01*
X103788554Y-49710587D01*
X103777159Y-49723159D01*
X103764587Y-49734554D01*
X103750958Y-49744661D01*
X103736404Y-49753384D01*
X103721066Y-49760639D01*
X103705090Y-49766355D01*
X103688631Y-49770478D01*
X103671847Y-49772967D01*
X103654900Y-49773800D01*
X103309100Y-49773800D01*
X103292153Y-49772967D01*
X103275369Y-49770478D01*
X103258910Y-49766355D01*
X103242934Y-49760639D01*
X103227596Y-49753384D01*
X103213042Y-49744661D01*
X103199413Y-49734554D01*
X103186841Y-49723159D01*
X103175446Y-49710587D01*
X103165339Y-49696958D01*
X103156616Y-49682404D01*
X103149361Y-49667066D01*
X103143645Y-49651090D01*
X103139522Y-49634631D01*
X103137033Y-49617847D01*
X103136200Y-49600900D01*
X103136200Y-49205100D01*
X103137033Y-49188153D01*
X103139522Y-49171369D01*
X103143645Y-49154910D01*
X103149361Y-49138934D01*
X103156616Y-49123596D01*
X103165339Y-49109042D01*
X103175446Y-49095413D01*
X103186841Y-49082841D01*
X103199413Y-49071446D01*
X103213042Y-49061339D01*
X103227596Y-49052616D01*
X103242934Y-49045361D01*
X103258910Y-49039645D01*
X103275369Y-49035522D01*
X103292153Y-49033033D01*
X103309100Y-49032200D01*
X103654900Y-49032200D01*
X103671847Y-49033033D01*
X103671847Y-49033033D01*
G37*
D16*
X103482000Y-49403000D03*
D14*
G36*
X100369847Y-58939033D02*
G01*
X100386631Y-58941522D01*
X100403090Y-58945645D01*
X100419066Y-58951361D01*
X100434404Y-58958616D01*
X100448958Y-58967339D01*
X100462587Y-58977446D01*
X100475159Y-58988841D01*
X100486554Y-59001413D01*
X100496661Y-59015042D01*
X100505384Y-59029596D01*
X100512639Y-59044934D01*
X100518355Y-59060910D01*
X100522478Y-59077369D01*
X100524967Y-59094153D01*
X100525800Y-59111100D01*
X100525800Y-59506900D01*
X100524967Y-59523847D01*
X100522478Y-59540631D01*
X100518355Y-59557090D01*
X100512639Y-59573066D01*
X100505384Y-59588404D01*
X100496661Y-59602958D01*
X100486554Y-59616587D01*
X100475159Y-59629159D01*
X100462587Y-59640554D01*
X100448958Y-59650661D01*
X100434404Y-59659384D01*
X100419066Y-59666639D01*
X100403090Y-59672355D01*
X100386631Y-59676478D01*
X100369847Y-59678967D01*
X100352900Y-59679800D01*
X100007100Y-59679800D01*
X99990153Y-59678967D01*
X99973369Y-59676478D01*
X99956910Y-59672355D01*
X99940934Y-59666639D01*
X99925596Y-59659384D01*
X99911042Y-59650661D01*
X99897413Y-59640554D01*
X99884841Y-59629159D01*
X99873446Y-59616587D01*
X99863339Y-59602958D01*
X99854616Y-59588404D01*
X99847361Y-59573066D01*
X99841645Y-59557090D01*
X99837522Y-59540631D01*
X99835033Y-59523847D01*
X99834200Y-59506900D01*
X99834200Y-59111100D01*
X99835033Y-59094153D01*
X99837522Y-59077369D01*
X99841645Y-59060910D01*
X99847361Y-59044934D01*
X99854616Y-59029596D01*
X99863339Y-59015042D01*
X99873446Y-59001413D01*
X99884841Y-58988841D01*
X99897413Y-58977446D01*
X99911042Y-58967339D01*
X99925596Y-58958616D01*
X99940934Y-58951361D01*
X99956910Y-58945645D01*
X99973369Y-58941522D01*
X99990153Y-58939033D01*
X100007100Y-58938200D01*
X100352900Y-58938200D01*
X100369847Y-58939033D01*
X100369847Y-58939033D01*
G37*
D16*
X100180000Y-59309000D03*
D14*
G36*
X99399847Y-58939033D02*
G01*
X99416631Y-58941522D01*
X99433090Y-58945645D01*
X99449066Y-58951361D01*
X99464404Y-58958616D01*
X99478958Y-58967339D01*
X99492587Y-58977446D01*
X99505159Y-58988841D01*
X99516554Y-59001413D01*
X99526661Y-59015042D01*
X99535384Y-59029596D01*
X99542639Y-59044934D01*
X99548355Y-59060910D01*
X99552478Y-59077369D01*
X99554967Y-59094153D01*
X99555800Y-59111100D01*
X99555800Y-59506900D01*
X99554967Y-59523847D01*
X99552478Y-59540631D01*
X99548355Y-59557090D01*
X99542639Y-59573066D01*
X99535384Y-59588404D01*
X99526661Y-59602958D01*
X99516554Y-59616587D01*
X99505159Y-59629159D01*
X99492587Y-59640554D01*
X99478958Y-59650661D01*
X99464404Y-59659384D01*
X99449066Y-59666639D01*
X99433090Y-59672355D01*
X99416631Y-59676478D01*
X99399847Y-59678967D01*
X99382900Y-59679800D01*
X99037100Y-59679800D01*
X99020153Y-59678967D01*
X99003369Y-59676478D01*
X98986910Y-59672355D01*
X98970934Y-59666639D01*
X98955596Y-59659384D01*
X98941042Y-59650661D01*
X98927413Y-59640554D01*
X98914841Y-59629159D01*
X98903446Y-59616587D01*
X98893339Y-59602958D01*
X98884616Y-59588404D01*
X98877361Y-59573066D01*
X98871645Y-59557090D01*
X98867522Y-59540631D01*
X98865033Y-59523847D01*
X98864200Y-59506900D01*
X98864200Y-59111100D01*
X98865033Y-59094153D01*
X98867522Y-59077369D01*
X98871645Y-59060910D01*
X98877361Y-59044934D01*
X98884616Y-59029596D01*
X98893339Y-59015042D01*
X98903446Y-59001413D01*
X98914841Y-58988841D01*
X98927413Y-58977446D01*
X98941042Y-58967339D01*
X98955596Y-58958616D01*
X98970934Y-58951361D01*
X98986910Y-58945645D01*
X99003369Y-58941522D01*
X99020153Y-58939033D01*
X99037100Y-58938200D01*
X99382900Y-58938200D01*
X99399847Y-58939033D01*
X99399847Y-58939033D01*
G37*
D16*
X99210000Y-59309000D03*
D14*
G36*
X115975347Y-55494533D02*
G01*
X115992131Y-55497022D01*
X116008590Y-55501145D01*
X116024566Y-55506861D01*
X116039904Y-55514116D01*
X116054458Y-55522839D01*
X116068087Y-55532946D01*
X116080659Y-55544341D01*
X116092054Y-55556913D01*
X116102161Y-55570542D01*
X116110884Y-55585096D01*
X116118139Y-55600434D01*
X116123855Y-55616410D01*
X116127978Y-55632869D01*
X116130467Y-55649653D01*
X116131300Y-55666600D01*
X116131300Y-56012400D01*
X116130467Y-56029347D01*
X116127978Y-56046131D01*
X116123855Y-56062590D01*
X116118139Y-56078566D01*
X116110884Y-56093904D01*
X116102161Y-56108458D01*
X116092054Y-56122087D01*
X116080659Y-56134659D01*
X116068087Y-56146054D01*
X116054458Y-56156161D01*
X116039904Y-56164884D01*
X116024566Y-56172139D01*
X116008590Y-56177855D01*
X115992131Y-56181978D01*
X115975347Y-56184467D01*
X115958400Y-56185300D01*
X115562600Y-56185300D01*
X115545653Y-56184467D01*
X115528869Y-56181978D01*
X115512410Y-56177855D01*
X115496434Y-56172139D01*
X115481096Y-56164884D01*
X115466542Y-56156161D01*
X115452913Y-56146054D01*
X115440341Y-56134659D01*
X115428946Y-56122087D01*
X115418839Y-56108458D01*
X115410116Y-56093904D01*
X115402861Y-56078566D01*
X115397145Y-56062590D01*
X115393022Y-56046131D01*
X115390533Y-56029347D01*
X115389700Y-56012400D01*
X115389700Y-55666600D01*
X115390533Y-55649653D01*
X115393022Y-55632869D01*
X115397145Y-55616410D01*
X115402861Y-55600434D01*
X115410116Y-55585096D01*
X115418839Y-55570542D01*
X115428946Y-55556913D01*
X115440341Y-55544341D01*
X115452913Y-55532946D01*
X115466542Y-55522839D01*
X115481096Y-55514116D01*
X115496434Y-55506861D01*
X115512410Y-55501145D01*
X115528869Y-55497022D01*
X115545653Y-55494533D01*
X115562600Y-55493700D01*
X115958400Y-55493700D01*
X115975347Y-55494533D01*
X115975347Y-55494533D01*
G37*
D16*
X115760500Y-55839500D03*
D14*
G36*
X115975347Y-56464533D02*
G01*
X115992131Y-56467022D01*
X116008590Y-56471145D01*
X116024566Y-56476861D01*
X116039904Y-56484116D01*
X116054458Y-56492839D01*
X116068087Y-56502946D01*
X116080659Y-56514341D01*
X116092054Y-56526913D01*
X116102161Y-56540542D01*
X116110884Y-56555096D01*
X116118139Y-56570434D01*
X116123855Y-56586410D01*
X116127978Y-56602869D01*
X116130467Y-56619653D01*
X116131300Y-56636600D01*
X116131300Y-56982400D01*
X116130467Y-56999347D01*
X116127978Y-57016131D01*
X116123855Y-57032590D01*
X116118139Y-57048566D01*
X116110884Y-57063904D01*
X116102161Y-57078458D01*
X116092054Y-57092087D01*
X116080659Y-57104659D01*
X116068087Y-57116054D01*
X116054458Y-57126161D01*
X116039904Y-57134884D01*
X116024566Y-57142139D01*
X116008590Y-57147855D01*
X115992131Y-57151978D01*
X115975347Y-57154467D01*
X115958400Y-57155300D01*
X115562600Y-57155300D01*
X115545653Y-57154467D01*
X115528869Y-57151978D01*
X115512410Y-57147855D01*
X115496434Y-57142139D01*
X115481096Y-57134884D01*
X115466542Y-57126161D01*
X115452913Y-57116054D01*
X115440341Y-57104659D01*
X115428946Y-57092087D01*
X115418839Y-57078458D01*
X115410116Y-57063904D01*
X115402861Y-57048566D01*
X115397145Y-57032590D01*
X115393022Y-57016131D01*
X115390533Y-56999347D01*
X115389700Y-56982400D01*
X115389700Y-56636600D01*
X115390533Y-56619653D01*
X115393022Y-56602869D01*
X115397145Y-56586410D01*
X115402861Y-56570434D01*
X115410116Y-56555096D01*
X115418839Y-56540542D01*
X115428946Y-56526913D01*
X115440341Y-56514341D01*
X115452913Y-56502946D01*
X115466542Y-56492839D01*
X115481096Y-56484116D01*
X115496434Y-56476861D01*
X115512410Y-56471145D01*
X115528869Y-56467022D01*
X115545653Y-56464533D01*
X115562600Y-56463700D01*
X115958400Y-56463700D01*
X115975347Y-56464533D01*
X115975347Y-56464533D01*
G37*
D16*
X115760500Y-56809500D03*
D14*
G36*
X102701847Y-51573033D02*
G01*
X102718631Y-51575522D01*
X102735090Y-51579645D01*
X102751066Y-51585361D01*
X102766404Y-51592616D01*
X102780958Y-51601339D01*
X102794587Y-51611446D01*
X102807159Y-51622841D01*
X102818554Y-51635413D01*
X102828661Y-51649042D01*
X102837384Y-51663596D01*
X102844639Y-51678934D01*
X102850355Y-51694910D01*
X102854478Y-51711369D01*
X102856967Y-51728153D01*
X102857800Y-51745100D01*
X102857800Y-52140900D01*
X102856967Y-52157847D01*
X102854478Y-52174631D01*
X102850355Y-52191090D01*
X102844639Y-52207066D01*
X102837384Y-52222404D01*
X102828661Y-52236958D01*
X102818554Y-52250587D01*
X102807159Y-52263159D01*
X102794587Y-52274554D01*
X102780958Y-52284661D01*
X102766404Y-52293384D01*
X102751066Y-52300639D01*
X102735090Y-52306355D01*
X102718631Y-52310478D01*
X102701847Y-52312967D01*
X102684900Y-52313800D01*
X102339100Y-52313800D01*
X102322153Y-52312967D01*
X102305369Y-52310478D01*
X102288910Y-52306355D01*
X102272934Y-52300639D01*
X102257596Y-52293384D01*
X102243042Y-52284661D01*
X102229413Y-52274554D01*
X102216841Y-52263159D01*
X102205446Y-52250587D01*
X102195339Y-52236958D01*
X102186616Y-52222404D01*
X102179361Y-52207066D01*
X102173645Y-52191090D01*
X102169522Y-52174631D01*
X102167033Y-52157847D01*
X102166200Y-52140900D01*
X102166200Y-51745100D01*
X102167033Y-51728153D01*
X102169522Y-51711369D01*
X102173645Y-51694910D01*
X102179361Y-51678934D01*
X102186616Y-51663596D01*
X102195339Y-51649042D01*
X102205446Y-51635413D01*
X102216841Y-51622841D01*
X102229413Y-51611446D01*
X102243042Y-51601339D01*
X102257596Y-51592616D01*
X102272934Y-51585361D01*
X102288910Y-51579645D01*
X102305369Y-51575522D01*
X102322153Y-51573033D01*
X102339100Y-51572200D01*
X102684900Y-51572200D01*
X102701847Y-51573033D01*
X102701847Y-51573033D01*
G37*
D16*
X102512000Y-51943000D03*
D14*
G36*
X103671847Y-51573033D02*
G01*
X103688631Y-51575522D01*
X103705090Y-51579645D01*
X103721066Y-51585361D01*
X103736404Y-51592616D01*
X103750958Y-51601339D01*
X103764587Y-51611446D01*
X103777159Y-51622841D01*
X103788554Y-51635413D01*
X103798661Y-51649042D01*
X103807384Y-51663596D01*
X103814639Y-51678934D01*
X103820355Y-51694910D01*
X103824478Y-51711369D01*
X103826967Y-51728153D01*
X103827800Y-51745100D01*
X103827800Y-52140900D01*
X103826967Y-52157847D01*
X103824478Y-52174631D01*
X103820355Y-52191090D01*
X103814639Y-52207066D01*
X103807384Y-52222404D01*
X103798661Y-52236958D01*
X103788554Y-52250587D01*
X103777159Y-52263159D01*
X103764587Y-52274554D01*
X103750958Y-52284661D01*
X103736404Y-52293384D01*
X103721066Y-52300639D01*
X103705090Y-52306355D01*
X103688631Y-52310478D01*
X103671847Y-52312967D01*
X103654900Y-52313800D01*
X103309100Y-52313800D01*
X103292153Y-52312967D01*
X103275369Y-52310478D01*
X103258910Y-52306355D01*
X103242934Y-52300639D01*
X103227596Y-52293384D01*
X103213042Y-52284661D01*
X103199413Y-52274554D01*
X103186841Y-52263159D01*
X103175446Y-52250587D01*
X103165339Y-52236958D01*
X103156616Y-52222404D01*
X103149361Y-52207066D01*
X103143645Y-52191090D01*
X103139522Y-52174631D01*
X103137033Y-52157847D01*
X103136200Y-52140900D01*
X103136200Y-51745100D01*
X103137033Y-51728153D01*
X103139522Y-51711369D01*
X103143645Y-51694910D01*
X103149361Y-51678934D01*
X103156616Y-51663596D01*
X103165339Y-51649042D01*
X103175446Y-51635413D01*
X103186841Y-51622841D01*
X103199413Y-51611446D01*
X103213042Y-51601339D01*
X103227596Y-51592616D01*
X103242934Y-51585361D01*
X103258910Y-51579645D01*
X103275369Y-51575522D01*
X103292153Y-51573033D01*
X103309100Y-51572200D01*
X103654900Y-51572200D01*
X103671847Y-51573033D01*
X103671847Y-51573033D01*
G37*
D16*
X103482000Y-51943000D03*
D14*
G36*
X113069847Y-49604533D02*
G01*
X113086631Y-49607022D01*
X113103090Y-49611145D01*
X113119066Y-49616861D01*
X113134404Y-49624116D01*
X113148958Y-49632839D01*
X113162587Y-49642946D01*
X113175159Y-49654341D01*
X113186554Y-49666913D01*
X113196661Y-49680542D01*
X113205384Y-49695096D01*
X113212639Y-49710434D01*
X113218355Y-49726410D01*
X113222478Y-49742869D01*
X113224967Y-49759653D01*
X113225800Y-49776600D01*
X113225800Y-50172400D01*
X113224967Y-50189347D01*
X113222478Y-50206131D01*
X113218355Y-50222590D01*
X113212639Y-50238566D01*
X113205384Y-50253904D01*
X113196661Y-50268458D01*
X113186554Y-50282087D01*
X113175159Y-50294659D01*
X113162587Y-50306054D01*
X113148958Y-50316161D01*
X113134404Y-50324884D01*
X113119066Y-50332139D01*
X113103090Y-50337855D01*
X113086631Y-50341978D01*
X113069847Y-50344467D01*
X113052900Y-50345300D01*
X112707100Y-50345300D01*
X112690153Y-50344467D01*
X112673369Y-50341978D01*
X112656910Y-50337855D01*
X112640934Y-50332139D01*
X112625596Y-50324884D01*
X112611042Y-50316161D01*
X112597413Y-50306054D01*
X112584841Y-50294659D01*
X112573446Y-50282087D01*
X112563339Y-50268458D01*
X112554616Y-50253904D01*
X112547361Y-50238566D01*
X112541645Y-50222590D01*
X112537522Y-50206131D01*
X112535033Y-50189347D01*
X112534200Y-50172400D01*
X112534200Y-49776600D01*
X112535033Y-49759653D01*
X112537522Y-49742869D01*
X112541645Y-49726410D01*
X112547361Y-49710434D01*
X112554616Y-49695096D01*
X112563339Y-49680542D01*
X112573446Y-49666913D01*
X112584841Y-49654341D01*
X112597413Y-49642946D01*
X112611042Y-49632839D01*
X112625596Y-49624116D01*
X112640934Y-49616861D01*
X112656910Y-49611145D01*
X112673369Y-49607022D01*
X112690153Y-49604533D01*
X112707100Y-49603700D01*
X113052900Y-49603700D01*
X113069847Y-49604533D01*
X113069847Y-49604533D01*
G37*
D16*
X112880000Y-49974500D03*
D14*
G36*
X112099847Y-49604533D02*
G01*
X112116631Y-49607022D01*
X112133090Y-49611145D01*
X112149066Y-49616861D01*
X112164404Y-49624116D01*
X112178958Y-49632839D01*
X112192587Y-49642946D01*
X112205159Y-49654341D01*
X112216554Y-49666913D01*
X112226661Y-49680542D01*
X112235384Y-49695096D01*
X112242639Y-49710434D01*
X112248355Y-49726410D01*
X112252478Y-49742869D01*
X112254967Y-49759653D01*
X112255800Y-49776600D01*
X112255800Y-50172400D01*
X112254967Y-50189347D01*
X112252478Y-50206131D01*
X112248355Y-50222590D01*
X112242639Y-50238566D01*
X112235384Y-50253904D01*
X112226661Y-50268458D01*
X112216554Y-50282087D01*
X112205159Y-50294659D01*
X112192587Y-50306054D01*
X112178958Y-50316161D01*
X112164404Y-50324884D01*
X112149066Y-50332139D01*
X112133090Y-50337855D01*
X112116631Y-50341978D01*
X112099847Y-50344467D01*
X112082900Y-50345300D01*
X111737100Y-50345300D01*
X111720153Y-50344467D01*
X111703369Y-50341978D01*
X111686910Y-50337855D01*
X111670934Y-50332139D01*
X111655596Y-50324884D01*
X111641042Y-50316161D01*
X111627413Y-50306054D01*
X111614841Y-50294659D01*
X111603446Y-50282087D01*
X111593339Y-50268458D01*
X111584616Y-50253904D01*
X111577361Y-50238566D01*
X111571645Y-50222590D01*
X111567522Y-50206131D01*
X111565033Y-50189347D01*
X111564200Y-50172400D01*
X111564200Y-49776600D01*
X111565033Y-49759653D01*
X111567522Y-49742869D01*
X111571645Y-49726410D01*
X111577361Y-49710434D01*
X111584616Y-49695096D01*
X111593339Y-49680542D01*
X111603446Y-49666913D01*
X111614841Y-49654341D01*
X111627413Y-49642946D01*
X111641042Y-49632839D01*
X111655596Y-49624116D01*
X111670934Y-49616861D01*
X111686910Y-49611145D01*
X111703369Y-49607022D01*
X111720153Y-49604533D01*
X111737100Y-49603700D01*
X112082900Y-49603700D01*
X112099847Y-49604533D01*
X112099847Y-49604533D01*
G37*
D16*
X111910000Y-49974500D03*
M02*
