G04 #@! TF.GenerationSoftware,KiCad,Pcbnew,(5.1.4)-1*
G04 #@! TF.CreationDate,2019-10-25T18:14:47-07:00*
G04 #@! TF.ProjectId,SolarCellX_v3,536f6c61-7243-4656-9c6c-585f76332e6b,rev?*
G04 #@! TF.SameCoordinates,Original*
G04 #@! TF.FileFunction,Legend,Bot*
G04 #@! TF.FilePolarity,Positive*
%FSLAX46Y46*%
G04 Gerber Fmt 4.6, Leading zero omitted, Abs format (unit mm)*
G04 Created by KiCad (PCBNEW (5.1.4)-1) date 2019-10-25 18:14:47*
%MOMM*%
%LPD*%
G04 APERTURE LIST*
%ADD10C,0.150000*%
%ADD11C,0.050000*%
%ADD12C,0.200000*%
%ADD13C,0.120000*%
%ADD14C,0.250000*%
%ADD15C,0.254000*%
%ADD16C,0.127000*%
%ADD17C,0.101600*%
G04 APERTURE END LIST*
D10*
X103496857Y-66397142D02*
X103544476Y-66444761D01*
X103687333Y-66492380D01*
X103782571Y-66492380D01*
X103925428Y-66444761D01*
X104020666Y-66349523D01*
X104068285Y-66254285D01*
X104115904Y-66063809D01*
X104115904Y-65920952D01*
X104068285Y-65730476D01*
X104020666Y-65635238D01*
X103925428Y-65540000D01*
X103782571Y-65492380D01*
X103687333Y-65492380D01*
X103544476Y-65540000D01*
X103496857Y-65587619D01*
X102925428Y-66492380D02*
X103020666Y-66444761D01*
X103068285Y-66397142D01*
X103115904Y-66301904D01*
X103115904Y-66016190D01*
X103068285Y-65920952D01*
X103020666Y-65873333D01*
X102925428Y-65825714D01*
X102782571Y-65825714D01*
X102687333Y-65873333D01*
X102639714Y-65920952D01*
X102592095Y-66016190D01*
X102592095Y-66301904D01*
X102639714Y-66397142D01*
X102687333Y-66444761D01*
X102782571Y-66492380D01*
X102925428Y-66492380D01*
X102163523Y-66492380D02*
X102163523Y-65825714D01*
X102163523Y-65492380D02*
X102211142Y-65540000D01*
X102163523Y-65587619D01*
X102115904Y-65540000D01*
X102163523Y-65492380D01*
X102163523Y-65587619D01*
X101544476Y-66492380D02*
X101639714Y-66444761D01*
X101687333Y-66349523D01*
X101687333Y-65492380D01*
X100401619Y-66111428D02*
X99639714Y-66111428D01*
X103496857Y-63857142D02*
X103544476Y-63904761D01*
X103687333Y-63952380D01*
X103782571Y-63952380D01*
X103925428Y-63904761D01*
X104020666Y-63809523D01*
X104068285Y-63714285D01*
X104115904Y-63523809D01*
X104115904Y-63380952D01*
X104068285Y-63190476D01*
X104020666Y-63095238D01*
X103925428Y-63000000D01*
X103782571Y-62952380D01*
X103687333Y-62952380D01*
X103544476Y-63000000D01*
X103496857Y-63047619D01*
X102925428Y-63952380D02*
X103020666Y-63904761D01*
X103068285Y-63857142D01*
X103115904Y-63761904D01*
X103115904Y-63476190D01*
X103068285Y-63380952D01*
X103020666Y-63333333D01*
X102925428Y-63285714D01*
X102782571Y-63285714D01*
X102687333Y-63333333D01*
X102639714Y-63380952D01*
X102592095Y-63476190D01*
X102592095Y-63761904D01*
X102639714Y-63857142D01*
X102687333Y-63904761D01*
X102782571Y-63952380D01*
X102925428Y-63952380D01*
X102163523Y-63952380D02*
X102163523Y-63285714D01*
X102163523Y-62952380D02*
X102211142Y-63000000D01*
X102163523Y-63047619D01*
X102115904Y-63000000D01*
X102163523Y-62952380D01*
X102163523Y-63047619D01*
X101544476Y-63952380D02*
X101639714Y-63904761D01*
X101687333Y-63809523D01*
X101687333Y-62952380D01*
X100401619Y-63571428D02*
X99639714Y-63571428D01*
X100020666Y-63952380D02*
X100020666Y-63190476D01*
D11*
X96200000Y-47000000D02*
G75*
G03X96200000Y-47000000I-1100000J0D01*
G01*
X96200000Y-81400000D02*
G75*
G03X96200000Y-81400000I-1100000J0D01*
G01*
X136000000Y-81400000D02*
G75*
G03X136000000Y-81400000I-1100000J0D01*
G01*
X136000000Y-47000000D02*
G75*
G03X136000000Y-47000000I-1100000J0D01*
G01*
X90000000Y-88400000D02*
X138400000Y-88400000D01*
X90000000Y-88400000D02*
X90000000Y-40000000D01*
X138400000Y-40000000D02*
X138400000Y-88400000D01*
X90000000Y-40000000D02*
X138400000Y-40000000D01*
D12*
X99549500Y-58346000D02*
G75*
G03X99549500Y-58346000I-19000J0D01*
G01*
D13*
X112778000Y-47843221D02*
X112778000Y-48168779D01*
X111758000Y-47843221D02*
X111758000Y-48168779D01*
X118010721Y-53846000D02*
X118336279Y-53846000D01*
X118010721Y-54866000D02*
X118336279Y-54866000D01*
D14*
X104868660Y-52894656D02*
G75*
G03X104868660Y-52894656I-125000J0D01*
G01*
D12*
X114102500Y-53668000D02*
G75*
G03X114102500Y-53668000I-19000J0D01*
G01*
X116205000Y-52256000D02*
X116205000Y-50706000D01*
X116205000Y-43756000D02*
X116205000Y-45306000D01*
X116205000Y-52256000D02*
X119055000Y-52256000D01*
X116205000Y-43756000D02*
X119055000Y-43756000D01*
X121085000Y-43756000D02*
X121085000Y-52256000D01*
D13*
X117883721Y-56259000D02*
X118209279Y-56259000D01*
X117883721Y-57279000D02*
X118209279Y-57279000D01*
D15*
X108282740Y-55973980D02*
G75*
G03X108282740Y-55973980I-127000J0D01*
G01*
D16*
X111375190Y-57923430D02*
X110016290Y-57923430D01*
X110016290Y-54024530D02*
X111375190Y-54024530D01*
D15*
X100393500Y-56007000D02*
G75*
G03X100393500Y-56007000I-127000J0D01*
G01*
D16*
X103485950Y-57956450D02*
X102127050Y-57956450D01*
X102127050Y-54057550D02*
X103485950Y-54057550D01*
D13*
X106707721Y-58799000D02*
X107033279Y-58799000D01*
X106707721Y-59819000D02*
X107033279Y-59819000D01*
D17*
X98452214Y-55952571D02*
X97690214Y-55952571D01*
X97690214Y-56134000D01*
X97726500Y-56242857D01*
X97799071Y-56315428D01*
X97871642Y-56351714D01*
X98016785Y-56388000D01*
X98125642Y-56388000D01*
X98270785Y-56351714D01*
X98343357Y-56315428D01*
X98415928Y-56242857D01*
X98452214Y-56134000D01*
X98452214Y-55952571D01*
X97690214Y-56642000D02*
X97690214Y-57113714D01*
X97980500Y-56859714D01*
X97980500Y-56968571D01*
X98016785Y-57041142D01*
X98053071Y-57077428D01*
X98125642Y-57113714D01*
X98307071Y-57113714D01*
X98379642Y-57077428D01*
X98415928Y-57041142D01*
X98452214Y-56968571D01*
X98452214Y-56750857D01*
X98415928Y-56678285D01*
X98379642Y-56642000D01*
X112603642Y-45720000D02*
X112639928Y-45683714D01*
X112676214Y-45574857D01*
X112676214Y-45502285D01*
X112639928Y-45393428D01*
X112567357Y-45320857D01*
X112494785Y-45284571D01*
X112349642Y-45248285D01*
X112240785Y-45248285D01*
X112095642Y-45284571D01*
X112023071Y-45320857D01*
X111950500Y-45393428D01*
X111914214Y-45502285D01*
X111914214Y-45574857D01*
X111950500Y-45683714D01*
X111986785Y-45720000D01*
X111914214Y-46373142D02*
X111914214Y-46228000D01*
X111950500Y-46155428D01*
X111986785Y-46119142D01*
X112095642Y-46046571D01*
X112240785Y-46010285D01*
X112531071Y-46010285D01*
X112603642Y-46046571D01*
X112639928Y-46082857D01*
X112676214Y-46155428D01*
X112676214Y-46300571D01*
X112639928Y-46373142D01*
X112603642Y-46409428D01*
X112531071Y-46445714D01*
X112349642Y-46445714D01*
X112277071Y-46409428D01*
X112240785Y-46373142D01*
X112204500Y-46300571D01*
X112204500Y-46155428D01*
X112240785Y-46082857D01*
X112277071Y-46046571D01*
X112349642Y-46010285D01*
X107061000Y-57104642D02*
X107097285Y-57140928D01*
X107206142Y-57177214D01*
X107278714Y-57177214D01*
X107387571Y-57140928D01*
X107460142Y-57068357D01*
X107496428Y-56995785D01*
X107532714Y-56850642D01*
X107532714Y-56741785D01*
X107496428Y-56596642D01*
X107460142Y-56524071D01*
X107387571Y-56451500D01*
X107278714Y-56415214D01*
X107206142Y-56415214D01*
X107097285Y-56451500D01*
X107061000Y-56487785D01*
X106698142Y-57177214D02*
X106553000Y-57177214D01*
X106480428Y-57140928D01*
X106444142Y-57104642D01*
X106371571Y-56995785D01*
X106335285Y-56850642D01*
X106335285Y-56560357D01*
X106371571Y-56487785D01*
X106407857Y-56451500D01*
X106480428Y-56415214D01*
X106625571Y-56415214D01*
X106698142Y-56451500D01*
X106734428Y-56487785D01*
X106770714Y-56560357D01*
X106770714Y-56741785D01*
X106734428Y-56814357D01*
X106698142Y-56850642D01*
X106625571Y-56886928D01*
X106480428Y-56886928D01*
X106407857Y-56850642D01*
X106371571Y-56814357D01*
X106335285Y-56741785D01*
X121393857Y-54661142D02*
X121430142Y-54697428D01*
X121539000Y-54733714D01*
X121611571Y-54733714D01*
X121720428Y-54697428D01*
X121793000Y-54624857D01*
X121829285Y-54552285D01*
X121865571Y-54407142D01*
X121865571Y-54298285D01*
X121829285Y-54153142D01*
X121793000Y-54080571D01*
X121720428Y-54008000D01*
X121611571Y-53971714D01*
X121539000Y-53971714D01*
X121430142Y-54008000D01*
X121393857Y-54044285D01*
X120668142Y-54733714D02*
X121103571Y-54733714D01*
X120885857Y-54733714D02*
X120885857Y-53971714D01*
X120958428Y-54080571D01*
X121031000Y-54153142D01*
X121103571Y-54189428D01*
X120015000Y-54225714D02*
X120015000Y-54733714D01*
X120196428Y-53935428D02*
X120377857Y-54479714D01*
X119906142Y-54479714D01*
X100611214Y-50634174D02*
X99849214Y-50634174D01*
X99849214Y-50815602D01*
X99885500Y-50924460D01*
X99958071Y-50997031D01*
X100030642Y-51033317D01*
X100175785Y-51069602D01*
X100284642Y-51069602D01*
X100429785Y-51033317D01*
X100502357Y-50997031D01*
X100574928Y-50924460D01*
X100611214Y-50815602D01*
X100611214Y-50634174D01*
X100611214Y-51795317D02*
X100611214Y-51359888D01*
X100611214Y-51577602D02*
X99849214Y-51577602D01*
X99958071Y-51505031D01*
X100030642Y-51432460D01*
X100066928Y-51359888D01*
X107474231Y-50727370D02*
X107474231Y-51344227D01*
X107437945Y-51416798D01*
X107401660Y-51453084D01*
X107329088Y-51489370D01*
X107183945Y-51489370D01*
X107111374Y-51453084D01*
X107075088Y-51416798D01*
X107038802Y-51344227D01*
X107038802Y-50727370D01*
X106712231Y-50799941D02*
X106675945Y-50763656D01*
X106603374Y-50727370D01*
X106421945Y-50727370D01*
X106349374Y-50763656D01*
X106313088Y-50799941D01*
X106276802Y-50872513D01*
X106276802Y-50945084D01*
X106313088Y-51053941D01*
X106748517Y-51489370D01*
X106276802Y-51489370D01*
X114073214Y-52142571D02*
X113311214Y-52142571D01*
X113311214Y-52324000D01*
X113347500Y-52432857D01*
X113420071Y-52505428D01*
X113492642Y-52541714D01*
X113637785Y-52578000D01*
X113746642Y-52578000D01*
X113891785Y-52541714D01*
X113964357Y-52505428D01*
X114036928Y-52432857D01*
X114073214Y-52324000D01*
X114073214Y-52142571D01*
X113383785Y-52868285D02*
X113347500Y-52904571D01*
X113311214Y-52977142D01*
X113311214Y-53158571D01*
X113347500Y-53231142D01*
X113383785Y-53267428D01*
X113456357Y-53303714D01*
X113528928Y-53303714D01*
X113637785Y-53267428D01*
X114073214Y-52832000D01*
X114073214Y-53303714D01*
X103632000Y-46826714D02*
X103886000Y-46463857D01*
X104067428Y-46826714D02*
X104067428Y-46064714D01*
X103777142Y-46064714D01*
X103704571Y-46101000D01*
X103668285Y-46137285D01*
X103632000Y-46209857D01*
X103632000Y-46318714D01*
X103668285Y-46391285D01*
X103704571Y-46427571D01*
X103777142Y-46463857D01*
X104067428Y-46463857D01*
X102978857Y-46064714D02*
X103124000Y-46064714D01*
X103196571Y-46101000D01*
X103232857Y-46137285D01*
X103305428Y-46246142D01*
X103341714Y-46391285D01*
X103341714Y-46681571D01*
X103305428Y-46754142D01*
X103269142Y-46790428D01*
X103196571Y-46826714D01*
X103051428Y-46826714D01*
X102978857Y-46790428D01*
X102942571Y-46754142D01*
X102906285Y-46681571D01*
X102906285Y-46500142D01*
X102942571Y-46427571D01*
X102978857Y-46391285D01*
X103051428Y-46355000D01*
X103196571Y-46355000D01*
X103269142Y-46391285D01*
X103305428Y-46427571D01*
X103341714Y-46500142D01*
X105564214Y-44958000D02*
X105201357Y-44704000D01*
X105564214Y-44522571D02*
X104802214Y-44522571D01*
X104802214Y-44812857D01*
X104838500Y-44885428D01*
X104874785Y-44921714D01*
X104947357Y-44958000D01*
X105056214Y-44958000D01*
X105128785Y-44921714D01*
X105165071Y-44885428D01*
X105201357Y-44812857D01*
X105201357Y-44522571D01*
X104802214Y-45647428D02*
X104802214Y-45284571D01*
X105165071Y-45248285D01*
X105128785Y-45284571D01*
X105092500Y-45357142D01*
X105092500Y-45538571D01*
X105128785Y-45611142D01*
X105165071Y-45647428D01*
X105237642Y-45683714D01*
X105419071Y-45683714D01*
X105491642Y-45647428D01*
X105527928Y-45611142D01*
X105564214Y-45538571D01*
X105564214Y-45357142D01*
X105527928Y-45284571D01*
X105491642Y-45248285D01*
X104421214Y-60470142D02*
X104058357Y-60216142D01*
X104421214Y-60034714D02*
X103659214Y-60034714D01*
X103659214Y-60325000D01*
X103695500Y-60397571D01*
X103731785Y-60433857D01*
X103804357Y-60470142D01*
X103913214Y-60470142D01*
X103985785Y-60433857D01*
X104022071Y-60397571D01*
X104058357Y-60325000D01*
X104058357Y-60034714D01*
X104421214Y-61195857D02*
X104421214Y-60760428D01*
X104421214Y-60978142D02*
X103659214Y-60978142D01*
X103768071Y-60905571D01*
X103840642Y-60833000D01*
X103876928Y-60760428D01*
X103659214Y-61849000D02*
X103659214Y-61703857D01*
X103695500Y-61631285D01*
X103731785Y-61595000D01*
X103840642Y-61522428D01*
X103985785Y-61486142D01*
X104276071Y-61486142D01*
X104348642Y-61522428D01*
X104384928Y-61558714D01*
X104421214Y-61631285D01*
X104421214Y-61776428D01*
X104384928Y-61849000D01*
X104348642Y-61885285D01*
X104276071Y-61921571D01*
X104094642Y-61921571D01*
X104022071Y-61885285D01*
X103985785Y-61849000D01*
X103949500Y-61776428D01*
X103949500Y-61631285D01*
X103985785Y-61558714D01*
X104022071Y-61522428D01*
X104094642Y-61486142D01*
X107061000Y-55136142D02*
X107097285Y-55172428D01*
X107206142Y-55208714D01*
X107278714Y-55208714D01*
X107387571Y-55172428D01*
X107460142Y-55099857D01*
X107496428Y-55027285D01*
X107532714Y-54882142D01*
X107532714Y-54773285D01*
X107496428Y-54628142D01*
X107460142Y-54555571D01*
X107387571Y-54483000D01*
X107278714Y-54446714D01*
X107206142Y-54446714D01*
X107097285Y-54483000D01*
X107061000Y-54519285D01*
X106625571Y-54773285D02*
X106698142Y-54737000D01*
X106734428Y-54700714D01*
X106770714Y-54628142D01*
X106770714Y-54591857D01*
X106734428Y-54519285D01*
X106698142Y-54483000D01*
X106625571Y-54446714D01*
X106480428Y-54446714D01*
X106407857Y-54483000D01*
X106371571Y-54519285D01*
X106335285Y-54591857D01*
X106335285Y-54628142D01*
X106371571Y-54700714D01*
X106407857Y-54737000D01*
X106480428Y-54773285D01*
X106625571Y-54773285D01*
X106698142Y-54809571D01*
X106734428Y-54845857D01*
X106770714Y-54918428D01*
X106770714Y-55063571D01*
X106734428Y-55136142D01*
X106698142Y-55172428D01*
X106625571Y-55208714D01*
X106480428Y-55208714D01*
X106407857Y-55172428D01*
X106371571Y-55136142D01*
X106335285Y-55063571D01*
X106335285Y-54918428D01*
X106371571Y-54845857D01*
X106407857Y-54809571D01*
X106480428Y-54773285D01*
X118471754Y-47380140D02*
X119016040Y-47380140D01*
X119124897Y-47343854D01*
X119197468Y-47271282D01*
X119233754Y-47162425D01*
X119233754Y-47089854D01*
X119233754Y-48142140D02*
X119233754Y-47706711D01*
X119233754Y-47924425D02*
X118471754Y-47924425D01*
X118580611Y-47851854D01*
X118653182Y-47779282D01*
X118689468Y-47706711D01*
X121266857Y-57074142D02*
X121303142Y-57110428D01*
X121412000Y-57146714D01*
X121484571Y-57146714D01*
X121593428Y-57110428D01*
X121666000Y-57037857D01*
X121702285Y-56965285D01*
X121738571Y-56820142D01*
X121738571Y-56711285D01*
X121702285Y-56566142D01*
X121666000Y-56493571D01*
X121593428Y-56421000D01*
X121484571Y-56384714D01*
X121412000Y-56384714D01*
X121303142Y-56421000D01*
X121266857Y-56457285D01*
X120541142Y-57146714D02*
X120976571Y-57146714D01*
X120758857Y-57146714D02*
X120758857Y-56384714D01*
X120831428Y-56493571D01*
X120904000Y-56566142D01*
X120976571Y-56602428D01*
X120250857Y-56457285D02*
X120214571Y-56421000D01*
X120142000Y-56384714D01*
X119960571Y-56384714D01*
X119888000Y-56421000D01*
X119851714Y-56457285D01*
X119815428Y-56529857D01*
X119815428Y-56602428D01*
X119851714Y-56711285D01*
X120287142Y-57146714D01*
X119815428Y-57146714D01*
X115143642Y-51961142D02*
X115179928Y-51924857D01*
X115216214Y-51816000D01*
X115216214Y-51743428D01*
X115179928Y-51634571D01*
X115107357Y-51562000D01*
X115034785Y-51525714D01*
X114889642Y-51489428D01*
X114780785Y-51489428D01*
X114635642Y-51525714D01*
X114563071Y-51562000D01*
X114490500Y-51634571D01*
X114454214Y-51743428D01*
X114454214Y-51816000D01*
X114490500Y-51924857D01*
X114526785Y-51961142D01*
X115216214Y-52686857D02*
X115216214Y-52251428D01*
X115216214Y-52469142D02*
X114454214Y-52469142D01*
X114563071Y-52396571D01*
X114635642Y-52324000D01*
X114671928Y-52251428D01*
X114454214Y-52940857D02*
X114454214Y-53412571D01*
X114744500Y-53158571D01*
X114744500Y-53267428D01*
X114780785Y-53340000D01*
X114817071Y-53376285D01*
X114889642Y-53412571D01*
X115071071Y-53412571D01*
X115143642Y-53376285D01*
X115179928Y-53340000D01*
X115216214Y-53267428D01*
X115216214Y-53049714D01*
X115179928Y-52977142D01*
X115143642Y-52940857D01*
X106834214Y-44958000D02*
X106471357Y-44704000D01*
X106834214Y-44522571D02*
X106072214Y-44522571D01*
X106072214Y-44812857D01*
X106108500Y-44885428D01*
X106144785Y-44921714D01*
X106217357Y-44958000D01*
X106326214Y-44958000D01*
X106398785Y-44921714D01*
X106435071Y-44885428D01*
X106471357Y-44812857D01*
X106471357Y-44522571D01*
X106072214Y-45212000D02*
X106072214Y-45720000D01*
X106834214Y-45393428D01*
X110852857Y-46736214D02*
X111106857Y-46373357D01*
X111288285Y-46736214D02*
X111288285Y-45974214D01*
X110998000Y-45974214D01*
X110925428Y-46010500D01*
X110889142Y-46046785D01*
X110852857Y-46119357D01*
X110852857Y-46228214D01*
X110889142Y-46300785D01*
X110925428Y-46337071D01*
X110998000Y-46373357D01*
X111288285Y-46373357D01*
X110127142Y-46736214D02*
X110562571Y-46736214D01*
X110344857Y-46736214D02*
X110344857Y-45974214D01*
X110417428Y-46083071D01*
X110490000Y-46155642D01*
X110562571Y-46191928D01*
X109401428Y-46736214D02*
X109836857Y-46736214D01*
X109619142Y-46736214D02*
X109619142Y-45974214D01*
X109691714Y-46083071D01*
X109764285Y-46155642D01*
X109836857Y-46191928D01*
X110490000Y-44196214D02*
X110744000Y-43833357D01*
X110925428Y-44196214D02*
X110925428Y-43434214D01*
X110635142Y-43434214D01*
X110562571Y-43470500D01*
X110526285Y-43506785D01*
X110490000Y-43579357D01*
X110490000Y-43688214D01*
X110526285Y-43760785D01*
X110562571Y-43797071D01*
X110635142Y-43833357D01*
X110925428Y-43833357D01*
X110127142Y-44196214D02*
X109982000Y-44196214D01*
X109909428Y-44159928D01*
X109873142Y-44123642D01*
X109800571Y-44014785D01*
X109764285Y-43869642D01*
X109764285Y-43579357D01*
X109800571Y-43506785D01*
X109836857Y-43470500D01*
X109909428Y-43434214D01*
X110054571Y-43434214D01*
X110127142Y-43470500D01*
X110163428Y-43506785D01*
X110199714Y-43579357D01*
X110199714Y-43760785D01*
X110163428Y-43833357D01*
X110127142Y-43869642D01*
X110054571Y-43905928D01*
X109909428Y-43905928D01*
X109836857Y-43869642D01*
X109800571Y-43833357D01*
X109764285Y-43760785D01*
X110852857Y-45466214D02*
X111106857Y-45103357D01*
X111288285Y-45466214D02*
X111288285Y-44704214D01*
X110998000Y-44704214D01*
X110925428Y-44740500D01*
X110889142Y-44776785D01*
X110852857Y-44849357D01*
X110852857Y-44958214D01*
X110889142Y-45030785D01*
X110925428Y-45067071D01*
X110998000Y-45103357D01*
X111288285Y-45103357D01*
X110127142Y-45466214D02*
X110562571Y-45466214D01*
X110344857Y-45466214D02*
X110344857Y-44704214D01*
X110417428Y-44813071D01*
X110490000Y-44885642D01*
X110562571Y-44921928D01*
X109655428Y-44704214D02*
X109582857Y-44704214D01*
X109510285Y-44740500D01*
X109474000Y-44776785D01*
X109437714Y-44849357D01*
X109401428Y-44994500D01*
X109401428Y-45175928D01*
X109437714Y-45321071D01*
X109474000Y-45393642D01*
X109510285Y-45429928D01*
X109582857Y-45466214D01*
X109655428Y-45466214D01*
X109728000Y-45429928D01*
X109764285Y-45393642D01*
X109800571Y-45321071D01*
X109836857Y-45175928D01*
X109836857Y-44994500D01*
X109800571Y-44849357D01*
X109764285Y-44776785D01*
X109728000Y-44740500D01*
X109655428Y-44704214D01*
X108267500Y-46609214D02*
X108521500Y-46246357D01*
X108702928Y-46609214D02*
X108702928Y-45847214D01*
X108412642Y-45847214D01*
X108340071Y-45883500D01*
X108303785Y-45919785D01*
X108267500Y-45992357D01*
X108267500Y-46101214D01*
X108303785Y-46173785D01*
X108340071Y-46210071D01*
X108412642Y-46246357D01*
X108702928Y-46246357D01*
X107832071Y-46173785D02*
X107904642Y-46137500D01*
X107940928Y-46101214D01*
X107977214Y-46028642D01*
X107977214Y-45992357D01*
X107940928Y-45919785D01*
X107904642Y-45883500D01*
X107832071Y-45847214D01*
X107686928Y-45847214D01*
X107614357Y-45883500D01*
X107578071Y-45919785D01*
X107541785Y-45992357D01*
X107541785Y-46028642D01*
X107578071Y-46101214D01*
X107614357Y-46137500D01*
X107686928Y-46173785D01*
X107832071Y-46173785D01*
X107904642Y-46210071D01*
X107940928Y-46246357D01*
X107977214Y-46318928D01*
X107977214Y-46464071D01*
X107940928Y-46536642D01*
X107904642Y-46572928D01*
X107832071Y-46609214D01*
X107686928Y-46609214D01*
X107614357Y-46572928D01*
X107578071Y-46536642D01*
X107541785Y-46464071D01*
X107541785Y-46318928D01*
X107578071Y-46246357D01*
X107614357Y-46210071D01*
X107686928Y-46173785D01*
X101391357Y-49747714D02*
X101645357Y-49384857D01*
X101826785Y-49747714D02*
X101826785Y-48985714D01*
X101536500Y-48985714D01*
X101463928Y-49022000D01*
X101427642Y-49058285D01*
X101391357Y-49130857D01*
X101391357Y-49239714D01*
X101427642Y-49312285D01*
X101463928Y-49348571D01*
X101536500Y-49384857D01*
X101826785Y-49384857D01*
X100665642Y-49747714D02*
X101101071Y-49747714D01*
X100883357Y-49747714D02*
X100883357Y-48985714D01*
X100955928Y-49094571D01*
X101028500Y-49167142D01*
X101101071Y-49203428D01*
X100012500Y-49239714D02*
X100012500Y-49747714D01*
X100193928Y-48949428D02*
X100375357Y-49493714D01*
X99903642Y-49493714D01*
X102135214Y-60470142D02*
X101772357Y-60216142D01*
X102135214Y-60034714D02*
X101373214Y-60034714D01*
X101373214Y-60325000D01*
X101409500Y-60397571D01*
X101445785Y-60433857D01*
X101518357Y-60470142D01*
X101627214Y-60470142D01*
X101699785Y-60433857D01*
X101736071Y-60397571D01*
X101772357Y-60325000D01*
X101772357Y-60034714D01*
X102135214Y-61195857D02*
X102135214Y-60760428D01*
X102135214Y-60978142D02*
X101373214Y-60978142D01*
X101482071Y-60905571D01*
X101554642Y-60833000D01*
X101590928Y-60760428D01*
X101373214Y-61885285D02*
X101373214Y-61522428D01*
X101736071Y-61486142D01*
X101699785Y-61522428D01*
X101663500Y-61595000D01*
X101663500Y-61776428D01*
X101699785Y-61849000D01*
X101736071Y-61885285D01*
X101808642Y-61921571D01*
X101990071Y-61921571D01*
X102062642Y-61885285D01*
X102098928Y-61849000D01*
X102135214Y-61776428D01*
X102135214Y-61595000D01*
X102098928Y-61522428D01*
X102062642Y-61486142D01*
X113882714Y-44087142D02*
X113519857Y-43833142D01*
X113882714Y-43651714D02*
X113120714Y-43651714D01*
X113120714Y-43942000D01*
X113157000Y-44014571D01*
X113193285Y-44050857D01*
X113265857Y-44087142D01*
X113374714Y-44087142D01*
X113447285Y-44050857D01*
X113483571Y-44014571D01*
X113519857Y-43942000D01*
X113519857Y-43651714D01*
X113882714Y-44812857D02*
X113882714Y-44377428D01*
X113882714Y-44595142D02*
X113120714Y-44595142D01*
X113229571Y-44522571D01*
X113302142Y-44450000D01*
X113338428Y-44377428D01*
X113120714Y-45066857D02*
X113120714Y-45574857D01*
X113882714Y-45248285D01*
X115089214Y-44087142D02*
X114726357Y-43833142D01*
X115089214Y-43651714D02*
X114327214Y-43651714D01*
X114327214Y-43942000D01*
X114363500Y-44014571D01*
X114399785Y-44050857D01*
X114472357Y-44087142D01*
X114581214Y-44087142D01*
X114653785Y-44050857D01*
X114690071Y-44014571D01*
X114726357Y-43942000D01*
X114726357Y-43651714D01*
X115089214Y-44812857D02*
X115089214Y-44377428D01*
X115089214Y-44595142D02*
X114327214Y-44595142D01*
X114436071Y-44522571D01*
X114508642Y-44450000D01*
X114544928Y-44377428D01*
X114653785Y-45248285D02*
X114617500Y-45175714D01*
X114581214Y-45139428D01*
X114508642Y-45103142D01*
X114472357Y-45103142D01*
X114399785Y-45139428D01*
X114363500Y-45175714D01*
X114327214Y-45248285D01*
X114327214Y-45393428D01*
X114363500Y-45466000D01*
X114399785Y-45502285D01*
X114472357Y-45538571D01*
X114508642Y-45538571D01*
X114581214Y-45502285D01*
X114617500Y-45466000D01*
X114653785Y-45393428D01*
X114653785Y-45248285D01*
X114690071Y-45175714D01*
X114726357Y-45139428D01*
X114798928Y-45103142D01*
X114944071Y-45103142D01*
X115016642Y-45139428D01*
X115052928Y-45175714D01*
X115089214Y-45248285D01*
X115089214Y-45393428D01*
X115052928Y-45466000D01*
X115016642Y-45502285D01*
X114944071Y-45538571D01*
X114798928Y-45538571D01*
X114726357Y-45502285D01*
X114690071Y-45466000D01*
X114653785Y-45393428D01*
X110490000Y-52160714D02*
X110744000Y-51797857D01*
X110925428Y-52160714D02*
X110925428Y-51398714D01*
X110635142Y-51398714D01*
X110562571Y-51435000D01*
X110526285Y-51471285D01*
X110490000Y-51543857D01*
X110490000Y-51652714D01*
X110526285Y-51725285D01*
X110562571Y-51761571D01*
X110635142Y-51797857D01*
X110925428Y-51797857D01*
X109764285Y-52160714D02*
X110199714Y-52160714D01*
X109982000Y-52160714D02*
X109982000Y-51398714D01*
X110054571Y-51507571D01*
X110127142Y-51580142D01*
X110199714Y-51616428D01*
X107360357Y-60914642D02*
X107396642Y-60950928D01*
X107505500Y-60987214D01*
X107578071Y-60987214D01*
X107686928Y-60950928D01*
X107759500Y-60878357D01*
X107795785Y-60805785D01*
X107832071Y-60660642D01*
X107832071Y-60551785D01*
X107795785Y-60406642D01*
X107759500Y-60334071D01*
X107686928Y-60261500D01*
X107578071Y-60225214D01*
X107505500Y-60225214D01*
X107396642Y-60261500D01*
X107360357Y-60297785D01*
X106634642Y-60987214D02*
X107070071Y-60987214D01*
X106852357Y-60987214D02*
X106852357Y-60225214D01*
X106924928Y-60334071D01*
X106997500Y-60406642D01*
X107070071Y-60442928D01*
X105908928Y-60987214D02*
X106344357Y-60987214D01*
X106126642Y-60987214D02*
X106126642Y-60225214D01*
X106199214Y-60334071D01*
X106271785Y-60406642D01*
X106344357Y-60442928D01*
X109728000Y-53485142D02*
X109764285Y-53521428D01*
X109873142Y-53557714D01*
X109945714Y-53557714D01*
X110054571Y-53521428D01*
X110127142Y-53448857D01*
X110163428Y-53376285D01*
X110199714Y-53231142D01*
X110199714Y-53122285D01*
X110163428Y-52977142D01*
X110127142Y-52904571D01*
X110054571Y-52832000D01*
X109945714Y-52795714D01*
X109873142Y-52795714D01*
X109764285Y-52832000D01*
X109728000Y-52868285D01*
X109474000Y-52795714D02*
X108966000Y-52795714D01*
X109292571Y-53557714D01*
X101473000Y-48595642D02*
X101509285Y-48631928D01*
X101618142Y-48668214D01*
X101690714Y-48668214D01*
X101799571Y-48631928D01*
X101872142Y-48559357D01*
X101908428Y-48486785D01*
X101944714Y-48341642D01*
X101944714Y-48232785D01*
X101908428Y-48087642D01*
X101872142Y-48015071D01*
X101799571Y-47942500D01*
X101690714Y-47906214D01*
X101618142Y-47906214D01*
X101509285Y-47942500D01*
X101473000Y-47978785D01*
X100819857Y-48160214D02*
X100819857Y-48668214D01*
X101001285Y-47869928D02*
X101182714Y-48414214D01*
X100711000Y-48414214D01*
X99967142Y-60515500D02*
X100003428Y-60479214D01*
X100039714Y-60370357D01*
X100039714Y-60297785D01*
X100003428Y-60188928D01*
X99930857Y-60116357D01*
X99858285Y-60080071D01*
X99713142Y-60043785D01*
X99604285Y-60043785D01*
X99459142Y-60080071D01*
X99386571Y-60116357D01*
X99314000Y-60188928D01*
X99277714Y-60297785D01*
X99277714Y-60370357D01*
X99314000Y-60479214D01*
X99350285Y-60515500D01*
X99350285Y-60805785D02*
X99314000Y-60842071D01*
X99277714Y-60914642D01*
X99277714Y-61096071D01*
X99314000Y-61168642D01*
X99350285Y-61204928D01*
X99422857Y-61241214D01*
X99495428Y-61241214D01*
X99604285Y-61204928D01*
X100039714Y-60769500D01*
X100039714Y-61241214D01*
X116032642Y-58120642D02*
X116068928Y-58084357D01*
X116105214Y-57975500D01*
X116105214Y-57902928D01*
X116068928Y-57794071D01*
X115996357Y-57721500D01*
X115923785Y-57685214D01*
X115778642Y-57648928D01*
X115669785Y-57648928D01*
X115524642Y-57685214D01*
X115452071Y-57721500D01*
X115379500Y-57794071D01*
X115343214Y-57902928D01*
X115343214Y-57975500D01*
X115379500Y-58084357D01*
X115415785Y-58120642D01*
X116105214Y-58846357D02*
X116105214Y-58410928D01*
X116105214Y-58628642D02*
X115343214Y-58628642D01*
X115452071Y-58556071D01*
X115524642Y-58483500D01*
X115560928Y-58410928D01*
X115343214Y-59318071D02*
X115343214Y-59390642D01*
X115379500Y-59463214D01*
X115415785Y-59499500D01*
X115488357Y-59535785D01*
X115633500Y-59572071D01*
X115814928Y-59572071D01*
X115960071Y-59535785D01*
X116032642Y-59499500D01*
X116068928Y-59463214D01*
X116105214Y-59390642D01*
X116105214Y-59318071D01*
X116068928Y-59245500D01*
X116032642Y-59209214D01*
X115960071Y-59172928D01*
X115814928Y-59136642D01*
X115633500Y-59136642D01*
X115488357Y-59172928D01*
X115415785Y-59209214D01*
X115379500Y-59245500D01*
X115343214Y-59318071D01*
X103124000Y-53294642D02*
X103160285Y-53330928D01*
X103269142Y-53367214D01*
X103341714Y-53367214D01*
X103450571Y-53330928D01*
X103523142Y-53258357D01*
X103559428Y-53185785D01*
X103595714Y-53040642D01*
X103595714Y-52931785D01*
X103559428Y-52786642D01*
X103523142Y-52714071D01*
X103450571Y-52641500D01*
X103341714Y-52605214D01*
X103269142Y-52605214D01*
X103160285Y-52641500D01*
X103124000Y-52677785D01*
X102870000Y-52605214D02*
X102398285Y-52605214D01*
X102652285Y-52895500D01*
X102543428Y-52895500D01*
X102470857Y-52931785D01*
X102434571Y-52968071D01*
X102398285Y-53040642D01*
X102398285Y-53222071D01*
X102434571Y-53294642D01*
X102470857Y-53330928D01*
X102543428Y-53367214D01*
X102761142Y-53367214D01*
X102833714Y-53330928D01*
X102870000Y-53294642D01*
X112522000Y-51416642D02*
X112558285Y-51452928D01*
X112667142Y-51489214D01*
X112739714Y-51489214D01*
X112848571Y-51452928D01*
X112921142Y-51380357D01*
X112957428Y-51307785D01*
X112993714Y-51162642D01*
X112993714Y-51053785D01*
X112957428Y-50908642D01*
X112921142Y-50836071D01*
X112848571Y-50763500D01*
X112739714Y-50727214D01*
X112667142Y-50727214D01*
X112558285Y-50763500D01*
X112522000Y-50799785D01*
X111796285Y-51489214D02*
X112231714Y-51489214D01*
X112014000Y-51489214D02*
X112014000Y-50727214D01*
X112086571Y-50836071D01*
X112159142Y-50908642D01*
X112231714Y-50944928D01*
M02*
