<?xml version="1.0" standalone="no"?>
 <!DOCTYPE svg PUBLIC "-//W3C//DTD SVG 1.1//EN" 
 "http://www.w3.org/Graphics/SVG/1.1/DTD/svg11.dtd"> 
<svg xmlns="http://www.w3.org/2000/svg" version="1.1" 
    width="15.9817cm" height="9.46912cm" viewBox="0 0 62920 37280 ">
<title>SVG Picture created as SolarCell+Y-B_Paste.svg date 2019/11/01 14:39:14 </title>
  <desc>Picture generated by PCBNEW </desc>
<g style="fill:#000000; fill-opacity:1;stroke:#000000; stroke-opacity:1;
stroke-linecap:round; stroke-linejoin:round; "
 transform="translate(0 0) scale(1 1)">
</g>
<g style="fill:#000000; fill-opacity:0.0; 
stroke:#000000; stroke-width:-0.000393701; stroke-opacity:1; 
stroke-linecap:round; stroke-linejoin:round;">
<g >
</g>
<g >
</g>
<g >
</g>
<g style="fill:#000000; fill-opacity:0.0; 
stroke:#000000; stroke-width:-0.000393701; stroke-opacity:1; 
stroke-linecap:round; stroke-linejoin:round;">
</g>
<g style="fill:#000000; fill-opacity:0.0; 
stroke:#000000; stroke-width:0; stroke-opacity:1; 
stroke-linecap:round; stroke-linejoin:round;">
</g>
<g style="fill:#000000; fill-opacity:1.0; 
stroke:#000000; stroke-width:0; stroke-opacity:1; 
stroke-linecap:round; stroke-linejoin:round;">
<path style="fill:#000000; fill-opacity:1.0; 
stroke:#000000; stroke-width:0; stroke-opacity:1; 
stroke-linecap:round; stroke-linejoin:round;fill-rule:evenodd;"
d="M 6909,7686
6915,7686
6920,7688
6925,7690
6931,7692
6936,7695
6940,7699
6944,7702
6948,7707
6952,7711
6954,7716
6957,7721
6959,7727
6960,7732
6961,7738
6961,7743
6961,7879
6961,7885
6960,7891
6959,7896
6957,7901
6954,7907
6952,7911
6948,7916
6944,7920
6940,7924
6936,7928
6931,7930
6925,7933
6920,7935
6915,7936
6909,7937
6903,7937
6787,7937
6781,7937
6776,7936
6770,7935
6765,7933
6760,7930
6755,7928
6750,7924
6746,7920
6742,7916
6739,7911
6736,7907
6733,7901
6732,7896
6730,7891
6729,7885
6729,7879
6729,7743
6729,7738
6730,7732
6732,7727
6733,7721
6736,7716
6739,7711
6742,7707
6746,7702
6750,7699
6755,7695
6760,7692
6765,7690
6770,7688
6776,7686
6781,7686
6787,7685
6903,7685
6909,7686
Z" /> 
<path style="fill:#000000; fill-opacity:1.0; 
stroke:#000000; stroke-width:0; stroke-opacity:1; 
stroke-linecap:round; stroke-linejoin:round;fill-rule:evenodd;"
d="M 6527,7686
6533,7686
6538,7688
6544,7690
6549,7692
6554,7695
6558,7699
6562,7702
6566,7707
6570,7711
6573,7716
6575,7721
6577,7727
6578,7732
6579,7738
6579,7743
6579,7879
6579,7885
6578,7891
6577,7896
6575,7901
6573,7907
6570,7911
6566,7916
6562,7920
6558,7924
6554,7928
6549,7930
6544,7933
6538,7935
6533,7936
6527,7937
6521,7937
6405,7937
6400,7937
6394,7936
6388,7935
6383,7933
6378,7930
6373,7928
6368,7924
6364,7920
6360,7916
6357,7911
6354,7907
6352,7901
6350,7896
6348,7891
6347,7885
6347,7879
6347,7743
6347,7738
6348,7732
6350,7727
6352,7721
6354,7716
6357,7711
6360,7707
6364,7702
6368,7699
6373,7695
6378,7692
6383,7690
6388,7688
6394,7686
6400,7686
6405,7685
6521,7685
6527,7686
Z" /> 
</g>
<g >
</g>
<g style="fill:#000000; fill-opacity:1.0; 
stroke:#000000; stroke-width:0; stroke-opacity:1; 
stroke-linecap:round; stroke-linejoin:round;">
<path style="fill:#000000; fill-opacity:1.0; 
stroke:#000000; stroke-width:0; stroke-opacity:1; 
stroke-linecap:round; stroke-linejoin:round;fill-rule:evenodd;"
d="M 6914,7050
6922,7051
6930,7053
6938,7056
6946,7059
6953,7064
6960,7069
6966,7075
6972,7081
6977,7088
6981,7095
6985,7102
6988,7110
6990,7119
6991,7127
6991,7135
6991,7337
6991,7346
6990,7354
6988,7362
6985,7370
6981,7378
6977,7385
6972,7392
6966,7398
6960,7404
6953,7409
6946,7413
6938,7417
6930,7420
6922,7422
6914,7423
6905,7423
6733,7423
6725,7423
6716,7422
6708,7420
6700,7417
6692,7413
6685,7409
6678,7404
6672,7398
6666,7392
6661,7385
6657,7378
6653,7370
6651,7362
6649,7354
6647,7346
6647,7337
6647,7135
6647,7127
6649,7119
6651,7110
6653,7102
6657,7095
6661,7088
6666,7081
6672,7075
6678,7069
6685,7064
6692,7059
6700,7056
6708,7053
6716,7051
6725,7050
6733,7049
6905,7049
6914,7050
Z" /> 
<path style="fill:#000000; fill-opacity:1.0; 
stroke:#000000; stroke-width:0; stroke-opacity:1; 
stroke-linecap:round; stroke-linejoin:round;fill-rule:evenodd;"
d="M 7534,7050
7542,7051
7550,7053
7558,7056
7566,7059
7573,7064
7580,7069
7586,7075
7592,7081
7597,7088
7601,7095
7605,7102
7608,7110
7610,7119
7611,7127
7612,7135
7612,7337
7611,7346
7610,7354
7608,7362
7605,7370
7601,7378
7597,7385
7592,7392
7586,7398
7580,7404
7573,7409
7566,7413
7558,7417
7550,7420
7542,7422
7534,7423
7525,7423
7353,7423
7345,7423
7336,7422
7328,7420
7320,7417
7313,7413
7305,7409
7299,7404
7292,7398
7287,7392
7282,7385
7277,7378
7274,7370
7271,7362
7269,7354
7267,7346
7267,7337
7267,7135
7267,7127
7269,7119
7271,7110
7274,7102
7277,7095
7282,7088
7287,7081
7292,7075
7299,7069
7305,7064
7313,7059
7320,7056
7328,7053
7336,7051
7345,7050
7353,7049
7525,7049
7534,7050
Z" /> 
</g>
<g >
</g>
<g style="fill:#000000; fill-opacity:1.0; 
stroke:#000000; stroke-width:0; stroke-opacity:1; 
stroke-linecap:round; stroke-linejoin:round;">
<path style="fill:#000000; fill-opacity:1.0; 
stroke:#000000; stroke-width:0; stroke-opacity:1; 
stroke-linecap:round; stroke-linejoin:round;fill-rule:evenodd;"
d="M 13412,6671
13412,6986
13097,6986
13097,6671
13412,6671
Z" /> 
<path style="fill:#000000; fill-opacity:1.0; 
stroke:#000000; stroke-width:0; stroke-opacity:1; 
stroke-linecap:round; stroke-linejoin:round;fill-rule:evenodd;"
d="M 13471,5687
13471,6474
13038,6474
13038,5687
13471,5687
Z" /> 
</g>
<g >
</g>
<g style="fill:#000000; fill-opacity:1.0; 
stroke:#000000; stroke-width:0; stroke-opacity:1; 
stroke-linecap:round; stroke-linejoin:round;">
<path style="fill:#000000; fill-opacity:1.0; 
stroke:#000000; stroke-width:0; stroke-opacity:1; 
stroke-linecap:round; stroke-linejoin:round;fill-rule:evenodd;"
d="M 3899,5911
3899,5241
4489,5241
4489,5911
3899,5911
Z" /> 
<path style="fill:#000000; fill-opacity:1.0; 
stroke:#000000; stroke-width:0; stroke-opacity:1; 
stroke-linecap:round; stroke-linejoin:round;fill-rule:evenodd;"
d="M 3899,8981
3899,8312
4489,8312
4489,8981
3899,8981
Z" /> 
<path style="fill:#000000; fill-opacity:1.0; 
stroke:#000000; stroke-width:0; stroke-opacity:1; 
stroke-linecap:round; stroke-linejoin:round;fill-rule:evenodd;"
d="M 5946,6275
5513,6275
5513,6176
5946,6176
5946,6275
Z" /> 
<path style="fill:#000000; fill-opacity:1.0; 
stroke:#000000; stroke-width:0; stroke-opacity:1; 
stroke-linecap:round; stroke-linejoin:round;fill-rule:evenodd;"
d="M 5946,6472
5513,6472
5513,6373
5946,6373
5946,6472
Z" /> 
<path style="fill:#000000; fill-opacity:1.0; 
stroke:#000000; stroke-width:0; stroke-opacity:1; 
stroke-linecap:round; stroke-linejoin:round;fill-rule:evenodd;"
d="M 5946,6668
5513,6668
5513,6570
5946,6570
5946,6668
Z" /> 
<path style="fill:#000000; fill-opacity:1.0; 
stroke:#000000; stroke-width:0; stroke-opacity:1; 
stroke-linecap:round; stroke-linejoin:round;fill-rule:evenodd;"
d="M 5946,6865
5513,6865
5513,6767
5946,6767
5946,6865
Z" /> 
<path style="fill:#000000; fill-opacity:1.0; 
stroke:#000000; stroke-width:0; stroke-opacity:1; 
stroke-linecap:round; stroke-linejoin:round;fill-rule:evenodd;"
d="M 5946,7062
5513,7062
5513,6964
5946,6964
5946,7062
Z" /> 
<path style="fill:#000000; fill-opacity:1.0; 
stroke:#000000; stroke-width:0; stroke-opacity:1; 
stroke-linecap:round; stroke-linejoin:round;fill-rule:evenodd;"
d="M 5946,7259
5513,7259
5513,7161
5946,7161
5946,7259
Z" /> 
<path style="fill:#000000; fill-opacity:1.0; 
stroke:#000000; stroke-width:0; stroke-opacity:1; 
stroke-linecap:round; stroke-linejoin:round;fill-rule:evenodd;"
d="M 5946,7456
5513,7456
5513,7357
5946,7357
5946,7456
Z" /> 
<path style="fill:#000000; fill-opacity:1.0; 
stroke:#000000; stroke-width:0; stroke-opacity:1; 
stroke-linecap:round; stroke-linejoin:round;fill-rule:evenodd;"
d="M 5946,7653
5513,7653
5513,7554
5946,7554
5946,7653
Z" /> 
<path style="fill:#000000; fill-opacity:1.0; 
stroke:#000000; stroke-width:0; stroke-opacity:1; 
stroke-linecap:round; stroke-linejoin:round;fill-rule:evenodd;"
d="M 5946,7850
5513,7850
5513,7751
5946,7751
5946,7850
Z" /> 
<path style="fill:#000000; fill-opacity:1.0; 
stroke:#000000; stroke-width:0; stroke-opacity:1; 
stroke-linecap:round; stroke-linejoin:round;fill-rule:evenodd;"
d="M 5946,8046
5513,8046
5513,7948
5946,7948
5946,8046
Z" /> 
</g>
<g >
</g>
<g >
</g>
<g style="fill:#000000; fill-opacity:1.0; 
stroke:#000000; stroke-width:0; stroke-opacity:1; 
stroke-linecap:round; stroke-linejoin:round;">
<path style="fill:#000000; fill-opacity:1.0; 
stroke:#000000; stroke-width:0; stroke-opacity:1; 
stroke-linecap:round; stroke-linejoin:round;fill-rule:evenodd;"
d="M 9788,11145
9591,11145
9591,11027
9788,11027
9788,11145
Z" /> 
<path style="fill:#000000; fill-opacity:1.0; 
stroke:#000000; stroke-width:0; stroke-opacity:1; 
stroke-linecap:round; stroke-linejoin:round;fill-rule:evenodd;"
d="M 9788,10929
9591,10929
9591,10811
9788,10811
9788,10929
Z" /> 
<path style="fill:#000000; fill-opacity:1.0; 
stroke:#000000; stroke-width:0; stroke-opacity:1; 
stroke-linecap:round; stroke-linejoin:round;fill-rule:evenodd;"
d="M 9788,11362
9591,11362
9591,11244
9788,11244
9788,11362
Z" /> 
<path style="fill:#000000; fill-opacity:1.0; 
stroke:#000000; stroke-width:0; stroke-opacity:1; 
stroke-linecap:round; stroke-linejoin:round;fill-rule:evenodd;"
d="M 10182,10929
9985,10929
9985,10811
10182,10811
10182,10929
Z" /> 
<path style="fill:#000000; fill-opacity:1.0; 
stroke:#000000; stroke-width:0; stroke-opacity:1; 
stroke-linecap:round; stroke-linejoin:round;fill-rule:evenodd;"
d="M 10182,11362
9985,11362
9985,11244
10182,11244
10182,11362
Z" /> 
<path style="fill:#000000; fill-opacity:1.0; 
stroke:#000000; stroke-width:0; stroke-opacity:1; 
stroke-linecap:round; stroke-linejoin:round;fill-rule:evenodd;"
d="M 10182,11145
9985,11145
9985,11027
10182,11027
10182,11145
Z" /> 
</g>
<g >
</g>
<g >
</g>
<g style="fill:#000000; fill-opacity:1.0; 
stroke:#000000; stroke-width:0; stroke-opacity:1; 
stroke-linecap:round; stroke-linejoin:round;">
<path style="fill:#000000; fill-opacity:1.0; 
stroke:#000000; stroke-width:0; stroke-opacity:1; 
stroke-linecap:round; stroke-linejoin:round;fill-rule:evenodd;"
d="M 9498,11754
9911,11754
9911,12168
9498,12168
9498,11754
Z" /> 
<path style="fill:#000000; fill-opacity:1.0; 
stroke:#000000; stroke-width:0; stroke-opacity:1; 
stroke-linecap:round; stroke-linejoin:round;fill-rule:evenodd;"
d="M 10078,13004
10078,12118
10492,12118
10492,13004
10078,13004
Z" /> 
<path style="fill:#000000; fill-opacity:1.0; 
stroke:#000000; stroke-width:0; stroke-opacity:1; 
stroke-linecap:round; stroke-linejoin:round;fill-rule:evenodd;"
d="M 8917,13004
8917,12118
9330,12118
9330,13004
8917,13004
Z" /> 
</g>
<g >
</g>
<g >
</g>
<g >
</g>
<g >
</g>
<g >
</g>
<g >
</g>
<g >
</g>
<g >
</g>
<g >
</g>
<g >
</g>
<g >
</g>
<g >
</g>
<g >
</g>
<g >
</g>
<g >
</g>
<g >
</g>
<g >
</g>
<g >
</g>
<g style="fill:#000000; fill-opacity:1.0; 
stroke:#000000; stroke-width:0; stroke-opacity:1; 
stroke-linecap:round; stroke-linejoin:round;">
<path style="fill:#000000; fill-opacity:1.0; 
stroke:#000000; stroke-width:0; stroke-opacity:1; 
stroke-linecap:round; stroke-linejoin:round;fill-rule:evenodd;"
d="M 7714,8225
7722,8226
7730,8228
7738,8231
7746,8234
7753,8239
7760,8244
7766,8249
7772,8256
7777,8262
7781,8270
7785,8277
7788,8285
7790,8293
7791,8302
7791,8310
7791,8482
7791,8491
7790,8499
7788,8507
7785,8515
7781,8523
7777,8530
7772,8537
7766,8543
7760,8549
7753,8554
7746,8558
7738,8562
7730,8565
7722,8567
7714,8568
7705,8569
7503,8569
7495,8568
7487,8567
7478,8565
7470,8562
7463,8558
7455,8554
7449,8549
7442,8543
7437,8537
7432,8530
7427,8523
7424,8515
7421,8507
7419,8499
7418,8491
7417,8482
7417,8310
7418,8302
7419,8293
7421,8285
7424,8277
7427,8270
7432,8262
7437,8256
7442,8249
7449,8244
7455,8239
7463,8234
7470,8231
7478,8228
7487,8226
7495,8225
7503,8224
7705,8224
7714,8225
Z" /> 
<path style="fill:#000000; fill-opacity:1.0; 
stroke:#000000; stroke-width:0; stroke-opacity:1; 
stroke-linecap:round; stroke-linejoin:round;fill-rule:evenodd;"
d="M 7714,7604
7722,7606
7730,7608
7738,7611
7746,7614
7753,7619
7760,7624
7766,7629
7772,7636
7777,7642
7781,7650
7785,7657
7788,7665
7790,7673
7791,7682
7791,7690
7791,7862
7791,7871
7790,7879
7788,7887
7785,7895
7781,7903
7777,7910
7772,7917
7766,7923
7760,7929
7753,7934
7746,7938
7738,7942
7730,7945
7722,7947
7714,7948
7705,7949
7503,7949
7495,7948
7487,7947
7478,7945
7470,7942
7463,7938
7455,7934
7449,7929
7442,7923
7437,7917
7432,7910
7427,7903
7424,7895
7421,7887
7419,7879
7418,7871
7417,7862
7417,7690
7418,7682
7419,7673
7421,7665
7424,7657
7427,7650
7432,7642
7437,7636
7442,7629
7449,7624
7455,7619
7463,7614
7470,7611
7478,7608
7487,7606
7495,7604
7503,7604
7705,7604
7714,7604
Z" /> 
</g>
<g >
</g>
<g style="fill:#000000; fill-opacity:1.0; 
stroke:#000000; stroke-width:0; stroke-opacity:1; 
stroke-linecap:round; stroke-linejoin:round;">
<path style="fill:#000000; fill-opacity:1.0; 
stroke:#000000; stroke-width:0; stroke-opacity:1; 
stroke-linecap:round; stroke-linejoin:round;fill-rule:evenodd;"
d="M 10135,5625
10141,5626
10146,5627
10152,5629
10157,5631
10162,5634
10166,5638
10170,5642
10174,5646
10178,5650
10181,5655
10183,5660
10185,5666
10186,5671
10187,5677
10187,5683
10187,5819
10187,5824
10186,5830
10185,5835
10183,5841
10181,5846
10178,5851
10174,5855
10170,5860
10166,5863
10162,5867
10157,5870
10152,5872
10146,5874
10141,5875
10135,5876
10129,5877
10013,5877
10008,5876
10002,5875
9996,5874
9991,5872
9986,5870
9981,5867
9976,5863
9972,5860
9968,5855
9965,5851
9962,5846
9960,5841
9958,5835
9956,5830
9955,5824
9955,5819
9955,5683
9955,5677
9956,5671
9958,5666
9960,5660
9962,5655
9965,5650
9968,5646
9972,5642
9976,5638
9981,5634
9986,5631
9991,5629
9996,5627
10002,5626
10008,5625
10013,5625
10129,5625
10135,5625
Z" /> 
<path style="fill:#000000; fill-opacity:1.0; 
stroke:#000000; stroke-width:0; stroke-opacity:1; 
stroke-linecap:round; stroke-linejoin:round;fill-rule:evenodd;"
d="M 10517,5625
10523,5626
10528,5627
10533,5629
10539,5631
10544,5634
10548,5638
10552,5642
10556,5646
10560,5650
10562,5655
10565,5660
10567,5666
10568,5671
10569,5677
10569,5683
10569,5819
10569,5824
10568,5830
10567,5835
10565,5841
10562,5846
10560,5851
10556,5855
10552,5860
10548,5863
10544,5867
10539,5870
10533,5872
10528,5874
10523,5875
10517,5876
10511,5877
10395,5877
10389,5876
10384,5875
10378,5874
10373,5872
10368,5870
10363,5867
10358,5863
10354,5860
10350,5855
10347,5851
10344,5846
10341,5841
10340,5835
10338,5830
10337,5824
10337,5819
10337,5683
10337,5677
10338,5671
10340,5666
10341,5660
10344,5655
10347,5650
10350,5646
10354,5642
10358,5638
10363,5634
10368,5631
10373,5629
10378,5627
10384,5626
10389,5625
10395,5625
10511,5625
10517,5625
Z" /> 
</g>
<g >
</g>
<g style="fill:#000000; fill-opacity:1.0; 
stroke:#000000; stroke-width:0; stroke-opacity:1; 
stroke-linecap:round; stroke-linejoin:round;">
<path style="fill:#000000; fill-opacity:1.0; 
stroke:#000000; stroke-width:0; stroke-opacity:1; 
stroke-linecap:round; stroke-linejoin:round;fill-rule:evenodd;"
d="M 12905,7835
12905,7638
13181,7638
13181,7835
12905,7835
Z" /> 
<path style="fill:#000000; fill-opacity:1.0; 
stroke:#000000; stroke-width:0; stroke-opacity:1; 
stroke-linecap:round; stroke-linejoin:round;fill-rule:evenodd;"
d="M 13417,7835
13417,7638
13693,7638
13693,7835
13417,7835
Z" /> 
</g>
<g >
</g>
<g style="fill:#000000; fill-opacity:1.0; 
stroke:#000000; stroke-width:0; stroke-opacity:1; 
stroke-linecap:round; stroke-linejoin:round;">
<path style="fill:#000000; fill-opacity:1.0; 
stroke:#000000; stroke-width:0; stroke-opacity:1; 
stroke-linecap:round; stroke-linejoin:round;fill-rule:evenodd;"
d="M 10693,7927
10693,8774
9847,8774
9847,7927
10693,7927
Z" /> 
<path style="fill:#000000; fill-opacity:1.0; 
stroke:#000000; stroke-width:0; stroke-opacity:1; 
stroke-linecap:round; stroke-linejoin:round;fill-rule:evenodd;"
d="M 10723,7504
10723,7858
10605,7858
10605,7504
10723,7504
Z" /> 
<path style="fill:#000000; fill-opacity:1.0; 
stroke:#000000; stroke-width:0; stroke-opacity:1; 
stroke-linecap:round; stroke-linejoin:round;fill-rule:evenodd;"
d="M 10526,7504
10526,7858
10408,7858
10408,7504
10526,7504
Z" /> 
<path style="fill:#000000; fill-opacity:1.0; 
stroke:#000000; stroke-width:0; stroke-opacity:1; 
stroke-linecap:round; stroke-linejoin:round;fill-rule:evenodd;"
d="M 10329,7504
10329,7858
10211,7858
10211,7504
10329,7504
Z" /> 
<path style="fill:#000000; fill-opacity:1.0; 
stroke:#000000; stroke-width:0; stroke-opacity:1; 
stroke-linecap:round; stroke-linejoin:round;fill-rule:evenodd;"
d="M 10132,7504
10132,7858
10014,7858
10014,7504
10132,7504
Z" /> 
<path style="fill:#000000; fill-opacity:1.0; 
stroke:#000000; stroke-width:0; stroke-opacity:1; 
stroke-linecap:round; stroke-linejoin:round;fill-rule:evenodd;"
d="M 9935,7504
9935,7858
9817,7858
9817,7504
9935,7504
Z" /> 
<path style="fill:#000000; fill-opacity:1.0; 
stroke:#000000; stroke-width:0; stroke-opacity:1; 
stroke-linecap:round; stroke-linejoin:round;fill-rule:evenodd;"
d="M 9778,8016
9424,8016
9424,7898
9778,7898
9778,8016
Z" /> 
<path style="fill:#000000; fill-opacity:1.0; 
stroke:#000000; stroke-width:0; stroke-opacity:1; 
stroke-linecap:round; stroke-linejoin:round;fill-rule:evenodd;"
d="M 9778,8213
9424,8213
9424,8095
9778,8095
9778,8213
Z" /> 
<path style="fill:#000000; fill-opacity:1.0; 
stroke:#000000; stroke-width:0; stroke-opacity:1; 
stroke-linecap:round; stroke-linejoin:round;fill-rule:evenodd;"
d="M 9778,8410
9424,8410
9424,8292
9778,8292
9778,8410
Z" /> 
<path style="fill:#000000; fill-opacity:1.0; 
stroke:#000000; stroke-width:0; stroke-opacity:1; 
stroke-linecap:round; stroke-linejoin:round;fill-rule:evenodd;"
d="M 9778,8607
9424,8607
9424,8488
9778,8488
9778,8607
Z" /> 
<path style="fill:#000000; fill-opacity:1.0; 
stroke:#000000; stroke-width:0; stroke-opacity:1; 
stroke-linecap:round; stroke-linejoin:round;fill-rule:evenodd;"
d="M 9778,8803
9424,8803
9424,8685
9778,8685
9778,8803
Z" /> 
<path style="fill:#000000; fill-opacity:1.0; 
stroke:#000000; stroke-width:0; stroke-opacity:1; 
stroke-linecap:round; stroke-linejoin:round;fill-rule:evenodd;"
d="M 9935,8843
9935,9197
9817,9197
9817,8843
9935,8843
Z" /> 
<path style="fill:#000000; fill-opacity:1.0; 
stroke:#000000; stroke-width:0; stroke-opacity:1; 
stroke-linecap:round; stroke-linejoin:round;fill-rule:evenodd;"
d="M 10132,8843
10132,9197
10014,9197
10014,8843
10132,8843
Z" /> 
<path style="fill:#000000; fill-opacity:1.0; 
stroke:#000000; stroke-width:0; stroke-opacity:1; 
stroke-linecap:round; stroke-linejoin:round;fill-rule:evenodd;"
d="M 10329,8843
10329,9197
10211,9197
10211,8843
10329,8843
Z" /> 
<path style="fill:#000000; fill-opacity:1.0; 
stroke:#000000; stroke-width:0; stroke-opacity:1; 
stroke-linecap:round; stroke-linejoin:round;fill-rule:evenodd;"
d="M 10526,8843
10526,9197
10408,9197
10408,8843
10526,8843
Z" /> 
<path style="fill:#000000; fill-opacity:1.0; 
stroke:#000000; stroke-width:0; stroke-opacity:1; 
stroke-linecap:round; stroke-linejoin:round;fill-rule:evenodd;"
d="M 10723,8843
10723,9197
10605,9197
10605,8843
10723,8843
Z" /> 
<path style="fill:#000000; fill-opacity:1.0; 
stroke:#000000; stroke-width:0; stroke-opacity:1; 
stroke-linecap:round; stroke-linejoin:round;fill-rule:evenodd;"
d="M 11117,8803
10762,8803
10762,8685
11117,8685
11117,8803
Z" /> 
<path style="fill:#000000; fill-opacity:1.0; 
stroke:#000000; stroke-width:0; stroke-opacity:1; 
stroke-linecap:round; stroke-linejoin:round;fill-rule:evenodd;"
d="M 11117,8607
10762,8607
10762,8488
11117,8488
11117,8607
Z" /> 
<path style="fill:#000000; fill-opacity:1.0; 
stroke:#000000; stroke-width:0; stroke-opacity:1; 
stroke-linecap:round; stroke-linejoin:round;fill-rule:evenodd;"
d="M 11117,8410
10762,8410
10762,8292
11117,8292
11117,8410
Z" /> 
<path style="fill:#000000; fill-opacity:1.0; 
stroke:#000000; stroke-width:0; stroke-opacity:1; 
stroke-linecap:round; stroke-linejoin:round;fill-rule:evenodd;"
d="M 11117,8213
10762,8213
10762,8095
11117,8095
11117,8213
Z" /> 
<path style="fill:#000000; fill-opacity:1.0; 
stroke:#000000; stroke-width:0; stroke-opacity:1; 
stroke-linecap:round; stroke-linejoin:round;fill-rule:evenodd;"
d="M 11117,8016
10762,8016
10762,7898
11117,7898
11117,8016
Z" /> 
</g>
<g >
</g>
<g style="fill:#000000; fill-opacity:1.0; 
stroke:#000000; stroke-width:0; stroke-opacity:1; 
stroke-linecap:round; stroke-linejoin:round;">
<path style="fill:#000000; fill-opacity:1.0; 
stroke:#000000; stroke-width:0; stroke-opacity:1; 
stroke-linecap:round; stroke-linejoin:round;fill-rule:evenodd;"
d="M 7247,5777
7247,5462
7562,5462
7562,5777
7247,5777
Z" /> 
<path style="fill:#000000; fill-opacity:1.0; 
stroke:#000000; stroke-width:0; stroke-opacity:1; 
stroke-linecap:round; stroke-linejoin:round;fill-rule:evenodd;"
d="M 7188,6761
7188,5974
7621,5974
7621,6761
7188,6761
Z" /> 
</g>
<g >
</g>
<g style="fill:#000000; fill-opacity:1.0; 
stroke:#000000; stroke-width:0; stroke-opacity:1; 
stroke-linecap:round; stroke-linejoin:round;">
<path style="fill:#000000; fill-opacity:1.0; 
stroke:#000000; stroke-width:0; stroke-opacity:1; 
stroke-linecap:round; stroke-linejoin:round;fill-rule:evenodd;"
d="M 11528,9755
11533,9755
11539,9757
11544,9759
11550,9761
11554,9764
11559,9767
11563,9771
11567,9775
11570,9780
11573,9785
11576,9790
11578,9795
11579,9801
11580,9807
11580,9812
11580,9928
11580,9934
11579,9940
11578,9945
11576,9951
11573,9956
11570,9961
11567,9965
11563,9969
11559,9973
11554,9977
11550,9980
11544,9982
11539,9984
11533,9985
11528,9986
11522,9987
11386,9987
11381,9986
11375,9985
11369,9984
11364,9982
11359,9980
11354,9977
11349,9973
11345,9969
11341,9965
11338,9961
11335,9956
11333,9951
11331,9945
11329,9940
11329,9934
11328,9928
11328,9812
11329,9807
11329,9801
11331,9795
11333,9790
11335,9785
11338,9780
11341,9775
11345,9771
11349,9767
11354,9764
11359,9761
11364,9759
11369,9757
11375,9755
11381,9755
11386,9754
11522,9754
11528,9755
Z" /> 
<path style="fill:#000000; fill-opacity:1.0; 
stroke:#000000; stroke-width:0; stroke-opacity:1; 
stroke-linecap:round; stroke-linejoin:round;fill-rule:evenodd;"
d="M 11528,10136
11533,10137
11539,10139
11544,10141
11550,10143
11554,10146
11559,10149
11563,10153
11567,10157
11570,10162
11573,10167
11576,10172
11578,10177
11579,10183
11580,10188
11580,10194
11580,10310
11580,10316
11579,10322
11578,10327
11576,10333
11573,10338
11570,10343
11567,10347
11563,10351
11559,10355
11554,10359
11550,10362
11544,10364
11539,10366
11533,10367
11528,10368
11522,10368
11386,10368
11381,10368
11375,10367
11369,10366
11364,10364
11359,10362
11354,10359
11349,10355
11345,10351
11341,10347
11338,10343
11335,10338
11333,10333
11331,10327
11329,10322
11329,10316
11328,10310
11328,10194
11329,10188
11329,10183
11331,10177
11333,10172
11335,10167
11338,10162
11341,10157
11345,10153
11349,10149
11354,10146
11359,10143
11364,10141
11369,10139
11375,10137
11381,10136
11386,10136
11522,10136
11528,10136
Z" /> 
</g>
<g >
</g>
<g style="fill:#000000; fill-opacity:1.0; 
stroke:#000000; stroke-width:0; stroke-opacity:1; 
stroke-linecap:round; stroke-linejoin:round;">
<path style="fill:#000000; fill-opacity:1.0; 
stroke:#000000; stroke-width:0; stroke-opacity:1; 
stroke-linecap:round; stroke-linejoin:round;fill-rule:evenodd;"
d="M 10978,10061
10983,10062
10989,10064
10994,10066
11000,10068
11004,10071
11009,10074
11013,10078
11017,10082
11020,10087
11023,10092
11026,10097
11028,10102
11029,10108
11030,10113
11030,10119
11030,10235
11030,10241
11029,10247
11028,10252
11026,10258
11023,10263
11020,10268
11017,10272
11013,10276
11009,10280
11004,10284
11000,10287
10994,10289
10989,10291
10983,10292
10978,10293
10972,10293
10836,10293
10831,10293
10825,10292
10819,10291
10814,10289
10809,10287
10804,10284
10799,10280
10795,10276
10791,10272
10788,10268
10785,10263
10783,10258
10781,10252
10779,10247
10779,10241
10778,10235
10778,10119
10779,10113
10779,10108
10781,10102
10783,10097
10785,10092
10788,10087
10791,10082
10795,10078
10799,10074
10804,10071
10809,10068
10814,10066
10819,10064
10825,10062
10831,10061
10836,10061
10972,10061
10978,10061
Z" /> 
<path style="fill:#000000; fill-opacity:1.0; 
stroke:#000000; stroke-width:0; stroke-opacity:1; 
stroke-linecap:round; stroke-linejoin:round;fill-rule:evenodd;"
d="M 10978,9680
10983,9680
10989,9682
10994,9684
11000,9686
11004,9689
11009,9692
11013,9696
11017,9700
11020,9705
11023,9710
11026,9715
11028,9720
11029,9726
11030,9732
11030,9737
11030,9853
11030,9859
11029,9865
11028,9870
11026,9876
11023,9881
11020,9886
11017,9890
11013,9894
11009,9898
11004,9902
11000,9905
10994,9907
10989,9909
10983,9910
10978,9911
10972,9912
10836,9912
10831,9911
10825,9910
10819,9909
10814,9907
10809,9905
10804,9902
10799,9898
10795,9894
10791,9890
10788,9886
10785,9881
10783,9876
10781,9870
10779,9865
10779,9859
10778,9853
10778,9737
10779,9732
10779,9726
10781,9720
10783,9715
10785,9710
10788,9705
10791,9700
10795,9696
10799,9692
10804,9689
10809,9686
10814,9684
10819,9682
10825,9680
10831,9680
10836,9679
10972,9679
10978,9680
Z" /> 
</g>
<g >
</g>
<g style="fill:#000000; fill-opacity:1.0; 
stroke:#000000; stroke-width:0; stroke-opacity:1; 
stroke-linecap:round; stroke-linejoin:round;">
<path style="fill:#000000; fill-opacity:1.0; 
stroke:#000000; stroke-width:0; stroke-opacity:1; 
stroke-linecap:round; stroke-linejoin:round;fill-rule:evenodd;"
d="M 11659,5011
11665,5011
11670,5013
11675,5015
11681,5017
11686,5020
11690,5024
11694,5027
11698,5032
11702,5036
11704,5041
11707,5046
11709,5052
11710,5057
11711,5063
11711,5068
11711,5204
11711,5210
11710,5216
11709,5221
11707,5226
11704,5232
11702,5236
11698,5241
11694,5245
11690,5249
11686,5253
11681,5255
11675,5258
11670,5260
11665,5261
11659,5262
11653,5262
11537,5262
11531,5262
11526,5261
11520,5260
11515,5258
11510,5255
11505,5253
11500,5249
11496,5245
11492,5241
11489,5236
11486,5232
11483,5226
11482,5221
11480,5216
11479,5210
11479,5204
11479,5068
11479,5063
11480,5057
11482,5052
11483,5046
11486,5041
11489,5036
11492,5032
11496,5027
11500,5024
11505,5020
11510,5017
11515,5015
11520,5013
11526,5011
11531,5011
11537,5010
11653,5010
11659,5011
Z" /> 
<path style="fill:#000000; fill-opacity:1.0; 
stroke:#000000; stroke-width:0; stroke-opacity:1; 
stroke-linecap:round; stroke-linejoin:round;fill-rule:evenodd;"
d="M 11277,5011
11283,5011
11288,5013
11294,5015
11299,5017
11304,5020
11308,5024
11312,5027
11316,5032
11320,5036
11323,5041
11325,5046
11327,5052
11328,5057
11329,5063
11329,5068
11329,5204
11329,5210
11328,5216
11327,5221
11325,5226
11323,5232
11320,5236
11316,5241
11312,5245
11308,5249
11304,5253
11299,5255
11294,5258
11288,5260
11283,5261
11277,5262
11271,5262
11155,5262
11150,5262
11144,5261
11138,5260
11133,5258
11128,5255
11123,5253
11118,5249
11114,5245
11110,5241
11107,5236
11104,5232
11102,5226
11100,5221
11098,5216
11097,5210
11097,5204
11097,5068
11097,5063
11098,5057
11100,5052
11102,5046
11104,5041
11107,5036
11110,5032
11114,5027
11118,5024
11123,5020
11128,5017
11133,5015
11138,5013
11144,5011
11150,5011
11155,5010
11271,5010
11277,5011
Z" /> 
</g>
<g >
</g>
<g style="fill:#000000; fill-opacity:1.0; 
stroke:#000000; stroke-width:0; stroke-opacity:1; 
stroke-linecap:round; stroke-linejoin:round;">
<path style="fill:#000000; fill-opacity:1.0; 
stroke:#000000; stroke-width:0; stroke-opacity:1; 
stroke-linecap:round; stroke-linejoin:round;fill-rule:evenodd;"
d="M 10135,6386
10141,6386
10146,6388
10152,6390
10157,6392
10162,6395
10166,6399
10170,6402
10174,6407
10178,6411
10181,6416
10183,6421
10185,6427
10186,6432
10187,6438
10187,6443
10187,6579
10187,6585
10186,6591
10185,6596
10183,6601
10181,6607
10178,6611
10174,6616
10170,6620
10166,6624
10162,6628
10157,6630
10152,6633
10146,6635
10141,6636
10135,6637
10129,6637
10013,6637
10008,6637
10002,6636
9996,6635
9991,6633
9986,6630
9981,6628
9976,6624
9972,6620
9968,6616
9965,6611
9962,6607
9960,6601
9958,6596
9956,6591
9955,6585
9955,6579
9955,6443
9955,6438
9956,6432
9958,6427
9960,6421
9962,6416
9965,6411
9968,6407
9972,6402
9976,6399
9981,6395
9986,6392
9991,6390
9996,6388
10002,6386
10008,6386
10013,6385
10129,6385
10135,6386
Z" /> 
<path style="fill:#000000; fill-opacity:1.0; 
stroke:#000000; stroke-width:0; stroke-opacity:1; 
stroke-linecap:round; stroke-linejoin:round;fill-rule:evenodd;"
d="M 10517,6386
10523,6386
10528,6388
10533,6390
10539,6392
10544,6395
10548,6399
10552,6402
10556,6407
10560,6411
10562,6416
10565,6421
10567,6427
10568,6432
10569,6438
10569,6443
10569,6579
10569,6585
10568,6591
10567,6596
10565,6601
10562,6607
10560,6611
10556,6616
10552,6620
10548,6624
10544,6628
10539,6630
10533,6633
10528,6635
10523,6636
10517,6637
10511,6637
10395,6637
10389,6637
10384,6636
10378,6635
10373,6633
10368,6630
10363,6628
10358,6624
10354,6620
10350,6616
10347,6611
10344,6607
10341,6601
10340,6596
10338,6591
10337,6585
10337,6579
10337,6443
10337,6438
10338,6432
10340,6427
10341,6421
10344,6416
10347,6411
10350,6407
10354,6402
10358,6399
10363,6395
10368,6392
10373,6390
10378,6388
10384,6386
10389,6386
10395,6385
10511,6385
10517,6386
Z" /> 
</g>
<g >
</g>
<g style="fill:#000000; fill-opacity:1.0; 
stroke:#000000; stroke-width:0; stroke-opacity:1; 
stroke-linecap:round; stroke-linejoin:round;">
<path style="fill:#000000; fill-opacity:1.0; 
stroke:#000000; stroke-width:0; stroke-opacity:1; 
stroke-linecap:round; stroke-linejoin:round;fill-rule:evenodd;"
d="M 6339,5525
6347,5526
6355,5528
6363,5531
6371,5534
6378,5539
6385,5544
6391,5549
6397,5556
6402,5562
6406,5570
6410,5577
6413,5585
6415,5593
6416,5602
6416,5610
6416,5782
6416,5791
6415,5799
6413,5807
6410,5815
6406,5823
6402,5830
6397,5837
6391,5843
6385,5849
6378,5854
6371,5858
6363,5862
6355,5865
6347,5867
6339,5868
6330,5869
6128,5869
6120,5868
6112,5867
6103,5865
6095,5862
6088,5858
6080,5854
6074,5849
6067,5843
6062,5837
6057,5830
6052,5823
6049,5815
6046,5807
6044,5799
6043,5791
6042,5782
6042,5610
6043,5602
6044,5593
6046,5585
6049,5577
6052,5570
6057,5562
6062,5556
6067,5549
6074,5544
6080,5539
6088,5534
6095,5531
6103,5528
6112,5526
6120,5525
6128,5524
6330,5524
6339,5525
Z" /> 
<path style="fill:#000000; fill-opacity:1.0; 
stroke:#000000; stroke-width:0; stroke-opacity:1; 
stroke-linecap:round; stroke-linejoin:round;fill-rule:evenodd;"
d="M 6339,4904
6347,4906
6355,4908
6363,4911
6371,4914
6378,4919
6385,4924
6391,4929
6397,4936
6402,4942
6406,4950
6410,4957
6413,4965
6415,4973
6416,4982
6416,4990
6416,5162
6416,5171
6415,5179
6413,5187
6410,5195
6406,5203
6402,5210
6397,5217
6391,5223
6385,5229
6378,5234
6371,5238
6363,5242
6355,5245
6347,5247
6339,5248
6330,5249
6128,5249
6120,5248
6112,5247
6103,5245
6095,5242
6088,5238
6080,5234
6074,5229
6067,5223
6062,5217
6057,5210
6052,5203
6049,5195
6046,5187
6044,5179
6043,5171
6042,5162
6042,4990
6043,4982
6044,4973
6046,4965
6049,4957
6052,4950
6057,4942
6062,4936
6067,4929
6074,4924
6080,4919
6088,4914
6095,4911
6103,4908
6112,4906
6120,4904
6128,4904
6330,4904
6339,4904
Z" /> 
</g>
<g >
</g>
<g style="fill:#000000; fill-opacity:1.0; 
stroke:#000000; stroke-width:0; stroke-opacity:1; 
stroke-linecap:round; stroke-linejoin:round;">
<path style="fill:#000000; fill-opacity:1.0; 
stroke:#000000; stroke-width:0; stroke-opacity:1; 
stroke-linecap:round; stroke-linejoin:round;fill-rule:evenodd;"
d="M 6853,6280
6858,6280
6864,6282
6869,6284
6875,6286
6879,6289
6884,6292
6888,6296
6892,6300
6895,6305
6898,6310
6901,6315
6903,6320
6904,6326
6905,6332
6905,6337
6905,6453
6905,6459
6904,6465
6903,6470
6901,6476
6898,6481
6895,6486
6892,6490
6888,6494
6884,6498
6879,6502
6875,6505
6869,6507
6864,6509
6858,6510
6853,6511
6847,6512
6711,6512
6706,6511
6700,6510
6694,6509
6689,6507
6684,6505
6679,6502
6674,6498
6670,6494
6666,6490
6663,6486
6660,6481
6658,6476
6656,6470
6654,6465
6654,6459
6653,6453
6653,6337
6654,6332
6654,6326
6656,6320
6658,6315
6660,6310
6663,6305
6666,6300
6670,6296
6674,6292
6679,6289
6684,6286
6689,6284
6694,6282
6700,6280
6706,6280
6711,6279
6847,6279
6853,6280
Z" /> 
<path style="fill:#000000; fill-opacity:1.0; 
stroke:#000000; stroke-width:0; stroke-opacity:1; 
stroke-linecap:round; stroke-linejoin:round;fill-rule:evenodd;"
d="M 6853,6661
6858,6662
6864,6664
6869,6666
6875,6668
6879,6671
6884,6674
6888,6678
6892,6682
6895,6687
6898,6692
6901,6697
6903,6702
6904,6708
6905,6713
6905,6719
6905,6835
6905,6841
6904,6847
6903,6852
6901,6858
6898,6863
6895,6868
6892,6872
6888,6876
6884,6880
6879,6884
6875,6887
6869,6889
6864,6891
6858,6892
6853,6893
6847,6893
6711,6893
6706,6893
6700,6892
6694,6891
6689,6889
6684,6887
6679,6884
6674,6880
6670,6876
6666,6872
6663,6868
6660,6863
6658,6858
6656,6852
6654,6847
6654,6841
6653,6835
6653,6719
6654,6713
6654,6708
6656,6702
6658,6697
6660,6692
6663,6687
6666,6682
6670,6678
6674,6674
6679,6671
6684,6668
6689,6666
6694,6664
6700,6662
6706,6661
6711,6661
6847,6661
6853,6661
Z" /> 
</g>
<g >
</g>
<g style="fill:#000000; fill-opacity:1.0; 
stroke:#000000; stroke-width:0; stroke-opacity:1; 
stroke-linecap:round; stroke-linejoin:round;">
<path style="fill:#000000; fill-opacity:1.0; 
stroke:#000000; stroke-width:0; stroke-opacity:1; 
stroke-linecap:round; stroke-linejoin:round;fill-rule:evenodd;"
d="M 10478,9680
10483,9680
10489,9682
10494,9684
10500,9686
10504,9689
10509,9692
10513,9696
10517,9700
10520,9705
10523,9710
10526,9715
10528,9720
10529,9726
10530,9732
10530,9737
10530,9853
10530,9859
10529,9865
10528,9870
10526,9876
10523,9881
10520,9886
10517,9890
10513,9894
10509,9898
10504,9902
10500,9905
10494,9907
10489,9909
10483,9910
10478,9911
10472,9912
10336,9912
10331,9911
10325,9910
10319,9909
10314,9907
10309,9905
10304,9902
10299,9898
10295,9894
10291,9890
10288,9886
10285,9881
10283,9876
10281,9870
10279,9865
10279,9859
10278,9853
10278,9737
10279,9732
10279,9726
10281,9720
10283,9715
10285,9710
10288,9705
10291,9700
10295,9696
10299,9692
10304,9689
10309,9686
10314,9684
10319,9682
10325,9680
10331,9680
10336,9679
10472,9679
10478,9680
Z" /> 
<path style="fill:#000000; fill-opacity:1.0; 
stroke:#000000; stroke-width:0; stroke-opacity:1; 
stroke-linecap:round; stroke-linejoin:round;fill-rule:evenodd;"
d="M 10478,10061
10483,10062
10489,10064
10494,10066
10500,10068
10504,10071
10509,10074
10513,10078
10517,10082
10520,10087
10523,10092
10526,10097
10528,10102
10529,10108
10530,10113
10530,10119
10530,10235
10530,10241
10529,10247
10528,10252
10526,10258
10523,10263
10520,10268
10517,10272
10513,10276
10509,10280
10504,10284
10500,10287
10494,10289
10489,10291
10483,10292
10478,10293
10472,10293
10336,10293
10331,10293
10325,10292
10319,10291
10314,10289
10309,10287
10304,10284
10299,10280
10295,10276
10291,10272
10288,10268
10285,10263
10283,10258
10281,10252
10279,10247
10279,10241
10278,10235
10278,10119
10279,10113
10279,10108
10281,10102
10283,10097
10285,10092
10288,10087
10291,10082
10295,10078
10299,10074
10304,10071
10309,10068
10314,10066
10319,10064
10325,10062
10331,10061
10336,10061
10472,10061
10478,10061
Z" /> 
</g>
<g >
</g>
<g style="fill:#000000; fill-opacity:1.0; 
stroke:#000000; stroke-width:0; stroke-opacity:1; 
stroke-linecap:round; stroke-linejoin:round;">
<path style="fill:#000000; fill-opacity:1.0; 
stroke:#000000; stroke-width:0; stroke-opacity:1; 
stroke-linecap:round; stroke-linejoin:round;fill-rule:evenodd;"
d="M 9134,8686
9140,8686
9145,8688
9150,8690
9156,8692
9161,8695
9165,8699
9169,8702
9173,8707
9177,8711
9179,8716
9182,8721
9184,8727
9185,8732
9186,8738
9186,8743
9186,8879
9186,8885
9185,8891
9184,8896
9182,8901
9179,8907
9177,8911
9173,8916
9169,8920
9165,8924
9161,8928
9156,8930
9150,8933
9145,8935
9140,8936
9134,8937
9128,8937
9012,8937
9006,8937
9001,8936
8995,8935
8990,8933
8985,8930
8980,8928
8975,8924
8971,8920
8967,8916
8964,8911
8961,8907
8958,8901
8957,8896
8955,8891
8954,8885
8954,8879
8954,8743
8954,8738
8955,8732
8957,8727
8958,8721
8961,8716
8964,8711
8967,8707
8971,8702
8975,8699
8980,8695
8985,8692
8990,8690
8995,8688
9001,8686
9006,8686
9012,8685
9128,8685
9134,8686
Z" /> 
<path style="fill:#000000; fill-opacity:1.0; 
stroke:#000000; stroke-width:0; stroke-opacity:1; 
stroke-linecap:round; stroke-linejoin:round;fill-rule:evenodd;"
d="M 8752,8686
8758,8686
8763,8688
8769,8690
8774,8692
8779,8695
8783,8699
8787,8702
8791,8707
8795,8711
8798,8716
8800,8721
8802,8727
8803,8732
8804,8738
8804,8743
8804,8879
8804,8885
8803,8891
8802,8896
8800,8901
8798,8907
8795,8911
8791,8916
8787,8920
8783,8924
8779,8928
8774,8930
8769,8933
8763,8935
8758,8936
8752,8937
8746,8937
8630,8937
8625,8937
8619,8936
8613,8935
8608,8933
8603,8930
8598,8928
8593,8924
8589,8920
8585,8916
8582,8911
8579,8907
8577,8901
8575,8896
8573,8891
8572,8885
8572,8879
8572,8743
8572,8738
8573,8732
8575,8727
8577,8721
8579,8716
8582,8711
8585,8707
8589,8702
8593,8699
8598,8695
8603,8692
8608,8690
8613,8688
8619,8686
8625,8686
8630,8685
8746,8685
8752,8686
Z" /> 
</g>
<g >
</g>
<g style="fill:#000000; fill-opacity:1.0; 
stroke:#000000; stroke-width:0; stroke-opacity:1; 
stroke-linecap:round; stroke-linejoin:round;">
<path style="fill:#000000; fill-opacity:1.0; 
stroke:#000000; stroke-width:0; stroke-opacity:1; 
stroke-linecap:round; stroke-linejoin:round;fill-rule:evenodd;"
d="M 9134,9686
9140,9686
9145,9688
9150,9690
9156,9692
9161,9695
9165,9699
9169,9702
9173,9707
9177,9711
9179,9716
9182,9721
9184,9727
9185,9732
9186,9738
9186,9743
9186,9879
9186,9885
9185,9891
9184,9896
9182,9901
9179,9907
9177,9911
9173,9916
9169,9920
9165,9924
9161,9928
9156,9930
9150,9933
9145,9935
9140,9936
9134,9937
9128,9937
9012,9937
9006,9937
9001,9936
8995,9935
8990,9933
8985,9930
8980,9928
8975,9924
8971,9920
8967,9916
8964,9911
8961,9907
8958,9901
8957,9896
8955,9891
8954,9885
8954,9879
8954,9743
8954,9738
8955,9732
8957,9727
8958,9721
8961,9716
8964,9711
8967,9707
8971,9702
8975,9699
8980,9695
8985,9692
8990,9690
8995,9688
9001,9686
9006,9686
9012,9685
9128,9685
9134,9686
Z" /> 
<path style="fill:#000000; fill-opacity:1.0; 
stroke:#000000; stroke-width:0; stroke-opacity:1; 
stroke-linecap:round; stroke-linejoin:round;fill-rule:evenodd;"
d="M 8752,9686
8758,9686
8763,9688
8769,9690
8774,9692
8779,9695
8783,9699
8787,9702
8791,9707
8795,9711
8798,9716
8800,9721
8802,9727
8803,9732
8804,9738
8804,9743
8804,9879
8804,9885
8803,9891
8802,9896
8800,9901
8798,9907
8795,9911
8791,9916
8787,9920
8783,9924
8779,9928
8774,9930
8769,9933
8763,9935
8758,9936
8752,9937
8746,9937
8630,9937
8625,9937
8619,9936
8613,9935
8608,9933
8603,9930
8598,9928
8593,9924
8589,9920
8585,9916
8582,9911
8579,9907
8577,9901
8575,9896
8573,9891
8572,9885
8572,9879
8572,9743
8572,9738
8573,9732
8575,9727
8577,9721
8579,9716
8582,9711
8585,9707
8589,9702
8593,9699
8598,9695
8603,9692
8608,9690
8613,9688
8619,9686
8625,9686
8630,9685
8746,9685
8752,9686
Z" /> 
</g>
<g >
</g>
<g style="fill:#000000; fill-opacity:1.0; 
stroke:#000000; stroke-width:0; stroke-opacity:1; 
stroke-linecap:round; stroke-linejoin:round;">
<path style="fill:#000000; fill-opacity:1.0; 
stroke:#000000; stroke-width:0; stroke-opacity:1; 
stroke-linecap:round; stroke-linejoin:round;fill-rule:evenodd;"
d="M 9134,9186
9140,9186
9145,9188
9150,9190
9156,9192
9161,9195
9165,9199
9169,9202
9173,9207
9177,9211
9179,9216
9182,9221
9184,9227
9185,9232
9186,9238
9186,9243
9186,9379
9186,9385
9185,9391
9184,9396
9182,9401
9179,9407
9177,9411
9173,9416
9169,9420
9165,9424
9161,9428
9156,9430
9150,9433
9145,9435
9140,9436
9134,9437
9128,9437
9012,9437
9006,9437
9001,9436
8995,9435
8990,9433
8985,9430
8980,9428
8975,9424
8971,9420
8967,9416
8964,9411
8961,9407
8958,9401
8957,9396
8955,9391
8954,9385
8954,9379
8954,9243
8954,9238
8955,9232
8957,9227
8958,9221
8961,9216
8964,9211
8967,9207
8971,9202
8975,9199
8980,9195
8985,9192
8990,9190
8995,9188
9001,9186
9006,9186
9012,9185
9128,9185
9134,9186
Z" /> 
<path style="fill:#000000; fill-opacity:1.0; 
stroke:#000000; stroke-width:0; stroke-opacity:1; 
stroke-linecap:round; stroke-linejoin:round;fill-rule:evenodd;"
d="M 8752,9186
8758,9186
8763,9188
8769,9190
8774,9192
8779,9195
8783,9199
8787,9202
8791,9207
8795,9211
8798,9216
8800,9221
8802,9227
8803,9232
8804,9238
8804,9243
8804,9379
8804,9385
8803,9391
8802,9396
8800,9401
8798,9407
8795,9411
8791,9416
8787,9420
8783,9424
8779,9428
8774,9430
8769,9433
8763,9435
8758,9436
8752,9437
8746,9437
8630,9437
8625,9437
8619,9436
8613,9435
8608,9433
8603,9430
8598,9428
8593,9424
8589,9420
8585,9416
8582,9411
8579,9407
8577,9401
8575,9396
8573,9391
8572,9385
8572,9379
8572,9243
8572,9238
8573,9232
8575,9227
8577,9221
8579,9216
8582,9211
8585,9207
8589,9202
8593,9199
8598,9195
8603,9192
8608,9190
8613,9188
8619,9186
8625,9186
8630,9185
8746,9185
8752,9186
Z" /> 
</g>
<g >
</g>
<g style="fill:#000000; fill-opacity:1.0; 
stroke:#000000; stroke-width:0; stroke-opacity:1; 
stroke-linecap:round; stroke-linejoin:round;">
<path style="fill:#000000; fill-opacity:1.0; 
stroke:#000000; stroke-width:0; stroke-opacity:1; 
stroke-linecap:round; stroke-linejoin:round;fill-rule:evenodd;"
d="M 10034,9686
10040,9686
10045,9688
10050,9690
10056,9692
10061,9695
10065,9699
10069,9702
10073,9707
10077,9711
10079,9716
10082,9721
10084,9727
10085,9732
10086,9738
10086,9743
10086,9879
10086,9885
10085,9891
10084,9896
10082,9901
10079,9907
10077,9911
10073,9916
10069,9920
10065,9924
10061,9928
10056,9930
10050,9933
10045,9935
10040,9936
10034,9937
10028,9937
9912,9937
9906,9937
9901,9936
9895,9935
9890,9933
9885,9930
9880,9928
9875,9924
9871,9920
9867,9916
9864,9911
9861,9907
9858,9901
9857,9896
9855,9891
9854,9885
9854,9879
9854,9743
9854,9738
9855,9732
9857,9727
9858,9721
9861,9716
9864,9711
9867,9707
9871,9702
9875,9699
9880,9695
9885,9692
9890,9690
9895,9688
9901,9686
9906,9686
9912,9685
10028,9685
10034,9686
Z" /> 
<path style="fill:#000000; fill-opacity:1.0; 
stroke:#000000; stroke-width:0; stroke-opacity:1; 
stroke-linecap:round; stroke-linejoin:round;fill-rule:evenodd;"
d="M 9652,9686
9658,9686
9663,9688
9669,9690
9674,9692
9679,9695
9683,9699
9687,9702
9691,9707
9695,9711
9698,9716
9700,9721
9702,9727
9703,9732
9704,9738
9704,9743
9704,9879
9704,9885
9703,9891
9702,9896
9700,9901
9698,9907
9695,9911
9691,9916
9687,9920
9683,9924
9679,9928
9674,9930
9669,9933
9663,9935
9658,9936
9652,9937
9646,9937
9530,9937
9525,9937
9519,9936
9513,9935
9508,9933
9503,9930
9498,9928
9493,9924
9489,9920
9485,9916
9482,9911
9479,9907
9477,9901
9475,9896
9473,9891
9472,9885
9472,9879
9472,9743
9472,9738
9473,9732
9475,9727
9477,9721
9479,9716
9482,9711
9485,9707
9489,9702
9493,9699
9498,9695
9503,9692
9508,9690
9513,9688
9519,9686
9525,9686
9530,9685
9646,9685
9652,9686
Z" /> 
</g>
<g >
</g>
<g style="fill:#000000; fill-opacity:1.0; 
stroke:#000000; stroke-width:0; stroke-opacity:1; 
stroke-linecap:round; stroke-linejoin:round;">
<path style="fill:#000000; fill-opacity:1.0; 
stroke:#000000; stroke-width:0; stroke-opacity:1; 
stroke-linecap:round; stroke-linejoin:round;fill-rule:evenodd;"
d="M 12059,8486
12065,8486
12070,8488
12075,8490
12081,8492
12086,8495
12090,8499
12094,8502
12098,8507
12102,8511
12104,8516
12107,8521
12109,8527
12110,8532
12111,8538
12111,8543
12111,8679
12111,8685
12110,8691
12109,8696
12107,8701
12104,8707
12102,8711
12098,8716
12094,8720
12090,8724
12086,8728
12081,8730
12075,8733
12070,8735
12065,8736
12059,8737
12053,8737
11937,8737
11931,8737
11926,8736
11920,8735
11915,8733
11910,8730
11905,8728
11900,8724
11896,8720
11892,8716
11889,8711
11886,8707
11883,8701
11882,8696
11880,8691
11879,8685
11879,8679
11879,8543
11879,8538
11880,8532
11882,8527
11883,8521
11886,8516
11889,8511
11892,8507
11896,8502
11900,8499
11905,8495
11910,8492
11915,8490
11920,8488
11926,8486
11931,8486
11937,8485
12053,8485
12059,8486
Z" /> 
<path style="fill:#000000; fill-opacity:1.0; 
stroke:#000000; stroke-width:0; stroke-opacity:1; 
stroke-linecap:round; stroke-linejoin:round;fill-rule:evenodd;"
d="M 11677,8486
11683,8486
11688,8488
11694,8490
11699,8492
11704,8495
11708,8499
11712,8502
11716,8507
11720,8511
11723,8516
11725,8521
11727,8527
11728,8532
11729,8538
11729,8543
11729,8679
11729,8685
11728,8691
11727,8696
11725,8701
11723,8707
11720,8711
11716,8716
11712,8720
11708,8724
11704,8728
11699,8730
11694,8733
11688,8735
11683,8736
11677,8737
11671,8737
11555,8737
11550,8737
11544,8736
11538,8735
11533,8733
11528,8730
11523,8728
11518,8724
11514,8720
11510,8716
11507,8711
11504,8707
11502,8701
11500,8696
11498,8691
11497,8685
11497,8679
11497,8543
11497,8538
11498,8532
11500,8527
11502,8521
11504,8516
11507,8511
11510,8507
11514,8502
11518,8499
11523,8495
11528,8492
11533,8490
11538,8488
11544,8486
11550,8486
11555,8485
11671,8485
11677,8486
Z" /> 
</g>
<g >
</g>
<g style="fill:#000000; fill-opacity:1.0; 
stroke:#000000; stroke-width:0; stroke-opacity:1; 
stroke-linecap:round; stroke-linejoin:round;">
<path style="fill:#000000; fill-opacity:1.0; 
stroke:#000000; stroke-width:0; stroke-opacity:1; 
stroke-linecap:round; stroke-linejoin:round;fill-rule:evenodd;"
d="M 12152,5011
12158,5011
12163,5013
12169,5015
12174,5017
12179,5020
12183,5024
12187,5027
12191,5032
12195,5036
12198,5041
12200,5046
12202,5052
12203,5057
12204,5063
12204,5068
12204,5204
12204,5210
12203,5216
12202,5221
12200,5226
12198,5232
12195,5236
12191,5241
12187,5245
12183,5249
12179,5253
12174,5255
12169,5258
12163,5260
12158,5261
12152,5262
12146,5262
12030,5262
12025,5262
12019,5261
12013,5260
12008,5258
12003,5255
11998,5253
11993,5249
11989,5245
11985,5241
11982,5236
11979,5232
11977,5226
11975,5221
11973,5216
11972,5210
11972,5204
11972,5068
11972,5063
11973,5057
11975,5052
11977,5046
11979,5041
11982,5036
11985,5032
11989,5027
11993,5024
11998,5020
12003,5017
12008,5015
12013,5013
12019,5011
12025,5011
12030,5010
12146,5010
12152,5011
Z" /> 
<path style="fill:#000000; fill-opacity:1.0; 
stroke:#000000; stroke-width:0; stroke-opacity:1; 
stroke-linecap:round; stroke-linejoin:round;fill-rule:evenodd;"
d="M 12534,5011
12540,5011
12545,5013
12550,5015
12556,5017
12561,5020
12565,5024
12569,5027
12573,5032
12577,5036
12579,5041
12582,5046
12584,5052
12585,5057
12586,5063
12586,5068
12586,5204
12586,5210
12585,5216
12584,5221
12582,5226
12579,5232
12577,5236
12573,5241
12569,5245
12565,5249
12561,5253
12556,5255
12550,5258
12545,5260
12540,5261
12534,5262
12528,5262
12412,5262
12406,5262
12401,5261
12395,5260
12390,5258
12385,5255
12380,5253
12375,5249
12371,5245
12367,5241
12364,5236
12361,5232
12358,5226
12357,5221
12355,5216
12354,5210
12354,5204
12354,5068
12354,5063
12355,5057
12357,5052
12358,5046
12361,5041
12364,5036
12367,5032
12371,5027
12375,5024
12380,5020
12385,5017
12390,5015
12395,5013
12401,5011
12406,5011
12412,5010
12528,5010
12534,5011
Z" /> 
</g>
<g >
</g>
<g style="fill:#000000; fill-opacity:1.0; 
stroke:#000000; stroke-width:0; stroke-opacity:1; 
stroke-linecap:round; stroke-linejoin:round;">
<path style="fill:#000000; fill-opacity:1.0; 
stroke:#000000; stroke-width:0; stroke-opacity:1; 
stroke-linecap:round; stroke-linejoin:round;fill-rule:evenodd;"
d="M 6909,8111
6915,8111
6920,8113
6925,8115
6931,8117
6936,8120
6940,8124
6944,8127
6948,8132
6952,8136
6954,8141
6957,8146
6959,8152
6960,8157
6961,8163
6961,8168
6961,8304
6961,8310
6960,8316
6959,8321
6957,8326
6954,8332
6952,8336
6948,8341
6944,8345
6940,8349
6936,8353
6931,8355
6925,8358
6920,8360
6915,8361
6909,8362
6903,8362
6787,8362
6781,8362
6776,8361
6770,8360
6765,8358
6760,8355
6755,8353
6750,8349
6746,8345
6742,8341
6739,8336
6736,8332
6733,8326
6732,8321
6730,8316
6729,8310
6729,8304
6729,8168
6729,8163
6730,8157
6732,8152
6733,8146
6736,8141
6739,8136
6742,8132
6746,8127
6750,8124
6755,8120
6760,8117
6765,8115
6770,8113
6776,8111
6781,8111
6787,8110
6903,8110
6909,8111
Z" /> 
<path style="fill:#000000; fill-opacity:1.0; 
stroke:#000000; stroke-width:0; stroke-opacity:1; 
stroke-linecap:round; stroke-linejoin:round;fill-rule:evenodd;"
d="M 6527,8111
6533,8111
6538,8113
6544,8115
6549,8117
6554,8120
6558,8124
6562,8127
6566,8132
6570,8136
6573,8141
6575,8146
6577,8152
6578,8157
6579,8163
6579,8168
6579,8304
6579,8310
6578,8316
6577,8321
6575,8326
6573,8332
6570,8336
6566,8341
6562,8345
6558,8349
6554,8353
6549,8355
6544,8358
6538,8360
6533,8361
6527,8362
6521,8362
6405,8362
6400,8362
6394,8361
6388,8360
6383,8358
6378,8355
6373,8353
6368,8349
6364,8345
6360,8341
6357,8336
6354,8332
6352,8326
6350,8321
6348,8316
6347,8310
6347,8304
6347,8168
6347,8163
6348,8157
6350,8152
6352,8146
6354,8141
6357,8136
6360,8132
6364,8127
6368,8124
6373,8120
6378,8117
6383,8115
6388,8113
6394,8111
6400,8111
6405,8110
6521,8110
6527,8111
Z" /> 
</g>
<g >
</g>
<g style="fill:#000000; fill-opacity:1.0; 
stroke:#000000; stroke-width:0; stroke-opacity:1; 
stroke-linecap:round; stroke-linejoin:round;">
<path style="fill:#000000; fill-opacity:1.0; 
stroke:#000000; stroke-width:0; stroke-opacity:1; 
stroke-linecap:round; stroke-linejoin:round;fill-rule:evenodd;"
d="M 7278,9605
7283,9605
7289,9607
7294,9609
7300,9611
7304,9614
7309,9617
7313,9621
7317,9625
7320,9630
7323,9635
7326,9640
7328,9645
7329,9651
7330,9657
7330,9662
7330,9778
7330,9784
7329,9790
7328,9795
7326,9801
7323,9806
7320,9811
7317,9815
7313,9819
7309,9823
7304,9827
7300,9830
7294,9832
7289,9834
7283,9835
7278,9836
7272,9837
7136,9837
7131,9836
7125,9835
7119,9834
7114,9832
7109,9830
7104,9827
7099,9823
7095,9819
7091,9815
7088,9811
7085,9806
7083,9801
7081,9795
7079,9790
7079,9784
7078,9778
7078,9662
7079,9657
7079,9651
7081,9645
7083,9640
7085,9635
7088,9630
7091,9625
7095,9621
7099,9617
7104,9614
7109,9611
7114,9609
7119,9607
7125,9605
7131,9605
7136,9604
7272,9604
7278,9605
Z" /> 
<path style="fill:#000000; fill-opacity:1.0; 
stroke:#000000; stroke-width:0; stroke-opacity:1; 
stroke-linecap:round; stroke-linejoin:round;fill-rule:evenodd;"
d="M 7278,9986
7283,9987
7289,9989
7294,9991
7300,9993
7304,9996
7309,9999
7313,10003
7317,10007
7320,10012
7323,10017
7326,10022
7328,10027
7329,10033
7330,10038
7330,10044
7330,10160
7330,10166
7329,10172
7328,10177
7326,10183
7323,10188
7320,10193
7317,10197
7313,10201
7309,10205
7304,10209
7300,10212
7294,10214
7289,10216
7283,10217
7278,10218
7272,10218
7136,10218
7131,10218
7125,10217
7119,10216
7114,10214
7109,10212
7104,10209
7099,10205
7095,10201
7091,10197
7088,10193
7085,10188
7083,10183
7081,10177
7079,10172
7079,10166
7078,10160
7078,10044
7079,10038
7079,10033
7081,10027
7083,10022
7085,10017
7088,10012
7091,10007
7095,10003
7099,9999
7104,9996
7109,9993
7114,9991
7119,9989
7125,9987
7131,9986
7136,9986
7272,9986
7278,9986
Z" /> 
</g>
<g >
</g>
<g style="fill:#000000; fill-opacity:1.0; 
stroke:#000000; stroke-width:0; stroke-opacity:1; 
stroke-linecap:round; stroke-linejoin:round;">
<path style="fill:#000000; fill-opacity:1.0; 
stroke:#000000; stroke-width:0; stroke-opacity:1; 
stroke-linecap:round; stroke-linejoin:round;fill-rule:evenodd;"
d="M 8752,8286
8758,8286
8763,8288
8769,8290
8774,8292
8779,8295
8783,8299
8787,8302
8791,8307
8795,8311
8798,8316
8800,8321
8802,8327
8803,8332
8804,8338
8804,8343
8804,8479
8804,8485
8803,8491
8802,8496
8800,8501
8798,8507
8795,8511
8791,8516
8787,8520
8783,8524
8779,8528
8774,8530
8769,8533
8763,8535
8758,8536
8752,8537
8746,8537
8630,8537
8625,8537
8619,8536
8613,8535
8608,8533
8603,8530
8598,8528
8593,8524
8589,8520
8585,8516
8582,8511
8579,8507
8577,8501
8575,8496
8573,8491
8572,8485
8572,8479
8572,8343
8572,8338
8573,8332
8575,8327
8577,8321
8579,8316
8582,8311
8585,8307
8589,8302
8593,8299
8598,8295
8603,8292
8608,8290
8613,8288
8619,8286
8625,8286
8630,8285
8746,8285
8752,8286
Z" /> 
<path style="fill:#000000; fill-opacity:1.0; 
stroke:#000000; stroke-width:0; stroke-opacity:1; 
stroke-linecap:round; stroke-linejoin:round;fill-rule:evenodd;"
d="M 9134,8286
9140,8286
9145,8288
9150,8290
9156,8292
9161,8295
9165,8299
9169,8302
9173,8307
9177,8311
9179,8316
9182,8321
9184,8327
9185,8332
9186,8338
9186,8343
9186,8479
9186,8485
9185,8491
9184,8496
9182,8501
9179,8507
9177,8511
9173,8516
9169,8520
9165,8524
9161,8528
9156,8530
9150,8533
9145,8535
9140,8536
9134,8537
9128,8537
9012,8537
9006,8537
9001,8536
8995,8535
8990,8533
8985,8530
8980,8528
8975,8524
8971,8520
8967,8516
8964,8511
8961,8507
8958,8501
8957,8496
8955,8491
8954,8485
8954,8479
8954,8343
8954,8338
8955,8332
8957,8327
8958,8321
8961,8316
8964,8311
8967,8307
8971,8302
8975,8299
8980,8295
8985,8292
8990,8290
8995,8288
9001,8286
9006,8286
9012,8285
9128,8285
9134,8286
Z" /> 
</g>
<g >
</g>
<g style="fill:#000000; fill-opacity:1.0; 
stroke:#000000; stroke-width:0; stroke-opacity:1; 
stroke-linecap:round; stroke-linejoin:round;">
<path style="fill:#000000; fill-opacity:1.0; 
stroke:#000000; stroke-width:0; stroke-opacity:1; 
stroke-linecap:round; stroke-linejoin:round;fill-rule:evenodd;"
d="M 8473,5584
8473,7314
7908,7314
7908,5584
8473,5584
Z" /> 
<path style="fill:#000000; fill-opacity:1.0; 
stroke:#000000; stroke-width:0; stroke-opacity:1; 
stroke-linecap:round; stroke-linejoin:round;fill-rule:evenodd;"
d="M 9638,5584
9638,7314
9073,7314
9073,5584
9638,5584
Z" /> 
</g>
<g >
</g>
<g style="fill:#000000; fill-opacity:1.0; 
stroke:#000000; stroke-width:0; stroke-opacity:1; 
stroke-linecap:round; stroke-linejoin:round;">
<path style="fill:#000000; fill-opacity:1.0; 
stroke:#000000; stroke-width:0; stroke-opacity:1; 
stroke-linecap:round; stroke-linejoin:round;fill-rule:evenodd;"
d="M 11579,5571
11579,7301
11014,7301
11014,5571
11579,5571
Z" /> 
<path style="fill:#000000; fill-opacity:1.0; 
stroke:#000000; stroke-width:0; stroke-opacity:1; 
stroke-linecap:round; stroke-linejoin:round;fill-rule:evenodd;"
d="M 12744,5571
12744,7301
12179,7301
12179,5571
12744,5571
Z" /> 
</g>
<g >
</g>
<g style="fill:#000000; fill-opacity:1.0; 
stroke:#000000; stroke-width:0; stroke-opacity:1; 
stroke-linecap:round; stroke-linejoin:round;">
<path style="fill:#000000; fill-opacity:1.0; 
stroke:#000000; stroke-width:0; stroke-opacity:1; 
stroke-linecap:round; stroke-linejoin:round;fill-rule:evenodd;"
d="M 10064,4950
10072,4951
10080,4953
10088,4956
10096,4959
10103,4964
10110,4969
10116,4975
10122,4981
10127,4988
10131,4995
10135,5002
10138,5010
10140,5019
10141,5027
10141,5035
10141,5237
10141,5246
10140,5254
10138,5262
10135,5270
10131,5278
10127,5285
10122,5292
10116,5298
10110,5304
10103,5309
10096,5313
10088,5317
10080,5320
10072,5322
10064,5323
10055,5323
9883,5323
9875,5323
9866,5322
9858,5320
9850,5317
9842,5313
9835,5309
9828,5304
9822,5298
9816,5292
9811,5285
9807,5278
9803,5270
9801,5262
9799,5254
9797,5246
9797,5237
9797,5035
9797,5027
9799,5019
9801,5010
9803,5002
9807,4995
9811,4988
9816,4981
9822,4975
9828,4969
9835,4964
9842,4959
9850,4956
9858,4953
9866,4951
9875,4950
9883,4949
10055,4949
10064,4950
Z" /> 
<path style="fill:#000000; fill-opacity:1.0; 
stroke:#000000; stroke-width:0; stroke-opacity:1; 
stroke-linecap:round; stroke-linejoin:round;fill-rule:evenodd;"
d="M 10684,4950
10692,4951
10700,4953
10708,4956
10716,4959
10723,4964
10730,4969
10736,4975
10742,4981
10747,4988
10751,4995
10755,5002
10758,5010
10760,5019
10761,5027
10762,5035
10762,5237
10761,5246
10760,5254
10758,5262
10755,5270
10751,5278
10747,5285
10742,5292
10736,5298
10730,5304
10723,5309
10716,5313
10708,5317
10700,5320
10692,5322
10684,5323
10675,5323
10503,5323
10495,5323
10486,5322
10478,5320
10470,5317
10463,5313
10455,5309
10449,5304
10442,5298
10437,5292
10432,5285
10427,5278
10424,5270
10421,5262
10419,5254
10417,5246
10417,5237
10417,5035
10417,5027
10419,5019
10421,5010
10424,5002
10427,4995
10432,4988
10437,4981
10442,4975
10449,4969
10455,4964
10463,4959
10470,4956
10478,4953
10486,4951
10495,4950
10503,4949
10675,4949
10684,4950
Z" /> 
</g>
<g >
</g>
<g style="fill:#000000; fill-opacity:1.0; 
stroke:#000000; stroke-width:0; stroke-opacity:1; 
stroke-linecap:round; stroke-linejoin:round;">
<path style="fill:#000000; fill-opacity:1.0; 
stroke:#000000; stroke-width:0; stroke-opacity:1; 
stroke-linecap:round; stroke-linejoin:round;fill-rule:evenodd;"
d="M 8834,7586
8840,7586
8845,7588
8850,7590
8856,7592
8861,7595
8865,7599
8869,7602
8873,7607
8877,7611
8879,7616
8882,7621
8884,7627
8885,7632
8886,7638
8886,7643
8886,7779
8886,7785
8885,7791
8884,7796
8882,7801
8879,7807
8877,7811
8873,7816
8869,7820
8865,7824
8861,7828
8856,7830
8850,7833
8845,7835
8840,7836
8834,7837
8828,7837
8712,7837
8706,7837
8701,7836
8695,7835
8690,7833
8685,7830
8680,7828
8675,7824
8671,7820
8667,7816
8664,7811
8661,7807
8658,7801
8657,7796
8655,7791
8654,7785
8654,7779
8654,7643
8654,7638
8655,7632
8657,7627
8658,7621
8661,7616
8664,7611
8667,7607
8671,7602
8675,7599
8680,7595
8685,7592
8690,7590
8695,7588
8701,7586
8706,7586
8712,7585
8828,7585
8834,7586
Z" /> 
<path style="fill:#000000; fill-opacity:1.0; 
stroke:#000000; stroke-width:0; stroke-opacity:1; 
stroke-linecap:round; stroke-linejoin:round;fill-rule:evenodd;"
d="M 8452,7586
8458,7586
8463,7588
8469,7590
8474,7592
8479,7595
8483,7599
8487,7602
8491,7607
8495,7611
8498,7616
8500,7621
8502,7627
8503,7632
8504,7638
8504,7643
8504,7779
8504,7785
8503,7791
8502,7796
8500,7801
8498,7807
8495,7811
8491,7816
8487,7820
8483,7824
8479,7828
8474,7830
8469,7833
8463,7835
8458,7836
8452,7837
8446,7837
8330,7837
8325,7837
8319,7836
8313,7835
8308,7833
8303,7830
8298,7828
8293,7824
8289,7820
8285,7816
8282,7811
8279,7807
8277,7801
8275,7796
8273,7791
8272,7785
8272,7779
8272,7643
8272,7638
8273,7632
8275,7627
8277,7621
8279,7616
8282,7611
8285,7607
8289,7602
8293,7599
8298,7595
8303,7592
8308,7590
8313,7588
8319,7586
8325,7586
8330,7585
8446,7585
8452,7586
Z" /> 
</g>
<g >
</g>
<g style="fill:#000000; fill-opacity:1.0; 
stroke:#000000; stroke-width:0; stroke-opacity:1; 
stroke-linecap:round; stroke-linejoin:round;">
<path style="fill:#000000; fill-opacity:1.0; 
stroke:#000000; stroke-width:0; stroke-opacity:1; 
stroke-linecap:round; stroke-linejoin:round;fill-rule:evenodd;"
d="M 11553,9261
11558,9262
11564,9264
11569,9266
11575,9268
11579,9271
11584,9274
11588,9278
11592,9282
11595,9287
11598,9292
11601,9297
11603,9302
11604,9308
11605,9313
11605,9319
11605,9435
11605,9441
11604,9447
11603,9452
11601,9458
11598,9463
11595,9468
11592,9472
11588,9476
11584,9480
11579,9484
11575,9487
11569,9489
11564,9491
11558,9492
11553,9493
11547,9493
11411,9493
11406,9493
11400,9492
11394,9491
11389,9489
11384,9487
11379,9484
11374,9480
11370,9476
11366,9472
11363,9468
11360,9463
11358,9458
11356,9452
11354,9447
11354,9441
11353,9435
11353,9319
11354,9313
11354,9308
11356,9302
11358,9297
11360,9292
11363,9287
11366,9282
11370,9278
11374,9274
11379,9271
11384,9268
11389,9266
11394,9264
11400,9262
11406,9261
11411,9261
11547,9261
11553,9261
Z" /> 
<path style="fill:#000000; fill-opacity:1.0; 
stroke:#000000; stroke-width:0; stroke-opacity:1; 
stroke-linecap:round; stroke-linejoin:round;fill-rule:evenodd;"
d="M 11553,8880
11558,8880
11564,8882
11569,8884
11575,8886
11579,8889
11584,8892
11588,8896
11592,8900
11595,8905
11598,8910
11601,8915
11603,8920
11604,8926
11605,8932
11605,8937
11605,9053
11605,9059
11604,9065
11603,9070
11601,9076
11598,9081
11595,9086
11592,9090
11588,9094
11584,9098
11579,9102
11575,9105
11569,9107
11564,9109
11558,9110
11553,9111
11547,9112
11411,9112
11406,9111
11400,9110
11394,9109
11389,9107
11384,9105
11379,9102
11374,9098
11370,9094
11366,9090
11363,9086
11360,9081
11358,9076
11356,9070
11354,9065
11354,9059
11353,9053
11353,8937
11354,8932
11354,8926
11356,8920
11358,8915
11360,8910
11363,8905
11366,8900
11370,8896
11374,8892
11379,8889
11384,8886
11389,8884
11394,8882
11400,8880
11406,8880
11411,8879
11547,8879
11553,8880
Z" /> 
</g>
<g >
</g>
<g style="fill:#000000; fill-opacity:1.0; 
stroke:#000000; stroke-width:0; stroke-opacity:1; 
stroke-linecap:round; stroke-linejoin:round;">
<path style="fill:#000000; fill-opacity:1.0; 
stroke:#000000; stroke-width:0; stroke-opacity:1; 
stroke-linecap:round; stroke-linejoin:round;fill-rule:evenodd;"
d="M 13903,6186
13908,6187
13914,6189
13919,6191
13925,6193
13929,6196
13934,6199
13938,6203
13942,6207
13945,6212
13948,6217
13951,6222
13953,6227
13954,6233
13955,6238
13955,6244
13955,6360
13955,6366
13954,6372
13953,6377
13951,6383
13948,6388
13945,6393
13942,6397
13938,6401
13934,6405
13929,6409
13925,6412
13919,6414
13914,6416
13908,6417
13903,6418
13897,6418
13761,6418
13756,6418
13750,6417
13744,6416
13739,6414
13734,6412
13729,6409
13724,6405
13720,6401
13716,6397
13713,6393
13710,6388
13708,6383
13706,6377
13704,6372
13704,6366
13703,6360
13703,6244
13704,6238
13704,6233
13706,6227
13708,6222
13710,6217
13713,6212
13716,6207
13720,6203
13724,6199
13729,6196
13734,6193
13739,6191
13744,6189
13750,6187
13756,6186
13761,6186
13897,6186
13903,6186
Z" /> 
<path style="fill:#000000; fill-opacity:1.0; 
stroke:#000000; stroke-width:0; stroke-opacity:1; 
stroke-linecap:round; stroke-linejoin:round;fill-rule:evenodd;"
d="M 13903,5805
13908,5805
13914,5807
13919,5809
13925,5811
13929,5814
13934,5817
13938,5821
13942,5825
13945,5830
13948,5835
13951,5840
13953,5845
13954,5851
13955,5857
13955,5862
13955,5978
13955,5984
13954,5990
13953,5995
13951,6001
13948,6006
13945,6011
13942,6015
13938,6019
13934,6023
13929,6027
13925,6030
13919,6032
13914,6034
13908,6035
13903,6036
13897,6037
13761,6037
13756,6036
13750,6035
13744,6034
13739,6032
13734,6030
13729,6027
13724,6023
13720,6019
13716,6015
13713,6011
13710,6006
13708,6001
13706,5995
13704,5990
13704,5984
13703,5978
13703,5862
13704,5857
13704,5851
13706,5845
13708,5840
13710,5835
13713,5830
13716,5825
13720,5821
13724,5817
13729,5814
13734,5811
13739,5809
13744,5807
13750,5805
13756,5805
13761,5804
13897,5804
13903,5805
Z" /> 
</g>
<g >
</g>
<g style="fill:#000000; fill-opacity:1.0; 
stroke:#000000; stroke-width:0; stroke-opacity:1; 
stroke-linecap:round; stroke-linejoin:round;">
<path style="fill:#000000; fill-opacity:1.0; 
stroke:#000000; stroke-width:0; stroke-opacity:1; 
stroke-linecap:round; stroke-linejoin:round;fill-rule:evenodd;"
d="M 6853,5886
6858,5887
6864,5889
6869,5891
6875,5893
6879,5896
6884,5899
6888,5903
6892,5907
6895,5912
6898,5917
6901,5922
6903,5927
6904,5933
6905,5938
6905,5944
6905,6060
6905,6066
6904,6072
6903,6077
6901,6083
6898,6088
6895,6093
6892,6097
6888,6101
6884,6105
6879,6109
6875,6112
6869,6114
6864,6116
6858,6117
6853,6118
6847,6118
6711,6118
6706,6118
6700,6117
6694,6116
6689,6114
6684,6112
6679,6109
6674,6105
6670,6101
6666,6097
6663,6093
6660,6088
6658,6083
6656,6077
6654,6072
6654,6066
6653,6060
6653,5944
6654,5938
6654,5933
6656,5927
6658,5922
6660,5917
6663,5912
6666,5907
6670,5903
6674,5899
6679,5896
6684,5893
6689,5891
6694,5889
6700,5887
6706,5886
6711,5886
6847,5886
6853,5886
Z" /> 
<path style="fill:#000000; fill-opacity:1.0; 
stroke:#000000; stroke-width:0; stroke-opacity:1; 
stroke-linecap:round; stroke-linejoin:round;fill-rule:evenodd;"
d="M 6853,5505
6858,5505
6864,5507
6869,5509
6875,5511
6879,5514
6884,5517
6888,5521
6892,5525
6895,5530
6898,5535
6901,5540
6903,5545
6904,5551
6905,5557
6905,5562
6905,5678
6905,5684
6904,5690
6903,5695
6901,5701
6898,5706
6895,5711
6892,5715
6888,5719
6884,5723
6879,5727
6875,5730
6869,5732
6864,5734
6858,5735
6853,5736
6847,5737
6711,5737
6706,5736
6700,5735
6694,5734
6689,5732
6684,5730
6679,5727
6674,5723
6670,5719
6666,5715
6663,5711
6660,5706
6658,5701
6656,5695
6654,5690
6654,5684
6653,5678
6653,5562
6654,5557
6654,5551
6656,5545
6658,5540
6660,5535
6663,5530
6666,5525
6670,5521
6674,5517
6679,5514
6684,5511
6689,5509
6694,5507
6700,5505
6706,5505
6711,5504
6847,5504
6853,5505
Z" /> 
</g>
<g >
</g>
<g style="fill:#000000; fill-opacity:1.0; 
stroke:#000000; stroke-width:0; stroke-opacity:1; 
stroke-linecap:round; stroke-linejoin:round;">
<path style="fill:#000000; fill-opacity:1.0; 
stroke:#000000; stroke-width:0; stroke-opacity:1; 
stroke-linecap:round; stroke-linejoin:round;fill-rule:evenodd;"
d="M 12059,7911
12065,7911
12070,7913
12075,7915
12081,7917
12086,7920
12090,7924
12094,7927
12098,7932
12102,7936
12104,7941
12107,7946
12109,7952
12110,7957
12111,7963
12111,7968
12111,8104
12111,8110
12110,8116
12109,8121
12107,8126
12104,8132
12102,8136
12098,8141
12094,8145
12090,8149
12086,8153
12081,8155
12075,8158
12070,8160
12065,8161
12059,8162
12053,8162
11937,8162
11931,8162
11926,8161
11920,8160
11915,8158
11910,8155
11905,8153
11900,8149
11896,8145
11892,8141
11889,8136
11886,8132
11883,8126
11882,8121
11880,8116
11879,8110
11879,8104
11879,7968
11879,7963
11880,7957
11882,7952
11883,7946
11886,7941
11889,7936
11892,7932
11896,7927
11900,7924
11905,7920
11910,7917
11915,7915
11920,7913
11926,7911
11931,7911
11937,7910
12053,7910
12059,7911
Z" /> 
<path style="fill:#000000; fill-opacity:1.0; 
stroke:#000000; stroke-width:0; stroke-opacity:1; 
stroke-linecap:round; stroke-linejoin:round;fill-rule:evenodd;"
d="M 11677,7911
11683,7911
11688,7913
11694,7915
11699,7917
11704,7920
11708,7924
11712,7927
11716,7932
11720,7936
11723,7941
11725,7946
11727,7952
11728,7957
11729,7963
11729,7968
11729,8104
11729,8110
11728,8116
11727,8121
11725,8126
11723,8132
11720,8136
11716,8141
11712,8145
11708,8149
11704,8153
11699,8155
11694,8158
11688,8160
11683,8161
11677,8162
11671,8162
11555,8162
11550,8162
11544,8161
11538,8160
11533,8158
11528,8155
11523,8153
11518,8149
11514,8145
11510,8141
11507,8136
11504,8132
11502,8126
11500,8121
11498,8116
11497,8110
11497,8104
11497,7968
11497,7963
11498,7957
11500,7952
11502,7946
11504,7941
11507,7936
11510,7932
11514,7927
11518,7924
11523,7920
11528,7917
11533,7915
11538,7913
11544,7911
11550,7911
11555,7910
11671,7910
11677,7911
Z" /> 
</g>
<g >
</g>
<g style="fill:#000000; fill-opacity:1.0; 
stroke:#000000; stroke-width:0; stroke-opacity:1; 
stroke-linecap:round; stroke-linejoin:round;">
<path style="fill:#000000; fill-opacity:1.0; 
stroke:#000000; stroke-width:0; stroke-opacity:1; 
stroke-linecap:round; stroke-linejoin:round;fill-rule:evenodd;"
d="M 7977,8686
7983,8686
7988,8688
7994,8690
7999,8692
8004,8695
8008,8699
8012,8702
8016,8707
8020,8711
8023,8716
8025,8721
8027,8727
8028,8732
8029,8738
8029,8743
8029,8879
8029,8885
8028,8891
8027,8896
8025,8901
8023,8907
8020,8911
8016,8916
8012,8920
8008,8924
8004,8928
7999,8930
7994,8933
7988,8935
7983,8936
7977,8937
7971,8937
7855,8937
7850,8937
7844,8936
7838,8935
7833,8933
7828,8930
7823,8928
7818,8924
7814,8920
7810,8916
7807,8911
7804,8907
7802,8901
7800,8896
7798,8891
7797,8885
7797,8879
7797,8743
7797,8738
7798,8732
7800,8727
7802,8721
7804,8716
7807,8711
7810,8707
7814,8702
7818,8699
7823,8695
7828,8692
7833,8690
7838,8688
7844,8686
7850,8686
7855,8685
7971,8685
7977,8686
Z" /> 
<path style="fill:#000000; fill-opacity:1.0; 
stroke:#000000; stroke-width:0; stroke-opacity:1; 
stroke-linecap:round; stroke-linejoin:round;fill-rule:evenodd;"
d="M 8359,8686
8365,8686
8370,8688
8375,8690
8381,8692
8386,8695
8390,8699
8394,8702
8398,8707
8402,8711
8404,8716
8407,8721
8409,8727
8410,8732
8411,8738
8411,8743
8411,8879
8411,8885
8410,8891
8409,8896
8407,8901
8404,8907
8402,8911
8398,8916
8394,8920
8390,8924
8386,8928
8381,8930
8375,8933
8370,8935
8365,8936
8359,8937
8353,8937
8237,8937
8231,8937
8226,8936
8220,8935
8215,8933
8210,8930
8205,8928
8200,8924
8196,8920
8192,8916
8189,8911
8186,8907
8183,8901
8182,8896
8180,8891
8179,8885
8179,8879
8179,8743
8179,8738
8180,8732
8182,8727
8183,8721
8186,8716
8189,8711
8192,8707
8196,8702
8200,8699
8205,8695
8210,8692
8215,8690
8220,8688
8226,8686
8231,8686
8237,8685
8353,8685
8359,8686
Z" /> 
</g>
<g >
</g>
<g >
</g>
<g >
</g>
</g> 
</svg>
