<?xml version="1.0" standalone="no"?>
 <!DOCTYPE svg PUBLIC "-//W3C//DTD SVG 1.1//EN" 
 "http://www.w3.org/Graphics/SVG/1.1/DTD/svg11.dtd"> 
<svg xmlns="http://www.w3.org/2000/svg" version="1.1" 
    width="15.9817cm" height="9.46912cm" viewBox="0 0 62920 37280 ">
<title>SVG Picture created as SolarCell+Y-F_Paste.svg date 2019/11/01 14:39:14 </title>
  <desc>Picture generated by PCBNEW </desc>
<g style="fill:#000000; fill-opacity:1;stroke:#000000; stroke-opacity:1;
stroke-linecap:round; stroke-linejoin:round; "
 transform="translate(0 0) scale(1 1)">
</g>
<g style="fill:#000000; fill-opacity:0.0; 
stroke:#000000; stroke-width:-0.000393701; stroke-opacity:1; 
stroke-linecap:round; stroke-linejoin:round;">
<g >
</g>
<g >
</g>
<g style="fill:#000000; fill-opacity:0.0; 
stroke:#000000; stroke-width:-0.000393701; stroke-opacity:1; 
stroke-linecap:round; stroke-linejoin:round;">
</g>
<g style="fill:#000000; fill-opacity:0.0; 
stroke:#000000; stroke-width:0; stroke-opacity:1; 
stroke-linecap:round; stroke-linejoin:round;">
</g>
<g style="fill:#000000; fill-opacity:1.0; 
stroke:#000000; stroke-width:0; stroke-opacity:1; 
stroke-linecap:round; stroke-linejoin:round;">
<path style="fill:#000000; fill-opacity:1.0; 
stroke:#000000; stroke-width:0; stroke-opacity:1; 
stroke-linecap:round; stroke-linejoin:round;fill-rule:evenodd;"
d="M 1418,7836
1424,7836
1429,7838
1435,7840
1440,7842
1445,7845
1449,7849
1453,7852
1457,7857
1461,7861
1464,7866
1466,7871
1468,7877
1469,7882
1470,7888
1470,7893
1470,8029
1470,8035
1469,8041
1468,8046
1466,8051
1464,8057
1461,8061
1457,8066
1453,8070
1449,8074
1445,8078
1440,8080
1435,8083
1429,8085
1424,8086
1418,8087
1412,8087
1296,8087
1290,8087
1285,8086
1279,8085
1274,8083
1269,8080
1264,8078
1259,8074
1255,8070
1251,8066
1248,8061
1245,8057
1243,8051
1241,8046
1239,8041
1238,8035
1238,8029
1238,7893
1238,7888
1239,7882
1241,7877
1243,7871
1245,7866
1248,7861
1251,7857
1255,7852
1259,7849
1264,7845
1269,7842
1274,7840
1279,7838
1285,7836
1290,7836
1296,7835
1412,7835
1418,7836
Z" /> 
<path style="fill:#000000; fill-opacity:1.0; 
stroke:#000000; stroke-width:0; stroke-opacity:1; 
stroke-linecap:round; stroke-linejoin:round;fill-rule:evenodd;"
d="M 1036,7836
1042,7836
1047,7838
1053,7840
1058,7842
1063,7845
1067,7849
1071,7852
1075,7857
1079,7861
1082,7866
1084,7871
1086,7877
1087,7882
1088,7888
1088,7893
1088,8029
1088,8035
1087,8041
1086,8046
1084,8051
1082,8057
1079,8061
1075,8066
1071,8070
1067,8074
1063,8078
1058,8080
1053,8083
1047,8085
1042,8086
1036,8087
1030,8087
914,8087
909,8087
903,8086
897,8085
892,8083
887,8080
882,8078
877,8074
873,8070
869,8066
866,8061
863,8057
861,8051
859,8046
857,8041
856,8035
856,8029
856,7893
856,7888
857,7882
859,7877
861,7871
863,7866
866,7861
869,7857
873,7852
877,7849
882,7845
887,7842
892,7840
897,7838
903,7836
909,7836
914,7835
1030,7835
1036,7836
Z" /> 
</g>
<g >
</g>
<g >
</g>
<g >
</g>
<g >
</g>
<g >
</g>
<g style="fill:#000000; fill-opacity:1.0; 
stroke:#000000; stroke-width:0; stroke-opacity:1; 
stroke-linecap:round; stroke-linejoin:round;">
<path style="fill:#000000; fill-opacity:1.0; 
stroke:#000000; stroke-width:0; stroke-opacity:1; 
stroke-linecap:round; stroke-linejoin:round;fill-rule:evenodd;"
d="M 14378,12905
14378,15818
13591,15818
13591,12905
14378,12905
Z" /> 
<path style="fill:#000000; fill-opacity:1.0; 
stroke:#000000; stroke-width:0; stroke-opacity:1; 
stroke-linecap:round; stroke-linejoin:round;fill-rule:evenodd;"
d="M 6110,12905
6110,15818
5323,15818
5323,12905
6110,12905
Z" /> 
</g>
<g >
</g>
<g >
</g>
<g style="fill:#000000; fill-opacity:1.0; 
stroke:#000000; stroke-width:0; stroke-opacity:1; 
stroke-linecap:round; stroke-linejoin:round;">
<path style="fill:#000000; fill-opacity:1.0; 
stroke:#000000; stroke-width:0; stroke-opacity:1; 
stroke-linecap:round; stroke-linejoin:round;fill-rule:evenodd;"
d="M 1034,7836
1040,7836
1045,7838
1050,7840
1056,7842
1061,7845
1065,7849
1069,7852
1073,7857
1077,7861
1079,7866
1082,7871
1084,7877
1085,7882
1086,7888
1086,7893
1086,8029
1086,8035
1085,8041
1084,8046
1082,8051
1079,8057
1077,8061
1073,8066
1069,8070
1065,8074
1061,8078
1056,8080
1050,8083
1045,8085
1040,8086
1034,8087
1028,8087
912,8087
906,8087
901,8086
895,8085
890,8083
885,8080
880,8078
875,8074
871,8070
867,8066
864,8061
861,8057
858,8051
857,8046
855,8041
854,8035
854,8029
854,7893
854,7888
855,7882
857,7877
858,7871
861,7866
864,7861
867,7857
871,7852
875,7849
880,7845
885,7842
890,7840
895,7838
901,7836
906,7836
912,7835
1028,7835
1034,7836
Z" /> 
<path style="fill:#000000; fill-opacity:1.0; 
stroke:#000000; stroke-width:0; stroke-opacity:1; 
stroke-linecap:round; stroke-linejoin:round;fill-rule:evenodd;"
d="M 652,7836
658,7836
663,7838
669,7840
674,7842
679,7845
683,7849
687,7852
691,7857
695,7861
698,7866
700,7871
702,7877
703,7882
704,7888
704,7893
704,8029
704,8035
703,8041
702,8046
700,8051
698,8057
695,8061
691,8066
687,8070
683,8074
679,8078
674,8080
669,8083
663,8085
658,8086
652,8087
646,8087
530,8087
525,8087
519,8086
513,8085
508,8083
503,8080
498,8078
493,8074
489,8070
485,8066
482,8061
479,8057
477,8051
475,8046
473,8041
472,8035
472,8029
472,7893
472,7888
473,7882
475,7877
477,7871
479,7866
482,7861
485,7857
489,7852
493,7849
498,7845
503,7842
508,7840
513,7838
519,7836
525,7836
530,7835
646,7835
652,7836
Z" /> 
</g>
<g >
</g>
<g >
</g>
<g style="fill:#000000; fill-opacity:1.0; 
stroke:#000000; stroke-width:0; stroke-opacity:1; 
stroke-linecap:round; stroke-linejoin:round;">
<path style="fill:#000000; fill-opacity:1.0; 
stroke:#000000; stroke-width:0; stroke-opacity:1; 
stroke-linecap:round; stroke-linejoin:round;fill-rule:evenodd;"
d="M 743,6113
743,6468
467,6468
467,6113
743,6113
Z" /> 
<path style="fill:#000000; fill-opacity:1.0; 
stroke:#000000; stroke-width:0; stroke-opacity:1; 
stroke-linecap:round; stroke-linejoin:round;fill-rule:evenodd;"
d="M 1117,6113
1117,6468
841,6468
841,6113
1117,6113
Z" /> 
<path style="fill:#000000; fill-opacity:1.0; 
stroke:#000000; stroke-width:0; stroke-opacity:1; 
stroke-linecap:round; stroke-linejoin:round;fill-rule:evenodd;"
d="M 1491,6113
1491,6468
1215,6468
1215,6113
1491,6113
Z" /> 
<path style="fill:#000000; fill-opacity:1.0; 
stroke:#000000; stroke-width:0; stroke-opacity:1; 
stroke-linecap:round; stroke-linejoin:round;fill-rule:evenodd;"
d="M 1491,7255
1491,7609
1215,7609
1215,7255
1491,7255
Z" /> 
<path style="fill:#000000; fill-opacity:1.0; 
stroke:#000000; stroke-width:0; stroke-opacity:1; 
stroke-linecap:round; stroke-linejoin:round;fill-rule:evenodd;"
d="M 1117,7255
1117,7609
841,7609
841,7255
1117,7255
Z" /> 
<path style="fill:#000000; fill-opacity:1.0; 
stroke:#000000; stroke-width:0; stroke-opacity:1; 
stroke-linecap:round; stroke-linejoin:round;fill-rule:evenodd;"
d="M 743,7255
743,7609
467,7609
467,7255
743,7255
Z" /> 
</g>
<g >
</g>
<g >
</g>
<g >
</g>
<g style="fill:#000000; fill-opacity:1.0; 
stroke:#000000; stroke-width:0; stroke-opacity:1; 
stroke-linecap:round; stroke-linejoin:round;">
<path style="fill:#000000; fill-opacity:1.0; 
stroke:#000000; stroke-width:0; stroke-opacity:1; 
stroke-linecap:round; stroke-linejoin:round;fill-rule:evenodd;"
d="M 5324,19118
5324,16205
6112,16205
6112,19118
5324,19118
Z" /> 
<path style="fill:#000000; fill-opacity:1.0; 
stroke:#000000; stroke-width:0; stroke-opacity:1; 
stroke-linecap:round; stroke-linejoin:round;fill-rule:evenodd;"
d="M 13592,19118
13592,16205
14379,16205
14379,19118
13592,19118
Z" /> 
</g>
<g >
</g>
<g style="fill:#000000; fill-opacity:1.0; 
stroke:#000000; stroke-width:0; stroke-opacity:1; 
stroke-linecap:round; stroke-linejoin:round;">
<path style="fill:#000000; fill-opacity:1.0; 
stroke:#000000; stroke-width:0; stroke-opacity:1; 
stroke-linecap:round; stroke-linejoin:round;fill-rule:evenodd;"
d="M 14894,8685
17808,8685
17808,9473
14894,9473
14894,8685
Z" /> 
<path style="fill:#000000; fill-opacity:1.0; 
stroke:#000000; stroke-width:0; stroke-opacity:1; 
stroke-linecap:round; stroke-linejoin:round;fill-rule:evenodd;"
d="M 14894,418
17808,418
17808,1205
14894,1205
14894,418
Z" /> 
</g>
<g >
</g>
<g style="fill:#000000; fill-opacity:1.0; 
stroke:#000000; stroke-width:0; stroke-opacity:1; 
stroke-linecap:round; stroke-linejoin:round;">
<path style="fill:#000000; fill-opacity:1.0; 
stroke:#000000; stroke-width:0; stroke-opacity:1; 
stroke-linecap:round; stroke-linejoin:round;fill-rule:evenodd;"
d="M 4809,11033
1896,11033
1896,10246
4809,10246
4809,11033
Z" /> 
<path style="fill:#000000; fill-opacity:1.0; 
stroke:#000000; stroke-width:0; stroke-opacity:1; 
stroke-linecap:round; stroke-linejoin:round;fill-rule:evenodd;"
d="M 4809,19301
1896,19301
1896,18513
4809,18513
4809,19301
Z" /> 
</g>
<g >
</g>
<g style="fill:#000000; fill-opacity:1.0; 
stroke:#000000; stroke-width:0; stroke-opacity:1; 
stroke-linecap:round; stroke-linejoin:round;">
<path style="fill:#000000; fill-opacity:1.0; 
stroke:#000000; stroke-width:0; stroke-opacity:1; 
stroke-linecap:round; stroke-linejoin:round;fill-rule:evenodd;"
d="M 1896,8685
4809,8685
4809,9473
1896,9473
1896,8685
Z" /> 
<path style="fill:#000000; fill-opacity:1.0; 
stroke:#000000; stroke-width:0; stroke-opacity:1; 
stroke-linecap:round; stroke-linejoin:round;fill-rule:evenodd;"
d="M 1896,418
4809,418
4809,1205
1896,1205
1896,418
Z" /> 
</g>
<g >
</g>
<g style="fill:#000000; fill-opacity:1.0; 
stroke:#000000; stroke-width:0; stroke-opacity:1; 
stroke-linecap:round; stroke-linejoin:round;">
<path style="fill:#000000; fill-opacity:1.0; 
stroke:#000000; stroke-width:0; stroke-opacity:1; 
stroke-linecap:round; stroke-linejoin:round;fill-rule:evenodd;"
d="M 17808,11033
14894,11033
14894,10246
17808,10246
17808,11033
Z" /> 
<path style="fill:#000000; fill-opacity:1.0; 
stroke:#000000; stroke-width:0; stroke-opacity:1; 
stroke-linecap:round; stroke-linejoin:round;fill-rule:evenodd;"
d="M 17808,19301
14894,19301
14894,18513
17808,18513
17808,19301
Z" /> 
</g>
<g >
</g>
<g style="fill:#000000; fill-opacity:1.0; 
stroke:#000000; stroke-width:0; stroke-opacity:1; 
stroke-linecap:round; stroke-linejoin:round;">
<path style="fill:#000000; fill-opacity:1.0; 
stroke:#000000; stroke-width:0; stroke-opacity:1; 
stroke-linecap:round; stroke-linejoin:round;fill-rule:evenodd;"
d="M 13592,3568
13592,655
14379,655
14379,3568
13592,3568
Z" /> 
<path style="fill:#000000; fill-opacity:1.0; 
stroke:#000000; stroke-width:0; stroke-opacity:1; 
stroke-linecap:round; stroke-linejoin:round;fill-rule:evenodd;"
d="M 5324,3568
5324,655
6112,655
6112,3568
5324,3568
Z" /> 
</g>
<g >
</g>
<g style="fill:#000000; fill-opacity:1.0; 
stroke:#000000; stroke-width:0; stroke-opacity:1; 
stroke-linecap:round; stroke-linejoin:round;">
<path style="fill:#000000; fill-opacity:1.0; 
stroke:#000000; stroke-width:0; stroke-opacity:1; 
stroke-linecap:round; stroke-linejoin:round;fill-rule:evenodd;"
d="M 6110,3905
6110,6818
5323,6818
5323,3905
6110,3905
Z" /> 
<path style="fill:#000000; fill-opacity:1.0; 
stroke:#000000; stroke-width:0; stroke-opacity:1; 
stroke-linecap:round; stroke-linejoin:round;fill-rule:evenodd;"
d="M 14378,3905
14378,6818
13591,6818
13591,3905
14378,3905
Z" /> 
</g>
<g >
</g>
<g style="fill:#000000; fill-opacity:1.0; 
stroke:#000000; stroke-width:0; stroke-opacity:1; 
stroke-linecap:round; stroke-linejoin:round;">
<path style="fill:#000000; fill-opacity:1.0; 
stroke:#000000; stroke-width:0; stroke-opacity:1; 
stroke-linecap:round; stroke-linejoin:round;fill-rule:evenodd;"
d="M 1330,9409
779,9409
779,8857
1330,8857
1330,9409
Z" /> 
<path style="fill:#000000; fill-opacity:1.0; 
stroke:#000000; stroke-width:0; stroke-opacity:1; 
stroke-linecap:round; stroke-linejoin:round;fill-rule:evenodd;"
d="M 1330,10865
779,10865
779,9802
1330,9802
1330,10865
Z" /> 
</g>
<g >
</g>
<g style="fill:#000000; fill-opacity:1.0; 
stroke:#000000; stroke-width:0; stroke-opacity:1; 
stroke-linecap:round; stroke-linejoin:round;">
<path style="fill:#000000; fill-opacity:1.0; 
stroke:#000000; stroke-width:0; stroke-opacity:1; 
stroke-linecap:round; stroke-linejoin:round;fill-rule:evenodd;"
d="M 18379,10314
18930,10314
18930,10865
18379,10865
18379,10314
Z" /> 
<path style="fill:#000000; fill-opacity:1.0; 
stroke:#000000; stroke-width:0; stroke-opacity:1; 
stroke-linecap:round; stroke-linejoin:round;fill-rule:evenodd;"
d="M 18379,8857
18930,8857
18930,9920
18379,9920
18379,8857
Z" /> 
</g>
<g >
</g>
<g style="fill:#000000; fill-opacity:1.0; 
stroke:#000000; stroke-width:0; stroke-opacity:1; 
stroke-linecap:round; stroke-linejoin:round;">
<path style="fill:#000000; fill-opacity:1.0; 
stroke:#000000; stroke-width:0; stroke-opacity:1; 
stroke-linecap:round; stroke-linejoin:round;fill-rule:evenodd;"
d="M 6627,11911
6633,11911
6638,11913
6644,11915
6649,11917
6654,11920
6658,11924
6662,11927
6666,11932
6670,11936
6673,11941
6675,11946
6677,11952
6678,11957
6679,11963
6679,11968
6679,12104
6679,12110
6678,12116
6677,12121
6675,12126
6673,12132
6670,12136
6666,12141
6662,12145
6658,12149
6654,12153
6649,12155
6644,12158
6638,12160
6633,12161
6627,12162
6621,12162
6505,12162
6500,12162
6494,12161
6488,12160
6483,12158
6478,12155
6473,12153
6468,12149
6464,12145
6460,12141
6457,12136
6454,12132
6452,12126
6450,12121
6448,12116
6447,12110
6447,12104
6447,11968
6447,11963
6448,11957
6450,11952
6452,11946
6454,11941
6457,11936
6460,11932
6464,11927
6468,11924
6473,11920
6478,11917
6483,11915
6488,11913
6494,11911
6500,11911
6505,11910
6621,11910
6627,11911
Z" /> 
<path style="fill:#000000; fill-opacity:1.0; 
stroke:#000000; stroke-width:0; stroke-opacity:1; 
stroke-linecap:round; stroke-linejoin:round;fill-rule:evenodd;"
d="M 7009,11911
7015,11911
7020,11913
7025,11915
7031,11917
7036,11920
7040,11924
7044,11927
7048,11932
7052,11936
7054,11941
7057,11946
7059,11952
7060,11957
7061,11963
7061,11968
7061,12104
7061,12110
7060,12116
7059,12121
7057,12126
7054,12132
7052,12136
7048,12141
7044,12145
7040,12149
7036,12153
7031,12155
7025,12158
7020,12160
7015,12161
7009,12162
7003,12162
6887,12162
6881,12162
6876,12161
6870,12160
6865,12158
6860,12155
6855,12153
6850,12149
6846,12145
6842,12141
6839,12136
6836,12132
6833,12126
6832,12121
6830,12116
6829,12110
6829,12104
6829,11968
6829,11963
6830,11957
6832,11952
6833,11946
6836,11941
6839,11936
6842,11932
6846,11927
6850,11924
6855,11920
6860,11917
6865,11915
6870,11913
6876,11911
6881,11911
6887,11910
7003,11910
7009,11911
Z" /> 
</g>
<g >
</g>
<g style="fill:#000000; fill-opacity:1.0; 
stroke:#000000; stroke-width:0; stroke-opacity:1; 
stroke-linecap:round; stroke-linejoin:round;">
<path style="fill:#000000; fill-opacity:1.0; 
stroke:#000000; stroke-width:0; stroke-opacity:1; 
stroke-linecap:round; stroke-linejoin:round;fill-rule:evenodd;"
d="M 6245,11911
6251,11911
6256,11913
6262,11915
6267,11917
6272,11920
6276,11924
6280,11927
6284,11932
6288,11936
6291,11941
6293,11946
6295,11952
6296,11957
6297,11963
6297,11968
6297,12104
6297,12110
6296,12116
6295,12121
6293,12126
6291,12132
6288,12136
6284,12141
6280,12145
6276,12149
6272,12153
6267,12155
6262,12158
6256,12160
6251,12161
6245,12162
6239,12162
6123,12162
6118,12162
6112,12161
6106,12160
6101,12158
6096,12155
6091,12153
6086,12149
6082,12145
6078,12141
6075,12136
6072,12132
6070,12126
6068,12121
6066,12116
6065,12110
6065,12104
6065,11968
6065,11963
6066,11957
6068,11952
6070,11946
6072,11941
6075,11936
6078,11932
6082,11927
6086,11924
6091,11920
6096,11917
6101,11915
6106,11913
6112,11911
6118,11911
6123,11910
6239,11910
6245,11911
Z" /> 
<path style="fill:#000000; fill-opacity:1.0; 
stroke:#000000; stroke-width:0; stroke-opacity:1; 
stroke-linecap:round; stroke-linejoin:round;fill-rule:evenodd;"
d="M 6627,11911
6633,11911
6638,11913
6643,11915
6649,11917
6654,11920
6658,11924
6662,11927
6666,11932
6670,11936
6672,11941
6675,11946
6677,11952
6678,11957
6679,11963
6679,11968
6679,12104
6679,12110
6678,12116
6677,12121
6675,12126
6672,12132
6670,12136
6666,12141
6662,12145
6658,12149
6654,12153
6649,12155
6643,12158
6638,12160
6633,12161
6627,12162
6621,12162
6505,12162
6499,12162
6494,12161
6488,12160
6483,12158
6478,12155
6473,12153
6468,12149
6464,12145
6460,12141
6457,12136
6454,12132
6451,12126
6450,12121
6448,12116
6447,12110
6447,12104
6447,11968
6447,11963
6448,11957
6450,11952
6451,11946
6454,11941
6457,11936
6460,11932
6464,11927
6468,11924
6473,11920
6478,11917
6483,11915
6488,11913
6494,11911
6499,11911
6505,11910
6621,11910
6627,11911
Z" /> 
</g>
<g >
</g>
<g style="fill:#000000; fill-opacity:1.0; 
stroke:#000000; stroke-width:0; stroke-opacity:1; 
stroke-linecap:round; stroke-linejoin:round;">
<path style="fill:#000000; fill-opacity:1.0; 
stroke:#000000; stroke-width:0; stroke-opacity:1; 
stroke-linecap:round; stroke-linejoin:round;fill-rule:evenodd;"
d="M 6627,12461
6633,12461
6638,12463
6644,12465
6649,12467
6654,12470
6658,12474
6662,12477
6666,12482
6670,12486
6673,12491
6675,12496
6677,12502
6678,12507
6679,12513
6679,12518
6679,12654
6679,12660
6678,12666
6677,12671
6675,12676
6673,12682
6670,12686
6666,12691
6662,12695
6658,12699
6654,12703
6649,12705
6644,12708
6638,12710
6633,12711
6627,12712
6621,12712
6505,12712
6500,12712
6494,12711
6488,12710
6483,12708
6478,12705
6473,12703
6468,12699
6464,12695
6460,12691
6457,12686
6454,12682
6452,12676
6450,12671
6448,12666
6447,12660
6447,12654
6447,12518
6447,12513
6448,12507
6450,12502
6452,12496
6454,12491
6457,12486
6460,12482
6464,12477
6468,12474
6473,12470
6478,12467
6483,12465
6488,12463
6494,12461
6500,12461
6505,12460
6621,12460
6627,12461
Z" /> 
<path style="fill:#000000; fill-opacity:1.0; 
stroke:#000000; stroke-width:0; stroke-opacity:1; 
stroke-linecap:round; stroke-linejoin:round;fill-rule:evenodd;"
d="M 7009,12461
7015,12461
7020,12463
7025,12465
7031,12467
7036,12470
7040,12474
7044,12477
7048,12482
7052,12486
7054,12491
7057,12496
7059,12502
7060,12507
7061,12513
7061,12518
7061,12654
7061,12660
7060,12666
7059,12671
7057,12676
7054,12682
7052,12686
7048,12691
7044,12695
7040,12699
7036,12703
7031,12705
7025,12708
7020,12710
7015,12711
7009,12712
7003,12712
6887,12712
6881,12712
6876,12711
6870,12710
6865,12708
6860,12705
6855,12703
6850,12699
6846,12695
6842,12691
6839,12686
6836,12682
6833,12676
6832,12671
6830,12666
6829,12660
6829,12654
6829,12518
6829,12513
6830,12507
6832,12502
6833,12496
6836,12491
6839,12486
6842,12482
6846,12477
6850,12474
6855,12470
6860,12467
6865,12465
6870,12463
6876,12461
6881,12461
6887,12460
7003,12460
7009,12461
Z" /> 
</g>
<g >
</g>
<g style="fill:#000000; fill-opacity:1.0; 
stroke:#000000; stroke-width:0; stroke-opacity:1; 
stroke-linecap:round; stroke-linejoin:round;">
<path style="fill:#000000; fill-opacity:1.0; 
stroke:#000000; stroke-width:0; stroke-opacity:1; 
stroke-linecap:round; stroke-linejoin:round;fill-rule:evenodd;"
d="M 6245,12461
6251,12461
6256,12463
6262,12465
6267,12467
6272,12470
6276,12474
6280,12477
6284,12482
6288,12486
6291,12491
6293,12496
6295,12502
6296,12507
6297,12513
6297,12518
6297,12654
6297,12660
6296,12666
6295,12671
6293,12676
6291,12682
6288,12686
6284,12691
6280,12695
6276,12699
6272,12703
6267,12705
6262,12708
6256,12710
6251,12711
6245,12712
6239,12712
6123,12712
6118,12712
6112,12711
6106,12710
6101,12708
6096,12705
6091,12703
6086,12699
6082,12695
6078,12691
6075,12686
6072,12682
6070,12676
6068,12671
6066,12666
6065,12660
6065,12654
6065,12518
6065,12513
6066,12507
6068,12502
6070,12496
6072,12491
6075,12486
6078,12482
6082,12477
6086,12474
6091,12470
6096,12467
6101,12465
6106,12463
6112,12461
6118,12461
6123,12460
6239,12460
6245,12461
Z" /> 
<path style="fill:#000000; fill-opacity:1.0; 
stroke:#000000; stroke-width:0; stroke-opacity:1; 
stroke-linecap:round; stroke-linejoin:round;fill-rule:evenodd;"
d="M 6627,12461
6633,12461
6638,12463
6643,12465
6649,12467
6654,12470
6658,12474
6662,12477
6666,12482
6670,12486
6672,12491
6675,12496
6677,12502
6678,12507
6679,12513
6679,12518
6679,12654
6679,12660
6678,12666
6677,12671
6675,12676
6672,12682
6670,12686
6666,12691
6662,12695
6658,12699
6654,12703
6649,12705
6643,12708
6638,12710
6633,12711
6627,12712
6621,12712
6505,12712
6499,12712
6494,12711
6488,12710
6483,12708
6478,12705
6473,12703
6468,12699
6464,12695
6460,12691
6457,12686
6454,12682
6451,12676
6450,12671
6448,12666
6447,12660
6447,12654
6447,12518
6447,12513
6448,12507
6450,12502
6451,12496
6454,12491
6457,12486
6460,12482
6464,12477
6468,12474
6473,12470
6478,12467
6483,12465
6488,12463
6494,12461
6499,12461
6505,12460
6621,12460
6627,12461
Z" /> 
</g>
<g >
</g>
<g style="fill:#000000; fill-opacity:1.0; 
stroke:#000000; stroke-width:0; stroke-opacity:1; 
stroke-linecap:round; stroke-linejoin:round;">
<path style="fill:#000000; fill-opacity:1.0; 
stroke:#000000; stroke-width:0; stroke-opacity:1; 
stroke-linecap:round; stroke-linejoin:round;fill-rule:evenodd;"
d="M 852,8286
858,8286
863,8288
869,8290
874,8292
879,8295
883,8299
887,8302
891,8307
895,8311
898,8316
900,8321
902,8327
903,8332
904,8338
904,8343
904,8479
904,8485
903,8491
902,8496
900,8501
898,8507
895,8511
891,8516
887,8520
883,8524
879,8528
874,8530
869,8533
863,8535
858,8536
852,8537
846,8537
730,8537
725,8537
719,8536
713,8535
708,8533
703,8530
698,8528
693,8524
689,8520
685,8516
682,8511
679,8507
677,8501
675,8496
673,8491
672,8485
672,8479
672,8343
672,8338
673,8332
675,8327
677,8321
679,8316
682,8311
685,8307
689,8302
693,8299
698,8295
703,8292
708,8290
713,8288
719,8286
725,8286
730,8285
846,8285
852,8286
Z" /> 
<path style="fill:#000000; fill-opacity:1.0; 
stroke:#000000; stroke-width:0; stroke-opacity:1; 
stroke-linecap:round; stroke-linejoin:round;fill-rule:evenodd;"
d="M 1234,8286
1240,8286
1245,8288
1250,8290
1256,8292
1261,8295
1265,8299
1269,8302
1273,8307
1277,8311
1279,8316
1282,8321
1284,8327
1285,8332
1286,8338
1286,8343
1286,8479
1286,8485
1285,8491
1284,8496
1282,8501
1279,8507
1277,8511
1273,8516
1269,8520
1265,8524
1261,8528
1256,8530
1250,8533
1245,8535
1240,8536
1234,8537
1228,8537
1112,8537
1106,8537
1101,8536
1095,8535
1090,8533
1085,8530
1080,8528
1075,8524
1071,8520
1067,8516
1064,8511
1061,8507
1058,8501
1057,8496
1055,8491
1054,8485
1054,8479
1054,8343
1054,8338
1055,8332
1057,8327
1058,8321
1061,8316
1064,8311
1067,8307
1071,8302
1075,8299
1080,8295
1085,8292
1090,8290
1095,8288
1101,8286
1106,8286
1112,8285
1228,8285
1234,8286
Z" /> 
</g>
<g >
</g>
<g >
</g>
<g >
</g>
<g >
</g>
<g >
</g>
<g >
</g>
<g >
</g>
<g >
</g>
<g >
</g>
<g >
</g>
<g >
</g>
<g >
</g>
<g >
</g>
<g >
</g>
<g >
</g>
<g >
</g>
<g >
</g>
<g >
</g>
<g >
</g>
<g >
</g>
<g >
</g>
<g >
</g>
<g >
</g>
<g >
</g>
<g >
</g>
<g >
</g>
<g >
</g>
<g >
</g>
<g >
</g>
<g >
</g>
<g >
</g>
<g >
</g>
<g >
</g>
</g> 
</svg>
