%TF.GenerationSoftware,KiCad,Pcbnew,(5.1.4)-1*%
%TF.CreationDate,2019-12-20T15:52:10-07:00*%
%TF.ProjectId,SolarCell+Y,536f6c61-7243-4656-9c6c-2b592e6b6963,rev?*%
%TF.SameCoordinates,Original*%
%TF.FileFunction,Legend,Bot*%
%TF.FilePolarity,Positive*%
%FSLAX46Y46*%
G04 Gerber Fmt 4.6, Leading zero omitted, Abs format (unit mm)*
G04 Created by KiCad (PCBNEW (5.1.4)-1) date 2019-12-20 15:52:10*
%MOMM*%
%LPD*%
G04 APERTURE LIST*
%ADD10C,0.177800*%
%ADD11C,0.120000*%
%ADD12C,0.150000*%
%ADD13C,0.050000*%
%ADD14C,0.203200*%
%ADD15C,0.127000*%
%ADD16C,0.200000*%
%ADD17C,0.100000*%
%ADD18C,0.250000*%
%ADD19C,0.254000*%
%ADD20C,0.101600*%
G04 APERTURE END LIST*
D10*
X185704171Y-61342198D02*
X185751790Y-61485055D01*
X185799409Y-61532674D01*
X185894647Y-61580293D01*
X186037504Y-61580293D01*
X186132742Y-61532674D01*
X186180361Y-61485055D01*
X186227980Y-61389817D01*
X186227980Y-61008865D01*
X185227980Y-61008865D01*
X185227980Y-61342198D01*
X185275600Y-61437436D01*
X185323219Y-61485055D01*
X185418457Y-61532674D01*
X185513695Y-61532674D01*
X185608933Y-61485055D01*
X185656552Y-61437436D01*
X185704171Y-61342198D01*
X185704171Y-61008865D01*
X185227980Y-62008865D02*
X186037504Y-62008865D01*
X186132742Y-62056484D01*
X186180361Y-62104103D01*
X186227980Y-62199341D01*
X186227980Y-62389817D01*
X186180361Y-62485055D01*
X186132742Y-62532674D01*
X186037504Y-62580293D01*
X185227980Y-62580293D01*
X186227980Y-63627912D02*
X185751790Y-63294579D01*
X186227980Y-63056484D02*
X185227980Y-63056484D01*
X185227980Y-63437436D01*
X185275600Y-63532674D01*
X185323219Y-63580293D01*
X185418457Y-63627912D01*
X185561314Y-63627912D01*
X185656552Y-63580293D01*
X185704171Y-63532674D01*
X185751790Y-63437436D01*
X185751790Y-63056484D01*
X186227980Y-64056484D02*
X185227980Y-64056484D01*
X186227980Y-64627912D01*
X185227980Y-64627912D01*
D11*
X182651400Y-55397400D02*
X182651400Y-54330600D01*
D10*
X184313580Y-73794608D02*
X185313580Y-74127941D01*
X184313580Y-74461274D01*
X184789771Y-75127941D02*
X184837390Y-75270798D01*
X184885009Y-75318417D01*
X184980247Y-75366036D01*
X185123104Y-75366036D01*
X185218342Y-75318417D01*
X185265961Y-75270798D01*
X185313580Y-75175560D01*
X185313580Y-74794608D01*
X184313580Y-74794608D01*
X184313580Y-75127941D01*
X184361200Y-75223179D01*
X184408819Y-75270798D01*
X184504057Y-75318417D01*
X184599295Y-75318417D01*
X184694533Y-75270798D01*
X184742152Y-75223179D01*
X184789771Y-75127941D01*
X184789771Y-74794608D01*
X185027866Y-75746989D02*
X185027866Y-76223179D01*
X185313580Y-75651750D02*
X184313580Y-75985084D01*
X185313580Y-76318417D01*
X184313580Y-76508893D02*
X184313580Y-77080322D01*
X185313580Y-76794608D02*
X184313580Y-76794608D01*
X179995580Y-73870808D02*
X180995580Y-74204141D01*
X179995580Y-74537474D01*
X180947961Y-74823189D02*
X180995580Y-74966046D01*
X180995580Y-75204141D01*
X180947961Y-75299379D01*
X180900342Y-75346998D01*
X180805104Y-75394617D01*
X180709866Y-75394617D01*
X180614628Y-75346998D01*
X180567009Y-75299379D01*
X180519390Y-75204141D01*
X180471771Y-75013665D01*
X180424152Y-74918427D01*
X180376533Y-74870808D01*
X180281295Y-74823189D01*
X180186057Y-74823189D01*
X180090819Y-74870808D01*
X180043200Y-74918427D01*
X179995580Y-75013665D01*
X179995580Y-75251760D01*
X180043200Y-75394617D01*
X179995580Y-76013665D02*
X179995580Y-76204141D01*
X180043200Y-76299379D01*
X180138438Y-76394617D01*
X180328914Y-76442236D01*
X180662247Y-76442236D01*
X180852723Y-76394617D01*
X180947961Y-76299379D01*
X180995580Y-76204141D01*
X180995580Y-76013665D01*
X180947961Y-75918427D01*
X180852723Y-75823189D01*
X180662247Y-75775570D01*
X180328914Y-75775570D01*
X180138438Y-75823189D01*
X180043200Y-75918427D01*
X179995580Y-76013665D01*
X180995580Y-77346998D02*
X180995580Y-76870808D01*
X179995580Y-76870808D01*
X180709866Y-77632712D02*
X180709866Y-78108903D01*
X180995580Y-77537474D02*
X179995580Y-77870808D01*
X180995580Y-78204141D01*
X180995580Y-79108903D02*
X180519390Y-78775570D01*
X180995580Y-78537474D02*
X179995580Y-78537474D01*
X179995580Y-78918427D01*
X180043200Y-79013665D01*
X180090819Y-79061284D01*
X180186057Y-79108903D01*
X180328914Y-79108903D01*
X180424152Y-79061284D01*
X180471771Y-79013665D01*
X180519390Y-78918427D01*
X180519390Y-78537474D01*
X176487200Y-74537474D02*
X176439580Y-74442236D01*
X176439580Y-74299379D01*
X176487200Y-74156522D01*
X176582438Y-74061284D01*
X176677676Y-74013665D01*
X176868152Y-73966046D01*
X177011009Y-73966046D01*
X177201485Y-74013665D01*
X177296723Y-74061284D01*
X177391961Y-74156522D01*
X177439580Y-74299379D01*
X177439580Y-74394617D01*
X177391961Y-74537474D01*
X177344342Y-74585093D01*
X177011009Y-74585093D01*
X177011009Y-74394617D01*
X177439580Y-75013665D02*
X176439580Y-75013665D01*
X177439580Y-75585093D01*
X176439580Y-75585093D01*
X177439580Y-76061284D02*
X176439580Y-76061284D01*
X176439580Y-76299379D01*
X176487200Y-76442236D01*
X176582438Y-76537474D01*
X176677676Y-76585093D01*
X176868152Y-76632712D01*
X177011009Y-76632712D01*
X177201485Y-76585093D01*
X177296723Y-76537474D01*
X177391961Y-76442236D01*
X177439580Y-76299379D01*
X177439580Y-76061284D01*
X171054780Y-74121627D02*
X171054780Y-74740674D01*
X171435733Y-74407341D01*
X171435733Y-74550198D01*
X171483352Y-74645436D01*
X171530971Y-74693055D01*
X171626209Y-74740674D01*
X171864304Y-74740674D01*
X171959542Y-74693055D01*
X172007161Y-74645436D01*
X172054780Y-74550198D01*
X172054780Y-74264484D01*
X172007161Y-74169246D01*
X171959542Y-74121627D01*
X171054780Y-75026389D02*
X172054780Y-75359722D01*
X171054780Y-75693055D01*
X171054780Y-75931150D02*
X171054780Y-76550198D01*
X171435733Y-76216865D01*
X171435733Y-76359722D01*
X171483352Y-76454960D01*
X171530971Y-76502579D01*
X171626209Y-76550198D01*
X171864304Y-76550198D01*
X171959542Y-76502579D01*
X172007161Y-76454960D01*
X172054780Y-76359722D01*
X172054780Y-76074008D01*
X172007161Y-75978770D01*
X171959542Y-75931150D01*
X160691925Y-64765180D02*
X161263353Y-64765180D01*
X160977639Y-64765180D02*
X160977639Y-63765180D01*
X161072877Y-63908038D01*
X161168115Y-64003276D01*
X161263353Y-64050895D01*
D12*
X166275776Y-67164142D02*
X166323395Y-67211761D01*
X166466252Y-67259380D01*
X166561490Y-67259380D01*
X166704347Y-67211761D01*
X166799585Y-67116523D01*
X166847204Y-67021285D01*
X166894823Y-66830809D01*
X166894823Y-66687952D01*
X166847204Y-66497476D01*
X166799585Y-66402238D01*
X166704347Y-66307000D01*
X166561490Y-66259380D01*
X166466252Y-66259380D01*
X166323395Y-66307000D01*
X166275776Y-66354619D01*
X165418633Y-67259380D02*
X165418633Y-66735571D01*
X165466252Y-66640333D01*
X165561490Y-66592714D01*
X165751966Y-66592714D01*
X165847204Y-66640333D01*
X165418633Y-67211761D02*
X165513871Y-67259380D01*
X165751966Y-67259380D01*
X165847204Y-67211761D01*
X165894823Y-67116523D01*
X165894823Y-67021285D01*
X165847204Y-66926047D01*
X165751966Y-66878428D01*
X165513871Y-66878428D01*
X165418633Y-66830809D01*
X164942442Y-67259380D02*
X164942442Y-66259380D01*
X164942442Y-66640333D02*
X164847204Y-66592714D01*
X164656728Y-66592714D01*
X164561490Y-66640333D01*
X164513871Y-66687952D01*
X164466252Y-66783190D01*
X164466252Y-67068904D01*
X164513871Y-67164142D01*
X164561490Y-67211761D01*
X164656728Y-67259380D01*
X164847204Y-67259380D01*
X164942442Y-67211761D01*
X163894823Y-67259380D02*
X163990061Y-67211761D01*
X164037680Y-67116523D01*
X164037680Y-66259380D01*
X163132919Y-67211761D02*
X163228157Y-67259380D01*
X163418633Y-67259380D01*
X163513871Y-67211761D01*
X163561490Y-67116523D01*
X163561490Y-66735571D01*
X163513871Y-66640333D01*
X163418633Y-66592714D01*
X163228157Y-66592714D01*
X163132919Y-66640333D01*
X163085300Y-66735571D01*
X163085300Y-66830809D01*
X163561490Y-66926047D01*
X161894823Y-67259380D02*
X161894823Y-66259380D01*
X161513871Y-66259380D01*
X161418633Y-66307000D01*
X161371014Y-66354619D01*
X161323395Y-66449857D01*
X161323395Y-66592714D01*
X161371014Y-66687952D01*
X161418633Y-66735571D01*
X161513871Y-66783190D01*
X161894823Y-66783190D01*
X160894823Y-67259380D02*
X160894823Y-66592714D01*
X160894823Y-66259380D02*
X160942442Y-66307000D01*
X160894823Y-66354619D01*
X160847204Y-66307000D01*
X160894823Y-66259380D01*
X160894823Y-66354619D01*
X160418633Y-66592714D02*
X160418633Y-67259380D01*
X160418633Y-66687952D02*
X160371014Y-66640333D01*
X160275776Y-66592714D01*
X160132919Y-66592714D01*
X160037680Y-66640333D01*
X159990061Y-66735571D01*
X159990061Y-67259380D01*
X159371014Y-67259380D02*
X159466252Y-67211761D01*
X159513871Y-67164142D01*
X159561490Y-67068904D01*
X159561490Y-66783190D01*
X159513871Y-66687952D01*
X159466252Y-66640333D01*
X159371014Y-66592714D01*
X159228157Y-66592714D01*
X159132919Y-66640333D01*
X159085300Y-66687952D01*
X159037680Y-66783190D01*
X159037680Y-67068904D01*
X159085300Y-67164142D01*
X159132919Y-67211761D01*
X159228157Y-67259380D01*
X159371014Y-67259380D01*
X158180538Y-66592714D02*
X158180538Y-67259380D01*
X158609109Y-66592714D02*
X158609109Y-67116523D01*
X158561490Y-67211761D01*
X158466252Y-67259380D01*
X158323395Y-67259380D01*
X158228157Y-67211761D01*
X158180538Y-67164142D01*
X157847204Y-66592714D02*
X157466252Y-66592714D01*
X157704347Y-66259380D02*
X157704347Y-67116523D01*
X157656728Y-67211761D01*
X157561490Y-67259380D01*
X157466252Y-67259380D01*
X166323395Y-68909380D02*
X166894823Y-68909380D01*
X166609109Y-68909380D02*
X166609109Y-67909380D01*
X166704347Y-68052238D01*
X166799585Y-68147476D01*
X166894823Y-68195095D01*
X165894823Y-68814142D02*
X165847204Y-68861761D01*
X165894823Y-68909380D01*
X165942442Y-68861761D01*
X165894823Y-68814142D01*
X165894823Y-68909380D01*
X165085300Y-68385571D02*
X164942442Y-68433190D01*
X164894823Y-68480809D01*
X164847204Y-68576047D01*
X164847204Y-68718904D01*
X164894823Y-68814142D01*
X164942442Y-68861761D01*
X165037680Y-68909380D01*
X165418633Y-68909380D01*
X165418633Y-67909380D01*
X165085300Y-67909380D01*
X164990061Y-67957000D01*
X164942442Y-68004619D01*
X164894823Y-68099857D01*
X164894823Y-68195095D01*
X164942442Y-68290333D01*
X164990061Y-68337952D01*
X165085300Y-68385571D01*
X165418633Y-68385571D01*
X164466252Y-68623666D02*
X163990061Y-68623666D01*
X164561490Y-68909380D02*
X164228157Y-67909380D01*
X163894823Y-68909380D01*
X163704347Y-67909380D02*
X163132919Y-67909380D01*
X163418633Y-68909380D02*
X163418633Y-67909380D01*
X162942442Y-67909380D02*
X162371014Y-67909380D01*
X162656728Y-68909380D02*
X162656728Y-67909380D01*
X162275776Y-69004619D02*
X161513871Y-69004619D01*
X161275776Y-68909380D02*
X161275776Y-67909380D01*
X160894823Y-67909380D01*
X160799585Y-67957000D01*
X160751966Y-68004619D01*
X160704347Y-68099857D01*
X160704347Y-68242714D01*
X160751966Y-68337952D01*
X160799585Y-68385571D01*
X160894823Y-68433190D01*
X161275776Y-68433190D01*
X166894823Y-69654619D02*
X166847204Y-69607000D01*
X166751966Y-69559380D01*
X166513871Y-69559380D01*
X166418633Y-69607000D01*
X166371014Y-69654619D01*
X166323395Y-69749857D01*
X166323395Y-69845095D01*
X166371014Y-69987952D01*
X166942442Y-70559380D01*
X166323395Y-70559380D01*
X165894823Y-70464142D02*
X165847204Y-70511761D01*
X165894823Y-70559380D01*
X165942442Y-70511761D01*
X165894823Y-70464142D01*
X165894823Y-70559380D01*
X165085300Y-70035571D02*
X164942442Y-70083190D01*
X164894823Y-70130809D01*
X164847204Y-70226047D01*
X164847204Y-70368904D01*
X164894823Y-70464142D01*
X164942442Y-70511761D01*
X165037680Y-70559380D01*
X165418633Y-70559380D01*
X165418633Y-69559380D01*
X165085300Y-69559380D01*
X164990061Y-69607000D01*
X164942442Y-69654619D01*
X164894823Y-69749857D01*
X164894823Y-69845095D01*
X164942442Y-69940333D01*
X164990061Y-69987952D01*
X165085300Y-70035571D01*
X165418633Y-70035571D01*
X164466252Y-70273666D02*
X163990061Y-70273666D01*
X164561490Y-70559380D02*
X164228157Y-69559380D01*
X163894823Y-70559380D01*
X163704347Y-69559380D02*
X163132919Y-69559380D01*
X163418633Y-70559380D02*
X163418633Y-69559380D01*
X162942442Y-69559380D02*
X162371014Y-69559380D01*
X162656728Y-70559380D02*
X162656728Y-69559380D01*
X162275776Y-70654619D02*
X161513871Y-70654619D01*
X161275776Y-70559380D02*
X161275776Y-69559380D01*
X160704347Y-70559380D01*
X160704347Y-69559380D01*
X166942442Y-71209380D02*
X166323395Y-71209380D01*
X166656728Y-71590333D01*
X166513871Y-71590333D01*
X166418633Y-71637952D01*
X166371014Y-71685571D01*
X166323395Y-71780809D01*
X166323395Y-72018904D01*
X166371014Y-72114142D01*
X166418633Y-72161761D01*
X166513871Y-72209380D01*
X166799585Y-72209380D01*
X166894823Y-72161761D01*
X166942442Y-72114142D01*
X165894823Y-72114142D02*
X165847204Y-72161761D01*
X165894823Y-72209380D01*
X165942442Y-72161761D01*
X165894823Y-72114142D01*
X165894823Y-72209380D01*
X165466252Y-72161761D02*
X165323395Y-72209380D01*
X165085300Y-72209380D01*
X164990061Y-72161761D01*
X164942442Y-72114142D01*
X164894823Y-72018904D01*
X164894823Y-71923666D01*
X164942442Y-71828428D01*
X164990061Y-71780809D01*
X165085300Y-71733190D01*
X165275776Y-71685571D01*
X165371014Y-71637952D01*
X165418633Y-71590333D01*
X165466252Y-71495095D01*
X165466252Y-71399857D01*
X165418633Y-71304619D01*
X165371014Y-71257000D01*
X165275776Y-71209380D01*
X165037680Y-71209380D01*
X164894823Y-71257000D01*
X164466252Y-72209380D02*
X164466252Y-71209380D01*
X164228157Y-71209380D01*
X164085300Y-71257000D01*
X163990061Y-71352238D01*
X163942442Y-71447476D01*
X163894823Y-71637952D01*
X163894823Y-71780809D01*
X163942442Y-71971285D01*
X163990061Y-72066523D01*
X164085300Y-72161761D01*
X164228157Y-72209380D01*
X164466252Y-72209380D01*
X163513871Y-71923666D02*
X163037680Y-71923666D01*
X163609109Y-72209380D02*
X163275776Y-71209380D01*
X162942442Y-72209380D01*
X166418633Y-73192714D02*
X166418633Y-73859380D01*
X166656728Y-72811761D02*
X166894823Y-73526047D01*
X166275776Y-73526047D01*
X165894823Y-73764142D02*
X165847204Y-73811761D01*
X165894823Y-73859380D01*
X165942442Y-73811761D01*
X165894823Y-73764142D01*
X165894823Y-73859380D01*
X165466252Y-73811761D02*
X165323395Y-73859380D01*
X165085300Y-73859380D01*
X164990061Y-73811761D01*
X164942442Y-73764142D01*
X164894823Y-73668904D01*
X164894823Y-73573666D01*
X164942442Y-73478428D01*
X164990061Y-73430809D01*
X165085300Y-73383190D01*
X165275776Y-73335571D01*
X165371014Y-73287952D01*
X165418633Y-73240333D01*
X165466252Y-73145095D01*
X165466252Y-73049857D01*
X165418633Y-72954619D01*
X165371014Y-72907000D01*
X165275776Y-72859380D01*
X165037680Y-72859380D01*
X164894823Y-72907000D01*
X163894823Y-73764142D02*
X163942442Y-73811761D01*
X164085300Y-73859380D01*
X164180538Y-73859380D01*
X164323395Y-73811761D01*
X164418633Y-73716523D01*
X164466252Y-73621285D01*
X164513871Y-73430809D01*
X164513871Y-73287952D01*
X164466252Y-73097476D01*
X164418633Y-73002238D01*
X164323395Y-72907000D01*
X164180538Y-72859380D01*
X164085300Y-72859380D01*
X163942442Y-72907000D01*
X163894823Y-72954619D01*
X162990061Y-73859380D02*
X163466252Y-73859380D01*
X163466252Y-72859380D01*
X166371014Y-74509380D02*
X166847204Y-74509380D01*
X166894823Y-74985571D01*
X166847204Y-74937952D01*
X166751966Y-74890333D01*
X166513871Y-74890333D01*
X166418633Y-74937952D01*
X166371014Y-74985571D01*
X166323395Y-75080809D01*
X166323395Y-75318904D01*
X166371014Y-75414142D01*
X166418633Y-75461761D01*
X166513871Y-75509380D01*
X166751966Y-75509380D01*
X166847204Y-75461761D01*
X166894823Y-75414142D01*
X165894823Y-75414142D02*
X165847204Y-75461761D01*
X165894823Y-75509380D01*
X165942442Y-75461761D01*
X165894823Y-75414142D01*
X165894823Y-75509380D01*
X165085300Y-74985571D02*
X164942442Y-75033190D01*
X164894823Y-75080809D01*
X164847204Y-75176047D01*
X164847204Y-75318904D01*
X164894823Y-75414142D01*
X164942442Y-75461761D01*
X165037680Y-75509380D01*
X165418633Y-75509380D01*
X165418633Y-74509380D01*
X165085300Y-74509380D01*
X164990061Y-74557000D01*
X164942442Y-74604619D01*
X164894823Y-74699857D01*
X164894823Y-74795095D01*
X164942442Y-74890333D01*
X164990061Y-74937952D01*
X165085300Y-74985571D01*
X165418633Y-74985571D01*
X164418633Y-74509380D02*
X164418633Y-75318904D01*
X164371014Y-75414142D01*
X164323395Y-75461761D01*
X164228157Y-75509380D01*
X164037680Y-75509380D01*
X163942442Y-75461761D01*
X163894823Y-75414142D01*
X163847204Y-75318904D01*
X163847204Y-74509380D01*
X162799585Y-75509380D02*
X163132919Y-75033190D01*
X163371014Y-75509380D02*
X163371014Y-74509380D01*
X162990061Y-74509380D01*
X162894823Y-74557000D01*
X162847204Y-74604619D01*
X162799585Y-74699857D01*
X162799585Y-74842714D01*
X162847204Y-74937952D01*
X162894823Y-74985571D01*
X162990061Y-75033190D01*
X163371014Y-75033190D01*
X162371014Y-75509380D02*
X162371014Y-74509380D01*
X161799585Y-75509380D01*
X161799585Y-74509380D01*
X166418633Y-76159380D02*
X166609109Y-76159380D01*
X166704347Y-76207000D01*
X166751966Y-76254619D01*
X166847204Y-76397476D01*
X166894823Y-76587952D01*
X166894823Y-76968904D01*
X166847204Y-77064142D01*
X166799585Y-77111761D01*
X166704347Y-77159380D01*
X166513871Y-77159380D01*
X166418633Y-77111761D01*
X166371014Y-77064142D01*
X166323395Y-76968904D01*
X166323395Y-76730809D01*
X166371014Y-76635571D01*
X166418633Y-76587952D01*
X166513871Y-76540333D01*
X166704347Y-76540333D01*
X166799585Y-76587952D01*
X166847204Y-76635571D01*
X166894823Y-76730809D01*
X165894823Y-77064142D02*
X165847204Y-77111761D01*
X165894823Y-77159380D01*
X165942442Y-77111761D01*
X165894823Y-77064142D01*
X165894823Y-77159380D01*
X165513871Y-76159380D02*
X164894823Y-76159380D01*
X165228157Y-76540333D01*
X165085300Y-76540333D01*
X164990061Y-76587952D01*
X164942442Y-76635571D01*
X164894823Y-76730809D01*
X164894823Y-76968904D01*
X164942442Y-77064142D01*
X164990061Y-77111761D01*
X165085300Y-77159380D01*
X165371014Y-77159380D01*
X165466252Y-77111761D01*
X165513871Y-77064142D01*
X164609109Y-76159380D02*
X164275776Y-77159380D01*
X163942442Y-76159380D01*
X163704347Y-76159380D02*
X163085300Y-76159380D01*
X163418633Y-76540333D01*
X163275776Y-76540333D01*
X163180538Y-76587952D01*
X163132919Y-76635571D01*
X163085300Y-76730809D01*
X163085300Y-76968904D01*
X163132919Y-77064142D01*
X163180538Y-77111761D01*
X163275776Y-77159380D01*
X163561490Y-77159380D01*
X163656728Y-77111761D01*
X163704347Y-77064142D01*
X166942442Y-77809380D02*
X166275776Y-77809380D01*
X166704347Y-78809380D01*
X165894823Y-78714142D02*
X165847204Y-78761761D01*
X165894823Y-78809380D01*
X165942442Y-78761761D01*
X165894823Y-78714142D01*
X165894823Y-78809380D01*
X164894823Y-77857000D02*
X164990061Y-77809380D01*
X165132919Y-77809380D01*
X165275776Y-77857000D01*
X165371014Y-77952238D01*
X165418633Y-78047476D01*
X165466252Y-78237952D01*
X165466252Y-78380809D01*
X165418633Y-78571285D01*
X165371014Y-78666523D01*
X165275776Y-78761761D01*
X165132919Y-78809380D01*
X165037680Y-78809380D01*
X164894823Y-78761761D01*
X164847204Y-78714142D01*
X164847204Y-78380809D01*
X165037680Y-78380809D01*
X164418633Y-78809380D02*
X164418633Y-77809380D01*
X163847204Y-78809380D01*
X163847204Y-77809380D01*
X163371014Y-78809380D02*
X163371014Y-77809380D01*
X163132919Y-77809380D01*
X162990061Y-77857000D01*
X162894823Y-77952238D01*
X162847204Y-78047476D01*
X162799585Y-78237952D01*
X162799585Y-78380809D01*
X162847204Y-78571285D01*
X162894823Y-78666523D01*
X162990061Y-78761761D01*
X163132919Y-78809380D01*
X163371014Y-78809380D01*
X166704347Y-79887952D02*
X166799585Y-79840333D01*
X166847204Y-79792714D01*
X166894823Y-79697476D01*
X166894823Y-79649857D01*
X166847204Y-79554619D01*
X166799585Y-79507000D01*
X166704347Y-79459380D01*
X166513871Y-79459380D01*
X166418633Y-79507000D01*
X166371014Y-79554619D01*
X166323395Y-79649857D01*
X166323395Y-79697476D01*
X166371014Y-79792714D01*
X166418633Y-79840333D01*
X166513871Y-79887952D01*
X166704347Y-79887952D01*
X166799585Y-79935571D01*
X166847204Y-79983190D01*
X166894823Y-80078428D01*
X166894823Y-80268904D01*
X166847204Y-80364142D01*
X166799585Y-80411761D01*
X166704347Y-80459380D01*
X166513871Y-80459380D01*
X166418633Y-80411761D01*
X166371014Y-80364142D01*
X166323395Y-80268904D01*
X166323395Y-80078428D01*
X166371014Y-79983190D01*
X166418633Y-79935571D01*
X166513871Y-79887952D01*
X165894823Y-80364142D02*
X165847204Y-80411761D01*
X165894823Y-80459380D01*
X165942442Y-80411761D01*
X165894823Y-80364142D01*
X165894823Y-80459380D01*
X164894823Y-79507000D02*
X164990061Y-79459380D01*
X165132919Y-79459380D01*
X165275776Y-79507000D01*
X165371014Y-79602238D01*
X165418633Y-79697476D01*
X165466252Y-79887952D01*
X165466252Y-80030809D01*
X165418633Y-80221285D01*
X165371014Y-80316523D01*
X165275776Y-80411761D01*
X165132919Y-80459380D01*
X165037680Y-80459380D01*
X164894823Y-80411761D01*
X164847204Y-80364142D01*
X164847204Y-80030809D01*
X165037680Y-80030809D01*
X164418633Y-80459380D02*
X164418633Y-79459380D01*
X163847204Y-80459380D01*
X163847204Y-79459380D01*
X163371014Y-80459380D02*
X163371014Y-79459380D01*
X163132919Y-79459380D01*
X162990061Y-79507000D01*
X162894823Y-79602238D01*
X162847204Y-79697476D01*
X162799585Y-79887952D01*
X162799585Y-80030809D01*
X162847204Y-80221285D01*
X162894823Y-80316523D01*
X162990061Y-80411761D01*
X163132919Y-80459380D01*
X163371014Y-80459380D01*
X166799585Y-82109380D02*
X166609109Y-82109380D01*
X166513871Y-82061761D01*
X166466252Y-82014142D01*
X166371014Y-81871285D01*
X166323395Y-81680809D01*
X166323395Y-81299857D01*
X166371014Y-81204619D01*
X166418633Y-81157000D01*
X166513871Y-81109380D01*
X166704347Y-81109380D01*
X166799585Y-81157000D01*
X166847204Y-81204619D01*
X166894823Y-81299857D01*
X166894823Y-81537952D01*
X166847204Y-81633190D01*
X166799585Y-81680809D01*
X166704347Y-81728428D01*
X166513871Y-81728428D01*
X166418633Y-81680809D01*
X166371014Y-81633190D01*
X166323395Y-81537952D01*
X165894823Y-82014142D02*
X165847204Y-82061761D01*
X165894823Y-82109380D01*
X165942442Y-82061761D01*
X165894823Y-82014142D01*
X165894823Y-82109380D01*
X164847204Y-82014142D02*
X164894823Y-82061761D01*
X165037680Y-82109380D01*
X165132919Y-82109380D01*
X165275776Y-82061761D01*
X165371014Y-81966523D01*
X165418633Y-81871285D01*
X165466252Y-81680809D01*
X165466252Y-81537952D01*
X165418633Y-81347476D01*
X165371014Y-81252238D01*
X165275776Y-81157000D01*
X165132919Y-81109380D01*
X165037680Y-81109380D01*
X164894823Y-81157000D01*
X164847204Y-81204619D01*
X164228157Y-81109380D02*
X164037680Y-81109380D01*
X163942442Y-81157000D01*
X163847204Y-81252238D01*
X163799585Y-81442714D01*
X163799585Y-81776047D01*
X163847204Y-81966523D01*
X163942442Y-82061761D01*
X164037680Y-82109380D01*
X164228157Y-82109380D01*
X164323395Y-82061761D01*
X164418633Y-81966523D01*
X164466252Y-81776047D01*
X164466252Y-81442714D01*
X164418633Y-81252238D01*
X164323395Y-81157000D01*
X164228157Y-81109380D01*
X163371014Y-82109380D02*
X163371014Y-81109380D01*
X162418633Y-82109380D02*
X162894823Y-82109380D01*
X162894823Y-81109380D01*
X162323395Y-82204619D02*
X161561490Y-82204619D01*
X161323395Y-82109380D02*
X161323395Y-81109380D01*
X160751966Y-82109380D01*
X160751966Y-81109380D01*
X166323395Y-83759380D02*
X166894823Y-83759380D01*
X166609109Y-83759380D02*
X166609109Y-82759380D01*
X166704347Y-82902238D01*
X166799585Y-82997476D01*
X166894823Y-83045095D01*
X165704347Y-82759380D02*
X165609109Y-82759380D01*
X165513871Y-82807000D01*
X165466252Y-82854619D01*
X165418633Y-82949857D01*
X165371014Y-83140333D01*
X165371014Y-83378428D01*
X165418633Y-83568904D01*
X165466252Y-83664142D01*
X165513871Y-83711761D01*
X165609109Y-83759380D01*
X165704347Y-83759380D01*
X165799585Y-83711761D01*
X165847204Y-83664142D01*
X165894823Y-83568904D01*
X165942442Y-83378428D01*
X165942442Y-83140333D01*
X165894823Y-82949857D01*
X165847204Y-82854619D01*
X165799585Y-82807000D01*
X165704347Y-82759380D01*
X164942442Y-83664142D02*
X164894823Y-83711761D01*
X164942442Y-83759380D01*
X164990061Y-83711761D01*
X164942442Y-83664142D01*
X164942442Y-83759380D01*
X163894823Y-83664142D02*
X163942442Y-83711761D01*
X164085300Y-83759380D01*
X164180538Y-83759380D01*
X164323395Y-83711761D01*
X164418633Y-83616523D01*
X164466252Y-83521285D01*
X164513871Y-83330809D01*
X164513871Y-83187952D01*
X164466252Y-82997476D01*
X164418633Y-82902238D01*
X164323395Y-82807000D01*
X164180538Y-82759380D01*
X164085300Y-82759380D01*
X163942442Y-82807000D01*
X163894823Y-82854619D01*
X163275776Y-82759380D02*
X163085300Y-82759380D01*
X162990061Y-82807000D01*
X162894823Y-82902238D01*
X162847204Y-83092714D01*
X162847204Y-83426047D01*
X162894823Y-83616523D01*
X162990061Y-83711761D01*
X163085300Y-83759380D01*
X163275776Y-83759380D01*
X163371014Y-83711761D01*
X163466252Y-83616523D01*
X163513871Y-83426047D01*
X163513871Y-83092714D01*
X163466252Y-82902238D01*
X163371014Y-82807000D01*
X163275776Y-82759380D01*
X162418633Y-83759380D02*
X162418633Y-82759380D01*
X161466252Y-83759380D02*
X161942442Y-83759380D01*
X161942442Y-82759380D01*
X161371014Y-83854619D02*
X160609109Y-83854619D01*
X160371014Y-83759380D02*
X160371014Y-82759380D01*
X159990061Y-82759380D01*
X159894823Y-82807000D01*
X159847204Y-82854619D01*
X159799585Y-82949857D01*
X159799585Y-83092714D01*
X159847204Y-83187952D01*
X159894823Y-83235571D01*
X159990061Y-83283190D01*
X160371014Y-83283190D01*
D11*
X180314600Y-47066200D02*
X182245000Y-47066200D01*
X180314600Y-48082200D02*
X180314600Y-47066200D01*
X182245000Y-48082200D02*
X180314600Y-48082200D01*
X182245000Y-47066200D02*
X182245000Y-48082200D01*
X181025800Y-56743600D02*
X181025800Y-55753000D01*
X179171600Y-56743600D02*
X181025800Y-56743600D01*
X179171600Y-55753000D02*
X179171600Y-56743600D01*
X181025800Y-55753000D02*
X179171600Y-55753000D01*
D13*
X200000000Y-40000000D02*
X150000000Y-40000000D01*
X150000000Y-90000000D02*
X200000000Y-90000000D01*
X150000000Y-40000000D02*
X150000000Y-90000000D01*
X195900000Y-45100000D02*
G75*
G03X195900000Y-45100000I-1000000J0D01*
G01*
X156100000Y-84900000D02*
G75*
G03X156100000Y-84900000I-1000000J0D01*
G01*
X156100000Y-45100000D02*
G75*
G03X156100000Y-45100000I-1000000J0D01*
G01*
X195900000Y-84900000D02*
G75*
G03X195900000Y-84900000I-1000000J0D01*
G01*
X200000000Y-90000000D02*
X200000000Y-40000000D01*
D14*
X162336842Y-50034371D02*
X162336842Y-50905228D01*
X162772271Y-50469800D02*
X161901414Y-50469800D01*
D15*
X164355538Y-48365228D02*
X164990538Y-48365228D01*
X164355538Y-48002371D01*
X164990538Y-48002371D01*
X160307261Y-47992090D02*
X159672261Y-47992090D01*
X159672261Y-48233995D01*
X159702500Y-48294471D01*
X159732738Y-48324709D01*
X159793214Y-48354947D01*
X159883928Y-48354947D01*
X159944404Y-48324709D01*
X159974642Y-48294471D01*
X160004880Y-48233995D01*
X160004880Y-47992090D01*
D14*
X162336842Y-45487771D02*
X162336842Y-46358628D01*
D11*
X162347910Y-48133000D02*
X162347910Y-48450500D01*
X162347910Y-49085500D02*
X162347910Y-48768000D01*
X162347910Y-49339500D02*
X162347910Y-49657000D01*
X162347910Y-46799500D02*
X162347910Y-47117000D01*
X162347910Y-47752000D02*
X162347910Y-47434500D01*
X186450200Y-59512200D02*
G75*
G03X186450200Y-59512200I-700000J0D01*
G01*
X185535800Y-72263000D02*
G75*
G03X185535800Y-72263000I-700000J0D01*
G01*
X177687200Y-72263000D02*
G75*
G03X177687200Y-72263000I-700000J0D01*
G01*
X172302400Y-72263000D02*
G75*
G03X172302400Y-72263000I-700000J0D01*
G01*
X181124666Y-72263000D02*
G75*
G03X181124666Y-72263000I-700000J0D01*
G01*
D16*
X166893240Y-54647520D02*
X166893240Y-56197520D01*
X166893240Y-63147520D02*
X166893240Y-61597520D01*
X166893240Y-54647520D02*
X164043240Y-54647520D01*
X166893240Y-63147520D02*
X164043240Y-63147520D01*
X162013240Y-63147520D02*
X162013240Y-54647520D01*
X191305000Y-75954000D02*
G75*
G03X191305000Y-75954000I-100000J0D01*
G01*
D11*
X193030000Y-76954000D02*
X191780000Y-76954000D01*
X193030000Y-75954000D02*
X193030000Y-76954000D01*
X191780000Y-75954000D02*
X191780000Y-76954000D01*
X193030000Y-75954000D02*
X191780000Y-75954000D01*
D17*
X189641000Y-77500000D02*
X189641000Y-76881330D01*
X189641000Y-74900000D02*
X189641000Y-75518670D01*
X187041000Y-74900000D02*
X187041000Y-77500000D01*
D14*
X189602200Y-59715400D02*
G75*
G03X189602200Y-59715400I-143600J0D01*
G01*
D11*
X194112000Y-55370000D02*
X194112000Y-53910000D01*
X190952000Y-55370000D02*
X190952000Y-53210000D01*
X190952000Y-55370000D02*
X191882000Y-55370000D01*
X194112000Y-55370000D02*
X193182000Y-55370000D01*
D16*
X183584200Y-48537200D02*
G75*
G03X183584200Y-48537200I-19000J0D01*
G01*
D11*
X170320240Y-59055219D02*
X170320240Y-58729661D01*
X171340240Y-59055219D02*
X171340240Y-58729661D01*
X163103779Y-52961000D02*
X162778221Y-52961000D01*
X163103779Y-51941000D02*
X162778221Y-51941000D01*
D18*
X178479580Y-54003784D02*
G75*
G03X178479580Y-54003784I-125000J0D01*
G01*
D16*
X169033740Y-53230440D02*
G75*
G03X169033740Y-53230440I-19000J0D01*
G01*
D11*
X165352000Y-49438779D02*
X165352000Y-49113221D01*
X166372000Y-49438779D02*
X166372000Y-49113221D01*
D19*
X175069500Y-50924460D02*
G75*
G03X175069500Y-50924460I-127000J0D01*
G01*
D15*
X171723050Y-48975010D02*
X173081950Y-48975010D01*
X173081950Y-52873910D02*
X171723050Y-52873910D01*
D19*
X182958740Y-50891440D02*
G75*
G03X182958740Y-50891440I-127000J0D01*
G01*
D15*
X179612290Y-48941990D02*
X180971190Y-48941990D01*
X180971190Y-52840890D02*
X179612290Y-52840890D01*
D11*
X176390519Y-48099440D02*
X176064961Y-48099440D01*
X176390519Y-47079440D02*
X176064961Y-47079440D01*
D15*
X163722366Y-58973046D02*
X164357366Y-58973046D01*
X164484366Y-58930713D01*
X164569033Y-58846046D01*
X164611366Y-58719046D01*
X164611366Y-58634380D01*
X164611366Y-59862046D02*
X164611366Y-59354046D01*
X164611366Y-59608046D02*
X163722366Y-59608046D01*
X163849366Y-59523380D01*
X163934033Y-59438713D01*
X163976366Y-59354046D01*
X192955333Y-74747966D02*
X192955333Y-75467633D01*
X192913000Y-75552300D01*
X192870666Y-75594633D01*
X192786000Y-75636966D01*
X192616666Y-75636966D01*
X192532000Y-75594633D01*
X192489666Y-75552300D01*
X192447333Y-75467633D01*
X192447333Y-74747966D01*
X191558333Y-75636966D02*
X192066333Y-75636966D01*
X191812333Y-75636966D02*
X191812333Y-74747966D01*
X191897000Y-74874966D01*
X191981666Y-74959633D01*
X192066333Y-75001966D01*
X187777966Y-75878266D02*
X188412966Y-75878266D01*
X188539966Y-75835933D01*
X188624633Y-75751266D01*
X188666966Y-75624266D01*
X188666966Y-75539600D01*
X187862633Y-76259266D02*
X187820300Y-76301600D01*
X187777966Y-76386266D01*
X187777966Y-76597933D01*
X187820300Y-76682600D01*
X187862633Y-76724933D01*
X187947300Y-76767266D01*
X188031966Y-76767266D01*
X188158966Y-76724933D01*
X188666966Y-76216933D01*
X188666966Y-76767266D01*
X191685333Y-65222966D02*
X191685333Y-65942633D01*
X191643000Y-66027300D01*
X191600666Y-66069633D01*
X191516000Y-66111966D01*
X191346666Y-66111966D01*
X191262000Y-66069633D01*
X191219666Y-66027300D01*
X191177333Y-65942633D01*
X191177333Y-65222966D01*
X190796333Y-65307633D02*
X190754000Y-65265300D01*
X190669333Y-65222966D01*
X190457666Y-65222966D01*
X190373000Y-65265300D01*
X190330666Y-65307633D01*
X190288333Y-65392300D01*
X190288333Y-65476966D01*
X190330666Y-65603966D01*
X190838666Y-66111966D01*
X190288333Y-66111966D01*
D12*
X187491666Y-56078380D02*
X187825000Y-55602190D01*
X188063095Y-56078380D02*
X188063095Y-55078380D01*
X187682142Y-55078380D01*
X187586904Y-55126000D01*
X187539285Y-55173619D01*
X187491666Y-55268857D01*
X187491666Y-55411714D01*
X187539285Y-55506952D01*
X187586904Y-55554571D01*
X187682142Y-55602190D01*
X188063095Y-55602190D01*
X187158333Y-55078380D02*
X186491666Y-55078380D01*
X186920238Y-56078380D01*
X187491666Y-54046380D02*
X187825000Y-53570190D01*
X188063095Y-54046380D02*
X188063095Y-53046380D01*
X187682142Y-53046380D01*
X187586904Y-53094000D01*
X187539285Y-53141619D01*
X187491666Y-53236857D01*
X187491666Y-53379714D01*
X187539285Y-53474952D01*
X187586904Y-53522571D01*
X187682142Y-53570190D01*
X188063095Y-53570190D01*
X186634523Y-53046380D02*
X186825000Y-53046380D01*
X186920238Y-53094000D01*
X186967857Y-53141619D01*
X187063095Y-53284476D01*
X187110714Y-53474952D01*
X187110714Y-53855904D01*
X187063095Y-53951142D01*
X187015476Y-53998761D01*
X186920238Y-54046380D01*
X186729761Y-54046380D01*
X186634523Y-53998761D01*
X186586904Y-53951142D01*
X186539285Y-53855904D01*
X186539285Y-53617809D01*
X186586904Y-53522571D01*
X186634523Y-53474952D01*
X186729761Y-53427333D01*
X186920238Y-53427333D01*
X187015476Y-53474952D01*
X187063095Y-53522571D01*
X187110714Y-53617809D01*
X190698380Y-49363333D02*
X190222190Y-49030000D01*
X190698380Y-48791904D02*
X189698380Y-48791904D01*
X189698380Y-49172857D01*
X189746000Y-49268095D01*
X189793619Y-49315714D01*
X189888857Y-49363333D01*
X190031714Y-49363333D01*
X190126952Y-49315714D01*
X190174571Y-49268095D01*
X190222190Y-49172857D01*
X190222190Y-48791904D01*
X189698380Y-50268095D02*
X189698380Y-49791904D01*
X190174571Y-49744285D01*
X190126952Y-49791904D01*
X190079333Y-49887142D01*
X190079333Y-50125238D01*
X190126952Y-50220476D01*
X190174571Y-50268095D01*
X190269809Y-50315714D01*
X190507904Y-50315714D01*
X190603142Y-50268095D01*
X190650761Y-50220476D01*
X190698380Y-50125238D01*
X190698380Y-49887142D01*
X190650761Y-49791904D01*
X190603142Y-49744285D01*
X168879780Y-56957933D02*
X168403590Y-56624600D01*
X168879780Y-56386504D02*
X167879780Y-56386504D01*
X167879780Y-56767457D01*
X167927400Y-56862695D01*
X167975019Y-56910314D01*
X168070257Y-56957933D01*
X168213114Y-56957933D01*
X168308352Y-56910314D01*
X168355971Y-56862695D01*
X168403590Y-56767457D01*
X168403590Y-56386504D01*
X168213114Y-57815076D02*
X168879780Y-57815076D01*
X167832161Y-57576980D02*
X168546447Y-57338885D01*
X168546447Y-57957933D01*
X192576438Y-52795419D02*
X192671676Y-52747800D01*
X192766914Y-52652561D01*
X192909771Y-52509704D01*
X193005009Y-52462085D01*
X193100247Y-52462085D01*
X193052628Y-52700180D02*
X193147866Y-52652561D01*
X193243104Y-52557323D01*
X193290723Y-52366847D01*
X193290723Y-52033514D01*
X193243104Y-51843038D01*
X193147866Y-51747800D01*
X193052628Y-51700180D01*
X192862152Y-51700180D01*
X192766914Y-51747800D01*
X192671676Y-51843038D01*
X192624057Y-52033514D01*
X192624057Y-52366847D01*
X192671676Y-52557323D01*
X192766914Y-52652561D01*
X192862152Y-52700180D01*
X193052628Y-52700180D01*
X191671676Y-52700180D02*
X192243104Y-52700180D01*
X191957390Y-52700180D02*
X191957390Y-51700180D01*
X192052628Y-51843038D01*
X192147866Y-51938276D01*
X192243104Y-51985895D01*
D20*
X185485314Y-49805771D02*
X184723314Y-49805771D01*
X184723314Y-49987200D01*
X184759600Y-50096057D01*
X184832171Y-50168628D01*
X184904742Y-50204914D01*
X185049885Y-50241200D01*
X185158742Y-50241200D01*
X185303885Y-50204914D01*
X185376457Y-50168628D01*
X185449028Y-50096057D01*
X185485314Y-49987200D01*
X185485314Y-49805771D01*
X184723314Y-50495200D02*
X184723314Y-50966914D01*
X185013600Y-50712914D01*
X185013600Y-50821771D01*
X185049885Y-50894342D01*
X185086171Y-50930628D01*
X185158742Y-50966914D01*
X185340171Y-50966914D01*
X185412742Y-50930628D01*
X185449028Y-50894342D01*
X185485314Y-50821771D01*
X185485314Y-50604057D01*
X185449028Y-50531485D01*
X185412742Y-50495200D01*
D15*
X164867166Y-54165500D02*
X164909500Y-54207833D01*
X165036500Y-54250166D01*
X165121166Y-54250166D01*
X165248166Y-54207833D01*
X165332833Y-54123166D01*
X165375166Y-54038500D01*
X165417500Y-53869166D01*
X165417500Y-53742166D01*
X165375166Y-53572833D01*
X165332833Y-53488166D01*
X165248166Y-53403500D01*
X165121166Y-53361166D01*
X165036500Y-53361166D01*
X164909500Y-53403500D01*
X164867166Y-53445833D01*
X164020500Y-54250166D02*
X164528500Y-54250166D01*
X164274500Y-54250166D02*
X164274500Y-53361166D01*
X164359166Y-53488166D01*
X164443833Y-53572833D01*
X164528500Y-53615166D01*
X171084240Y-60903273D02*
X171126573Y-60860940D01*
X171168906Y-60733940D01*
X171168906Y-60649273D01*
X171126573Y-60522273D01*
X171041906Y-60437606D01*
X170957240Y-60395273D01*
X170787906Y-60352940D01*
X170660906Y-60352940D01*
X170491573Y-60395273D01*
X170406906Y-60437606D01*
X170322240Y-60522273D01*
X170279906Y-60649273D01*
X170279906Y-60733940D01*
X170322240Y-60860940D01*
X170364573Y-60903273D01*
X170279906Y-61665273D02*
X170279906Y-61495940D01*
X170322240Y-61411273D01*
X170364573Y-61368940D01*
X170491573Y-61284273D01*
X170660906Y-61241940D01*
X170999573Y-61241940D01*
X171084240Y-61284273D01*
X171126573Y-61326606D01*
X171168906Y-61411273D01*
X171168906Y-61580606D01*
X171126573Y-61665273D01*
X171084240Y-61707606D01*
X170999573Y-61749940D01*
X170787906Y-61749940D01*
X170703240Y-61707606D01*
X170660906Y-61665273D01*
X170618573Y-61580606D01*
X170618573Y-61411273D01*
X170660906Y-61326606D01*
X170703240Y-61284273D01*
X170787906Y-61241940D01*
X176312406Y-50383440D02*
X176354740Y-50425773D01*
X176481740Y-50468106D01*
X176566406Y-50468106D01*
X176693406Y-50425773D01*
X176778073Y-50341106D01*
X176820406Y-50256440D01*
X176862740Y-50087106D01*
X176862740Y-49960106D01*
X176820406Y-49790773D01*
X176778073Y-49706106D01*
X176693406Y-49621440D01*
X176566406Y-49579106D01*
X176481740Y-49579106D01*
X176354740Y-49621440D01*
X176312406Y-49663773D01*
X175889073Y-50468106D02*
X175719740Y-50468106D01*
X175635073Y-50425773D01*
X175592740Y-50383440D01*
X175508073Y-50256440D01*
X175465740Y-50087106D01*
X175465740Y-49748440D01*
X175508073Y-49663773D01*
X175550406Y-49621440D01*
X175635073Y-49579106D01*
X175804406Y-49579106D01*
X175889073Y-49621440D01*
X175931406Y-49663773D01*
X175973740Y-49748440D01*
X175973740Y-49960106D01*
X175931406Y-50044773D01*
X175889073Y-50087106D01*
X175804406Y-50129440D01*
X175635073Y-50129440D01*
X175550406Y-50087106D01*
X175508073Y-50044773D01*
X175465740Y-49960106D01*
X160769300Y-52768500D02*
X160811633Y-52810833D01*
X160938633Y-52853166D01*
X161023300Y-52853166D01*
X161150300Y-52810833D01*
X161234966Y-52726166D01*
X161277300Y-52641500D01*
X161319633Y-52472166D01*
X161319633Y-52345166D01*
X161277300Y-52175833D01*
X161234966Y-52091166D01*
X161150300Y-52006500D01*
X161023300Y-51964166D01*
X160938633Y-51964166D01*
X160811633Y-52006500D01*
X160769300Y-52048833D01*
X159922633Y-52853166D02*
X160430633Y-52853166D01*
X160176633Y-52853166D02*
X160176633Y-51964166D01*
X160261300Y-52091166D01*
X160345966Y-52175833D01*
X160430633Y-52218166D01*
X159160633Y-52260500D02*
X159160633Y-52853166D01*
X159372300Y-51921833D02*
X159583966Y-52556833D01*
X159033633Y-52556833D01*
X185629550Y-55228066D02*
X185629550Y-54339066D01*
X185417883Y-54339066D01*
X185290883Y-54381400D01*
X185206216Y-54466066D01*
X185163883Y-54550733D01*
X185121550Y-54720066D01*
X185121550Y-54847066D01*
X185163883Y-55016400D01*
X185206216Y-55101066D01*
X185290883Y-55185733D01*
X185417883Y-55228066D01*
X185629550Y-55228066D01*
X184274883Y-55228066D02*
X184782883Y-55228066D01*
X184528883Y-55228066D02*
X184528883Y-54339066D01*
X184613550Y-54466066D01*
X184698216Y-54550733D01*
X184782883Y-54593066D01*
X178985333Y-57374366D02*
X178985333Y-58094033D01*
X178943000Y-58178700D01*
X178900666Y-58221033D01*
X178816000Y-58263366D01*
X178646666Y-58263366D01*
X178562000Y-58221033D01*
X178519666Y-58178700D01*
X178477333Y-58094033D01*
X178477333Y-57374366D01*
X178096333Y-57459033D02*
X178054000Y-57416700D01*
X177969333Y-57374366D01*
X177757666Y-57374366D01*
X177673000Y-57416700D01*
X177630666Y-57459033D01*
X177588333Y-57543700D01*
X177588333Y-57628366D01*
X177630666Y-57755366D01*
X178138666Y-58263366D01*
X177588333Y-58263366D01*
X169439166Y-47654633D02*
X168550166Y-47654633D01*
X168550166Y-47866300D01*
X168592500Y-47993300D01*
X168677166Y-48077966D01*
X168761833Y-48120300D01*
X168931166Y-48162633D01*
X169058166Y-48162633D01*
X169227500Y-48120300D01*
X169312166Y-48077966D01*
X169396833Y-47993300D01*
X169439166Y-47866300D01*
X169439166Y-47654633D01*
X168634833Y-48501300D02*
X168592500Y-48543633D01*
X168550166Y-48628300D01*
X168550166Y-48839966D01*
X168592500Y-48924633D01*
X168634833Y-48966966D01*
X168719500Y-49009300D01*
X168804166Y-49009300D01*
X168931166Y-48966966D01*
X169439166Y-48458966D01*
X169439166Y-49009300D01*
X181732766Y-59863566D02*
X182029100Y-59440233D01*
X182240766Y-59863566D02*
X182240766Y-58974566D01*
X181902100Y-58974566D01*
X181817433Y-59016900D01*
X181775100Y-59059233D01*
X181732766Y-59143900D01*
X181732766Y-59270900D01*
X181775100Y-59355566D01*
X181817433Y-59397900D01*
X181902100Y-59440233D01*
X182240766Y-59440233D01*
X180970766Y-58974566D02*
X181140100Y-58974566D01*
X181224766Y-59016900D01*
X181267100Y-59059233D01*
X181351766Y-59186233D01*
X181394100Y-59355566D01*
X181394100Y-59694233D01*
X181351766Y-59778900D01*
X181309433Y-59821233D01*
X181224766Y-59863566D01*
X181055433Y-59863566D01*
X180970766Y-59821233D01*
X180928433Y-59778900D01*
X180886100Y-59694233D01*
X180886100Y-59482566D01*
X180928433Y-59397900D01*
X180970766Y-59355566D01*
X181055433Y-59313233D01*
X181224766Y-59313233D01*
X181309433Y-59355566D01*
X181351766Y-59397900D01*
X181394100Y-59482566D01*
X178280906Y-61665273D02*
X177857573Y-61368940D01*
X178280906Y-61157273D02*
X177391906Y-61157273D01*
X177391906Y-61495940D01*
X177434240Y-61580606D01*
X177476573Y-61622940D01*
X177561240Y-61665273D01*
X177688240Y-61665273D01*
X177772906Y-61622940D01*
X177815240Y-61580606D01*
X177857573Y-61495940D01*
X177857573Y-61157273D01*
X177391906Y-62469606D02*
X177391906Y-62046273D01*
X177815240Y-62003940D01*
X177772906Y-62046273D01*
X177730573Y-62130940D01*
X177730573Y-62342606D01*
X177772906Y-62427273D01*
X177815240Y-62469606D01*
X177899906Y-62511940D01*
X178111573Y-62511940D01*
X178196240Y-62469606D01*
X178238573Y-62427273D01*
X178280906Y-62342606D01*
X178280906Y-62130940D01*
X178238573Y-62046273D01*
X178196240Y-62003940D01*
X179387500Y-46477766D02*
X179683833Y-46054433D01*
X179895500Y-46477766D02*
X179895500Y-45588766D01*
X179556833Y-45588766D01*
X179472166Y-45631100D01*
X179429833Y-45673433D01*
X179387500Y-45758100D01*
X179387500Y-45885100D01*
X179429833Y-45969766D01*
X179472166Y-46012100D01*
X179556833Y-46054433D01*
X179895500Y-46054433D01*
X178540833Y-46477766D02*
X179048833Y-46477766D01*
X178794833Y-46477766D02*
X178794833Y-45588766D01*
X178879500Y-45715766D01*
X178964166Y-45800433D01*
X179048833Y-45842766D01*
X177778833Y-45588766D02*
X177948166Y-45588766D01*
X178032833Y-45631100D01*
X178075166Y-45673433D01*
X178159833Y-45800433D01*
X178202166Y-45969766D01*
X178202166Y-46308433D01*
X178159833Y-46393100D01*
X178117500Y-46435433D01*
X178032833Y-46477766D01*
X177863500Y-46477766D01*
X177778833Y-46435433D01*
X177736500Y-46393100D01*
X177694166Y-46308433D01*
X177694166Y-46096766D01*
X177736500Y-46012100D01*
X177778833Y-45969766D01*
X177863500Y-45927433D01*
X178032833Y-45927433D01*
X178117500Y-45969766D01*
X178159833Y-46012100D01*
X178202166Y-46096766D01*
X176312406Y-52351940D02*
X176354740Y-52394273D01*
X176481740Y-52436606D01*
X176566406Y-52436606D01*
X176693406Y-52394273D01*
X176778073Y-52309606D01*
X176820406Y-52224940D01*
X176862740Y-52055606D01*
X176862740Y-51928606D01*
X176820406Y-51759273D01*
X176778073Y-51674606D01*
X176693406Y-51589940D01*
X176566406Y-51547606D01*
X176481740Y-51547606D01*
X176354740Y-51589940D01*
X176312406Y-51632273D01*
X175804406Y-51928606D02*
X175889073Y-51886273D01*
X175931406Y-51843940D01*
X175973740Y-51759273D01*
X175973740Y-51716940D01*
X175931406Y-51632273D01*
X175889073Y-51589940D01*
X175804406Y-51547606D01*
X175635073Y-51547606D01*
X175550406Y-51589940D01*
X175508073Y-51632273D01*
X175465740Y-51716940D01*
X175465740Y-51759273D01*
X175508073Y-51843940D01*
X175550406Y-51886273D01*
X175635073Y-51928606D01*
X175804406Y-51928606D01*
X175889073Y-51970940D01*
X175931406Y-52013273D01*
X175973740Y-52097940D01*
X175973740Y-52267273D01*
X175931406Y-52351940D01*
X175889073Y-52394273D01*
X175804406Y-52436606D01*
X175635073Y-52436606D01*
X175550406Y-52394273D01*
X175508073Y-52351940D01*
X175465740Y-52267273D01*
X175465740Y-52097940D01*
X175508073Y-52013273D01*
X175550406Y-51970940D01*
X175635073Y-51928606D01*
X166179500Y-45783500D02*
X166221833Y-45741166D01*
X166264166Y-45614166D01*
X166264166Y-45529500D01*
X166221833Y-45402500D01*
X166137166Y-45317833D01*
X166052500Y-45275500D01*
X165883166Y-45233166D01*
X165756166Y-45233166D01*
X165586833Y-45275500D01*
X165502166Y-45317833D01*
X165417500Y-45402500D01*
X165375166Y-45529500D01*
X165375166Y-45614166D01*
X165417500Y-45741166D01*
X165459833Y-45783500D01*
X166264166Y-46630166D02*
X166264166Y-46122166D01*
X166264166Y-46376166D02*
X165375166Y-46376166D01*
X165502166Y-46291500D01*
X165586833Y-46206833D01*
X165629166Y-46122166D01*
X165459833Y-46968833D02*
X165417500Y-47011166D01*
X165375166Y-47095833D01*
X165375166Y-47307500D01*
X165417500Y-47392166D01*
X165459833Y-47434500D01*
X165544500Y-47476833D01*
X165629166Y-47476833D01*
X165756166Y-47434500D01*
X166264166Y-46926500D01*
X166264166Y-47476833D01*
X168671240Y-53875940D02*
X168713573Y-53833606D01*
X168755906Y-53706606D01*
X168755906Y-53621940D01*
X168713573Y-53494940D01*
X168628906Y-53410273D01*
X168544240Y-53367940D01*
X168374906Y-53325606D01*
X168247906Y-53325606D01*
X168078573Y-53367940D01*
X167993906Y-53410273D01*
X167909240Y-53494940D01*
X167866906Y-53621940D01*
X167866906Y-53706606D01*
X167909240Y-53833606D01*
X167951573Y-53875940D01*
X168755906Y-54722606D02*
X168755906Y-54214606D01*
X168755906Y-54468606D02*
X167866906Y-54468606D01*
X167993906Y-54383940D01*
X168078573Y-54299273D01*
X168120906Y-54214606D01*
X167866906Y-55018940D02*
X167866906Y-55569273D01*
X168205573Y-55272940D01*
X168205573Y-55399940D01*
X168247906Y-55484606D01*
X168290240Y-55526940D01*
X168374906Y-55569273D01*
X168586573Y-55569273D01*
X168671240Y-55526940D01*
X168713573Y-55484606D01*
X168755906Y-55399940D01*
X168755906Y-55145940D01*
X168713573Y-55061273D01*
X168671240Y-55018940D01*
X177122666Y-61665273D02*
X176699333Y-61368940D01*
X177122666Y-61157273D02*
X176233666Y-61157273D01*
X176233666Y-61495940D01*
X176276000Y-61580606D01*
X176318333Y-61622940D01*
X176403000Y-61665273D01*
X176530000Y-61665273D01*
X176614666Y-61622940D01*
X176657000Y-61580606D01*
X176699333Y-61495940D01*
X176699333Y-61157273D01*
X176233666Y-61961606D02*
X176233666Y-62554273D01*
X177122666Y-62173273D01*
X173306740Y-60909106D02*
X173603073Y-60485773D01*
X173814740Y-60909106D02*
X173814740Y-60020106D01*
X173476073Y-60020106D01*
X173391406Y-60062440D01*
X173349073Y-60104773D01*
X173306740Y-60189440D01*
X173306740Y-60316440D01*
X173349073Y-60401106D01*
X173391406Y-60443440D01*
X173476073Y-60485773D01*
X173814740Y-60485773D01*
X172460073Y-60909106D02*
X172968073Y-60909106D01*
X172714073Y-60909106D02*
X172714073Y-60020106D01*
X172798740Y-60147106D01*
X172883406Y-60231773D01*
X172968073Y-60274106D01*
X171613406Y-60909106D02*
X172121406Y-60909106D01*
X171867406Y-60909106D02*
X171867406Y-60020106D01*
X171952073Y-60147106D01*
X172036740Y-60231773D01*
X172121406Y-60274106D01*
X172883406Y-63449106D02*
X173179740Y-63025773D01*
X173391406Y-63449106D02*
X173391406Y-62560106D01*
X173052740Y-62560106D01*
X172968073Y-62602440D01*
X172925740Y-62644773D01*
X172883406Y-62729440D01*
X172883406Y-62856440D01*
X172925740Y-62941106D01*
X172968073Y-62983440D01*
X173052740Y-63025773D01*
X173391406Y-63025773D01*
X172460073Y-63449106D02*
X172290740Y-63449106D01*
X172206073Y-63406773D01*
X172163740Y-63364440D01*
X172079073Y-63237440D01*
X172036740Y-63068106D01*
X172036740Y-62729440D01*
X172079073Y-62644773D01*
X172121406Y-62602440D01*
X172206073Y-62560106D01*
X172375406Y-62560106D01*
X172460073Y-62602440D01*
X172502406Y-62644773D01*
X172544740Y-62729440D01*
X172544740Y-62941106D01*
X172502406Y-63025773D01*
X172460073Y-63068106D01*
X172375406Y-63110440D01*
X172206073Y-63110440D01*
X172121406Y-63068106D01*
X172079073Y-63025773D01*
X172036740Y-62941106D01*
X173306740Y-62179106D02*
X173603073Y-61755773D01*
X173814740Y-62179106D02*
X173814740Y-61290106D01*
X173476073Y-61290106D01*
X173391406Y-61332440D01*
X173349073Y-61374773D01*
X173306740Y-61459440D01*
X173306740Y-61586440D01*
X173349073Y-61671106D01*
X173391406Y-61713440D01*
X173476073Y-61755773D01*
X173814740Y-61755773D01*
X172460073Y-62179106D02*
X172968073Y-62179106D01*
X172714073Y-62179106D02*
X172714073Y-61290106D01*
X172798740Y-61417106D01*
X172883406Y-61501773D01*
X172968073Y-61544106D01*
X171909740Y-61290106D02*
X171825073Y-61290106D01*
X171740406Y-61332440D01*
X171698073Y-61374773D01*
X171655740Y-61459440D01*
X171613406Y-61628773D01*
X171613406Y-61840440D01*
X171655740Y-62009773D01*
X171698073Y-62094440D01*
X171740406Y-62136773D01*
X171825073Y-62179106D01*
X171909740Y-62179106D01*
X171994406Y-62136773D01*
X172036740Y-62094440D01*
X172079073Y-62009773D01*
X172121406Y-61840440D01*
X172121406Y-61628773D01*
X172079073Y-61459440D01*
X172036740Y-61374773D01*
X171994406Y-61332440D01*
X171909740Y-61290106D01*
X175105906Y-61036106D02*
X175402240Y-60612773D01*
X175613906Y-61036106D02*
X175613906Y-60147106D01*
X175275240Y-60147106D01*
X175190573Y-60189440D01*
X175148240Y-60231773D01*
X175105906Y-60316440D01*
X175105906Y-60443440D01*
X175148240Y-60528106D01*
X175190573Y-60570440D01*
X175275240Y-60612773D01*
X175613906Y-60612773D01*
X174597906Y-60528106D02*
X174682573Y-60485773D01*
X174724906Y-60443440D01*
X174767240Y-60358773D01*
X174767240Y-60316440D01*
X174724906Y-60231773D01*
X174682573Y-60189440D01*
X174597906Y-60147106D01*
X174428573Y-60147106D01*
X174343906Y-60189440D01*
X174301573Y-60231773D01*
X174259240Y-60316440D01*
X174259240Y-60358773D01*
X174301573Y-60443440D01*
X174343906Y-60485773D01*
X174428573Y-60528106D01*
X174597906Y-60528106D01*
X174682573Y-60570440D01*
X174724906Y-60612773D01*
X174767240Y-60697440D01*
X174767240Y-60866773D01*
X174724906Y-60951440D01*
X174682573Y-60993773D01*
X174597906Y-61036106D01*
X174428573Y-61036106D01*
X174343906Y-60993773D01*
X174301573Y-60951440D01*
X174259240Y-60866773D01*
X174259240Y-60697440D01*
X174301573Y-60612773D01*
X174343906Y-60570440D01*
X174428573Y-60528106D01*
X183197500Y-56663166D02*
X183493833Y-56239833D01*
X183705500Y-56663166D02*
X183705500Y-55774166D01*
X183366833Y-55774166D01*
X183282166Y-55816500D01*
X183239833Y-55858833D01*
X183197500Y-55943500D01*
X183197500Y-56070500D01*
X183239833Y-56155166D01*
X183282166Y-56197500D01*
X183366833Y-56239833D01*
X183705500Y-56239833D01*
X182350833Y-56663166D02*
X182858833Y-56663166D01*
X182604833Y-56663166D02*
X182604833Y-55774166D01*
X182689500Y-55901166D01*
X182774166Y-55985833D01*
X182858833Y-56028166D01*
X181588833Y-56070500D02*
X181588833Y-56663166D01*
X181800500Y-55731833D02*
X182012166Y-56366833D01*
X181461833Y-56366833D01*
X182105300Y-46477766D02*
X182401633Y-46054433D01*
X182613300Y-46477766D02*
X182613300Y-45588766D01*
X182274633Y-45588766D01*
X182189966Y-45631100D01*
X182147633Y-45673433D01*
X182105300Y-45758100D01*
X182105300Y-45885100D01*
X182147633Y-45969766D01*
X182189966Y-46012100D01*
X182274633Y-46054433D01*
X182613300Y-46054433D01*
X181258633Y-46477766D02*
X181766633Y-46477766D01*
X181512633Y-46477766D02*
X181512633Y-45588766D01*
X181597300Y-45715766D01*
X181681966Y-45800433D01*
X181766633Y-45842766D01*
X180454300Y-45588766D02*
X180877633Y-45588766D01*
X180919966Y-46012100D01*
X180877633Y-45969766D01*
X180792966Y-45927433D01*
X180581300Y-45927433D01*
X180496633Y-45969766D01*
X180454300Y-46012100D01*
X180411966Y-46096766D01*
X180411966Y-46308433D01*
X180454300Y-46393100D01*
X180496633Y-46435433D01*
X180581300Y-46477766D01*
X180792966Y-46477766D01*
X180877633Y-46435433D01*
X180919966Y-46393100D01*
X169962406Y-62039500D02*
X169539073Y-61743166D01*
X169962406Y-61531500D02*
X169073406Y-61531500D01*
X169073406Y-61870166D01*
X169115740Y-61954833D01*
X169158073Y-61997166D01*
X169242740Y-62039500D01*
X169369740Y-62039500D01*
X169454406Y-61997166D01*
X169496740Y-61954833D01*
X169539073Y-61870166D01*
X169539073Y-61531500D01*
X169962406Y-62886166D02*
X169962406Y-62378166D01*
X169962406Y-62632166D02*
X169073406Y-62632166D01*
X169200406Y-62547500D01*
X169285073Y-62462833D01*
X169327406Y-62378166D01*
X169073406Y-63182500D02*
X169073406Y-63775166D01*
X169962406Y-63394166D01*
X172883406Y-55484606D02*
X173179740Y-55061273D01*
X173391406Y-55484606D02*
X173391406Y-54595606D01*
X173052740Y-54595606D01*
X172968073Y-54637940D01*
X172925740Y-54680273D01*
X172883406Y-54764940D01*
X172883406Y-54891940D01*
X172925740Y-54976606D01*
X172968073Y-55018940D01*
X173052740Y-55061273D01*
X173391406Y-55061273D01*
X172036740Y-55484606D02*
X172544740Y-55484606D01*
X172290740Y-55484606D02*
X172290740Y-54595606D01*
X172375406Y-54722606D01*
X172460073Y-54807273D01*
X172544740Y-54849606D01*
X172842766Y-50753433D02*
X172842766Y-50330100D01*
X171953766Y-50330100D01*
X172038433Y-51007433D02*
X171996100Y-51049766D01*
X171953766Y-51134433D01*
X171953766Y-51346100D01*
X171996100Y-51430766D01*
X172038433Y-51473100D01*
X172123100Y-51515433D01*
X172207766Y-51515433D01*
X172334766Y-51473100D01*
X172842766Y-50965100D01*
X172842766Y-51515433D01*
X180716766Y-50743273D02*
X180716766Y-50319940D01*
X179827766Y-50319940D01*
X180716766Y-51505273D02*
X180716766Y-50997273D01*
X180716766Y-51251273D02*
X179827766Y-51251273D01*
X179954766Y-51166606D01*
X180039433Y-51081940D01*
X180081766Y-50997273D01*
X174132240Y-47779940D02*
X174174573Y-47822273D01*
X174301573Y-47864606D01*
X174386240Y-47864606D01*
X174513240Y-47822273D01*
X174597906Y-47737606D01*
X174640240Y-47652940D01*
X174682573Y-47483606D01*
X174682573Y-47356606D01*
X174640240Y-47187273D01*
X174597906Y-47102606D01*
X174513240Y-47017940D01*
X174386240Y-46975606D01*
X174301573Y-46975606D01*
X174174573Y-47017940D01*
X174132240Y-47060273D01*
X173285573Y-47864606D02*
X173793573Y-47864606D01*
X173539573Y-47864606D02*
X173539573Y-46975606D01*
X173624240Y-47102606D01*
X173708906Y-47187273D01*
X173793573Y-47229606D01*
X172438906Y-47864606D02*
X172946906Y-47864606D01*
X172692906Y-47864606D02*
X172692906Y-46975606D01*
X172777573Y-47102606D01*
X172862240Y-47187273D01*
X172946906Y-47229606D01*
X173934966Y-54216300D02*
X173977300Y-54258633D01*
X174104300Y-54300966D01*
X174188966Y-54300966D01*
X174315966Y-54258633D01*
X174400633Y-54173966D01*
X174442966Y-54089300D01*
X174485300Y-53919966D01*
X174485300Y-53792966D01*
X174442966Y-53623633D01*
X174400633Y-53538966D01*
X174315966Y-53454300D01*
X174188966Y-53411966D01*
X174104300Y-53411966D01*
X173977300Y-53454300D01*
X173934966Y-53496633D01*
X173638633Y-53411966D02*
X173045966Y-53411966D01*
X173426966Y-54300966D01*
X182266166Y-57848500D02*
X182308500Y-57890833D01*
X182435500Y-57933166D01*
X182520166Y-57933166D01*
X182647166Y-57890833D01*
X182731833Y-57806166D01*
X182774166Y-57721500D01*
X182816500Y-57552166D01*
X182816500Y-57425166D01*
X182774166Y-57255833D01*
X182731833Y-57171166D01*
X182647166Y-57086500D01*
X182520166Y-57044166D01*
X182435500Y-57044166D01*
X182308500Y-57086500D01*
X182266166Y-57128833D01*
X181504166Y-57340500D02*
X181504166Y-57933166D01*
X181715833Y-57001833D02*
X181927500Y-57636833D01*
X181377166Y-57636833D01*
X185392906Y-47906940D02*
X185435240Y-47949273D01*
X185562240Y-47991606D01*
X185646906Y-47991606D01*
X185773906Y-47949273D01*
X185858573Y-47864606D01*
X185900906Y-47779940D01*
X185943240Y-47610606D01*
X185943240Y-47483606D01*
X185900906Y-47314273D01*
X185858573Y-47229606D01*
X185773906Y-47144940D01*
X185646906Y-47102606D01*
X185562240Y-47102606D01*
X185435240Y-47144940D01*
X185392906Y-47187273D01*
X185054240Y-47187273D02*
X185011906Y-47144940D01*
X184927240Y-47102606D01*
X184715573Y-47102606D01*
X184630906Y-47144940D01*
X184588573Y-47187273D01*
X184546240Y-47271940D01*
X184546240Y-47356606D01*
X184588573Y-47483606D01*
X185096573Y-47991606D01*
X184546240Y-47991606D01*
X167655240Y-47716440D02*
X167697573Y-47674106D01*
X167739906Y-47547106D01*
X167739906Y-47462440D01*
X167697573Y-47335440D01*
X167612906Y-47250773D01*
X167528240Y-47208440D01*
X167358906Y-47166106D01*
X167231906Y-47166106D01*
X167062573Y-47208440D01*
X166977906Y-47250773D01*
X166893240Y-47335440D01*
X166850906Y-47462440D01*
X166850906Y-47547106D01*
X166893240Y-47674106D01*
X166935573Y-47716440D01*
X167739906Y-48563106D02*
X167739906Y-48055106D01*
X167739906Y-48309106D02*
X166850906Y-48309106D01*
X166977906Y-48224440D01*
X167062573Y-48139773D01*
X167104906Y-48055106D01*
X166850906Y-49113440D02*
X166850906Y-49198106D01*
X166893240Y-49282773D01*
X166935573Y-49325106D01*
X167020240Y-49367440D01*
X167189573Y-49409773D01*
X167401240Y-49409773D01*
X167570573Y-49367440D01*
X167655240Y-49325106D01*
X167697573Y-49282773D01*
X167739906Y-49198106D01*
X167739906Y-49113440D01*
X167697573Y-49028773D01*
X167655240Y-48986440D01*
X167570573Y-48944106D01*
X167401240Y-48901773D01*
X167189573Y-48901773D01*
X167020240Y-48944106D01*
X166935573Y-48986440D01*
X166893240Y-49028773D01*
X166850906Y-49113440D01*
X180249406Y-54193440D02*
X180291740Y-54235773D01*
X180418740Y-54278106D01*
X180503406Y-54278106D01*
X180630406Y-54235773D01*
X180715073Y-54151106D01*
X180757406Y-54066440D01*
X180799740Y-53897106D01*
X180799740Y-53770106D01*
X180757406Y-53600773D01*
X180715073Y-53516106D01*
X180630406Y-53431440D01*
X180503406Y-53389106D01*
X180418740Y-53389106D01*
X180291740Y-53431440D01*
X180249406Y-53473773D01*
X179953073Y-53389106D02*
X179402740Y-53389106D01*
X179699073Y-53727773D01*
X179572073Y-53727773D01*
X179487406Y-53770106D01*
X179445073Y-53812440D01*
X179402740Y-53897106D01*
X179402740Y-54108773D01*
X179445073Y-54193440D01*
X179487406Y-54235773D01*
X179572073Y-54278106D01*
X179826073Y-54278106D01*
X179910740Y-54235773D01*
X179953073Y-54193440D01*
X170851406Y-56071440D02*
X170893740Y-56113773D01*
X171020740Y-56156106D01*
X171105406Y-56156106D01*
X171232406Y-56113773D01*
X171317073Y-56029106D01*
X171359406Y-55944440D01*
X171401740Y-55775106D01*
X171401740Y-55648106D01*
X171359406Y-55478773D01*
X171317073Y-55394106D01*
X171232406Y-55309440D01*
X171105406Y-55267106D01*
X171020740Y-55267106D01*
X170893740Y-55309440D01*
X170851406Y-55351773D01*
X170004740Y-56156106D02*
X170512740Y-56156106D01*
X170258740Y-56156106D02*
X170258740Y-55267106D01*
X170343406Y-55394106D01*
X170428073Y-55478773D01*
X170512740Y-55521106D01*
M02*
