%TF.GenerationSoftware,KiCad,Pcbnew,(5.1.4)-1*%
%TF.CreationDate,2019-12-19T17:58:06-07:00*%
%TF.ProjectId,SolarCell+Y,536f6c61-7243-4656-9c6c-2b592e6b6963,rev?*%
%TF.SameCoordinates,Original*%
%TF.FileFunction,Paste,Top*%
%TF.FilePolarity,Positive*%
%FSLAX46Y46*%
G04 Gerber Fmt 4.6, Leading zero omitted, Abs format (unit mm)*
G04 Created by KiCad (PCBNEW (5.1.4)-1) date 2019-12-19 17:58:06*
%MOMM*%
%LPD*%
G04 APERTURE LIST*
%ADD10C,0.050000*%
%ADD11R,7.400000X2.000000*%
%ADD12R,1.400000X1.400000*%
%ADD13R,1.400000X2.700000*%
%ADD14R,0.700000X1.000000*%
%ADD15C,0.100000*%
%ADD16C,0.590000*%
G04 APERTURE END LIST*
D10*
X200000000Y-40000000D02*
X150000000Y-40000000D01*
X150000000Y-90000000D02*
X200000000Y-90000000D01*
X150000000Y-40000000D02*
X150000000Y-90000000D01*
X196000000Y-45100000D02*
G75*
G03X196000000Y-45100000I-1100000J0D01*
G01*
X156200000Y-84900000D02*
G75*
G03X156200000Y-84900000I-1100000J0D01*
G01*
X156200000Y-45100000D02*
G75*
G03X156200000Y-45100000I-1100000J0D01*
G01*
X196000000Y-84900000D02*
G75*
G03X196000000Y-84900000I-1100000J0D01*
G01*
X200000000Y-90000000D02*
X200000000Y-40000000D01*
D11*
X170180000Y-62738000D03*
X170180000Y-41738000D03*
X161290000Y-67056000D03*
X161290000Y-88056000D03*
X170180000Y-67011000D03*
X170180000Y-88011000D03*
X179070000Y-41738000D03*
X179070000Y-62738000D03*
X187960000Y-41738000D03*
X187960000Y-62738000D03*
X179070000Y-88056000D03*
X179070000Y-67056000D03*
X187960000Y-88056000D03*
X187960000Y-67056000D03*
D12*
X154686000Y-67111000D03*
D13*
X154686000Y-70161000D03*
D11*
X161290000Y-62738000D03*
X161290000Y-41738000D03*
D14*
X153482000Y-56208000D03*
X154432000Y-56208000D03*
X155382000Y-56208000D03*
X155382000Y-59108000D03*
X154432000Y-59108000D03*
X153482000Y-59108000D03*
D15*
G36*
X155586958Y-60183510D02*
G01*
X155601276Y-60185634D01*
X155615317Y-60189151D01*
X155628946Y-60194028D01*
X155642031Y-60200217D01*
X155654447Y-60207658D01*
X155666073Y-60216281D01*
X155676798Y-60226002D01*
X155686519Y-60236727D01*
X155695142Y-60248353D01*
X155702583Y-60260769D01*
X155708772Y-60273854D01*
X155713649Y-60287483D01*
X155717166Y-60301524D01*
X155719290Y-60315842D01*
X155720000Y-60330300D01*
X155720000Y-60675300D01*
X155719290Y-60689758D01*
X155717166Y-60704076D01*
X155713649Y-60718117D01*
X155708772Y-60731746D01*
X155702583Y-60744831D01*
X155695142Y-60757247D01*
X155686519Y-60768873D01*
X155676798Y-60779598D01*
X155666073Y-60789319D01*
X155654447Y-60797942D01*
X155642031Y-60805383D01*
X155628946Y-60811572D01*
X155615317Y-60816449D01*
X155601276Y-60819966D01*
X155586958Y-60822090D01*
X155572500Y-60822800D01*
X155277500Y-60822800D01*
X155263042Y-60822090D01*
X155248724Y-60819966D01*
X155234683Y-60816449D01*
X155221054Y-60811572D01*
X155207969Y-60805383D01*
X155195553Y-60797942D01*
X155183927Y-60789319D01*
X155173202Y-60779598D01*
X155163481Y-60768873D01*
X155154858Y-60757247D01*
X155147417Y-60744831D01*
X155141228Y-60731746D01*
X155136351Y-60718117D01*
X155132834Y-60704076D01*
X155130710Y-60689758D01*
X155130000Y-60675300D01*
X155130000Y-60330300D01*
X155130710Y-60315842D01*
X155132834Y-60301524D01*
X155136351Y-60287483D01*
X155141228Y-60273854D01*
X155147417Y-60260769D01*
X155154858Y-60248353D01*
X155163481Y-60236727D01*
X155173202Y-60226002D01*
X155183927Y-60216281D01*
X155195553Y-60207658D01*
X155207969Y-60200217D01*
X155221054Y-60194028D01*
X155234683Y-60189151D01*
X155248724Y-60185634D01*
X155263042Y-60183510D01*
X155277500Y-60182800D01*
X155572500Y-60182800D01*
X155586958Y-60183510D01*
X155586958Y-60183510D01*
G37*
D16*
X155425000Y-60502800D03*
D15*
G36*
X154616958Y-60183510D02*
G01*
X154631276Y-60185634D01*
X154645317Y-60189151D01*
X154658946Y-60194028D01*
X154672031Y-60200217D01*
X154684447Y-60207658D01*
X154696073Y-60216281D01*
X154706798Y-60226002D01*
X154716519Y-60236727D01*
X154725142Y-60248353D01*
X154732583Y-60260769D01*
X154738772Y-60273854D01*
X154743649Y-60287483D01*
X154747166Y-60301524D01*
X154749290Y-60315842D01*
X154750000Y-60330300D01*
X154750000Y-60675300D01*
X154749290Y-60689758D01*
X154747166Y-60704076D01*
X154743649Y-60718117D01*
X154738772Y-60731746D01*
X154732583Y-60744831D01*
X154725142Y-60757247D01*
X154716519Y-60768873D01*
X154706798Y-60779598D01*
X154696073Y-60789319D01*
X154684447Y-60797942D01*
X154672031Y-60805383D01*
X154658946Y-60811572D01*
X154645317Y-60816449D01*
X154631276Y-60819966D01*
X154616958Y-60822090D01*
X154602500Y-60822800D01*
X154307500Y-60822800D01*
X154293042Y-60822090D01*
X154278724Y-60819966D01*
X154264683Y-60816449D01*
X154251054Y-60811572D01*
X154237969Y-60805383D01*
X154225553Y-60797942D01*
X154213927Y-60789319D01*
X154203202Y-60779598D01*
X154193481Y-60768873D01*
X154184858Y-60757247D01*
X154177417Y-60744831D01*
X154171228Y-60731746D01*
X154166351Y-60718117D01*
X154162834Y-60704076D01*
X154160710Y-60689758D01*
X154160000Y-60675300D01*
X154160000Y-60330300D01*
X154160710Y-60315842D01*
X154162834Y-60301524D01*
X154166351Y-60287483D01*
X154171228Y-60273854D01*
X154177417Y-60260769D01*
X154184858Y-60248353D01*
X154193481Y-60236727D01*
X154203202Y-60226002D01*
X154213927Y-60216281D01*
X154225553Y-60207658D01*
X154237969Y-60200217D01*
X154251054Y-60194028D01*
X154264683Y-60189151D01*
X154278724Y-60185634D01*
X154293042Y-60183510D01*
X154307500Y-60182800D01*
X154602500Y-60182800D01*
X154616958Y-60183510D01*
X154616958Y-60183510D01*
G37*
D16*
X154455000Y-60502800D03*
D15*
G36*
X154621758Y-60183510D02*
G01*
X154636076Y-60185634D01*
X154650117Y-60189151D01*
X154663746Y-60194028D01*
X154676831Y-60200217D01*
X154689247Y-60207658D01*
X154700873Y-60216281D01*
X154711598Y-60226002D01*
X154721319Y-60236727D01*
X154729942Y-60248353D01*
X154737383Y-60260769D01*
X154743572Y-60273854D01*
X154748449Y-60287483D01*
X154751966Y-60301524D01*
X154754090Y-60315842D01*
X154754800Y-60330300D01*
X154754800Y-60675300D01*
X154754090Y-60689758D01*
X154751966Y-60704076D01*
X154748449Y-60718117D01*
X154743572Y-60731746D01*
X154737383Y-60744831D01*
X154729942Y-60757247D01*
X154721319Y-60768873D01*
X154711598Y-60779598D01*
X154700873Y-60789319D01*
X154689247Y-60797942D01*
X154676831Y-60805383D01*
X154663746Y-60811572D01*
X154650117Y-60816449D01*
X154636076Y-60819966D01*
X154621758Y-60822090D01*
X154607300Y-60822800D01*
X154312300Y-60822800D01*
X154297842Y-60822090D01*
X154283524Y-60819966D01*
X154269483Y-60816449D01*
X154255854Y-60811572D01*
X154242769Y-60805383D01*
X154230353Y-60797942D01*
X154218727Y-60789319D01*
X154208002Y-60779598D01*
X154198281Y-60768873D01*
X154189658Y-60757247D01*
X154182217Y-60744831D01*
X154176028Y-60731746D01*
X154171151Y-60718117D01*
X154167634Y-60704076D01*
X154165510Y-60689758D01*
X154164800Y-60675300D01*
X154164800Y-60330300D01*
X154165510Y-60315842D01*
X154167634Y-60301524D01*
X154171151Y-60287483D01*
X154176028Y-60273854D01*
X154182217Y-60260769D01*
X154189658Y-60248353D01*
X154198281Y-60236727D01*
X154208002Y-60226002D01*
X154218727Y-60216281D01*
X154230353Y-60207658D01*
X154242769Y-60200217D01*
X154255854Y-60194028D01*
X154269483Y-60189151D01*
X154283524Y-60185634D01*
X154297842Y-60183510D01*
X154312300Y-60182800D01*
X154607300Y-60182800D01*
X154621758Y-60183510D01*
X154621758Y-60183510D01*
G37*
D16*
X154459800Y-60502800D03*
D15*
G36*
X153651758Y-60183510D02*
G01*
X153666076Y-60185634D01*
X153680117Y-60189151D01*
X153693746Y-60194028D01*
X153706831Y-60200217D01*
X153719247Y-60207658D01*
X153730873Y-60216281D01*
X153741598Y-60226002D01*
X153751319Y-60236727D01*
X153759942Y-60248353D01*
X153767383Y-60260769D01*
X153773572Y-60273854D01*
X153778449Y-60287483D01*
X153781966Y-60301524D01*
X153784090Y-60315842D01*
X153784800Y-60330300D01*
X153784800Y-60675300D01*
X153784090Y-60689758D01*
X153781966Y-60704076D01*
X153778449Y-60718117D01*
X153773572Y-60731746D01*
X153767383Y-60744831D01*
X153759942Y-60757247D01*
X153751319Y-60768873D01*
X153741598Y-60779598D01*
X153730873Y-60789319D01*
X153719247Y-60797942D01*
X153706831Y-60805383D01*
X153693746Y-60811572D01*
X153680117Y-60816449D01*
X153666076Y-60819966D01*
X153651758Y-60822090D01*
X153637300Y-60822800D01*
X153342300Y-60822800D01*
X153327842Y-60822090D01*
X153313524Y-60819966D01*
X153299483Y-60816449D01*
X153285854Y-60811572D01*
X153272769Y-60805383D01*
X153260353Y-60797942D01*
X153248727Y-60789319D01*
X153238002Y-60779598D01*
X153228281Y-60768873D01*
X153219658Y-60757247D01*
X153212217Y-60744831D01*
X153206028Y-60731746D01*
X153201151Y-60718117D01*
X153197634Y-60704076D01*
X153195510Y-60689758D01*
X153194800Y-60675300D01*
X153194800Y-60330300D01*
X153195510Y-60315842D01*
X153197634Y-60301524D01*
X153201151Y-60287483D01*
X153206028Y-60273854D01*
X153212217Y-60260769D01*
X153219658Y-60248353D01*
X153228281Y-60236727D01*
X153238002Y-60226002D01*
X153248727Y-60216281D01*
X153260353Y-60207658D01*
X153272769Y-60200217D01*
X153285854Y-60194028D01*
X153299483Y-60189151D01*
X153313524Y-60185634D01*
X153327842Y-60183510D01*
X153342300Y-60182800D01*
X153637300Y-60182800D01*
X153651758Y-60183510D01*
X153651758Y-60183510D01*
G37*
D16*
X153489800Y-60502800D03*
D15*
G36*
X155078958Y-61275710D02*
G01*
X155093276Y-61277834D01*
X155107317Y-61281351D01*
X155120946Y-61286228D01*
X155134031Y-61292417D01*
X155146447Y-61299858D01*
X155158073Y-61308481D01*
X155168798Y-61318202D01*
X155178519Y-61328927D01*
X155187142Y-61340553D01*
X155194583Y-61352969D01*
X155200772Y-61366054D01*
X155205649Y-61379683D01*
X155209166Y-61393724D01*
X155211290Y-61408042D01*
X155212000Y-61422500D01*
X155212000Y-61767500D01*
X155211290Y-61781958D01*
X155209166Y-61796276D01*
X155205649Y-61810317D01*
X155200772Y-61823946D01*
X155194583Y-61837031D01*
X155187142Y-61849447D01*
X155178519Y-61861073D01*
X155168798Y-61871798D01*
X155158073Y-61881519D01*
X155146447Y-61890142D01*
X155134031Y-61897583D01*
X155120946Y-61903772D01*
X155107317Y-61908649D01*
X155093276Y-61912166D01*
X155078958Y-61914290D01*
X155064500Y-61915000D01*
X154769500Y-61915000D01*
X154755042Y-61914290D01*
X154740724Y-61912166D01*
X154726683Y-61908649D01*
X154713054Y-61903772D01*
X154699969Y-61897583D01*
X154687553Y-61890142D01*
X154675927Y-61881519D01*
X154665202Y-61871798D01*
X154655481Y-61861073D01*
X154646858Y-61849447D01*
X154639417Y-61837031D01*
X154633228Y-61823946D01*
X154628351Y-61810317D01*
X154624834Y-61796276D01*
X154622710Y-61781958D01*
X154622000Y-61767500D01*
X154622000Y-61422500D01*
X154622710Y-61408042D01*
X154624834Y-61393724D01*
X154628351Y-61379683D01*
X154633228Y-61366054D01*
X154639417Y-61352969D01*
X154646858Y-61340553D01*
X154655481Y-61328927D01*
X154665202Y-61318202D01*
X154675927Y-61308481D01*
X154687553Y-61299858D01*
X154699969Y-61292417D01*
X154713054Y-61286228D01*
X154726683Y-61281351D01*
X154740724Y-61277834D01*
X154755042Y-61275710D01*
X154769500Y-61275000D01*
X155064500Y-61275000D01*
X155078958Y-61275710D01*
X155078958Y-61275710D01*
G37*
D16*
X154917000Y-61595000D03*
D15*
G36*
X154108958Y-61275710D02*
G01*
X154123276Y-61277834D01*
X154137317Y-61281351D01*
X154150946Y-61286228D01*
X154164031Y-61292417D01*
X154176447Y-61299858D01*
X154188073Y-61308481D01*
X154198798Y-61318202D01*
X154208519Y-61328927D01*
X154217142Y-61340553D01*
X154224583Y-61352969D01*
X154230772Y-61366054D01*
X154235649Y-61379683D01*
X154239166Y-61393724D01*
X154241290Y-61408042D01*
X154242000Y-61422500D01*
X154242000Y-61767500D01*
X154241290Y-61781958D01*
X154239166Y-61796276D01*
X154235649Y-61810317D01*
X154230772Y-61823946D01*
X154224583Y-61837031D01*
X154217142Y-61849447D01*
X154208519Y-61861073D01*
X154198798Y-61871798D01*
X154188073Y-61881519D01*
X154176447Y-61890142D01*
X154164031Y-61897583D01*
X154150946Y-61903772D01*
X154137317Y-61908649D01*
X154123276Y-61912166D01*
X154108958Y-61914290D01*
X154094500Y-61915000D01*
X153799500Y-61915000D01*
X153785042Y-61914290D01*
X153770724Y-61912166D01*
X153756683Y-61908649D01*
X153743054Y-61903772D01*
X153729969Y-61897583D01*
X153717553Y-61890142D01*
X153705927Y-61881519D01*
X153695202Y-61871798D01*
X153685481Y-61861073D01*
X153676858Y-61849447D01*
X153669417Y-61837031D01*
X153663228Y-61823946D01*
X153658351Y-61810317D01*
X153654834Y-61796276D01*
X153652710Y-61781958D01*
X153652000Y-61767500D01*
X153652000Y-61422500D01*
X153652710Y-61408042D01*
X153654834Y-61393724D01*
X153658351Y-61379683D01*
X153663228Y-61366054D01*
X153669417Y-61352969D01*
X153676858Y-61340553D01*
X153685481Y-61328927D01*
X153695202Y-61318202D01*
X153705927Y-61308481D01*
X153717553Y-61299858D01*
X153729969Y-61292417D01*
X153743054Y-61286228D01*
X153756683Y-61281351D01*
X153770724Y-61277834D01*
X153785042Y-61275710D01*
X153799500Y-61275000D01*
X154094500Y-61275000D01*
X154108958Y-61275710D01*
X154108958Y-61275710D01*
G37*
D16*
X153947000Y-61595000D03*
D12*
X194310000Y-51490000D03*
D13*
X194310000Y-54540000D03*
M02*
