M48
; DRILL file {KiCad (5.1.4)-1} date 10/27/2019 2:01:44 PM
; FORMAT={-:-/ absolute / inch / decimal}
; #@! TF.CreationDate,2019-10-27T14:01:44-07:00
; #@! TF.GenerationSoftware,Kicad,Pcbnew,(5.1.4)-1
FMAT,2
INCH
T1C0.0150
T2C0.0157
T3C0.0866
%
G90
G05
T1
X6.4396Y-2.3026
X6.4399Y-2.3365
X6.45Y-2.65
X6.455Y-2.4825
X6.5321Y-2.22
X6.5325Y-2.2675
X6.5413Y-2.1936
X6.5425Y-2.805
X6.56Y-2.7475
X6.56Y-2.86
X6.58Y-2.805
X6.6275Y-2.3675
X6.7375Y-2.6375
X6.745Y-2.4225
X6.7575Y-2.6075
X6.7769Y-2.6375
X6.7969Y-2.6075
X6.8162Y-2.6375
X6.8325Y-2.355
X6.8362Y-2.6075
X6.8395Y-2.507
X6.845Y-2.7
X6.845Y-2.73
X6.8556Y-2.6375
X6.8756Y-2.6075
X6.895Y-2.6375
X6.905Y-2.73
X6.9065Y-2.4349
X6.9068Y-2.3849
X6.9304Y-2.411
X6.9308Y-2.2989
X6.9325Y-2.5225
X6.9344Y-2.6375
X6.9568Y-2.3849
X6.9568Y-2.4339
X6.9737Y-2.6375
X7.0Y-2.4875
X7.0131Y-2.6375
X7.0336Y-2.3548
X7.0398Y-2.4089
X7.09Y-2.14
X7.275Y-2.27
X7.3025Y-2.27
X7.315Y-2.455
T2
X5.9449Y-1.752
X5.9449Y-1.7913
X5.9449Y-1.8307
X6.4567Y-2.7165
X6.4567Y-2.7756
T3
X6.5773Y-2.5591
X7.2023Y-2.5591
T0
M30
