%TF.GenerationSoftware,KiCad,Pcbnew,(5.1.4)-1*%
%TF.CreationDate,2019-10-27T14:01:39-07:00*%
%TF.ProjectId,SolarCell+Y,536f6c61-7243-4656-9c6c-2b592e6b6963,rev?*%
%TF.SameCoordinates,Original*%
%TF.FileFunction,Legend,Top*%
%TF.FilePolarity,Positive*%
%FSLAX46Y46*%
G04 Gerber Fmt 4.6, Leading zero omitted, Abs format (unit mm)*
G04 Created by KiCad (PCBNEW (5.1.4)-1) date 2019-10-27 14:01:39*
%MOMM*%
%LPD*%
G04 APERTURE LIST*
%ADD10C,0.101600*%
%ADD11C,0.120000*%
%ADD12C,0.050000*%
%ADD13C,0.127000*%
%ADD14C,0.203200*%
%ADD15C,0.010000*%
%ADD16C,0.100000*%
G04 APERTURE END LIST*
D10*
X167107809Y-73285047D02*
X166599809Y-73285047D01*
X166599809Y-73091523D01*
X166624000Y-73043142D01*
X166648190Y-73018952D01*
X166696571Y-72994761D01*
X166769142Y-72994761D01*
X166817523Y-73018952D01*
X166841714Y-73043142D01*
X166865904Y-73091523D01*
X166865904Y-73285047D01*
D11*
X167068500Y-71247000D02*
X167386000Y-71247000D01*
X166814500Y-71247000D02*
X166497000Y-71247000D01*
X168021000Y-71247000D02*
X167703500Y-71247000D01*
D12*
X198500000Y-42500000D02*
G75*
G03X198500000Y-42500000I-1100000J0D01*
G01*
X198500000Y-87500000D02*
G75*
G03X198500000Y-87500000I-1100000J0D01*
G01*
X153600000Y-87400000D02*
G75*
G03X153600000Y-87400000I-1100000J0D01*
G01*
X200000000Y-40000000D02*
X150000000Y-40000000D01*
X200000000Y-90000000D02*
X200000000Y-40000000D01*
X150000000Y-90000000D02*
X200000000Y-90000000D01*
X150000000Y-40000000D02*
X150000000Y-90000000D01*
X153600000Y-42400000D02*
G75*
G03X153600000Y-42400000I-1100000J0D01*
G01*
D13*
X150274261Y-62254190D02*
X150274261Y-61861095D01*
X150516166Y-62072761D01*
X150516166Y-61982047D01*
X150546404Y-61921571D01*
X150576642Y-61891333D01*
X150637119Y-61861095D01*
X150788309Y-61861095D01*
X150848785Y-61891333D01*
X150879023Y-61921571D01*
X150909261Y-61982047D01*
X150909261Y-62163476D01*
X150879023Y-62223952D01*
X150848785Y-62254190D01*
X150274261Y-61679666D02*
X150909261Y-61468000D01*
X150274261Y-61256333D01*
X150274261Y-61105142D02*
X150274261Y-60712047D01*
X150516166Y-60923714D01*
X150516166Y-60833000D01*
X150546404Y-60772523D01*
X150576642Y-60742285D01*
X150637119Y-60712047D01*
X150788309Y-60712047D01*
X150848785Y-60742285D01*
X150879023Y-60772523D01*
X150909261Y-60833000D01*
X150909261Y-61014428D01*
X150879023Y-61074904D01*
X150848785Y-61105142D01*
X153733500Y-61951809D02*
X153703261Y-62012285D01*
X153703261Y-62103000D01*
X153733500Y-62193714D01*
X153793976Y-62254190D01*
X153854452Y-62284428D01*
X153975404Y-62314666D01*
X154066119Y-62314666D01*
X154187071Y-62284428D01*
X154247547Y-62254190D01*
X154308023Y-62193714D01*
X154338261Y-62103000D01*
X154338261Y-62042523D01*
X154308023Y-61951809D01*
X154277785Y-61921571D01*
X154066119Y-61921571D01*
X154066119Y-62042523D01*
X154338261Y-61649428D02*
X153703261Y-61649428D01*
X154338261Y-61286571D01*
X153703261Y-61286571D01*
X154338261Y-60984190D02*
X153703261Y-60984190D01*
X153703261Y-60833000D01*
X153733500Y-60742285D01*
X153793976Y-60681809D01*
X153854452Y-60651571D01*
X153975404Y-60621333D01*
X154066119Y-60621333D01*
X154187071Y-60651571D01*
X154247547Y-60681809D01*
X154308023Y-60742285D01*
X154338261Y-60833000D01*
X154338261Y-60984190D01*
D14*
X168547142Y-71682428D02*
X168547142Y-70811571D01*
D10*
X165886190Y-69704857D02*
X166394190Y-69704857D01*
X165886190Y-69995142D01*
X166394190Y-69995142D01*
D14*
X164029571Y-71265142D02*
X164900428Y-71265142D01*
X164465000Y-71700571D02*
X164465000Y-70829714D01*
D11*
X165544500Y-71247000D02*
X165227000Y-71247000D01*
X165925500Y-71247000D02*
X166243000Y-71247000D01*
D15*
G36*
X197260089Y-82788125D02*
G01*
X197311134Y-82908693D01*
X197361925Y-83029394D01*
X197411006Y-83146714D01*
X197456918Y-83257138D01*
X197498203Y-83357154D01*
X197533405Y-83443245D01*
X197561065Y-83511900D01*
X197574868Y-83546950D01*
X197601308Y-83614368D01*
X197625110Y-83673603D01*
X197644576Y-83720540D01*
X197658007Y-83751068D01*
X197663202Y-83760844D01*
X197672432Y-83757004D01*
X197684185Y-83734602D01*
X197688399Y-83722744D01*
X197700776Y-83687730D01*
X197722027Y-83631786D01*
X197751151Y-83557382D01*
X197787147Y-83466988D01*
X197829012Y-83363077D01*
X197875745Y-83248117D01*
X197926345Y-83124580D01*
X197979808Y-82994937D01*
X198035134Y-82861658D01*
X198091321Y-82727214D01*
X198112409Y-82677000D01*
X198296671Y-82238850D01*
X198741735Y-82235512D01*
X198847743Y-82235024D01*
X198944110Y-82235175D01*
X199028123Y-82235919D01*
X199097064Y-82237208D01*
X199148217Y-82238994D01*
X199178867Y-82241229D01*
X199186800Y-82243314D01*
X199180684Y-82255751D01*
X199162921Y-82288726D01*
X199134381Y-82340680D01*
X199095938Y-82410053D01*
X199048464Y-82495284D01*
X198992831Y-82594812D01*
X198929911Y-82707078D01*
X198860577Y-82830521D01*
X198785702Y-82963580D01*
X198706157Y-83104696D01*
X198622816Y-83252307D01*
X198608950Y-83276844D01*
X198031100Y-84299233D01*
X198031100Y-85775800D01*
X197231000Y-85775800D01*
X197231000Y-84329650D01*
X196672200Y-83286168D01*
X196591440Y-83135307D01*
X196514180Y-82990879D01*
X196441251Y-82854445D01*
X196373487Y-82727569D01*
X196311720Y-82611812D01*
X196256782Y-82508737D01*
X196209506Y-82419905D01*
X196170724Y-82346878D01*
X196141269Y-82291220D01*
X196121973Y-82254491D01*
X196113669Y-82238254D01*
X196113400Y-82237593D01*
X196125626Y-82236422D01*
X196160413Y-82235345D01*
X196214921Y-82234396D01*
X196286310Y-82233605D01*
X196371741Y-82233004D01*
X196468374Y-82232625D01*
X196568745Y-82232500D01*
X197024090Y-82232500D01*
X197260089Y-82788125D01*
X197260089Y-82788125D01*
G37*
X197260089Y-82788125D02*
X197311134Y-82908693D01*
X197361925Y-83029394D01*
X197411006Y-83146714D01*
X197456918Y-83257138D01*
X197498203Y-83357154D01*
X197533405Y-83443245D01*
X197561065Y-83511900D01*
X197574868Y-83546950D01*
X197601308Y-83614368D01*
X197625110Y-83673603D01*
X197644576Y-83720540D01*
X197658007Y-83751068D01*
X197663202Y-83760844D01*
X197672432Y-83757004D01*
X197684185Y-83734602D01*
X197688399Y-83722744D01*
X197700776Y-83687730D01*
X197722027Y-83631786D01*
X197751151Y-83557382D01*
X197787147Y-83466988D01*
X197829012Y-83363077D01*
X197875745Y-83248117D01*
X197926345Y-83124580D01*
X197979808Y-82994937D01*
X198035134Y-82861658D01*
X198091321Y-82727214D01*
X198112409Y-82677000D01*
X198296671Y-82238850D01*
X198741735Y-82235512D01*
X198847743Y-82235024D01*
X198944110Y-82235175D01*
X199028123Y-82235919D01*
X199097064Y-82237208D01*
X199148217Y-82238994D01*
X199178867Y-82241229D01*
X199186800Y-82243314D01*
X199180684Y-82255751D01*
X199162921Y-82288726D01*
X199134381Y-82340680D01*
X199095938Y-82410053D01*
X199048464Y-82495284D01*
X198992831Y-82594812D01*
X198929911Y-82707078D01*
X198860577Y-82830521D01*
X198785702Y-82963580D01*
X198706157Y-83104696D01*
X198622816Y-83252307D01*
X198608950Y-83276844D01*
X198031100Y-84299233D01*
X198031100Y-85775800D01*
X197231000Y-85775800D01*
X197231000Y-84329650D01*
X196672200Y-83286168D01*
X196591440Y-83135307D01*
X196514180Y-82990879D01*
X196441251Y-82854445D01*
X196373487Y-82727569D01*
X196311720Y-82611812D01*
X196256782Y-82508737D01*
X196209506Y-82419905D01*
X196170724Y-82346878D01*
X196141269Y-82291220D01*
X196121973Y-82254491D01*
X196113669Y-82238254D01*
X196113400Y-82237593D01*
X196125626Y-82236422D01*
X196160413Y-82235345D01*
X196214921Y-82234396D01*
X196286310Y-82233605D01*
X196371741Y-82233004D01*
X196468374Y-82232625D01*
X196568745Y-82232500D01*
X197024090Y-82232500D01*
X197260089Y-82788125D01*
D11*
X186496200Y-80454000D02*
X163496200Y-80454000D01*
X163496200Y-80454000D02*
X163496200Y-72454000D01*
X163496200Y-72454000D02*
X186496200Y-72454000D01*
X186496200Y-72454000D02*
X186496200Y-80454000D01*
X182796200Y-77454000D02*
X182796200Y-75454000D01*
X183796200Y-76454000D02*
X181796200Y-76454000D01*
X168496200Y-76454000D02*
X166496200Y-76454000D01*
D16*
X151513500Y-59604000D02*
G75*
G02X151513500Y-59704000I0J-50000D01*
G01*
X151513500Y-59704000D02*
G75*
G02X151513500Y-59604000I0J50000D01*
G01*
X151513500Y-59704000D02*
X151513500Y-59704000D01*
X151513500Y-59604000D02*
X151513500Y-59604000D01*
X153763500Y-57904000D02*
X153770500Y-56904000D01*
X151163500Y-57904000D02*
X151160500Y-56904000D01*
D11*
X163500000Y-80836000D02*
X186500000Y-80836000D01*
X186500000Y-80836000D02*
X186500000Y-88836000D01*
X186500000Y-88836000D02*
X163500000Y-88836000D01*
X163500000Y-88836000D02*
X163500000Y-80836000D01*
X167200000Y-83836000D02*
X167200000Y-85836000D01*
X166200000Y-84836000D02*
X168200000Y-84836000D01*
X181500000Y-84836000D02*
X183500000Y-84836000D01*
X191508000Y-59037000D02*
X191508000Y-61037000D01*
X191508000Y-43737000D02*
X191508000Y-45737000D01*
X192508000Y-44737000D02*
X190508000Y-44737000D01*
X187508000Y-41037000D02*
X195508000Y-41037000D01*
X187508000Y-64037000D02*
X187508000Y-41037000D01*
X195508000Y-64037000D02*
X187508000Y-64037000D01*
X195508000Y-41037000D02*
X195508000Y-64037000D01*
X158492000Y-71000000D02*
X158492000Y-69000000D01*
X158492000Y-86300000D02*
X158492000Y-84300000D01*
X157492000Y-85300000D02*
X159492000Y-85300000D01*
X162492000Y-89000000D02*
X154492000Y-89000000D01*
X162492000Y-66000000D02*
X162492000Y-89000000D01*
X154492000Y-66000000D02*
X162492000Y-66000000D01*
X154492000Y-89000000D02*
X154492000Y-66000000D01*
X158492000Y-59037000D02*
X158492000Y-61037000D01*
X158492000Y-43737000D02*
X158492000Y-45737000D01*
X159492000Y-44737000D02*
X157492000Y-44737000D01*
X154492000Y-41037000D02*
X162492000Y-41037000D01*
X154492000Y-64037000D02*
X154492000Y-41037000D01*
X162492000Y-64037000D02*
X154492000Y-64037000D01*
X162492000Y-41037000D02*
X162492000Y-64037000D01*
X191508000Y-71000000D02*
X191508000Y-69000000D01*
X191508000Y-86300000D02*
X191508000Y-84300000D01*
X190508000Y-85300000D02*
X192508000Y-85300000D01*
X195508000Y-89000000D02*
X187508000Y-89000000D01*
X195508000Y-66000000D02*
X195508000Y-89000000D01*
X187508000Y-66000000D02*
X195508000Y-66000000D01*
X187508000Y-89000000D02*
X187508000Y-66000000D01*
X181500000Y-45339000D02*
X183500000Y-45339000D01*
X166200000Y-45339000D02*
X168200000Y-45339000D01*
X167200000Y-44339000D02*
X167200000Y-46339000D01*
X163500000Y-49339000D02*
X163500000Y-41339000D01*
X186500000Y-49339000D02*
X163500000Y-49339000D01*
X186500000Y-41339000D02*
X186500000Y-49339000D01*
X163500000Y-41339000D02*
X186500000Y-41339000D01*
X168496200Y-53594000D02*
X166496200Y-53594000D01*
X183796200Y-53594000D02*
X181796200Y-53594000D01*
X182796200Y-54594000D02*
X182796200Y-52594000D01*
X186496200Y-49594000D02*
X186496200Y-57594000D01*
X163496200Y-49594000D02*
X186496200Y-49594000D01*
X163496200Y-57594000D02*
X163496200Y-49594000D01*
X186496200Y-57594000D02*
X163496200Y-57594000D01*
X153654000Y-65824000D02*
X153654000Y-65424000D01*
X151754000Y-66424000D02*
X151754000Y-63624000D01*
X153554000Y-66424000D02*
X151754000Y-66424000D01*
X153554000Y-63624000D02*
X153554000Y-66424000D01*
X151754000Y-63624000D02*
X153554000Y-63624000D01*
X196358000Y-64224000D02*
X196358000Y-64624000D01*
X198258000Y-63624000D02*
X198258000Y-66424000D01*
X196458000Y-63624000D02*
X198258000Y-63624000D01*
X196458000Y-66424000D02*
X196458000Y-63624000D01*
X198258000Y-66424000D02*
X196458000Y-66424000D01*
D10*
X173834628Y-76762428D02*
X173943485Y-76798714D01*
X174124914Y-76798714D01*
X174197485Y-76762428D01*
X174233771Y-76726142D01*
X174270057Y-76653571D01*
X174270057Y-76581000D01*
X174233771Y-76508428D01*
X174197485Y-76472142D01*
X174124914Y-76435857D01*
X173979771Y-76399571D01*
X173907200Y-76363285D01*
X173870914Y-76327000D01*
X173834628Y-76254428D01*
X173834628Y-76181857D01*
X173870914Y-76109285D01*
X173907200Y-76073000D01*
X173979771Y-76036714D01*
X174161200Y-76036714D01*
X174270057Y-76073000D01*
X175032057Y-76726142D02*
X174995771Y-76762428D01*
X174886914Y-76798714D01*
X174814342Y-76798714D01*
X174705485Y-76762428D01*
X174632914Y-76689857D01*
X174596628Y-76617285D01*
X174560342Y-76472142D01*
X174560342Y-76363285D01*
X174596628Y-76218142D01*
X174632914Y-76145571D01*
X174705485Y-76073000D01*
X174814342Y-76036714D01*
X174886914Y-76036714D01*
X174995771Y-76073000D01*
X175032057Y-76109285D01*
X175322342Y-76109285D02*
X175358628Y-76073000D01*
X175431200Y-76036714D01*
X175612628Y-76036714D01*
X175685200Y-76073000D01*
X175721485Y-76109285D01*
X175757771Y-76181857D01*
X175757771Y-76254428D01*
X175721485Y-76363285D01*
X175286057Y-76798714D01*
X175757771Y-76798714D01*
X159668214Y-55861857D02*
X158906214Y-55861857D01*
X159595642Y-55063571D02*
X159631928Y-55099857D01*
X159668214Y-55208714D01*
X159668214Y-55281285D01*
X159631928Y-55390142D01*
X159559357Y-55462714D01*
X159486785Y-55499000D01*
X159341642Y-55535285D01*
X159232785Y-55535285D01*
X159087642Y-55499000D01*
X159015071Y-55462714D01*
X158942500Y-55390142D01*
X158906214Y-55281285D01*
X158906214Y-55208714D01*
X158942500Y-55099857D01*
X158978785Y-55063571D01*
X159668214Y-54337857D02*
X159668214Y-54773285D01*
X159668214Y-54555571D02*
X158906214Y-54555571D01*
X159015071Y-54628142D01*
X159087642Y-54700714D01*
X159123928Y-54773285D01*
X182356928Y-62144714D02*
X182356928Y-61382714D01*
X182356928Y-61745571D02*
X182792357Y-61745571D01*
X182792357Y-62144714D02*
X182792357Y-61382714D01*
X183118928Y-61455285D02*
X183155214Y-61419000D01*
X183227785Y-61382714D01*
X183409214Y-61382714D01*
X183481785Y-61419000D01*
X183518071Y-61455285D01*
X183554357Y-61527857D01*
X183554357Y-61600428D01*
X183518071Y-61709285D01*
X183082642Y-62144714D01*
X183554357Y-62144714D01*
X166481928Y-62144714D02*
X166481928Y-61382714D01*
X166481928Y-61745571D02*
X166917357Y-61745571D01*
X166917357Y-62144714D02*
X166917357Y-61382714D01*
X167679357Y-62144714D02*
X167243928Y-62144714D01*
X167461642Y-62144714D02*
X167461642Y-61382714D01*
X167389071Y-61491571D01*
X167316500Y-61564142D01*
X167243928Y-61600428D01*
X174238428Y-85144428D02*
X174347285Y-85180714D01*
X174528714Y-85180714D01*
X174601285Y-85144428D01*
X174637571Y-85108142D01*
X174673857Y-85035571D01*
X174673857Y-84963000D01*
X174637571Y-84890428D01*
X174601285Y-84854142D01*
X174528714Y-84817857D01*
X174383571Y-84781571D01*
X174311000Y-84745285D01*
X174274714Y-84709000D01*
X174238428Y-84636428D01*
X174238428Y-84563857D01*
X174274714Y-84491285D01*
X174311000Y-84455000D01*
X174383571Y-84418714D01*
X174565000Y-84418714D01*
X174673857Y-84455000D01*
X175435857Y-85108142D02*
X175399571Y-85144428D01*
X175290714Y-85180714D01*
X175218142Y-85180714D01*
X175109285Y-85144428D01*
X175036714Y-85071857D01*
X175000428Y-84999285D01*
X174964142Y-84854142D01*
X174964142Y-84745285D01*
X175000428Y-84600142D01*
X175036714Y-84527571D01*
X175109285Y-84455000D01*
X175218142Y-84418714D01*
X175290714Y-84418714D01*
X175399571Y-84455000D01*
X175435857Y-84491285D01*
X176161571Y-85180714D02*
X175726142Y-85180714D01*
X175943857Y-85180714D02*
X175943857Y-84418714D01*
X175871285Y-84527571D01*
X175798714Y-84600142D01*
X175726142Y-84636428D01*
X191816428Y-53698571D02*
X191852714Y-53589714D01*
X191852714Y-53408285D01*
X191816428Y-53335714D01*
X191780142Y-53299428D01*
X191707571Y-53263142D01*
X191635000Y-53263142D01*
X191562428Y-53299428D01*
X191526142Y-53335714D01*
X191489857Y-53408285D01*
X191453571Y-53553428D01*
X191417285Y-53626000D01*
X191381000Y-53662285D01*
X191308428Y-53698571D01*
X191235857Y-53698571D01*
X191163285Y-53662285D01*
X191127000Y-53626000D01*
X191090714Y-53553428D01*
X191090714Y-53372000D01*
X191127000Y-53263142D01*
X191780142Y-52501142D02*
X191816428Y-52537428D01*
X191852714Y-52646285D01*
X191852714Y-52718857D01*
X191816428Y-52827714D01*
X191743857Y-52900285D01*
X191671285Y-52936571D01*
X191526142Y-52972857D01*
X191417285Y-52972857D01*
X191272142Y-52936571D01*
X191199571Y-52900285D01*
X191127000Y-52827714D01*
X191090714Y-52718857D01*
X191090714Y-52646285D01*
X191127000Y-52537428D01*
X191163285Y-52501142D01*
X191417285Y-52065714D02*
X191381000Y-52138285D01*
X191344714Y-52174571D01*
X191272142Y-52210857D01*
X191235857Y-52210857D01*
X191163285Y-52174571D01*
X191127000Y-52138285D01*
X191090714Y-52065714D01*
X191090714Y-51920571D01*
X191127000Y-51848000D01*
X191163285Y-51811714D01*
X191235857Y-51775428D01*
X191272142Y-51775428D01*
X191344714Y-51811714D01*
X191381000Y-51848000D01*
X191417285Y-51920571D01*
X191417285Y-52065714D01*
X191453571Y-52138285D01*
X191489857Y-52174571D01*
X191562428Y-52210857D01*
X191707571Y-52210857D01*
X191780142Y-52174571D01*
X191816428Y-52138285D01*
X191852714Y-52065714D01*
X191852714Y-51920571D01*
X191816428Y-51848000D01*
X191780142Y-51811714D01*
X191707571Y-51775428D01*
X191562428Y-51775428D01*
X191489857Y-51811714D01*
X191453571Y-51848000D01*
X191417285Y-51920571D01*
X158800428Y-78261571D02*
X158836714Y-78152714D01*
X158836714Y-77971285D01*
X158800428Y-77898714D01*
X158764142Y-77862428D01*
X158691571Y-77826142D01*
X158619000Y-77826142D01*
X158546428Y-77862428D01*
X158510142Y-77898714D01*
X158473857Y-77971285D01*
X158437571Y-78116428D01*
X158401285Y-78189000D01*
X158365000Y-78225285D01*
X158292428Y-78261571D01*
X158219857Y-78261571D01*
X158147285Y-78225285D01*
X158111000Y-78189000D01*
X158074714Y-78116428D01*
X158074714Y-77935000D01*
X158111000Y-77826142D01*
X158764142Y-77064142D02*
X158800428Y-77100428D01*
X158836714Y-77209285D01*
X158836714Y-77281857D01*
X158800428Y-77390714D01*
X158727857Y-77463285D01*
X158655285Y-77499571D01*
X158510142Y-77535857D01*
X158401285Y-77535857D01*
X158256142Y-77499571D01*
X158183571Y-77463285D01*
X158111000Y-77390714D01*
X158074714Y-77281857D01*
X158074714Y-77209285D01*
X158111000Y-77100428D01*
X158147285Y-77064142D01*
X158074714Y-76810142D02*
X158074714Y-76302142D01*
X158836714Y-76628714D01*
X158800428Y-53698571D02*
X158836714Y-53589714D01*
X158836714Y-53408285D01*
X158800428Y-53335714D01*
X158764142Y-53299428D01*
X158691571Y-53263142D01*
X158619000Y-53263142D01*
X158546428Y-53299428D01*
X158510142Y-53335714D01*
X158473857Y-53408285D01*
X158437571Y-53553428D01*
X158401285Y-53626000D01*
X158365000Y-53662285D01*
X158292428Y-53698571D01*
X158219857Y-53698571D01*
X158147285Y-53662285D01*
X158111000Y-53626000D01*
X158074714Y-53553428D01*
X158074714Y-53372000D01*
X158111000Y-53263142D01*
X158764142Y-52501142D02*
X158800428Y-52537428D01*
X158836714Y-52646285D01*
X158836714Y-52718857D01*
X158800428Y-52827714D01*
X158727857Y-52900285D01*
X158655285Y-52936571D01*
X158510142Y-52972857D01*
X158401285Y-52972857D01*
X158256142Y-52936571D01*
X158183571Y-52900285D01*
X158111000Y-52827714D01*
X158074714Y-52718857D01*
X158074714Y-52646285D01*
X158111000Y-52537428D01*
X158147285Y-52501142D01*
X158074714Y-51848000D02*
X158074714Y-51993142D01*
X158111000Y-52065714D01*
X158147285Y-52102000D01*
X158256142Y-52174571D01*
X158401285Y-52210857D01*
X158691571Y-52210857D01*
X158764142Y-52174571D01*
X158800428Y-52138285D01*
X158836714Y-52065714D01*
X158836714Y-51920571D01*
X158800428Y-51848000D01*
X158764142Y-51811714D01*
X158691571Y-51775428D01*
X158510142Y-51775428D01*
X158437571Y-51811714D01*
X158401285Y-51848000D01*
X158365000Y-51920571D01*
X158365000Y-52065714D01*
X158401285Y-52138285D01*
X158437571Y-52174571D01*
X158510142Y-52210857D01*
X191816428Y-78261571D02*
X191852714Y-78152714D01*
X191852714Y-77971285D01*
X191816428Y-77898714D01*
X191780142Y-77862428D01*
X191707571Y-77826142D01*
X191635000Y-77826142D01*
X191562428Y-77862428D01*
X191526142Y-77898714D01*
X191489857Y-77971285D01*
X191453571Y-78116428D01*
X191417285Y-78189000D01*
X191381000Y-78225285D01*
X191308428Y-78261571D01*
X191235857Y-78261571D01*
X191163285Y-78225285D01*
X191127000Y-78189000D01*
X191090714Y-78116428D01*
X191090714Y-77935000D01*
X191127000Y-77826142D01*
X191780142Y-77064142D02*
X191816428Y-77100428D01*
X191852714Y-77209285D01*
X191852714Y-77281857D01*
X191816428Y-77390714D01*
X191743857Y-77463285D01*
X191671285Y-77499571D01*
X191526142Y-77535857D01*
X191417285Y-77535857D01*
X191272142Y-77499571D01*
X191199571Y-77463285D01*
X191127000Y-77390714D01*
X191090714Y-77281857D01*
X191090714Y-77209285D01*
X191127000Y-77100428D01*
X191163285Y-77064142D01*
X191090714Y-76374714D02*
X191090714Y-76737571D01*
X191453571Y-76773857D01*
X191417285Y-76737571D01*
X191381000Y-76665000D01*
X191381000Y-76483571D01*
X191417285Y-76411000D01*
X191453571Y-76374714D01*
X191526142Y-76338428D01*
X191707571Y-76338428D01*
X191780142Y-76374714D01*
X191816428Y-76411000D01*
X191852714Y-76483571D01*
X191852714Y-76665000D01*
X191816428Y-76737571D01*
X191780142Y-76773857D01*
X174238428Y-45647428D02*
X174347285Y-45683714D01*
X174528714Y-45683714D01*
X174601285Y-45647428D01*
X174637571Y-45611142D01*
X174673857Y-45538571D01*
X174673857Y-45466000D01*
X174637571Y-45393428D01*
X174601285Y-45357142D01*
X174528714Y-45320857D01*
X174383571Y-45284571D01*
X174311000Y-45248285D01*
X174274714Y-45212000D01*
X174238428Y-45139428D01*
X174238428Y-45066857D01*
X174274714Y-44994285D01*
X174311000Y-44958000D01*
X174383571Y-44921714D01*
X174565000Y-44921714D01*
X174673857Y-44958000D01*
X175435857Y-45611142D02*
X175399571Y-45647428D01*
X175290714Y-45683714D01*
X175218142Y-45683714D01*
X175109285Y-45647428D01*
X175036714Y-45574857D01*
X175000428Y-45502285D01*
X174964142Y-45357142D01*
X174964142Y-45248285D01*
X175000428Y-45103142D01*
X175036714Y-45030571D01*
X175109285Y-44958000D01*
X175218142Y-44921714D01*
X175290714Y-44921714D01*
X175399571Y-44958000D01*
X175435857Y-44994285D01*
X176089000Y-45175714D02*
X176089000Y-45683714D01*
X175907571Y-44885428D02*
X175726142Y-45429714D01*
X176197857Y-45429714D01*
X173834628Y-53902428D02*
X173943485Y-53938714D01*
X174124914Y-53938714D01*
X174197485Y-53902428D01*
X174233771Y-53866142D01*
X174270057Y-53793571D01*
X174270057Y-53721000D01*
X174233771Y-53648428D01*
X174197485Y-53612142D01*
X174124914Y-53575857D01*
X173979771Y-53539571D01*
X173907200Y-53503285D01*
X173870914Y-53467000D01*
X173834628Y-53394428D01*
X173834628Y-53321857D01*
X173870914Y-53249285D01*
X173907200Y-53213000D01*
X173979771Y-53176714D01*
X174161200Y-53176714D01*
X174270057Y-53213000D01*
X175032057Y-53866142D02*
X174995771Y-53902428D01*
X174886914Y-53938714D01*
X174814342Y-53938714D01*
X174705485Y-53902428D01*
X174632914Y-53829857D01*
X174596628Y-53757285D01*
X174560342Y-53612142D01*
X174560342Y-53503285D01*
X174596628Y-53358142D01*
X174632914Y-53285571D01*
X174705485Y-53213000D01*
X174814342Y-53176714D01*
X174886914Y-53176714D01*
X174995771Y-53213000D01*
X175032057Y-53249285D01*
X175286057Y-53176714D02*
X175757771Y-53176714D01*
X175503771Y-53467000D01*
X175612628Y-53467000D01*
X175685200Y-53503285D01*
X175721485Y-53539571D01*
X175757771Y-53612142D01*
X175757771Y-53793571D01*
X175721485Y-53866142D01*
X175685200Y-53902428D01*
X175612628Y-53938714D01*
X175394914Y-53938714D01*
X175322342Y-53902428D01*
X175286057Y-53866142D01*
X151411214Y-65205428D02*
X150649214Y-65205428D01*
X150649214Y-65024000D01*
X150685500Y-64915142D01*
X150758071Y-64842571D01*
X150830642Y-64806285D01*
X150975785Y-64770000D01*
X151084642Y-64770000D01*
X151229785Y-64806285D01*
X151302357Y-64842571D01*
X151374928Y-64915142D01*
X151411214Y-65024000D01*
X151411214Y-65205428D01*
X150721785Y-64479714D02*
X150685500Y-64443428D01*
X150649214Y-64370857D01*
X150649214Y-64189428D01*
X150685500Y-64116857D01*
X150721785Y-64080571D01*
X150794357Y-64044285D01*
X150866928Y-64044285D01*
X150975785Y-64080571D01*
X151411214Y-64516000D01*
X151411214Y-64044285D01*
X199290214Y-65586428D02*
X198528214Y-65586428D01*
X198528214Y-65405000D01*
X198564500Y-65296142D01*
X198637071Y-65223571D01*
X198709642Y-65187285D01*
X198854785Y-65151000D01*
X198963642Y-65151000D01*
X199108785Y-65187285D01*
X199181357Y-65223571D01*
X199253928Y-65296142D01*
X199290214Y-65405000D01*
X199290214Y-65586428D01*
X199290214Y-64425285D02*
X199290214Y-64860714D01*
X199290214Y-64643000D02*
X198528214Y-64643000D01*
X198637071Y-64715571D01*
X198709642Y-64788142D01*
X198745928Y-64860714D01*
X150939500Y-63327642D02*
X150903214Y-63363928D01*
X150794357Y-63400214D01*
X150721785Y-63400214D01*
X150612928Y-63363928D01*
X150540357Y-63291357D01*
X150504071Y-63218785D01*
X150467785Y-63073642D01*
X150467785Y-62964785D01*
X150504071Y-62819642D01*
X150540357Y-62747071D01*
X150612928Y-62674500D01*
X150721785Y-62638214D01*
X150794357Y-62638214D01*
X150903214Y-62674500D01*
X150939500Y-62710785D01*
X151628928Y-62638214D02*
X151266071Y-62638214D01*
X151229785Y-63001071D01*
X151266071Y-62964785D01*
X151338642Y-62928500D01*
X151520071Y-62928500D01*
X151592642Y-62964785D01*
X151628928Y-63001071D01*
X151665214Y-63073642D01*
X151665214Y-63255071D01*
X151628928Y-63327642D01*
X151592642Y-63363928D01*
X151520071Y-63400214D01*
X151338642Y-63400214D01*
X151266071Y-63363928D01*
X151229785Y-63327642D01*
M02*
