%TF.GenerationSoftware,KiCad,Pcbnew,(5.1.4)-1*%
%TF.CreationDate,2019-12-19T17:58:07-07:00*%
%TF.ProjectId,SolarCell+Y,536f6c61-7243-4656-9c6c-2b592e6b6963,rev?*%
%TF.SameCoordinates,Original*%
%TF.FileFunction,Paste,Bot*%
%TF.FilePolarity,Positive*%
%FSLAX46Y46*%
G04 Gerber Fmt 4.6, Leading zero omitted, Abs format (unit mm)*
G04 Created by KiCad (PCBNEW (5.1.4)-1) date 2019-12-19 17:58:07*
%MOMM*%
%LPD*%
G04 APERTURE LIST*
%ADD10C,0.050000*%
%ADD11R,1.500000X1.700000*%
%ADD12R,1.100000X0.250000*%
%ADD13R,0.500000X0.300000*%
%ADD14R,1.050000X1.050000*%
%ADD15R,2.250000X1.050000*%
%ADD16R,0.609600X2.209800*%
%ADD17C,0.100000*%
%ADD18C,0.590000*%
%ADD19R,0.800000X0.900000*%
%ADD20R,0.800000X0.800000*%
%ADD21R,1.100000X2.000000*%
%ADD22C,0.875000*%
%ADD23R,0.700000X0.500000*%
%ADD24R,2.150000X2.150000*%
%ADD25R,0.300000X0.900000*%
%ADD26R,0.900000X0.300000*%
%ADD27R,1.435100X4.394200*%
G04 APERTURE END LIST*
D10*
X200000000Y-40000000D02*
X150000000Y-40000000D01*
X150000000Y-90000000D02*
X200000000Y-90000000D01*
X150000000Y-40000000D02*
X150000000Y-90000000D01*
X196000000Y-45100000D02*
G75*
G03X196000000Y-45100000I-1100000J0D01*
G01*
X156200000Y-84900000D02*
G75*
G03X156200000Y-84900000I-1100000J0D01*
G01*
X156200000Y-45100000D02*
G75*
G03X156200000Y-45100000I-1100000J0D01*
G01*
X196000000Y-84900000D02*
G75*
G03X196000000Y-84900000I-1100000J0D01*
G01*
X200000000Y-90000000D02*
X200000000Y-40000000D01*
D11*
X162993240Y-54997520D03*
X162993240Y-62797520D03*
D12*
X166893240Y-56647520D03*
X166893240Y-57147520D03*
X166893240Y-57647520D03*
X166893240Y-58147520D03*
X166893240Y-58647520D03*
X166893240Y-59147520D03*
X166893240Y-59647520D03*
X166893240Y-60147520D03*
X166893240Y-60647520D03*
X166893240Y-61147520D03*
D13*
X191655000Y-76729000D03*
X193155000Y-76729000D03*
X193155000Y-76179000D03*
X191655000Y-76179000D03*
D14*
X189866000Y-76200000D03*
D15*
X188341000Y-77675000D03*
X188341000Y-74725000D03*
D16*
X189357000Y-63322200D03*
X190627000Y-63322200D03*
X191897000Y-63322200D03*
X193167000Y-63322200D03*
X193167000Y-58089800D03*
X191897000Y-58089800D03*
X190627000Y-58089800D03*
X189357000Y-58089800D03*
D17*
G36*
X189414958Y-55306710D02*
G01*
X189429276Y-55308834D01*
X189443317Y-55312351D01*
X189456946Y-55317228D01*
X189470031Y-55323417D01*
X189482447Y-55330858D01*
X189494073Y-55339481D01*
X189504798Y-55349202D01*
X189514519Y-55359927D01*
X189523142Y-55371553D01*
X189530583Y-55383969D01*
X189536772Y-55397054D01*
X189541649Y-55410683D01*
X189545166Y-55424724D01*
X189547290Y-55439042D01*
X189548000Y-55453500D01*
X189548000Y-55798500D01*
X189547290Y-55812958D01*
X189545166Y-55827276D01*
X189541649Y-55841317D01*
X189536772Y-55854946D01*
X189530583Y-55868031D01*
X189523142Y-55880447D01*
X189514519Y-55892073D01*
X189504798Y-55902798D01*
X189494073Y-55912519D01*
X189482447Y-55921142D01*
X189470031Y-55928583D01*
X189456946Y-55934772D01*
X189443317Y-55939649D01*
X189429276Y-55943166D01*
X189414958Y-55945290D01*
X189400500Y-55946000D01*
X189105500Y-55946000D01*
X189091042Y-55945290D01*
X189076724Y-55943166D01*
X189062683Y-55939649D01*
X189049054Y-55934772D01*
X189035969Y-55928583D01*
X189023553Y-55921142D01*
X189011927Y-55912519D01*
X189001202Y-55902798D01*
X188991481Y-55892073D01*
X188982858Y-55880447D01*
X188975417Y-55868031D01*
X188969228Y-55854946D01*
X188964351Y-55841317D01*
X188960834Y-55827276D01*
X188958710Y-55812958D01*
X188958000Y-55798500D01*
X188958000Y-55453500D01*
X188958710Y-55439042D01*
X188960834Y-55424724D01*
X188964351Y-55410683D01*
X188969228Y-55397054D01*
X188975417Y-55383969D01*
X188982858Y-55371553D01*
X188991481Y-55359927D01*
X189001202Y-55349202D01*
X189011927Y-55339481D01*
X189023553Y-55330858D01*
X189035969Y-55323417D01*
X189049054Y-55317228D01*
X189062683Y-55312351D01*
X189076724Y-55308834D01*
X189091042Y-55306710D01*
X189105500Y-55306000D01*
X189400500Y-55306000D01*
X189414958Y-55306710D01*
X189414958Y-55306710D01*
G37*
D18*
X189253000Y-55626000D03*
D17*
G36*
X190384958Y-55306710D02*
G01*
X190399276Y-55308834D01*
X190413317Y-55312351D01*
X190426946Y-55317228D01*
X190440031Y-55323417D01*
X190452447Y-55330858D01*
X190464073Y-55339481D01*
X190474798Y-55349202D01*
X190484519Y-55359927D01*
X190493142Y-55371553D01*
X190500583Y-55383969D01*
X190506772Y-55397054D01*
X190511649Y-55410683D01*
X190515166Y-55424724D01*
X190517290Y-55439042D01*
X190518000Y-55453500D01*
X190518000Y-55798500D01*
X190517290Y-55812958D01*
X190515166Y-55827276D01*
X190511649Y-55841317D01*
X190506772Y-55854946D01*
X190500583Y-55868031D01*
X190493142Y-55880447D01*
X190484519Y-55892073D01*
X190474798Y-55902798D01*
X190464073Y-55912519D01*
X190452447Y-55921142D01*
X190440031Y-55928583D01*
X190426946Y-55934772D01*
X190413317Y-55939649D01*
X190399276Y-55943166D01*
X190384958Y-55945290D01*
X190370500Y-55946000D01*
X190075500Y-55946000D01*
X190061042Y-55945290D01*
X190046724Y-55943166D01*
X190032683Y-55939649D01*
X190019054Y-55934772D01*
X190005969Y-55928583D01*
X189993553Y-55921142D01*
X189981927Y-55912519D01*
X189971202Y-55902798D01*
X189961481Y-55892073D01*
X189952858Y-55880447D01*
X189945417Y-55868031D01*
X189939228Y-55854946D01*
X189934351Y-55841317D01*
X189930834Y-55827276D01*
X189928710Y-55812958D01*
X189928000Y-55798500D01*
X189928000Y-55453500D01*
X189928710Y-55439042D01*
X189930834Y-55424724D01*
X189934351Y-55410683D01*
X189939228Y-55397054D01*
X189945417Y-55383969D01*
X189952858Y-55371553D01*
X189961481Y-55359927D01*
X189971202Y-55349202D01*
X189981927Y-55339481D01*
X189993553Y-55330858D01*
X190005969Y-55323417D01*
X190019054Y-55317228D01*
X190032683Y-55312351D01*
X190046724Y-55308834D01*
X190061042Y-55306710D01*
X190075500Y-55306000D01*
X190370500Y-55306000D01*
X190384958Y-55306710D01*
X190384958Y-55306710D01*
G37*
D18*
X190223000Y-55626000D03*
D17*
G36*
X189414958Y-53274710D02*
G01*
X189429276Y-53276834D01*
X189443317Y-53280351D01*
X189456946Y-53285228D01*
X189470031Y-53291417D01*
X189482447Y-53298858D01*
X189494073Y-53307481D01*
X189504798Y-53317202D01*
X189514519Y-53327927D01*
X189523142Y-53339553D01*
X189530583Y-53351969D01*
X189536772Y-53365054D01*
X189541649Y-53378683D01*
X189545166Y-53392724D01*
X189547290Y-53407042D01*
X189548000Y-53421500D01*
X189548000Y-53766500D01*
X189547290Y-53780958D01*
X189545166Y-53795276D01*
X189541649Y-53809317D01*
X189536772Y-53822946D01*
X189530583Y-53836031D01*
X189523142Y-53848447D01*
X189514519Y-53860073D01*
X189504798Y-53870798D01*
X189494073Y-53880519D01*
X189482447Y-53889142D01*
X189470031Y-53896583D01*
X189456946Y-53902772D01*
X189443317Y-53907649D01*
X189429276Y-53911166D01*
X189414958Y-53913290D01*
X189400500Y-53914000D01*
X189105500Y-53914000D01*
X189091042Y-53913290D01*
X189076724Y-53911166D01*
X189062683Y-53907649D01*
X189049054Y-53902772D01*
X189035969Y-53896583D01*
X189023553Y-53889142D01*
X189011927Y-53880519D01*
X189001202Y-53870798D01*
X188991481Y-53860073D01*
X188982858Y-53848447D01*
X188975417Y-53836031D01*
X188969228Y-53822946D01*
X188964351Y-53809317D01*
X188960834Y-53795276D01*
X188958710Y-53780958D01*
X188958000Y-53766500D01*
X188958000Y-53421500D01*
X188958710Y-53407042D01*
X188960834Y-53392724D01*
X188964351Y-53378683D01*
X188969228Y-53365054D01*
X188975417Y-53351969D01*
X188982858Y-53339553D01*
X188991481Y-53327927D01*
X189001202Y-53317202D01*
X189011927Y-53307481D01*
X189023553Y-53298858D01*
X189035969Y-53291417D01*
X189049054Y-53285228D01*
X189062683Y-53280351D01*
X189076724Y-53276834D01*
X189091042Y-53274710D01*
X189105500Y-53274000D01*
X189400500Y-53274000D01*
X189414958Y-53274710D01*
X189414958Y-53274710D01*
G37*
D18*
X189253000Y-53594000D03*
D17*
G36*
X190384958Y-53274710D02*
G01*
X190399276Y-53276834D01*
X190413317Y-53280351D01*
X190426946Y-53285228D01*
X190440031Y-53291417D01*
X190452447Y-53298858D01*
X190464073Y-53307481D01*
X190474798Y-53317202D01*
X190484519Y-53327927D01*
X190493142Y-53339553D01*
X190500583Y-53351969D01*
X190506772Y-53365054D01*
X190511649Y-53378683D01*
X190515166Y-53392724D01*
X190517290Y-53407042D01*
X190518000Y-53421500D01*
X190518000Y-53766500D01*
X190517290Y-53780958D01*
X190515166Y-53795276D01*
X190511649Y-53809317D01*
X190506772Y-53822946D01*
X190500583Y-53836031D01*
X190493142Y-53848447D01*
X190484519Y-53860073D01*
X190474798Y-53870798D01*
X190464073Y-53880519D01*
X190452447Y-53889142D01*
X190440031Y-53896583D01*
X190426946Y-53902772D01*
X190413317Y-53907649D01*
X190399276Y-53911166D01*
X190384958Y-53913290D01*
X190370500Y-53914000D01*
X190075500Y-53914000D01*
X190061042Y-53913290D01*
X190046724Y-53911166D01*
X190032683Y-53907649D01*
X190019054Y-53902772D01*
X190005969Y-53896583D01*
X189993553Y-53889142D01*
X189981927Y-53880519D01*
X189971202Y-53870798D01*
X189961481Y-53860073D01*
X189952858Y-53848447D01*
X189945417Y-53836031D01*
X189939228Y-53822946D01*
X189934351Y-53809317D01*
X189930834Y-53795276D01*
X189928710Y-53780958D01*
X189928000Y-53766500D01*
X189928000Y-53421500D01*
X189928710Y-53407042D01*
X189930834Y-53392724D01*
X189934351Y-53378683D01*
X189939228Y-53365054D01*
X189945417Y-53351969D01*
X189952858Y-53339553D01*
X189961481Y-53327927D01*
X189971202Y-53317202D01*
X189981927Y-53307481D01*
X189993553Y-53298858D01*
X190005969Y-53291417D01*
X190019054Y-53285228D01*
X190032683Y-53280351D01*
X190046724Y-53276834D01*
X190061042Y-53274710D01*
X190075500Y-53274000D01*
X190370500Y-53274000D01*
X190384958Y-53274710D01*
X190384958Y-53274710D01*
G37*
D18*
X190223000Y-53594000D03*
D17*
G36*
X190369458Y-50909710D02*
G01*
X190383776Y-50911834D01*
X190397817Y-50915351D01*
X190411446Y-50920228D01*
X190424531Y-50926417D01*
X190436947Y-50933858D01*
X190448573Y-50942481D01*
X190459298Y-50952202D01*
X190469019Y-50962927D01*
X190477642Y-50974553D01*
X190485083Y-50986969D01*
X190491272Y-51000054D01*
X190496149Y-51013683D01*
X190499666Y-51027724D01*
X190501790Y-51042042D01*
X190502500Y-51056500D01*
X190502500Y-51351500D01*
X190501790Y-51365958D01*
X190499666Y-51380276D01*
X190496149Y-51394317D01*
X190491272Y-51407946D01*
X190485083Y-51421031D01*
X190477642Y-51433447D01*
X190469019Y-51445073D01*
X190459298Y-51455798D01*
X190448573Y-51465519D01*
X190436947Y-51474142D01*
X190424531Y-51481583D01*
X190411446Y-51487772D01*
X190397817Y-51492649D01*
X190383776Y-51496166D01*
X190369458Y-51498290D01*
X190355000Y-51499000D01*
X190010000Y-51499000D01*
X189995542Y-51498290D01*
X189981224Y-51496166D01*
X189967183Y-51492649D01*
X189953554Y-51487772D01*
X189940469Y-51481583D01*
X189928053Y-51474142D01*
X189916427Y-51465519D01*
X189905702Y-51455798D01*
X189895981Y-51445073D01*
X189887358Y-51433447D01*
X189879917Y-51421031D01*
X189873728Y-51407946D01*
X189868851Y-51394317D01*
X189865334Y-51380276D01*
X189863210Y-51365958D01*
X189862500Y-51351500D01*
X189862500Y-51056500D01*
X189863210Y-51042042D01*
X189865334Y-51027724D01*
X189868851Y-51013683D01*
X189873728Y-51000054D01*
X189879917Y-50986969D01*
X189887358Y-50974553D01*
X189895981Y-50962927D01*
X189905702Y-50952202D01*
X189916427Y-50942481D01*
X189928053Y-50933858D01*
X189940469Y-50926417D01*
X189953554Y-50920228D01*
X189967183Y-50915351D01*
X189981224Y-50911834D01*
X189995542Y-50909710D01*
X190010000Y-50909000D01*
X190355000Y-50909000D01*
X190369458Y-50909710D01*
X190369458Y-50909710D01*
G37*
D18*
X190182500Y-51204000D03*
D17*
G36*
X190369458Y-51879710D02*
G01*
X190383776Y-51881834D01*
X190397817Y-51885351D01*
X190411446Y-51890228D01*
X190424531Y-51896417D01*
X190436947Y-51903858D01*
X190448573Y-51912481D01*
X190459298Y-51922202D01*
X190469019Y-51932927D01*
X190477642Y-51944553D01*
X190485083Y-51956969D01*
X190491272Y-51970054D01*
X190496149Y-51983683D01*
X190499666Y-51997724D01*
X190501790Y-52012042D01*
X190502500Y-52026500D01*
X190502500Y-52321500D01*
X190501790Y-52335958D01*
X190499666Y-52350276D01*
X190496149Y-52364317D01*
X190491272Y-52377946D01*
X190485083Y-52391031D01*
X190477642Y-52403447D01*
X190469019Y-52415073D01*
X190459298Y-52425798D01*
X190448573Y-52435519D01*
X190436947Y-52444142D01*
X190424531Y-52451583D01*
X190411446Y-52457772D01*
X190397817Y-52462649D01*
X190383776Y-52466166D01*
X190369458Y-52468290D01*
X190355000Y-52469000D01*
X190010000Y-52469000D01*
X189995542Y-52468290D01*
X189981224Y-52466166D01*
X189967183Y-52462649D01*
X189953554Y-52457772D01*
X189940469Y-52451583D01*
X189928053Y-52444142D01*
X189916427Y-52435519D01*
X189905702Y-52425798D01*
X189895981Y-52415073D01*
X189887358Y-52403447D01*
X189879917Y-52391031D01*
X189873728Y-52377946D01*
X189868851Y-52364317D01*
X189865334Y-52350276D01*
X189863210Y-52335958D01*
X189862500Y-52321500D01*
X189862500Y-52026500D01*
X189863210Y-52012042D01*
X189865334Y-51997724D01*
X189868851Y-51983683D01*
X189873728Y-51970054D01*
X189879917Y-51956969D01*
X189887358Y-51944553D01*
X189895981Y-51932927D01*
X189905702Y-51922202D01*
X189916427Y-51912481D01*
X189928053Y-51903858D01*
X189940469Y-51896417D01*
X189953554Y-51890228D01*
X189967183Y-51885351D01*
X189981224Y-51881834D01*
X189995542Y-51879710D01*
X190010000Y-51879000D01*
X190355000Y-51879000D01*
X190369458Y-51879710D01*
X190369458Y-51879710D01*
G37*
D18*
X190182500Y-52174000D03*
D17*
G36*
X168614358Y-58936110D02*
G01*
X168628676Y-58938234D01*
X168642717Y-58941751D01*
X168656346Y-58946628D01*
X168669431Y-58952817D01*
X168681847Y-58960258D01*
X168693473Y-58968881D01*
X168704198Y-58978602D01*
X168713919Y-58989327D01*
X168722542Y-59000953D01*
X168729983Y-59013369D01*
X168736172Y-59026454D01*
X168741049Y-59040083D01*
X168744566Y-59054124D01*
X168746690Y-59068442D01*
X168747400Y-59082900D01*
X168747400Y-59377900D01*
X168746690Y-59392358D01*
X168744566Y-59406676D01*
X168741049Y-59420717D01*
X168736172Y-59434346D01*
X168729983Y-59447431D01*
X168722542Y-59459847D01*
X168713919Y-59471473D01*
X168704198Y-59482198D01*
X168693473Y-59491919D01*
X168681847Y-59500542D01*
X168669431Y-59507983D01*
X168656346Y-59514172D01*
X168642717Y-59519049D01*
X168628676Y-59522566D01*
X168614358Y-59524690D01*
X168599900Y-59525400D01*
X168254900Y-59525400D01*
X168240442Y-59524690D01*
X168226124Y-59522566D01*
X168212083Y-59519049D01*
X168198454Y-59514172D01*
X168185369Y-59507983D01*
X168172953Y-59500542D01*
X168161327Y-59491919D01*
X168150602Y-59482198D01*
X168140881Y-59471473D01*
X168132258Y-59459847D01*
X168124817Y-59447431D01*
X168118628Y-59434346D01*
X168113751Y-59420717D01*
X168110234Y-59406676D01*
X168108110Y-59392358D01*
X168107400Y-59377900D01*
X168107400Y-59082900D01*
X168108110Y-59068442D01*
X168110234Y-59054124D01*
X168113751Y-59040083D01*
X168118628Y-59026454D01*
X168124817Y-59013369D01*
X168132258Y-59000953D01*
X168140881Y-58989327D01*
X168150602Y-58978602D01*
X168161327Y-58968881D01*
X168172953Y-58960258D01*
X168185369Y-58952817D01*
X168198454Y-58946628D01*
X168212083Y-58941751D01*
X168226124Y-58938234D01*
X168240442Y-58936110D01*
X168254900Y-58935400D01*
X168599900Y-58935400D01*
X168614358Y-58936110D01*
X168614358Y-58936110D01*
G37*
D18*
X168427400Y-59230400D03*
D17*
G36*
X168614358Y-59906110D02*
G01*
X168628676Y-59908234D01*
X168642717Y-59911751D01*
X168656346Y-59916628D01*
X168669431Y-59922817D01*
X168681847Y-59930258D01*
X168693473Y-59938881D01*
X168704198Y-59948602D01*
X168713919Y-59959327D01*
X168722542Y-59970953D01*
X168729983Y-59983369D01*
X168736172Y-59996454D01*
X168741049Y-60010083D01*
X168744566Y-60024124D01*
X168746690Y-60038442D01*
X168747400Y-60052900D01*
X168747400Y-60347900D01*
X168746690Y-60362358D01*
X168744566Y-60376676D01*
X168741049Y-60390717D01*
X168736172Y-60404346D01*
X168729983Y-60417431D01*
X168722542Y-60429847D01*
X168713919Y-60441473D01*
X168704198Y-60452198D01*
X168693473Y-60461919D01*
X168681847Y-60470542D01*
X168669431Y-60477983D01*
X168656346Y-60484172D01*
X168642717Y-60489049D01*
X168628676Y-60492566D01*
X168614358Y-60494690D01*
X168599900Y-60495400D01*
X168254900Y-60495400D01*
X168240442Y-60494690D01*
X168226124Y-60492566D01*
X168212083Y-60489049D01*
X168198454Y-60484172D01*
X168185369Y-60477983D01*
X168172953Y-60470542D01*
X168161327Y-60461919D01*
X168150602Y-60452198D01*
X168140881Y-60441473D01*
X168132258Y-60429847D01*
X168124817Y-60417431D01*
X168118628Y-60404346D01*
X168113751Y-60390717D01*
X168110234Y-60376676D01*
X168108110Y-60362358D01*
X168107400Y-60347900D01*
X168107400Y-60052900D01*
X168108110Y-60038442D01*
X168110234Y-60024124D01*
X168113751Y-60010083D01*
X168118628Y-59996454D01*
X168124817Y-59983369D01*
X168132258Y-59970953D01*
X168140881Y-59959327D01*
X168150602Y-59948602D01*
X168161327Y-59938881D01*
X168172953Y-59930258D01*
X168185369Y-59922817D01*
X168198454Y-59916628D01*
X168212083Y-59911751D01*
X168226124Y-59908234D01*
X168240442Y-59906110D01*
X168254900Y-59905400D01*
X168599900Y-59905400D01*
X168614358Y-59906110D01*
X168614358Y-59906110D01*
G37*
D18*
X168427400Y-60200400D03*
D19*
X192532000Y-55610000D03*
X193482000Y-53610000D03*
X191582000Y-53610000D03*
D20*
X183591200Y-51618200D03*
D21*
X183591200Y-49718200D03*
D17*
G36*
X166175958Y-52179710D02*
G01*
X166190276Y-52181834D01*
X166204317Y-52185351D01*
X166217946Y-52190228D01*
X166231031Y-52196417D01*
X166243447Y-52203858D01*
X166255073Y-52212481D01*
X166265798Y-52222202D01*
X166275519Y-52232927D01*
X166284142Y-52244553D01*
X166291583Y-52256969D01*
X166297772Y-52270054D01*
X166302649Y-52283683D01*
X166306166Y-52297724D01*
X166308290Y-52312042D01*
X166309000Y-52326500D01*
X166309000Y-52621500D01*
X166308290Y-52635958D01*
X166306166Y-52650276D01*
X166302649Y-52664317D01*
X166297772Y-52677946D01*
X166291583Y-52691031D01*
X166284142Y-52703447D01*
X166275519Y-52715073D01*
X166265798Y-52725798D01*
X166255073Y-52735519D01*
X166243447Y-52744142D01*
X166231031Y-52751583D01*
X166217946Y-52757772D01*
X166204317Y-52762649D01*
X166190276Y-52766166D01*
X166175958Y-52768290D01*
X166161500Y-52769000D01*
X165816500Y-52769000D01*
X165802042Y-52768290D01*
X165787724Y-52766166D01*
X165773683Y-52762649D01*
X165760054Y-52757772D01*
X165746969Y-52751583D01*
X165734553Y-52744142D01*
X165722927Y-52735519D01*
X165712202Y-52725798D01*
X165702481Y-52715073D01*
X165693858Y-52703447D01*
X165686417Y-52691031D01*
X165680228Y-52677946D01*
X165675351Y-52664317D01*
X165671834Y-52650276D01*
X165669710Y-52635958D01*
X165669000Y-52621500D01*
X165669000Y-52326500D01*
X165669710Y-52312042D01*
X165671834Y-52297724D01*
X165675351Y-52283683D01*
X165680228Y-52270054D01*
X165686417Y-52256969D01*
X165693858Y-52244553D01*
X165702481Y-52232927D01*
X165712202Y-52222202D01*
X165722927Y-52212481D01*
X165734553Y-52203858D01*
X165746969Y-52196417D01*
X165760054Y-52190228D01*
X165773683Y-52185351D01*
X165787724Y-52181834D01*
X165802042Y-52179710D01*
X165816500Y-52179000D01*
X166161500Y-52179000D01*
X166175958Y-52179710D01*
X166175958Y-52179710D01*
G37*
D18*
X165989000Y-52474000D03*
D17*
G36*
X166175958Y-53149710D02*
G01*
X166190276Y-53151834D01*
X166204317Y-53155351D01*
X166217946Y-53160228D01*
X166231031Y-53166417D01*
X166243447Y-53173858D01*
X166255073Y-53182481D01*
X166265798Y-53192202D01*
X166275519Y-53202927D01*
X166284142Y-53214553D01*
X166291583Y-53226969D01*
X166297772Y-53240054D01*
X166302649Y-53253683D01*
X166306166Y-53267724D01*
X166308290Y-53282042D01*
X166309000Y-53296500D01*
X166309000Y-53591500D01*
X166308290Y-53605958D01*
X166306166Y-53620276D01*
X166302649Y-53634317D01*
X166297772Y-53647946D01*
X166291583Y-53661031D01*
X166284142Y-53673447D01*
X166275519Y-53685073D01*
X166265798Y-53695798D01*
X166255073Y-53705519D01*
X166243447Y-53714142D01*
X166231031Y-53721583D01*
X166217946Y-53727772D01*
X166204317Y-53732649D01*
X166190276Y-53736166D01*
X166175958Y-53738290D01*
X166161500Y-53739000D01*
X165816500Y-53739000D01*
X165802042Y-53738290D01*
X165787724Y-53736166D01*
X165773683Y-53732649D01*
X165760054Y-53727772D01*
X165746969Y-53721583D01*
X165734553Y-53714142D01*
X165722927Y-53705519D01*
X165712202Y-53695798D01*
X165702481Y-53685073D01*
X165693858Y-53673447D01*
X165686417Y-53661031D01*
X165680228Y-53647946D01*
X165675351Y-53634317D01*
X165671834Y-53620276D01*
X165669710Y-53605958D01*
X165669000Y-53591500D01*
X165669000Y-53296500D01*
X165669710Y-53282042D01*
X165671834Y-53267724D01*
X165675351Y-53253683D01*
X165680228Y-53240054D01*
X165686417Y-53226969D01*
X165693858Y-53214553D01*
X165702481Y-53202927D01*
X165712202Y-53192202D01*
X165722927Y-53182481D01*
X165734553Y-53173858D01*
X165746969Y-53166417D01*
X165760054Y-53160228D01*
X165773683Y-53155351D01*
X165787724Y-53151834D01*
X165802042Y-53149710D01*
X165816500Y-53149000D01*
X166161500Y-53149000D01*
X166175958Y-53149710D01*
X166175958Y-53149710D01*
G37*
D18*
X165989000Y-53444000D03*
D17*
G36*
X171107931Y-57668493D02*
G01*
X171129166Y-57671643D01*
X171149990Y-57676859D01*
X171170202Y-57684091D01*
X171189608Y-57693270D01*
X171208021Y-57704306D01*
X171225264Y-57717094D01*
X171241170Y-57731510D01*
X171255586Y-57747416D01*
X171268374Y-57764659D01*
X171279410Y-57783072D01*
X171288589Y-57802478D01*
X171295821Y-57822690D01*
X171301037Y-57843514D01*
X171304187Y-57864749D01*
X171305240Y-57886190D01*
X171305240Y-58323690D01*
X171304187Y-58345131D01*
X171301037Y-58366366D01*
X171295821Y-58387190D01*
X171288589Y-58407402D01*
X171279410Y-58426808D01*
X171268374Y-58445221D01*
X171255586Y-58462464D01*
X171241170Y-58478370D01*
X171225264Y-58492786D01*
X171208021Y-58505574D01*
X171189608Y-58516610D01*
X171170202Y-58525789D01*
X171149990Y-58533021D01*
X171129166Y-58538237D01*
X171107931Y-58541387D01*
X171086490Y-58542440D01*
X170573990Y-58542440D01*
X170552549Y-58541387D01*
X170531314Y-58538237D01*
X170510490Y-58533021D01*
X170490278Y-58525789D01*
X170470872Y-58516610D01*
X170452459Y-58505574D01*
X170435216Y-58492786D01*
X170419310Y-58478370D01*
X170404894Y-58462464D01*
X170392106Y-58445221D01*
X170381070Y-58426808D01*
X170371891Y-58407402D01*
X170364659Y-58387190D01*
X170359443Y-58366366D01*
X170356293Y-58345131D01*
X170355240Y-58323690D01*
X170355240Y-57886190D01*
X170356293Y-57864749D01*
X170359443Y-57843514D01*
X170364659Y-57822690D01*
X170371891Y-57802478D01*
X170381070Y-57783072D01*
X170392106Y-57764659D01*
X170404894Y-57747416D01*
X170419310Y-57731510D01*
X170435216Y-57717094D01*
X170452459Y-57704306D01*
X170470872Y-57693270D01*
X170490278Y-57684091D01*
X170510490Y-57676859D01*
X170531314Y-57671643D01*
X170552549Y-57668493D01*
X170573990Y-57667440D01*
X171086490Y-57667440D01*
X171107931Y-57668493D01*
X171107931Y-57668493D01*
G37*
D22*
X170830240Y-58104940D03*
D17*
G36*
X171107931Y-59243493D02*
G01*
X171129166Y-59246643D01*
X171149990Y-59251859D01*
X171170202Y-59259091D01*
X171189608Y-59268270D01*
X171208021Y-59279306D01*
X171225264Y-59292094D01*
X171241170Y-59306510D01*
X171255586Y-59322416D01*
X171268374Y-59339659D01*
X171279410Y-59358072D01*
X171288589Y-59377478D01*
X171295821Y-59397690D01*
X171301037Y-59418514D01*
X171304187Y-59439749D01*
X171305240Y-59461190D01*
X171305240Y-59898690D01*
X171304187Y-59920131D01*
X171301037Y-59941366D01*
X171295821Y-59962190D01*
X171288589Y-59982402D01*
X171279410Y-60001808D01*
X171268374Y-60020221D01*
X171255586Y-60037464D01*
X171241170Y-60053370D01*
X171225264Y-60067786D01*
X171208021Y-60080574D01*
X171189608Y-60091610D01*
X171170202Y-60100789D01*
X171149990Y-60108021D01*
X171129166Y-60113237D01*
X171107931Y-60116387D01*
X171086490Y-60117440D01*
X170573990Y-60117440D01*
X170552549Y-60116387D01*
X170531314Y-60113237D01*
X170510490Y-60108021D01*
X170490278Y-60100789D01*
X170470872Y-60091610D01*
X170452459Y-60080574D01*
X170435216Y-60067786D01*
X170419310Y-60053370D01*
X170404894Y-60037464D01*
X170392106Y-60020221D01*
X170381070Y-60001808D01*
X170371891Y-59982402D01*
X170364659Y-59962190D01*
X170359443Y-59941366D01*
X170356293Y-59920131D01*
X170355240Y-59898690D01*
X170355240Y-59461190D01*
X170356293Y-59439749D01*
X170359443Y-59418514D01*
X170364659Y-59397690D01*
X170371891Y-59377478D01*
X170381070Y-59358072D01*
X170392106Y-59339659D01*
X170404894Y-59322416D01*
X170419310Y-59306510D01*
X170435216Y-59292094D01*
X170452459Y-59279306D01*
X170470872Y-59268270D01*
X170490278Y-59259091D01*
X170510490Y-59251859D01*
X170531314Y-59246643D01*
X170552549Y-59243493D01*
X170573990Y-59242440D01*
X171086490Y-59242440D01*
X171107931Y-59243493D01*
X171107931Y-59243493D01*
G37*
D22*
X170830240Y-59679940D03*
D17*
G36*
X175861538Y-48830494D02*
G01*
X175875856Y-48832618D01*
X175889897Y-48836135D01*
X175903526Y-48841012D01*
X175916611Y-48847201D01*
X175929027Y-48854642D01*
X175940653Y-48863265D01*
X175951378Y-48872986D01*
X175961099Y-48883711D01*
X175969722Y-48895337D01*
X175977163Y-48907753D01*
X175983352Y-48920838D01*
X175988229Y-48934467D01*
X175991746Y-48948508D01*
X175993870Y-48962826D01*
X175994580Y-48977284D01*
X175994580Y-49322284D01*
X175993870Y-49336742D01*
X175991746Y-49351060D01*
X175988229Y-49365101D01*
X175983352Y-49378730D01*
X175977163Y-49391815D01*
X175969722Y-49404231D01*
X175961099Y-49415857D01*
X175951378Y-49426582D01*
X175940653Y-49436303D01*
X175929027Y-49444926D01*
X175916611Y-49452367D01*
X175903526Y-49458556D01*
X175889897Y-49463433D01*
X175875856Y-49466950D01*
X175861538Y-49469074D01*
X175847080Y-49469784D01*
X175552080Y-49469784D01*
X175537622Y-49469074D01*
X175523304Y-49466950D01*
X175509263Y-49463433D01*
X175495634Y-49458556D01*
X175482549Y-49452367D01*
X175470133Y-49444926D01*
X175458507Y-49436303D01*
X175447782Y-49426582D01*
X175438061Y-49415857D01*
X175429438Y-49404231D01*
X175421997Y-49391815D01*
X175415808Y-49378730D01*
X175410931Y-49365101D01*
X175407414Y-49351060D01*
X175405290Y-49336742D01*
X175404580Y-49322284D01*
X175404580Y-48977284D01*
X175405290Y-48962826D01*
X175407414Y-48948508D01*
X175410931Y-48934467D01*
X175415808Y-48920838D01*
X175421997Y-48907753D01*
X175429438Y-48895337D01*
X175438061Y-48883711D01*
X175447782Y-48872986D01*
X175458507Y-48863265D01*
X175470133Y-48854642D01*
X175482549Y-48847201D01*
X175495634Y-48841012D01*
X175509263Y-48836135D01*
X175523304Y-48832618D01*
X175537622Y-48830494D01*
X175552080Y-48829784D01*
X175847080Y-48829784D01*
X175861538Y-48830494D01*
X175861538Y-48830494D01*
G37*
D18*
X175699580Y-49149784D03*
D17*
G36*
X176831538Y-48830494D02*
G01*
X176845856Y-48832618D01*
X176859897Y-48836135D01*
X176873526Y-48841012D01*
X176886611Y-48847201D01*
X176899027Y-48854642D01*
X176910653Y-48863265D01*
X176921378Y-48872986D01*
X176931099Y-48883711D01*
X176939722Y-48895337D01*
X176947163Y-48907753D01*
X176953352Y-48920838D01*
X176958229Y-48934467D01*
X176961746Y-48948508D01*
X176963870Y-48962826D01*
X176964580Y-48977284D01*
X176964580Y-49322284D01*
X176963870Y-49336742D01*
X176961746Y-49351060D01*
X176958229Y-49365101D01*
X176953352Y-49378730D01*
X176947163Y-49391815D01*
X176939722Y-49404231D01*
X176931099Y-49415857D01*
X176921378Y-49426582D01*
X176910653Y-49436303D01*
X176899027Y-49444926D01*
X176886611Y-49452367D01*
X176873526Y-49458556D01*
X176859897Y-49463433D01*
X176845856Y-49466950D01*
X176831538Y-49469074D01*
X176817080Y-49469784D01*
X176522080Y-49469784D01*
X176507622Y-49469074D01*
X176493304Y-49466950D01*
X176479263Y-49463433D01*
X176465634Y-49458556D01*
X176452549Y-49452367D01*
X176440133Y-49444926D01*
X176428507Y-49436303D01*
X176417782Y-49426582D01*
X176408061Y-49415857D01*
X176399438Y-49404231D01*
X176391997Y-49391815D01*
X176385808Y-49378730D01*
X176380931Y-49365101D01*
X176377414Y-49351060D01*
X176375290Y-49336742D01*
X176374580Y-49322284D01*
X176374580Y-48977284D01*
X176375290Y-48962826D01*
X176377414Y-48948508D01*
X176380931Y-48934467D01*
X176385808Y-48920838D01*
X176391997Y-48907753D01*
X176399438Y-48895337D01*
X176408061Y-48883711D01*
X176417782Y-48872986D01*
X176428507Y-48863265D01*
X176440133Y-48854642D01*
X176452549Y-48847201D01*
X176465634Y-48841012D01*
X176479263Y-48836135D01*
X176493304Y-48832618D01*
X176507622Y-48830494D01*
X176522080Y-48829784D01*
X176817080Y-48829784D01*
X176831538Y-48830494D01*
X176831538Y-48830494D01*
G37*
D18*
X176669580Y-49149784D03*
D17*
G36*
X162393691Y-51977053D02*
G01*
X162414926Y-51980203D01*
X162435750Y-51985419D01*
X162455962Y-51992651D01*
X162475368Y-52001830D01*
X162493781Y-52012866D01*
X162511024Y-52025654D01*
X162526930Y-52040070D01*
X162541346Y-52055976D01*
X162554134Y-52073219D01*
X162565170Y-52091632D01*
X162574349Y-52111038D01*
X162581581Y-52131250D01*
X162586797Y-52152074D01*
X162589947Y-52173309D01*
X162591000Y-52194750D01*
X162591000Y-52707250D01*
X162589947Y-52728691D01*
X162586797Y-52749926D01*
X162581581Y-52770750D01*
X162574349Y-52790962D01*
X162565170Y-52810368D01*
X162554134Y-52828781D01*
X162541346Y-52846024D01*
X162526930Y-52861930D01*
X162511024Y-52876346D01*
X162493781Y-52889134D01*
X162475368Y-52900170D01*
X162455962Y-52909349D01*
X162435750Y-52916581D01*
X162414926Y-52921797D01*
X162393691Y-52924947D01*
X162372250Y-52926000D01*
X161934750Y-52926000D01*
X161913309Y-52924947D01*
X161892074Y-52921797D01*
X161871250Y-52916581D01*
X161851038Y-52909349D01*
X161831632Y-52900170D01*
X161813219Y-52889134D01*
X161795976Y-52876346D01*
X161780070Y-52861930D01*
X161765654Y-52846024D01*
X161752866Y-52828781D01*
X161741830Y-52810368D01*
X161732651Y-52790962D01*
X161725419Y-52770750D01*
X161720203Y-52749926D01*
X161717053Y-52728691D01*
X161716000Y-52707250D01*
X161716000Y-52194750D01*
X161717053Y-52173309D01*
X161720203Y-52152074D01*
X161725419Y-52131250D01*
X161732651Y-52111038D01*
X161741830Y-52091632D01*
X161752866Y-52073219D01*
X161765654Y-52055976D01*
X161780070Y-52040070D01*
X161795976Y-52025654D01*
X161813219Y-52012866D01*
X161831632Y-52001830D01*
X161851038Y-51992651D01*
X161871250Y-51985419D01*
X161892074Y-51980203D01*
X161913309Y-51977053D01*
X161934750Y-51976000D01*
X162372250Y-51976000D01*
X162393691Y-51977053D01*
X162393691Y-51977053D01*
G37*
D22*
X162153500Y-52451000D03*
D17*
G36*
X163968691Y-51977053D02*
G01*
X163989926Y-51980203D01*
X164010750Y-51985419D01*
X164030962Y-51992651D01*
X164050368Y-52001830D01*
X164068781Y-52012866D01*
X164086024Y-52025654D01*
X164101930Y-52040070D01*
X164116346Y-52055976D01*
X164129134Y-52073219D01*
X164140170Y-52091632D01*
X164149349Y-52111038D01*
X164156581Y-52131250D01*
X164161797Y-52152074D01*
X164164947Y-52173309D01*
X164166000Y-52194750D01*
X164166000Y-52707250D01*
X164164947Y-52728691D01*
X164161797Y-52749926D01*
X164156581Y-52770750D01*
X164149349Y-52790962D01*
X164140170Y-52810368D01*
X164129134Y-52828781D01*
X164116346Y-52846024D01*
X164101930Y-52861930D01*
X164086024Y-52876346D01*
X164068781Y-52889134D01*
X164050368Y-52900170D01*
X164030962Y-52909349D01*
X164010750Y-52916581D01*
X163989926Y-52921797D01*
X163968691Y-52924947D01*
X163947250Y-52926000D01*
X163509750Y-52926000D01*
X163488309Y-52924947D01*
X163467074Y-52921797D01*
X163446250Y-52916581D01*
X163426038Y-52909349D01*
X163406632Y-52900170D01*
X163388219Y-52889134D01*
X163370976Y-52876346D01*
X163355070Y-52861930D01*
X163340654Y-52846024D01*
X163327866Y-52828781D01*
X163316830Y-52810368D01*
X163307651Y-52790962D01*
X163300419Y-52770750D01*
X163295203Y-52749926D01*
X163292053Y-52728691D01*
X163291000Y-52707250D01*
X163291000Y-52194750D01*
X163292053Y-52173309D01*
X163295203Y-52152074D01*
X163300419Y-52131250D01*
X163307651Y-52111038D01*
X163316830Y-52091632D01*
X163327866Y-52073219D01*
X163340654Y-52055976D01*
X163355070Y-52040070D01*
X163370976Y-52025654D01*
X163388219Y-52012866D01*
X163406632Y-52001830D01*
X163426038Y-51992651D01*
X163446250Y-51985419D01*
X163467074Y-51980203D01*
X163488309Y-51977053D01*
X163509750Y-51976000D01*
X163947250Y-51976000D01*
X163968691Y-51977053D01*
X163968691Y-51977053D01*
G37*
D22*
X163728500Y-52451000D03*
D23*
X182153000Y-54864000D03*
X183453000Y-54864000D03*
D24*
X176204580Y-55753784D03*
D25*
X177204580Y-54053784D03*
X176704580Y-54053784D03*
X176204580Y-54053784D03*
X175704580Y-54053784D03*
X175204580Y-54053784D03*
D26*
X174504580Y-54753784D03*
X174504580Y-55253784D03*
X174504580Y-55753784D03*
X174504580Y-56253784D03*
X174504580Y-56753784D03*
D25*
X175204580Y-57453784D03*
X175704580Y-57453784D03*
X176204580Y-57453784D03*
X176704580Y-57453784D03*
X177204580Y-57453784D03*
D26*
X177904580Y-56753784D03*
X177904580Y-56253784D03*
X177904580Y-55753784D03*
X177904580Y-55253784D03*
X177904580Y-54753784D03*
D20*
X168988740Y-50149440D03*
D21*
X168988740Y-52049440D03*
D17*
G36*
X179270198Y-59144650D02*
G01*
X179284516Y-59146774D01*
X179298557Y-59150291D01*
X179312186Y-59155168D01*
X179325271Y-59161357D01*
X179337687Y-59168798D01*
X179349313Y-59177421D01*
X179360038Y-59187142D01*
X179369759Y-59197867D01*
X179378382Y-59209493D01*
X179385823Y-59221909D01*
X179392012Y-59234994D01*
X179396889Y-59248623D01*
X179400406Y-59262664D01*
X179402530Y-59276982D01*
X179403240Y-59291440D01*
X179403240Y-59636440D01*
X179402530Y-59650898D01*
X179400406Y-59665216D01*
X179396889Y-59679257D01*
X179392012Y-59692886D01*
X179385823Y-59705971D01*
X179378382Y-59718387D01*
X179369759Y-59730013D01*
X179360038Y-59740738D01*
X179349313Y-59750459D01*
X179337687Y-59759082D01*
X179325271Y-59766523D01*
X179312186Y-59772712D01*
X179298557Y-59777589D01*
X179284516Y-59781106D01*
X179270198Y-59783230D01*
X179255740Y-59783940D01*
X178960740Y-59783940D01*
X178946282Y-59783230D01*
X178931964Y-59781106D01*
X178917923Y-59777589D01*
X178904294Y-59772712D01*
X178891209Y-59766523D01*
X178878793Y-59759082D01*
X178867167Y-59750459D01*
X178856442Y-59740738D01*
X178846721Y-59730013D01*
X178838098Y-59718387D01*
X178830657Y-59705971D01*
X178824468Y-59692886D01*
X178819591Y-59679257D01*
X178816074Y-59665216D01*
X178813950Y-59650898D01*
X178813240Y-59636440D01*
X178813240Y-59291440D01*
X178813950Y-59276982D01*
X178816074Y-59262664D01*
X178819591Y-59248623D01*
X178824468Y-59234994D01*
X178830657Y-59221909D01*
X178838098Y-59209493D01*
X178846721Y-59197867D01*
X178856442Y-59187142D01*
X178867167Y-59177421D01*
X178878793Y-59168798D01*
X178891209Y-59161357D01*
X178904294Y-59155168D01*
X178917923Y-59150291D01*
X178931964Y-59146774D01*
X178946282Y-59144650D01*
X178960740Y-59143940D01*
X179255740Y-59143940D01*
X179270198Y-59144650D01*
X179270198Y-59144650D01*
G37*
D18*
X179108240Y-59463940D03*
D17*
G36*
X180240198Y-59144650D02*
G01*
X180254516Y-59146774D01*
X180268557Y-59150291D01*
X180282186Y-59155168D01*
X180295271Y-59161357D01*
X180307687Y-59168798D01*
X180319313Y-59177421D01*
X180330038Y-59187142D01*
X180339759Y-59197867D01*
X180348382Y-59209493D01*
X180355823Y-59221909D01*
X180362012Y-59234994D01*
X180366889Y-59248623D01*
X180370406Y-59262664D01*
X180372530Y-59276982D01*
X180373240Y-59291440D01*
X180373240Y-59636440D01*
X180372530Y-59650898D01*
X180370406Y-59665216D01*
X180366889Y-59679257D01*
X180362012Y-59692886D01*
X180355823Y-59705971D01*
X180348382Y-59718387D01*
X180339759Y-59730013D01*
X180330038Y-59740738D01*
X180319313Y-59750459D01*
X180307687Y-59759082D01*
X180295271Y-59766523D01*
X180282186Y-59772712D01*
X180268557Y-59777589D01*
X180254516Y-59781106D01*
X180240198Y-59783230D01*
X180225740Y-59783940D01*
X179930740Y-59783940D01*
X179916282Y-59783230D01*
X179901964Y-59781106D01*
X179887923Y-59777589D01*
X179874294Y-59772712D01*
X179861209Y-59766523D01*
X179848793Y-59759082D01*
X179837167Y-59750459D01*
X179826442Y-59740738D01*
X179816721Y-59730013D01*
X179808098Y-59718387D01*
X179800657Y-59705971D01*
X179794468Y-59692886D01*
X179789591Y-59679257D01*
X179786074Y-59665216D01*
X179783950Y-59650898D01*
X179783240Y-59636440D01*
X179783240Y-59291440D01*
X179783950Y-59276982D01*
X179786074Y-59262664D01*
X179789591Y-59248623D01*
X179794468Y-59234994D01*
X179800657Y-59221909D01*
X179808098Y-59209493D01*
X179816721Y-59197867D01*
X179826442Y-59187142D01*
X179837167Y-59177421D01*
X179848793Y-59168798D01*
X179861209Y-59161357D01*
X179874294Y-59155168D01*
X179887923Y-59150291D01*
X179901964Y-59146774D01*
X179916282Y-59144650D01*
X179930740Y-59143940D01*
X180225740Y-59143940D01*
X180240198Y-59144650D01*
X180240198Y-59144650D01*
G37*
D18*
X180078240Y-59463940D03*
D17*
G36*
X178002198Y-60099150D02*
G01*
X178016516Y-60101274D01*
X178030557Y-60104791D01*
X178044186Y-60109668D01*
X178057271Y-60115857D01*
X178069687Y-60123298D01*
X178081313Y-60131921D01*
X178092038Y-60141642D01*
X178101759Y-60152367D01*
X178110382Y-60163993D01*
X178117823Y-60176409D01*
X178124012Y-60189494D01*
X178128889Y-60203123D01*
X178132406Y-60217164D01*
X178134530Y-60231482D01*
X178135240Y-60245940D01*
X178135240Y-60540940D01*
X178134530Y-60555398D01*
X178132406Y-60569716D01*
X178128889Y-60583757D01*
X178124012Y-60597386D01*
X178117823Y-60610471D01*
X178110382Y-60622887D01*
X178101759Y-60634513D01*
X178092038Y-60645238D01*
X178081313Y-60654959D01*
X178069687Y-60663582D01*
X178057271Y-60671023D01*
X178044186Y-60677212D01*
X178030557Y-60682089D01*
X178016516Y-60685606D01*
X178002198Y-60687730D01*
X177987740Y-60688440D01*
X177642740Y-60688440D01*
X177628282Y-60687730D01*
X177613964Y-60685606D01*
X177599923Y-60682089D01*
X177586294Y-60677212D01*
X177573209Y-60671023D01*
X177560793Y-60663582D01*
X177549167Y-60654959D01*
X177538442Y-60645238D01*
X177528721Y-60634513D01*
X177520098Y-60622887D01*
X177512657Y-60610471D01*
X177506468Y-60597386D01*
X177501591Y-60583757D01*
X177498074Y-60569716D01*
X177495950Y-60555398D01*
X177495240Y-60540940D01*
X177495240Y-60245940D01*
X177495950Y-60231482D01*
X177498074Y-60217164D01*
X177501591Y-60203123D01*
X177506468Y-60189494D01*
X177512657Y-60176409D01*
X177520098Y-60163993D01*
X177528721Y-60152367D01*
X177538442Y-60141642D01*
X177549167Y-60131921D01*
X177560793Y-60123298D01*
X177573209Y-60115857D01*
X177586294Y-60109668D01*
X177599923Y-60104791D01*
X177613964Y-60101274D01*
X177628282Y-60099150D01*
X177642740Y-60098440D01*
X177987740Y-60098440D01*
X178002198Y-60099150D01*
X178002198Y-60099150D01*
G37*
D18*
X177815240Y-60393440D03*
D17*
G36*
X178002198Y-59129150D02*
G01*
X178016516Y-59131274D01*
X178030557Y-59134791D01*
X178044186Y-59139668D01*
X178057271Y-59145857D01*
X178069687Y-59153298D01*
X178081313Y-59161921D01*
X178092038Y-59171642D01*
X178101759Y-59182367D01*
X178110382Y-59193993D01*
X178117823Y-59206409D01*
X178124012Y-59219494D01*
X178128889Y-59233123D01*
X178132406Y-59247164D01*
X178134530Y-59261482D01*
X178135240Y-59275940D01*
X178135240Y-59570940D01*
X178134530Y-59585398D01*
X178132406Y-59599716D01*
X178128889Y-59613757D01*
X178124012Y-59627386D01*
X178117823Y-59640471D01*
X178110382Y-59652887D01*
X178101759Y-59664513D01*
X178092038Y-59675238D01*
X178081313Y-59684959D01*
X178069687Y-59693582D01*
X178057271Y-59701023D01*
X178044186Y-59707212D01*
X178030557Y-59712089D01*
X178016516Y-59715606D01*
X178002198Y-59717730D01*
X177987740Y-59718440D01*
X177642740Y-59718440D01*
X177628282Y-59717730D01*
X177613964Y-59715606D01*
X177599923Y-59712089D01*
X177586294Y-59707212D01*
X177573209Y-59701023D01*
X177560793Y-59693582D01*
X177549167Y-59684959D01*
X177538442Y-59675238D01*
X177528721Y-59664513D01*
X177520098Y-59652887D01*
X177512657Y-59640471D01*
X177506468Y-59627386D01*
X177501591Y-59613757D01*
X177498074Y-59599716D01*
X177495950Y-59585398D01*
X177495240Y-59570940D01*
X177495240Y-59275940D01*
X177495950Y-59261482D01*
X177498074Y-59247164D01*
X177501591Y-59233123D01*
X177506468Y-59219494D01*
X177512657Y-59206409D01*
X177520098Y-59193993D01*
X177528721Y-59182367D01*
X177538442Y-59171642D01*
X177549167Y-59161921D01*
X177560793Y-59153298D01*
X177573209Y-59145857D01*
X177586294Y-59139668D01*
X177599923Y-59134791D01*
X177613964Y-59131274D01*
X177628282Y-59129150D01*
X177642740Y-59128440D01*
X177987740Y-59128440D01*
X178002198Y-59129150D01*
X178002198Y-59129150D01*
G37*
D18*
X177815240Y-59423440D03*
D17*
G36*
X179732198Y-47270150D02*
G01*
X179746516Y-47272274D01*
X179760557Y-47275791D01*
X179774186Y-47280668D01*
X179787271Y-47286857D01*
X179799687Y-47294298D01*
X179811313Y-47302921D01*
X179822038Y-47312642D01*
X179831759Y-47323367D01*
X179840382Y-47334993D01*
X179847823Y-47347409D01*
X179854012Y-47360494D01*
X179858889Y-47374123D01*
X179862406Y-47388164D01*
X179864530Y-47402482D01*
X179865240Y-47416940D01*
X179865240Y-47761940D01*
X179864530Y-47776398D01*
X179862406Y-47790716D01*
X179858889Y-47804757D01*
X179854012Y-47818386D01*
X179847823Y-47831471D01*
X179840382Y-47843887D01*
X179831759Y-47855513D01*
X179822038Y-47866238D01*
X179811313Y-47875959D01*
X179799687Y-47884582D01*
X179787271Y-47892023D01*
X179774186Y-47898212D01*
X179760557Y-47903089D01*
X179746516Y-47906606D01*
X179732198Y-47908730D01*
X179717740Y-47909440D01*
X179422740Y-47909440D01*
X179408282Y-47908730D01*
X179393964Y-47906606D01*
X179379923Y-47903089D01*
X179366294Y-47898212D01*
X179353209Y-47892023D01*
X179340793Y-47884582D01*
X179329167Y-47875959D01*
X179318442Y-47866238D01*
X179308721Y-47855513D01*
X179300098Y-47843887D01*
X179292657Y-47831471D01*
X179286468Y-47818386D01*
X179281591Y-47804757D01*
X179278074Y-47790716D01*
X179275950Y-47776398D01*
X179275240Y-47761940D01*
X179275240Y-47416940D01*
X179275950Y-47402482D01*
X179278074Y-47388164D01*
X179281591Y-47374123D01*
X179286468Y-47360494D01*
X179292657Y-47347409D01*
X179300098Y-47334993D01*
X179308721Y-47323367D01*
X179318442Y-47312642D01*
X179329167Y-47302921D01*
X179340793Y-47294298D01*
X179353209Y-47286857D01*
X179366294Y-47280668D01*
X179379923Y-47275791D01*
X179393964Y-47272274D01*
X179408282Y-47270150D01*
X179422740Y-47269440D01*
X179717740Y-47269440D01*
X179732198Y-47270150D01*
X179732198Y-47270150D01*
G37*
D18*
X179570240Y-47589440D03*
D17*
G36*
X178762198Y-47270150D02*
G01*
X178776516Y-47272274D01*
X178790557Y-47275791D01*
X178804186Y-47280668D01*
X178817271Y-47286857D01*
X178829687Y-47294298D01*
X178841313Y-47302921D01*
X178852038Y-47312642D01*
X178861759Y-47323367D01*
X178870382Y-47334993D01*
X178877823Y-47347409D01*
X178884012Y-47360494D01*
X178888889Y-47374123D01*
X178892406Y-47388164D01*
X178894530Y-47402482D01*
X178895240Y-47416940D01*
X178895240Y-47761940D01*
X178894530Y-47776398D01*
X178892406Y-47790716D01*
X178888889Y-47804757D01*
X178884012Y-47818386D01*
X178877823Y-47831471D01*
X178870382Y-47843887D01*
X178861759Y-47855513D01*
X178852038Y-47866238D01*
X178841313Y-47875959D01*
X178829687Y-47884582D01*
X178817271Y-47892023D01*
X178804186Y-47898212D01*
X178790557Y-47903089D01*
X178776516Y-47906606D01*
X178762198Y-47908730D01*
X178747740Y-47909440D01*
X178452740Y-47909440D01*
X178438282Y-47908730D01*
X178423964Y-47906606D01*
X178409923Y-47903089D01*
X178396294Y-47898212D01*
X178383209Y-47892023D01*
X178370793Y-47884582D01*
X178359167Y-47875959D01*
X178348442Y-47866238D01*
X178338721Y-47855513D01*
X178330098Y-47843887D01*
X178322657Y-47831471D01*
X178316468Y-47818386D01*
X178311591Y-47804757D01*
X178308074Y-47790716D01*
X178305950Y-47776398D01*
X178305240Y-47761940D01*
X178305240Y-47416940D01*
X178305950Y-47402482D01*
X178308074Y-47388164D01*
X178311591Y-47374123D01*
X178316468Y-47360494D01*
X178322657Y-47347409D01*
X178330098Y-47334993D01*
X178338721Y-47323367D01*
X178348442Y-47312642D01*
X178359167Y-47302921D01*
X178370793Y-47294298D01*
X178383209Y-47286857D01*
X178396294Y-47280668D01*
X178409923Y-47275791D01*
X178423964Y-47272274D01*
X178438282Y-47270150D01*
X178452740Y-47269440D01*
X178747740Y-47269440D01*
X178762198Y-47270150D01*
X178762198Y-47270150D01*
G37*
D18*
X178600240Y-47589440D03*
D17*
G36*
X175861538Y-50762650D02*
G01*
X175875856Y-50764774D01*
X175889897Y-50768291D01*
X175903526Y-50773168D01*
X175916611Y-50779357D01*
X175929027Y-50786798D01*
X175940653Y-50795421D01*
X175951378Y-50805142D01*
X175961099Y-50815867D01*
X175969722Y-50827493D01*
X175977163Y-50839909D01*
X175983352Y-50852994D01*
X175988229Y-50866623D01*
X175991746Y-50880664D01*
X175993870Y-50894982D01*
X175994580Y-50909440D01*
X175994580Y-51254440D01*
X175993870Y-51268898D01*
X175991746Y-51283216D01*
X175988229Y-51297257D01*
X175983352Y-51310886D01*
X175977163Y-51323971D01*
X175969722Y-51336387D01*
X175961099Y-51348013D01*
X175951378Y-51358738D01*
X175940653Y-51368459D01*
X175929027Y-51377082D01*
X175916611Y-51384523D01*
X175903526Y-51390712D01*
X175889897Y-51395589D01*
X175875856Y-51399106D01*
X175861538Y-51401230D01*
X175847080Y-51401940D01*
X175552080Y-51401940D01*
X175537622Y-51401230D01*
X175523304Y-51399106D01*
X175509263Y-51395589D01*
X175495634Y-51390712D01*
X175482549Y-51384523D01*
X175470133Y-51377082D01*
X175458507Y-51368459D01*
X175447782Y-51358738D01*
X175438061Y-51348013D01*
X175429438Y-51336387D01*
X175421997Y-51323971D01*
X175415808Y-51310886D01*
X175410931Y-51297257D01*
X175407414Y-51283216D01*
X175405290Y-51268898D01*
X175404580Y-51254440D01*
X175404580Y-50909440D01*
X175405290Y-50894982D01*
X175407414Y-50880664D01*
X175410931Y-50866623D01*
X175415808Y-50852994D01*
X175421997Y-50839909D01*
X175429438Y-50827493D01*
X175438061Y-50815867D01*
X175447782Y-50805142D01*
X175458507Y-50795421D01*
X175470133Y-50786798D01*
X175482549Y-50779357D01*
X175495634Y-50773168D01*
X175509263Y-50768291D01*
X175523304Y-50764774D01*
X175537622Y-50762650D01*
X175552080Y-50761940D01*
X175847080Y-50761940D01*
X175861538Y-50762650D01*
X175861538Y-50762650D01*
G37*
D18*
X175699580Y-51081940D03*
D17*
G36*
X176831538Y-50762650D02*
G01*
X176845856Y-50764774D01*
X176859897Y-50768291D01*
X176873526Y-50773168D01*
X176886611Y-50779357D01*
X176899027Y-50786798D01*
X176910653Y-50795421D01*
X176921378Y-50805142D01*
X176931099Y-50815867D01*
X176939722Y-50827493D01*
X176947163Y-50839909D01*
X176953352Y-50852994D01*
X176958229Y-50866623D01*
X176961746Y-50880664D01*
X176963870Y-50894982D01*
X176964580Y-50909440D01*
X176964580Y-51254440D01*
X176963870Y-51268898D01*
X176961746Y-51283216D01*
X176958229Y-51297257D01*
X176953352Y-51310886D01*
X176947163Y-51323971D01*
X176939722Y-51336387D01*
X176931099Y-51348013D01*
X176921378Y-51358738D01*
X176910653Y-51368459D01*
X176899027Y-51377082D01*
X176886611Y-51384523D01*
X176873526Y-51390712D01*
X176859897Y-51395589D01*
X176845856Y-51399106D01*
X176831538Y-51401230D01*
X176817080Y-51401940D01*
X176522080Y-51401940D01*
X176507622Y-51401230D01*
X176493304Y-51399106D01*
X176479263Y-51395589D01*
X176465634Y-51390712D01*
X176452549Y-51384523D01*
X176440133Y-51377082D01*
X176428507Y-51368459D01*
X176417782Y-51358738D01*
X176408061Y-51348013D01*
X176399438Y-51336387D01*
X176391997Y-51323971D01*
X176385808Y-51310886D01*
X176380931Y-51297257D01*
X176377414Y-51283216D01*
X176375290Y-51268898D01*
X176374580Y-51254440D01*
X176374580Y-50909440D01*
X176375290Y-50894982D01*
X176377414Y-50880664D01*
X176380931Y-50866623D01*
X176385808Y-50852994D01*
X176391997Y-50839909D01*
X176399438Y-50827493D01*
X176408061Y-50815867D01*
X176417782Y-50805142D01*
X176428507Y-50795421D01*
X176440133Y-50786798D01*
X176452549Y-50779357D01*
X176465634Y-50773168D01*
X176479263Y-50768291D01*
X176493304Y-50764774D01*
X176507622Y-50762650D01*
X176522080Y-50761940D01*
X176817080Y-50761940D01*
X176831538Y-50762650D01*
X176831538Y-50762650D01*
G37*
D18*
X176669580Y-51081940D03*
D17*
G36*
X166139691Y-48052053D02*
G01*
X166160926Y-48055203D01*
X166181750Y-48060419D01*
X166201962Y-48067651D01*
X166221368Y-48076830D01*
X166239781Y-48087866D01*
X166257024Y-48100654D01*
X166272930Y-48115070D01*
X166287346Y-48130976D01*
X166300134Y-48148219D01*
X166311170Y-48166632D01*
X166320349Y-48186038D01*
X166327581Y-48206250D01*
X166332797Y-48227074D01*
X166335947Y-48248309D01*
X166337000Y-48269750D01*
X166337000Y-48707250D01*
X166335947Y-48728691D01*
X166332797Y-48749926D01*
X166327581Y-48770750D01*
X166320349Y-48790962D01*
X166311170Y-48810368D01*
X166300134Y-48828781D01*
X166287346Y-48846024D01*
X166272930Y-48861930D01*
X166257024Y-48876346D01*
X166239781Y-48889134D01*
X166221368Y-48900170D01*
X166201962Y-48909349D01*
X166181750Y-48916581D01*
X166160926Y-48921797D01*
X166139691Y-48924947D01*
X166118250Y-48926000D01*
X165605750Y-48926000D01*
X165584309Y-48924947D01*
X165563074Y-48921797D01*
X165542250Y-48916581D01*
X165522038Y-48909349D01*
X165502632Y-48900170D01*
X165484219Y-48889134D01*
X165466976Y-48876346D01*
X165451070Y-48861930D01*
X165436654Y-48846024D01*
X165423866Y-48828781D01*
X165412830Y-48810368D01*
X165403651Y-48790962D01*
X165396419Y-48770750D01*
X165391203Y-48749926D01*
X165388053Y-48728691D01*
X165387000Y-48707250D01*
X165387000Y-48269750D01*
X165388053Y-48248309D01*
X165391203Y-48227074D01*
X165396419Y-48206250D01*
X165403651Y-48186038D01*
X165412830Y-48166632D01*
X165423866Y-48148219D01*
X165436654Y-48130976D01*
X165451070Y-48115070D01*
X165466976Y-48100654D01*
X165484219Y-48087866D01*
X165502632Y-48076830D01*
X165522038Y-48067651D01*
X165542250Y-48060419D01*
X165563074Y-48055203D01*
X165584309Y-48052053D01*
X165605750Y-48051000D01*
X166118250Y-48051000D01*
X166139691Y-48052053D01*
X166139691Y-48052053D01*
G37*
D22*
X165862000Y-48488500D03*
D17*
G36*
X166139691Y-49627053D02*
G01*
X166160926Y-49630203D01*
X166181750Y-49635419D01*
X166201962Y-49642651D01*
X166221368Y-49651830D01*
X166239781Y-49662866D01*
X166257024Y-49675654D01*
X166272930Y-49690070D01*
X166287346Y-49705976D01*
X166300134Y-49723219D01*
X166311170Y-49741632D01*
X166320349Y-49761038D01*
X166327581Y-49781250D01*
X166332797Y-49802074D01*
X166335947Y-49823309D01*
X166337000Y-49844750D01*
X166337000Y-50282250D01*
X166335947Y-50303691D01*
X166332797Y-50324926D01*
X166327581Y-50345750D01*
X166320349Y-50365962D01*
X166311170Y-50385368D01*
X166300134Y-50403781D01*
X166287346Y-50421024D01*
X166272930Y-50436930D01*
X166257024Y-50451346D01*
X166239781Y-50464134D01*
X166221368Y-50475170D01*
X166201962Y-50484349D01*
X166181750Y-50491581D01*
X166160926Y-50496797D01*
X166139691Y-50499947D01*
X166118250Y-50501000D01*
X165605750Y-50501000D01*
X165584309Y-50499947D01*
X165563074Y-50496797D01*
X165542250Y-50491581D01*
X165522038Y-50484349D01*
X165502632Y-50475170D01*
X165484219Y-50464134D01*
X165466976Y-50451346D01*
X165451070Y-50436930D01*
X165436654Y-50421024D01*
X165423866Y-50403781D01*
X165412830Y-50385368D01*
X165403651Y-50365962D01*
X165396419Y-50345750D01*
X165391203Y-50324926D01*
X165388053Y-50303691D01*
X165387000Y-50282250D01*
X165387000Y-49844750D01*
X165388053Y-49823309D01*
X165391203Y-49802074D01*
X165396419Y-49781250D01*
X165403651Y-49761038D01*
X165412830Y-49741632D01*
X165423866Y-49723219D01*
X165436654Y-49705976D01*
X165451070Y-49690070D01*
X165466976Y-49675654D01*
X165484219Y-49662866D01*
X165502632Y-49651830D01*
X165522038Y-49642651D01*
X165542250Y-49635419D01*
X165563074Y-49630203D01*
X165584309Y-49627053D01*
X165605750Y-49626000D01*
X166118250Y-49626000D01*
X166139691Y-49627053D01*
X166139691Y-49627053D01*
G37*
D22*
X165862000Y-50063500D03*
D17*
G36*
X167524698Y-53177650D02*
G01*
X167539016Y-53179774D01*
X167553057Y-53183291D01*
X167566686Y-53188168D01*
X167579771Y-53194357D01*
X167592187Y-53201798D01*
X167603813Y-53210421D01*
X167614538Y-53220142D01*
X167624259Y-53230867D01*
X167632882Y-53242493D01*
X167640323Y-53254909D01*
X167646512Y-53267994D01*
X167651389Y-53281623D01*
X167654906Y-53295664D01*
X167657030Y-53309982D01*
X167657740Y-53324440D01*
X167657740Y-53619440D01*
X167657030Y-53633898D01*
X167654906Y-53648216D01*
X167651389Y-53662257D01*
X167646512Y-53675886D01*
X167640323Y-53688971D01*
X167632882Y-53701387D01*
X167624259Y-53713013D01*
X167614538Y-53723738D01*
X167603813Y-53733459D01*
X167592187Y-53742082D01*
X167579771Y-53749523D01*
X167566686Y-53755712D01*
X167553057Y-53760589D01*
X167539016Y-53764106D01*
X167524698Y-53766230D01*
X167510240Y-53766940D01*
X167165240Y-53766940D01*
X167150782Y-53766230D01*
X167136464Y-53764106D01*
X167122423Y-53760589D01*
X167108794Y-53755712D01*
X167095709Y-53749523D01*
X167083293Y-53742082D01*
X167071667Y-53733459D01*
X167060942Y-53723738D01*
X167051221Y-53713013D01*
X167042598Y-53701387D01*
X167035157Y-53688971D01*
X167028968Y-53675886D01*
X167024091Y-53662257D01*
X167020574Y-53648216D01*
X167018450Y-53633898D01*
X167017740Y-53619440D01*
X167017740Y-53324440D01*
X167018450Y-53309982D01*
X167020574Y-53295664D01*
X167024091Y-53281623D01*
X167028968Y-53267994D01*
X167035157Y-53254909D01*
X167042598Y-53242493D01*
X167051221Y-53230867D01*
X167060942Y-53220142D01*
X167071667Y-53210421D01*
X167083293Y-53201798D01*
X167095709Y-53194357D01*
X167108794Y-53188168D01*
X167122423Y-53183291D01*
X167136464Y-53179774D01*
X167150782Y-53177650D01*
X167165240Y-53176940D01*
X167510240Y-53176940D01*
X167524698Y-53177650D01*
X167524698Y-53177650D01*
G37*
D18*
X167337740Y-53471940D03*
D17*
G36*
X167524698Y-52207650D02*
G01*
X167539016Y-52209774D01*
X167553057Y-52213291D01*
X167566686Y-52218168D01*
X167579771Y-52224357D01*
X167592187Y-52231798D01*
X167603813Y-52240421D01*
X167614538Y-52250142D01*
X167624259Y-52260867D01*
X167632882Y-52272493D01*
X167640323Y-52284909D01*
X167646512Y-52297994D01*
X167651389Y-52311623D01*
X167654906Y-52325664D01*
X167657030Y-52339982D01*
X167657740Y-52354440D01*
X167657740Y-52649440D01*
X167657030Y-52663898D01*
X167654906Y-52678216D01*
X167651389Y-52692257D01*
X167646512Y-52705886D01*
X167640323Y-52718971D01*
X167632882Y-52731387D01*
X167624259Y-52743013D01*
X167614538Y-52753738D01*
X167603813Y-52763459D01*
X167592187Y-52772082D01*
X167579771Y-52779523D01*
X167566686Y-52785712D01*
X167553057Y-52790589D01*
X167539016Y-52794106D01*
X167524698Y-52796230D01*
X167510240Y-52796940D01*
X167165240Y-52796940D01*
X167150782Y-52796230D01*
X167136464Y-52794106D01*
X167122423Y-52790589D01*
X167108794Y-52785712D01*
X167095709Y-52779523D01*
X167083293Y-52772082D01*
X167071667Y-52763459D01*
X167060942Y-52753738D01*
X167051221Y-52743013D01*
X167042598Y-52731387D01*
X167035157Y-52718971D01*
X167028968Y-52705886D01*
X167024091Y-52692257D01*
X167020574Y-52678216D01*
X167018450Y-52663898D01*
X167017740Y-52649440D01*
X167017740Y-52354440D01*
X167018450Y-52339982D01*
X167020574Y-52325664D01*
X167024091Y-52311623D01*
X167028968Y-52297994D01*
X167035157Y-52284909D01*
X167042598Y-52272493D01*
X167051221Y-52260867D01*
X167060942Y-52250142D01*
X167071667Y-52240421D01*
X167083293Y-52231798D01*
X167095709Y-52224357D01*
X167108794Y-52218168D01*
X167122423Y-52213291D01*
X167136464Y-52209774D01*
X167150782Y-52207650D01*
X167165240Y-52206940D01*
X167510240Y-52206940D01*
X167524698Y-52207650D01*
X167524698Y-52207650D01*
G37*
D18*
X167337740Y-52501940D03*
D17*
G36*
X176843958Y-59129150D02*
G01*
X176858276Y-59131274D01*
X176872317Y-59134791D01*
X176885946Y-59139668D01*
X176899031Y-59145857D01*
X176911447Y-59153298D01*
X176923073Y-59161921D01*
X176933798Y-59171642D01*
X176943519Y-59182367D01*
X176952142Y-59193993D01*
X176959583Y-59206409D01*
X176965772Y-59219494D01*
X176970649Y-59233123D01*
X176974166Y-59247164D01*
X176976290Y-59261482D01*
X176977000Y-59275940D01*
X176977000Y-59570940D01*
X176976290Y-59585398D01*
X176974166Y-59599716D01*
X176970649Y-59613757D01*
X176965772Y-59627386D01*
X176959583Y-59640471D01*
X176952142Y-59652887D01*
X176943519Y-59664513D01*
X176933798Y-59675238D01*
X176923073Y-59684959D01*
X176911447Y-59693582D01*
X176899031Y-59701023D01*
X176885946Y-59707212D01*
X176872317Y-59712089D01*
X176858276Y-59715606D01*
X176843958Y-59717730D01*
X176829500Y-59718440D01*
X176484500Y-59718440D01*
X176470042Y-59717730D01*
X176455724Y-59715606D01*
X176441683Y-59712089D01*
X176428054Y-59707212D01*
X176414969Y-59701023D01*
X176402553Y-59693582D01*
X176390927Y-59684959D01*
X176380202Y-59675238D01*
X176370481Y-59664513D01*
X176361858Y-59652887D01*
X176354417Y-59640471D01*
X176348228Y-59627386D01*
X176343351Y-59613757D01*
X176339834Y-59599716D01*
X176337710Y-59585398D01*
X176337000Y-59570940D01*
X176337000Y-59275940D01*
X176337710Y-59261482D01*
X176339834Y-59247164D01*
X176343351Y-59233123D01*
X176348228Y-59219494D01*
X176354417Y-59206409D01*
X176361858Y-59193993D01*
X176370481Y-59182367D01*
X176380202Y-59171642D01*
X176390927Y-59161921D01*
X176402553Y-59153298D01*
X176414969Y-59145857D01*
X176428054Y-59139668D01*
X176441683Y-59134791D01*
X176455724Y-59131274D01*
X176470042Y-59129150D01*
X176484500Y-59128440D01*
X176829500Y-59128440D01*
X176843958Y-59129150D01*
X176843958Y-59129150D01*
G37*
D18*
X176657000Y-59423440D03*
D17*
G36*
X176843958Y-60099150D02*
G01*
X176858276Y-60101274D01*
X176872317Y-60104791D01*
X176885946Y-60109668D01*
X176899031Y-60115857D01*
X176911447Y-60123298D01*
X176923073Y-60131921D01*
X176933798Y-60141642D01*
X176943519Y-60152367D01*
X176952142Y-60163993D01*
X176959583Y-60176409D01*
X176965772Y-60189494D01*
X176970649Y-60203123D01*
X176974166Y-60217164D01*
X176976290Y-60231482D01*
X176977000Y-60245940D01*
X176977000Y-60540940D01*
X176976290Y-60555398D01*
X176974166Y-60569716D01*
X176970649Y-60583757D01*
X176965772Y-60597386D01*
X176959583Y-60610471D01*
X176952142Y-60622887D01*
X176943519Y-60634513D01*
X176933798Y-60645238D01*
X176923073Y-60654959D01*
X176911447Y-60663582D01*
X176899031Y-60671023D01*
X176885946Y-60677212D01*
X176872317Y-60682089D01*
X176858276Y-60685606D01*
X176843958Y-60687730D01*
X176829500Y-60688440D01*
X176484500Y-60688440D01*
X176470042Y-60687730D01*
X176455724Y-60685606D01*
X176441683Y-60682089D01*
X176428054Y-60677212D01*
X176414969Y-60671023D01*
X176402553Y-60663582D01*
X176390927Y-60654959D01*
X176380202Y-60645238D01*
X176370481Y-60634513D01*
X176361858Y-60622887D01*
X176354417Y-60610471D01*
X176348228Y-60597386D01*
X176343351Y-60583757D01*
X176339834Y-60569716D01*
X176337710Y-60555398D01*
X176337000Y-60540940D01*
X176337000Y-60245940D01*
X176337710Y-60231482D01*
X176339834Y-60217164D01*
X176343351Y-60203123D01*
X176348228Y-60189494D01*
X176354417Y-60176409D01*
X176361858Y-60163993D01*
X176370481Y-60152367D01*
X176380202Y-60141642D01*
X176390927Y-60131921D01*
X176402553Y-60123298D01*
X176414969Y-60115857D01*
X176428054Y-60109668D01*
X176441683Y-60104791D01*
X176455724Y-60101274D01*
X176470042Y-60099150D01*
X176484500Y-60098440D01*
X176829500Y-60098440D01*
X176843958Y-60099150D01*
X176843958Y-60099150D01*
G37*
D18*
X176657000Y-60393440D03*
D17*
G36*
X173318698Y-56604650D02*
G01*
X173333016Y-56606774D01*
X173347057Y-56610291D01*
X173360686Y-56615168D01*
X173373771Y-56621357D01*
X173386187Y-56628798D01*
X173397813Y-56637421D01*
X173408538Y-56647142D01*
X173418259Y-56657867D01*
X173426882Y-56669493D01*
X173434323Y-56681909D01*
X173440512Y-56694994D01*
X173445389Y-56708623D01*
X173448906Y-56722664D01*
X173451030Y-56736982D01*
X173451740Y-56751440D01*
X173451740Y-57096440D01*
X173451030Y-57110898D01*
X173448906Y-57125216D01*
X173445389Y-57139257D01*
X173440512Y-57152886D01*
X173434323Y-57165971D01*
X173426882Y-57178387D01*
X173418259Y-57190013D01*
X173408538Y-57200738D01*
X173397813Y-57210459D01*
X173386187Y-57219082D01*
X173373771Y-57226523D01*
X173360686Y-57232712D01*
X173347057Y-57237589D01*
X173333016Y-57241106D01*
X173318698Y-57243230D01*
X173304240Y-57243940D01*
X173009240Y-57243940D01*
X172994782Y-57243230D01*
X172980464Y-57241106D01*
X172966423Y-57237589D01*
X172952794Y-57232712D01*
X172939709Y-57226523D01*
X172927293Y-57219082D01*
X172915667Y-57210459D01*
X172904942Y-57200738D01*
X172895221Y-57190013D01*
X172886598Y-57178387D01*
X172879157Y-57165971D01*
X172872968Y-57152886D01*
X172868091Y-57139257D01*
X172864574Y-57125216D01*
X172862450Y-57110898D01*
X172861740Y-57096440D01*
X172861740Y-56751440D01*
X172862450Y-56736982D01*
X172864574Y-56722664D01*
X172868091Y-56708623D01*
X172872968Y-56694994D01*
X172879157Y-56681909D01*
X172886598Y-56669493D01*
X172895221Y-56657867D01*
X172904942Y-56647142D01*
X172915667Y-56637421D01*
X172927293Y-56628798D01*
X172939709Y-56621357D01*
X172952794Y-56615168D01*
X172966423Y-56610291D01*
X172980464Y-56606774D01*
X172994782Y-56604650D01*
X173009240Y-56603940D01*
X173304240Y-56603940D01*
X173318698Y-56604650D01*
X173318698Y-56604650D01*
G37*
D18*
X173156740Y-56923940D03*
D17*
G36*
X172348698Y-56604650D02*
G01*
X172363016Y-56606774D01*
X172377057Y-56610291D01*
X172390686Y-56615168D01*
X172403771Y-56621357D01*
X172416187Y-56628798D01*
X172427813Y-56637421D01*
X172438538Y-56647142D01*
X172448259Y-56657867D01*
X172456882Y-56669493D01*
X172464323Y-56681909D01*
X172470512Y-56694994D01*
X172475389Y-56708623D01*
X172478906Y-56722664D01*
X172481030Y-56736982D01*
X172481740Y-56751440D01*
X172481740Y-57096440D01*
X172481030Y-57110898D01*
X172478906Y-57125216D01*
X172475389Y-57139257D01*
X172470512Y-57152886D01*
X172464323Y-57165971D01*
X172456882Y-57178387D01*
X172448259Y-57190013D01*
X172438538Y-57200738D01*
X172427813Y-57210459D01*
X172416187Y-57219082D01*
X172403771Y-57226523D01*
X172390686Y-57232712D01*
X172377057Y-57237589D01*
X172363016Y-57241106D01*
X172348698Y-57243230D01*
X172334240Y-57243940D01*
X172039240Y-57243940D01*
X172024782Y-57243230D01*
X172010464Y-57241106D01*
X171996423Y-57237589D01*
X171982794Y-57232712D01*
X171969709Y-57226523D01*
X171957293Y-57219082D01*
X171945667Y-57210459D01*
X171934942Y-57200738D01*
X171925221Y-57190013D01*
X171916598Y-57178387D01*
X171909157Y-57165971D01*
X171902968Y-57152886D01*
X171898091Y-57139257D01*
X171894574Y-57125216D01*
X171892450Y-57110898D01*
X171891740Y-57096440D01*
X171891740Y-56751440D01*
X171892450Y-56736982D01*
X171894574Y-56722664D01*
X171898091Y-56708623D01*
X171902968Y-56694994D01*
X171909157Y-56681909D01*
X171916598Y-56669493D01*
X171925221Y-56657867D01*
X171934942Y-56647142D01*
X171945667Y-56637421D01*
X171957293Y-56628798D01*
X171969709Y-56621357D01*
X171982794Y-56615168D01*
X171996423Y-56610291D01*
X172010464Y-56606774D01*
X172024782Y-56604650D01*
X172039240Y-56603940D01*
X172334240Y-56603940D01*
X172348698Y-56604650D01*
X172348698Y-56604650D01*
G37*
D18*
X172186740Y-56923940D03*
D17*
G36*
X173318698Y-59144650D02*
G01*
X173333016Y-59146774D01*
X173347057Y-59150291D01*
X173360686Y-59155168D01*
X173373771Y-59161357D01*
X173386187Y-59168798D01*
X173397813Y-59177421D01*
X173408538Y-59187142D01*
X173418259Y-59197867D01*
X173426882Y-59209493D01*
X173434323Y-59221909D01*
X173440512Y-59234994D01*
X173445389Y-59248623D01*
X173448906Y-59262664D01*
X173451030Y-59276982D01*
X173451740Y-59291440D01*
X173451740Y-59636440D01*
X173451030Y-59650898D01*
X173448906Y-59665216D01*
X173445389Y-59679257D01*
X173440512Y-59692886D01*
X173434323Y-59705971D01*
X173426882Y-59718387D01*
X173418259Y-59730013D01*
X173408538Y-59740738D01*
X173397813Y-59750459D01*
X173386187Y-59759082D01*
X173373771Y-59766523D01*
X173360686Y-59772712D01*
X173347057Y-59777589D01*
X173333016Y-59781106D01*
X173318698Y-59783230D01*
X173304240Y-59783940D01*
X173009240Y-59783940D01*
X172994782Y-59783230D01*
X172980464Y-59781106D01*
X172966423Y-59777589D01*
X172952794Y-59772712D01*
X172939709Y-59766523D01*
X172927293Y-59759082D01*
X172915667Y-59750459D01*
X172904942Y-59740738D01*
X172895221Y-59730013D01*
X172886598Y-59718387D01*
X172879157Y-59705971D01*
X172872968Y-59692886D01*
X172868091Y-59679257D01*
X172864574Y-59665216D01*
X172862450Y-59650898D01*
X172861740Y-59636440D01*
X172861740Y-59291440D01*
X172862450Y-59276982D01*
X172864574Y-59262664D01*
X172868091Y-59248623D01*
X172872968Y-59234994D01*
X172879157Y-59221909D01*
X172886598Y-59209493D01*
X172895221Y-59197867D01*
X172904942Y-59187142D01*
X172915667Y-59177421D01*
X172927293Y-59168798D01*
X172939709Y-59161357D01*
X172952794Y-59155168D01*
X172966423Y-59150291D01*
X172980464Y-59146774D01*
X172994782Y-59144650D01*
X173009240Y-59143940D01*
X173304240Y-59143940D01*
X173318698Y-59144650D01*
X173318698Y-59144650D01*
G37*
D18*
X173156740Y-59463940D03*
D17*
G36*
X172348698Y-59144650D02*
G01*
X172363016Y-59146774D01*
X172377057Y-59150291D01*
X172390686Y-59155168D01*
X172403771Y-59161357D01*
X172416187Y-59168798D01*
X172427813Y-59177421D01*
X172438538Y-59187142D01*
X172448259Y-59197867D01*
X172456882Y-59209493D01*
X172464323Y-59221909D01*
X172470512Y-59234994D01*
X172475389Y-59248623D01*
X172478906Y-59262664D01*
X172481030Y-59276982D01*
X172481740Y-59291440D01*
X172481740Y-59636440D01*
X172481030Y-59650898D01*
X172478906Y-59665216D01*
X172475389Y-59679257D01*
X172470512Y-59692886D01*
X172464323Y-59705971D01*
X172456882Y-59718387D01*
X172448259Y-59730013D01*
X172438538Y-59740738D01*
X172427813Y-59750459D01*
X172416187Y-59759082D01*
X172403771Y-59766523D01*
X172390686Y-59772712D01*
X172377057Y-59777589D01*
X172363016Y-59781106D01*
X172348698Y-59783230D01*
X172334240Y-59783940D01*
X172039240Y-59783940D01*
X172024782Y-59783230D01*
X172010464Y-59781106D01*
X171996423Y-59777589D01*
X171982794Y-59772712D01*
X171969709Y-59766523D01*
X171957293Y-59759082D01*
X171945667Y-59750459D01*
X171934942Y-59740738D01*
X171925221Y-59730013D01*
X171916598Y-59718387D01*
X171909157Y-59705971D01*
X171902968Y-59692886D01*
X171898091Y-59679257D01*
X171894574Y-59665216D01*
X171892450Y-59650898D01*
X171891740Y-59636440D01*
X171891740Y-59291440D01*
X171892450Y-59276982D01*
X171894574Y-59262664D01*
X171898091Y-59248623D01*
X171902968Y-59234994D01*
X171909157Y-59221909D01*
X171916598Y-59209493D01*
X171925221Y-59197867D01*
X171934942Y-59187142D01*
X171945667Y-59177421D01*
X171957293Y-59168798D01*
X171969709Y-59161357D01*
X171982794Y-59155168D01*
X171996423Y-59150291D01*
X172010464Y-59146774D01*
X172024782Y-59144650D01*
X172039240Y-59143940D01*
X172334240Y-59143940D01*
X172348698Y-59144650D01*
X172348698Y-59144650D01*
G37*
D18*
X172186740Y-59463940D03*
D17*
G36*
X173318698Y-57874650D02*
G01*
X173333016Y-57876774D01*
X173347057Y-57880291D01*
X173360686Y-57885168D01*
X173373771Y-57891357D01*
X173386187Y-57898798D01*
X173397813Y-57907421D01*
X173408538Y-57917142D01*
X173418259Y-57927867D01*
X173426882Y-57939493D01*
X173434323Y-57951909D01*
X173440512Y-57964994D01*
X173445389Y-57978623D01*
X173448906Y-57992664D01*
X173451030Y-58006982D01*
X173451740Y-58021440D01*
X173451740Y-58366440D01*
X173451030Y-58380898D01*
X173448906Y-58395216D01*
X173445389Y-58409257D01*
X173440512Y-58422886D01*
X173434323Y-58435971D01*
X173426882Y-58448387D01*
X173418259Y-58460013D01*
X173408538Y-58470738D01*
X173397813Y-58480459D01*
X173386187Y-58489082D01*
X173373771Y-58496523D01*
X173360686Y-58502712D01*
X173347057Y-58507589D01*
X173333016Y-58511106D01*
X173318698Y-58513230D01*
X173304240Y-58513940D01*
X173009240Y-58513940D01*
X172994782Y-58513230D01*
X172980464Y-58511106D01*
X172966423Y-58507589D01*
X172952794Y-58502712D01*
X172939709Y-58496523D01*
X172927293Y-58489082D01*
X172915667Y-58480459D01*
X172904942Y-58470738D01*
X172895221Y-58460013D01*
X172886598Y-58448387D01*
X172879157Y-58435971D01*
X172872968Y-58422886D01*
X172868091Y-58409257D01*
X172864574Y-58395216D01*
X172862450Y-58380898D01*
X172861740Y-58366440D01*
X172861740Y-58021440D01*
X172862450Y-58006982D01*
X172864574Y-57992664D01*
X172868091Y-57978623D01*
X172872968Y-57964994D01*
X172879157Y-57951909D01*
X172886598Y-57939493D01*
X172895221Y-57927867D01*
X172904942Y-57917142D01*
X172915667Y-57907421D01*
X172927293Y-57898798D01*
X172939709Y-57891357D01*
X172952794Y-57885168D01*
X172966423Y-57880291D01*
X172980464Y-57876774D01*
X172994782Y-57874650D01*
X173009240Y-57873940D01*
X173304240Y-57873940D01*
X173318698Y-57874650D01*
X173318698Y-57874650D01*
G37*
D18*
X173156740Y-58193940D03*
D17*
G36*
X172348698Y-57874650D02*
G01*
X172363016Y-57876774D01*
X172377057Y-57880291D01*
X172390686Y-57885168D01*
X172403771Y-57891357D01*
X172416187Y-57898798D01*
X172427813Y-57907421D01*
X172438538Y-57917142D01*
X172448259Y-57927867D01*
X172456882Y-57939493D01*
X172464323Y-57951909D01*
X172470512Y-57964994D01*
X172475389Y-57978623D01*
X172478906Y-57992664D01*
X172481030Y-58006982D01*
X172481740Y-58021440D01*
X172481740Y-58366440D01*
X172481030Y-58380898D01*
X172478906Y-58395216D01*
X172475389Y-58409257D01*
X172470512Y-58422886D01*
X172464323Y-58435971D01*
X172456882Y-58448387D01*
X172448259Y-58460013D01*
X172438538Y-58470738D01*
X172427813Y-58480459D01*
X172416187Y-58489082D01*
X172403771Y-58496523D01*
X172390686Y-58502712D01*
X172377057Y-58507589D01*
X172363016Y-58511106D01*
X172348698Y-58513230D01*
X172334240Y-58513940D01*
X172039240Y-58513940D01*
X172024782Y-58513230D01*
X172010464Y-58511106D01*
X171996423Y-58507589D01*
X171982794Y-58502712D01*
X171969709Y-58496523D01*
X171957293Y-58489082D01*
X171945667Y-58480459D01*
X171934942Y-58470738D01*
X171925221Y-58460013D01*
X171916598Y-58448387D01*
X171909157Y-58435971D01*
X171902968Y-58422886D01*
X171898091Y-58409257D01*
X171894574Y-58395216D01*
X171892450Y-58380898D01*
X171891740Y-58366440D01*
X171891740Y-58021440D01*
X171892450Y-58006982D01*
X171894574Y-57992664D01*
X171898091Y-57978623D01*
X171902968Y-57964994D01*
X171909157Y-57951909D01*
X171916598Y-57939493D01*
X171925221Y-57927867D01*
X171934942Y-57917142D01*
X171945667Y-57907421D01*
X171957293Y-57898798D01*
X171969709Y-57891357D01*
X171982794Y-57885168D01*
X171996423Y-57880291D01*
X172010464Y-57876774D01*
X172024782Y-57874650D01*
X172039240Y-57873940D01*
X172334240Y-57873940D01*
X172348698Y-57874650D01*
X172348698Y-57874650D01*
G37*
D18*
X172186740Y-58193940D03*
D17*
G36*
X175604698Y-59144650D02*
G01*
X175619016Y-59146774D01*
X175633057Y-59150291D01*
X175646686Y-59155168D01*
X175659771Y-59161357D01*
X175672187Y-59168798D01*
X175683813Y-59177421D01*
X175694538Y-59187142D01*
X175704259Y-59197867D01*
X175712882Y-59209493D01*
X175720323Y-59221909D01*
X175726512Y-59234994D01*
X175731389Y-59248623D01*
X175734906Y-59262664D01*
X175737030Y-59276982D01*
X175737740Y-59291440D01*
X175737740Y-59636440D01*
X175737030Y-59650898D01*
X175734906Y-59665216D01*
X175731389Y-59679257D01*
X175726512Y-59692886D01*
X175720323Y-59705971D01*
X175712882Y-59718387D01*
X175704259Y-59730013D01*
X175694538Y-59740738D01*
X175683813Y-59750459D01*
X175672187Y-59759082D01*
X175659771Y-59766523D01*
X175646686Y-59772712D01*
X175633057Y-59777589D01*
X175619016Y-59781106D01*
X175604698Y-59783230D01*
X175590240Y-59783940D01*
X175295240Y-59783940D01*
X175280782Y-59783230D01*
X175266464Y-59781106D01*
X175252423Y-59777589D01*
X175238794Y-59772712D01*
X175225709Y-59766523D01*
X175213293Y-59759082D01*
X175201667Y-59750459D01*
X175190942Y-59740738D01*
X175181221Y-59730013D01*
X175172598Y-59718387D01*
X175165157Y-59705971D01*
X175158968Y-59692886D01*
X175154091Y-59679257D01*
X175150574Y-59665216D01*
X175148450Y-59650898D01*
X175147740Y-59636440D01*
X175147740Y-59291440D01*
X175148450Y-59276982D01*
X175150574Y-59262664D01*
X175154091Y-59248623D01*
X175158968Y-59234994D01*
X175165157Y-59221909D01*
X175172598Y-59209493D01*
X175181221Y-59197867D01*
X175190942Y-59187142D01*
X175201667Y-59177421D01*
X175213293Y-59168798D01*
X175225709Y-59161357D01*
X175238794Y-59155168D01*
X175252423Y-59150291D01*
X175266464Y-59146774D01*
X175280782Y-59144650D01*
X175295240Y-59143940D01*
X175590240Y-59143940D01*
X175604698Y-59144650D01*
X175604698Y-59144650D01*
G37*
D18*
X175442740Y-59463940D03*
D17*
G36*
X174634698Y-59144650D02*
G01*
X174649016Y-59146774D01*
X174663057Y-59150291D01*
X174676686Y-59155168D01*
X174689771Y-59161357D01*
X174702187Y-59168798D01*
X174713813Y-59177421D01*
X174724538Y-59187142D01*
X174734259Y-59197867D01*
X174742882Y-59209493D01*
X174750323Y-59221909D01*
X174756512Y-59234994D01*
X174761389Y-59248623D01*
X174764906Y-59262664D01*
X174767030Y-59276982D01*
X174767740Y-59291440D01*
X174767740Y-59636440D01*
X174767030Y-59650898D01*
X174764906Y-59665216D01*
X174761389Y-59679257D01*
X174756512Y-59692886D01*
X174750323Y-59705971D01*
X174742882Y-59718387D01*
X174734259Y-59730013D01*
X174724538Y-59740738D01*
X174713813Y-59750459D01*
X174702187Y-59759082D01*
X174689771Y-59766523D01*
X174676686Y-59772712D01*
X174663057Y-59777589D01*
X174649016Y-59781106D01*
X174634698Y-59783230D01*
X174620240Y-59783940D01*
X174325240Y-59783940D01*
X174310782Y-59783230D01*
X174296464Y-59781106D01*
X174282423Y-59777589D01*
X174268794Y-59772712D01*
X174255709Y-59766523D01*
X174243293Y-59759082D01*
X174231667Y-59750459D01*
X174220942Y-59740738D01*
X174211221Y-59730013D01*
X174202598Y-59718387D01*
X174195157Y-59705971D01*
X174188968Y-59692886D01*
X174184091Y-59679257D01*
X174180574Y-59665216D01*
X174178450Y-59650898D01*
X174177740Y-59636440D01*
X174177740Y-59291440D01*
X174178450Y-59276982D01*
X174180574Y-59262664D01*
X174184091Y-59248623D01*
X174188968Y-59234994D01*
X174195157Y-59221909D01*
X174202598Y-59209493D01*
X174211221Y-59197867D01*
X174220942Y-59187142D01*
X174231667Y-59177421D01*
X174243293Y-59168798D01*
X174255709Y-59161357D01*
X174268794Y-59155168D01*
X174282423Y-59150291D01*
X174296464Y-59146774D01*
X174310782Y-59144650D01*
X174325240Y-59143940D01*
X174620240Y-59143940D01*
X174634698Y-59144650D01*
X174634698Y-59144650D01*
G37*
D18*
X174472740Y-59463940D03*
D17*
G36*
X180748198Y-55941710D02*
G01*
X180762516Y-55943834D01*
X180776557Y-55947351D01*
X180790186Y-55952228D01*
X180803271Y-55958417D01*
X180815687Y-55965858D01*
X180827313Y-55974481D01*
X180838038Y-55984202D01*
X180847759Y-55994927D01*
X180856382Y-56006553D01*
X180863823Y-56018969D01*
X180870012Y-56032054D01*
X180874889Y-56045683D01*
X180878406Y-56059724D01*
X180880530Y-56074042D01*
X180881240Y-56088500D01*
X180881240Y-56433500D01*
X180880530Y-56447958D01*
X180878406Y-56462276D01*
X180874889Y-56476317D01*
X180870012Y-56489946D01*
X180863823Y-56503031D01*
X180856382Y-56515447D01*
X180847759Y-56527073D01*
X180838038Y-56537798D01*
X180827313Y-56547519D01*
X180815687Y-56556142D01*
X180803271Y-56563583D01*
X180790186Y-56569772D01*
X180776557Y-56574649D01*
X180762516Y-56578166D01*
X180748198Y-56580290D01*
X180733740Y-56581000D01*
X180438740Y-56581000D01*
X180424282Y-56580290D01*
X180409964Y-56578166D01*
X180395923Y-56574649D01*
X180382294Y-56569772D01*
X180369209Y-56563583D01*
X180356793Y-56556142D01*
X180345167Y-56547519D01*
X180334442Y-56537798D01*
X180324721Y-56527073D01*
X180316098Y-56515447D01*
X180308657Y-56503031D01*
X180302468Y-56489946D01*
X180297591Y-56476317D01*
X180294074Y-56462276D01*
X180291950Y-56447958D01*
X180291240Y-56433500D01*
X180291240Y-56088500D01*
X180291950Y-56074042D01*
X180294074Y-56059724D01*
X180297591Y-56045683D01*
X180302468Y-56032054D01*
X180308657Y-56018969D01*
X180316098Y-56006553D01*
X180324721Y-55994927D01*
X180334442Y-55984202D01*
X180345167Y-55974481D01*
X180356793Y-55965858D01*
X180369209Y-55958417D01*
X180382294Y-55952228D01*
X180395923Y-55947351D01*
X180409964Y-55943834D01*
X180424282Y-55941710D01*
X180438740Y-55941000D01*
X180733740Y-55941000D01*
X180748198Y-55941710D01*
X180748198Y-55941710D01*
G37*
D18*
X180586240Y-56261000D03*
D17*
G36*
X179778198Y-55941710D02*
G01*
X179792516Y-55943834D01*
X179806557Y-55947351D01*
X179820186Y-55952228D01*
X179833271Y-55958417D01*
X179845687Y-55965858D01*
X179857313Y-55974481D01*
X179868038Y-55984202D01*
X179877759Y-55994927D01*
X179886382Y-56006553D01*
X179893823Y-56018969D01*
X179900012Y-56032054D01*
X179904889Y-56045683D01*
X179908406Y-56059724D01*
X179910530Y-56074042D01*
X179911240Y-56088500D01*
X179911240Y-56433500D01*
X179910530Y-56447958D01*
X179908406Y-56462276D01*
X179904889Y-56476317D01*
X179900012Y-56489946D01*
X179893823Y-56503031D01*
X179886382Y-56515447D01*
X179877759Y-56527073D01*
X179868038Y-56537798D01*
X179857313Y-56547519D01*
X179845687Y-56556142D01*
X179833271Y-56563583D01*
X179820186Y-56569772D01*
X179806557Y-56574649D01*
X179792516Y-56578166D01*
X179778198Y-56580290D01*
X179763740Y-56581000D01*
X179468740Y-56581000D01*
X179454282Y-56580290D01*
X179439964Y-56578166D01*
X179425923Y-56574649D01*
X179412294Y-56569772D01*
X179399209Y-56563583D01*
X179386793Y-56556142D01*
X179375167Y-56547519D01*
X179364442Y-56537798D01*
X179354721Y-56527073D01*
X179346098Y-56515447D01*
X179338657Y-56503031D01*
X179332468Y-56489946D01*
X179327591Y-56476317D01*
X179324074Y-56462276D01*
X179321950Y-56447958D01*
X179321240Y-56433500D01*
X179321240Y-56088500D01*
X179321950Y-56074042D01*
X179324074Y-56059724D01*
X179327591Y-56045683D01*
X179332468Y-56032054D01*
X179338657Y-56018969D01*
X179346098Y-56006553D01*
X179354721Y-55994927D01*
X179364442Y-55984202D01*
X179375167Y-55974481D01*
X179386793Y-55965858D01*
X179399209Y-55958417D01*
X179412294Y-55952228D01*
X179425923Y-55947351D01*
X179439964Y-55943834D01*
X179454282Y-55941710D01*
X179468740Y-55941000D01*
X179763740Y-55941000D01*
X179778198Y-55941710D01*
X179778198Y-55941710D01*
G37*
D18*
X179616240Y-56261000D03*
D17*
G36*
X180984698Y-47270150D02*
G01*
X180999016Y-47272274D01*
X181013057Y-47275791D01*
X181026686Y-47280668D01*
X181039771Y-47286857D01*
X181052187Y-47294298D01*
X181063813Y-47302921D01*
X181074538Y-47312642D01*
X181084259Y-47323367D01*
X181092882Y-47334993D01*
X181100323Y-47347409D01*
X181106512Y-47360494D01*
X181111389Y-47374123D01*
X181114906Y-47388164D01*
X181117030Y-47402482D01*
X181117740Y-47416940D01*
X181117740Y-47761940D01*
X181117030Y-47776398D01*
X181114906Y-47790716D01*
X181111389Y-47804757D01*
X181106512Y-47818386D01*
X181100323Y-47831471D01*
X181092882Y-47843887D01*
X181084259Y-47855513D01*
X181074538Y-47866238D01*
X181063813Y-47875959D01*
X181052187Y-47884582D01*
X181039771Y-47892023D01*
X181026686Y-47898212D01*
X181013057Y-47903089D01*
X180999016Y-47906606D01*
X180984698Y-47908730D01*
X180970240Y-47909440D01*
X180675240Y-47909440D01*
X180660782Y-47908730D01*
X180646464Y-47906606D01*
X180632423Y-47903089D01*
X180618794Y-47898212D01*
X180605709Y-47892023D01*
X180593293Y-47884582D01*
X180581667Y-47875959D01*
X180570942Y-47866238D01*
X180561221Y-47855513D01*
X180552598Y-47843887D01*
X180545157Y-47831471D01*
X180538968Y-47818386D01*
X180534091Y-47804757D01*
X180530574Y-47790716D01*
X180528450Y-47776398D01*
X180527740Y-47761940D01*
X180527740Y-47416940D01*
X180528450Y-47402482D01*
X180530574Y-47388164D01*
X180534091Y-47374123D01*
X180538968Y-47360494D01*
X180545157Y-47347409D01*
X180552598Y-47334993D01*
X180561221Y-47323367D01*
X180570942Y-47312642D01*
X180581667Y-47302921D01*
X180593293Y-47294298D01*
X180605709Y-47286857D01*
X180618794Y-47280668D01*
X180632423Y-47275791D01*
X180646464Y-47272274D01*
X180660782Y-47270150D01*
X180675240Y-47269440D01*
X180970240Y-47269440D01*
X180984698Y-47270150D01*
X180984698Y-47270150D01*
G37*
D18*
X180822740Y-47589440D03*
D17*
G36*
X181954698Y-47270150D02*
G01*
X181969016Y-47272274D01*
X181983057Y-47275791D01*
X181996686Y-47280668D01*
X182009771Y-47286857D01*
X182022187Y-47294298D01*
X182033813Y-47302921D01*
X182044538Y-47312642D01*
X182054259Y-47323367D01*
X182062882Y-47334993D01*
X182070323Y-47347409D01*
X182076512Y-47360494D01*
X182081389Y-47374123D01*
X182084906Y-47388164D01*
X182087030Y-47402482D01*
X182087740Y-47416940D01*
X182087740Y-47761940D01*
X182087030Y-47776398D01*
X182084906Y-47790716D01*
X182081389Y-47804757D01*
X182076512Y-47818386D01*
X182070323Y-47831471D01*
X182062882Y-47843887D01*
X182054259Y-47855513D01*
X182044538Y-47866238D01*
X182033813Y-47875959D01*
X182022187Y-47884582D01*
X182009771Y-47892023D01*
X181996686Y-47898212D01*
X181983057Y-47903089D01*
X181969016Y-47906606D01*
X181954698Y-47908730D01*
X181940240Y-47909440D01*
X181645240Y-47909440D01*
X181630782Y-47908730D01*
X181616464Y-47906606D01*
X181602423Y-47903089D01*
X181588794Y-47898212D01*
X181575709Y-47892023D01*
X181563293Y-47884582D01*
X181551667Y-47875959D01*
X181540942Y-47866238D01*
X181531221Y-47855513D01*
X181522598Y-47843887D01*
X181515157Y-47831471D01*
X181508968Y-47818386D01*
X181504091Y-47804757D01*
X181500574Y-47790716D01*
X181498450Y-47776398D01*
X181497740Y-47761940D01*
X181497740Y-47416940D01*
X181498450Y-47402482D01*
X181500574Y-47388164D01*
X181504091Y-47374123D01*
X181508968Y-47360494D01*
X181515157Y-47347409D01*
X181522598Y-47334993D01*
X181531221Y-47323367D01*
X181540942Y-47312642D01*
X181551667Y-47302921D01*
X181563293Y-47294298D01*
X181575709Y-47286857D01*
X181588794Y-47280668D01*
X181602423Y-47275791D01*
X181616464Y-47272274D01*
X181630782Y-47270150D01*
X181645240Y-47269440D01*
X181940240Y-47269440D01*
X181954698Y-47270150D01*
X181954698Y-47270150D01*
G37*
D18*
X181792740Y-47589440D03*
D17*
G36*
X169747198Y-59383150D02*
G01*
X169761516Y-59385274D01*
X169775557Y-59388791D01*
X169789186Y-59393668D01*
X169802271Y-59399857D01*
X169814687Y-59407298D01*
X169826313Y-59415921D01*
X169837038Y-59425642D01*
X169846759Y-59436367D01*
X169855382Y-59447993D01*
X169862823Y-59460409D01*
X169869012Y-59473494D01*
X169873889Y-59487123D01*
X169877406Y-59501164D01*
X169879530Y-59515482D01*
X169880240Y-59529940D01*
X169880240Y-59824940D01*
X169879530Y-59839398D01*
X169877406Y-59853716D01*
X169873889Y-59867757D01*
X169869012Y-59881386D01*
X169862823Y-59894471D01*
X169855382Y-59906887D01*
X169846759Y-59918513D01*
X169837038Y-59929238D01*
X169826313Y-59938959D01*
X169814687Y-59947582D01*
X169802271Y-59955023D01*
X169789186Y-59961212D01*
X169775557Y-59966089D01*
X169761516Y-59969606D01*
X169747198Y-59971730D01*
X169732740Y-59972440D01*
X169387740Y-59972440D01*
X169373282Y-59971730D01*
X169358964Y-59969606D01*
X169344923Y-59966089D01*
X169331294Y-59961212D01*
X169318209Y-59955023D01*
X169305793Y-59947582D01*
X169294167Y-59938959D01*
X169283442Y-59929238D01*
X169273721Y-59918513D01*
X169265098Y-59906887D01*
X169257657Y-59894471D01*
X169251468Y-59881386D01*
X169246591Y-59867757D01*
X169243074Y-59853716D01*
X169240950Y-59839398D01*
X169240240Y-59824940D01*
X169240240Y-59529940D01*
X169240950Y-59515482D01*
X169243074Y-59501164D01*
X169246591Y-59487123D01*
X169251468Y-59473494D01*
X169257657Y-59460409D01*
X169265098Y-59447993D01*
X169273721Y-59436367D01*
X169283442Y-59425642D01*
X169294167Y-59415921D01*
X169305793Y-59407298D01*
X169318209Y-59399857D01*
X169331294Y-59393668D01*
X169344923Y-59388791D01*
X169358964Y-59385274D01*
X169373282Y-59383150D01*
X169387740Y-59382440D01*
X169732740Y-59382440D01*
X169747198Y-59383150D01*
X169747198Y-59383150D01*
G37*
D18*
X169560240Y-59677440D03*
D17*
G36*
X169747198Y-60353150D02*
G01*
X169761516Y-60355274D01*
X169775557Y-60358791D01*
X169789186Y-60363668D01*
X169802271Y-60369857D01*
X169814687Y-60377298D01*
X169826313Y-60385921D01*
X169837038Y-60395642D01*
X169846759Y-60406367D01*
X169855382Y-60417993D01*
X169862823Y-60430409D01*
X169869012Y-60443494D01*
X169873889Y-60457123D01*
X169877406Y-60471164D01*
X169879530Y-60485482D01*
X169880240Y-60499940D01*
X169880240Y-60794940D01*
X169879530Y-60809398D01*
X169877406Y-60823716D01*
X169873889Y-60837757D01*
X169869012Y-60851386D01*
X169862823Y-60864471D01*
X169855382Y-60876887D01*
X169846759Y-60888513D01*
X169837038Y-60899238D01*
X169826313Y-60908959D01*
X169814687Y-60917582D01*
X169802271Y-60925023D01*
X169789186Y-60931212D01*
X169775557Y-60936089D01*
X169761516Y-60939606D01*
X169747198Y-60941730D01*
X169732740Y-60942440D01*
X169387740Y-60942440D01*
X169373282Y-60941730D01*
X169358964Y-60939606D01*
X169344923Y-60936089D01*
X169331294Y-60931212D01*
X169318209Y-60925023D01*
X169305793Y-60917582D01*
X169294167Y-60908959D01*
X169283442Y-60899238D01*
X169273721Y-60888513D01*
X169265098Y-60876887D01*
X169257657Y-60864471D01*
X169251468Y-60851386D01*
X169246591Y-60837757D01*
X169243074Y-60823716D01*
X169240950Y-60809398D01*
X169240240Y-60794940D01*
X169240240Y-60499940D01*
X169240950Y-60485482D01*
X169243074Y-60471164D01*
X169246591Y-60457123D01*
X169251468Y-60443494D01*
X169257657Y-60430409D01*
X169265098Y-60417993D01*
X169273721Y-60406367D01*
X169283442Y-60395642D01*
X169294167Y-60385921D01*
X169305793Y-60377298D01*
X169318209Y-60369857D01*
X169331294Y-60363668D01*
X169344923Y-60358791D01*
X169358964Y-60355274D01*
X169373282Y-60353150D01*
X169387740Y-60352440D01*
X169732740Y-60352440D01*
X169747198Y-60353150D01*
X169747198Y-60353150D01*
G37*
D18*
X169560240Y-60647440D03*
D17*
G36*
X172348698Y-55588650D02*
G01*
X172363016Y-55590774D01*
X172377057Y-55594291D01*
X172390686Y-55599168D01*
X172403771Y-55605357D01*
X172416187Y-55612798D01*
X172427813Y-55621421D01*
X172438538Y-55631142D01*
X172448259Y-55641867D01*
X172456882Y-55653493D01*
X172464323Y-55665909D01*
X172470512Y-55678994D01*
X172475389Y-55692623D01*
X172478906Y-55706664D01*
X172481030Y-55720982D01*
X172481740Y-55735440D01*
X172481740Y-56080440D01*
X172481030Y-56094898D01*
X172478906Y-56109216D01*
X172475389Y-56123257D01*
X172470512Y-56136886D01*
X172464323Y-56149971D01*
X172456882Y-56162387D01*
X172448259Y-56174013D01*
X172438538Y-56184738D01*
X172427813Y-56194459D01*
X172416187Y-56203082D01*
X172403771Y-56210523D01*
X172390686Y-56216712D01*
X172377057Y-56221589D01*
X172363016Y-56225106D01*
X172348698Y-56227230D01*
X172334240Y-56227940D01*
X172039240Y-56227940D01*
X172024782Y-56227230D01*
X172010464Y-56225106D01*
X171996423Y-56221589D01*
X171982794Y-56216712D01*
X171969709Y-56210523D01*
X171957293Y-56203082D01*
X171945667Y-56194459D01*
X171934942Y-56184738D01*
X171925221Y-56174013D01*
X171916598Y-56162387D01*
X171909157Y-56149971D01*
X171902968Y-56136886D01*
X171898091Y-56123257D01*
X171894574Y-56109216D01*
X171892450Y-56094898D01*
X171891740Y-56080440D01*
X171891740Y-55735440D01*
X171892450Y-55720982D01*
X171894574Y-55706664D01*
X171898091Y-55692623D01*
X171902968Y-55678994D01*
X171909157Y-55665909D01*
X171916598Y-55653493D01*
X171925221Y-55641867D01*
X171934942Y-55631142D01*
X171945667Y-55621421D01*
X171957293Y-55612798D01*
X171969709Y-55605357D01*
X171982794Y-55599168D01*
X171996423Y-55594291D01*
X172010464Y-55590774D01*
X172024782Y-55588650D01*
X172039240Y-55587940D01*
X172334240Y-55587940D01*
X172348698Y-55588650D01*
X172348698Y-55588650D01*
G37*
D18*
X172186740Y-55907940D03*
D17*
G36*
X173318698Y-55588650D02*
G01*
X173333016Y-55590774D01*
X173347057Y-55594291D01*
X173360686Y-55599168D01*
X173373771Y-55605357D01*
X173386187Y-55612798D01*
X173397813Y-55621421D01*
X173408538Y-55631142D01*
X173418259Y-55641867D01*
X173426882Y-55653493D01*
X173434323Y-55665909D01*
X173440512Y-55678994D01*
X173445389Y-55692623D01*
X173448906Y-55706664D01*
X173451030Y-55720982D01*
X173451740Y-55735440D01*
X173451740Y-56080440D01*
X173451030Y-56094898D01*
X173448906Y-56109216D01*
X173445389Y-56123257D01*
X173440512Y-56136886D01*
X173434323Y-56149971D01*
X173426882Y-56162387D01*
X173418259Y-56174013D01*
X173408538Y-56184738D01*
X173397813Y-56194459D01*
X173386187Y-56203082D01*
X173373771Y-56210523D01*
X173360686Y-56216712D01*
X173347057Y-56221589D01*
X173333016Y-56225106D01*
X173318698Y-56227230D01*
X173304240Y-56227940D01*
X173009240Y-56227940D01*
X172994782Y-56227230D01*
X172980464Y-56225106D01*
X172966423Y-56221589D01*
X172952794Y-56216712D01*
X172939709Y-56210523D01*
X172927293Y-56203082D01*
X172915667Y-56194459D01*
X172904942Y-56184738D01*
X172895221Y-56174013D01*
X172886598Y-56162387D01*
X172879157Y-56149971D01*
X172872968Y-56136886D01*
X172868091Y-56123257D01*
X172864574Y-56109216D01*
X172862450Y-56094898D01*
X172861740Y-56080440D01*
X172861740Y-55735440D01*
X172862450Y-55720982D01*
X172864574Y-55706664D01*
X172868091Y-55692623D01*
X172872968Y-55678994D01*
X172879157Y-55665909D01*
X172886598Y-55653493D01*
X172895221Y-55641867D01*
X172904942Y-55631142D01*
X172915667Y-55621421D01*
X172927293Y-55612798D01*
X172939709Y-55605357D01*
X172952794Y-55599168D01*
X172966423Y-55594291D01*
X172980464Y-55590774D01*
X172994782Y-55588650D01*
X173009240Y-55587940D01*
X173304240Y-55587940D01*
X173318698Y-55588650D01*
X173318698Y-55588650D01*
G37*
D18*
X173156740Y-55907940D03*
D27*
X170922950Y-50924460D03*
X173882050Y-50924460D03*
X178812190Y-50891440D03*
X181771290Y-50891440D03*
D17*
G36*
X175680431Y-47115493D02*
G01*
X175701666Y-47118643D01*
X175722490Y-47123859D01*
X175742702Y-47131091D01*
X175762108Y-47140270D01*
X175780521Y-47151306D01*
X175797764Y-47164094D01*
X175813670Y-47178510D01*
X175828086Y-47194416D01*
X175840874Y-47211659D01*
X175851910Y-47230072D01*
X175861089Y-47249478D01*
X175868321Y-47269690D01*
X175873537Y-47290514D01*
X175876687Y-47311749D01*
X175877740Y-47333190D01*
X175877740Y-47845690D01*
X175876687Y-47867131D01*
X175873537Y-47888366D01*
X175868321Y-47909190D01*
X175861089Y-47929402D01*
X175851910Y-47948808D01*
X175840874Y-47967221D01*
X175828086Y-47984464D01*
X175813670Y-48000370D01*
X175797764Y-48014786D01*
X175780521Y-48027574D01*
X175762108Y-48038610D01*
X175742702Y-48047789D01*
X175722490Y-48055021D01*
X175701666Y-48060237D01*
X175680431Y-48063387D01*
X175658990Y-48064440D01*
X175221490Y-48064440D01*
X175200049Y-48063387D01*
X175178814Y-48060237D01*
X175157990Y-48055021D01*
X175137778Y-48047789D01*
X175118372Y-48038610D01*
X175099959Y-48027574D01*
X175082716Y-48014786D01*
X175066810Y-48000370D01*
X175052394Y-47984464D01*
X175039606Y-47967221D01*
X175028570Y-47948808D01*
X175019391Y-47929402D01*
X175012159Y-47909190D01*
X175006943Y-47888366D01*
X175003793Y-47867131D01*
X175002740Y-47845690D01*
X175002740Y-47333190D01*
X175003793Y-47311749D01*
X175006943Y-47290514D01*
X175012159Y-47269690D01*
X175019391Y-47249478D01*
X175028570Y-47230072D01*
X175039606Y-47211659D01*
X175052394Y-47194416D01*
X175066810Y-47178510D01*
X175082716Y-47164094D01*
X175099959Y-47151306D01*
X175118372Y-47140270D01*
X175137778Y-47131091D01*
X175157990Y-47123859D01*
X175178814Y-47118643D01*
X175200049Y-47115493D01*
X175221490Y-47114440D01*
X175658990Y-47114440D01*
X175680431Y-47115493D01*
X175680431Y-47115493D01*
G37*
D22*
X175440240Y-47589440D03*
D17*
G36*
X177255431Y-47115493D02*
G01*
X177276666Y-47118643D01*
X177297490Y-47123859D01*
X177317702Y-47131091D01*
X177337108Y-47140270D01*
X177355521Y-47151306D01*
X177372764Y-47164094D01*
X177388670Y-47178510D01*
X177403086Y-47194416D01*
X177415874Y-47211659D01*
X177426910Y-47230072D01*
X177436089Y-47249478D01*
X177443321Y-47269690D01*
X177448537Y-47290514D01*
X177451687Y-47311749D01*
X177452740Y-47333190D01*
X177452740Y-47845690D01*
X177451687Y-47867131D01*
X177448537Y-47888366D01*
X177443321Y-47909190D01*
X177436089Y-47929402D01*
X177426910Y-47948808D01*
X177415874Y-47967221D01*
X177403086Y-47984464D01*
X177388670Y-48000370D01*
X177372764Y-48014786D01*
X177355521Y-48027574D01*
X177337108Y-48038610D01*
X177317702Y-48047789D01*
X177297490Y-48055021D01*
X177276666Y-48060237D01*
X177255431Y-48063387D01*
X177233990Y-48064440D01*
X176796490Y-48064440D01*
X176775049Y-48063387D01*
X176753814Y-48060237D01*
X176732990Y-48055021D01*
X176712778Y-48047789D01*
X176693372Y-48038610D01*
X176674959Y-48027574D01*
X176657716Y-48014786D01*
X176641810Y-48000370D01*
X176627394Y-47984464D01*
X176614606Y-47967221D01*
X176603570Y-47948808D01*
X176594391Y-47929402D01*
X176587159Y-47909190D01*
X176581943Y-47888366D01*
X176578793Y-47867131D01*
X176577740Y-47845690D01*
X176577740Y-47333190D01*
X176578793Y-47311749D01*
X176581943Y-47290514D01*
X176587159Y-47269690D01*
X176594391Y-47249478D01*
X176603570Y-47230072D01*
X176614606Y-47211659D01*
X176627394Y-47194416D01*
X176641810Y-47178510D01*
X176657716Y-47164094D01*
X176674959Y-47151306D01*
X176693372Y-47140270D01*
X176712778Y-47131091D01*
X176732990Y-47123859D01*
X176753814Y-47118643D01*
X176775049Y-47115493D01*
X176796490Y-47114440D01*
X177233990Y-47114440D01*
X177255431Y-47115493D01*
X177255431Y-47115493D01*
G37*
D22*
X177015240Y-47589440D03*
D17*
G36*
X172556698Y-53810650D02*
G01*
X172571016Y-53812774D01*
X172585057Y-53816291D01*
X172598686Y-53821168D01*
X172611771Y-53827357D01*
X172624187Y-53834798D01*
X172635813Y-53843421D01*
X172646538Y-53853142D01*
X172656259Y-53863867D01*
X172664882Y-53875493D01*
X172672323Y-53887909D01*
X172678512Y-53900994D01*
X172683389Y-53914623D01*
X172686906Y-53928664D01*
X172689030Y-53942982D01*
X172689740Y-53957440D01*
X172689740Y-54302440D01*
X172689030Y-54316898D01*
X172686906Y-54331216D01*
X172683389Y-54345257D01*
X172678512Y-54358886D01*
X172672323Y-54371971D01*
X172664882Y-54384387D01*
X172656259Y-54396013D01*
X172646538Y-54406738D01*
X172635813Y-54416459D01*
X172624187Y-54425082D01*
X172611771Y-54432523D01*
X172598686Y-54438712D01*
X172585057Y-54443589D01*
X172571016Y-54447106D01*
X172556698Y-54449230D01*
X172542240Y-54449940D01*
X172247240Y-54449940D01*
X172232782Y-54449230D01*
X172218464Y-54447106D01*
X172204423Y-54443589D01*
X172190794Y-54438712D01*
X172177709Y-54432523D01*
X172165293Y-54425082D01*
X172153667Y-54416459D01*
X172142942Y-54406738D01*
X172133221Y-54396013D01*
X172124598Y-54384387D01*
X172117157Y-54371971D01*
X172110968Y-54358886D01*
X172106091Y-54345257D01*
X172102574Y-54331216D01*
X172100450Y-54316898D01*
X172099740Y-54302440D01*
X172099740Y-53957440D01*
X172100450Y-53942982D01*
X172102574Y-53928664D01*
X172106091Y-53914623D01*
X172110968Y-53900994D01*
X172117157Y-53887909D01*
X172124598Y-53875493D01*
X172133221Y-53863867D01*
X172142942Y-53853142D01*
X172153667Y-53843421D01*
X172165293Y-53834798D01*
X172177709Y-53827357D01*
X172190794Y-53821168D01*
X172204423Y-53816291D01*
X172218464Y-53812774D01*
X172232782Y-53810650D01*
X172247240Y-53809940D01*
X172542240Y-53809940D01*
X172556698Y-53810650D01*
X172556698Y-53810650D01*
G37*
D18*
X172394740Y-54129940D03*
D17*
G36*
X171586698Y-53810650D02*
G01*
X171601016Y-53812774D01*
X171615057Y-53816291D01*
X171628686Y-53821168D01*
X171641771Y-53827357D01*
X171654187Y-53834798D01*
X171665813Y-53843421D01*
X171676538Y-53853142D01*
X171686259Y-53863867D01*
X171694882Y-53875493D01*
X171702323Y-53887909D01*
X171708512Y-53900994D01*
X171713389Y-53914623D01*
X171716906Y-53928664D01*
X171719030Y-53942982D01*
X171719740Y-53957440D01*
X171719740Y-54302440D01*
X171719030Y-54316898D01*
X171716906Y-54331216D01*
X171713389Y-54345257D01*
X171708512Y-54358886D01*
X171702323Y-54371971D01*
X171694882Y-54384387D01*
X171686259Y-54396013D01*
X171676538Y-54406738D01*
X171665813Y-54416459D01*
X171654187Y-54425082D01*
X171641771Y-54432523D01*
X171628686Y-54438712D01*
X171615057Y-54443589D01*
X171601016Y-54447106D01*
X171586698Y-54449230D01*
X171572240Y-54449940D01*
X171277240Y-54449940D01*
X171262782Y-54449230D01*
X171248464Y-54447106D01*
X171234423Y-54443589D01*
X171220794Y-54438712D01*
X171207709Y-54432523D01*
X171195293Y-54425082D01*
X171183667Y-54416459D01*
X171172942Y-54406738D01*
X171163221Y-54396013D01*
X171154598Y-54384387D01*
X171147157Y-54371971D01*
X171140968Y-54358886D01*
X171136091Y-54345257D01*
X171132574Y-54331216D01*
X171130450Y-54316898D01*
X171129740Y-54302440D01*
X171129740Y-53957440D01*
X171130450Y-53942982D01*
X171132574Y-53928664D01*
X171136091Y-53914623D01*
X171140968Y-53900994D01*
X171147157Y-53887909D01*
X171154598Y-53875493D01*
X171163221Y-53863867D01*
X171172942Y-53853142D01*
X171183667Y-53843421D01*
X171195293Y-53834798D01*
X171207709Y-53827357D01*
X171220794Y-53821168D01*
X171234423Y-53816291D01*
X171248464Y-53812774D01*
X171262782Y-53810650D01*
X171277240Y-53809940D01*
X171572240Y-53809940D01*
X171586698Y-53810650D01*
X171586698Y-53810650D01*
G37*
D18*
X171424740Y-54129940D03*
D17*
G36*
X180748198Y-57176150D02*
G01*
X180762516Y-57178274D01*
X180776557Y-57181791D01*
X180790186Y-57186668D01*
X180803271Y-57192857D01*
X180815687Y-57200298D01*
X180827313Y-57208921D01*
X180838038Y-57218642D01*
X180847759Y-57229367D01*
X180856382Y-57240993D01*
X180863823Y-57253409D01*
X180870012Y-57266494D01*
X180874889Y-57280123D01*
X180878406Y-57294164D01*
X180880530Y-57308482D01*
X180881240Y-57322940D01*
X180881240Y-57667940D01*
X180880530Y-57682398D01*
X180878406Y-57696716D01*
X180874889Y-57710757D01*
X180870012Y-57724386D01*
X180863823Y-57737471D01*
X180856382Y-57749887D01*
X180847759Y-57761513D01*
X180838038Y-57772238D01*
X180827313Y-57781959D01*
X180815687Y-57790582D01*
X180803271Y-57798023D01*
X180790186Y-57804212D01*
X180776557Y-57809089D01*
X180762516Y-57812606D01*
X180748198Y-57814730D01*
X180733740Y-57815440D01*
X180438740Y-57815440D01*
X180424282Y-57814730D01*
X180409964Y-57812606D01*
X180395923Y-57809089D01*
X180382294Y-57804212D01*
X180369209Y-57798023D01*
X180356793Y-57790582D01*
X180345167Y-57781959D01*
X180334442Y-57772238D01*
X180324721Y-57761513D01*
X180316098Y-57749887D01*
X180308657Y-57737471D01*
X180302468Y-57724386D01*
X180297591Y-57710757D01*
X180294074Y-57696716D01*
X180291950Y-57682398D01*
X180291240Y-57667940D01*
X180291240Y-57322940D01*
X180291950Y-57308482D01*
X180294074Y-57294164D01*
X180297591Y-57280123D01*
X180302468Y-57266494D01*
X180308657Y-57253409D01*
X180316098Y-57240993D01*
X180324721Y-57229367D01*
X180334442Y-57218642D01*
X180345167Y-57208921D01*
X180356793Y-57200298D01*
X180369209Y-57192857D01*
X180382294Y-57186668D01*
X180395923Y-57181791D01*
X180409964Y-57178274D01*
X180424282Y-57176150D01*
X180438740Y-57175440D01*
X180733740Y-57175440D01*
X180748198Y-57176150D01*
X180748198Y-57176150D01*
G37*
D18*
X180586240Y-57495440D03*
D17*
G36*
X179778198Y-57176150D02*
G01*
X179792516Y-57178274D01*
X179806557Y-57181791D01*
X179820186Y-57186668D01*
X179833271Y-57192857D01*
X179845687Y-57200298D01*
X179857313Y-57208921D01*
X179868038Y-57218642D01*
X179877759Y-57229367D01*
X179886382Y-57240993D01*
X179893823Y-57253409D01*
X179900012Y-57266494D01*
X179904889Y-57280123D01*
X179908406Y-57294164D01*
X179910530Y-57308482D01*
X179911240Y-57322940D01*
X179911240Y-57667940D01*
X179910530Y-57682398D01*
X179908406Y-57696716D01*
X179904889Y-57710757D01*
X179900012Y-57724386D01*
X179893823Y-57737471D01*
X179886382Y-57749887D01*
X179877759Y-57761513D01*
X179868038Y-57772238D01*
X179857313Y-57781959D01*
X179845687Y-57790582D01*
X179833271Y-57798023D01*
X179820186Y-57804212D01*
X179806557Y-57809089D01*
X179792516Y-57812606D01*
X179778198Y-57814730D01*
X179763740Y-57815440D01*
X179468740Y-57815440D01*
X179454282Y-57814730D01*
X179439964Y-57812606D01*
X179425923Y-57809089D01*
X179412294Y-57804212D01*
X179399209Y-57798023D01*
X179386793Y-57790582D01*
X179375167Y-57781959D01*
X179364442Y-57772238D01*
X179354721Y-57761513D01*
X179346098Y-57749887D01*
X179338657Y-57737471D01*
X179332468Y-57724386D01*
X179327591Y-57710757D01*
X179324074Y-57696716D01*
X179321950Y-57682398D01*
X179321240Y-57667940D01*
X179321240Y-57322940D01*
X179321950Y-57308482D01*
X179324074Y-57294164D01*
X179327591Y-57280123D01*
X179332468Y-57266494D01*
X179338657Y-57253409D01*
X179346098Y-57240993D01*
X179354721Y-57229367D01*
X179364442Y-57218642D01*
X179375167Y-57208921D01*
X179386793Y-57200298D01*
X179399209Y-57192857D01*
X179412294Y-57186668D01*
X179425923Y-57181791D01*
X179439964Y-57178274D01*
X179454282Y-57176150D01*
X179468740Y-57175440D01*
X179763740Y-57175440D01*
X179778198Y-57176150D01*
X179778198Y-57176150D01*
G37*
D18*
X179616240Y-57495440D03*
D17*
G36*
X183080198Y-47270150D02*
G01*
X183094516Y-47272274D01*
X183108557Y-47275791D01*
X183122186Y-47280668D01*
X183135271Y-47286857D01*
X183147687Y-47294298D01*
X183159313Y-47302921D01*
X183170038Y-47312642D01*
X183179759Y-47323367D01*
X183188382Y-47334993D01*
X183195823Y-47347409D01*
X183202012Y-47360494D01*
X183206889Y-47374123D01*
X183210406Y-47388164D01*
X183212530Y-47402482D01*
X183213240Y-47416940D01*
X183213240Y-47761940D01*
X183212530Y-47776398D01*
X183210406Y-47790716D01*
X183206889Y-47804757D01*
X183202012Y-47818386D01*
X183195823Y-47831471D01*
X183188382Y-47843887D01*
X183179759Y-47855513D01*
X183170038Y-47866238D01*
X183159313Y-47875959D01*
X183147687Y-47884582D01*
X183135271Y-47892023D01*
X183122186Y-47898212D01*
X183108557Y-47903089D01*
X183094516Y-47906606D01*
X183080198Y-47908730D01*
X183065740Y-47909440D01*
X182770740Y-47909440D01*
X182756282Y-47908730D01*
X182741964Y-47906606D01*
X182727923Y-47903089D01*
X182714294Y-47898212D01*
X182701209Y-47892023D01*
X182688793Y-47884582D01*
X182677167Y-47875959D01*
X182666442Y-47866238D01*
X182656721Y-47855513D01*
X182648098Y-47843887D01*
X182640657Y-47831471D01*
X182634468Y-47818386D01*
X182629591Y-47804757D01*
X182626074Y-47790716D01*
X182623950Y-47776398D01*
X182623240Y-47761940D01*
X182623240Y-47416940D01*
X182623950Y-47402482D01*
X182626074Y-47388164D01*
X182629591Y-47374123D01*
X182634468Y-47360494D01*
X182640657Y-47347409D01*
X182648098Y-47334993D01*
X182656721Y-47323367D01*
X182666442Y-47312642D01*
X182677167Y-47302921D01*
X182688793Y-47294298D01*
X182701209Y-47286857D01*
X182714294Y-47280668D01*
X182727923Y-47275791D01*
X182741964Y-47272274D01*
X182756282Y-47270150D01*
X182770740Y-47269440D01*
X183065740Y-47269440D01*
X183080198Y-47270150D01*
X183080198Y-47270150D01*
G37*
D18*
X182918240Y-47589440D03*
D17*
G36*
X184050198Y-47270150D02*
G01*
X184064516Y-47272274D01*
X184078557Y-47275791D01*
X184092186Y-47280668D01*
X184105271Y-47286857D01*
X184117687Y-47294298D01*
X184129313Y-47302921D01*
X184140038Y-47312642D01*
X184149759Y-47323367D01*
X184158382Y-47334993D01*
X184165823Y-47347409D01*
X184172012Y-47360494D01*
X184176889Y-47374123D01*
X184180406Y-47388164D01*
X184182530Y-47402482D01*
X184183240Y-47416940D01*
X184183240Y-47761940D01*
X184182530Y-47776398D01*
X184180406Y-47790716D01*
X184176889Y-47804757D01*
X184172012Y-47818386D01*
X184165823Y-47831471D01*
X184158382Y-47843887D01*
X184149759Y-47855513D01*
X184140038Y-47866238D01*
X184129313Y-47875959D01*
X184117687Y-47884582D01*
X184105271Y-47892023D01*
X184092186Y-47898212D01*
X184078557Y-47903089D01*
X184064516Y-47906606D01*
X184050198Y-47908730D01*
X184035740Y-47909440D01*
X183740740Y-47909440D01*
X183726282Y-47908730D01*
X183711964Y-47906606D01*
X183697923Y-47903089D01*
X183684294Y-47898212D01*
X183671209Y-47892023D01*
X183658793Y-47884582D01*
X183647167Y-47875959D01*
X183636442Y-47866238D01*
X183626721Y-47855513D01*
X183618098Y-47843887D01*
X183610657Y-47831471D01*
X183604468Y-47818386D01*
X183599591Y-47804757D01*
X183596074Y-47790716D01*
X183593950Y-47776398D01*
X183593240Y-47761940D01*
X183593240Y-47416940D01*
X183593950Y-47402482D01*
X183596074Y-47388164D01*
X183599591Y-47374123D01*
X183604468Y-47360494D01*
X183610657Y-47347409D01*
X183618098Y-47334993D01*
X183626721Y-47323367D01*
X183636442Y-47312642D01*
X183647167Y-47302921D01*
X183658793Y-47294298D01*
X183671209Y-47286857D01*
X183684294Y-47280668D01*
X183697923Y-47275791D01*
X183711964Y-47272274D01*
X183726282Y-47270150D01*
X183740740Y-47269440D01*
X184035740Y-47269440D01*
X184050198Y-47270150D01*
X184050198Y-47270150D01*
G37*
D18*
X183888240Y-47589440D03*
D17*
G36*
X167524698Y-50764650D02*
G01*
X167539016Y-50766774D01*
X167553057Y-50770291D01*
X167566686Y-50775168D01*
X167579771Y-50781357D01*
X167592187Y-50788798D01*
X167603813Y-50797421D01*
X167614538Y-50807142D01*
X167624259Y-50817867D01*
X167632882Y-50829493D01*
X167640323Y-50841909D01*
X167646512Y-50854994D01*
X167651389Y-50868623D01*
X167654906Y-50882664D01*
X167657030Y-50896982D01*
X167657740Y-50911440D01*
X167657740Y-51206440D01*
X167657030Y-51220898D01*
X167654906Y-51235216D01*
X167651389Y-51249257D01*
X167646512Y-51262886D01*
X167640323Y-51275971D01*
X167632882Y-51288387D01*
X167624259Y-51300013D01*
X167614538Y-51310738D01*
X167603813Y-51320459D01*
X167592187Y-51329082D01*
X167579771Y-51336523D01*
X167566686Y-51342712D01*
X167553057Y-51347589D01*
X167539016Y-51351106D01*
X167524698Y-51353230D01*
X167510240Y-51353940D01*
X167165240Y-51353940D01*
X167150782Y-51353230D01*
X167136464Y-51351106D01*
X167122423Y-51347589D01*
X167108794Y-51342712D01*
X167095709Y-51336523D01*
X167083293Y-51329082D01*
X167071667Y-51320459D01*
X167060942Y-51310738D01*
X167051221Y-51300013D01*
X167042598Y-51288387D01*
X167035157Y-51275971D01*
X167028968Y-51262886D01*
X167024091Y-51249257D01*
X167020574Y-51235216D01*
X167018450Y-51220898D01*
X167017740Y-51206440D01*
X167017740Y-50911440D01*
X167018450Y-50896982D01*
X167020574Y-50882664D01*
X167024091Y-50868623D01*
X167028968Y-50854994D01*
X167035157Y-50841909D01*
X167042598Y-50829493D01*
X167051221Y-50817867D01*
X167060942Y-50807142D01*
X167071667Y-50797421D01*
X167083293Y-50788798D01*
X167095709Y-50781357D01*
X167108794Y-50775168D01*
X167122423Y-50770291D01*
X167136464Y-50766774D01*
X167150782Y-50764650D01*
X167165240Y-50763940D01*
X167510240Y-50763940D01*
X167524698Y-50764650D01*
X167524698Y-50764650D01*
G37*
D18*
X167337740Y-51058940D03*
D17*
G36*
X167524698Y-49794650D02*
G01*
X167539016Y-49796774D01*
X167553057Y-49800291D01*
X167566686Y-49805168D01*
X167579771Y-49811357D01*
X167592187Y-49818798D01*
X167603813Y-49827421D01*
X167614538Y-49837142D01*
X167624259Y-49847867D01*
X167632882Y-49859493D01*
X167640323Y-49871909D01*
X167646512Y-49884994D01*
X167651389Y-49898623D01*
X167654906Y-49912664D01*
X167657030Y-49926982D01*
X167657740Y-49941440D01*
X167657740Y-50236440D01*
X167657030Y-50250898D01*
X167654906Y-50265216D01*
X167651389Y-50279257D01*
X167646512Y-50292886D01*
X167640323Y-50305971D01*
X167632882Y-50318387D01*
X167624259Y-50330013D01*
X167614538Y-50340738D01*
X167603813Y-50350459D01*
X167592187Y-50359082D01*
X167579771Y-50366523D01*
X167566686Y-50372712D01*
X167553057Y-50377589D01*
X167539016Y-50381106D01*
X167524698Y-50383230D01*
X167510240Y-50383940D01*
X167165240Y-50383940D01*
X167150782Y-50383230D01*
X167136464Y-50381106D01*
X167122423Y-50377589D01*
X167108794Y-50372712D01*
X167095709Y-50366523D01*
X167083293Y-50359082D01*
X167071667Y-50350459D01*
X167060942Y-50340738D01*
X167051221Y-50330013D01*
X167042598Y-50318387D01*
X167035157Y-50305971D01*
X167028968Y-50292886D01*
X167024091Y-50279257D01*
X167020574Y-50265216D01*
X167018450Y-50250898D01*
X167017740Y-50236440D01*
X167017740Y-49941440D01*
X167018450Y-49926982D01*
X167020574Y-49912664D01*
X167024091Y-49898623D01*
X167028968Y-49884994D01*
X167035157Y-49871909D01*
X167042598Y-49859493D01*
X167051221Y-49847867D01*
X167060942Y-49837142D01*
X167071667Y-49827421D01*
X167083293Y-49818798D01*
X167095709Y-49811357D01*
X167108794Y-49805168D01*
X167122423Y-49800291D01*
X167136464Y-49796774D01*
X167150782Y-49794650D01*
X167165240Y-49793940D01*
X167510240Y-49793940D01*
X167524698Y-49794650D01*
X167524698Y-49794650D01*
G37*
D18*
X167337740Y-50088940D03*
D17*
G36*
X180748198Y-54636150D02*
G01*
X180762516Y-54638274D01*
X180776557Y-54641791D01*
X180790186Y-54646668D01*
X180803271Y-54652857D01*
X180815687Y-54660298D01*
X180827313Y-54668921D01*
X180838038Y-54678642D01*
X180847759Y-54689367D01*
X180856382Y-54700993D01*
X180863823Y-54713409D01*
X180870012Y-54726494D01*
X180874889Y-54740123D01*
X180878406Y-54754164D01*
X180880530Y-54768482D01*
X180881240Y-54782940D01*
X180881240Y-55127940D01*
X180880530Y-55142398D01*
X180878406Y-55156716D01*
X180874889Y-55170757D01*
X180870012Y-55184386D01*
X180863823Y-55197471D01*
X180856382Y-55209887D01*
X180847759Y-55221513D01*
X180838038Y-55232238D01*
X180827313Y-55241959D01*
X180815687Y-55250582D01*
X180803271Y-55258023D01*
X180790186Y-55264212D01*
X180776557Y-55269089D01*
X180762516Y-55272606D01*
X180748198Y-55274730D01*
X180733740Y-55275440D01*
X180438740Y-55275440D01*
X180424282Y-55274730D01*
X180409964Y-55272606D01*
X180395923Y-55269089D01*
X180382294Y-55264212D01*
X180369209Y-55258023D01*
X180356793Y-55250582D01*
X180345167Y-55241959D01*
X180334442Y-55232238D01*
X180324721Y-55221513D01*
X180316098Y-55209887D01*
X180308657Y-55197471D01*
X180302468Y-55184386D01*
X180297591Y-55170757D01*
X180294074Y-55156716D01*
X180291950Y-55142398D01*
X180291240Y-55127940D01*
X180291240Y-54782940D01*
X180291950Y-54768482D01*
X180294074Y-54754164D01*
X180297591Y-54740123D01*
X180302468Y-54726494D01*
X180308657Y-54713409D01*
X180316098Y-54700993D01*
X180324721Y-54689367D01*
X180334442Y-54678642D01*
X180345167Y-54668921D01*
X180356793Y-54660298D01*
X180369209Y-54652857D01*
X180382294Y-54646668D01*
X180395923Y-54641791D01*
X180409964Y-54638274D01*
X180424282Y-54636150D01*
X180438740Y-54635440D01*
X180733740Y-54635440D01*
X180748198Y-54636150D01*
X180748198Y-54636150D01*
G37*
D18*
X180586240Y-54955440D03*
D17*
G36*
X179778198Y-54636150D02*
G01*
X179792516Y-54638274D01*
X179806557Y-54641791D01*
X179820186Y-54646668D01*
X179833271Y-54652857D01*
X179845687Y-54660298D01*
X179857313Y-54668921D01*
X179868038Y-54678642D01*
X179877759Y-54689367D01*
X179886382Y-54700993D01*
X179893823Y-54713409D01*
X179900012Y-54726494D01*
X179904889Y-54740123D01*
X179908406Y-54754164D01*
X179910530Y-54768482D01*
X179911240Y-54782940D01*
X179911240Y-55127940D01*
X179910530Y-55142398D01*
X179908406Y-55156716D01*
X179904889Y-55170757D01*
X179900012Y-55184386D01*
X179893823Y-55197471D01*
X179886382Y-55209887D01*
X179877759Y-55221513D01*
X179868038Y-55232238D01*
X179857313Y-55241959D01*
X179845687Y-55250582D01*
X179833271Y-55258023D01*
X179820186Y-55264212D01*
X179806557Y-55269089D01*
X179792516Y-55272606D01*
X179778198Y-55274730D01*
X179763740Y-55275440D01*
X179468740Y-55275440D01*
X179454282Y-55274730D01*
X179439964Y-55272606D01*
X179425923Y-55269089D01*
X179412294Y-55264212D01*
X179399209Y-55258023D01*
X179386793Y-55250582D01*
X179375167Y-55241959D01*
X179364442Y-55232238D01*
X179354721Y-55221513D01*
X179346098Y-55209887D01*
X179338657Y-55197471D01*
X179332468Y-55184386D01*
X179327591Y-55170757D01*
X179324074Y-55156716D01*
X179321950Y-55142398D01*
X179321240Y-55127940D01*
X179321240Y-54782940D01*
X179321950Y-54768482D01*
X179324074Y-54754164D01*
X179327591Y-54740123D01*
X179332468Y-54726494D01*
X179338657Y-54713409D01*
X179346098Y-54700993D01*
X179354721Y-54689367D01*
X179364442Y-54678642D01*
X179375167Y-54668921D01*
X179386793Y-54660298D01*
X179399209Y-54652857D01*
X179412294Y-54646668D01*
X179425923Y-54641791D01*
X179439964Y-54638274D01*
X179454282Y-54636150D01*
X179468740Y-54635440D01*
X179763740Y-54635440D01*
X179778198Y-54636150D01*
X179778198Y-54636150D01*
G37*
D18*
X179616240Y-54955440D03*
D17*
G36*
X170380198Y-56604650D02*
G01*
X170394516Y-56606774D01*
X170408557Y-56610291D01*
X170422186Y-56615168D01*
X170435271Y-56621357D01*
X170447687Y-56628798D01*
X170459313Y-56637421D01*
X170470038Y-56647142D01*
X170479759Y-56657867D01*
X170488382Y-56669493D01*
X170495823Y-56681909D01*
X170502012Y-56694994D01*
X170506889Y-56708623D01*
X170510406Y-56722664D01*
X170512530Y-56736982D01*
X170513240Y-56751440D01*
X170513240Y-57096440D01*
X170512530Y-57110898D01*
X170510406Y-57125216D01*
X170506889Y-57139257D01*
X170502012Y-57152886D01*
X170495823Y-57165971D01*
X170488382Y-57178387D01*
X170479759Y-57190013D01*
X170470038Y-57200738D01*
X170459313Y-57210459D01*
X170447687Y-57219082D01*
X170435271Y-57226523D01*
X170422186Y-57232712D01*
X170408557Y-57237589D01*
X170394516Y-57241106D01*
X170380198Y-57243230D01*
X170365740Y-57243940D01*
X170070740Y-57243940D01*
X170056282Y-57243230D01*
X170041964Y-57241106D01*
X170027923Y-57237589D01*
X170014294Y-57232712D01*
X170001209Y-57226523D01*
X169988793Y-57219082D01*
X169977167Y-57210459D01*
X169966442Y-57200738D01*
X169956721Y-57190013D01*
X169948098Y-57178387D01*
X169940657Y-57165971D01*
X169934468Y-57152886D01*
X169929591Y-57139257D01*
X169926074Y-57125216D01*
X169923950Y-57110898D01*
X169923240Y-57096440D01*
X169923240Y-56751440D01*
X169923950Y-56736982D01*
X169926074Y-56722664D01*
X169929591Y-56708623D01*
X169934468Y-56694994D01*
X169940657Y-56681909D01*
X169948098Y-56669493D01*
X169956721Y-56657867D01*
X169966442Y-56647142D01*
X169977167Y-56637421D01*
X169988793Y-56628798D01*
X170001209Y-56621357D01*
X170014294Y-56615168D01*
X170027923Y-56610291D01*
X170041964Y-56606774D01*
X170056282Y-56604650D01*
X170070740Y-56603940D01*
X170365740Y-56603940D01*
X170380198Y-56604650D01*
X170380198Y-56604650D01*
G37*
D18*
X170218240Y-56923940D03*
D17*
G36*
X171350198Y-56604650D02*
G01*
X171364516Y-56606774D01*
X171378557Y-56610291D01*
X171392186Y-56615168D01*
X171405271Y-56621357D01*
X171417687Y-56628798D01*
X171429313Y-56637421D01*
X171440038Y-56647142D01*
X171449759Y-56657867D01*
X171458382Y-56669493D01*
X171465823Y-56681909D01*
X171472012Y-56694994D01*
X171476889Y-56708623D01*
X171480406Y-56722664D01*
X171482530Y-56736982D01*
X171483240Y-56751440D01*
X171483240Y-57096440D01*
X171482530Y-57110898D01*
X171480406Y-57125216D01*
X171476889Y-57139257D01*
X171472012Y-57152886D01*
X171465823Y-57165971D01*
X171458382Y-57178387D01*
X171449759Y-57190013D01*
X171440038Y-57200738D01*
X171429313Y-57210459D01*
X171417687Y-57219082D01*
X171405271Y-57226523D01*
X171392186Y-57232712D01*
X171378557Y-57237589D01*
X171364516Y-57241106D01*
X171350198Y-57243230D01*
X171335740Y-57243940D01*
X171040740Y-57243940D01*
X171026282Y-57243230D01*
X171011964Y-57241106D01*
X170997923Y-57237589D01*
X170984294Y-57232712D01*
X170971209Y-57226523D01*
X170958793Y-57219082D01*
X170947167Y-57210459D01*
X170936442Y-57200738D01*
X170926721Y-57190013D01*
X170918098Y-57178387D01*
X170910657Y-57165971D01*
X170904468Y-57152886D01*
X170899591Y-57139257D01*
X170896074Y-57125216D01*
X170893950Y-57110898D01*
X170893240Y-57096440D01*
X170893240Y-56751440D01*
X170893950Y-56736982D01*
X170896074Y-56722664D01*
X170899591Y-56708623D01*
X170904468Y-56694994D01*
X170910657Y-56681909D01*
X170918098Y-56669493D01*
X170926721Y-56657867D01*
X170936442Y-56647142D01*
X170947167Y-56637421D01*
X170958793Y-56628798D01*
X170971209Y-56621357D01*
X170984294Y-56615168D01*
X170997923Y-56610291D01*
X171011964Y-56606774D01*
X171026282Y-56604650D01*
X171040740Y-56603940D01*
X171335740Y-56603940D01*
X171350198Y-56604650D01*
X171350198Y-56604650D01*
G37*
D18*
X171188240Y-56923940D03*
D17*
G36*
X163254958Y-47879210D02*
G01*
X163269276Y-47881334D01*
X163283317Y-47884851D01*
X163296946Y-47889728D01*
X163310031Y-47895917D01*
X163322447Y-47903358D01*
X163334073Y-47911981D01*
X163344798Y-47921702D01*
X163354519Y-47932427D01*
X163363142Y-47944053D01*
X163370583Y-47956469D01*
X163376772Y-47969554D01*
X163381649Y-47983183D01*
X163385166Y-47997224D01*
X163387290Y-48011542D01*
X163388000Y-48026000D01*
X163388000Y-48321000D01*
X163387290Y-48335458D01*
X163385166Y-48349776D01*
X163381649Y-48363817D01*
X163376772Y-48377446D01*
X163370583Y-48390531D01*
X163363142Y-48402947D01*
X163354519Y-48414573D01*
X163344798Y-48425298D01*
X163334073Y-48435019D01*
X163322447Y-48443642D01*
X163310031Y-48451083D01*
X163296946Y-48457272D01*
X163283317Y-48462149D01*
X163269276Y-48465666D01*
X163254958Y-48467790D01*
X163240500Y-48468500D01*
X162895500Y-48468500D01*
X162881042Y-48467790D01*
X162866724Y-48465666D01*
X162852683Y-48462149D01*
X162839054Y-48457272D01*
X162825969Y-48451083D01*
X162813553Y-48443642D01*
X162801927Y-48435019D01*
X162791202Y-48425298D01*
X162781481Y-48414573D01*
X162772858Y-48402947D01*
X162765417Y-48390531D01*
X162759228Y-48377446D01*
X162754351Y-48363817D01*
X162750834Y-48349776D01*
X162748710Y-48335458D01*
X162748000Y-48321000D01*
X162748000Y-48026000D01*
X162748710Y-48011542D01*
X162750834Y-47997224D01*
X162754351Y-47983183D01*
X162759228Y-47969554D01*
X162765417Y-47956469D01*
X162772858Y-47944053D01*
X162781481Y-47932427D01*
X162791202Y-47921702D01*
X162801927Y-47911981D01*
X162813553Y-47903358D01*
X162825969Y-47895917D01*
X162839054Y-47889728D01*
X162852683Y-47884851D01*
X162866724Y-47881334D01*
X162881042Y-47879210D01*
X162895500Y-47878500D01*
X163240500Y-47878500D01*
X163254958Y-47879210D01*
X163254958Y-47879210D01*
G37*
D18*
X163068000Y-48173500D03*
D17*
G36*
X163254958Y-46909210D02*
G01*
X163269276Y-46911334D01*
X163283317Y-46914851D01*
X163296946Y-46919728D01*
X163310031Y-46925917D01*
X163322447Y-46933358D01*
X163334073Y-46941981D01*
X163344798Y-46951702D01*
X163354519Y-46962427D01*
X163363142Y-46974053D01*
X163370583Y-46986469D01*
X163376772Y-46999554D01*
X163381649Y-47013183D01*
X163385166Y-47027224D01*
X163387290Y-47041542D01*
X163388000Y-47056000D01*
X163388000Y-47351000D01*
X163387290Y-47365458D01*
X163385166Y-47379776D01*
X163381649Y-47393817D01*
X163376772Y-47407446D01*
X163370583Y-47420531D01*
X163363142Y-47432947D01*
X163354519Y-47444573D01*
X163344798Y-47455298D01*
X163334073Y-47465019D01*
X163322447Y-47473642D01*
X163310031Y-47481083D01*
X163296946Y-47487272D01*
X163283317Y-47492149D01*
X163269276Y-47495666D01*
X163254958Y-47497790D01*
X163240500Y-47498500D01*
X162895500Y-47498500D01*
X162881042Y-47497790D01*
X162866724Y-47495666D01*
X162852683Y-47492149D01*
X162839054Y-47487272D01*
X162825969Y-47481083D01*
X162813553Y-47473642D01*
X162801927Y-47465019D01*
X162791202Y-47455298D01*
X162781481Y-47444573D01*
X162772858Y-47432947D01*
X162765417Y-47420531D01*
X162759228Y-47407446D01*
X162754351Y-47393817D01*
X162750834Y-47379776D01*
X162748710Y-47365458D01*
X162748000Y-47351000D01*
X162748000Y-47056000D01*
X162748710Y-47041542D01*
X162750834Y-47027224D01*
X162754351Y-47013183D01*
X162759228Y-46999554D01*
X162765417Y-46986469D01*
X162772858Y-46974053D01*
X162781481Y-46962427D01*
X162791202Y-46951702D01*
X162801927Y-46941981D01*
X162813553Y-46933358D01*
X162825969Y-46925917D01*
X162839054Y-46919728D01*
X162852683Y-46914851D01*
X162866724Y-46911334D01*
X162881042Y-46909210D01*
X162895500Y-46908500D01*
X163240500Y-46908500D01*
X163254958Y-46909210D01*
X163254958Y-46909210D01*
G37*
D18*
X163068000Y-47203500D03*
D17*
G36*
X163254958Y-48849490D02*
G01*
X163269276Y-48851614D01*
X163283317Y-48855131D01*
X163296946Y-48860008D01*
X163310031Y-48866197D01*
X163322447Y-48873638D01*
X163334073Y-48882261D01*
X163344798Y-48891982D01*
X163354519Y-48902707D01*
X163363142Y-48914333D01*
X163370583Y-48926749D01*
X163376772Y-48939834D01*
X163381649Y-48953463D01*
X163385166Y-48967504D01*
X163387290Y-48981822D01*
X163388000Y-48996280D01*
X163388000Y-49291280D01*
X163387290Y-49305738D01*
X163385166Y-49320056D01*
X163381649Y-49334097D01*
X163376772Y-49347726D01*
X163370583Y-49360811D01*
X163363142Y-49373227D01*
X163354519Y-49384853D01*
X163344798Y-49395578D01*
X163334073Y-49405299D01*
X163322447Y-49413922D01*
X163310031Y-49421363D01*
X163296946Y-49427552D01*
X163283317Y-49432429D01*
X163269276Y-49435946D01*
X163254958Y-49438070D01*
X163240500Y-49438780D01*
X162895500Y-49438780D01*
X162881042Y-49438070D01*
X162866724Y-49435946D01*
X162852683Y-49432429D01*
X162839054Y-49427552D01*
X162825969Y-49421363D01*
X162813553Y-49413922D01*
X162801927Y-49405299D01*
X162791202Y-49395578D01*
X162781481Y-49384853D01*
X162772858Y-49373227D01*
X162765417Y-49360811D01*
X162759228Y-49347726D01*
X162754351Y-49334097D01*
X162750834Y-49320056D01*
X162748710Y-49305738D01*
X162748000Y-49291280D01*
X162748000Y-48996280D01*
X162748710Y-48981822D01*
X162750834Y-48967504D01*
X162754351Y-48953463D01*
X162759228Y-48939834D01*
X162765417Y-48926749D01*
X162772858Y-48914333D01*
X162781481Y-48902707D01*
X162791202Y-48891982D01*
X162801927Y-48882261D01*
X162813553Y-48873638D01*
X162825969Y-48866197D01*
X162839054Y-48860008D01*
X162852683Y-48855131D01*
X162866724Y-48851614D01*
X162881042Y-48849490D01*
X162895500Y-48848780D01*
X163240500Y-48848780D01*
X163254958Y-48849490D01*
X163254958Y-48849490D01*
G37*
D18*
X163068000Y-49143780D03*
D17*
G36*
X163254958Y-47879490D02*
G01*
X163269276Y-47881614D01*
X163283317Y-47885131D01*
X163296946Y-47890008D01*
X163310031Y-47896197D01*
X163322447Y-47903638D01*
X163334073Y-47912261D01*
X163344798Y-47921982D01*
X163354519Y-47932707D01*
X163363142Y-47944333D01*
X163370583Y-47956749D01*
X163376772Y-47969834D01*
X163381649Y-47983463D01*
X163385166Y-47997504D01*
X163387290Y-48011822D01*
X163388000Y-48026280D01*
X163388000Y-48321280D01*
X163387290Y-48335738D01*
X163385166Y-48350056D01*
X163381649Y-48364097D01*
X163376772Y-48377726D01*
X163370583Y-48390811D01*
X163363142Y-48403227D01*
X163354519Y-48414853D01*
X163344798Y-48425578D01*
X163334073Y-48435299D01*
X163322447Y-48443922D01*
X163310031Y-48451363D01*
X163296946Y-48457552D01*
X163283317Y-48462429D01*
X163269276Y-48465946D01*
X163254958Y-48468070D01*
X163240500Y-48468780D01*
X162895500Y-48468780D01*
X162881042Y-48468070D01*
X162866724Y-48465946D01*
X162852683Y-48462429D01*
X162839054Y-48457552D01*
X162825969Y-48451363D01*
X162813553Y-48443922D01*
X162801927Y-48435299D01*
X162791202Y-48425578D01*
X162781481Y-48414853D01*
X162772858Y-48403227D01*
X162765417Y-48390811D01*
X162759228Y-48377726D01*
X162754351Y-48364097D01*
X162750834Y-48350056D01*
X162748710Y-48335738D01*
X162748000Y-48321280D01*
X162748000Y-48026280D01*
X162748710Y-48011822D01*
X162750834Y-47997504D01*
X162754351Y-47983463D01*
X162759228Y-47969834D01*
X162765417Y-47956749D01*
X162772858Y-47944333D01*
X162781481Y-47932707D01*
X162791202Y-47921982D01*
X162801927Y-47912261D01*
X162813553Y-47903638D01*
X162825969Y-47896197D01*
X162839054Y-47890008D01*
X162852683Y-47885131D01*
X162866724Y-47881614D01*
X162881042Y-47879490D01*
X162895500Y-47878780D01*
X163240500Y-47878780D01*
X163254958Y-47879490D01*
X163254958Y-47879490D01*
G37*
D18*
X163068000Y-48173780D03*
D17*
G36*
X161857958Y-47879210D02*
G01*
X161872276Y-47881334D01*
X161886317Y-47884851D01*
X161899946Y-47889728D01*
X161913031Y-47895917D01*
X161925447Y-47903358D01*
X161937073Y-47911981D01*
X161947798Y-47921702D01*
X161957519Y-47932427D01*
X161966142Y-47944053D01*
X161973583Y-47956469D01*
X161979772Y-47969554D01*
X161984649Y-47983183D01*
X161988166Y-47997224D01*
X161990290Y-48011542D01*
X161991000Y-48026000D01*
X161991000Y-48321000D01*
X161990290Y-48335458D01*
X161988166Y-48349776D01*
X161984649Y-48363817D01*
X161979772Y-48377446D01*
X161973583Y-48390531D01*
X161966142Y-48402947D01*
X161957519Y-48414573D01*
X161947798Y-48425298D01*
X161937073Y-48435019D01*
X161925447Y-48443642D01*
X161913031Y-48451083D01*
X161899946Y-48457272D01*
X161886317Y-48462149D01*
X161872276Y-48465666D01*
X161857958Y-48467790D01*
X161843500Y-48468500D01*
X161498500Y-48468500D01*
X161484042Y-48467790D01*
X161469724Y-48465666D01*
X161455683Y-48462149D01*
X161442054Y-48457272D01*
X161428969Y-48451083D01*
X161416553Y-48443642D01*
X161404927Y-48435019D01*
X161394202Y-48425298D01*
X161384481Y-48414573D01*
X161375858Y-48402947D01*
X161368417Y-48390531D01*
X161362228Y-48377446D01*
X161357351Y-48363817D01*
X161353834Y-48349776D01*
X161351710Y-48335458D01*
X161351000Y-48321000D01*
X161351000Y-48026000D01*
X161351710Y-48011542D01*
X161353834Y-47997224D01*
X161357351Y-47983183D01*
X161362228Y-47969554D01*
X161368417Y-47956469D01*
X161375858Y-47944053D01*
X161384481Y-47932427D01*
X161394202Y-47921702D01*
X161404927Y-47911981D01*
X161416553Y-47903358D01*
X161428969Y-47895917D01*
X161442054Y-47889728D01*
X161455683Y-47884851D01*
X161469724Y-47881334D01*
X161484042Y-47879210D01*
X161498500Y-47878500D01*
X161843500Y-47878500D01*
X161857958Y-47879210D01*
X161857958Y-47879210D01*
G37*
D18*
X161671000Y-48173500D03*
D17*
G36*
X161857958Y-46909210D02*
G01*
X161872276Y-46911334D01*
X161886317Y-46914851D01*
X161899946Y-46919728D01*
X161913031Y-46925917D01*
X161925447Y-46933358D01*
X161937073Y-46941981D01*
X161947798Y-46951702D01*
X161957519Y-46962427D01*
X161966142Y-46974053D01*
X161973583Y-46986469D01*
X161979772Y-46999554D01*
X161984649Y-47013183D01*
X161988166Y-47027224D01*
X161990290Y-47041542D01*
X161991000Y-47056000D01*
X161991000Y-47351000D01*
X161990290Y-47365458D01*
X161988166Y-47379776D01*
X161984649Y-47393817D01*
X161979772Y-47407446D01*
X161973583Y-47420531D01*
X161966142Y-47432947D01*
X161957519Y-47444573D01*
X161947798Y-47455298D01*
X161937073Y-47465019D01*
X161925447Y-47473642D01*
X161913031Y-47481083D01*
X161899946Y-47487272D01*
X161886317Y-47492149D01*
X161872276Y-47495666D01*
X161857958Y-47497790D01*
X161843500Y-47498500D01*
X161498500Y-47498500D01*
X161484042Y-47497790D01*
X161469724Y-47495666D01*
X161455683Y-47492149D01*
X161442054Y-47487272D01*
X161428969Y-47481083D01*
X161416553Y-47473642D01*
X161404927Y-47465019D01*
X161394202Y-47455298D01*
X161384481Y-47444573D01*
X161375858Y-47432947D01*
X161368417Y-47420531D01*
X161362228Y-47407446D01*
X161357351Y-47393817D01*
X161353834Y-47379776D01*
X161351710Y-47365458D01*
X161351000Y-47351000D01*
X161351000Y-47056000D01*
X161351710Y-47041542D01*
X161353834Y-47027224D01*
X161357351Y-47013183D01*
X161362228Y-46999554D01*
X161368417Y-46986469D01*
X161375858Y-46974053D01*
X161384481Y-46962427D01*
X161394202Y-46951702D01*
X161404927Y-46941981D01*
X161416553Y-46933358D01*
X161428969Y-46925917D01*
X161442054Y-46919728D01*
X161455683Y-46914851D01*
X161469724Y-46911334D01*
X161484042Y-46909210D01*
X161498500Y-46908500D01*
X161843500Y-46908500D01*
X161857958Y-46909210D01*
X161857958Y-46909210D01*
G37*
D18*
X161671000Y-47203500D03*
D17*
G36*
X161857958Y-48849490D02*
G01*
X161872276Y-48851614D01*
X161886317Y-48855131D01*
X161899946Y-48860008D01*
X161913031Y-48866197D01*
X161925447Y-48873638D01*
X161937073Y-48882261D01*
X161947798Y-48891982D01*
X161957519Y-48902707D01*
X161966142Y-48914333D01*
X161973583Y-48926749D01*
X161979772Y-48939834D01*
X161984649Y-48953463D01*
X161988166Y-48967504D01*
X161990290Y-48981822D01*
X161991000Y-48996280D01*
X161991000Y-49291280D01*
X161990290Y-49305738D01*
X161988166Y-49320056D01*
X161984649Y-49334097D01*
X161979772Y-49347726D01*
X161973583Y-49360811D01*
X161966142Y-49373227D01*
X161957519Y-49384853D01*
X161947798Y-49395578D01*
X161937073Y-49405299D01*
X161925447Y-49413922D01*
X161913031Y-49421363D01*
X161899946Y-49427552D01*
X161886317Y-49432429D01*
X161872276Y-49435946D01*
X161857958Y-49438070D01*
X161843500Y-49438780D01*
X161498500Y-49438780D01*
X161484042Y-49438070D01*
X161469724Y-49435946D01*
X161455683Y-49432429D01*
X161442054Y-49427552D01*
X161428969Y-49421363D01*
X161416553Y-49413922D01*
X161404927Y-49405299D01*
X161394202Y-49395578D01*
X161384481Y-49384853D01*
X161375858Y-49373227D01*
X161368417Y-49360811D01*
X161362228Y-49347726D01*
X161357351Y-49334097D01*
X161353834Y-49320056D01*
X161351710Y-49305738D01*
X161351000Y-49291280D01*
X161351000Y-48996280D01*
X161351710Y-48981822D01*
X161353834Y-48967504D01*
X161357351Y-48953463D01*
X161362228Y-48939834D01*
X161368417Y-48926749D01*
X161375858Y-48914333D01*
X161384481Y-48902707D01*
X161394202Y-48891982D01*
X161404927Y-48882261D01*
X161416553Y-48873638D01*
X161428969Y-48866197D01*
X161442054Y-48860008D01*
X161455683Y-48855131D01*
X161469724Y-48851614D01*
X161484042Y-48849490D01*
X161498500Y-48848780D01*
X161843500Y-48848780D01*
X161857958Y-48849490D01*
X161857958Y-48849490D01*
G37*
D18*
X161671000Y-49143780D03*
D17*
G36*
X161857958Y-47879490D02*
G01*
X161872276Y-47881614D01*
X161886317Y-47885131D01*
X161899946Y-47890008D01*
X161913031Y-47896197D01*
X161925447Y-47903638D01*
X161937073Y-47912261D01*
X161947798Y-47921982D01*
X161957519Y-47932707D01*
X161966142Y-47944333D01*
X161973583Y-47956749D01*
X161979772Y-47969834D01*
X161984649Y-47983463D01*
X161988166Y-47997504D01*
X161990290Y-48011822D01*
X161991000Y-48026280D01*
X161991000Y-48321280D01*
X161990290Y-48335738D01*
X161988166Y-48350056D01*
X161984649Y-48364097D01*
X161979772Y-48377726D01*
X161973583Y-48390811D01*
X161966142Y-48403227D01*
X161957519Y-48414853D01*
X161947798Y-48425578D01*
X161937073Y-48435299D01*
X161925447Y-48443922D01*
X161913031Y-48451363D01*
X161899946Y-48457552D01*
X161886317Y-48462429D01*
X161872276Y-48465946D01*
X161857958Y-48468070D01*
X161843500Y-48468780D01*
X161498500Y-48468780D01*
X161484042Y-48468070D01*
X161469724Y-48465946D01*
X161455683Y-48462429D01*
X161442054Y-48457552D01*
X161428969Y-48451363D01*
X161416553Y-48443922D01*
X161404927Y-48435299D01*
X161394202Y-48425578D01*
X161384481Y-48414853D01*
X161375858Y-48403227D01*
X161368417Y-48390811D01*
X161362228Y-48377726D01*
X161357351Y-48364097D01*
X161353834Y-48350056D01*
X161351710Y-48335738D01*
X161351000Y-48321280D01*
X161351000Y-48026280D01*
X161351710Y-48011822D01*
X161353834Y-47997504D01*
X161357351Y-47983463D01*
X161362228Y-47969834D01*
X161368417Y-47956749D01*
X161375858Y-47944333D01*
X161384481Y-47932707D01*
X161394202Y-47921982D01*
X161404927Y-47912261D01*
X161416553Y-47903638D01*
X161428969Y-47896197D01*
X161442054Y-47890008D01*
X161455683Y-47885131D01*
X161469724Y-47881614D01*
X161484042Y-47879490D01*
X161498500Y-47878780D01*
X161843500Y-47878780D01*
X161857958Y-47879490D01*
X161857958Y-47879490D01*
G37*
D18*
X161671000Y-48173780D03*
M02*
