M48
; DRILL file {KiCad (5.1.4)-1} date 12/19/2019 5:58:12 PM
; FORMAT={-:-/ absolute / inch / decimal}
; #@! TF.CreationDate,2019-12-19T17:58:12-07:00
; #@! TF.GenerationSoftware,Kicad,Pcbnew,(5.1.4)-1
FMAT,2
INCH
T1C0.0150
T2C0.0157
T3C0.0197
T4C0.0236
T5C0.0866
%
G90
G05
T1
X6.33Y-1.855
X6.3377Y-1.8963
X6.34Y-1.98
X6.3921Y-1.8755
X6.3925Y-1.9158
X6.4006Y-2.28
X6.401Y-2.557
X6.45Y-1.8975
X6.47Y-2.28
X6.495Y-2.065
X6.5Y-2.34
X6.5Y-2.375
X6.5005Y-2.21
X6.523Y-2.47
X6.523Y-2.689
X6.5241Y-2.2394
X6.53Y-2.325
X6.62Y-2.3
X6.62Y-2.555
X6.645Y-2.4074
X6.6756Y-2.3236
X6.7531Y-2.2111
X6.7881Y-1.9411
X6.79Y-2.555
X6.8456Y-2.302
X6.9121Y-2.221
X6.9124Y-2.171
X6.936Y-2.1971
X6.9364Y-2.085
X6.9379Y-2.3087
X6.9624Y-2.171
X6.9624Y-2.22
X7.0056Y-2.2736
X7.035Y-2.3
X7.0392Y-2.1409
X7.0454Y-2.195
X7.0931Y-1.8986
X7.2281Y-2.0636
X7.2281Y-2.0886
X7.42Y-2.11
X7.475Y-2.365
T2
X5.935Y-1.7325
X5.9449Y-1.7913
X5.9449Y-1.8307
T3
X6.756Y-2.845
X7.1033Y-2.845
X7.277Y-2.845
X6.968Y-2.845
X7.313Y-2.343
T4
X7.79Y-2.1783
X7.79Y-2.2157
X7.79Y-2.2531
X7.79Y-2.45
X7.79Y-2.4874
X7.79Y-2.5248
T5
X7.6693Y-3.1339
X7.6693Y-2.878
T0
M30
