%TF.GenerationSoftware,KiCad,Pcbnew,(5.1.4)-1*%
%TF.CreationDate,2019-10-27T14:01:39-07:00*%
%TF.ProjectId,SolarCell+Y,536f6c61-7243-4656-9c6c-2b592e6b6963,rev?*%
%TF.SameCoordinates,Original*%
%TF.FileFunction,Copper,L5,Inr*%
%TF.FilePolarity,Positive*%
%FSLAX46Y46*%
G04 Gerber Fmt 4.6, Leading zero omitted, Abs format (unit mm)*
G04 Created by KiCad (PCBNEW (5.1.4)-1) date 2019-10-27 14:01:39*
%MOMM*%
%LPD*%
G04 APERTURE LIST*
%ADD10C,0.050000*%
%ADD11C,4.400000*%
%ADD12C,0.584200*%
%ADD13C,0.800000*%
%ADD14C,0.248920*%
%ADD15C,0.609600*%
%ADD16C,0.152400*%
%ADD17C,0.250000*%
G04 APERTURE END LIST*
D10*
X198500000Y-42500000D02*
G75*
G03X198500000Y-42500000I-1100000J0D01*
G01*
X198500000Y-87500000D02*
G75*
G03X198500000Y-87500000I-1100000J0D01*
G01*
X153600000Y-87400000D02*
G75*
G03X153600000Y-87400000I-1100000J0D01*
G01*
X200000000Y-40000000D02*
X150000000Y-40000000D01*
X200000000Y-90000000D02*
X200000000Y-40000000D01*
X150000000Y-90000000D02*
X200000000Y-90000000D01*
X150000000Y-40000000D02*
X150000000Y-90000000D01*
X153600000Y-42400000D02*
G75*
G03X153600000Y-42400000I-1100000J0D01*
G01*
D11*
X182937500Y-65000000D03*
X167062500Y-65000000D03*
D12*
X185483500Y-57658000D03*
X184785000Y-57658000D03*
X166624000Y-72644000D03*
X166149480Y-55716447D03*
X176702740Y-60577244D03*
X175432740Y-60577244D03*
X176702740Y-61821844D03*
X173545500Y-59817000D03*
X175425100Y-61846460D03*
X176032160Y-61239400D03*
X178653988Y-59811807D03*
X185801000Y-62357014D03*
X163957006Y-63055500D03*
X163830000Y-67310000D03*
X173863000Y-69342000D03*
X175387000Y-69342000D03*
X171132500Y-66992500D03*
X172132500Y-66992500D03*
X173132500Y-66992500D03*
X174132500Y-66992500D03*
X175132500Y-66992500D03*
X176132500Y-66992500D03*
X177132500Y-66992500D03*
X178132500Y-66992500D03*
X173640500Y-66230500D03*
X172640500Y-66230500D03*
X174640500Y-66230500D03*
X171640500Y-66230500D03*
X173863000Y-68580000D03*
X165925500Y-57594500D03*
X163573965Y-59346218D03*
X163565500Y-58485313D03*
X176042340Y-58392844D03*
X168338500Y-60134500D03*
X177800000Y-63182500D03*
X171323000Y-61531500D03*
X166624000Y-69786500D03*
X165915302Y-56388000D03*
X176085500Y-64071500D03*
X173723328Y-63677810D03*
X178811844Y-61186844D03*
X180086000Y-54356000D03*
D13*
X151000000Y-44500000D03*
X151000000Y-45500000D03*
X164000000Y-69000000D03*
X164000000Y-70500000D03*
X151000000Y-46500000D03*
D12*
X167132000Y-71247000D03*
X166179500Y-71247000D03*
D14*
X166149480Y-55817707D02*
X166149480Y-55716447D01*
X166458863Y-56648910D02*
X166458863Y-56127090D01*
X165481000Y-56959500D02*
X166243000Y-56959500D01*
X164667322Y-60146322D02*
X164667322Y-57773178D01*
X166195637Y-56912136D02*
X166458863Y-56648910D01*
X167037091Y-72644000D02*
X167894000Y-71787091D01*
X164667322Y-57773178D02*
X165481000Y-56959500D01*
X166624000Y-72644000D02*
X167037091Y-72644000D01*
X166458863Y-56127090D02*
X166149480Y-55817707D01*
X167894000Y-71787091D02*
X167894000Y-69532500D01*
X167894000Y-69532500D02*
X163413433Y-65051933D01*
X166243000Y-56959500D02*
X166195637Y-56912136D01*
X163413433Y-65051933D02*
X163413433Y-61400211D01*
X163413433Y-61400211D02*
X164667322Y-60146322D01*
D15*
X168630599Y-59842401D02*
X168338500Y-60134500D01*
X176042340Y-58392844D02*
X170080156Y-58392844D01*
X170080156Y-58392844D02*
X168630599Y-59842401D01*
D16*
X177228500Y-62611000D02*
X177800000Y-63182500D01*
X171323000Y-61531500D02*
X172402500Y-62611000D01*
X172402500Y-62611000D02*
X177228500Y-62611000D01*
D14*
X165502211Y-56388000D02*
X165915302Y-56388000D01*
X166624000Y-68834000D02*
X163037512Y-65247512D01*
X166624000Y-69786500D02*
X166624000Y-68834000D01*
X163037512Y-65247512D02*
X163037512Y-61157342D01*
X163037512Y-61157342D02*
X164291391Y-59903463D01*
X164291391Y-59903463D02*
X164291392Y-57598819D01*
X164291392Y-57598819D02*
X165502211Y-56388000D01*
D16*
X175691810Y-63677810D02*
X176085500Y-64071500D01*
X173723328Y-63677810D02*
X175691810Y-63677810D01*
X180086000Y-54769091D02*
X180086000Y-54356000D01*
X178811844Y-61186844D02*
X180086000Y-59912688D01*
X180086000Y-59912688D02*
X180086000Y-54769091D01*
D17*
X153728000Y-44000000D02*
X151500000Y-44000000D01*
X150500000Y-48000000D02*
X151000000Y-48000000D01*
X150500000Y-83000000D02*
X150500000Y-48000000D01*
X192500000Y-88000000D02*
X155500000Y-88000000D01*
X198000000Y-82500000D02*
X192500000Y-88000000D01*
X198000000Y-47000000D02*
X198000000Y-82500000D01*
X192500000Y-41500000D02*
X198000000Y-47000000D01*
X158500000Y-41500000D02*
X192500000Y-41500000D01*
X151000000Y-49000000D02*
X158500000Y-41500000D01*
X156000000Y-87500000D02*
X151000000Y-82500000D01*
X197500000Y-82500000D02*
X192500000Y-87500000D01*
X197500000Y-47000000D02*
X197500000Y-82500000D01*
X192500000Y-42000000D02*
X197500000Y-47000000D01*
X151500000Y-82500000D02*
X151500000Y-49000000D01*
X192500000Y-87000000D02*
X156000000Y-87000000D01*
X197000000Y-82500000D02*
X192500000Y-87000000D01*
X192500000Y-42500000D02*
X197000000Y-47000000D01*
X152000000Y-82500000D02*
X152000000Y-49000000D01*
X156000000Y-86500000D02*
X152000000Y-82500000D01*
X192500000Y-86500000D02*
X156000000Y-86500000D01*
X196500000Y-82500000D02*
X192500000Y-86500000D01*
X196500000Y-47000000D02*
X196500000Y-82500000D01*
X192500000Y-43000000D02*
X196500000Y-47000000D01*
X158500000Y-43000000D02*
X192500000Y-43000000D01*
X152500000Y-49000000D02*
X158500000Y-43000000D01*
X152500000Y-82000000D02*
X152500000Y-49000000D01*
X156500000Y-86000000D02*
X152500000Y-82000000D01*
X192500000Y-86000000D02*
X156500000Y-86000000D01*
X196000000Y-82500000D02*
X192500000Y-86000000D01*
X196000000Y-47000000D02*
X196000000Y-82500000D01*
X192500000Y-43500000D02*
X196000000Y-47000000D01*
X158500000Y-43500000D02*
X192500000Y-43500000D01*
X153000000Y-49000000D02*
X158500000Y-43500000D01*
X153000000Y-82000000D02*
X153000000Y-49000000D01*
X192500000Y-85500000D02*
X156500000Y-85500000D01*
X195500000Y-82500000D02*
X192500000Y-85500000D01*
X195500000Y-47000000D02*
X195500000Y-82500000D01*
X192500000Y-44000000D02*
X195500000Y-47000000D01*
X158500000Y-44000000D02*
X192500000Y-44000000D01*
X153500000Y-49000000D02*
X158500000Y-44000000D01*
X153500000Y-82000000D02*
X153500000Y-49000000D01*
X156500000Y-85000000D02*
X153500000Y-82000000D01*
X192500000Y-85000000D02*
X156500000Y-85000000D01*
X195000000Y-82500000D02*
X192500000Y-85000000D01*
X195000000Y-47000000D02*
X195000000Y-82500000D01*
X192500000Y-44500000D02*
X195000000Y-47000000D01*
X158500000Y-44500000D02*
X192500000Y-44500000D01*
X154000000Y-49000000D02*
X158500000Y-44500000D01*
X154000000Y-82000000D02*
X154000000Y-49000000D01*
X156500000Y-84500000D02*
X154000000Y-82000000D01*
X192500000Y-84500000D02*
X156500000Y-84500000D01*
X194500000Y-82500000D02*
X192500000Y-84500000D01*
X194500000Y-47000000D02*
X194500000Y-82500000D01*
X192500000Y-45000000D02*
X194500000Y-47000000D01*
X158500000Y-45000000D02*
X192500000Y-45000000D01*
X154500000Y-49000000D02*
X158500000Y-45000000D01*
X154500000Y-82000000D02*
X154500000Y-49000000D01*
X156500000Y-84000000D02*
X154500000Y-82000000D01*
X192500000Y-84000000D02*
X156500000Y-84000000D01*
X194000000Y-82500000D02*
X192500000Y-84000000D01*
X194000000Y-47000000D02*
X194000000Y-82500000D01*
X190500000Y-49000000D02*
X190500000Y-80500000D01*
X158500000Y-49000000D02*
X190500000Y-49000000D01*
X157500000Y-81000000D02*
X157500000Y-49000000D01*
X158500000Y-80000000D02*
X158500000Y-49000000D01*
X190000000Y-80000000D02*
X158500000Y-80000000D01*
X191000000Y-81000000D02*
X157500000Y-81000000D01*
X190000000Y-49500000D02*
X190000000Y-80000000D01*
X159000000Y-49500000D02*
X190000000Y-49500000D01*
X156500000Y-82500000D02*
X156000000Y-82000000D01*
X159000000Y-79500000D02*
X159000000Y-49500000D01*
X156000000Y-82000000D02*
X156000000Y-49000000D01*
X151500000Y-44000000D02*
X151000000Y-44500000D01*
X159500000Y-50000000D02*
X189500000Y-50000000D01*
X155000000Y-49000000D02*
X158500000Y-45500000D01*
X158500000Y-42000000D02*
X192500000Y-42000000D01*
X159500000Y-79000000D02*
X159500000Y-50000000D01*
X155000000Y-82000000D02*
X155000000Y-49000000D01*
X189000000Y-79000000D02*
X159500000Y-79000000D01*
X189000000Y-50500000D02*
X189000000Y-79000000D01*
X160000000Y-78500000D02*
X160000000Y-50500000D01*
X157500000Y-49000000D02*
X158500000Y-48000000D01*
X156500000Y-85500000D02*
X153000000Y-82000000D01*
X160500000Y-51000000D02*
X188500000Y-51000000D01*
X192000000Y-82000000D02*
X156500000Y-82000000D01*
X151000000Y-82500000D02*
X151000000Y-49000000D01*
X160500000Y-78000000D02*
X160500000Y-51000000D01*
X156500000Y-49000000D02*
X158500000Y-47000000D01*
X189500000Y-79500000D02*
X159000000Y-79500000D01*
X191500000Y-81500000D02*
X157000000Y-81500000D01*
X188000000Y-78000000D02*
X160500000Y-78000000D01*
X162000000Y-76500000D02*
X162000000Y-52500000D01*
X192500000Y-83500000D02*
X156500000Y-83500000D01*
X152000000Y-49000000D02*
X158500000Y-42500000D01*
X156500000Y-83000000D02*
X155500000Y-82000000D01*
X189500000Y-50000000D02*
X189500000Y-79500000D01*
X186500000Y-76500000D02*
X162000000Y-76500000D01*
X186500000Y-53000000D02*
X186500000Y-76500000D01*
X192500000Y-87500000D02*
X156000000Y-87500000D01*
X162500000Y-53000000D02*
X186500000Y-53000000D01*
X157000000Y-49000000D02*
X158500000Y-47500000D01*
X156000000Y-87000000D02*
X151500000Y-82500000D01*
X164000000Y-69000000D02*
X162500000Y-67500000D01*
X157000000Y-81500000D02*
X157000000Y-49000000D01*
X162000000Y-52500000D02*
X187000000Y-52500000D01*
X187000000Y-77000000D02*
X161500000Y-77000000D01*
X158500000Y-42500000D02*
X192500000Y-42500000D01*
X187000000Y-52500000D02*
X187000000Y-77000000D01*
X155500000Y-49000000D02*
X158500000Y-46000000D01*
X151500000Y-49000000D02*
X158500000Y-42000000D01*
X188500000Y-51000000D02*
X188500000Y-78500000D01*
X193500000Y-47000000D02*
X193500000Y-82500000D01*
X161500000Y-77000000D02*
X161500000Y-52000000D01*
X154364000Y-44636000D02*
X153728000Y-44000000D01*
X187500000Y-52000000D02*
X187500000Y-77500000D01*
X158500000Y-46500000D02*
X192500000Y-46500000D01*
X151000000Y-48000000D02*
X154364000Y-44636000D01*
X160000000Y-50500000D02*
X189000000Y-50500000D01*
X156500000Y-82000000D02*
X156500000Y-49000000D01*
X161500000Y-52000000D02*
X187500000Y-52000000D01*
X158500000Y-47000000D02*
X192500000Y-47000000D01*
X187500000Y-77500000D02*
X161000000Y-77500000D01*
X197000000Y-47000000D02*
X197000000Y-82500000D01*
X161000000Y-77500000D02*
X161000000Y-51500000D01*
X191000000Y-48500000D02*
X191000000Y-81000000D01*
X161000000Y-51500000D02*
X188000000Y-51500000D01*
X155500000Y-88000000D02*
X150500000Y-83000000D01*
X188500000Y-78500000D02*
X160000000Y-78500000D01*
X193000000Y-82500000D02*
X192500000Y-83000000D01*
X188000000Y-51500000D02*
X188000000Y-78000000D01*
X192500000Y-47000000D02*
X192500000Y-82500000D01*
X190500000Y-80500000D02*
X158000000Y-80500000D01*
X193500000Y-82500000D02*
X192500000Y-83500000D01*
X158000000Y-80500000D02*
X158000000Y-49000000D01*
X158000000Y-49000000D02*
X158500000Y-48500000D01*
X158500000Y-48500000D02*
X191000000Y-48500000D01*
X158500000Y-48000000D02*
X191500000Y-48000000D01*
X191500000Y-48000000D02*
X191500000Y-81500000D01*
X158500000Y-47500000D02*
X192000000Y-47500000D01*
X192000000Y-47500000D02*
X192000000Y-82000000D01*
X192500000Y-82500000D02*
X156500000Y-82500000D01*
X156000000Y-49000000D02*
X158500000Y-46500000D01*
X192500000Y-46500000D02*
X193000000Y-47000000D01*
X193000000Y-47000000D02*
X193000000Y-82500000D01*
X192500000Y-83000000D02*
X156500000Y-83000000D01*
X155500000Y-82000000D02*
X155500000Y-49000000D01*
X158500000Y-46000000D02*
X192500000Y-46000000D01*
X192500000Y-46000000D02*
X193500000Y-47000000D01*
X156500000Y-83500000D02*
X155000000Y-82000000D01*
X158500000Y-45500000D02*
X192500000Y-45500000D01*
X192500000Y-45500000D02*
X194000000Y-47000000D01*
X162500000Y-67500000D02*
X162500000Y-53000000D01*
D14*
X164000000Y-69067500D02*
X164000000Y-69000000D01*
X166179500Y-71247000D02*
X164000000Y-69067500D01*
X167132000Y-71755000D02*
X167132000Y-71247000D01*
X166878000Y-72009000D02*
X167132000Y-71755000D01*
X164000000Y-70500000D02*
X165509000Y-72009000D01*
X165509000Y-72009000D02*
X166878000Y-72009000D01*
M02*
