%TF.GenerationSoftware,KiCad,Pcbnew,(5.1.4)-1*%
%TF.CreationDate,2019-10-27T14:01:39-07:00*%
%TF.ProjectId,SolarCell+Y,536f6c61-7243-4656-9c6c-2b592e6b6963,rev?*%
%TF.SameCoordinates,Original*%
%TF.FileFunction,Legend,Bot*%
%TF.FilePolarity,Positive*%
%FSLAX46Y46*%
G04 Gerber Fmt 4.6, Leading zero omitted, Abs format (unit mm)*
G04 Created by KiCad (PCBNEW (5.1.4)-1) date 2019-10-27 14:01:39*
%MOMM*%
%LPD*%
G04 APERTURE LIST*
%ADD10C,0.050000*%
%ADD11C,0.150000*%
%ADD12C,0.120000*%
%ADD13C,0.200000*%
%ADD14C,0.250000*%
%ADD15C,0.100000*%
%ADD16C,0.254000*%
%ADD17C,0.127000*%
%ADD18C,0.101600*%
%ADD19C,0.076200*%
G04 APERTURE END LIST*
D10*
X198500000Y-42500000D02*
G75*
G03X198500000Y-42500000I-1100000J0D01*
G01*
X198500000Y-87500000D02*
G75*
G03X198500000Y-87500000I-1100000J0D01*
G01*
X153600000Y-87400000D02*
G75*
G03X153600000Y-87400000I-1100000J0D01*
G01*
X200000000Y-40000000D02*
X150000000Y-40000000D01*
X200000000Y-90000000D02*
X200000000Y-40000000D01*
X150000000Y-90000000D02*
X200000000Y-90000000D01*
X150000000Y-40000000D02*
X150000000Y-90000000D01*
X153600000Y-42400000D02*
G75*
G03X153600000Y-42400000I-1100000J0D01*
G01*
D11*
X162043857Y-70842142D02*
X162091476Y-70889761D01*
X162234333Y-70937380D01*
X162329571Y-70937380D01*
X162472428Y-70889761D01*
X162567666Y-70794523D01*
X162615285Y-70699285D01*
X162662904Y-70508809D01*
X162662904Y-70365952D01*
X162615285Y-70175476D01*
X162567666Y-70080238D01*
X162472428Y-69985000D01*
X162329571Y-69937380D01*
X162234333Y-69937380D01*
X162091476Y-69985000D01*
X162043857Y-70032619D01*
X161472428Y-70937380D02*
X161567666Y-70889761D01*
X161615285Y-70842142D01*
X161662904Y-70746904D01*
X161662904Y-70461190D01*
X161615285Y-70365952D01*
X161567666Y-70318333D01*
X161472428Y-70270714D01*
X161329571Y-70270714D01*
X161234333Y-70318333D01*
X161186714Y-70365952D01*
X161139095Y-70461190D01*
X161139095Y-70746904D01*
X161186714Y-70842142D01*
X161234333Y-70889761D01*
X161329571Y-70937380D01*
X161472428Y-70937380D01*
X160710523Y-70937380D02*
X160710523Y-70270714D01*
X160710523Y-69937380D02*
X160758142Y-69985000D01*
X160710523Y-70032619D01*
X160662904Y-69985000D01*
X160710523Y-69937380D01*
X160710523Y-70032619D01*
X160091476Y-70937380D02*
X160186714Y-70889761D01*
X160234333Y-70794523D01*
X160234333Y-69937380D01*
X158948619Y-70556428D02*
X158186714Y-70556428D01*
X162107357Y-68937142D02*
X162154976Y-68984761D01*
X162297833Y-69032380D01*
X162393071Y-69032380D01*
X162535928Y-68984761D01*
X162631166Y-68889523D01*
X162678785Y-68794285D01*
X162726404Y-68603809D01*
X162726404Y-68460952D01*
X162678785Y-68270476D01*
X162631166Y-68175238D01*
X162535928Y-68080000D01*
X162393071Y-68032380D01*
X162297833Y-68032380D01*
X162154976Y-68080000D01*
X162107357Y-68127619D01*
X161535928Y-69032380D02*
X161631166Y-68984761D01*
X161678785Y-68937142D01*
X161726404Y-68841904D01*
X161726404Y-68556190D01*
X161678785Y-68460952D01*
X161631166Y-68413333D01*
X161535928Y-68365714D01*
X161393071Y-68365714D01*
X161297833Y-68413333D01*
X161250214Y-68460952D01*
X161202595Y-68556190D01*
X161202595Y-68841904D01*
X161250214Y-68937142D01*
X161297833Y-68984761D01*
X161393071Y-69032380D01*
X161535928Y-69032380D01*
X160774023Y-69032380D02*
X160774023Y-68365714D01*
X160774023Y-68032380D02*
X160821642Y-68080000D01*
X160774023Y-68127619D01*
X160726404Y-68080000D01*
X160774023Y-68032380D01*
X160774023Y-68127619D01*
X160154976Y-69032380D02*
X160250214Y-68984761D01*
X160297833Y-68889523D01*
X160297833Y-68032380D01*
X159012119Y-68651428D02*
X158250214Y-68651428D01*
X158631166Y-69032380D02*
X158631166Y-68270476D01*
D12*
X168247279Y-58866500D02*
X167921721Y-58866500D01*
X168247279Y-57846500D02*
X167921721Y-57846500D01*
D13*
X183635000Y-54239500D02*
G75*
G03X183635000Y-54239500I-19000J0D01*
G01*
X164528500Y-53789000D02*
X164528500Y-55339000D01*
X164528500Y-62289000D02*
X164528500Y-60739000D01*
X164528500Y-53789000D02*
X161678500Y-53789000D01*
X164528500Y-62289000D02*
X161678500Y-62289000D01*
X159648500Y-62289000D02*
X159648500Y-53789000D01*
D14*
X174387501Y-69385500D02*
G75*
G03X174387501Y-69385500I-50000J0D01*
G01*
D15*
X175925000Y-70582000D02*
X175306330Y-70582000D01*
X173325000Y-70582000D02*
X173943670Y-70582000D01*
X173325000Y-73182000D02*
X175925000Y-73182000D01*
D12*
X169801000Y-60352721D02*
X169801000Y-60678279D01*
X168781000Y-60352721D02*
X168781000Y-60678279D01*
D14*
X178337340Y-59436844D02*
G75*
G03X178337340Y-59436844I-125000J0D01*
G01*
D13*
X168828000Y-57330000D02*
G75*
G03X168828000Y-57330000I-19000J0D01*
G01*
D12*
X166308500Y-53494721D02*
X166308500Y-53820279D01*
X165288500Y-53494721D02*
X165288500Y-53820279D01*
D16*
X174927260Y-56357520D02*
G75*
G03X174927260Y-56357520I-127000J0D01*
G01*
D17*
X171580810Y-54408070D02*
X172939710Y-54408070D01*
X172939710Y-58306970D02*
X171580810Y-58306970D01*
D16*
X182816500Y-56324500D02*
G75*
G03X182816500Y-56324500I-127000J0D01*
G01*
D17*
X179470050Y-54375050D02*
X180828950Y-54375050D01*
X180828950Y-58273950D02*
X179470050Y-58273950D01*
D12*
X176248279Y-53532500D02*
X175922721Y-53532500D01*
X176248279Y-52512500D02*
X175922721Y-52512500D01*
D18*
X168556214Y-59817000D02*
X168193357Y-59563000D01*
X168556214Y-59381571D02*
X167794214Y-59381571D01*
X167794214Y-59671857D01*
X167830500Y-59744428D01*
X167866785Y-59780714D01*
X167939357Y-59817000D01*
X168048214Y-59817000D01*
X168120785Y-59780714D01*
X168157071Y-59744428D01*
X168193357Y-59671857D01*
X168193357Y-59381571D01*
X168048214Y-60470142D02*
X168556214Y-60470142D01*
X167757928Y-60288714D02*
X168302214Y-60107285D01*
X168302214Y-60579000D01*
D19*
X166533285Y-58075285D02*
X166563523Y-58045047D01*
X166593761Y-57954333D01*
X166593761Y-57893857D01*
X166563523Y-57803142D01*
X166503047Y-57742666D01*
X166442571Y-57712428D01*
X166321619Y-57682190D01*
X166230904Y-57682190D01*
X166109952Y-57712428D01*
X166049476Y-57742666D01*
X165989000Y-57803142D01*
X165958761Y-57893857D01*
X165958761Y-57954333D01*
X165989000Y-58045047D01*
X166019238Y-58075285D01*
X166593761Y-58680047D02*
X166593761Y-58317190D01*
X166593761Y-58498619D02*
X165958761Y-58498619D01*
X166049476Y-58438142D01*
X166109952Y-58377666D01*
X166140190Y-58317190D01*
X166170428Y-59224333D02*
X166593761Y-59224333D01*
X165928523Y-59073142D02*
X166382095Y-58921952D01*
X166382095Y-59315047D01*
D18*
X182772714Y-54578071D02*
X182010714Y-54578071D01*
X182010714Y-54759500D01*
X182047000Y-54868357D01*
X182119571Y-54940928D01*
X182192142Y-54977214D01*
X182337285Y-55013500D01*
X182446142Y-55013500D01*
X182591285Y-54977214D01*
X182663857Y-54940928D01*
X182736428Y-54868357D01*
X182772714Y-54759500D01*
X182772714Y-54578071D01*
X182010714Y-55267500D02*
X182010714Y-55739214D01*
X182301000Y-55485214D01*
X182301000Y-55594071D01*
X182337285Y-55666642D01*
X182373571Y-55702928D01*
X182446142Y-55739214D01*
X182627571Y-55739214D01*
X182700142Y-55702928D01*
X182736428Y-55666642D01*
X182772714Y-55594071D01*
X182772714Y-55376357D01*
X182736428Y-55303785D01*
X182700142Y-55267500D01*
X161427174Y-58156860D02*
X161971460Y-58156860D01*
X162080317Y-58120574D01*
X162152888Y-58048002D01*
X162189174Y-57939145D01*
X162189174Y-57866574D01*
X162189174Y-58918860D02*
X162189174Y-58483431D01*
X162189174Y-58701145D02*
X161427174Y-58701145D01*
X161536031Y-58628574D01*
X161608602Y-58556002D01*
X161644888Y-58483431D01*
X175668072Y-66384714D02*
X175668072Y-67001571D01*
X175631786Y-67074142D01*
X175595501Y-67110428D01*
X175522929Y-67146714D01*
X175377786Y-67146714D01*
X175305215Y-67110428D01*
X175268929Y-67074142D01*
X175232643Y-67001571D01*
X175232643Y-66384714D01*
X174470643Y-67146714D02*
X174906072Y-67146714D01*
X174688358Y-67146714D02*
X174688358Y-66384714D01*
X174760929Y-66493571D01*
X174833501Y-66566142D01*
X174906072Y-66602428D01*
X173784330Y-74345714D02*
X173784330Y-74890000D01*
X173820615Y-74998857D01*
X173893187Y-75071428D01*
X174002044Y-75107714D01*
X174074615Y-75107714D01*
X173457758Y-74418285D02*
X173421472Y-74382000D01*
X173348901Y-74345714D01*
X173167472Y-74345714D01*
X173094901Y-74382000D01*
X173058615Y-74418285D01*
X173022330Y-74490857D01*
X173022330Y-74563428D01*
X173058615Y-74672285D01*
X173494044Y-75107714D01*
X173022330Y-75107714D01*
X168483642Y-61468000D02*
X168519928Y-61431714D01*
X168556214Y-61322857D01*
X168556214Y-61250285D01*
X168519928Y-61141428D01*
X168447357Y-61068857D01*
X168374785Y-61032571D01*
X168229642Y-60996285D01*
X168120785Y-60996285D01*
X167975642Y-61032571D01*
X167903071Y-61068857D01*
X167830500Y-61141428D01*
X167794214Y-61250285D01*
X167794214Y-61322857D01*
X167830500Y-61431714D01*
X167866785Y-61468000D01*
X167794214Y-62121142D02*
X167794214Y-61976000D01*
X167830500Y-61903428D01*
X167866785Y-61867142D01*
X167975642Y-61794571D01*
X168120785Y-61758285D01*
X168411071Y-61758285D01*
X168483642Y-61794571D01*
X168519928Y-61830857D01*
X168556214Y-61903428D01*
X168556214Y-62048571D01*
X168519928Y-62121142D01*
X168483642Y-62157428D01*
X168411071Y-62193714D01*
X168229642Y-62193714D01*
X168157071Y-62157428D01*
X168120785Y-62121142D01*
X168084500Y-62048571D01*
X168084500Y-61903428D01*
X168120785Y-61830857D01*
X168157071Y-61794571D01*
X168229642Y-61758285D01*
X176149000Y-55771142D02*
X176185285Y-55807428D01*
X176294142Y-55843714D01*
X176366714Y-55843714D01*
X176475571Y-55807428D01*
X176548142Y-55734857D01*
X176584428Y-55662285D01*
X176620714Y-55517142D01*
X176620714Y-55408285D01*
X176584428Y-55263142D01*
X176548142Y-55190571D01*
X176475571Y-55118000D01*
X176366714Y-55081714D01*
X176294142Y-55081714D01*
X176185285Y-55118000D01*
X176149000Y-55154285D01*
X175786142Y-55843714D02*
X175641000Y-55843714D01*
X175568428Y-55807428D01*
X175532142Y-55771142D01*
X175459571Y-55662285D01*
X175423285Y-55517142D01*
X175423285Y-55226857D01*
X175459571Y-55154285D01*
X175495857Y-55118000D01*
X175568428Y-55081714D01*
X175713571Y-55081714D01*
X175786142Y-55118000D01*
X175822428Y-55154285D01*
X175858714Y-55226857D01*
X175858714Y-55408285D01*
X175822428Y-55480857D01*
X175786142Y-55517142D01*
X175713571Y-55553428D01*
X175568428Y-55553428D01*
X175495857Y-55517142D01*
X175459571Y-55480857D01*
X175423285Y-55408285D01*
X184287325Y-59018714D02*
X184287325Y-58256714D01*
X184105897Y-58256714D01*
X183997040Y-58293000D01*
X183924468Y-58365571D01*
X183888182Y-58438142D01*
X183851897Y-58583285D01*
X183851897Y-58692142D01*
X183888182Y-58837285D01*
X183924468Y-58909857D01*
X183997040Y-58982428D01*
X184105897Y-59018714D01*
X184287325Y-59018714D01*
X183126182Y-59018714D02*
X183561611Y-59018714D01*
X183343897Y-59018714D02*
X183343897Y-58256714D01*
X183416468Y-58365571D01*
X183489040Y-58438142D01*
X183561611Y-58474428D01*
X176642911Y-60769558D02*
X176642911Y-61386415D01*
X176606625Y-61458986D01*
X176570340Y-61495272D01*
X176497768Y-61531558D01*
X176352625Y-61531558D01*
X176280054Y-61495272D01*
X176243768Y-61458986D01*
X176207482Y-61386415D01*
X176207482Y-60769558D01*
X175880911Y-60842129D02*
X175844625Y-60805844D01*
X175772054Y-60769558D01*
X175590625Y-60769558D01*
X175518054Y-60805844D01*
X175481768Y-60842129D01*
X175445482Y-60914701D01*
X175445482Y-60987272D01*
X175481768Y-61096129D01*
X175917197Y-61531558D01*
X175445482Y-61531558D01*
X169127714Y-52142571D02*
X168365714Y-52142571D01*
X168365714Y-52324000D01*
X168402000Y-52432857D01*
X168474571Y-52505428D01*
X168547142Y-52541714D01*
X168692285Y-52578000D01*
X168801142Y-52578000D01*
X168946285Y-52541714D01*
X169018857Y-52505428D01*
X169091428Y-52432857D01*
X169127714Y-52324000D01*
X169127714Y-52142571D01*
X168438285Y-52868285D02*
X168402000Y-52904571D01*
X168365714Y-52977142D01*
X168365714Y-53158571D01*
X168402000Y-53231142D01*
X168438285Y-53267428D01*
X168510857Y-53303714D01*
X168583428Y-53303714D01*
X168692285Y-53267428D01*
X169127714Y-52832000D01*
X169127714Y-53303714D01*
X179414714Y-67119500D02*
X179051857Y-66865500D01*
X179414714Y-66684071D02*
X178652714Y-66684071D01*
X178652714Y-66974357D01*
X178689000Y-67046928D01*
X178725285Y-67083214D01*
X178797857Y-67119500D01*
X178906714Y-67119500D01*
X178979285Y-67083214D01*
X179015571Y-67046928D01*
X179051857Y-66974357D01*
X179051857Y-66684071D01*
X178652714Y-67772642D02*
X178652714Y-67627500D01*
X178689000Y-67554928D01*
X178725285Y-67518642D01*
X178834142Y-67446071D01*
X178979285Y-67409785D01*
X179269571Y-67409785D01*
X179342142Y-67446071D01*
X179378428Y-67482357D01*
X179414714Y-67554928D01*
X179414714Y-67700071D01*
X179378428Y-67772642D01*
X179342142Y-67808928D01*
X179269571Y-67845214D01*
X179088142Y-67845214D01*
X179015571Y-67808928D01*
X178979285Y-67772642D01*
X178943000Y-67700071D01*
X178943000Y-67554928D01*
X178979285Y-67482357D01*
X179015571Y-67446071D01*
X179088142Y-67409785D01*
X178081214Y-67119500D02*
X177718357Y-66865500D01*
X178081214Y-66684071D02*
X177319214Y-66684071D01*
X177319214Y-66974357D01*
X177355500Y-67046928D01*
X177391785Y-67083214D01*
X177464357Y-67119500D01*
X177573214Y-67119500D01*
X177645785Y-67083214D01*
X177682071Y-67046928D01*
X177718357Y-66974357D01*
X177718357Y-66684071D01*
X177319214Y-67808928D02*
X177319214Y-67446071D01*
X177682071Y-67409785D01*
X177645785Y-67446071D01*
X177609500Y-67518642D01*
X177609500Y-67700071D01*
X177645785Y-67772642D01*
X177682071Y-67808928D01*
X177754642Y-67845214D01*
X177936071Y-67845214D01*
X178008642Y-67808928D01*
X178044928Y-67772642D01*
X178081214Y-67700071D01*
X178081214Y-67518642D01*
X178044928Y-67446071D01*
X178008642Y-67409785D01*
X179224214Y-50881642D02*
X178861357Y-50627642D01*
X179224214Y-50446214D02*
X178462214Y-50446214D01*
X178462214Y-50736500D01*
X178498500Y-50809071D01*
X178534785Y-50845357D01*
X178607357Y-50881642D01*
X178716214Y-50881642D01*
X178788785Y-50845357D01*
X178825071Y-50809071D01*
X178861357Y-50736500D01*
X178861357Y-50446214D01*
X179224214Y-51607357D02*
X179224214Y-51171928D01*
X179224214Y-51389642D02*
X178462214Y-51389642D01*
X178571071Y-51317071D01*
X178643642Y-51244500D01*
X178679928Y-51171928D01*
X178462214Y-52260500D02*
X178462214Y-52115357D01*
X178498500Y-52042785D01*
X178534785Y-52006500D01*
X178643642Y-51933928D01*
X178788785Y-51897642D01*
X179079071Y-51897642D01*
X179151642Y-51933928D01*
X179187928Y-51970214D01*
X179224214Y-52042785D01*
X179224214Y-52187928D01*
X179187928Y-52260500D01*
X179151642Y-52296785D01*
X179079071Y-52333071D01*
X178897642Y-52333071D01*
X178825071Y-52296785D01*
X178788785Y-52260500D01*
X178752500Y-52187928D01*
X178752500Y-52042785D01*
X178788785Y-51970214D01*
X178825071Y-51933928D01*
X178897642Y-51897642D01*
X176149000Y-57739642D02*
X176185285Y-57775928D01*
X176294142Y-57812214D01*
X176366714Y-57812214D01*
X176475571Y-57775928D01*
X176548142Y-57703357D01*
X176584428Y-57630785D01*
X176620714Y-57485642D01*
X176620714Y-57376785D01*
X176584428Y-57231642D01*
X176548142Y-57159071D01*
X176475571Y-57086500D01*
X176366714Y-57050214D01*
X176294142Y-57050214D01*
X176185285Y-57086500D01*
X176149000Y-57122785D01*
X175713571Y-57376785D02*
X175786142Y-57340500D01*
X175822428Y-57304214D01*
X175858714Y-57231642D01*
X175858714Y-57195357D01*
X175822428Y-57122785D01*
X175786142Y-57086500D01*
X175713571Y-57050214D01*
X175568428Y-57050214D01*
X175495857Y-57086500D01*
X175459571Y-57122785D01*
X175423285Y-57195357D01*
X175423285Y-57231642D01*
X175459571Y-57304214D01*
X175495857Y-57340500D01*
X175568428Y-57376785D01*
X175713571Y-57376785D01*
X175786142Y-57413071D01*
X175822428Y-57449357D01*
X175858714Y-57521928D01*
X175858714Y-57667071D01*
X175822428Y-57739642D01*
X175786142Y-57775928D01*
X175713571Y-57812214D01*
X175568428Y-57812214D01*
X175495857Y-57775928D01*
X175459571Y-57739642D01*
X175423285Y-57667071D01*
X175423285Y-57521928D01*
X175459571Y-57449357D01*
X175495857Y-57413071D01*
X175568428Y-57376785D01*
X164927642Y-51961142D02*
X164963928Y-51924857D01*
X165000214Y-51816000D01*
X165000214Y-51743428D01*
X164963928Y-51634571D01*
X164891357Y-51562000D01*
X164818785Y-51525714D01*
X164673642Y-51489428D01*
X164564785Y-51489428D01*
X164419642Y-51525714D01*
X164347071Y-51562000D01*
X164274500Y-51634571D01*
X164238214Y-51743428D01*
X164238214Y-51816000D01*
X164274500Y-51924857D01*
X164310785Y-51961142D01*
X165000214Y-52686857D02*
X165000214Y-52251428D01*
X165000214Y-52469142D02*
X164238214Y-52469142D01*
X164347071Y-52396571D01*
X164419642Y-52324000D01*
X164455928Y-52251428D01*
X164310785Y-52977142D02*
X164274500Y-53013428D01*
X164238214Y-53086000D01*
X164238214Y-53267428D01*
X164274500Y-53340000D01*
X164310785Y-53376285D01*
X164383357Y-53412571D01*
X164455928Y-53412571D01*
X164564785Y-53376285D01*
X165000214Y-52940857D01*
X165000214Y-53412571D01*
X166451642Y-55707642D02*
X166487928Y-55671357D01*
X166524214Y-55562500D01*
X166524214Y-55489928D01*
X166487928Y-55381071D01*
X166415357Y-55308500D01*
X166342785Y-55272214D01*
X166197642Y-55235928D01*
X166088785Y-55235928D01*
X165943642Y-55272214D01*
X165871071Y-55308500D01*
X165798500Y-55381071D01*
X165762214Y-55489928D01*
X165762214Y-55562500D01*
X165798500Y-55671357D01*
X165834785Y-55707642D01*
X166524214Y-56433357D02*
X166524214Y-55997928D01*
X166524214Y-56215642D02*
X165762214Y-56215642D01*
X165871071Y-56143071D01*
X165943642Y-56070500D01*
X165979928Y-55997928D01*
X165762214Y-56687357D02*
X165762214Y-57159071D01*
X166052500Y-56905071D01*
X166052500Y-57013928D01*
X166088785Y-57086500D01*
X166125071Y-57122785D01*
X166197642Y-57159071D01*
X166379071Y-57159071D01*
X166451642Y-57122785D01*
X166487928Y-57086500D01*
X166524214Y-57013928D01*
X166524214Y-56796214D01*
X166487928Y-56723642D01*
X166451642Y-56687357D01*
X176811214Y-67119500D02*
X176448357Y-66865500D01*
X176811214Y-66684071D02*
X176049214Y-66684071D01*
X176049214Y-66974357D01*
X176085500Y-67046928D01*
X176121785Y-67083214D01*
X176194357Y-67119500D01*
X176303214Y-67119500D01*
X176375785Y-67083214D01*
X176412071Y-67046928D01*
X176448357Y-66974357D01*
X176448357Y-66684071D01*
X176049214Y-67373500D02*
X176049214Y-67881500D01*
X176811214Y-67554928D01*
X172892357Y-66284714D02*
X173146357Y-65921857D01*
X173327785Y-66284714D02*
X173327785Y-65522714D01*
X173037500Y-65522714D01*
X172964928Y-65559000D01*
X172928642Y-65595285D01*
X172892357Y-65667857D01*
X172892357Y-65776714D01*
X172928642Y-65849285D01*
X172964928Y-65885571D01*
X173037500Y-65921857D01*
X173327785Y-65921857D01*
X172166642Y-66284714D02*
X172602071Y-66284714D01*
X172384357Y-66284714D02*
X172384357Y-65522714D01*
X172456928Y-65631571D01*
X172529500Y-65704142D01*
X172602071Y-65740428D01*
X171440928Y-66284714D02*
X171876357Y-66284714D01*
X171658642Y-66284714D02*
X171658642Y-65522714D01*
X171731214Y-65631571D01*
X171803785Y-65704142D01*
X171876357Y-65740428D01*
X172529500Y-68607214D02*
X172783500Y-68244357D01*
X172964928Y-68607214D02*
X172964928Y-67845214D01*
X172674642Y-67845214D01*
X172602071Y-67881500D01*
X172565785Y-67917785D01*
X172529500Y-67990357D01*
X172529500Y-68099214D01*
X172565785Y-68171785D01*
X172602071Y-68208071D01*
X172674642Y-68244357D01*
X172964928Y-68244357D01*
X172166642Y-68607214D02*
X172021500Y-68607214D01*
X171948928Y-68570928D01*
X171912642Y-68534642D01*
X171840071Y-68425785D01*
X171803785Y-68280642D01*
X171803785Y-67990357D01*
X171840071Y-67917785D01*
X171876357Y-67881500D01*
X171948928Y-67845214D01*
X172094071Y-67845214D01*
X172166642Y-67881500D01*
X172202928Y-67917785D01*
X172239214Y-67990357D01*
X172239214Y-68171785D01*
X172202928Y-68244357D01*
X172166642Y-68280642D01*
X172094071Y-68316928D01*
X171948928Y-68316928D01*
X171876357Y-68280642D01*
X171840071Y-68244357D01*
X171803785Y-68171785D01*
X172892357Y-67554714D02*
X173146357Y-67191857D01*
X173327785Y-67554714D02*
X173327785Y-66792714D01*
X173037500Y-66792714D01*
X172964928Y-66829000D01*
X172928642Y-66865285D01*
X172892357Y-66937857D01*
X172892357Y-67046714D01*
X172928642Y-67119285D01*
X172964928Y-67155571D01*
X173037500Y-67191857D01*
X173327785Y-67191857D01*
X172166642Y-67554714D02*
X172602071Y-67554714D01*
X172384357Y-67554714D02*
X172384357Y-66792714D01*
X172456928Y-66901571D01*
X172529500Y-66974142D01*
X172602071Y-67010428D01*
X171694928Y-66792714D02*
X171622357Y-66792714D01*
X171549785Y-66829000D01*
X171513500Y-66865285D01*
X171477214Y-66937857D01*
X171440928Y-67083000D01*
X171440928Y-67264428D01*
X171477214Y-67409571D01*
X171513500Y-67482142D01*
X171549785Y-67518428D01*
X171622357Y-67554714D01*
X171694928Y-67554714D01*
X171767500Y-67518428D01*
X171803785Y-67482142D01*
X171840071Y-67409571D01*
X171876357Y-67264428D01*
X171876357Y-67083000D01*
X171840071Y-66937857D01*
X171803785Y-66865285D01*
X171767500Y-66829000D01*
X171694928Y-66792714D01*
X174942500Y-66194214D02*
X175196500Y-65831357D01*
X175377928Y-66194214D02*
X175377928Y-65432214D01*
X175087642Y-65432214D01*
X175015071Y-65468500D01*
X174978785Y-65504785D01*
X174942500Y-65577357D01*
X174942500Y-65686214D01*
X174978785Y-65758785D01*
X175015071Y-65795071D01*
X175087642Y-65831357D01*
X175377928Y-65831357D01*
X174507071Y-65758785D02*
X174579642Y-65722500D01*
X174615928Y-65686214D01*
X174652214Y-65613642D01*
X174652214Y-65577357D01*
X174615928Y-65504785D01*
X174579642Y-65468500D01*
X174507071Y-65432214D01*
X174361928Y-65432214D01*
X174289357Y-65468500D01*
X174253071Y-65504785D01*
X174216785Y-65577357D01*
X174216785Y-65613642D01*
X174253071Y-65686214D01*
X174289357Y-65722500D01*
X174361928Y-65758785D01*
X174507071Y-65758785D01*
X174579642Y-65795071D01*
X174615928Y-65831357D01*
X174652214Y-65903928D01*
X174652214Y-66049071D01*
X174615928Y-66121642D01*
X174579642Y-66157928D01*
X174507071Y-66194214D01*
X174361928Y-66194214D01*
X174289357Y-66157928D01*
X174253071Y-66121642D01*
X174216785Y-66049071D01*
X174216785Y-65903928D01*
X174253071Y-65831357D01*
X174289357Y-65795071D01*
X174361928Y-65758785D01*
X182544357Y-62193714D02*
X182798357Y-61830857D01*
X182979785Y-62193714D02*
X182979785Y-61431714D01*
X182689500Y-61431714D01*
X182616928Y-61468000D01*
X182580642Y-61504285D01*
X182544357Y-61576857D01*
X182544357Y-61685714D01*
X182580642Y-61758285D01*
X182616928Y-61794571D01*
X182689500Y-61830857D01*
X182979785Y-61830857D01*
X181818642Y-62193714D02*
X182254071Y-62193714D01*
X182036357Y-62193714D02*
X182036357Y-61431714D01*
X182108928Y-61540571D01*
X182181500Y-61613142D01*
X182254071Y-61649428D01*
X181165500Y-61685714D02*
X181165500Y-62193714D01*
X181346928Y-61395428D02*
X181528357Y-61939714D01*
X181056642Y-61939714D01*
X181510214Y-50881642D02*
X181147357Y-50627642D01*
X181510214Y-50446214D02*
X180748214Y-50446214D01*
X180748214Y-50736500D01*
X180784500Y-50809071D01*
X180820785Y-50845357D01*
X180893357Y-50881642D01*
X181002214Y-50881642D01*
X181074785Y-50845357D01*
X181111071Y-50809071D01*
X181147357Y-50736500D01*
X181147357Y-50446214D01*
X181510214Y-51607357D02*
X181510214Y-51171928D01*
X181510214Y-51389642D02*
X180748214Y-51389642D01*
X180857071Y-51317071D01*
X180929642Y-51244500D01*
X180965928Y-51171928D01*
X180748214Y-52296785D02*
X180748214Y-51933928D01*
X181111071Y-51897642D01*
X181074785Y-51933928D01*
X181038500Y-52006500D01*
X181038500Y-52187928D01*
X181074785Y-52260500D01*
X181111071Y-52296785D01*
X181183642Y-52333071D01*
X181365071Y-52333071D01*
X181437642Y-52296785D01*
X181473928Y-52260500D01*
X181510214Y-52187928D01*
X181510214Y-52006500D01*
X181473928Y-51933928D01*
X181437642Y-51897642D01*
X166986857Y-62257214D02*
X167240857Y-61894357D01*
X167422285Y-62257214D02*
X167422285Y-61495214D01*
X167132000Y-61495214D01*
X167059428Y-61531500D01*
X167023142Y-61567785D01*
X166986857Y-61640357D01*
X166986857Y-61749214D01*
X167023142Y-61821785D01*
X167059428Y-61858071D01*
X167132000Y-61894357D01*
X167422285Y-61894357D01*
X166261142Y-62257214D02*
X166696571Y-62257214D01*
X166478857Y-62257214D02*
X166478857Y-61495214D01*
X166551428Y-61604071D01*
X166624000Y-61676642D01*
X166696571Y-61712928D01*
X166007142Y-61495214D02*
X165499142Y-61495214D01*
X165825714Y-62257214D01*
X168556214Y-67264642D02*
X168193357Y-67010642D01*
X168556214Y-66829214D02*
X167794214Y-66829214D01*
X167794214Y-67119500D01*
X167830500Y-67192071D01*
X167866785Y-67228357D01*
X167939357Y-67264642D01*
X168048214Y-67264642D01*
X168120785Y-67228357D01*
X168157071Y-67192071D01*
X168193357Y-67119500D01*
X168193357Y-66829214D01*
X168556214Y-67990357D02*
X168556214Y-67554928D01*
X168556214Y-67772642D02*
X167794214Y-67772642D01*
X167903071Y-67700071D01*
X167975642Y-67627500D01*
X168011928Y-67554928D01*
X168120785Y-68425785D02*
X168084500Y-68353214D01*
X168048214Y-68316928D01*
X167975642Y-68280642D01*
X167939357Y-68280642D01*
X167866785Y-68316928D01*
X167830500Y-68353214D01*
X167794214Y-68425785D01*
X167794214Y-68570928D01*
X167830500Y-68643500D01*
X167866785Y-68679785D01*
X167939357Y-68716071D01*
X167975642Y-68716071D01*
X168048214Y-68679785D01*
X168084500Y-68643500D01*
X168120785Y-68570928D01*
X168120785Y-68425785D01*
X168157071Y-68353214D01*
X168193357Y-68316928D01*
X168265928Y-68280642D01*
X168411071Y-68280642D01*
X168483642Y-68316928D01*
X168519928Y-68353214D01*
X168556214Y-68425785D01*
X168556214Y-68570928D01*
X168519928Y-68643500D01*
X168483642Y-68679785D01*
X168411071Y-68716071D01*
X168265928Y-68716071D01*
X168193357Y-68679785D01*
X168157071Y-68643500D01*
X168120785Y-68570928D01*
X172720000Y-60860214D02*
X172974000Y-60497357D01*
X173155428Y-60860214D02*
X173155428Y-60098214D01*
X172865142Y-60098214D01*
X172792571Y-60134500D01*
X172756285Y-60170785D01*
X172720000Y-60243357D01*
X172720000Y-60352214D01*
X172756285Y-60424785D01*
X172792571Y-60461071D01*
X172865142Y-60497357D01*
X173155428Y-60497357D01*
X171994285Y-60860214D02*
X172429714Y-60860214D01*
X172212000Y-60860214D02*
X172212000Y-60098214D01*
X172284571Y-60207071D01*
X172357142Y-60279642D01*
X172429714Y-60315928D01*
X176575357Y-51961142D02*
X176611642Y-51997428D01*
X176720500Y-52033714D01*
X176793071Y-52033714D01*
X176901928Y-51997428D01*
X176974500Y-51924857D01*
X177010785Y-51852285D01*
X177047071Y-51707142D01*
X177047071Y-51598285D01*
X177010785Y-51453142D01*
X176974500Y-51380571D01*
X176901928Y-51308000D01*
X176793071Y-51271714D01*
X176720500Y-51271714D01*
X176611642Y-51308000D01*
X176575357Y-51344285D01*
X175849642Y-52033714D02*
X176285071Y-52033714D01*
X176067357Y-52033714D02*
X176067357Y-51271714D01*
X176139928Y-51380571D01*
X176212500Y-51453142D01*
X176285071Y-51489428D01*
X175123928Y-52033714D02*
X175559357Y-52033714D01*
X175341642Y-52033714D02*
X175341642Y-51271714D01*
X175414214Y-51380571D01*
X175486785Y-51453142D01*
X175559357Y-51489428D01*
X173482000Y-59390642D02*
X173518285Y-59426928D01*
X173627142Y-59463214D01*
X173699714Y-59463214D01*
X173808571Y-59426928D01*
X173881142Y-59354357D01*
X173917428Y-59281785D01*
X173953714Y-59136642D01*
X173953714Y-59027785D01*
X173917428Y-58882642D01*
X173881142Y-58810071D01*
X173808571Y-58737500D01*
X173699714Y-58701214D01*
X173627142Y-58701214D01*
X173518285Y-58737500D01*
X173482000Y-58773785D01*
X173228000Y-58701214D02*
X172720000Y-58701214D01*
X173046571Y-59463214D01*
X180294642Y-63182500D02*
X180330928Y-63146214D01*
X180367214Y-63037357D01*
X180367214Y-62964785D01*
X180330928Y-62855928D01*
X180258357Y-62783357D01*
X180185785Y-62747071D01*
X180040642Y-62710785D01*
X179931785Y-62710785D01*
X179786642Y-62747071D01*
X179714071Y-62783357D01*
X179641500Y-62855928D01*
X179605214Y-62964785D01*
X179605214Y-63037357D01*
X179641500Y-63146214D01*
X179677785Y-63182500D01*
X179859214Y-63835642D02*
X180367214Y-63835642D01*
X179568928Y-63654214D02*
X180113214Y-63472785D01*
X180113214Y-63944500D01*
X183896000Y-55771142D02*
X183932285Y-55807428D01*
X184041142Y-55843714D01*
X184113714Y-55843714D01*
X184222571Y-55807428D01*
X184295142Y-55734857D01*
X184331428Y-55662285D01*
X184367714Y-55517142D01*
X184367714Y-55408285D01*
X184331428Y-55263142D01*
X184295142Y-55190571D01*
X184222571Y-55118000D01*
X184113714Y-55081714D01*
X184041142Y-55081714D01*
X183932285Y-55118000D01*
X183896000Y-55154285D01*
X183605714Y-55154285D02*
X183569428Y-55118000D01*
X183496857Y-55081714D01*
X183315428Y-55081714D01*
X183242857Y-55118000D01*
X183206571Y-55154285D01*
X183170285Y-55226857D01*
X183170285Y-55299428D01*
X183206571Y-55408285D01*
X183642000Y-55843714D01*
X183170285Y-55843714D01*
X167467642Y-51961142D02*
X167503928Y-51924857D01*
X167540214Y-51816000D01*
X167540214Y-51743428D01*
X167503928Y-51634571D01*
X167431357Y-51562000D01*
X167358785Y-51525714D01*
X167213642Y-51489428D01*
X167104785Y-51489428D01*
X166959642Y-51525714D01*
X166887071Y-51562000D01*
X166814500Y-51634571D01*
X166778214Y-51743428D01*
X166778214Y-51816000D01*
X166814500Y-51924857D01*
X166850785Y-51961142D01*
X167540214Y-52686857D02*
X167540214Y-52251428D01*
X167540214Y-52469142D02*
X166778214Y-52469142D01*
X166887071Y-52396571D01*
X166959642Y-52324000D01*
X166995928Y-52251428D01*
X166778214Y-53158571D02*
X166778214Y-53231142D01*
X166814500Y-53303714D01*
X166850785Y-53340000D01*
X166923357Y-53376285D01*
X167068500Y-53412571D01*
X167249928Y-53412571D01*
X167395071Y-53376285D01*
X167467642Y-53340000D01*
X167503928Y-53303714D01*
X167540214Y-53231142D01*
X167540214Y-53158571D01*
X167503928Y-53086000D01*
X167467642Y-53049714D01*
X167395071Y-53013428D01*
X167249928Y-52977142D01*
X167068500Y-52977142D01*
X166923357Y-53013428D01*
X166850785Y-53049714D01*
X166814500Y-53086000D01*
X166778214Y-53158571D01*
X180086000Y-59581142D02*
X180122285Y-59617428D01*
X180231142Y-59653714D01*
X180303714Y-59653714D01*
X180412571Y-59617428D01*
X180485142Y-59544857D01*
X180521428Y-59472285D01*
X180557714Y-59327142D01*
X180557714Y-59218285D01*
X180521428Y-59073142D01*
X180485142Y-59000571D01*
X180412571Y-58928000D01*
X180303714Y-58891714D01*
X180231142Y-58891714D01*
X180122285Y-58928000D01*
X180086000Y-58964285D01*
X179832000Y-58891714D02*
X179360285Y-58891714D01*
X179614285Y-59182000D01*
X179505428Y-59182000D01*
X179432857Y-59218285D01*
X179396571Y-59254571D01*
X179360285Y-59327142D01*
X179360285Y-59508571D01*
X179396571Y-59581142D01*
X179432857Y-59617428D01*
X179505428Y-59653714D01*
X179723142Y-59653714D01*
X179795714Y-59617428D01*
X179832000Y-59581142D01*
X170688000Y-63708642D02*
X170724285Y-63744928D01*
X170833142Y-63781214D01*
X170905714Y-63781214D01*
X171014571Y-63744928D01*
X171087142Y-63672357D01*
X171123428Y-63599785D01*
X171159714Y-63454642D01*
X171159714Y-63345785D01*
X171123428Y-63200642D01*
X171087142Y-63128071D01*
X171014571Y-63055500D01*
X170905714Y-63019214D01*
X170833142Y-63019214D01*
X170724285Y-63055500D01*
X170688000Y-63091785D01*
X169962285Y-63781214D02*
X170397714Y-63781214D01*
X170180000Y-63781214D02*
X170180000Y-63019214D01*
X170252571Y-63128071D01*
X170325142Y-63200642D01*
X170397714Y-63236928D01*
M02*
