%TF.GenerationSoftware,KiCad,Pcbnew,(5.1.4)-1*%
%TF.CreationDate,2019-10-27T14:01:39-07:00*%
%TF.ProjectId,SolarCell+Y,536f6c61-7243-4656-9c6c-2b592e6b6963,rev?*%
%TF.SameCoordinates,Original*%
%TF.FileFunction,Paste,Bot*%
%TF.FilePolarity,Positive*%
%FSLAX46Y46*%
G04 Gerber Fmt 4.6, Leading zero omitted, Abs format (unit mm)*
G04 Created by KiCad (PCBNEW (5.1.4)-1) date 2019-10-27 14:01:39*
%MOMM*%
%LPD*%
G04 APERTURE LIST*
%ADD10C,0.050000*%
%ADD11C,0.100000*%
%ADD12C,0.590000*%
%ADD13C,0.875000*%
%ADD14R,0.800000X0.800000*%
%ADD15R,1.100000X2.000000*%
%ADD16R,1.500000X1.700000*%
%ADD17R,1.100000X0.250000*%
%ADD18R,0.500000X0.300000*%
%ADD19R,1.050000X1.050000*%
%ADD20R,1.050000X2.250000*%
%ADD21R,0.700000X0.500000*%
%ADD22R,2.150000X2.150000*%
%ADD23R,0.300000X0.900000*%
%ADD24R,0.900000X0.300000*%
%ADD25R,1.435100X4.394200*%
G04 APERTURE END LIST*
D10*
X198500000Y-42500000D02*
G75*
G03X198500000Y-42500000I-1100000J0D01*
G01*
X198500000Y-87500000D02*
G75*
G03X198500000Y-87500000I-1100000J0D01*
G01*
X153600000Y-87400000D02*
G75*
G03X153600000Y-87400000I-1100000J0D01*
G01*
X200000000Y-40000000D02*
X150000000Y-40000000D01*
X200000000Y-90000000D02*
X200000000Y-40000000D01*
X150000000Y-90000000D02*
X200000000Y-90000000D01*
X150000000Y-40000000D02*
X150000000Y-90000000D01*
X153600000Y-42400000D02*
G75*
G03X153600000Y-42400000I-1100000J0D01*
G01*
D11*
G36*
X167524958Y-59497710D02*
G01*
X167539276Y-59499834D01*
X167553317Y-59503351D01*
X167566946Y-59508228D01*
X167580031Y-59514417D01*
X167592447Y-59521858D01*
X167604073Y-59530481D01*
X167614798Y-59540202D01*
X167624519Y-59550927D01*
X167633142Y-59562553D01*
X167640583Y-59574969D01*
X167646772Y-59588054D01*
X167651649Y-59601683D01*
X167655166Y-59615724D01*
X167657290Y-59630042D01*
X167658000Y-59644500D01*
X167658000Y-59989500D01*
X167657290Y-60003958D01*
X167655166Y-60018276D01*
X167651649Y-60032317D01*
X167646772Y-60045946D01*
X167640583Y-60059031D01*
X167633142Y-60071447D01*
X167624519Y-60083073D01*
X167614798Y-60093798D01*
X167604073Y-60103519D01*
X167592447Y-60112142D01*
X167580031Y-60119583D01*
X167566946Y-60125772D01*
X167553317Y-60130649D01*
X167539276Y-60134166D01*
X167524958Y-60136290D01*
X167510500Y-60137000D01*
X167215500Y-60137000D01*
X167201042Y-60136290D01*
X167186724Y-60134166D01*
X167172683Y-60130649D01*
X167159054Y-60125772D01*
X167145969Y-60119583D01*
X167133553Y-60112142D01*
X167121927Y-60103519D01*
X167111202Y-60093798D01*
X167101481Y-60083073D01*
X167092858Y-60071447D01*
X167085417Y-60059031D01*
X167079228Y-60045946D01*
X167074351Y-60032317D01*
X167070834Y-60018276D01*
X167068710Y-60003958D01*
X167068000Y-59989500D01*
X167068000Y-59644500D01*
X167068710Y-59630042D01*
X167070834Y-59615724D01*
X167074351Y-59601683D01*
X167079228Y-59588054D01*
X167085417Y-59574969D01*
X167092858Y-59562553D01*
X167101481Y-59550927D01*
X167111202Y-59540202D01*
X167121927Y-59530481D01*
X167133553Y-59521858D01*
X167145969Y-59514417D01*
X167159054Y-59508228D01*
X167172683Y-59503351D01*
X167186724Y-59499834D01*
X167201042Y-59497710D01*
X167215500Y-59497000D01*
X167510500Y-59497000D01*
X167524958Y-59497710D01*
X167524958Y-59497710D01*
G37*
D12*
X167363000Y-59817000D03*
D11*
G36*
X166554958Y-59497710D02*
G01*
X166569276Y-59499834D01*
X166583317Y-59503351D01*
X166596946Y-59508228D01*
X166610031Y-59514417D01*
X166622447Y-59521858D01*
X166634073Y-59530481D01*
X166644798Y-59540202D01*
X166654519Y-59550927D01*
X166663142Y-59562553D01*
X166670583Y-59574969D01*
X166676772Y-59588054D01*
X166681649Y-59601683D01*
X166685166Y-59615724D01*
X166687290Y-59630042D01*
X166688000Y-59644500D01*
X166688000Y-59989500D01*
X166687290Y-60003958D01*
X166685166Y-60018276D01*
X166681649Y-60032317D01*
X166676772Y-60045946D01*
X166670583Y-60059031D01*
X166663142Y-60071447D01*
X166654519Y-60083073D01*
X166644798Y-60093798D01*
X166634073Y-60103519D01*
X166622447Y-60112142D01*
X166610031Y-60119583D01*
X166596946Y-60125772D01*
X166583317Y-60130649D01*
X166569276Y-60134166D01*
X166554958Y-60136290D01*
X166540500Y-60137000D01*
X166245500Y-60137000D01*
X166231042Y-60136290D01*
X166216724Y-60134166D01*
X166202683Y-60130649D01*
X166189054Y-60125772D01*
X166175969Y-60119583D01*
X166163553Y-60112142D01*
X166151927Y-60103519D01*
X166141202Y-60093798D01*
X166131481Y-60083073D01*
X166122858Y-60071447D01*
X166115417Y-60059031D01*
X166109228Y-60045946D01*
X166104351Y-60032317D01*
X166100834Y-60018276D01*
X166098710Y-60003958D01*
X166098000Y-59989500D01*
X166098000Y-59644500D01*
X166098710Y-59630042D01*
X166100834Y-59615724D01*
X166104351Y-59601683D01*
X166109228Y-59588054D01*
X166115417Y-59574969D01*
X166122858Y-59562553D01*
X166131481Y-59550927D01*
X166141202Y-59540202D01*
X166151927Y-59530481D01*
X166163553Y-59521858D01*
X166175969Y-59514417D01*
X166189054Y-59508228D01*
X166202683Y-59503351D01*
X166216724Y-59499834D01*
X166231042Y-59497710D01*
X166245500Y-59497000D01*
X166540500Y-59497000D01*
X166554958Y-59497710D01*
X166554958Y-59497710D01*
G37*
D12*
X166393000Y-59817000D03*
D11*
G36*
X167537191Y-57882553D02*
G01*
X167558426Y-57885703D01*
X167579250Y-57890919D01*
X167599462Y-57898151D01*
X167618868Y-57907330D01*
X167637281Y-57918366D01*
X167654524Y-57931154D01*
X167670430Y-57945570D01*
X167684846Y-57961476D01*
X167697634Y-57978719D01*
X167708670Y-57997132D01*
X167717849Y-58016538D01*
X167725081Y-58036750D01*
X167730297Y-58057574D01*
X167733447Y-58078809D01*
X167734500Y-58100250D01*
X167734500Y-58612750D01*
X167733447Y-58634191D01*
X167730297Y-58655426D01*
X167725081Y-58676250D01*
X167717849Y-58696462D01*
X167708670Y-58715868D01*
X167697634Y-58734281D01*
X167684846Y-58751524D01*
X167670430Y-58767430D01*
X167654524Y-58781846D01*
X167637281Y-58794634D01*
X167618868Y-58805670D01*
X167599462Y-58814849D01*
X167579250Y-58822081D01*
X167558426Y-58827297D01*
X167537191Y-58830447D01*
X167515750Y-58831500D01*
X167078250Y-58831500D01*
X167056809Y-58830447D01*
X167035574Y-58827297D01*
X167014750Y-58822081D01*
X166994538Y-58814849D01*
X166975132Y-58805670D01*
X166956719Y-58794634D01*
X166939476Y-58781846D01*
X166923570Y-58767430D01*
X166909154Y-58751524D01*
X166896366Y-58734281D01*
X166885330Y-58715868D01*
X166876151Y-58696462D01*
X166868919Y-58676250D01*
X166863703Y-58655426D01*
X166860553Y-58634191D01*
X166859500Y-58612750D01*
X166859500Y-58100250D01*
X166860553Y-58078809D01*
X166863703Y-58057574D01*
X166868919Y-58036750D01*
X166876151Y-58016538D01*
X166885330Y-57997132D01*
X166896366Y-57978719D01*
X166909154Y-57961476D01*
X166923570Y-57945570D01*
X166939476Y-57931154D01*
X166956719Y-57918366D01*
X166975132Y-57907330D01*
X166994538Y-57898151D01*
X167014750Y-57890919D01*
X167035574Y-57885703D01*
X167056809Y-57882553D01*
X167078250Y-57881500D01*
X167515750Y-57881500D01*
X167537191Y-57882553D01*
X167537191Y-57882553D01*
G37*
D13*
X167297000Y-58356500D03*
D11*
G36*
X169112191Y-57882553D02*
G01*
X169133426Y-57885703D01*
X169154250Y-57890919D01*
X169174462Y-57898151D01*
X169193868Y-57907330D01*
X169212281Y-57918366D01*
X169229524Y-57931154D01*
X169245430Y-57945570D01*
X169259846Y-57961476D01*
X169272634Y-57978719D01*
X169283670Y-57997132D01*
X169292849Y-58016538D01*
X169300081Y-58036750D01*
X169305297Y-58057574D01*
X169308447Y-58078809D01*
X169309500Y-58100250D01*
X169309500Y-58612750D01*
X169308447Y-58634191D01*
X169305297Y-58655426D01*
X169300081Y-58676250D01*
X169292849Y-58696462D01*
X169283670Y-58715868D01*
X169272634Y-58734281D01*
X169259846Y-58751524D01*
X169245430Y-58767430D01*
X169229524Y-58781846D01*
X169212281Y-58794634D01*
X169193868Y-58805670D01*
X169174462Y-58814849D01*
X169154250Y-58822081D01*
X169133426Y-58827297D01*
X169112191Y-58830447D01*
X169090750Y-58831500D01*
X168653250Y-58831500D01*
X168631809Y-58830447D01*
X168610574Y-58827297D01*
X168589750Y-58822081D01*
X168569538Y-58814849D01*
X168550132Y-58805670D01*
X168531719Y-58794634D01*
X168514476Y-58781846D01*
X168498570Y-58767430D01*
X168484154Y-58751524D01*
X168471366Y-58734281D01*
X168460330Y-58715868D01*
X168451151Y-58696462D01*
X168443919Y-58676250D01*
X168438703Y-58655426D01*
X168435553Y-58634191D01*
X168434500Y-58612750D01*
X168434500Y-58100250D01*
X168435553Y-58078809D01*
X168438703Y-58057574D01*
X168443919Y-58036750D01*
X168451151Y-58016538D01*
X168460330Y-57997132D01*
X168471366Y-57978719D01*
X168484154Y-57961476D01*
X168498570Y-57945570D01*
X168514476Y-57931154D01*
X168531719Y-57918366D01*
X168550132Y-57907330D01*
X168569538Y-57898151D01*
X168589750Y-57890919D01*
X168610574Y-57885703D01*
X168631809Y-57882553D01*
X168653250Y-57881500D01*
X169090750Y-57881500D01*
X169112191Y-57882553D01*
X169112191Y-57882553D01*
G37*
D13*
X168872000Y-58356500D03*
D14*
X183642000Y-57320500D03*
D15*
X183642000Y-55420500D03*
D16*
X160628500Y-54139000D03*
X160628500Y-61939000D03*
D17*
X164528500Y-55789000D03*
X164528500Y-56289000D03*
X164528500Y-56789000D03*
X164528500Y-57289000D03*
X164528500Y-57789000D03*
X164528500Y-58289000D03*
X164528500Y-58789000D03*
X164528500Y-59289000D03*
X164528500Y-59789000D03*
X164528500Y-60289000D03*
D18*
X174587501Y-68135500D03*
X174587501Y-67585500D03*
X174587501Y-68685500D03*
X175587501Y-67585500D03*
X175587501Y-68685500D03*
X175587501Y-68135500D03*
D19*
X174625000Y-70357000D03*
D20*
X176100000Y-71882000D03*
X173150000Y-71882000D03*
D11*
G36*
X169568691Y-60866553D02*
G01*
X169589926Y-60869703D01*
X169610750Y-60874919D01*
X169630962Y-60882151D01*
X169650368Y-60891330D01*
X169668781Y-60902366D01*
X169686024Y-60915154D01*
X169701930Y-60929570D01*
X169716346Y-60945476D01*
X169729134Y-60962719D01*
X169740170Y-60981132D01*
X169749349Y-61000538D01*
X169756581Y-61020750D01*
X169761797Y-61041574D01*
X169764947Y-61062809D01*
X169766000Y-61084250D01*
X169766000Y-61521750D01*
X169764947Y-61543191D01*
X169761797Y-61564426D01*
X169756581Y-61585250D01*
X169749349Y-61605462D01*
X169740170Y-61624868D01*
X169729134Y-61643281D01*
X169716346Y-61660524D01*
X169701930Y-61676430D01*
X169686024Y-61690846D01*
X169668781Y-61703634D01*
X169650368Y-61714670D01*
X169630962Y-61723849D01*
X169610750Y-61731081D01*
X169589926Y-61736297D01*
X169568691Y-61739447D01*
X169547250Y-61740500D01*
X169034750Y-61740500D01*
X169013309Y-61739447D01*
X168992074Y-61736297D01*
X168971250Y-61731081D01*
X168951038Y-61723849D01*
X168931632Y-61714670D01*
X168913219Y-61703634D01*
X168895976Y-61690846D01*
X168880070Y-61676430D01*
X168865654Y-61660524D01*
X168852866Y-61643281D01*
X168841830Y-61624868D01*
X168832651Y-61605462D01*
X168825419Y-61585250D01*
X168820203Y-61564426D01*
X168817053Y-61543191D01*
X168816000Y-61521750D01*
X168816000Y-61084250D01*
X168817053Y-61062809D01*
X168820203Y-61041574D01*
X168825419Y-61020750D01*
X168832651Y-61000538D01*
X168841830Y-60981132D01*
X168852866Y-60962719D01*
X168865654Y-60945476D01*
X168880070Y-60929570D01*
X168895976Y-60915154D01*
X168913219Y-60902366D01*
X168931632Y-60891330D01*
X168951038Y-60882151D01*
X168971250Y-60874919D01*
X168992074Y-60869703D01*
X169013309Y-60866553D01*
X169034750Y-60865500D01*
X169547250Y-60865500D01*
X169568691Y-60866553D01*
X169568691Y-60866553D01*
G37*
D13*
X169291000Y-61303000D03*
D11*
G36*
X169568691Y-59291553D02*
G01*
X169589926Y-59294703D01*
X169610750Y-59299919D01*
X169630962Y-59307151D01*
X169650368Y-59316330D01*
X169668781Y-59327366D01*
X169686024Y-59340154D01*
X169701930Y-59354570D01*
X169716346Y-59370476D01*
X169729134Y-59387719D01*
X169740170Y-59406132D01*
X169749349Y-59425538D01*
X169756581Y-59445750D01*
X169761797Y-59466574D01*
X169764947Y-59487809D01*
X169766000Y-59509250D01*
X169766000Y-59946750D01*
X169764947Y-59968191D01*
X169761797Y-59989426D01*
X169756581Y-60010250D01*
X169749349Y-60030462D01*
X169740170Y-60049868D01*
X169729134Y-60068281D01*
X169716346Y-60085524D01*
X169701930Y-60101430D01*
X169686024Y-60115846D01*
X169668781Y-60128634D01*
X169650368Y-60139670D01*
X169630962Y-60148849D01*
X169610750Y-60156081D01*
X169589926Y-60161297D01*
X169568691Y-60164447D01*
X169547250Y-60165500D01*
X169034750Y-60165500D01*
X169013309Y-60164447D01*
X168992074Y-60161297D01*
X168971250Y-60156081D01*
X168951038Y-60148849D01*
X168931632Y-60139670D01*
X168913219Y-60128634D01*
X168895976Y-60115846D01*
X168880070Y-60101430D01*
X168865654Y-60085524D01*
X168852866Y-60068281D01*
X168841830Y-60049868D01*
X168832651Y-60030462D01*
X168825419Y-60010250D01*
X168820203Y-59989426D01*
X168817053Y-59968191D01*
X168816000Y-59946750D01*
X168816000Y-59509250D01*
X168817053Y-59487809D01*
X168820203Y-59466574D01*
X168825419Y-59445750D01*
X168832651Y-59425538D01*
X168841830Y-59406132D01*
X168852866Y-59387719D01*
X168865654Y-59370476D01*
X168880070Y-59354570D01*
X168895976Y-59340154D01*
X168913219Y-59327366D01*
X168931632Y-59316330D01*
X168951038Y-59307151D01*
X168971250Y-59299919D01*
X168992074Y-59294703D01*
X169013309Y-59291553D01*
X169034750Y-59290500D01*
X169547250Y-59290500D01*
X169568691Y-59291553D01*
X169568691Y-59291553D01*
G37*
D13*
X169291000Y-59728000D03*
D11*
G36*
X175719298Y-54263554D02*
G01*
X175733616Y-54265678D01*
X175747657Y-54269195D01*
X175761286Y-54274072D01*
X175774371Y-54280261D01*
X175786787Y-54287702D01*
X175798413Y-54296325D01*
X175809138Y-54306046D01*
X175818859Y-54316771D01*
X175827482Y-54328397D01*
X175834923Y-54340813D01*
X175841112Y-54353898D01*
X175845989Y-54367527D01*
X175849506Y-54381568D01*
X175851630Y-54395886D01*
X175852340Y-54410344D01*
X175852340Y-54755344D01*
X175851630Y-54769802D01*
X175849506Y-54784120D01*
X175845989Y-54798161D01*
X175841112Y-54811790D01*
X175834923Y-54824875D01*
X175827482Y-54837291D01*
X175818859Y-54848917D01*
X175809138Y-54859642D01*
X175798413Y-54869363D01*
X175786787Y-54877986D01*
X175774371Y-54885427D01*
X175761286Y-54891616D01*
X175747657Y-54896493D01*
X175733616Y-54900010D01*
X175719298Y-54902134D01*
X175704840Y-54902844D01*
X175409840Y-54902844D01*
X175395382Y-54902134D01*
X175381064Y-54900010D01*
X175367023Y-54896493D01*
X175353394Y-54891616D01*
X175340309Y-54885427D01*
X175327893Y-54877986D01*
X175316267Y-54869363D01*
X175305542Y-54859642D01*
X175295821Y-54848917D01*
X175287198Y-54837291D01*
X175279757Y-54824875D01*
X175273568Y-54811790D01*
X175268691Y-54798161D01*
X175265174Y-54784120D01*
X175263050Y-54769802D01*
X175262340Y-54755344D01*
X175262340Y-54410344D01*
X175263050Y-54395886D01*
X175265174Y-54381568D01*
X175268691Y-54367527D01*
X175273568Y-54353898D01*
X175279757Y-54340813D01*
X175287198Y-54328397D01*
X175295821Y-54316771D01*
X175305542Y-54306046D01*
X175316267Y-54296325D01*
X175327893Y-54287702D01*
X175340309Y-54280261D01*
X175353394Y-54274072D01*
X175367023Y-54269195D01*
X175381064Y-54265678D01*
X175395382Y-54263554D01*
X175409840Y-54262844D01*
X175704840Y-54262844D01*
X175719298Y-54263554D01*
X175719298Y-54263554D01*
G37*
D12*
X175557340Y-54582844D03*
D11*
G36*
X176689298Y-54263554D02*
G01*
X176703616Y-54265678D01*
X176717657Y-54269195D01*
X176731286Y-54274072D01*
X176744371Y-54280261D01*
X176756787Y-54287702D01*
X176768413Y-54296325D01*
X176779138Y-54306046D01*
X176788859Y-54316771D01*
X176797482Y-54328397D01*
X176804923Y-54340813D01*
X176811112Y-54353898D01*
X176815989Y-54367527D01*
X176819506Y-54381568D01*
X176821630Y-54395886D01*
X176822340Y-54410344D01*
X176822340Y-54755344D01*
X176821630Y-54769802D01*
X176819506Y-54784120D01*
X176815989Y-54798161D01*
X176811112Y-54811790D01*
X176804923Y-54824875D01*
X176797482Y-54837291D01*
X176788859Y-54848917D01*
X176779138Y-54859642D01*
X176768413Y-54869363D01*
X176756787Y-54877986D01*
X176744371Y-54885427D01*
X176731286Y-54891616D01*
X176717657Y-54896493D01*
X176703616Y-54900010D01*
X176689298Y-54902134D01*
X176674840Y-54902844D01*
X176379840Y-54902844D01*
X176365382Y-54902134D01*
X176351064Y-54900010D01*
X176337023Y-54896493D01*
X176323394Y-54891616D01*
X176310309Y-54885427D01*
X176297893Y-54877986D01*
X176286267Y-54869363D01*
X176275542Y-54859642D01*
X176265821Y-54848917D01*
X176257198Y-54837291D01*
X176249757Y-54824875D01*
X176243568Y-54811790D01*
X176238691Y-54798161D01*
X176235174Y-54784120D01*
X176233050Y-54769802D01*
X176232340Y-54755344D01*
X176232340Y-54410344D01*
X176233050Y-54395886D01*
X176235174Y-54381568D01*
X176238691Y-54367527D01*
X176243568Y-54353898D01*
X176249757Y-54340813D01*
X176257198Y-54328397D01*
X176265821Y-54316771D01*
X176275542Y-54306046D01*
X176286267Y-54296325D01*
X176297893Y-54287702D01*
X176310309Y-54280261D01*
X176323394Y-54274072D01*
X176337023Y-54269195D01*
X176351064Y-54265678D01*
X176365382Y-54263554D01*
X176379840Y-54262844D01*
X176674840Y-54262844D01*
X176689298Y-54263554D01*
X176689298Y-54263554D01*
G37*
D12*
X176527340Y-54582844D03*
D21*
X183105500Y-59626500D03*
X184405500Y-59626500D03*
D22*
X176062340Y-61186844D03*
D23*
X177062340Y-59486844D03*
X176562340Y-59486844D03*
X176062340Y-59486844D03*
X175562340Y-59486844D03*
X175062340Y-59486844D03*
D24*
X174362340Y-60186844D03*
X174362340Y-60686844D03*
X174362340Y-61186844D03*
X174362340Y-61686844D03*
X174362340Y-62186844D03*
D23*
X175062340Y-62886844D03*
X175562340Y-62886844D03*
X176062340Y-62886844D03*
X176562340Y-62886844D03*
X177062340Y-62886844D03*
D24*
X177762340Y-62186844D03*
X177762340Y-61686844D03*
X177762340Y-61186844D03*
X177762340Y-60686844D03*
X177762340Y-60186844D03*
D14*
X168783000Y-54249000D03*
D15*
X168783000Y-56149000D03*
D11*
G36*
X179256958Y-64752710D02*
G01*
X179271276Y-64754834D01*
X179285317Y-64758351D01*
X179298946Y-64763228D01*
X179312031Y-64769417D01*
X179324447Y-64776858D01*
X179336073Y-64785481D01*
X179346798Y-64795202D01*
X179356519Y-64805927D01*
X179365142Y-64817553D01*
X179372583Y-64829969D01*
X179378772Y-64843054D01*
X179383649Y-64856683D01*
X179387166Y-64870724D01*
X179389290Y-64885042D01*
X179390000Y-64899500D01*
X179390000Y-65194500D01*
X179389290Y-65208958D01*
X179387166Y-65223276D01*
X179383649Y-65237317D01*
X179378772Y-65250946D01*
X179372583Y-65264031D01*
X179365142Y-65276447D01*
X179356519Y-65288073D01*
X179346798Y-65298798D01*
X179336073Y-65308519D01*
X179324447Y-65317142D01*
X179312031Y-65324583D01*
X179298946Y-65330772D01*
X179285317Y-65335649D01*
X179271276Y-65339166D01*
X179256958Y-65341290D01*
X179242500Y-65342000D01*
X178897500Y-65342000D01*
X178883042Y-65341290D01*
X178868724Y-65339166D01*
X178854683Y-65335649D01*
X178841054Y-65330772D01*
X178827969Y-65324583D01*
X178815553Y-65317142D01*
X178803927Y-65308519D01*
X178793202Y-65298798D01*
X178783481Y-65288073D01*
X178774858Y-65276447D01*
X178767417Y-65264031D01*
X178761228Y-65250946D01*
X178756351Y-65237317D01*
X178752834Y-65223276D01*
X178750710Y-65208958D01*
X178750000Y-65194500D01*
X178750000Y-64899500D01*
X178750710Y-64885042D01*
X178752834Y-64870724D01*
X178756351Y-64856683D01*
X178761228Y-64843054D01*
X178767417Y-64829969D01*
X178774858Y-64817553D01*
X178783481Y-64805927D01*
X178793202Y-64795202D01*
X178803927Y-64785481D01*
X178815553Y-64776858D01*
X178827969Y-64769417D01*
X178841054Y-64763228D01*
X178854683Y-64758351D01*
X178868724Y-64754834D01*
X178883042Y-64752710D01*
X178897500Y-64752000D01*
X179242500Y-64752000D01*
X179256958Y-64752710D01*
X179256958Y-64752710D01*
G37*
D12*
X179070000Y-65047000D03*
D11*
G36*
X179256958Y-65722710D02*
G01*
X179271276Y-65724834D01*
X179285317Y-65728351D01*
X179298946Y-65733228D01*
X179312031Y-65739417D01*
X179324447Y-65746858D01*
X179336073Y-65755481D01*
X179346798Y-65765202D01*
X179356519Y-65775927D01*
X179365142Y-65787553D01*
X179372583Y-65799969D01*
X179378772Y-65813054D01*
X179383649Y-65826683D01*
X179387166Y-65840724D01*
X179389290Y-65855042D01*
X179390000Y-65869500D01*
X179390000Y-66164500D01*
X179389290Y-66178958D01*
X179387166Y-66193276D01*
X179383649Y-66207317D01*
X179378772Y-66220946D01*
X179372583Y-66234031D01*
X179365142Y-66246447D01*
X179356519Y-66258073D01*
X179346798Y-66268798D01*
X179336073Y-66278519D01*
X179324447Y-66287142D01*
X179312031Y-66294583D01*
X179298946Y-66300772D01*
X179285317Y-66305649D01*
X179271276Y-66309166D01*
X179256958Y-66311290D01*
X179242500Y-66312000D01*
X178897500Y-66312000D01*
X178883042Y-66311290D01*
X178868724Y-66309166D01*
X178854683Y-66305649D01*
X178841054Y-66300772D01*
X178827969Y-66294583D01*
X178815553Y-66287142D01*
X178803927Y-66278519D01*
X178793202Y-66268798D01*
X178783481Y-66258073D01*
X178774858Y-66246447D01*
X178767417Y-66234031D01*
X178761228Y-66220946D01*
X178756351Y-66207317D01*
X178752834Y-66193276D01*
X178750710Y-66178958D01*
X178750000Y-66164500D01*
X178750000Y-65869500D01*
X178750710Y-65855042D01*
X178752834Y-65840724D01*
X178756351Y-65826683D01*
X178761228Y-65813054D01*
X178767417Y-65799969D01*
X178774858Y-65787553D01*
X178783481Y-65775927D01*
X178793202Y-65765202D01*
X178803927Y-65755481D01*
X178815553Y-65746858D01*
X178827969Y-65739417D01*
X178841054Y-65733228D01*
X178854683Y-65728351D01*
X178868724Y-65724834D01*
X178883042Y-65722710D01*
X178897500Y-65722000D01*
X179242500Y-65722000D01*
X179256958Y-65722710D01*
X179256958Y-65722710D01*
G37*
D12*
X179070000Y-66017000D03*
D11*
G36*
X177859958Y-65532210D02*
G01*
X177874276Y-65534334D01*
X177888317Y-65537851D01*
X177901946Y-65542728D01*
X177915031Y-65548917D01*
X177927447Y-65556358D01*
X177939073Y-65564981D01*
X177949798Y-65574702D01*
X177959519Y-65585427D01*
X177968142Y-65597053D01*
X177975583Y-65609469D01*
X177981772Y-65622554D01*
X177986649Y-65636183D01*
X177990166Y-65650224D01*
X177992290Y-65664542D01*
X177993000Y-65679000D01*
X177993000Y-65974000D01*
X177992290Y-65988458D01*
X177990166Y-66002776D01*
X177986649Y-66016817D01*
X177981772Y-66030446D01*
X177975583Y-66043531D01*
X177968142Y-66055947D01*
X177959519Y-66067573D01*
X177949798Y-66078298D01*
X177939073Y-66088019D01*
X177927447Y-66096642D01*
X177915031Y-66104083D01*
X177901946Y-66110272D01*
X177888317Y-66115149D01*
X177874276Y-66118666D01*
X177859958Y-66120790D01*
X177845500Y-66121500D01*
X177500500Y-66121500D01*
X177486042Y-66120790D01*
X177471724Y-66118666D01*
X177457683Y-66115149D01*
X177444054Y-66110272D01*
X177430969Y-66104083D01*
X177418553Y-66096642D01*
X177406927Y-66088019D01*
X177396202Y-66078298D01*
X177386481Y-66067573D01*
X177377858Y-66055947D01*
X177370417Y-66043531D01*
X177364228Y-66030446D01*
X177359351Y-66016817D01*
X177355834Y-66002776D01*
X177353710Y-65988458D01*
X177353000Y-65974000D01*
X177353000Y-65679000D01*
X177353710Y-65664542D01*
X177355834Y-65650224D01*
X177359351Y-65636183D01*
X177364228Y-65622554D01*
X177370417Y-65609469D01*
X177377858Y-65597053D01*
X177386481Y-65585427D01*
X177396202Y-65574702D01*
X177406927Y-65564981D01*
X177418553Y-65556358D01*
X177430969Y-65548917D01*
X177444054Y-65542728D01*
X177457683Y-65537851D01*
X177471724Y-65534334D01*
X177486042Y-65532210D01*
X177500500Y-65531500D01*
X177845500Y-65531500D01*
X177859958Y-65532210D01*
X177859958Y-65532210D01*
G37*
D12*
X177673000Y-65826500D03*
D11*
G36*
X177859958Y-64562210D02*
G01*
X177874276Y-64564334D01*
X177888317Y-64567851D01*
X177901946Y-64572728D01*
X177915031Y-64578917D01*
X177927447Y-64586358D01*
X177939073Y-64594981D01*
X177949798Y-64604702D01*
X177959519Y-64615427D01*
X177968142Y-64627053D01*
X177975583Y-64639469D01*
X177981772Y-64652554D01*
X177986649Y-64666183D01*
X177990166Y-64680224D01*
X177992290Y-64694542D01*
X177993000Y-64709000D01*
X177993000Y-65004000D01*
X177992290Y-65018458D01*
X177990166Y-65032776D01*
X177986649Y-65046817D01*
X177981772Y-65060446D01*
X177975583Y-65073531D01*
X177968142Y-65085947D01*
X177959519Y-65097573D01*
X177949798Y-65108298D01*
X177939073Y-65118019D01*
X177927447Y-65126642D01*
X177915031Y-65134083D01*
X177901946Y-65140272D01*
X177888317Y-65145149D01*
X177874276Y-65148666D01*
X177859958Y-65150790D01*
X177845500Y-65151500D01*
X177500500Y-65151500D01*
X177486042Y-65150790D01*
X177471724Y-65148666D01*
X177457683Y-65145149D01*
X177444054Y-65140272D01*
X177430969Y-65134083D01*
X177418553Y-65126642D01*
X177406927Y-65118019D01*
X177396202Y-65108298D01*
X177386481Y-65097573D01*
X177377858Y-65085947D01*
X177370417Y-65073531D01*
X177364228Y-65060446D01*
X177359351Y-65046817D01*
X177355834Y-65032776D01*
X177353710Y-65018458D01*
X177353000Y-65004000D01*
X177353000Y-64709000D01*
X177353710Y-64694542D01*
X177355834Y-64680224D01*
X177359351Y-64666183D01*
X177364228Y-64652554D01*
X177370417Y-64639469D01*
X177377858Y-64627053D01*
X177386481Y-64615427D01*
X177396202Y-64604702D01*
X177406927Y-64594981D01*
X177418553Y-64586358D01*
X177430969Y-64578917D01*
X177444054Y-64572728D01*
X177457683Y-64567851D01*
X177471724Y-64564334D01*
X177486042Y-64562210D01*
X177500500Y-64561500D01*
X177845500Y-64561500D01*
X177859958Y-64562210D01*
X177859958Y-64562210D01*
G37*
D12*
X177673000Y-64856500D03*
D11*
G36*
X179589958Y-52703210D02*
G01*
X179604276Y-52705334D01*
X179618317Y-52708851D01*
X179631946Y-52713728D01*
X179645031Y-52719917D01*
X179657447Y-52727358D01*
X179669073Y-52735981D01*
X179679798Y-52745702D01*
X179689519Y-52756427D01*
X179698142Y-52768053D01*
X179705583Y-52780469D01*
X179711772Y-52793554D01*
X179716649Y-52807183D01*
X179720166Y-52821224D01*
X179722290Y-52835542D01*
X179723000Y-52850000D01*
X179723000Y-53195000D01*
X179722290Y-53209458D01*
X179720166Y-53223776D01*
X179716649Y-53237817D01*
X179711772Y-53251446D01*
X179705583Y-53264531D01*
X179698142Y-53276947D01*
X179689519Y-53288573D01*
X179679798Y-53299298D01*
X179669073Y-53309019D01*
X179657447Y-53317642D01*
X179645031Y-53325083D01*
X179631946Y-53331272D01*
X179618317Y-53336149D01*
X179604276Y-53339666D01*
X179589958Y-53341790D01*
X179575500Y-53342500D01*
X179280500Y-53342500D01*
X179266042Y-53341790D01*
X179251724Y-53339666D01*
X179237683Y-53336149D01*
X179224054Y-53331272D01*
X179210969Y-53325083D01*
X179198553Y-53317642D01*
X179186927Y-53309019D01*
X179176202Y-53299298D01*
X179166481Y-53288573D01*
X179157858Y-53276947D01*
X179150417Y-53264531D01*
X179144228Y-53251446D01*
X179139351Y-53237817D01*
X179135834Y-53223776D01*
X179133710Y-53209458D01*
X179133000Y-53195000D01*
X179133000Y-52850000D01*
X179133710Y-52835542D01*
X179135834Y-52821224D01*
X179139351Y-52807183D01*
X179144228Y-52793554D01*
X179150417Y-52780469D01*
X179157858Y-52768053D01*
X179166481Y-52756427D01*
X179176202Y-52745702D01*
X179186927Y-52735981D01*
X179198553Y-52727358D01*
X179210969Y-52719917D01*
X179224054Y-52713728D01*
X179237683Y-52708851D01*
X179251724Y-52705334D01*
X179266042Y-52703210D01*
X179280500Y-52702500D01*
X179575500Y-52702500D01*
X179589958Y-52703210D01*
X179589958Y-52703210D01*
G37*
D12*
X179428000Y-53022500D03*
D11*
G36*
X178619958Y-52703210D02*
G01*
X178634276Y-52705334D01*
X178648317Y-52708851D01*
X178661946Y-52713728D01*
X178675031Y-52719917D01*
X178687447Y-52727358D01*
X178699073Y-52735981D01*
X178709798Y-52745702D01*
X178719519Y-52756427D01*
X178728142Y-52768053D01*
X178735583Y-52780469D01*
X178741772Y-52793554D01*
X178746649Y-52807183D01*
X178750166Y-52821224D01*
X178752290Y-52835542D01*
X178753000Y-52850000D01*
X178753000Y-53195000D01*
X178752290Y-53209458D01*
X178750166Y-53223776D01*
X178746649Y-53237817D01*
X178741772Y-53251446D01*
X178735583Y-53264531D01*
X178728142Y-53276947D01*
X178719519Y-53288573D01*
X178709798Y-53299298D01*
X178699073Y-53309019D01*
X178687447Y-53317642D01*
X178675031Y-53325083D01*
X178661946Y-53331272D01*
X178648317Y-53336149D01*
X178634276Y-53339666D01*
X178619958Y-53341790D01*
X178605500Y-53342500D01*
X178310500Y-53342500D01*
X178296042Y-53341790D01*
X178281724Y-53339666D01*
X178267683Y-53336149D01*
X178254054Y-53331272D01*
X178240969Y-53325083D01*
X178228553Y-53317642D01*
X178216927Y-53309019D01*
X178206202Y-53299298D01*
X178196481Y-53288573D01*
X178187858Y-53276947D01*
X178180417Y-53264531D01*
X178174228Y-53251446D01*
X178169351Y-53237817D01*
X178165834Y-53223776D01*
X178163710Y-53209458D01*
X178163000Y-53195000D01*
X178163000Y-52850000D01*
X178163710Y-52835542D01*
X178165834Y-52821224D01*
X178169351Y-52807183D01*
X178174228Y-52793554D01*
X178180417Y-52780469D01*
X178187858Y-52768053D01*
X178196481Y-52756427D01*
X178206202Y-52745702D01*
X178216927Y-52735981D01*
X178228553Y-52727358D01*
X178240969Y-52719917D01*
X178254054Y-52713728D01*
X178267683Y-52708851D01*
X178281724Y-52705334D01*
X178296042Y-52703210D01*
X178310500Y-52702500D01*
X178605500Y-52702500D01*
X178619958Y-52703210D01*
X178619958Y-52703210D01*
G37*
D12*
X178458000Y-53022500D03*
D11*
G36*
X175719298Y-56195710D02*
G01*
X175733616Y-56197834D01*
X175747657Y-56201351D01*
X175761286Y-56206228D01*
X175774371Y-56212417D01*
X175786787Y-56219858D01*
X175798413Y-56228481D01*
X175809138Y-56238202D01*
X175818859Y-56248927D01*
X175827482Y-56260553D01*
X175834923Y-56272969D01*
X175841112Y-56286054D01*
X175845989Y-56299683D01*
X175849506Y-56313724D01*
X175851630Y-56328042D01*
X175852340Y-56342500D01*
X175852340Y-56687500D01*
X175851630Y-56701958D01*
X175849506Y-56716276D01*
X175845989Y-56730317D01*
X175841112Y-56743946D01*
X175834923Y-56757031D01*
X175827482Y-56769447D01*
X175818859Y-56781073D01*
X175809138Y-56791798D01*
X175798413Y-56801519D01*
X175786787Y-56810142D01*
X175774371Y-56817583D01*
X175761286Y-56823772D01*
X175747657Y-56828649D01*
X175733616Y-56832166D01*
X175719298Y-56834290D01*
X175704840Y-56835000D01*
X175409840Y-56835000D01*
X175395382Y-56834290D01*
X175381064Y-56832166D01*
X175367023Y-56828649D01*
X175353394Y-56823772D01*
X175340309Y-56817583D01*
X175327893Y-56810142D01*
X175316267Y-56801519D01*
X175305542Y-56791798D01*
X175295821Y-56781073D01*
X175287198Y-56769447D01*
X175279757Y-56757031D01*
X175273568Y-56743946D01*
X175268691Y-56730317D01*
X175265174Y-56716276D01*
X175263050Y-56701958D01*
X175262340Y-56687500D01*
X175262340Y-56342500D01*
X175263050Y-56328042D01*
X175265174Y-56313724D01*
X175268691Y-56299683D01*
X175273568Y-56286054D01*
X175279757Y-56272969D01*
X175287198Y-56260553D01*
X175295821Y-56248927D01*
X175305542Y-56238202D01*
X175316267Y-56228481D01*
X175327893Y-56219858D01*
X175340309Y-56212417D01*
X175353394Y-56206228D01*
X175367023Y-56201351D01*
X175381064Y-56197834D01*
X175395382Y-56195710D01*
X175409840Y-56195000D01*
X175704840Y-56195000D01*
X175719298Y-56195710D01*
X175719298Y-56195710D01*
G37*
D12*
X175557340Y-56515000D03*
D11*
G36*
X176689298Y-56195710D02*
G01*
X176703616Y-56197834D01*
X176717657Y-56201351D01*
X176731286Y-56206228D01*
X176744371Y-56212417D01*
X176756787Y-56219858D01*
X176768413Y-56228481D01*
X176779138Y-56238202D01*
X176788859Y-56248927D01*
X176797482Y-56260553D01*
X176804923Y-56272969D01*
X176811112Y-56286054D01*
X176815989Y-56299683D01*
X176819506Y-56313724D01*
X176821630Y-56328042D01*
X176822340Y-56342500D01*
X176822340Y-56687500D01*
X176821630Y-56701958D01*
X176819506Y-56716276D01*
X176815989Y-56730317D01*
X176811112Y-56743946D01*
X176804923Y-56757031D01*
X176797482Y-56769447D01*
X176788859Y-56781073D01*
X176779138Y-56791798D01*
X176768413Y-56801519D01*
X176756787Y-56810142D01*
X176744371Y-56817583D01*
X176731286Y-56823772D01*
X176717657Y-56828649D01*
X176703616Y-56832166D01*
X176689298Y-56834290D01*
X176674840Y-56835000D01*
X176379840Y-56835000D01*
X176365382Y-56834290D01*
X176351064Y-56832166D01*
X176337023Y-56828649D01*
X176323394Y-56823772D01*
X176310309Y-56817583D01*
X176297893Y-56810142D01*
X176286267Y-56801519D01*
X176275542Y-56791798D01*
X176265821Y-56781073D01*
X176257198Y-56769447D01*
X176249757Y-56757031D01*
X176243568Y-56743946D01*
X176238691Y-56730317D01*
X176235174Y-56716276D01*
X176233050Y-56701958D01*
X176232340Y-56687500D01*
X176232340Y-56342500D01*
X176233050Y-56328042D01*
X176235174Y-56313724D01*
X176238691Y-56299683D01*
X176243568Y-56286054D01*
X176249757Y-56272969D01*
X176257198Y-56260553D01*
X176265821Y-56248927D01*
X176275542Y-56238202D01*
X176286267Y-56228481D01*
X176297893Y-56219858D01*
X176310309Y-56212417D01*
X176323394Y-56206228D01*
X176337023Y-56201351D01*
X176351064Y-56197834D01*
X176365382Y-56195710D01*
X176379840Y-56195000D01*
X176674840Y-56195000D01*
X176689298Y-56195710D01*
X176689298Y-56195710D01*
G37*
D12*
X176527340Y-56515000D03*
D11*
G36*
X166076191Y-54008553D02*
G01*
X166097426Y-54011703D01*
X166118250Y-54016919D01*
X166138462Y-54024151D01*
X166157868Y-54033330D01*
X166176281Y-54044366D01*
X166193524Y-54057154D01*
X166209430Y-54071570D01*
X166223846Y-54087476D01*
X166236634Y-54104719D01*
X166247670Y-54123132D01*
X166256849Y-54142538D01*
X166264081Y-54162750D01*
X166269297Y-54183574D01*
X166272447Y-54204809D01*
X166273500Y-54226250D01*
X166273500Y-54663750D01*
X166272447Y-54685191D01*
X166269297Y-54706426D01*
X166264081Y-54727250D01*
X166256849Y-54747462D01*
X166247670Y-54766868D01*
X166236634Y-54785281D01*
X166223846Y-54802524D01*
X166209430Y-54818430D01*
X166193524Y-54832846D01*
X166176281Y-54845634D01*
X166157868Y-54856670D01*
X166138462Y-54865849D01*
X166118250Y-54873081D01*
X166097426Y-54878297D01*
X166076191Y-54881447D01*
X166054750Y-54882500D01*
X165542250Y-54882500D01*
X165520809Y-54881447D01*
X165499574Y-54878297D01*
X165478750Y-54873081D01*
X165458538Y-54865849D01*
X165439132Y-54856670D01*
X165420719Y-54845634D01*
X165403476Y-54832846D01*
X165387570Y-54818430D01*
X165373154Y-54802524D01*
X165360366Y-54785281D01*
X165349330Y-54766868D01*
X165340151Y-54747462D01*
X165332919Y-54727250D01*
X165327703Y-54706426D01*
X165324553Y-54685191D01*
X165323500Y-54663750D01*
X165323500Y-54226250D01*
X165324553Y-54204809D01*
X165327703Y-54183574D01*
X165332919Y-54162750D01*
X165340151Y-54142538D01*
X165349330Y-54123132D01*
X165360366Y-54104719D01*
X165373154Y-54087476D01*
X165387570Y-54071570D01*
X165403476Y-54057154D01*
X165420719Y-54044366D01*
X165439132Y-54033330D01*
X165458538Y-54024151D01*
X165478750Y-54016919D01*
X165499574Y-54011703D01*
X165520809Y-54008553D01*
X165542250Y-54007500D01*
X166054750Y-54007500D01*
X166076191Y-54008553D01*
X166076191Y-54008553D01*
G37*
D13*
X165798500Y-54445000D03*
D11*
G36*
X166076191Y-52433553D02*
G01*
X166097426Y-52436703D01*
X166118250Y-52441919D01*
X166138462Y-52449151D01*
X166157868Y-52458330D01*
X166176281Y-52469366D01*
X166193524Y-52482154D01*
X166209430Y-52496570D01*
X166223846Y-52512476D01*
X166236634Y-52529719D01*
X166247670Y-52548132D01*
X166256849Y-52567538D01*
X166264081Y-52587750D01*
X166269297Y-52608574D01*
X166272447Y-52629809D01*
X166273500Y-52651250D01*
X166273500Y-53088750D01*
X166272447Y-53110191D01*
X166269297Y-53131426D01*
X166264081Y-53152250D01*
X166256849Y-53172462D01*
X166247670Y-53191868D01*
X166236634Y-53210281D01*
X166223846Y-53227524D01*
X166209430Y-53243430D01*
X166193524Y-53257846D01*
X166176281Y-53270634D01*
X166157868Y-53281670D01*
X166138462Y-53290849D01*
X166118250Y-53298081D01*
X166097426Y-53303297D01*
X166076191Y-53306447D01*
X166054750Y-53307500D01*
X165542250Y-53307500D01*
X165520809Y-53306447D01*
X165499574Y-53303297D01*
X165478750Y-53298081D01*
X165458538Y-53290849D01*
X165439132Y-53281670D01*
X165420719Y-53270634D01*
X165403476Y-53257846D01*
X165387570Y-53243430D01*
X165373154Y-53227524D01*
X165360366Y-53210281D01*
X165349330Y-53191868D01*
X165340151Y-53172462D01*
X165332919Y-53152250D01*
X165327703Y-53131426D01*
X165324553Y-53110191D01*
X165323500Y-53088750D01*
X165323500Y-52651250D01*
X165324553Y-52629809D01*
X165327703Y-52608574D01*
X165332919Y-52587750D01*
X165340151Y-52567538D01*
X165349330Y-52548132D01*
X165360366Y-52529719D01*
X165373154Y-52512476D01*
X165387570Y-52496570D01*
X165403476Y-52482154D01*
X165420719Y-52469366D01*
X165439132Y-52458330D01*
X165458538Y-52449151D01*
X165478750Y-52441919D01*
X165499574Y-52436703D01*
X165520809Y-52433553D01*
X165542250Y-52432500D01*
X166054750Y-52432500D01*
X166076191Y-52433553D01*
X166076191Y-52433553D01*
G37*
D13*
X165798500Y-52870000D03*
D11*
G36*
X167382458Y-55926210D02*
G01*
X167396776Y-55928334D01*
X167410817Y-55931851D01*
X167424446Y-55936728D01*
X167437531Y-55942917D01*
X167449947Y-55950358D01*
X167461573Y-55958981D01*
X167472298Y-55968702D01*
X167482019Y-55979427D01*
X167490642Y-55991053D01*
X167498083Y-56003469D01*
X167504272Y-56016554D01*
X167509149Y-56030183D01*
X167512666Y-56044224D01*
X167514790Y-56058542D01*
X167515500Y-56073000D01*
X167515500Y-56368000D01*
X167514790Y-56382458D01*
X167512666Y-56396776D01*
X167509149Y-56410817D01*
X167504272Y-56424446D01*
X167498083Y-56437531D01*
X167490642Y-56449947D01*
X167482019Y-56461573D01*
X167472298Y-56472298D01*
X167461573Y-56482019D01*
X167449947Y-56490642D01*
X167437531Y-56498083D01*
X167424446Y-56504272D01*
X167410817Y-56509149D01*
X167396776Y-56512666D01*
X167382458Y-56514790D01*
X167368000Y-56515500D01*
X167023000Y-56515500D01*
X167008542Y-56514790D01*
X166994224Y-56512666D01*
X166980183Y-56509149D01*
X166966554Y-56504272D01*
X166953469Y-56498083D01*
X166941053Y-56490642D01*
X166929427Y-56482019D01*
X166918702Y-56472298D01*
X166908981Y-56461573D01*
X166900358Y-56449947D01*
X166892917Y-56437531D01*
X166886728Y-56424446D01*
X166881851Y-56410817D01*
X166878334Y-56396776D01*
X166876210Y-56382458D01*
X166875500Y-56368000D01*
X166875500Y-56073000D01*
X166876210Y-56058542D01*
X166878334Y-56044224D01*
X166881851Y-56030183D01*
X166886728Y-56016554D01*
X166892917Y-56003469D01*
X166900358Y-55991053D01*
X166908981Y-55979427D01*
X166918702Y-55968702D01*
X166929427Y-55958981D01*
X166941053Y-55950358D01*
X166953469Y-55942917D01*
X166966554Y-55936728D01*
X166980183Y-55931851D01*
X166994224Y-55928334D01*
X167008542Y-55926210D01*
X167023000Y-55925500D01*
X167368000Y-55925500D01*
X167382458Y-55926210D01*
X167382458Y-55926210D01*
G37*
D12*
X167195500Y-56220500D03*
D11*
G36*
X167382458Y-56896210D02*
G01*
X167396776Y-56898334D01*
X167410817Y-56901851D01*
X167424446Y-56906728D01*
X167437531Y-56912917D01*
X167449947Y-56920358D01*
X167461573Y-56928981D01*
X167472298Y-56938702D01*
X167482019Y-56949427D01*
X167490642Y-56961053D01*
X167498083Y-56973469D01*
X167504272Y-56986554D01*
X167509149Y-57000183D01*
X167512666Y-57014224D01*
X167514790Y-57028542D01*
X167515500Y-57043000D01*
X167515500Y-57338000D01*
X167514790Y-57352458D01*
X167512666Y-57366776D01*
X167509149Y-57380817D01*
X167504272Y-57394446D01*
X167498083Y-57407531D01*
X167490642Y-57419947D01*
X167482019Y-57431573D01*
X167472298Y-57442298D01*
X167461573Y-57452019D01*
X167449947Y-57460642D01*
X167437531Y-57468083D01*
X167424446Y-57474272D01*
X167410817Y-57479149D01*
X167396776Y-57482666D01*
X167382458Y-57484790D01*
X167368000Y-57485500D01*
X167023000Y-57485500D01*
X167008542Y-57484790D01*
X166994224Y-57482666D01*
X166980183Y-57479149D01*
X166966554Y-57474272D01*
X166953469Y-57468083D01*
X166941053Y-57460642D01*
X166929427Y-57452019D01*
X166918702Y-57442298D01*
X166908981Y-57431573D01*
X166900358Y-57419947D01*
X166892917Y-57407531D01*
X166886728Y-57394446D01*
X166881851Y-57380817D01*
X166878334Y-57366776D01*
X166876210Y-57352458D01*
X166875500Y-57338000D01*
X166875500Y-57043000D01*
X166876210Y-57028542D01*
X166878334Y-57014224D01*
X166881851Y-57000183D01*
X166886728Y-56986554D01*
X166892917Y-56973469D01*
X166900358Y-56961053D01*
X166908981Y-56949427D01*
X166918702Y-56938702D01*
X166929427Y-56928981D01*
X166941053Y-56920358D01*
X166953469Y-56912917D01*
X166966554Y-56906728D01*
X166980183Y-56901851D01*
X166994224Y-56898334D01*
X167008542Y-56896210D01*
X167023000Y-56895500D01*
X167368000Y-56895500D01*
X167382458Y-56896210D01*
X167382458Y-56896210D01*
G37*
D12*
X167195500Y-57190500D03*
D11*
G36*
X176589958Y-64562210D02*
G01*
X176604276Y-64564334D01*
X176618317Y-64567851D01*
X176631946Y-64572728D01*
X176645031Y-64578917D01*
X176657447Y-64586358D01*
X176669073Y-64594981D01*
X176679798Y-64604702D01*
X176689519Y-64615427D01*
X176698142Y-64627053D01*
X176705583Y-64639469D01*
X176711772Y-64652554D01*
X176716649Y-64666183D01*
X176720166Y-64680224D01*
X176722290Y-64694542D01*
X176723000Y-64709000D01*
X176723000Y-65004000D01*
X176722290Y-65018458D01*
X176720166Y-65032776D01*
X176716649Y-65046817D01*
X176711772Y-65060446D01*
X176705583Y-65073531D01*
X176698142Y-65085947D01*
X176689519Y-65097573D01*
X176679798Y-65108298D01*
X176669073Y-65118019D01*
X176657447Y-65126642D01*
X176645031Y-65134083D01*
X176631946Y-65140272D01*
X176618317Y-65145149D01*
X176604276Y-65148666D01*
X176589958Y-65150790D01*
X176575500Y-65151500D01*
X176230500Y-65151500D01*
X176216042Y-65150790D01*
X176201724Y-65148666D01*
X176187683Y-65145149D01*
X176174054Y-65140272D01*
X176160969Y-65134083D01*
X176148553Y-65126642D01*
X176136927Y-65118019D01*
X176126202Y-65108298D01*
X176116481Y-65097573D01*
X176107858Y-65085947D01*
X176100417Y-65073531D01*
X176094228Y-65060446D01*
X176089351Y-65046817D01*
X176085834Y-65032776D01*
X176083710Y-65018458D01*
X176083000Y-65004000D01*
X176083000Y-64709000D01*
X176083710Y-64694542D01*
X176085834Y-64680224D01*
X176089351Y-64666183D01*
X176094228Y-64652554D01*
X176100417Y-64639469D01*
X176107858Y-64627053D01*
X176116481Y-64615427D01*
X176126202Y-64604702D01*
X176136927Y-64594981D01*
X176148553Y-64586358D01*
X176160969Y-64578917D01*
X176174054Y-64572728D01*
X176187683Y-64567851D01*
X176201724Y-64564334D01*
X176216042Y-64562210D01*
X176230500Y-64561500D01*
X176575500Y-64561500D01*
X176589958Y-64562210D01*
X176589958Y-64562210D01*
G37*
D12*
X176403000Y-64856500D03*
D11*
G36*
X176589958Y-65532210D02*
G01*
X176604276Y-65534334D01*
X176618317Y-65537851D01*
X176631946Y-65542728D01*
X176645031Y-65548917D01*
X176657447Y-65556358D01*
X176669073Y-65564981D01*
X176679798Y-65574702D01*
X176689519Y-65585427D01*
X176698142Y-65597053D01*
X176705583Y-65609469D01*
X176711772Y-65622554D01*
X176716649Y-65636183D01*
X176720166Y-65650224D01*
X176722290Y-65664542D01*
X176723000Y-65679000D01*
X176723000Y-65974000D01*
X176722290Y-65988458D01*
X176720166Y-66002776D01*
X176716649Y-66016817D01*
X176711772Y-66030446D01*
X176705583Y-66043531D01*
X176698142Y-66055947D01*
X176689519Y-66067573D01*
X176679798Y-66078298D01*
X176669073Y-66088019D01*
X176657447Y-66096642D01*
X176645031Y-66104083D01*
X176631946Y-66110272D01*
X176618317Y-66115149D01*
X176604276Y-66118666D01*
X176589958Y-66120790D01*
X176575500Y-66121500D01*
X176230500Y-66121500D01*
X176216042Y-66120790D01*
X176201724Y-66118666D01*
X176187683Y-66115149D01*
X176174054Y-66110272D01*
X176160969Y-66104083D01*
X176148553Y-66096642D01*
X176136927Y-66088019D01*
X176126202Y-66078298D01*
X176116481Y-66067573D01*
X176107858Y-66055947D01*
X176100417Y-66043531D01*
X176094228Y-66030446D01*
X176089351Y-66016817D01*
X176085834Y-66002776D01*
X176083710Y-65988458D01*
X176083000Y-65974000D01*
X176083000Y-65679000D01*
X176083710Y-65664542D01*
X176085834Y-65650224D01*
X176089351Y-65636183D01*
X176094228Y-65622554D01*
X176100417Y-65609469D01*
X176107858Y-65597053D01*
X176116481Y-65585427D01*
X176126202Y-65574702D01*
X176136927Y-65564981D01*
X176148553Y-65556358D01*
X176160969Y-65548917D01*
X176174054Y-65542728D01*
X176187683Y-65537851D01*
X176201724Y-65534334D01*
X176216042Y-65532210D01*
X176230500Y-65531500D01*
X176575500Y-65531500D01*
X176589958Y-65532210D01*
X176589958Y-65532210D01*
G37*
D12*
X176403000Y-65826500D03*
D11*
G36*
X173176458Y-62037710D02*
G01*
X173190776Y-62039834D01*
X173204817Y-62043351D01*
X173218446Y-62048228D01*
X173231531Y-62054417D01*
X173243947Y-62061858D01*
X173255573Y-62070481D01*
X173266298Y-62080202D01*
X173276019Y-62090927D01*
X173284642Y-62102553D01*
X173292083Y-62114969D01*
X173298272Y-62128054D01*
X173303149Y-62141683D01*
X173306666Y-62155724D01*
X173308790Y-62170042D01*
X173309500Y-62184500D01*
X173309500Y-62529500D01*
X173308790Y-62543958D01*
X173306666Y-62558276D01*
X173303149Y-62572317D01*
X173298272Y-62585946D01*
X173292083Y-62599031D01*
X173284642Y-62611447D01*
X173276019Y-62623073D01*
X173266298Y-62633798D01*
X173255573Y-62643519D01*
X173243947Y-62652142D01*
X173231531Y-62659583D01*
X173218446Y-62665772D01*
X173204817Y-62670649D01*
X173190776Y-62674166D01*
X173176458Y-62676290D01*
X173162000Y-62677000D01*
X172867000Y-62677000D01*
X172852542Y-62676290D01*
X172838224Y-62674166D01*
X172824183Y-62670649D01*
X172810554Y-62665772D01*
X172797469Y-62659583D01*
X172785053Y-62652142D01*
X172773427Y-62643519D01*
X172762702Y-62633798D01*
X172752981Y-62623073D01*
X172744358Y-62611447D01*
X172736917Y-62599031D01*
X172730728Y-62585946D01*
X172725851Y-62572317D01*
X172722334Y-62558276D01*
X172720210Y-62543958D01*
X172719500Y-62529500D01*
X172719500Y-62184500D01*
X172720210Y-62170042D01*
X172722334Y-62155724D01*
X172725851Y-62141683D01*
X172730728Y-62128054D01*
X172736917Y-62114969D01*
X172744358Y-62102553D01*
X172752981Y-62090927D01*
X172762702Y-62080202D01*
X172773427Y-62070481D01*
X172785053Y-62061858D01*
X172797469Y-62054417D01*
X172810554Y-62048228D01*
X172824183Y-62043351D01*
X172838224Y-62039834D01*
X172852542Y-62037710D01*
X172867000Y-62037000D01*
X173162000Y-62037000D01*
X173176458Y-62037710D01*
X173176458Y-62037710D01*
G37*
D12*
X173014500Y-62357000D03*
D11*
G36*
X172206458Y-62037710D02*
G01*
X172220776Y-62039834D01*
X172234817Y-62043351D01*
X172248446Y-62048228D01*
X172261531Y-62054417D01*
X172273947Y-62061858D01*
X172285573Y-62070481D01*
X172296298Y-62080202D01*
X172306019Y-62090927D01*
X172314642Y-62102553D01*
X172322083Y-62114969D01*
X172328272Y-62128054D01*
X172333149Y-62141683D01*
X172336666Y-62155724D01*
X172338790Y-62170042D01*
X172339500Y-62184500D01*
X172339500Y-62529500D01*
X172338790Y-62543958D01*
X172336666Y-62558276D01*
X172333149Y-62572317D01*
X172328272Y-62585946D01*
X172322083Y-62599031D01*
X172314642Y-62611447D01*
X172306019Y-62623073D01*
X172296298Y-62633798D01*
X172285573Y-62643519D01*
X172273947Y-62652142D01*
X172261531Y-62659583D01*
X172248446Y-62665772D01*
X172234817Y-62670649D01*
X172220776Y-62674166D01*
X172206458Y-62676290D01*
X172192000Y-62677000D01*
X171897000Y-62677000D01*
X171882542Y-62676290D01*
X171868224Y-62674166D01*
X171854183Y-62670649D01*
X171840554Y-62665772D01*
X171827469Y-62659583D01*
X171815053Y-62652142D01*
X171803427Y-62643519D01*
X171792702Y-62633798D01*
X171782981Y-62623073D01*
X171774358Y-62611447D01*
X171766917Y-62599031D01*
X171760728Y-62585946D01*
X171755851Y-62572317D01*
X171752334Y-62558276D01*
X171750210Y-62543958D01*
X171749500Y-62529500D01*
X171749500Y-62184500D01*
X171750210Y-62170042D01*
X171752334Y-62155724D01*
X171755851Y-62141683D01*
X171760728Y-62128054D01*
X171766917Y-62114969D01*
X171774358Y-62102553D01*
X171782981Y-62090927D01*
X171792702Y-62080202D01*
X171803427Y-62070481D01*
X171815053Y-62061858D01*
X171827469Y-62054417D01*
X171840554Y-62048228D01*
X171854183Y-62043351D01*
X171868224Y-62039834D01*
X171882542Y-62037710D01*
X171897000Y-62037000D01*
X172192000Y-62037000D01*
X172206458Y-62037710D01*
X172206458Y-62037710D01*
G37*
D12*
X172044500Y-62357000D03*
D11*
G36*
X173176458Y-64577710D02*
G01*
X173190776Y-64579834D01*
X173204817Y-64583351D01*
X173218446Y-64588228D01*
X173231531Y-64594417D01*
X173243947Y-64601858D01*
X173255573Y-64610481D01*
X173266298Y-64620202D01*
X173276019Y-64630927D01*
X173284642Y-64642553D01*
X173292083Y-64654969D01*
X173298272Y-64668054D01*
X173303149Y-64681683D01*
X173306666Y-64695724D01*
X173308790Y-64710042D01*
X173309500Y-64724500D01*
X173309500Y-65069500D01*
X173308790Y-65083958D01*
X173306666Y-65098276D01*
X173303149Y-65112317D01*
X173298272Y-65125946D01*
X173292083Y-65139031D01*
X173284642Y-65151447D01*
X173276019Y-65163073D01*
X173266298Y-65173798D01*
X173255573Y-65183519D01*
X173243947Y-65192142D01*
X173231531Y-65199583D01*
X173218446Y-65205772D01*
X173204817Y-65210649D01*
X173190776Y-65214166D01*
X173176458Y-65216290D01*
X173162000Y-65217000D01*
X172867000Y-65217000D01*
X172852542Y-65216290D01*
X172838224Y-65214166D01*
X172824183Y-65210649D01*
X172810554Y-65205772D01*
X172797469Y-65199583D01*
X172785053Y-65192142D01*
X172773427Y-65183519D01*
X172762702Y-65173798D01*
X172752981Y-65163073D01*
X172744358Y-65151447D01*
X172736917Y-65139031D01*
X172730728Y-65125946D01*
X172725851Y-65112317D01*
X172722334Y-65098276D01*
X172720210Y-65083958D01*
X172719500Y-65069500D01*
X172719500Y-64724500D01*
X172720210Y-64710042D01*
X172722334Y-64695724D01*
X172725851Y-64681683D01*
X172730728Y-64668054D01*
X172736917Y-64654969D01*
X172744358Y-64642553D01*
X172752981Y-64630927D01*
X172762702Y-64620202D01*
X172773427Y-64610481D01*
X172785053Y-64601858D01*
X172797469Y-64594417D01*
X172810554Y-64588228D01*
X172824183Y-64583351D01*
X172838224Y-64579834D01*
X172852542Y-64577710D01*
X172867000Y-64577000D01*
X173162000Y-64577000D01*
X173176458Y-64577710D01*
X173176458Y-64577710D01*
G37*
D12*
X173014500Y-64897000D03*
D11*
G36*
X172206458Y-64577710D02*
G01*
X172220776Y-64579834D01*
X172234817Y-64583351D01*
X172248446Y-64588228D01*
X172261531Y-64594417D01*
X172273947Y-64601858D01*
X172285573Y-64610481D01*
X172296298Y-64620202D01*
X172306019Y-64630927D01*
X172314642Y-64642553D01*
X172322083Y-64654969D01*
X172328272Y-64668054D01*
X172333149Y-64681683D01*
X172336666Y-64695724D01*
X172338790Y-64710042D01*
X172339500Y-64724500D01*
X172339500Y-65069500D01*
X172338790Y-65083958D01*
X172336666Y-65098276D01*
X172333149Y-65112317D01*
X172328272Y-65125946D01*
X172322083Y-65139031D01*
X172314642Y-65151447D01*
X172306019Y-65163073D01*
X172296298Y-65173798D01*
X172285573Y-65183519D01*
X172273947Y-65192142D01*
X172261531Y-65199583D01*
X172248446Y-65205772D01*
X172234817Y-65210649D01*
X172220776Y-65214166D01*
X172206458Y-65216290D01*
X172192000Y-65217000D01*
X171897000Y-65217000D01*
X171882542Y-65216290D01*
X171868224Y-65214166D01*
X171854183Y-65210649D01*
X171840554Y-65205772D01*
X171827469Y-65199583D01*
X171815053Y-65192142D01*
X171803427Y-65183519D01*
X171792702Y-65173798D01*
X171782981Y-65163073D01*
X171774358Y-65151447D01*
X171766917Y-65139031D01*
X171760728Y-65125946D01*
X171755851Y-65112317D01*
X171752334Y-65098276D01*
X171750210Y-65083958D01*
X171749500Y-65069500D01*
X171749500Y-64724500D01*
X171750210Y-64710042D01*
X171752334Y-64695724D01*
X171755851Y-64681683D01*
X171760728Y-64668054D01*
X171766917Y-64654969D01*
X171774358Y-64642553D01*
X171782981Y-64630927D01*
X171792702Y-64620202D01*
X171803427Y-64610481D01*
X171815053Y-64601858D01*
X171827469Y-64594417D01*
X171840554Y-64588228D01*
X171854183Y-64583351D01*
X171868224Y-64579834D01*
X171882542Y-64577710D01*
X171897000Y-64577000D01*
X172192000Y-64577000D01*
X172206458Y-64577710D01*
X172206458Y-64577710D01*
G37*
D12*
X172044500Y-64897000D03*
D11*
G36*
X173176458Y-63307710D02*
G01*
X173190776Y-63309834D01*
X173204817Y-63313351D01*
X173218446Y-63318228D01*
X173231531Y-63324417D01*
X173243947Y-63331858D01*
X173255573Y-63340481D01*
X173266298Y-63350202D01*
X173276019Y-63360927D01*
X173284642Y-63372553D01*
X173292083Y-63384969D01*
X173298272Y-63398054D01*
X173303149Y-63411683D01*
X173306666Y-63425724D01*
X173308790Y-63440042D01*
X173309500Y-63454500D01*
X173309500Y-63799500D01*
X173308790Y-63813958D01*
X173306666Y-63828276D01*
X173303149Y-63842317D01*
X173298272Y-63855946D01*
X173292083Y-63869031D01*
X173284642Y-63881447D01*
X173276019Y-63893073D01*
X173266298Y-63903798D01*
X173255573Y-63913519D01*
X173243947Y-63922142D01*
X173231531Y-63929583D01*
X173218446Y-63935772D01*
X173204817Y-63940649D01*
X173190776Y-63944166D01*
X173176458Y-63946290D01*
X173162000Y-63947000D01*
X172867000Y-63947000D01*
X172852542Y-63946290D01*
X172838224Y-63944166D01*
X172824183Y-63940649D01*
X172810554Y-63935772D01*
X172797469Y-63929583D01*
X172785053Y-63922142D01*
X172773427Y-63913519D01*
X172762702Y-63903798D01*
X172752981Y-63893073D01*
X172744358Y-63881447D01*
X172736917Y-63869031D01*
X172730728Y-63855946D01*
X172725851Y-63842317D01*
X172722334Y-63828276D01*
X172720210Y-63813958D01*
X172719500Y-63799500D01*
X172719500Y-63454500D01*
X172720210Y-63440042D01*
X172722334Y-63425724D01*
X172725851Y-63411683D01*
X172730728Y-63398054D01*
X172736917Y-63384969D01*
X172744358Y-63372553D01*
X172752981Y-63360927D01*
X172762702Y-63350202D01*
X172773427Y-63340481D01*
X172785053Y-63331858D01*
X172797469Y-63324417D01*
X172810554Y-63318228D01*
X172824183Y-63313351D01*
X172838224Y-63309834D01*
X172852542Y-63307710D01*
X172867000Y-63307000D01*
X173162000Y-63307000D01*
X173176458Y-63307710D01*
X173176458Y-63307710D01*
G37*
D12*
X173014500Y-63627000D03*
D11*
G36*
X172206458Y-63307710D02*
G01*
X172220776Y-63309834D01*
X172234817Y-63313351D01*
X172248446Y-63318228D01*
X172261531Y-63324417D01*
X172273947Y-63331858D01*
X172285573Y-63340481D01*
X172296298Y-63350202D01*
X172306019Y-63360927D01*
X172314642Y-63372553D01*
X172322083Y-63384969D01*
X172328272Y-63398054D01*
X172333149Y-63411683D01*
X172336666Y-63425724D01*
X172338790Y-63440042D01*
X172339500Y-63454500D01*
X172339500Y-63799500D01*
X172338790Y-63813958D01*
X172336666Y-63828276D01*
X172333149Y-63842317D01*
X172328272Y-63855946D01*
X172322083Y-63869031D01*
X172314642Y-63881447D01*
X172306019Y-63893073D01*
X172296298Y-63903798D01*
X172285573Y-63913519D01*
X172273947Y-63922142D01*
X172261531Y-63929583D01*
X172248446Y-63935772D01*
X172234817Y-63940649D01*
X172220776Y-63944166D01*
X172206458Y-63946290D01*
X172192000Y-63947000D01*
X171897000Y-63947000D01*
X171882542Y-63946290D01*
X171868224Y-63944166D01*
X171854183Y-63940649D01*
X171840554Y-63935772D01*
X171827469Y-63929583D01*
X171815053Y-63922142D01*
X171803427Y-63913519D01*
X171792702Y-63903798D01*
X171782981Y-63893073D01*
X171774358Y-63881447D01*
X171766917Y-63869031D01*
X171760728Y-63855946D01*
X171755851Y-63842317D01*
X171752334Y-63828276D01*
X171750210Y-63813958D01*
X171749500Y-63799500D01*
X171749500Y-63454500D01*
X171750210Y-63440042D01*
X171752334Y-63425724D01*
X171755851Y-63411683D01*
X171760728Y-63398054D01*
X171766917Y-63384969D01*
X171774358Y-63372553D01*
X171782981Y-63360927D01*
X171792702Y-63350202D01*
X171803427Y-63340481D01*
X171815053Y-63331858D01*
X171827469Y-63324417D01*
X171840554Y-63318228D01*
X171854183Y-63313351D01*
X171868224Y-63309834D01*
X171882542Y-63307710D01*
X171897000Y-63307000D01*
X172192000Y-63307000D01*
X172206458Y-63307710D01*
X172206458Y-63307710D01*
G37*
D12*
X172044500Y-63627000D03*
D11*
G36*
X175462458Y-64577710D02*
G01*
X175476776Y-64579834D01*
X175490817Y-64583351D01*
X175504446Y-64588228D01*
X175517531Y-64594417D01*
X175529947Y-64601858D01*
X175541573Y-64610481D01*
X175552298Y-64620202D01*
X175562019Y-64630927D01*
X175570642Y-64642553D01*
X175578083Y-64654969D01*
X175584272Y-64668054D01*
X175589149Y-64681683D01*
X175592666Y-64695724D01*
X175594790Y-64710042D01*
X175595500Y-64724500D01*
X175595500Y-65069500D01*
X175594790Y-65083958D01*
X175592666Y-65098276D01*
X175589149Y-65112317D01*
X175584272Y-65125946D01*
X175578083Y-65139031D01*
X175570642Y-65151447D01*
X175562019Y-65163073D01*
X175552298Y-65173798D01*
X175541573Y-65183519D01*
X175529947Y-65192142D01*
X175517531Y-65199583D01*
X175504446Y-65205772D01*
X175490817Y-65210649D01*
X175476776Y-65214166D01*
X175462458Y-65216290D01*
X175448000Y-65217000D01*
X175153000Y-65217000D01*
X175138542Y-65216290D01*
X175124224Y-65214166D01*
X175110183Y-65210649D01*
X175096554Y-65205772D01*
X175083469Y-65199583D01*
X175071053Y-65192142D01*
X175059427Y-65183519D01*
X175048702Y-65173798D01*
X175038981Y-65163073D01*
X175030358Y-65151447D01*
X175022917Y-65139031D01*
X175016728Y-65125946D01*
X175011851Y-65112317D01*
X175008334Y-65098276D01*
X175006210Y-65083958D01*
X175005500Y-65069500D01*
X175005500Y-64724500D01*
X175006210Y-64710042D01*
X175008334Y-64695724D01*
X175011851Y-64681683D01*
X175016728Y-64668054D01*
X175022917Y-64654969D01*
X175030358Y-64642553D01*
X175038981Y-64630927D01*
X175048702Y-64620202D01*
X175059427Y-64610481D01*
X175071053Y-64601858D01*
X175083469Y-64594417D01*
X175096554Y-64588228D01*
X175110183Y-64583351D01*
X175124224Y-64579834D01*
X175138542Y-64577710D01*
X175153000Y-64577000D01*
X175448000Y-64577000D01*
X175462458Y-64577710D01*
X175462458Y-64577710D01*
G37*
D12*
X175300500Y-64897000D03*
D11*
G36*
X174492458Y-64577710D02*
G01*
X174506776Y-64579834D01*
X174520817Y-64583351D01*
X174534446Y-64588228D01*
X174547531Y-64594417D01*
X174559947Y-64601858D01*
X174571573Y-64610481D01*
X174582298Y-64620202D01*
X174592019Y-64630927D01*
X174600642Y-64642553D01*
X174608083Y-64654969D01*
X174614272Y-64668054D01*
X174619149Y-64681683D01*
X174622666Y-64695724D01*
X174624790Y-64710042D01*
X174625500Y-64724500D01*
X174625500Y-65069500D01*
X174624790Y-65083958D01*
X174622666Y-65098276D01*
X174619149Y-65112317D01*
X174614272Y-65125946D01*
X174608083Y-65139031D01*
X174600642Y-65151447D01*
X174592019Y-65163073D01*
X174582298Y-65173798D01*
X174571573Y-65183519D01*
X174559947Y-65192142D01*
X174547531Y-65199583D01*
X174534446Y-65205772D01*
X174520817Y-65210649D01*
X174506776Y-65214166D01*
X174492458Y-65216290D01*
X174478000Y-65217000D01*
X174183000Y-65217000D01*
X174168542Y-65216290D01*
X174154224Y-65214166D01*
X174140183Y-65210649D01*
X174126554Y-65205772D01*
X174113469Y-65199583D01*
X174101053Y-65192142D01*
X174089427Y-65183519D01*
X174078702Y-65173798D01*
X174068981Y-65163073D01*
X174060358Y-65151447D01*
X174052917Y-65139031D01*
X174046728Y-65125946D01*
X174041851Y-65112317D01*
X174038334Y-65098276D01*
X174036210Y-65083958D01*
X174035500Y-65069500D01*
X174035500Y-64724500D01*
X174036210Y-64710042D01*
X174038334Y-64695724D01*
X174041851Y-64681683D01*
X174046728Y-64668054D01*
X174052917Y-64654969D01*
X174060358Y-64642553D01*
X174068981Y-64630927D01*
X174078702Y-64620202D01*
X174089427Y-64610481D01*
X174101053Y-64601858D01*
X174113469Y-64594417D01*
X174126554Y-64588228D01*
X174140183Y-64583351D01*
X174154224Y-64579834D01*
X174168542Y-64577710D01*
X174183000Y-64577000D01*
X174478000Y-64577000D01*
X174492458Y-64577710D01*
X174492458Y-64577710D01*
G37*
D12*
X174330500Y-64897000D03*
D11*
G36*
X180605958Y-61529710D02*
G01*
X180620276Y-61531834D01*
X180634317Y-61535351D01*
X180647946Y-61540228D01*
X180661031Y-61546417D01*
X180673447Y-61553858D01*
X180685073Y-61562481D01*
X180695798Y-61572202D01*
X180705519Y-61582927D01*
X180714142Y-61594553D01*
X180721583Y-61606969D01*
X180727772Y-61620054D01*
X180732649Y-61633683D01*
X180736166Y-61647724D01*
X180738290Y-61662042D01*
X180739000Y-61676500D01*
X180739000Y-62021500D01*
X180738290Y-62035958D01*
X180736166Y-62050276D01*
X180732649Y-62064317D01*
X180727772Y-62077946D01*
X180721583Y-62091031D01*
X180714142Y-62103447D01*
X180705519Y-62115073D01*
X180695798Y-62125798D01*
X180685073Y-62135519D01*
X180673447Y-62144142D01*
X180661031Y-62151583D01*
X180647946Y-62157772D01*
X180634317Y-62162649D01*
X180620276Y-62166166D01*
X180605958Y-62168290D01*
X180591500Y-62169000D01*
X180296500Y-62169000D01*
X180282042Y-62168290D01*
X180267724Y-62166166D01*
X180253683Y-62162649D01*
X180240054Y-62157772D01*
X180226969Y-62151583D01*
X180214553Y-62144142D01*
X180202927Y-62135519D01*
X180192202Y-62125798D01*
X180182481Y-62115073D01*
X180173858Y-62103447D01*
X180166417Y-62091031D01*
X180160228Y-62077946D01*
X180155351Y-62064317D01*
X180151834Y-62050276D01*
X180149710Y-62035958D01*
X180149000Y-62021500D01*
X180149000Y-61676500D01*
X180149710Y-61662042D01*
X180151834Y-61647724D01*
X180155351Y-61633683D01*
X180160228Y-61620054D01*
X180166417Y-61606969D01*
X180173858Y-61594553D01*
X180182481Y-61582927D01*
X180192202Y-61572202D01*
X180202927Y-61562481D01*
X180214553Y-61553858D01*
X180226969Y-61546417D01*
X180240054Y-61540228D01*
X180253683Y-61535351D01*
X180267724Y-61531834D01*
X180282042Y-61529710D01*
X180296500Y-61529000D01*
X180591500Y-61529000D01*
X180605958Y-61529710D01*
X180605958Y-61529710D01*
G37*
D12*
X180444000Y-61849000D03*
D11*
G36*
X179635958Y-61529710D02*
G01*
X179650276Y-61531834D01*
X179664317Y-61535351D01*
X179677946Y-61540228D01*
X179691031Y-61546417D01*
X179703447Y-61553858D01*
X179715073Y-61562481D01*
X179725798Y-61572202D01*
X179735519Y-61582927D01*
X179744142Y-61594553D01*
X179751583Y-61606969D01*
X179757772Y-61620054D01*
X179762649Y-61633683D01*
X179766166Y-61647724D01*
X179768290Y-61662042D01*
X179769000Y-61676500D01*
X179769000Y-62021500D01*
X179768290Y-62035958D01*
X179766166Y-62050276D01*
X179762649Y-62064317D01*
X179757772Y-62077946D01*
X179751583Y-62091031D01*
X179744142Y-62103447D01*
X179735519Y-62115073D01*
X179725798Y-62125798D01*
X179715073Y-62135519D01*
X179703447Y-62144142D01*
X179691031Y-62151583D01*
X179677946Y-62157772D01*
X179664317Y-62162649D01*
X179650276Y-62166166D01*
X179635958Y-62168290D01*
X179621500Y-62169000D01*
X179326500Y-62169000D01*
X179312042Y-62168290D01*
X179297724Y-62166166D01*
X179283683Y-62162649D01*
X179270054Y-62157772D01*
X179256969Y-62151583D01*
X179244553Y-62144142D01*
X179232927Y-62135519D01*
X179222202Y-62125798D01*
X179212481Y-62115073D01*
X179203858Y-62103447D01*
X179196417Y-62091031D01*
X179190228Y-62077946D01*
X179185351Y-62064317D01*
X179181834Y-62050276D01*
X179179710Y-62035958D01*
X179179000Y-62021500D01*
X179179000Y-61676500D01*
X179179710Y-61662042D01*
X179181834Y-61647724D01*
X179185351Y-61633683D01*
X179190228Y-61620054D01*
X179196417Y-61606969D01*
X179203858Y-61594553D01*
X179212481Y-61582927D01*
X179222202Y-61572202D01*
X179232927Y-61562481D01*
X179244553Y-61553858D01*
X179256969Y-61546417D01*
X179270054Y-61540228D01*
X179283683Y-61535351D01*
X179297724Y-61531834D01*
X179312042Y-61529710D01*
X179326500Y-61529000D01*
X179621500Y-61529000D01*
X179635958Y-61529710D01*
X179635958Y-61529710D01*
G37*
D12*
X179474000Y-61849000D03*
D11*
G36*
X180842458Y-52703210D02*
G01*
X180856776Y-52705334D01*
X180870817Y-52708851D01*
X180884446Y-52713728D01*
X180897531Y-52719917D01*
X180909947Y-52727358D01*
X180921573Y-52735981D01*
X180932298Y-52745702D01*
X180942019Y-52756427D01*
X180950642Y-52768053D01*
X180958083Y-52780469D01*
X180964272Y-52793554D01*
X180969149Y-52807183D01*
X180972666Y-52821224D01*
X180974790Y-52835542D01*
X180975500Y-52850000D01*
X180975500Y-53195000D01*
X180974790Y-53209458D01*
X180972666Y-53223776D01*
X180969149Y-53237817D01*
X180964272Y-53251446D01*
X180958083Y-53264531D01*
X180950642Y-53276947D01*
X180942019Y-53288573D01*
X180932298Y-53299298D01*
X180921573Y-53309019D01*
X180909947Y-53317642D01*
X180897531Y-53325083D01*
X180884446Y-53331272D01*
X180870817Y-53336149D01*
X180856776Y-53339666D01*
X180842458Y-53341790D01*
X180828000Y-53342500D01*
X180533000Y-53342500D01*
X180518542Y-53341790D01*
X180504224Y-53339666D01*
X180490183Y-53336149D01*
X180476554Y-53331272D01*
X180463469Y-53325083D01*
X180451053Y-53317642D01*
X180439427Y-53309019D01*
X180428702Y-53299298D01*
X180418981Y-53288573D01*
X180410358Y-53276947D01*
X180402917Y-53264531D01*
X180396728Y-53251446D01*
X180391851Y-53237817D01*
X180388334Y-53223776D01*
X180386210Y-53209458D01*
X180385500Y-53195000D01*
X180385500Y-52850000D01*
X180386210Y-52835542D01*
X180388334Y-52821224D01*
X180391851Y-52807183D01*
X180396728Y-52793554D01*
X180402917Y-52780469D01*
X180410358Y-52768053D01*
X180418981Y-52756427D01*
X180428702Y-52745702D01*
X180439427Y-52735981D01*
X180451053Y-52727358D01*
X180463469Y-52719917D01*
X180476554Y-52713728D01*
X180490183Y-52708851D01*
X180504224Y-52705334D01*
X180518542Y-52703210D01*
X180533000Y-52702500D01*
X180828000Y-52702500D01*
X180842458Y-52703210D01*
X180842458Y-52703210D01*
G37*
D12*
X180680500Y-53022500D03*
D11*
G36*
X181812458Y-52703210D02*
G01*
X181826776Y-52705334D01*
X181840817Y-52708851D01*
X181854446Y-52713728D01*
X181867531Y-52719917D01*
X181879947Y-52727358D01*
X181891573Y-52735981D01*
X181902298Y-52745702D01*
X181912019Y-52756427D01*
X181920642Y-52768053D01*
X181928083Y-52780469D01*
X181934272Y-52793554D01*
X181939149Y-52807183D01*
X181942666Y-52821224D01*
X181944790Y-52835542D01*
X181945500Y-52850000D01*
X181945500Y-53195000D01*
X181944790Y-53209458D01*
X181942666Y-53223776D01*
X181939149Y-53237817D01*
X181934272Y-53251446D01*
X181928083Y-53264531D01*
X181920642Y-53276947D01*
X181912019Y-53288573D01*
X181902298Y-53299298D01*
X181891573Y-53309019D01*
X181879947Y-53317642D01*
X181867531Y-53325083D01*
X181854446Y-53331272D01*
X181840817Y-53336149D01*
X181826776Y-53339666D01*
X181812458Y-53341790D01*
X181798000Y-53342500D01*
X181503000Y-53342500D01*
X181488542Y-53341790D01*
X181474224Y-53339666D01*
X181460183Y-53336149D01*
X181446554Y-53331272D01*
X181433469Y-53325083D01*
X181421053Y-53317642D01*
X181409427Y-53309019D01*
X181398702Y-53299298D01*
X181388981Y-53288573D01*
X181380358Y-53276947D01*
X181372917Y-53264531D01*
X181366728Y-53251446D01*
X181361851Y-53237817D01*
X181358334Y-53223776D01*
X181356210Y-53209458D01*
X181355500Y-53195000D01*
X181355500Y-52850000D01*
X181356210Y-52835542D01*
X181358334Y-52821224D01*
X181361851Y-52807183D01*
X181366728Y-52793554D01*
X181372917Y-52780469D01*
X181380358Y-52768053D01*
X181388981Y-52756427D01*
X181398702Y-52745702D01*
X181409427Y-52735981D01*
X181421053Y-52727358D01*
X181433469Y-52719917D01*
X181446554Y-52713728D01*
X181460183Y-52708851D01*
X181474224Y-52705334D01*
X181488542Y-52703210D01*
X181503000Y-52702500D01*
X181798000Y-52702500D01*
X181812458Y-52703210D01*
X181812458Y-52703210D01*
G37*
D12*
X181650500Y-53022500D03*
D11*
G36*
X167524958Y-60577210D02*
G01*
X167539276Y-60579334D01*
X167553317Y-60582851D01*
X167566946Y-60587728D01*
X167580031Y-60593917D01*
X167592447Y-60601358D01*
X167604073Y-60609981D01*
X167614798Y-60619702D01*
X167624519Y-60630427D01*
X167633142Y-60642053D01*
X167640583Y-60654469D01*
X167646772Y-60667554D01*
X167651649Y-60681183D01*
X167655166Y-60695224D01*
X167657290Y-60709542D01*
X167658000Y-60724000D01*
X167658000Y-61069000D01*
X167657290Y-61083458D01*
X167655166Y-61097776D01*
X167651649Y-61111817D01*
X167646772Y-61125446D01*
X167640583Y-61138531D01*
X167633142Y-61150947D01*
X167624519Y-61162573D01*
X167614798Y-61173298D01*
X167604073Y-61183019D01*
X167592447Y-61191642D01*
X167580031Y-61199083D01*
X167566946Y-61205272D01*
X167553317Y-61210149D01*
X167539276Y-61213666D01*
X167524958Y-61215790D01*
X167510500Y-61216500D01*
X167215500Y-61216500D01*
X167201042Y-61215790D01*
X167186724Y-61213666D01*
X167172683Y-61210149D01*
X167159054Y-61205272D01*
X167145969Y-61199083D01*
X167133553Y-61191642D01*
X167121927Y-61183019D01*
X167111202Y-61173298D01*
X167101481Y-61162573D01*
X167092858Y-61150947D01*
X167085417Y-61138531D01*
X167079228Y-61125446D01*
X167074351Y-61111817D01*
X167070834Y-61097776D01*
X167068710Y-61083458D01*
X167068000Y-61069000D01*
X167068000Y-60724000D01*
X167068710Y-60709542D01*
X167070834Y-60695224D01*
X167074351Y-60681183D01*
X167079228Y-60667554D01*
X167085417Y-60654469D01*
X167092858Y-60642053D01*
X167101481Y-60630427D01*
X167111202Y-60619702D01*
X167121927Y-60609981D01*
X167133553Y-60601358D01*
X167145969Y-60593917D01*
X167159054Y-60587728D01*
X167172683Y-60582851D01*
X167186724Y-60579334D01*
X167201042Y-60577210D01*
X167215500Y-60576500D01*
X167510500Y-60576500D01*
X167524958Y-60577210D01*
X167524958Y-60577210D01*
G37*
D12*
X167363000Y-60896500D03*
D11*
G36*
X166554958Y-60577210D02*
G01*
X166569276Y-60579334D01*
X166583317Y-60582851D01*
X166596946Y-60587728D01*
X166610031Y-60593917D01*
X166622447Y-60601358D01*
X166634073Y-60609981D01*
X166644798Y-60619702D01*
X166654519Y-60630427D01*
X166663142Y-60642053D01*
X166670583Y-60654469D01*
X166676772Y-60667554D01*
X166681649Y-60681183D01*
X166685166Y-60695224D01*
X166687290Y-60709542D01*
X166688000Y-60724000D01*
X166688000Y-61069000D01*
X166687290Y-61083458D01*
X166685166Y-61097776D01*
X166681649Y-61111817D01*
X166676772Y-61125446D01*
X166670583Y-61138531D01*
X166663142Y-61150947D01*
X166654519Y-61162573D01*
X166644798Y-61173298D01*
X166634073Y-61183019D01*
X166622447Y-61191642D01*
X166610031Y-61199083D01*
X166596946Y-61205272D01*
X166583317Y-61210149D01*
X166569276Y-61213666D01*
X166554958Y-61215790D01*
X166540500Y-61216500D01*
X166245500Y-61216500D01*
X166231042Y-61215790D01*
X166216724Y-61213666D01*
X166202683Y-61210149D01*
X166189054Y-61205272D01*
X166175969Y-61199083D01*
X166163553Y-61191642D01*
X166151927Y-61183019D01*
X166141202Y-61173298D01*
X166131481Y-61162573D01*
X166122858Y-61150947D01*
X166115417Y-61138531D01*
X166109228Y-61125446D01*
X166104351Y-61111817D01*
X166100834Y-61097776D01*
X166098710Y-61083458D01*
X166098000Y-61069000D01*
X166098000Y-60724000D01*
X166098710Y-60709542D01*
X166100834Y-60695224D01*
X166104351Y-60681183D01*
X166109228Y-60667554D01*
X166115417Y-60654469D01*
X166122858Y-60642053D01*
X166131481Y-60630427D01*
X166141202Y-60619702D01*
X166151927Y-60609981D01*
X166163553Y-60601358D01*
X166175969Y-60593917D01*
X166189054Y-60587728D01*
X166202683Y-60582851D01*
X166216724Y-60579334D01*
X166231042Y-60577210D01*
X166245500Y-60576500D01*
X166540500Y-60576500D01*
X166554958Y-60577210D01*
X166554958Y-60577210D01*
G37*
D12*
X166393000Y-60896500D03*
D11*
G36*
X168461958Y-64371710D02*
G01*
X168476276Y-64373834D01*
X168490317Y-64377351D01*
X168503946Y-64382228D01*
X168517031Y-64388417D01*
X168529447Y-64395858D01*
X168541073Y-64404481D01*
X168551798Y-64414202D01*
X168561519Y-64424927D01*
X168570142Y-64436553D01*
X168577583Y-64448969D01*
X168583772Y-64462054D01*
X168588649Y-64475683D01*
X168592166Y-64489724D01*
X168594290Y-64504042D01*
X168595000Y-64518500D01*
X168595000Y-64813500D01*
X168594290Y-64827958D01*
X168592166Y-64842276D01*
X168588649Y-64856317D01*
X168583772Y-64869946D01*
X168577583Y-64883031D01*
X168570142Y-64895447D01*
X168561519Y-64907073D01*
X168551798Y-64917798D01*
X168541073Y-64927519D01*
X168529447Y-64936142D01*
X168517031Y-64943583D01*
X168503946Y-64949772D01*
X168490317Y-64954649D01*
X168476276Y-64958166D01*
X168461958Y-64960290D01*
X168447500Y-64961000D01*
X168102500Y-64961000D01*
X168088042Y-64960290D01*
X168073724Y-64958166D01*
X168059683Y-64954649D01*
X168046054Y-64949772D01*
X168032969Y-64943583D01*
X168020553Y-64936142D01*
X168008927Y-64927519D01*
X167998202Y-64917798D01*
X167988481Y-64907073D01*
X167979858Y-64895447D01*
X167972417Y-64883031D01*
X167966228Y-64869946D01*
X167961351Y-64856317D01*
X167957834Y-64842276D01*
X167955710Y-64827958D01*
X167955000Y-64813500D01*
X167955000Y-64518500D01*
X167955710Y-64504042D01*
X167957834Y-64489724D01*
X167961351Y-64475683D01*
X167966228Y-64462054D01*
X167972417Y-64448969D01*
X167979858Y-64436553D01*
X167988481Y-64424927D01*
X167998202Y-64414202D01*
X168008927Y-64404481D01*
X168020553Y-64395858D01*
X168032969Y-64388417D01*
X168046054Y-64382228D01*
X168059683Y-64377351D01*
X168073724Y-64373834D01*
X168088042Y-64371710D01*
X168102500Y-64371000D01*
X168447500Y-64371000D01*
X168461958Y-64371710D01*
X168461958Y-64371710D01*
G37*
D12*
X168275000Y-64666000D03*
D11*
G36*
X168461958Y-65341710D02*
G01*
X168476276Y-65343834D01*
X168490317Y-65347351D01*
X168503946Y-65352228D01*
X168517031Y-65358417D01*
X168529447Y-65365858D01*
X168541073Y-65374481D01*
X168551798Y-65384202D01*
X168561519Y-65394927D01*
X168570142Y-65406553D01*
X168577583Y-65418969D01*
X168583772Y-65432054D01*
X168588649Y-65445683D01*
X168592166Y-65459724D01*
X168594290Y-65474042D01*
X168595000Y-65488500D01*
X168595000Y-65783500D01*
X168594290Y-65797958D01*
X168592166Y-65812276D01*
X168588649Y-65826317D01*
X168583772Y-65839946D01*
X168577583Y-65853031D01*
X168570142Y-65865447D01*
X168561519Y-65877073D01*
X168551798Y-65887798D01*
X168541073Y-65897519D01*
X168529447Y-65906142D01*
X168517031Y-65913583D01*
X168503946Y-65919772D01*
X168490317Y-65924649D01*
X168476276Y-65928166D01*
X168461958Y-65930290D01*
X168447500Y-65931000D01*
X168102500Y-65931000D01*
X168088042Y-65930290D01*
X168073724Y-65928166D01*
X168059683Y-65924649D01*
X168046054Y-65919772D01*
X168032969Y-65913583D01*
X168020553Y-65906142D01*
X168008927Y-65897519D01*
X167998202Y-65887798D01*
X167988481Y-65877073D01*
X167979858Y-65865447D01*
X167972417Y-65853031D01*
X167966228Y-65839946D01*
X167961351Y-65826317D01*
X167957834Y-65812276D01*
X167955710Y-65797958D01*
X167955000Y-65783500D01*
X167955000Y-65488500D01*
X167955710Y-65474042D01*
X167957834Y-65459724D01*
X167961351Y-65445683D01*
X167966228Y-65432054D01*
X167972417Y-65418969D01*
X167979858Y-65406553D01*
X167988481Y-65394927D01*
X167998202Y-65384202D01*
X168008927Y-65374481D01*
X168020553Y-65365858D01*
X168032969Y-65358417D01*
X168046054Y-65352228D01*
X168059683Y-65347351D01*
X168073724Y-65343834D01*
X168088042Y-65341710D01*
X168102500Y-65341000D01*
X168447500Y-65341000D01*
X168461958Y-65341710D01*
X168461958Y-65341710D01*
G37*
D12*
X168275000Y-65636000D03*
D11*
G36*
X172206458Y-61021710D02*
G01*
X172220776Y-61023834D01*
X172234817Y-61027351D01*
X172248446Y-61032228D01*
X172261531Y-61038417D01*
X172273947Y-61045858D01*
X172285573Y-61054481D01*
X172296298Y-61064202D01*
X172306019Y-61074927D01*
X172314642Y-61086553D01*
X172322083Y-61098969D01*
X172328272Y-61112054D01*
X172333149Y-61125683D01*
X172336666Y-61139724D01*
X172338790Y-61154042D01*
X172339500Y-61168500D01*
X172339500Y-61513500D01*
X172338790Y-61527958D01*
X172336666Y-61542276D01*
X172333149Y-61556317D01*
X172328272Y-61569946D01*
X172322083Y-61583031D01*
X172314642Y-61595447D01*
X172306019Y-61607073D01*
X172296298Y-61617798D01*
X172285573Y-61627519D01*
X172273947Y-61636142D01*
X172261531Y-61643583D01*
X172248446Y-61649772D01*
X172234817Y-61654649D01*
X172220776Y-61658166D01*
X172206458Y-61660290D01*
X172192000Y-61661000D01*
X171897000Y-61661000D01*
X171882542Y-61660290D01*
X171868224Y-61658166D01*
X171854183Y-61654649D01*
X171840554Y-61649772D01*
X171827469Y-61643583D01*
X171815053Y-61636142D01*
X171803427Y-61627519D01*
X171792702Y-61617798D01*
X171782981Y-61607073D01*
X171774358Y-61595447D01*
X171766917Y-61583031D01*
X171760728Y-61569946D01*
X171755851Y-61556317D01*
X171752334Y-61542276D01*
X171750210Y-61527958D01*
X171749500Y-61513500D01*
X171749500Y-61168500D01*
X171750210Y-61154042D01*
X171752334Y-61139724D01*
X171755851Y-61125683D01*
X171760728Y-61112054D01*
X171766917Y-61098969D01*
X171774358Y-61086553D01*
X171782981Y-61074927D01*
X171792702Y-61064202D01*
X171803427Y-61054481D01*
X171815053Y-61045858D01*
X171827469Y-61038417D01*
X171840554Y-61032228D01*
X171854183Y-61027351D01*
X171868224Y-61023834D01*
X171882542Y-61021710D01*
X171897000Y-61021000D01*
X172192000Y-61021000D01*
X172206458Y-61021710D01*
X172206458Y-61021710D01*
G37*
D12*
X172044500Y-61341000D03*
D11*
G36*
X173176458Y-61021710D02*
G01*
X173190776Y-61023834D01*
X173204817Y-61027351D01*
X173218446Y-61032228D01*
X173231531Y-61038417D01*
X173243947Y-61045858D01*
X173255573Y-61054481D01*
X173266298Y-61064202D01*
X173276019Y-61074927D01*
X173284642Y-61086553D01*
X173292083Y-61098969D01*
X173298272Y-61112054D01*
X173303149Y-61125683D01*
X173306666Y-61139724D01*
X173308790Y-61154042D01*
X173309500Y-61168500D01*
X173309500Y-61513500D01*
X173308790Y-61527958D01*
X173306666Y-61542276D01*
X173303149Y-61556317D01*
X173298272Y-61569946D01*
X173292083Y-61583031D01*
X173284642Y-61595447D01*
X173276019Y-61607073D01*
X173266298Y-61617798D01*
X173255573Y-61627519D01*
X173243947Y-61636142D01*
X173231531Y-61643583D01*
X173218446Y-61649772D01*
X173204817Y-61654649D01*
X173190776Y-61658166D01*
X173176458Y-61660290D01*
X173162000Y-61661000D01*
X172867000Y-61661000D01*
X172852542Y-61660290D01*
X172838224Y-61658166D01*
X172824183Y-61654649D01*
X172810554Y-61649772D01*
X172797469Y-61643583D01*
X172785053Y-61636142D01*
X172773427Y-61627519D01*
X172762702Y-61617798D01*
X172752981Y-61607073D01*
X172744358Y-61595447D01*
X172736917Y-61583031D01*
X172730728Y-61569946D01*
X172725851Y-61556317D01*
X172722334Y-61542276D01*
X172720210Y-61527958D01*
X172719500Y-61513500D01*
X172719500Y-61168500D01*
X172720210Y-61154042D01*
X172722334Y-61139724D01*
X172725851Y-61125683D01*
X172730728Y-61112054D01*
X172736917Y-61098969D01*
X172744358Y-61086553D01*
X172752981Y-61074927D01*
X172762702Y-61064202D01*
X172773427Y-61054481D01*
X172785053Y-61045858D01*
X172797469Y-61038417D01*
X172810554Y-61032228D01*
X172824183Y-61027351D01*
X172838224Y-61023834D01*
X172852542Y-61021710D01*
X172867000Y-61021000D01*
X173162000Y-61021000D01*
X173176458Y-61021710D01*
X173176458Y-61021710D01*
G37*
D12*
X173014500Y-61341000D03*
D25*
X170780710Y-56357520D03*
X173739810Y-56357520D03*
X178669950Y-56324500D03*
X181629050Y-56324500D03*
D11*
G36*
X175538191Y-52548553D02*
G01*
X175559426Y-52551703D01*
X175580250Y-52556919D01*
X175600462Y-52564151D01*
X175619868Y-52573330D01*
X175638281Y-52584366D01*
X175655524Y-52597154D01*
X175671430Y-52611570D01*
X175685846Y-52627476D01*
X175698634Y-52644719D01*
X175709670Y-52663132D01*
X175718849Y-52682538D01*
X175726081Y-52702750D01*
X175731297Y-52723574D01*
X175734447Y-52744809D01*
X175735500Y-52766250D01*
X175735500Y-53278750D01*
X175734447Y-53300191D01*
X175731297Y-53321426D01*
X175726081Y-53342250D01*
X175718849Y-53362462D01*
X175709670Y-53381868D01*
X175698634Y-53400281D01*
X175685846Y-53417524D01*
X175671430Y-53433430D01*
X175655524Y-53447846D01*
X175638281Y-53460634D01*
X175619868Y-53471670D01*
X175600462Y-53480849D01*
X175580250Y-53488081D01*
X175559426Y-53493297D01*
X175538191Y-53496447D01*
X175516750Y-53497500D01*
X175079250Y-53497500D01*
X175057809Y-53496447D01*
X175036574Y-53493297D01*
X175015750Y-53488081D01*
X174995538Y-53480849D01*
X174976132Y-53471670D01*
X174957719Y-53460634D01*
X174940476Y-53447846D01*
X174924570Y-53433430D01*
X174910154Y-53417524D01*
X174897366Y-53400281D01*
X174886330Y-53381868D01*
X174877151Y-53362462D01*
X174869919Y-53342250D01*
X174864703Y-53321426D01*
X174861553Y-53300191D01*
X174860500Y-53278750D01*
X174860500Y-52766250D01*
X174861553Y-52744809D01*
X174864703Y-52723574D01*
X174869919Y-52702750D01*
X174877151Y-52682538D01*
X174886330Y-52663132D01*
X174897366Y-52644719D01*
X174910154Y-52627476D01*
X174924570Y-52611570D01*
X174940476Y-52597154D01*
X174957719Y-52584366D01*
X174976132Y-52573330D01*
X174995538Y-52564151D01*
X175015750Y-52556919D01*
X175036574Y-52551703D01*
X175057809Y-52548553D01*
X175079250Y-52547500D01*
X175516750Y-52547500D01*
X175538191Y-52548553D01*
X175538191Y-52548553D01*
G37*
D13*
X175298000Y-53022500D03*
D11*
G36*
X177113191Y-52548553D02*
G01*
X177134426Y-52551703D01*
X177155250Y-52556919D01*
X177175462Y-52564151D01*
X177194868Y-52573330D01*
X177213281Y-52584366D01*
X177230524Y-52597154D01*
X177246430Y-52611570D01*
X177260846Y-52627476D01*
X177273634Y-52644719D01*
X177284670Y-52663132D01*
X177293849Y-52682538D01*
X177301081Y-52702750D01*
X177306297Y-52723574D01*
X177309447Y-52744809D01*
X177310500Y-52766250D01*
X177310500Y-53278750D01*
X177309447Y-53300191D01*
X177306297Y-53321426D01*
X177301081Y-53342250D01*
X177293849Y-53362462D01*
X177284670Y-53381868D01*
X177273634Y-53400281D01*
X177260846Y-53417524D01*
X177246430Y-53433430D01*
X177230524Y-53447846D01*
X177213281Y-53460634D01*
X177194868Y-53471670D01*
X177175462Y-53480849D01*
X177155250Y-53488081D01*
X177134426Y-53493297D01*
X177113191Y-53496447D01*
X177091750Y-53497500D01*
X176654250Y-53497500D01*
X176632809Y-53496447D01*
X176611574Y-53493297D01*
X176590750Y-53488081D01*
X176570538Y-53480849D01*
X176551132Y-53471670D01*
X176532719Y-53460634D01*
X176515476Y-53447846D01*
X176499570Y-53433430D01*
X176485154Y-53417524D01*
X176472366Y-53400281D01*
X176461330Y-53381868D01*
X176452151Y-53362462D01*
X176444919Y-53342250D01*
X176439703Y-53321426D01*
X176436553Y-53300191D01*
X176435500Y-53278750D01*
X176435500Y-52766250D01*
X176436553Y-52744809D01*
X176439703Y-52723574D01*
X176444919Y-52702750D01*
X176452151Y-52682538D01*
X176461330Y-52663132D01*
X176472366Y-52644719D01*
X176485154Y-52627476D01*
X176499570Y-52611570D01*
X176515476Y-52597154D01*
X176532719Y-52584366D01*
X176551132Y-52573330D01*
X176570538Y-52564151D01*
X176590750Y-52556919D01*
X176611574Y-52551703D01*
X176632809Y-52548553D01*
X176654250Y-52547500D01*
X177091750Y-52547500D01*
X177113191Y-52548553D01*
X177113191Y-52548553D01*
G37*
D13*
X176873000Y-53022500D03*
D11*
G36*
X172414458Y-59243710D02*
G01*
X172428776Y-59245834D01*
X172442817Y-59249351D01*
X172456446Y-59254228D01*
X172469531Y-59260417D01*
X172481947Y-59267858D01*
X172493573Y-59276481D01*
X172504298Y-59286202D01*
X172514019Y-59296927D01*
X172522642Y-59308553D01*
X172530083Y-59320969D01*
X172536272Y-59334054D01*
X172541149Y-59347683D01*
X172544666Y-59361724D01*
X172546790Y-59376042D01*
X172547500Y-59390500D01*
X172547500Y-59735500D01*
X172546790Y-59749958D01*
X172544666Y-59764276D01*
X172541149Y-59778317D01*
X172536272Y-59791946D01*
X172530083Y-59805031D01*
X172522642Y-59817447D01*
X172514019Y-59829073D01*
X172504298Y-59839798D01*
X172493573Y-59849519D01*
X172481947Y-59858142D01*
X172469531Y-59865583D01*
X172456446Y-59871772D01*
X172442817Y-59876649D01*
X172428776Y-59880166D01*
X172414458Y-59882290D01*
X172400000Y-59883000D01*
X172105000Y-59883000D01*
X172090542Y-59882290D01*
X172076224Y-59880166D01*
X172062183Y-59876649D01*
X172048554Y-59871772D01*
X172035469Y-59865583D01*
X172023053Y-59858142D01*
X172011427Y-59849519D01*
X172000702Y-59839798D01*
X171990981Y-59829073D01*
X171982358Y-59817447D01*
X171974917Y-59805031D01*
X171968728Y-59791946D01*
X171963851Y-59778317D01*
X171960334Y-59764276D01*
X171958210Y-59749958D01*
X171957500Y-59735500D01*
X171957500Y-59390500D01*
X171958210Y-59376042D01*
X171960334Y-59361724D01*
X171963851Y-59347683D01*
X171968728Y-59334054D01*
X171974917Y-59320969D01*
X171982358Y-59308553D01*
X171990981Y-59296927D01*
X172000702Y-59286202D01*
X172011427Y-59276481D01*
X172023053Y-59267858D01*
X172035469Y-59260417D01*
X172048554Y-59254228D01*
X172062183Y-59249351D01*
X172076224Y-59245834D01*
X172090542Y-59243710D01*
X172105000Y-59243000D01*
X172400000Y-59243000D01*
X172414458Y-59243710D01*
X172414458Y-59243710D01*
G37*
D12*
X172252500Y-59563000D03*
D11*
G36*
X171444458Y-59243710D02*
G01*
X171458776Y-59245834D01*
X171472817Y-59249351D01*
X171486446Y-59254228D01*
X171499531Y-59260417D01*
X171511947Y-59267858D01*
X171523573Y-59276481D01*
X171534298Y-59286202D01*
X171544019Y-59296927D01*
X171552642Y-59308553D01*
X171560083Y-59320969D01*
X171566272Y-59334054D01*
X171571149Y-59347683D01*
X171574666Y-59361724D01*
X171576790Y-59376042D01*
X171577500Y-59390500D01*
X171577500Y-59735500D01*
X171576790Y-59749958D01*
X171574666Y-59764276D01*
X171571149Y-59778317D01*
X171566272Y-59791946D01*
X171560083Y-59805031D01*
X171552642Y-59817447D01*
X171544019Y-59829073D01*
X171534298Y-59839798D01*
X171523573Y-59849519D01*
X171511947Y-59858142D01*
X171499531Y-59865583D01*
X171486446Y-59871772D01*
X171472817Y-59876649D01*
X171458776Y-59880166D01*
X171444458Y-59882290D01*
X171430000Y-59883000D01*
X171135000Y-59883000D01*
X171120542Y-59882290D01*
X171106224Y-59880166D01*
X171092183Y-59876649D01*
X171078554Y-59871772D01*
X171065469Y-59865583D01*
X171053053Y-59858142D01*
X171041427Y-59849519D01*
X171030702Y-59839798D01*
X171020981Y-59829073D01*
X171012358Y-59817447D01*
X171004917Y-59805031D01*
X170998728Y-59791946D01*
X170993851Y-59778317D01*
X170990334Y-59764276D01*
X170988210Y-59749958D01*
X170987500Y-59735500D01*
X170987500Y-59390500D01*
X170988210Y-59376042D01*
X170990334Y-59361724D01*
X170993851Y-59347683D01*
X170998728Y-59334054D01*
X171004917Y-59320969D01*
X171012358Y-59308553D01*
X171020981Y-59296927D01*
X171030702Y-59286202D01*
X171041427Y-59276481D01*
X171053053Y-59267858D01*
X171065469Y-59260417D01*
X171078554Y-59254228D01*
X171092183Y-59249351D01*
X171106224Y-59245834D01*
X171120542Y-59243710D01*
X171135000Y-59243000D01*
X171430000Y-59243000D01*
X171444458Y-59243710D01*
X171444458Y-59243710D01*
G37*
D12*
X171282500Y-59563000D03*
D11*
G36*
X179320458Y-63500210D02*
G01*
X179334776Y-63502334D01*
X179348817Y-63505851D01*
X179362446Y-63510728D01*
X179375531Y-63516917D01*
X179387947Y-63524358D01*
X179399573Y-63532981D01*
X179410298Y-63542702D01*
X179420019Y-63553427D01*
X179428642Y-63565053D01*
X179436083Y-63577469D01*
X179442272Y-63590554D01*
X179447149Y-63604183D01*
X179450666Y-63618224D01*
X179452790Y-63632542D01*
X179453500Y-63647000D01*
X179453500Y-63942000D01*
X179452790Y-63956458D01*
X179450666Y-63970776D01*
X179447149Y-63984817D01*
X179442272Y-63998446D01*
X179436083Y-64011531D01*
X179428642Y-64023947D01*
X179420019Y-64035573D01*
X179410298Y-64046298D01*
X179399573Y-64056019D01*
X179387947Y-64064642D01*
X179375531Y-64072083D01*
X179362446Y-64078272D01*
X179348817Y-64083149D01*
X179334776Y-64086666D01*
X179320458Y-64088790D01*
X179306000Y-64089500D01*
X178961000Y-64089500D01*
X178946542Y-64088790D01*
X178932224Y-64086666D01*
X178918183Y-64083149D01*
X178904554Y-64078272D01*
X178891469Y-64072083D01*
X178879053Y-64064642D01*
X178867427Y-64056019D01*
X178856702Y-64046298D01*
X178846981Y-64035573D01*
X178838358Y-64023947D01*
X178830917Y-64011531D01*
X178824728Y-63998446D01*
X178819851Y-63984817D01*
X178816334Y-63970776D01*
X178814210Y-63956458D01*
X178813500Y-63942000D01*
X178813500Y-63647000D01*
X178814210Y-63632542D01*
X178816334Y-63618224D01*
X178819851Y-63604183D01*
X178824728Y-63590554D01*
X178830917Y-63577469D01*
X178838358Y-63565053D01*
X178846981Y-63553427D01*
X178856702Y-63542702D01*
X178867427Y-63532981D01*
X178879053Y-63524358D01*
X178891469Y-63516917D01*
X178904554Y-63510728D01*
X178918183Y-63505851D01*
X178932224Y-63502334D01*
X178946542Y-63500210D01*
X178961000Y-63499500D01*
X179306000Y-63499500D01*
X179320458Y-63500210D01*
X179320458Y-63500210D01*
G37*
D12*
X179133500Y-63794500D03*
D11*
G36*
X179320458Y-62530210D02*
G01*
X179334776Y-62532334D01*
X179348817Y-62535851D01*
X179362446Y-62540728D01*
X179375531Y-62546917D01*
X179387947Y-62554358D01*
X179399573Y-62562981D01*
X179410298Y-62572702D01*
X179420019Y-62583427D01*
X179428642Y-62595053D01*
X179436083Y-62607469D01*
X179442272Y-62620554D01*
X179447149Y-62634183D01*
X179450666Y-62648224D01*
X179452790Y-62662542D01*
X179453500Y-62677000D01*
X179453500Y-62972000D01*
X179452790Y-62986458D01*
X179450666Y-63000776D01*
X179447149Y-63014817D01*
X179442272Y-63028446D01*
X179436083Y-63041531D01*
X179428642Y-63053947D01*
X179420019Y-63065573D01*
X179410298Y-63076298D01*
X179399573Y-63086019D01*
X179387947Y-63094642D01*
X179375531Y-63102083D01*
X179362446Y-63108272D01*
X179348817Y-63113149D01*
X179334776Y-63116666D01*
X179320458Y-63118790D01*
X179306000Y-63119500D01*
X178961000Y-63119500D01*
X178946542Y-63118790D01*
X178932224Y-63116666D01*
X178918183Y-63113149D01*
X178904554Y-63108272D01*
X178891469Y-63102083D01*
X178879053Y-63094642D01*
X178867427Y-63086019D01*
X178856702Y-63076298D01*
X178846981Y-63065573D01*
X178838358Y-63053947D01*
X178830917Y-63041531D01*
X178824728Y-63028446D01*
X178819851Y-63014817D01*
X178816334Y-63000776D01*
X178814210Y-62986458D01*
X178813500Y-62972000D01*
X178813500Y-62677000D01*
X178814210Y-62662542D01*
X178816334Y-62648224D01*
X178819851Y-62634183D01*
X178824728Y-62620554D01*
X178830917Y-62607469D01*
X178838358Y-62595053D01*
X178846981Y-62583427D01*
X178856702Y-62572702D01*
X178867427Y-62562981D01*
X178879053Y-62554358D01*
X178891469Y-62546917D01*
X178904554Y-62540728D01*
X178918183Y-62535851D01*
X178932224Y-62532334D01*
X178946542Y-62530210D01*
X178961000Y-62529500D01*
X179306000Y-62529500D01*
X179320458Y-62530210D01*
X179320458Y-62530210D01*
G37*
D12*
X179133500Y-62824500D03*
D11*
G36*
X185289458Y-55689710D02*
G01*
X185303776Y-55691834D01*
X185317817Y-55695351D01*
X185331446Y-55700228D01*
X185344531Y-55706417D01*
X185356947Y-55713858D01*
X185368573Y-55722481D01*
X185379298Y-55732202D01*
X185389019Y-55742927D01*
X185397642Y-55754553D01*
X185405083Y-55766969D01*
X185411272Y-55780054D01*
X185416149Y-55793683D01*
X185419666Y-55807724D01*
X185421790Y-55822042D01*
X185422500Y-55836500D01*
X185422500Y-56131500D01*
X185421790Y-56145958D01*
X185419666Y-56160276D01*
X185416149Y-56174317D01*
X185411272Y-56187946D01*
X185405083Y-56201031D01*
X185397642Y-56213447D01*
X185389019Y-56225073D01*
X185379298Y-56235798D01*
X185368573Y-56245519D01*
X185356947Y-56254142D01*
X185344531Y-56261583D01*
X185331446Y-56267772D01*
X185317817Y-56272649D01*
X185303776Y-56276166D01*
X185289458Y-56278290D01*
X185275000Y-56279000D01*
X184930000Y-56279000D01*
X184915542Y-56278290D01*
X184901224Y-56276166D01*
X184887183Y-56272649D01*
X184873554Y-56267772D01*
X184860469Y-56261583D01*
X184848053Y-56254142D01*
X184836427Y-56245519D01*
X184825702Y-56235798D01*
X184815981Y-56225073D01*
X184807358Y-56213447D01*
X184799917Y-56201031D01*
X184793728Y-56187946D01*
X184788851Y-56174317D01*
X184785334Y-56160276D01*
X184783210Y-56145958D01*
X184782500Y-56131500D01*
X184782500Y-55836500D01*
X184783210Y-55822042D01*
X184785334Y-55807724D01*
X184788851Y-55793683D01*
X184793728Y-55780054D01*
X184799917Y-55766969D01*
X184807358Y-55754553D01*
X184815981Y-55742927D01*
X184825702Y-55732202D01*
X184836427Y-55722481D01*
X184848053Y-55713858D01*
X184860469Y-55706417D01*
X184873554Y-55700228D01*
X184887183Y-55695351D01*
X184901224Y-55691834D01*
X184915542Y-55689710D01*
X184930000Y-55689000D01*
X185275000Y-55689000D01*
X185289458Y-55689710D01*
X185289458Y-55689710D01*
G37*
D12*
X185102500Y-55984000D03*
D11*
G36*
X185289458Y-54719710D02*
G01*
X185303776Y-54721834D01*
X185317817Y-54725351D01*
X185331446Y-54730228D01*
X185344531Y-54736417D01*
X185356947Y-54743858D01*
X185368573Y-54752481D01*
X185379298Y-54762202D01*
X185389019Y-54772927D01*
X185397642Y-54784553D01*
X185405083Y-54796969D01*
X185411272Y-54810054D01*
X185416149Y-54823683D01*
X185419666Y-54837724D01*
X185421790Y-54852042D01*
X185422500Y-54866500D01*
X185422500Y-55161500D01*
X185421790Y-55175958D01*
X185419666Y-55190276D01*
X185416149Y-55204317D01*
X185411272Y-55217946D01*
X185405083Y-55231031D01*
X185397642Y-55243447D01*
X185389019Y-55255073D01*
X185379298Y-55265798D01*
X185368573Y-55275519D01*
X185356947Y-55284142D01*
X185344531Y-55291583D01*
X185331446Y-55297772D01*
X185317817Y-55302649D01*
X185303776Y-55306166D01*
X185289458Y-55308290D01*
X185275000Y-55309000D01*
X184930000Y-55309000D01*
X184915542Y-55308290D01*
X184901224Y-55306166D01*
X184887183Y-55302649D01*
X184873554Y-55297772D01*
X184860469Y-55291583D01*
X184848053Y-55284142D01*
X184836427Y-55275519D01*
X184825702Y-55265798D01*
X184815981Y-55255073D01*
X184807358Y-55243447D01*
X184799917Y-55231031D01*
X184793728Y-55217946D01*
X184788851Y-55204317D01*
X184785334Y-55190276D01*
X184783210Y-55175958D01*
X184782500Y-55161500D01*
X184782500Y-54866500D01*
X184783210Y-54852042D01*
X184785334Y-54837724D01*
X184788851Y-54823683D01*
X184793728Y-54810054D01*
X184799917Y-54796969D01*
X184807358Y-54784553D01*
X184815981Y-54772927D01*
X184825702Y-54762202D01*
X184836427Y-54752481D01*
X184848053Y-54743858D01*
X184860469Y-54736417D01*
X184873554Y-54730228D01*
X184887183Y-54725351D01*
X184901224Y-54721834D01*
X184915542Y-54719710D01*
X184930000Y-54719000D01*
X185275000Y-54719000D01*
X185289458Y-54719710D01*
X185289458Y-54719710D01*
G37*
D12*
X185102500Y-55014000D03*
D11*
G36*
X167382458Y-54927710D02*
G01*
X167396776Y-54929834D01*
X167410817Y-54933351D01*
X167424446Y-54938228D01*
X167437531Y-54944417D01*
X167449947Y-54951858D01*
X167461573Y-54960481D01*
X167472298Y-54970202D01*
X167482019Y-54980927D01*
X167490642Y-54992553D01*
X167498083Y-55004969D01*
X167504272Y-55018054D01*
X167509149Y-55031683D01*
X167512666Y-55045724D01*
X167514790Y-55060042D01*
X167515500Y-55074500D01*
X167515500Y-55369500D01*
X167514790Y-55383958D01*
X167512666Y-55398276D01*
X167509149Y-55412317D01*
X167504272Y-55425946D01*
X167498083Y-55439031D01*
X167490642Y-55451447D01*
X167482019Y-55463073D01*
X167472298Y-55473798D01*
X167461573Y-55483519D01*
X167449947Y-55492142D01*
X167437531Y-55499583D01*
X167424446Y-55505772D01*
X167410817Y-55510649D01*
X167396776Y-55514166D01*
X167382458Y-55516290D01*
X167368000Y-55517000D01*
X167023000Y-55517000D01*
X167008542Y-55516290D01*
X166994224Y-55514166D01*
X166980183Y-55510649D01*
X166966554Y-55505772D01*
X166953469Y-55499583D01*
X166941053Y-55492142D01*
X166929427Y-55483519D01*
X166918702Y-55473798D01*
X166908981Y-55463073D01*
X166900358Y-55451447D01*
X166892917Y-55439031D01*
X166886728Y-55425946D01*
X166881851Y-55412317D01*
X166878334Y-55398276D01*
X166876210Y-55383958D01*
X166875500Y-55369500D01*
X166875500Y-55074500D01*
X166876210Y-55060042D01*
X166878334Y-55045724D01*
X166881851Y-55031683D01*
X166886728Y-55018054D01*
X166892917Y-55004969D01*
X166900358Y-54992553D01*
X166908981Y-54980927D01*
X166918702Y-54970202D01*
X166929427Y-54960481D01*
X166941053Y-54951858D01*
X166953469Y-54944417D01*
X166966554Y-54938228D01*
X166980183Y-54933351D01*
X166994224Y-54929834D01*
X167008542Y-54927710D01*
X167023000Y-54927000D01*
X167368000Y-54927000D01*
X167382458Y-54927710D01*
X167382458Y-54927710D01*
G37*
D12*
X167195500Y-55222000D03*
D11*
G36*
X167382458Y-53957710D02*
G01*
X167396776Y-53959834D01*
X167410817Y-53963351D01*
X167424446Y-53968228D01*
X167437531Y-53974417D01*
X167449947Y-53981858D01*
X167461573Y-53990481D01*
X167472298Y-54000202D01*
X167482019Y-54010927D01*
X167490642Y-54022553D01*
X167498083Y-54034969D01*
X167504272Y-54048054D01*
X167509149Y-54061683D01*
X167512666Y-54075724D01*
X167514790Y-54090042D01*
X167515500Y-54104500D01*
X167515500Y-54399500D01*
X167514790Y-54413958D01*
X167512666Y-54428276D01*
X167509149Y-54442317D01*
X167504272Y-54455946D01*
X167498083Y-54469031D01*
X167490642Y-54481447D01*
X167482019Y-54493073D01*
X167472298Y-54503798D01*
X167461573Y-54513519D01*
X167449947Y-54522142D01*
X167437531Y-54529583D01*
X167424446Y-54535772D01*
X167410817Y-54540649D01*
X167396776Y-54544166D01*
X167382458Y-54546290D01*
X167368000Y-54547000D01*
X167023000Y-54547000D01*
X167008542Y-54546290D01*
X166994224Y-54544166D01*
X166980183Y-54540649D01*
X166966554Y-54535772D01*
X166953469Y-54529583D01*
X166941053Y-54522142D01*
X166929427Y-54513519D01*
X166918702Y-54503798D01*
X166908981Y-54493073D01*
X166900358Y-54481447D01*
X166892917Y-54469031D01*
X166886728Y-54455946D01*
X166881851Y-54442317D01*
X166878334Y-54428276D01*
X166876210Y-54413958D01*
X166875500Y-54399500D01*
X166875500Y-54104500D01*
X166876210Y-54090042D01*
X166878334Y-54075724D01*
X166881851Y-54061683D01*
X166886728Y-54048054D01*
X166892917Y-54034969D01*
X166900358Y-54022553D01*
X166908981Y-54010927D01*
X166918702Y-54000202D01*
X166929427Y-53990481D01*
X166941053Y-53981858D01*
X166953469Y-53974417D01*
X166966554Y-53968228D01*
X166980183Y-53963351D01*
X166994224Y-53959834D01*
X167008542Y-53957710D01*
X167023000Y-53957000D01*
X167368000Y-53957000D01*
X167382458Y-53957710D01*
X167382458Y-53957710D01*
G37*
D12*
X167195500Y-54252000D03*
D11*
G36*
X180605958Y-60069210D02*
G01*
X180620276Y-60071334D01*
X180634317Y-60074851D01*
X180647946Y-60079728D01*
X180661031Y-60085917D01*
X180673447Y-60093358D01*
X180685073Y-60101981D01*
X180695798Y-60111702D01*
X180705519Y-60122427D01*
X180714142Y-60134053D01*
X180721583Y-60146469D01*
X180727772Y-60159554D01*
X180732649Y-60173183D01*
X180736166Y-60187224D01*
X180738290Y-60201542D01*
X180739000Y-60216000D01*
X180739000Y-60561000D01*
X180738290Y-60575458D01*
X180736166Y-60589776D01*
X180732649Y-60603817D01*
X180727772Y-60617446D01*
X180721583Y-60630531D01*
X180714142Y-60642947D01*
X180705519Y-60654573D01*
X180695798Y-60665298D01*
X180685073Y-60675019D01*
X180673447Y-60683642D01*
X180661031Y-60691083D01*
X180647946Y-60697272D01*
X180634317Y-60702149D01*
X180620276Y-60705666D01*
X180605958Y-60707790D01*
X180591500Y-60708500D01*
X180296500Y-60708500D01*
X180282042Y-60707790D01*
X180267724Y-60705666D01*
X180253683Y-60702149D01*
X180240054Y-60697272D01*
X180226969Y-60691083D01*
X180214553Y-60683642D01*
X180202927Y-60675019D01*
X180192202Y-60665298D01*
X180182481Y-60654573D01*
X180173858Y-60642947D01*
X180166417Y-60630531D01*
X180160228Y-60617446D01*
X180155351Y-60603817D01*
X180151834Y-60589776D01*
X180149710Y-60575458D01*
X180149000Y-60561000D01*
X180149000Y-60216000D01*
X180149710Y-60201542D01*
X180151834Y-60187224D01*
X180155351Y-60173183D01*
X180160228Y-60159554D01*
X180166417Y-60146469D01*
X180173858Y-60134053D01*
X180182481Y-60122427D01*
X180192202Y-60111702D01*
X180202927Y-60101981D01*
X180214553Y-60093358D01*
X180226969Y-60085917D01*
X180240054Y-60079728D01*
X180253683Y-60074851D01*
X180267724Y-60071334D01*
X180282042Y-60069210D01*
X180296500Y-60068500D01*
X180591500Y-60068500D01*
X180605958Y-60069210D01*
X180605958Y-60069210D01*
G37*
D12*
X180444000Y-60388500D03*
D11*
G36*
X179635958Y-60069210D02*
G01*
X179650276Y-60071334D01*
X179664317Y-60074851D01*
X179677946Y-60079728D01*
X179691031Y-60085917D01*
X179703447Y-60093358D01*
X179715073Y-60101981D01*
X179725798Y-60111702D01*
X179735519Y-60122427D01*
X179744142Y-60134053D01*
X179751583Y-60146469D01*
X179757772Y-60159554D01*
X179762649Y-60173183D01*
X179766166Y-60187224D01*
X179768290Y-60201542D01*
X179769000Y-60216000D01*
X179769000Y-60561000D01*
X179768290Y-60575458D01*
X179766166Y-60589776D01*
X179762649Y-60603817D01*
X179757772Y-60617446D01*
X179751583Y-60630531D01*
X179744142Y-60642947D01*
X179735519Y-60654573D01*
X179725798Y-60665298D01*
X179715073Y-60675019D01*
X179703447Y-60683642D01*
X179691031Y-60691083D01*
X179677946Y-60697272D01*
X179664317Y-60702149D01*
X179650276Y-60705666D01*
X179635958Y-60707790D01*
X179621500Y-60708500D01*
X179326500Y-60708500D01*
X179312042Y-60707790D01*
X179297724Y-60705666D01*
X179283683Y-60702149D01*
X179270054Y-60697272D01*
X179256969Y-60691083D01*
X179244553Y-60683642D01*
X179232927Y-60675019D01*
X179222202Y-60665298D01*
X179212481Y-60654573D01*
X179203858Y-60642947D01*
X179196417Y-60630531D01*
X179190228Y-60617446D01*
X179185351Y-60603817D01*
X179181834Y-60589776D01*
X179179710Y-60575458D01*
X179179000Y-60561000D01*
X179179000Y-60216000D01*
X179179710Y-60201542D01*
X179181834Y-60187224D01*
X179185351Y-60173183D01*
X179190228Y-60159554D01*
X179196417Y-60146469D01*
X179203858Y-60134053D01*
X179212481Y-60122427D01*
X179222202Y-60111702D01*
X179232927Y-60101981D01*
X179244553Y-60093358D01*
X179256969Y-60085917D01*
X179270054Y-60079728D01*
X179283683Y-60074851D01*
X179297724Y-60071334D01*
X179312042Y-60069210D01*
X179326500Y-60068500D01*
X179621500Y-60068500D01*
X179635958Y-60069210D01*
X179635958Y-60069210D01*
G37*
D12*
X179474000Y-60388500D03*
D11*
G36*
X170237958Y-62037710D02*
G01*
X170252276Y-62039834D01*
X170266317Y-62043351D01*
X170279946Y-62048228D01*
X170293031Y-62054417D01*
X170305447Y-62061858D01*
X170317073Y-62070481D01*
X170327798Y-62080202D01*
X170337519Y-62090927D01*
X170346142Y-62102553D01*
X170353583Y-62114969D01*
X170359772Y-62128054D01*
X170364649Y-62141683D01*
X170368166Y-62155724D01*
X170370290Y-62170042D01*
X170371000Y-62184500D01*
X170371000Y-62529500D01*
X170370290Y-62543958D01*
X170368166Y-62558276D01*
X170364649Y-62572317D01*
X170359772Y-62585946D01*
X170353583Y-62599031D01*
X170346142Y-62611447D01*
X170337519Y-62623073D01*
X170327798Y-62633798D01*
X170317073Y-62643519D01*
X170305447Y-62652142D01*
X170293031Y-62659583D01*
X170279946Y-62665772D01*
X170266317Y-62670649D01*
X170252276Y-62674166D01*
X170237958Y-62676290D01*
X170223500Y-62677000D01*
X169928500Y-62677000D01*
X169914042Y-62676290D01*
X169899724Y-62674166D01*
X169885683Y-62670649D01*
X169872054Y-62665772D01*
X169858969Y-62659583D01*
X169846553Y-62652142D01*
X169834927Y-62643519D01*
X169824202Y-62633798D01*
X169814481Y-62623073D01*
X169805858Y-62611447D01*
X169798417Y-62599031D01*
X169792228Y-62585946D01*
X169787351Y-62572317D01*
X169783834Y-62558276D01*
X169781710Y-62543958D01*
X169781000Y-62529500D01*
X169781000Y-62184500D01*
X169781710Y-62170042D01*
X169783834Y-62155724D01*
X169787351Y-62141683D01*
X169792228Y-62128054D01*
X169798417Y-62114969D01*
X169805858Y-62102553D01*
X169814481Y-62090927D01*
X169824202Y-62080202D01*
X169834927Y-62070481D01*
X169846553Y-62061858D01*
X169858969Y-62054417D01*
X169872054Y-62048228D01*
X169885683Y-62043351D01*
X169899724Y-62039834D01*
X169914042Y-62037710D01*
X169928500Y-62037000D01*
X170223500Y-62037000D01*
X170237958Y-62037710D01*
X170237958Y-62037710D01*
G37*
D12*
X170076000Y-62357000D03*
D11*
G36*
X171207958Y-62037710D02*
G01*
X171222276Y-62039834D01*
X171236317Y-62043351D01*
X171249946Y-62048228D01*
X171263031Y-62054417D01*
X171275447Y-62061858D01*
X171287073Y-62070481D01*
X171297798Y-62080202D01*
X171307519Y-62090927D01*
X171316142Y-62102553D01*
X171323583Y-62114969D01*
X171329772Y-62128054D01*
X171334649Y-62141683D01*
X171338166Y-62155724D01*
X171340290Y-62170042D01*
X171341000Y-62184500D01*
X171341000Y-62529500D01*
X171340290Y-62543958D01*
X171338166Y-62558276D01*
X171334649Y-62572317D01*
X171329772Y-62585946D01*
X171323583Y-62599031D01*
X171316142Y-62611447D01*
X171307519Y-62623073D01*
X171297798Y-62633798D01*
X171287073Y-62643519D01*
X171275447Y-62652142D01*
X171263031Y-62659583D01*
X171249946Y-62665772D01*
X171236317Y-62670649D01*
X171222276Y-62674166D01*
X171207958Y-62676290D01*
X171193500Y-62677000D01*
X170898500Y-62677000D01*
X170884042Y-62676290D01*
X170869724Y-62674166D01*
X170855683Y-62670649D01*
X170842054Y-62665772D01*
X170828969Y-62659583D01*
X170816553Y-62652142D01*
X170804927Y-62643519D01*
X170794202Y-62633798D01*
X170784481Y-62623073D01*
X170775858Y-62611447D01*
X170768417Y-62599031D01*
X170762228Y-62585946D01*
X170757351Y-62572317D01*
X170753834Y-62558276D01*
X170751710Y-62543958D01*
X170751000Y-62529500D01*
X170751000Y-62184500D01*
X170751710Y-62170042D01*
X170753834Y-62155724D01*
X170757351Y-62141683D01*
X170762228Y-62128054D01*
X170768417Y-62114969D01*
X170775858Y-62102553D01*
X170784481Y-62090927D01*
X170794202Y-62080202D01*
X170804927Y-62070481D01*
X170816553Y-62061858D01*
X170828969Y-62054417D01*
X170842054Y-62048228D01*
X170855683Y-62043351D01*
X170869724Y-62039834D01*
X170884042Y-62037710D01*
X170898500Y-62037000D01*
X171193500Y-62037000D01*
X171207958Y-62037710D01*
X171207958Y-62037710D01*
G37*
D12*
X171046000Y-62357000D03*
M02*
