%TF.GenerationSoftware,KiCad,Pcbnew,(5.1.4)-1*%
%TF.CreationDate,2019-10-27T14:01:39-07:00*%
%TF.ProjectId,SolarCell+Y,536f6c61-7243-4656-9c6c-2b592e6b6963,rev?*%
%TF.SameCoordinates,Original*%
%TF.FileFunction,Paste,Top*%
%TF.FilePolarity,Positive*%
%FSLAX46Y46*%
G04 Gerber Fmt 4.6, Leading zero omitted, Abs format (unit mm)*
G04 Created by KiCad (PCBNEW (5.1.4)-1) date 2019-10-27 14:01:39*
%MOMM*%
%LPD*%
G04 APERTURE LIST*
%ADD10C,0.050000*%
%ADD11C,0.100000*%
%ADD12C,0.590000*%
%ADD13R,2.000000X7.400000*%
%ADD14R,0.700000X0.900000*%
%ADD15R,7.400000X2.000000*%
%ADD16R,1.400000X1.400000*%
%ADD17R,1.400000X2.700000*%
G04 APERTURE END LIST*
D10*
X198500000Y-42500000D02*
G75*
G03X198500000Y-42500000I-1100000J0D01*
G01*
X198500000Y-87500000D02*
G75*
G03X198500000Y-87500000I-1100000J0D01*
G01*
X153600000Y-87400000D02*
G75*
G03X153600000Y-87400000I-1100000J0D01*
G01*
X200000000Y-40000000D02*
X150000000Y-40000000D01*
X200000000Y-90000000D02*
X200000000Y-40000000D01*
X150000000Y-90000000D02*
X200000000Y-90000000D01*
X150000000Y-40000000D02*
X150000000Y-90000000D01*
X153600000Y-42400000D02*
G75*
G03X153600000Y-42400000I-1100000J0D01*
G01*
D11*
G36*
X153577958Y-59878710D02*
G01*
X153592276Y-59880834D01*
X153606317Y-59884351D01*
X153619946Y-59889228D01*
X153633031Y-59895417D01*
X153645447Y-59902858D01*
X153657073Y-59911481D01*
X153667798Y-59921202D01*
X153677519Y-59931927D01*
X153686142Y-59943553D01*
X153693583Y-59955969D01*
X153699772Y-59969054D01*
X153704649Y-59982683D01*
X153708166Y-59996724D01*
X153710290Y-60011042D01*
X153711000Y-60025500D01*
X153711000Y-60370500D01*
X153710290Y-60384958D01*
X153708166Y-60399276D01*
X153704649Y-60413317D01*
X153699772Y-60426946D01*
X153693583Y-60440031D01*
X153686142Y-60452447D01*
X153677519Y-60464073D01*
X153667798Y-60474798D01*
X153657073Y-60484519D01*
X153645447Y-60493142D01*
X153633031Y-60500583D01*
X153619946Y-60506772D01*
X153606317Y-60511649D01*
X153592276Y-60515166D01*
X153577958Y-60517290D01*
X153563500Y-60518000D01*
X153268500Y-60518000D01*
X153254042Y-60517290D01*
X153239724Y-60515166D01*
X153225683Y-60511649D01*
X153212054Y-60506772D01*
X153198969Y-60500583D01*
X153186553Y-60493142D01*
X153174927Y-60484519D01*
X153164202Y-60474798D01*
X153154481Y-60464073D01*
X153145858Y-60452447D01*
X153138417Y-60440031D01*
X153132228Y-60426946D01*
X153127351Y-60413317D01*
X153123834Y-60399276D01*
X153121710Y-60384958D01*
X153121000Y-60370500D01*
X153121000Y-60025500D01*
X153121710Y-60011042D01*
X153123834Y-59996724D01*
X153127351Y-59982683D01*
X153132228Y-59969054D01*
X153138417Y-59955969D01*
X153145858Y-59943553D01*
X153154481Y-59931927D01*
X153164202Y-59921202D01*
X153174927Y-59911481D01*
X153186553Y-59902858D01*
X153198969Y-59895417D01*
X153212054Y-59889228D01*
X153225683Y-59884351D01*
X153239724Y-59880834D01*
X153254042Y-59878710D01*
X153268500Y-59878000D01*
X153563500Y-59878000D01*
X153577958Y-59878710D01*
X153577958Y-59878710D01*
G37*
D12*
X153416000Y-60198000D03*
D11*
G36*
X152607958Y-59878710D02*
G01*
X152622276Y-59880834D01*
X152636317Y-59884351D01*
X152649946Y-59889228D01*
X152663031Y-59895417D01*
X152675447Y-59902858D01*
X152687073Y-59911481D01*
X152697798Y-59921202D01*
X152707519Y-59931927D01*
X152716142Y-59943553D01*
X152723583Y-59955969D01*
X152729772Y-59969054D01*
X152734649Y-59982683D01*
X152738166Y-59996724D01*
X152740290Y-60011042D01*
X152741000Y-60025500D01*
X152741000Y-60370500D01*
X152740290Y-60384958D01*
X152738166Y-60399276D01*
X152734649Y-60413317D01*
X152729772Y-60426946D01*
X152723583Y-60440031D01*
X152716142Y-60452447D01*
X152707519Y-60464073D01*
X152697798Y-60474798D01*
X152687073Y-60484519D01*
X152675447Y-60493142D01*
X152663031Y-60500583D01*
X152649946Y-60506772D01*
X152636317Y-60511649D01*
X152622276Y-60515166D01*
X152607958Y-60517290D01*
X152593500Y-60518000D01*
X152298500Y-60518000D01*
X152284042Y-60517290D01*
X152269724Y-60515166D01*
X152255683Y-60511649D01*
X152242054Y-60506772D01*
X152228969Y-60500583D01*
X152216553Y-60493142D01*
X152204927Y-60484519D01*
X152194202Y-60474798D01*
X152184481Y-60464073D01*
X152175858Y-60452447D01*
X152168417Y-60440031D01*
X152162228Y-60426946D01*
X152157351Y-60413317D01*
X152153834Y-60399276D01*
X152151710Y-60384958D01*
X152151000Y-60370500D01*
X152151000Y-60025500D01*
X152151710Y-60011042D01*
X152153834Y-59996724D01*
X152157351Y-59982683D01*
X152162228Y-59969054D01*
X152168417Y-59955969D01*
X152175858Y-59943553D01*
X152184481Y-59931927D01*
X152194202Y-59921202D01*
X152204927Y-59911481D01*
X152216553Y-59902858D01*
X152228969Y-59895417D01*
X152242054Y-59889228D01*
X152255683Y-59884351D01*
X152269724Y-59880834D01*
X152284042Y-59878710D01*
X152298500Y-59878000D01*
X152593500Y-59878000D01*
X152607958Y-59878710D01*
X152607958Y-59878710D01*
G37*
D12*
X152446000Y-60198000D03*
D13*
X185496200Y-76454000D03*
X164496200Y-76454000D03*
D11*
G36*
X152602458Y-59878710D02*
G01*
X152616776Y-59880834D01*
X152630817Y-59884351D01*
X152644446Y-59889228D01*
X152657531Y-59895417D01*
X152669947Y-59902858D01*
X152681573Y-59911481D01*
X152692298Y-59921202D01*
X152702019Y-59931927D01*
X152710642Y-59943553D01*
X152718083Y-59955969D01*
X152724272Y-59969054D01*
X152729149Y-59982683D01*
X152732666Y-59996724D01*
X152734790Y-60011042D01*
X152735500Y-60025500D01*
X152735500Y-60370500D01*
X152734790Y-60384958D01*
X152732666Y-60399276D01*
X152729149Y-60413317D01*
X152724272Y-60426946D01*
X152718083Y-60440031D01*
X152710642Y-60452447D01*
X152702019Y-60464073D01*
X152692298Y-60474798D01*
X152681573Y-60484519D01*
X152669947Y-60493142D01*
X152657531Y-60500583D01*
X152644446Y-60506772D01*
X152630817Y-60511649D01*
X152616776Y-60515166D01*
X152602458Y-60517290D01*
X152588000Y-60518000D01*
X152293000Y-60518000D01*
X152278542Y-60517290D01*
X152264224Y-60515166D01*
X152250183Y-60511649D01*
X152236554Y-60506772D01*
X152223469Y-60500583D01*
X152211053Y-60493142D01*
X152199427Y-60484519D01*
X152188702Y-60474798D01*
X152178981Y-60464073D01*
X152170358Y-60452447D01*
X152162917Y-60440031D01*
X152156728Y-60426946D01*
X152151851Y-60413317D01*
X152148334Y-60399276D01*
X152146210Y-60384958D01*
X152145500Y-60370500D01*
X152145500Y-60025500D01*
X152146210Y-60011042D01*
X152148334Y-59996724D01*
X152151851Y-59982683D01*
X152156728Y-59969054D01*
X152162917Y-59955969D01*
X152170358Y-59943553D01*
X152178981Y-59931927D01*
X152188702Y-59921202D01*
X152199427Y-59911481D01*
X152211053Y-59902858D01*
X152223469Y-59895417D01*
X152236554Y-59889228D01*
X152250183Y-59884351D01*
X152264224Y-59880834D01*
X152278542Y-59878710D01*
X152293000Y-59878000D01*
X152588000Y-59878000D01*
X152602458Y-59878710D01*
X152602458Y-59878710D01*
G37*
D12*
X152440500Y-60198000D03*
D11*
G36*
X151632458Y-59878710D02*
G01*
X151646776Y-59880834D01*
X151660817Y-59884351D01*
X151674446Y-59889228D01*
X151687531Y-59895417D01*
X151699947Y-59902858D01*
X151711573Y-59911481D01*
X151722298Y-59921202D01*
X151732019Y-59931927D01*
X151740642Y-59943553D01*
X151748083Y-59955969D01*
X151754272Y-59969054D01*
X151759149Y-59982683D01*
X151762666Y-59996724D01*
X151764790Y-60011042D01*
X151765500Y-60025500D01*
X151765500Y-60370500D01*
X151764790Y-60384958D01*
X151762666Y-60399276D01*
X151759149Y-60413317D01*
X151754272Y-60426946D01*
X151748083Y-60440031D01*
X151740642Y-60452447D01*
X151732019Y-60464073D01*
X151722298Y-60474798D01*
X151711573Y-60484519D01*
X151699947Y-60493142D01*
X151687531Y-60500583D01*
X151674446Y-60506772D01*
X151660817Y-60511649D01*
X151646776Y-60515166D01*
X151632458Y-60517290D01*
X151618000Y-60518000D01*
X151323000Y-60518000D01*
X151308542Y-60517290D01*
X151294224Y-60515166D01*
X151280183Y-60511649D01*
X151266554Y-60506772D01*
X151253469Y-60500583D01*
X151241053Y-60493142D01*
X151229427Y-60484519D01*
X151218702Y-60474798D01*
X151208981Y-60464073D01*
X151200358Y-60452447D01*
X151192917Y-60440031D01*
X151186728Y-60426946D01*
X151181851Y-60413317D01*
X151178334Y-60399276D01*
X151176210Y-60384958D01*
X151175500Y-60370500D01*
X151175500Y-60025500D01*
X151176210Y-60011042D01*
X151178334Y-59996724D01*
X151181851Y-59982683D01*
X151186728Y-59969054D01*
X151192917Y-59955969D01*
X151200358Y-59943553D01*
X151208981Y-59931927D01*
X151218702Y-59921202D01*
X151229427Y-59911481D01*
X151241053Y-59902858D01*
X151253469Y-59895417D01*
X151266554Y-59889228D01*
X151280183Y-59884351D01*
X151294224Y-59880834D01*
X151308542Y-59878710D01*
X151323000Y-59878000D01*
X151618000Y-59878000D01*
X151632458Y-59878710D01*
X151632458Y-59878710D01*
G37*
D12*
X151470500Y-60198000D03*
D14*
X151513500Y-55954000D03*
X152463500Y-55954000D03*
X153413500Y-55954000D03*
X153413500Y-58854000D03*
X152463500Y-58854000D03*
X151513500Y-58854000D03*
D13*
X164500000Y-84836000D03*
X185500000Y-84836000D03*
D15*
X191508000Y-63037000D03*
X191508000Y-42037000D03*
X158492000Y-67000000D03*
X158492000Y-88000000D03*
X158492000Y-63037000D03*
X158492000Y-42037000D03*
X191508000Y-67000000D03*
X191508000Y-88000000D03*
D13*
X185500000Y-45339000D03*
X164500000Y-45339000D03*
X164496200Y-53594000D03*
X185496200Y-53594000D03*
D16*
X152654000Y-63174000D03*
D17*
X152654000Y-66224000D03*
D16*
X197358000Y-66874000D03*
D17*
X197358000Y-63824000D03*
D11*
G36*
X166808958Y-70229210D02*
G01*
X166823276Y-70231334D01*
X166837317Y-70234851D01*
X166850946Y-70239728D01*
X166864031Y-70245917D01*
X166876447Y-70253358D01*
X166888073Y-70261981D01*
X166898798Y-70271702D01*
X166908519Y-70282427D01*
X166917142Y-70294053D01*
X166924583Y-70306469D01*
X166930772Y-70319554D01*
X166935649Y-70333183D01*
X166939166Y-70347224D01*
X166941290Y-70361542D01*
X166942000Y-70376000D01*
X166942000Y-70721000D01*
X166941290Y-70735458D01*
X166939166Y-70749776D01*
X166935649Y-70763817D01*
X166930772Y-70777446D01*
X166924583Y-70790531D01*
X166917142Y-70802947D01*
X166908519Y-70814573D01*
X166898798Y-70825298D01*
X166888073Y-70835019D01*
X166876447Y-70843642D01*
X166864031Y-70851083D01*
X166850946Y-70857272D01*
X166837317Y-70862149D01*
X166823276Y-70865666D01*
X166808958Y-70867790D01*
X166794500Y-70868500D01*
X166499500Y-70868500D01*
X166485042Y-70867790D01*
X166470724Y-70865666D01*
X166456683Y-70862149D01*
X166443054Y-70857272D01*
X166429969Y-70851083D01*
X166417553Y-70843642D01*
X166405927Y-70835019D01*
X166395202Y-70825298D01*
X166385481Y-70814573D01*
X166376858Y-70802947D01*
X166369417Y-70790531D01*
X166363228Y-70777446D01*
X166358351Y-70763817D01*
X166354834Y-70749776D01*
X166352710Y-70735458D01*
X166352000Y-70721000D01*
X166352000Y-70376000D01*
X166352710Y-70361542D01*
X166354834Y-70347224D01*
X166358351Y-70333183D01*
X166363228Y-70319554D01*
X166369417Y-70306469D01*
X166376858Y-70294053D01*
X166385481Y-70282427D01*
X166395202Y-70271702D01*
X166405927Y-70261981D01*
X166417553Y-70253358D01*
X166429969Y-70245917D01*
X166443054Y-70239728D01*
X166456683Y-70234851D01*
X166470724Y-70231334D01*
X166485042Y-70229210D01*
X166499500Y-70228500D01*
X166794500Y-70228500D01*
X166808958Y-70229210D01*
X166808958Y-70229210D01*
G37*
D12*
X166647000Y-70548500D03*
D11*
G36*
X167778958Y-70229210D02*
G01*
X167793276Y-70231334D01*
X167807317Y-70234851D01*
X167820946Y-70239728D01*
X167834031Y-70245917D01*
X167846447Y-70253358D01*
X167858073Y-70261981D01*
X167868798Y-70271702D01*
X167878519Y-70282427D01*
X167887142Y-70294053D01*
X167894583Y-70306469D01*
X167900772Y-70319554D01*
X167905649Y-70333183D01*
X167909166Y-70347224D01*
X167911290Y-70361542D01*
X167912000Y-70376000D01*
X167912000Y-70721000D01*
X167911290Y-70735458D01*
X167909166Y-70749776D01*
X167905649Y-70763817D01*
X167900772Y-70777446D01*
X167894583Y-70790531D01*
X167887142Y-70802947D01*
X167878519Y-70814573D01*
X167868798Y-70825298D01*
X167858073Y-70835019D01*
X167846447Y-70843642D01*
X167834031Y-70851083D01*
X167820946Y-70857272D01*
X167807317Y-70862149D01*
X167793276Y-70865666D01*
X167778958Y-70867790D01*
X167764500Y-70868500D01*
X167469500Y-70868500D01*
X167455042Y-70867790D01*
X167440724Y-70865666D01*
X167426683Y-70862149D01*
X167413054Y-70857272D01*
X167399969Y-70851083D01*
X167387553Y-70843642D01*
X167375927Y-70835019D01*
X167365202Y-70825298D01*
X167355481Y-70814573D01*
X167346858Y-70802947D01*
X167339417Y-70790531D01*
X167333228Y-70777446D01*
X167328351Y-70763817D01*
X167324834Y-70749776D01*
X167322710Y-70735458D01*
X167322000Y-70721000D01*
X167322000Y-70376000D01*
X167322710Y-70361542D01*
X167324834Y-70347224D01*
X167328351Y-70333183D01*
X167333228Y-70319554D01*
X167339417Y-70306469D01*
X167346858Y-70294053D01*
X167355481Y-70282427D01*
X167365202Y-70271702D01*
X167375927Y-70261981D01*
X167387553Y-70253358D01*
X167399969Y-70245917D01*
X167413054Y-70239728D01*
X167426683Y-70234851D01*
X167440724Y-70231334D01*
X167455042Y-70229210D01*
X167469500Y-70228500D01*
X167764500Y-70228500D01*
X167778958Y-70229210D01*
X167778958Y-70229210D01*
G37*
D12*
X167617000Y-70548500D03*
D11*
G36*
X165838678Y-70229210D02*
G01*
X165852996Y-70231334D01*
X165867037Y-70234851D01*
X165880666Y-70239728D01*
X165893751Y-70245917D01*
X165906167Y-70253358D01*
X165917793Y-70261981D01*
X165928518Y-70271702D01*
X165938239Y-70282427D01*
X165946862Y-70294053D01*
X165954303Y-70306469D01*
X165960492Y-70319554D01*
X165965369Y-70333183D01*
X165968886Y-70347224D01*
X165971010Y-70361542D01*
X165971720Y-70376000D01*
X165971720Y-70721000D01*
X165971010Y-70735458D01*
X165968886Y-70749776D01*
X165965369Y-70763817D01*
X165960492Y-70777446D01*
X165954303Y-70790531D01*
X165946862Y-70802947D01*
X165938239Y-70814573D01*
X165928518Y-70825298D01*
X165917793Y-70835019D01*
X165906167Y-70843642D01*
X165893751Y-70851083D01*
X165880666Y-70857272D01*
X165867037Y-70862149D01*
X165852996Y-70865666D01*
X165838678Y-70867790D01*
X165824220Y-70868500D01*
X165529220Y-70868500D01*
X165514762Y-70867790D01*
X165500444Y-70865666D01*
X165486403Y-70862149D01*
X165472774Y-70857272D01*
X165459689Y-70851083D01*
X165447273Y-70843642D01*
X165435647Y-70835019D01*
X165424922Y-70825298D01*
X165415201Y-70814573D01*
X165406578Y-70802947D01*
X165399137Y-70790531D01*
X165392948Y-70777446D01*
X165388071Y-70763817D01*
X165384554Y-70749776D01*
X165382430Y-70735458D01*
X165381720Y-70721000D01*
X165381720Y-70376000D01*
X165382430Y-70361542D01*
X165384554Y-70347224D01*
X165388071Y-70333183D01*
X165392948Y-70319554D01*
X165399137Y-70306469D01*
X165406578Y-70294053D01*
X165415201Y-70282427D01*
X165424922Y-70271702D01*
X165435647Y-70261981D01*
X165447273Y-70253358D01*
X165459689Y-70245917D01*
X165472774Y-70239728D01*
X165486403Y-70234851D01*
X165500444Y-70231334D01*
X165514762Y-70229210D01*
X165529220Y-70228500D01*
X165824220Y-70228500D01*
X165838678Y-70229210D01*
X165838678Y-70229210D01*
G37*
D12*
X165676720Y-70548500D03*
D11*
G36*
X166808678Y-70229210D02*
G01*
X166822996Y-70231334D01*
X166837037Y-70234851D01*
X166850666Y-70239728D01*
X166863751Y-70245917D01*
X166876167Y-70253358D01*
X166887793Y-70261981D01*
X166898518Y-70271702D01*
X166908239Y-70282427D01*
X166916862Y-70294053D01*
X166924303Y-70306469D01*
X166930492Y-70319554D01*
X166935369Y-70333183D01*
X166938886Y-70347224D01*
X166941010Y-70361542D01*
X166941720Y-70376000D01*
X166941720Y-70721000D01*
X166941010Y-70735458D01*
X166938886Y-70749776D01*
X166935369Y-70763817D01*
X166930492Y-70777446D01*
X166924303Y-70790531D01*
X166916862Y-70802947D01*
X166908239Y-70814573D01*
X166898518Y-70825298D01*
X166887793Y-70835019D01*
X166876167Y-70843642D01*
X166863751Y-70851083D01*
X166850666Y-70857272D01*
X166837037Y-70862149D01*
X166822996Y-70865666D01*
X166808678Y-70867790D01*
X166794220Y-70868500D01*
X166499220Y-70868500D01*
X166484762Y-70867790D01*
X166470444Y-70865666D01*
X166456403Y-70862149D01*
X166442774Y-70857272D01*
X166429689Y-70851083D01*
X166417273Y-70843642D01*
X166405647Y-70835019D01*
X166394922Y-70825298D01*
X166385201Y-70814573D01*
X166376578Y-70802947D01*
X166369137Y-70790531D01*
X166362948Y-70777446D01*
X166358071Y-70763817D01*
X166354554Y-70749776D01*
X166352430Y-70735458D01*
X166351720Y-70721000D01*
X166351720Y-70376000D01*
X166352430Y-70361542D01*
X166354554Y-70347224D01*
X166358071Y-70333183D01*
X166362948Y-70319554D01*
X166369137Y-70306469D01*
X166376578Y-70294053D01*
X166385201Y-70282427D01*
X166394922Y-70271702D01*
X166405647Y-70261981D01*
X166417273Y-70253358D01*
X166429689Y-70245917D01*
X166442774Y-70239728D01*
X166456403Y-70234851D01*
X166470444Y-70231334D01*
X166484762Y-70229210D01*
X166499220Y-70228500D01*
X166794220Y-70228500D01*
X166808678Y-70229210D01*
X166808678Y-70229210D01*
G37*
D12*
X166646720Y-70548500D03*
D11*
G36*
X166808958Y-71626210D02*
G01*
X166823276Y-71628334D01*
X166837317Y-71631851D01*
X166850946Y-71636728D01*
X166864031Y-71642917D01*
X166876447Y-71650358D01*
X166888073Y-71658981D01*
X166898798Y-71668702D01*
X166908519Y-71679427D01*
X166917142Y-71691053D01*
X166924583Y-71703469D01*
X166930772Y-71716554D01*
X166935649Y-71730183D01*
X166939166Y-71744224D01*
X166941290Y-71758542D01*
X166942000Y-71773000D01*
X166942000Y-72118000D01*
X166941290Y-72132458D01*
X166939166Y-72146776D01*
X166935649Y-72160817D01*
X166930772Y-72174446D01*
X166924583Y-72187531D01*
X166917142Y-72199947D01*
X166908519Y-72211573D01*
X166898798Y-72222298D01*
X166888073Y-72232019D01*
X166876447Y-72240642D01*
X166864031Y-72248083D01*
X166850946Y-72254272D01*
X166837317Y-72259149D01*
X166823276Y-72262666D01*
X166808958Y-72264790D01*
X166794500Y-72265500D01*
X166499500Y-72265500D01*
X166485042Y-72264790D01*
X166470724Y-72262666D01*
X166456683Y-72259149D01*
X166443054Y-72254272D01*
X166429969Y-72248083D01*
X166417553Y-72240642D01*
X166405927Y-72232019D01*
X166395202Y-72222298D01*
X166385481Y-72211573D01*
X166376858Y-72199947D01*
X166369417Y-72187531D01*
X166363228Y-72174446D01*
X166358351Y-72160817D01*
X166354834Y-72146776D01*
X166352710Y-72132458D01*
X166352000Y-72118000D01*
X166352000Y-71773000D01*
X166352710Y-71758542D01*
X166354834Y-71744224D01*
X166358351Y-71730183D01*
X166363228Y-71716554D01*
X166369417Y-71703469D01*
X166376858Y-71691053D01*
X166385481Y-71679427D01*
X166395202Y-71668702D01*
X166405927Y-71658981D01*
X166417553Y-71650358D01*
X166429969Y-71642917D01*
X166443054Y-71636728D01*
X166456683Y-71631851D01*
X166470724Y-71628334D01*
X166485042Y-71626210D01*
X166499500Y-71625500D01*
X166794500Y-71625500D01*
X166808958Y-71626210D01*
X166808958Y-71626210D01*
G37*
D12*
X166647000Y-71945500D03*
D11*
G36*
X167778958Y-71626210D02*
G01*
X167793276Y-71628334D01*
X167807317Y-71631851D01*
X167820946Y-71636728D01*
X167834031Y-71642917D01*
X167846447Y-71650358D01*
X167858073Y-71658981D01*
X167868798Y-71668702D01*
X167878519Y-71679427D01*
X167887142Y-71691053D01*
X167894583Y-71703469D01*
X167900772Y-71716554D01*
X167905649Y-71730183D01*
X167909166Y-71744224D01*
X167911290Y-71758542D01*
X167912000Y-71773000D01*
X167912000Y-72118000D01*
X167911290Y-72132458D01*
X167909166Y-72146776D01*
X167905649Y-72160817D01*
X167900772Y-72174446D01*
X167894583Y-72187531D01*
X167887142Y-72199947D01*
X167878519Y-72211573D01*
X167868798Y-72222298D01*
X167858073Y-72232019D01*
X167846447Y-72240642D01*
X167834031Y-72248083D01*
X167820946Y-72254272D01*
X167807317Y-72259149D01*
X167793276Y-72262666D01*
X167778958Y-72264790D01*
X167764500Y-72265500D01*
X167469500Y-72265500D01*
X167455042Y-72264790D01*
X167440724Y-72262666D01*
X167426683Y-72259149D01*
X167413054Y-72254272D01*
X167399969Y-72248083D01*
X167387553Y-72240642D01*
X167375927Y-72232019D01*
X167365202Y-72222298D01*
X167355481Y-72211573D01*
X167346858Y-72199947D01*
X167339417Y-72187531D01*
X167333228Y-72174446D01*
X167328351Y-72160817D01*
X167324834Y-72146776D01*
X167322710Y-72132458D01*
X167322000Y-72118000D01*
X167322000Y-71773000D01*
X167322710Y-71758542D01*
X167324834Y-71744224D01*
X167328351Y-71730183D01*
X167333228Y-71716554D01*
X167339417Y-71703469D01*
X167346858Y-71691053D01*
X167355481Y-71679427D01*
X167365202Y-71668702D01*
X167375927Y-71658981D01*
X167387553Y-71650358D01*
X167399969Y-71642917D01*
X167413054Y-71636728D01*
X167426683Y-71631851D01*
X167440724Y-71628334D01*
X167455042Y-71626210D01*
X167469500Y-71625500D01*
X167764500Y-71625500D01*
X167778958Y-71626210D01*
X167778958Y-71626210D01*
G37*
D12*
X167617000Y-71945500D03*
D11*
G36*
X165838678Y-71626210D02*
G01*
X165852996Y-71628334D01*
X165867037Y-71631851D01*
X165880666Y-71636728D01*
X165893751Y-71642917D01*
X165906167Y-71650358D01*
X165917793Y-71658981D01*
X165928518Y-71668702D01*
X165938239Y-71679427D01*
X165946862Y-71691053D01*
X165954303Y-71703469D01*
X165960492Y-71716554D01*
X165965369Y-71730183D01*
X165968886Y-71744224D01*
X165971010Y-71758542D01*
X165971720Y-71773000D01*
X165971720Y-72118000D01*
X165971010Y-72132458D01*
X165968886Y-72146776D01*
X165965369Y-72160817D01*
X165960492Y-72174446D01*
X165954303Y-72187531D01*
X165946862Y-72199947D01*
X165938239Y-72211573D01*
X165928518Y-72222298D01*
X165917793Y-72232019D01*
X165906167Y-72240642D01*
X165893751Y-72248083D01*
X165880666Y-72254272D01*
X165867037Y-72259149D01*
X165852996Y-72262666D01*
X165838678Y-72264790D01*
X165824220Y-72265500D01*
X165529220Y-72265500D01*
X165514762Y-72264790D01*
X165500444Y-72262666D01*
X165486403Y-72259149D01*
X165472774Y-72254272D01*
X165459689Y-72248083D01*
X165447273Y-72240642D01*
X165435647Y-72232019D01*
X165424922Y-72222298D01*
X165415201Y-72211573D01*
X165406578Y-72199947D01*
X165399137Y-72187531D01*
X165392948Y-72174446D01*
X165388071Y-72160817D01*
X165384554Y-72146776D01*
X165382430Y-72132458D01*
X165381720Y-72118000D01*
X165381720Y-71773000D01*
X165382430Y-71758542D01*
X165384554Y-71744224D01*
X165388071Y-71730183D01*
X165392948Y-71716554D01*
X165399137Y-71703469D01*
X165406578Y-71691053D01*
X165415201Y-71679427D01*
X165424922Y-71668702D01*
X165435647Y-71658981D01*
X165447273Y-71650358D01*
X165459689Y-71642917D01*
X165472774Y-71636728D01*
X165486403Y-71631851D01*
X165500444Y-71628334D01*
X165514762Y-71626210D01*
X165529220Y-71625500D01*
X165824220Y-71625500D01*
X165838678Y-71626210D01*
X165838678Y-71626210D01*
G37*
D12*
X165676720Y-71945500D03*
D11*
G36*
X166808678Y-71626210D02*
G01*
X166822996Y-71628334D01*
X166837037Y-71631851D01*
X166850666Y-71636728D01*
X166863751Y-71642917D01*
X166876167Y-71650358D01*
X166887793Y-71658981D01*
X166898518Y-71668702D01*
X166908239Y-71679427D01*
X166916862Y-71691053D01*
X166924303Y-71703469D01*
X166930492Y-71716554D01*
X166935369Y-71730183D01*
X166938886Y-71744224D01*
X166941010Y-71758542D01*
X166941720Y-71773000D01*
X166941720Y-72118000D01*
X166941010Y-72132458D01*
X166938886Y-72146776D01*
X166935369Y-72160817D01*
X166930492Y-72174446D01*
X166924303Y-72187531D01*
X166916862Y-72199947D01*
X166908239Y-72211573D01*
X166898518Y-72222298D01*
X166887793Y-72232019D01*
X166876167Y-72240642D01*
X166863751Y-72248083D01*
X166850666Y-72254272D01*
X166837037Y-72259149D01*
X166822996Y-72262666D01*
X166808678Y-72264790D01*
X166794220Y-72265500D01*
X166499220Y-72265500D01*
X166484762Y-72264790D01*
X166470444Y-72262666D01*
X166456403Y-72259149D01*
X166442774Y-72254272D01*
X166429689Y-72248083D01*
X166417273Y-72240642D01*
X166405647Y-72232019D01*
X166394922Y-72222298D01*
X166385201Y-72211573D01*
X166376578Y-72199947D01*
X166369137Y-72187531D01*
X166362948Y-72174446D01*
X166358071Y-72160817D01*
X166354554Y-72146776D01*
X166352430Y-72132458D01*
X166351720Y-72118000D01*
X166351720Y-71773000D01*
X166352430Y-71758542D01*
X166354554Y-71744224D01*
X166358071Y-71730183D01*
X166362948Y-71716554D01*
X166369137Y-71703469D01*
X166376578Y-71691053D01*
X166385201Y-71679427D01*
X166394922Y-71668702D01*
X166405647Y-71658981D01*
X166417273Y-71650358D01*
X166429689Y-71642917D01*
X166442774Y-71636728D01*
X166456403Y-71631851D01*
X166470444Y-71628334D01*
X166484762Y-71626210D01*
X166499220Y-71625500D01*
X166794220Y-71625500D01*
X166808678Y-71626210D01*
X166808678Y-71626210D01*
G37*
D12*
X166646720Y-71945500D03*
D11*
G36*
X152140458Y-61021710D02*
G01*
X152154776Y-61023834D01*
X152168817Y-61027351D01*
X152182446Y-61032228D01*
X152195531Y-61038417D01*
X152207947Y-61045858D01*
X152219573Y-61054481D01*
X152230298Y-61064202D01*
X152240019Y-61074927D01*
X152248642Y-61086553D01*
X152256083Y-61098969D01*
X152262272Y-61112054D01*
X152267149Y-61125683D01*
X152270666Y-61139724D01*
X152272790Y-61154042D01*
X152273500Y-61168500D01*
X152273500Y-61513500D01*
X152272790Y-61527958D01*
X152270666Y-61542276D01*
X152267149Y-61556317D01*
X152262272Y-61569946D01*
X152256083Y-61583031D01*
X152248642Y-61595447D01*
X152240019Y-61607073D01*
X152230298Y-61617798D01*
X152219573Y-61627519D01*
X152207947Y-61636142D01*
X152195531Y-61643583D01*
X152182446Y-61649772D01*
X152168817Y-61654649D01*
X152154776Y-61658166D01*
X152140458Y-61660290D01*
X152126000Y-61661000D01*
X151831000Y-61661000D01*
X151816542Y-61660290D01*
X151802224Y-61658166D01*
X151788183Y-61654649D01*
X151774554Y-61649772D01*
X151761469Y-61643583D01*
X151749053Y-61636142D01*
X151737427Y-61627519D01*
X151726702Y-61617798D01*
X151716981Y-61607073D01*
X151708358Y-61595447D01*
X151700917Y-61583031D01*
X151694728Y-61569946D01*
X151689851Y-61556317D01*
X151686334Y-61542276D01*
X151684210Y-61527958D01*
X151683500Y-61513500D01*
X151683500Y-61168500D01*
X151684210Y-61154042D01*
X151686334Y-61139724D01*
X151689851Y-61125683D01*
X151694728Y-61112054D01*
X151700917Y-61098969D01*
X151708358Y-61086553D01*
X151716981Y-61074927D01*
X151726702Y-61064202D01*
X151737427Y-61054481D01*
X151749053Y-61045858D01*
X151761469Y-61038417D01*
X151774554Y-61032228D01*
X151788183Y-61027351D01*
X151802224Y-61023834D01*
X151816542Y-61021710D01*
X151831000Y-61021000D01*
X152126000Y-61021000D01*
X152140458Y-61021710D01*
X152140458Y-61021710D01*
G37*
D12*
X151978500Y-61341000D03*
D11*
G36*
X153110458Y-61021710D02*
G01*
X153124776Y-61023834D01*
X153138817Y-61027351D01*
X153152446Y-61032228D01*
X153165531Y-61038417D01*
X153177947Y-61045858D01*
X153189573Y-61054481D01*
X153200298Y-61064202D01*
X153210019Y-61074927D01*
X153218642Y-61086553D01*
X153226083Y-61098969D01*
X153232272Y-61112054D01*
X153237149Y-61125683D01*
X153240666Y-61139724D01*
X153242790Y-61154042D01*
X153243500Y-61168500D01*
X153243500Y-61513500D01*
X153242790Y-61527958D01*
X153240666Y-61542276D01*
X153237149Y-61556317D01*
X153232272Y-61569946D01*
X153226083Y-61583031D01*
X153218642Y-61595447D01*
X153210019Y-61607073D01*
X153200298Y-61617798D01*
X153189573Y-61627519D01*
X153177947Y-61636142D01*
X153165531Y-61643583D01*
X153152446Y-61649772D01*
X153138817Y-61654649D01*
X153124776Y-61658166D01*
X153110458Y-61660290D01*
X153096000Y-61661000D01*
X152801000Y-61661000D01*
X152786542Y-61660290D01*
X152772224Y-61658166D01*
X152758183Y-61654649D01*
X152744554Y-61649772D01*
X152731469Y-61643583D01*
X152719053Y-61636142D01*
X152707427Y-61627519D01*
X152696702Y-61617798D01*
X152686981Y-61607073D01*
X152678358Y-61595447D01*
X152670917Y-61583031D01*
X152664728Y-61569946D01*
X152659851Y-61556317D01*
X152656334Y-61542276D01*
X152654210Y-61527958D01*
X152653500Y-61513500D01*
X152653500Y-61168500D01*
X152654210Y-61154042D01*
X152656334Y-61139724D01*
X152659851Y-61125683D01*
X152664728Y-61112054D01*
X152670917Y-61098969D01*
X152678358Y-61086553D01*
X152686981Y-61074927D01*
X152696702Y-61064202D01*
X152707427Y-61054481D01*
X152719053Y-61045858D01*
X152731469Y-61038417D01*
X152744554Y-61032228D01*
X152758183Y-61027351D01*
X152772224Y-61023834D01*
X152786542Y-61021710D01*
X152801000Y-61021000D01*
X153096000Y-61021000D01*
X153110458Y-61021710D01*
X153110458Y-61021710D01*
G37*
D12*
X152948500Y-61341000D03*
M02*
