%TF.GenerationSoftware,KiCad,Pcbnew,(5.1.4)-1*%
%TF.CreationDate,2019-10-27T14:01:39-07:00*%
%TF.ProjectId,SolarCell+Y,536f6c61-7243-4656-9c6c-2b592e6b6963,rev?*%
%TF.SameCoordinates,Original*%
%TF.FileFunction,Soldermask,Top*%
%TF.FilePolarity,Negative*%
%FSLAX46Y46*%
G04 Gerber Fmt 4.6, Leading zero omitted, Abs format (unit mm)*
G04 Created by KiCad (PCBNEW (5.1.4)-1) date 2019-10-27 14:01:39*
%MOMM*%
%LPD*%
G04 APERTURE LIST*
%ADD10C,0.050000*%
%ADD11C,0.100000*%
%ADD12C,0.691600*%
%ADD13R,2.101600X7.501600*%
%ADD14R,0.801600X1.001600*%
%ADD15C,4.501600*%
%ADD16R,7.501600X2.101600*%
%ADD17R,1.501600X1.501600*%
%ADD18R,1.501600X2.801600*%
%ADD19C,0.254000*%
G04 APERTURE END LIST*
D10*
X198500000Y-42500000D02*
G75*
G03X198500000Y-42500000I-1100000J0D01*
G01*
X198500000Y-87500000D02*
G75*
G03X198500000Y-87500000I-1100000J0D01*
G01*
X153600000Y-87400000D02*
G75*
G03X153600000Y-87400000I-1100000J0D01*
G01*
X200000000Y-40000000D02*
X150000000Y-40000000D01*
X200000000Y-90000000D02*
X200000000Y-40000000D01*
X150000000Y-90000000D02*
X200000000Y-90000000D01*
X150000000Y-40000000D02*
X150000000Y-90000000D01*
X153600000Y-42400000D02*
G75*
G03X153600000Y-42400000I-1100000J0D01*
G01*
D11*
G36*
X153605847Y-59828033D02*
G01*
X153622631Y-59830522D01*
X153639090Y-59834645D01*
X153655066Y-59840361D01*
X153670404Y-59847616D01*
X153684958Y-59856339D01*
X153698587Y-59866446D01*
X153711159Y-59877841D01*
X153722554Y-59890413D01*
X153732661Y-59904042D01*
X153741384Y-59918596D01*
X153748639Y-59933934D01*
X153754355Y-59949910D01*
X153758478Y-59966369D01*
X153760967Y-59983153D01*
X153761800Y-60000100D01*
X153761800Y-60395900D01*
X153760967Y-60412847D01*
X153758478Y-60429631D01*
X153754355Y-60446090D01*
X153748639Y-60462066D01*
X153741384Y-60477404D01*
X153732661Y-60491958D01*
X153722554Y-60505587D01*
X153711159Y-60518159D01*
X153698587Y-60529554D01*
X153684958Y-60539661D01*
X153670404Y-60548384D01*
X153655066Y-60555639D01*
X153639090Y-60561355D01*
X153622631Y-60565478D01*
X153605847Y-60567967D01*
X153588900Y-60568800D01*
X153243100Y-60568800D01*
X153226153Y-60567967D01*
X153209369Y-60565478D01*
X153192910Y-60561355D01*
X153176934Y-60555639D01*
X153161596Y-60548384D01*
X153147042Y-60539661D01*
X153133413Y-60529554D01*
X153120841Y-60518159D01*
X153109446Y-60505587D01*
X153099339Y-60491958D01*
X153090616Y-60477404D01*
X153083361Y-60462066D01*
X153077645Y-60446090D01*
X153073522Y-60429631D01*
X153071033Y-60412847D01*
X153070200Y-60395900D01*
X153070200Y-60000100D01*
X153071033Y-59983153D01*
X153073522Y-59966369D01*
X153077645Y-59949910D01*
X153083361Y-59933934D01*
X153090616Y-59918596D01*
X153099339Y-59904042D01*
X153109446Y-59890413D01*
X153120841Y-59877841D01*
X153133413Y-59866446D01*
X153147042Y-59856339D01*
X153161596Y-59847616D01*
X153176934Y-59840361D01*
X153192910Y-59834645D01*
X153209369Y-59830522D01*
X153226153Y-59828033D01*
X153243100Y-59827200D01*
X153588900Y-59827200D01*
X153605847Y-59828033D01*
X153605847Y-59828033D01*
G37*
D12*
X153416000Y-60198000D03*
D11*
G36*
X152635847Y-59828033D02*
G01*
X152652631Y-59830522D01*
X152669090Y-59834645D01*
X152685066Y-59840361D01*
X152700404Y-59847616D01*
X152714958Y-59856339D01*
X152728587Y-59866446D01*
X152741159Y-59877841D01*
X152752554Y-59890413D01*
X152762661Y-59904042D01*
X152771384Y-59918596D01*
X152778639Y-59933934D01*
X152784355Y-59949910D01*
X152788478Y-59966369D01*
X152790967Y-59983153D01*
X152791800Y-60000100D01*
X152791800Y-60395900D01*
X152790967Y-60412847D01*
X152788478Y-60429631D01*
X152784355Y-60446090D01*
X152778639Y-60462066D01*
X152771384Y-60477404D01*
X152762661Y-60491958D01*
X152752554Y-60505587D01*
X152741159Y-60518159D01*
X152728587Y-60529554D01*
X152714958Y-60539661D01*
X152700404Y-60548384D01*
X152685066Y-60555639D01*
X152669090Y-60561355D01*
X152652631Y-60565478D01*
X152635847Y-60567967D01*
X152618900Y-60568800D01*
X152273100Y-60568800D01*
X152256153Y-60567967D01*
X152239369Y-60565478D01*
X152222910Y-60561355D01*
X152206934Y-60555639D01*
X152191596Y-60548384D01*
X152177042Y-60539661D01*
X152163413Y-60529554D01*
X152150841Y-60518159D01*
X152139446Y-60505587D01*
X152129339Y-60491958D01*
X152120616Y-60477404D01*
X152113361Y-60462066D01*
X152107645Y-60446090D01*
X152103522Y-60429631D01*
X152101033Y-60412847D01*
X152100200Y-60395900D01*
X152100200Y-60000100D01*
X152101033Y-59983153D01*
X152103522Y-59966369D01*
X152107645Y-59949910D01*
X152113361Y-59933934D01*
X152120616Y-59918596D01*
X152129339Y-59904042D01*
X152139446Y-59890413D01*
X152150841Y-59877841D01*
X152163413Y-59866446D01*
X152177042Y-59856339D01*
X152191596Y-59847616D01*
X152206934Y-59840361D01*
X152222910Y-59834645D01*
X152239369Y-59830522D01*
X152256153Y-59828033D01*
X152273100Y-59827200D01*
X152618900Y-59827200D01*
X152635847Y-59828033D01*
X152635847Y-59828033D01*
G37*
D12*
X152446000Y-60198000D03*
D13*
X185496200Y-76454000D03*
X164496200Y-76454000D03*
D11*
G36*
X152630347Y-59828033D02*
G01*
X152647131Y-59830522D01*
X152663590Y-59834645D01*
X152679566Y-59840361D01*
X152694904Y-59847616D01*
X152709458Y-59856339D01*
X152723087Y-59866446D01*
X152735659Y-59877841D01*
X152747054Y-59890413D01*
X152757161Y-59904042D01*
X152765884Y-59918596D01*
X152773139Y-59933934D01*
X152778855Y-59949910D01*
X152782978Y-59966369D01*
X152785467Y-59983153D01*
X152786300Y-60000100D01*
X152786300Y-60395900D01*
X152785467Y-60412847D01*
X152782978Y-60429631D01*
X152778855Y-60446090D01*
X152773139Y-60462066D01*
X152765884Y-60477404D01*
X152757161Y-60491958D01*
X152747054Y-60505587D01*
X152735659Y-60518159D01*
X152723087Y-60529554D01*
X152709458Y-60539661D01*
X152694904Y-60548384D01*
X152679566Y-60555639D01*
X152663590Y-60561355D01*
X152647131Y-60565478D01*
X152630347Y-60567967D01*
X152613400Y-60568800D01*
X152267600Y-60568800D01*
X152250653Y-60567967D01*
X152233869Y-60565478D01*
X152217410Y-60561355D01*
X152201434Y-60555639D01*
X152186096Y-60548384D01*
X152171542Y-60539661D01*
X152157913Y-60529554D01*
X152145341Y-60518159D01*
X152133946Y-60505587D01*
X152123839Y-60491958D01*
X152115116Y-60477404D01*
X152107861Y-60462066D01*
X152102145Y-60446090D01*
X152098022Y-60429631D01*
X152095533Y-60412847D01*
X152094700Y-60395900D01*
X152094700Y-60000100D01*
X152095533Y-59983153D01*
X152098022Y-59966369D01*
X152102145Y-59949910D01*
X152107861Y-59933934D01*
X152115116Y-59918596D01*
X152123839Y-59904042D01*
X152133946Y-59890413D01*
X152145341Y-59877841D01*
X152157913Y-59866446D01*
X152171542Y-59856339D01*
X152186096Y-59847616D01*
X152201434Y-59840361D01*
X152217410Y-59834645D01*
X152233869Y-59830522D01*
X152250653Y-59828033D01*
X152267600Y-59827200D01*
X152613400Y-59827200D01*
X152630347Y-59828033D01*
X152630347Y-59828033D01*
G37*
D12*
X152440500Y-60198000D03*
D11*
G36*
X151660347Y-59828033D02*
G01*
X151677131Y-59830522D01*
X151693590Y-59834645D01*
X151709566Y-59840361D01*
X151724904Y-59847616D01*
X151739458Y-59856339D01*
X151753087Y-59866446D01*
X151765659Y-59877841D01*
X151777054Y-59890413D01*
X151787161Y-59904042D01*
X151795884Y-59918596D01*
X151803139Y-59933934D01*
X151808855Y-59949910D01*
X151812978Y-59966369D01*
X151815467Y-59983153D01*
X151816300Y-60000100D01*
X151816300Y-60395900D01*
X151815467Y-60412847D01*
X151812978Y-60429631D01*
X151808855Y-60446090D01*
X151803139Y-60462066D01*
X151795884Y-60477404D01*
X151787161Y-60491958D01*
X151777054Y-60505587D01*
X151765659Y-60518159D01*
X151753087Y-60529554D01*
X151739458Y-60539661D01*
X151724904Y-60548384D01*
X151709566Y-60555639D01*
X151693590Y-60561355D01*
X151677131Y-60565478D01*
X151660347Y-60567967D01*
X151643400Y-60568800D01*
X151297600Y-60568800D01*
X151280653Y-60567967D01*
X151263869Y-60565478D01*
X151247410Y-60561355D01*
X151231434Y-60555639D01*
X151216096Y-60548384D01*
X151201542Y-60539661D01*
X151187913Y-60529554D01*
X151175341Y-60518159D01*
X151163946Y-60505587D01*
X151153839Y-60491958D01*
X151145116Y-60477404D01*
X151137861Y-60462066D01*
X151132145Y-60446090D01*
X151128022Y-60429631D01*
X151125533Y-60412847D01*
X151124700Y-60395900D01*
X151124700Y-60000100D01*
X151125533Y-59983153D01*
X151128022Y-59966369D01*
X151132145Y-59949910D01*
X151137861Y-59933934D01*
X151145116Y-59918596D01*
X151153839Y-59904042D01*
X151163946Y-59890413D01*
X151175341Y-59877841D01*
X151187913Y-59866446D01*
X151201542Y-59856339D01*
X151216096Y-59847616D01*
X151231434Y-59840361D01*
X151247410Y-59834645D01*
X151263869Y-59830522D01*
X151280653Y-59828033D01*
X151297600Y-59827200D01*
X151643400Y-59827200D01*
X151660347Y-59828033D01*
X151660347Y-59828033D01*
G37*
D12*
X151470500Y-60198000D03*
D14*
X151513500Y-55954000D03*
X152463500Y-55954000D03*
X153413500Y-55954000D03*
X153413500Y-58854000D03*
X152463500Y-58854000D03*
X151513500Y-58854000D03*
D15*
X182937500Y-65000000D03*
X167062500Y-65000000D03*
D13*
X164500000Y-84836000D03*
X185500000Y-84836000D03*
D16*
X191508000Y-63037000D03*
X191508000Y-42037000D03*
X158492000Y-67000000D03*
X158492000Y-88000000D03*
X158492000Y-63037000D03*
X158492000Y-42037000D03*
X191508000Y-67000000D03*
X191508000Y-88000000D03*
D13*
X185500000Y-45339000D03*
X164500000Y-45339000D03*
X164496200Y-53594000D03*
X185496200Y-53594000D03*
D17*
X152654000Y-63174000D03*
D18*
X152654000Y-66224000D03*
D17*
X197358000Y-66874000D03*
D18*
X197358000Y-63824000D03*
D11*
G36*
X166836847Y-70178533D02*
G01*
X166853631Y-70181022D01*
X166870090Y-70185145D01*
X166886066Y-70190861D01*
X166901404Y-70198116D01*
X166915958Y-70206839D01*
X166929587Y-70216946D01*
X166942159Y-70228341D01*
X166953554Y-70240913D01*
X166963661Y-70254542D01*
X166972384Y-70269096D01*
X166979639Y-70284434D01*
X166985355Y-70300410D01*
X166989478Y-70316869D01*
X166991967Y-70333653D01*
X166992800Y-70350600D01*
X166992800Y-70746400D01*
X166991967Y-70763347D01*
X166989478Y-70780131D01*
X166985355Y-70796590D01*
X166979639Y-70812566D01*
X166972384Y-70827904D01*
X166963661Y-70842458D01*
X166953554Y-70856087D01*
X166942159Y-70868659D01*
X166929587Y-70880054D01*
X166915958Y-70890161D01*
X166901404Y-70898884D01*
X166886066Y-70906139D01*
X166870090Y-70911855D01*
X166853631Y-70915978D01*
X166836847Y-70918467D01*
X166819900Y-70919300D01*
X166474100Y-70919300D01*
X166457153Y-70918467D01*
X166440369Y-70915978D01*
X166423910Y-70911855D01*
X166407934Y-70906139D01*
X166392596Y-70898884D01*
X166378042Y-70890161D01*
X166364413Y-70880054D01*
X166351841Y-70868659D01*
X166340446Y-70856087D01*
X166330339Y-70842458D01*
X166321616Y-70827904D01*
X166314361Y-70812566D01*
X166308645Y-70796590D01*
X166304522Y-70780131D01*
X166302033Y-70763347D01*
X166301200Y-70746400D01*
X166301200Y-70350600D01*
X166302033Y-70333653D01*
X166304522Y-70316869D01*
X166308645Y-70300410D01*
X166314361Y-70284434D01*
X166321616Y-70269096D01*
X166330339Y-70254542D01*
X166340446Y-70240913D01*
X166351841Y-70228341D01*
X166364413Y-70216946D01*
X166378042Y-70206839D01*
X166392596Y-70198116D01*
X166407934Y-70190861D01*
X166423910Y-70185145D01*
X166440369Y-70181022D01*
X166457153Y-70178533D01*
X166474100Y-70177700D01*
X166819900Y-70177700D01*
X166836847Y-70178533D01*
X166836847Y-70178533D01*
G37*
D12*
X166647000Y-70548500D03*
D11*
G36*
X167806847Y-70178533D02*
G01*
X167823631Y-70181022D01*
X167840090Y-70185145D01*
X167856066Y-70190861D01*
X167871404Y-70198116D01*
X167885958Y-70206839D01*
X167899587Y-70216946D01*
X167912159Y-70228341D01*
X167923554Y-70240913D01*
X167933661Y-70254542D01*
X167942384Y-70269096D01*
X167949639Y-70284434D01*
X167955355Y-70300410D01*
X167959478Y-70316869D01*
X167961967Y-70333653D01*
X167962800Y-70350600D01*
X167962800Y-70746400D01*
X167961967Y-70763347D01*
X167959478Y-70780131D01*
X167955355Y-70796590D01*
X167949639Y-70812566D01*
X167942384Y-70827904D01*
X167933661Y-70842458D01*
X167923554Y-70856087D01*
X167912159Y-70868659D01*
X167899587Y-70880054D01*
X167885958Y-70890161D01*
X167871404Y-70898884D01*
X167856066Y-70906139D01*
X167840090Y-70911855D01*
X167823631Y-70915978D01*
X167806847Y-70918467D01*
X167789900Y-70919300D01*
X167444100Y-70919300D01*
X167427153Y-70918467D01*
X167410369Y-70915978D01*
X167393910Y-70911855D01*
X167377934Y-70906139D01*
X167362596Y-70898884D01*
X167348042Y-70890161D01*
X167334413Y-70880054D01*
X167321841Y-70868659D01*
X167310446Y-70856087D01*
X167300339Y-70842458D01*
X167291616Y-70827904D01*
X167284361Y-70812566D01*
X167278645Y-70796590D01*
X167274522Y-70780131D01*
X167272033Y-70763347D01*
X167271200Y-70746400D01*
X167271200Y-70350600D01*
X167272033Y-70333653D01*
X167274522Y-70316869D01*
X167278645Y-70300410D01*
X167284361Y-70284434D01*
X167291616Y-70269096D01*
X167300339Y-70254542D01*
X167310446Y-70240913D01*
X167321841Y-70228341D01*
X167334413Y-70216946D01*
X167348042Y-70206839D01*
X167362596Y-70198116D01*
X167377934Y-70190861D01*
X167393910Y-70185145D01*
X167410369Y-70181022D01*
X167427153Y-70178533D01*
X167444100Y-70177700D01*
X167789900Y-70177700D01*
X167806847Y-70178533D01*
X167806847Y-70178533D01*
G37*
D12*
X167617000Y-70548500D03*
D11*
G36*
X165866567Y-70178533D02*
G01*
X165883351Y-70181022D01*
X165899810Y-70185145D01*
X165915786Y-70190861D01*
X165931124Y-70198116D01*
X165945678Y-70206839D01*
X165959307Y-70216946D01*
X165971879Y-70228341D01*
X165983274Y-70240913D01*
X165993381Y-70254542D01*
X166002104Y-70269096D01*
X166009359Y-70284434D01*
X166015075Y-70300410D01*
X166019198Y-70316869D01*
X166021687Y-70333653D01*
X166022520Y-70350600D01*
X166022520Y-70746400D01*
X166021687Y-70763347D01*
X166019198Y-70780131D01*
X166015075Y-70796590D01*
X166009359Y-70812566D01*
X166002104Y-70827904D01*
X165993381Y-70842458D01*
X165983274Y-70856087D01*
X165971879Y-70868659D01*
X165959307Y-70880054D01*
X165945678Y-70890161D01*
X165931124Y-70898884D01*
X165915786Y-70906139D01*
X165899810Y-70911855D01*
X165883351Y-70915978D01*
X165866567Y-70918467D01*
X165849620Y-70919300D01*
X165503820Y-70919300D01*
X165486873Y-70918467D01*
X165470089Y-70915978D01*
X165453630Y-70911855D01*
X165437654Y-70906139D01*
X165422316Y-70898884D01*
X165407762Y-70890161D01*
X165394133Y-70880054D01*
X165381561Y-70868659D01*
X165370166Y-70856087D01*
X165360059Y-70842458D01*
X165351336Y-70827904D01*
X165344081Y-70812566D01*
X165338365Y-70796590D01*
X165334242Y-70780131D01*
X165331753Y-70763347D01*
X165330920Y-70746400D01*
X165330920Y-70350600D01*
X165331753Y-70333653D01*
X165334242Y-70316869D01*
X165338365Y-70300410D01*
X165344081Y-70284434D01*
X165351336Y-70269096D01*
X165360059Y-70254542D01*
X165370166Y-70240913D01*
X165381561Y-70228341D01*
X165394133Y-70216946D01*
X165407762Y-70206839D01*
X165422316Y-70198116D01*
X165437654Y-70190861D01*
X165453630Y-70185145D01*
X165470089Y-70181022D01*
X165486873Y-70178533D01*
X165503820Y-70177700D01*
X165849620Y-70177700D01*
X165866567Y-70178533D01*
X165866567Y-70178533D01*
G37*
D12*
X165676720Y-70548500D03*
D11*
G36*
X166836567Y-70178533D02*
G01*
X166853351Y-70181022D01*
X166869810Y-70185145D01*
X166885786Y-70190861D01*
X166901124Y-70198116D01*
X166915678Y-70206839D01*
X166929307Y-70216946D01*
X166941879Y-70228341D01*
X166953274Y-70240913D01*
X166963381Y-70254542D01*
X166972104Y-70269096D01*
X166979359Y-70284434D01*
X166985075Y-70300410D01*
X166989198Y-70316869D01*
X166991687Y-70333653D01*
X166992520Y-70350600D01*
X166992520Y-70746400D01*
X166991687Y-70763347D01*
X166989198Y-70780131D01*
X166985075Y-70796590D01*
X166979359Y-70812566D01*
X166972104Y-70827904D01*
X166963381Y-70842458D01*
X166953274Y-70856087D01*
X166941879Y-70868659D01*
X166929307Y-70880054D01*
X166915678Y-70890161D01*
X166901124Y-70898884D01*
X166885786Y-70906139D01*
X166869810Y-70911855D01*
X166853351Y-70915978D01*
X166836567Y-70918467D01*
X166819620Y-70919300D01*
X166473820Y-70919300D01*
X166456873Y-70918467D01*
X166440089Y-70915978D01*
X166423630Y-70911855D01*
X166407654Y-70906139D01*
X166392316Y-70898884D01*
X166377762Y-70890161D01*
X166364133Y-70880054D01*
X166351561Y-70868659D01*
X166340166Y-70856087D01*
X166330059Y-70842458D01*
X166321336Y-70827904D01*
X166314081Y-70812566D01*
X166308365Y-70796590D01*
X166304242Y-70780131D01*
X166301753Y-70763347D01*
X166300920Y-70746400D01*
X166300920Y-70350600D01*
X166301753Y-70333653D01*
X166304242Y-70316869D01*
X166308365Y-70300410D01*
X166314081Y-70284434D01*
X166321336Y-70269096D01*
X166330059Y-70254542D01*
X166340166Y-70240913D01*
X166351561Y-70228341D01*
X166364133Y-70216946D01*
X166377762Y-70206839D01*
X166392316Y-70198116D01*
X166407654Y-70190861D01*
X166423630Y-70185145D01*
X166440089Y-70181022D01*
X166456873Y-70178533D01*
X166473820Y-70177700D01*
X166819620Y-70177700D01*
X166836567Y-70178533D01*
X166836567Y-70178533D01*
G37*
D12*
X166646720Y-70548500D03*
D11*
G36*
X166836847Y-71575533D02*
G01*
X166853631Y-71578022D01*
X166870090Y-71582145D01*
X166886066Y-71587861D01*
X166901404Y-71595116D01*
X166915958Y-71603839D01*
X166929587Y-71613946D01*
X166942159Y-71625341D01*
X166953554Y-71637913D01*
X166963661Y-71651542D01*
X166972384Y-71666096D01*
X166979639Y-71681434D01*
X166985355Y-71697410D01*
X166989478Y-71713869D01*
X166991967Y-71730653D01*
X166992800Y-71747600D01*
X166992800Y-72143400D01*
X166991967Y-72160347D01*
X166989478Y-72177131D01*
X166985355Y-72193590D01*
X166979639Y-72209566D01*
X166972384Y-72224904D01*
X166963661Y-72239458D01*
X166953554Y-72253087D01*
X166942159Y-72265659D01*
X166929587Y-72277054D01*
X166915958Y-72287161D01*
X166901404Y-72295884D01*
X166886066Y-72303139D01*
X166870090Y-72308855D01*
X166853631Y-72312978D01*
X166836847Y-72315467D01*
X166819900Y-72316300D01*
X166474100Y-72316300D01*
X166457153Y-72315467D01*
X166440369Y-72312978D01*
X166423910Y-72308855D01*
X166407934Y-72303139D01*
X166392596Y-72295884D01*
X166378042Y-72287161D01*
X166364413Y-72277054D01*
X166351841Y-72265659D01*
X166340446Y-72253087D01*
X166330339Y-72239458D01*
X166321616Y-72224904D01*
X166314361Y-72209566D01*
X166308645Y-72193590D01*
X166304522Y-72177131D01*
X166302033Y-72160347D01*
X166301200Y-72143400D01*
X166301200Y-71747600D01*
X166302033Y-71730653D01*
X166304522Y-71713869D01*
X166308645Y-71697410D01*
X166314361Y-71681434D01*
X166321616Y-71666096D01*
X166330339Y-71651542D01*
X166340446Y-71637913D01*
X166351841Y-71625341D01*
X166364413Y-71613946D01*
X166378042Y-71603839D01*
X166392596Y-71595116D01*
X166407934Y-71587861D01*
X166423910Y-71582145D01*
X166440369Y-71578022D01*
X166457153Y-71575533D01*
X166474100Y-71574700D01*
X166819900Y-71574700D01*
X166836847Y-71575533D01*
X166836847Y-71575533D01*
G37*
D12*
X166647000Y-71945500D03*
D11*
G36*
X167806847Y-71575533D02*
G01*
X167823631Y-71578022D01*
X167840090Y-71582145D01*
X167856066Y-71587861D01*
X167871404Y-71595116D01*
X167885958Y-71603839D01*
X167899587Y-71613946D01*
X167912159Y-71625341D01*
X167923554Y-71637913D01*
X167933661Y-71651542D01*
X167942384Y-71666096D01*
X167949639Y-71681434D01*
X167955355Y-71697410D01*
X167959478Y-71713869D01*
X167961967Y-71730653D01*
X167962800Y-71747600D01*
X167962800Y-72143400D01*
X167961967Y-72160347D01*
X167959478Y-72177131D01*
X167955355Y-72193590D01*
X167949639Y-72209566D01*
X167942384Y-72224904D01*
X167933661Y-72239458D01*
X167923554Y-72253087D01*
X167912159Y-72265659D01*
X167899587Y-72277054D01*
X167885958Y-72287161D01*
X167871404Y-72295884D01*
X167856066Y-72303139D01*
X167840090Y-72308855D01*
X167823631Y-72312978D01*
X167806847Y-72315467D01*
X167789900Y-72316300D01*
X167444100Y-72316300D01*
X167427153Y-72315467D01*
X167410369Y-72312978D01*
X167393910Y-72308855D01*
X167377934Y-72303139D01*
X167362596Y-72295884D01*
X167348042Y-72287161D01*
X167334413Y-72277054D01*
X167321841Y-72265659D01*
X167310446Y-72253087D01*
X167300339Y-72239458D01*
X167291616Y-72224904D01*
X167284361Y-72209566D01*
X167278645Y-72193590D01*
X167274522Y-72177131D01*
X167272033Y-72160347D01*
X167271200Y-72143400D01*
X167271200Y-71747600D01*
X167272033Y-71730653D01*
X167274522Y-71713869D01*
X167278645Y-71697410D01*
X167284361Y-71681434D01*
X167291616Y-71666096D01*
X167300339Y-71651542D01*
X167310446Y-71637913D01*
X167321841Y-71625341D01*
X167334413Y-71613946D01*
X167348042Y-71603839D01*
X167362596Y-71595116D01*
X167377934Y-71587861D01*
X167393910Y-71582145D01*
X167410369Y-71578022D01*
X167427153Y-71575533D01*
X167444100Y-71574700D01*
X167789900Y-71574700D01*
X167806847Y-71575533D01*
X167806847Y-71575533D01*
G37*
D12*
X167617000Y-71945500D03*
D11*
G36*
X165866567Y-71575533D02*
G01*
X165883351Y-71578022D01*
X165899810Y-71582145D01*
X165915786Y-71587861D01*
X165931124Y-71595116D01*
X165945678Y-71603839D01*
X165959307Y-71613946D01*
X165971879Y-71625341D01*
X165983274Y-71637913D01*
X165993381Y-71651542D01*
X166002104Y-71666096D01*
X166009359Y-71681434D01*
X166015075Y-71697410D01*
X166019198Y-71713869D01*
X166021687Y-71730653D01*
X166022520Y-71747600D01*
X166022520Y-72143400D01*
X166021687Y-72160347D01*
X166019198Y-72177131D01*
X166015075Y-72193590D01*
X166009359Y-72209566D01*
X166002104Y-72224904D01*
X165993381Y-72239458D01*
X165983274Y-72253087D01*
X165971879Y-72265659D01*
X165959307Y-72277054D01*
X165945678Y-72287161D01*
X165931124Y-72295884D01*
X165915786Y-72303139D01*
X165899810Y-72308855D01*
X165883351Y-72312978D01*
X165866567Y-72315467D01*
X165849620Y-72316300D01*
X165503820Y-72316300D01*
X165486873Y-72315467D01*
X165470089Y-72312978D01*
X165453630Y-72308855D01*
X165437654Y-72303139D01*
X165422316Y-72295884D01*
X165407762Y-72287161D01*
X165394133Y-72277054D01*
X165381561Y-72265659D01*
X165370166Y-72253087D01*
X165360059Y-72239458D01*
X165351336Y-72224904D01*
X165344081Y-72209566D01*
X165338365Y-72193590D01*
X165334242Y-72177131D01*
X165331753Y-72160347D01*
X165330920Y-72143400D01*
X165330920Y-71747600D01*
X165331753Y-71730653D01*
X165334242Y-71713869D01*
X165338365Y-71697410D01*
X165344081Y-71681434D01*
X165351336Y-71666096D01*
X165360059Y-71651542D01*
X165370166Y-71637913D01*
X165381561Y-71625341D01*
X165394133Y-71613946D01*
X165407762Y-71603839D01*
X165422316Y-71595116D01*
X165437654Y-71587861D01*
X165453630Y-71582145D01*
X165470089Y-71578022D01*
X165486873Y-71575533D01*
X165503820Y-71574700D01*
X165849620Y-71574700D01*
X165866567Y-71575533D01*
X165866567Y-71575533D01*
G37*
D12*
X165676720Y-71945500D03*
D11*
G36*
X166836567Y-71575533D02*
G01*
X166853351Y-71578022D01*
X166869810Y-71582145D01*
X166885786Y-71587861D01*
X166901124Y-71595116D01*
X166915678Y-71603839D01*
X166929307Y-71613946D01*
X166941879Y-71625341D01*
X166953274Y-71637913D01*
X166963381Y-71651542D01*
X166972104Y-71666096D01*
X166979359Y-71681434D01*
X166985075Y-71697410D01*
X166989198Y-71713869D01*
X166991687Y-71730653D01*
X166992520Y-71747600D01*
X166992520Y-72143400D01*
X166991687Y-72160347D01*
X166989198Y-72177131D01*
X166985075Y-72193590D01*
X166979359Y-72209566D01*
X166972104Y-72224904D01*
X166963381Y-72239458D01*
X166953274Y-72253087D01*
X166941879Y-72265659D01*
X166929307Y-72277054D01*
X166915678Y-72287161D01*
X166901124Y-72295884D01*
X166885786Y-72303139D01*
X166869810Y-72308855D01*
X166853351Y-72312978D01*
X166836567Y-72315467D01*
X166819620Y-72316300D01*
X166473820Y-72316300D01*
X166456873Y-72315467D01*
X166440089Y-72312978D01*
X166423630Y-72308855D01*
X166407654Y-72303139D01*
X166392316Y-72295884D01*
X166377762Y-72287161D01*
X166364133Y-72277054D01*
X166351561Y-72265659D01*
X166340166Y-72253087D01*
X166330059Y-72239458D01*
X166321336Y-72224904D01*
X166314081Y-72209566D01*
X166308365Y-72193590D01*
X166304242Y-72177131D01*
X166301753Y-72160347D01*
X166300920Y-72143400D01*
X166300920Y-71747600D01*
X166301753Y-71730653D01*
X166304242Y-71713869D01*
X166308365Y-71697410D01*
X166314081Y-71681434D01*
X166321336Y-71666096D01*
X166330059Y-71651542D01*
X166340166Y-71637913D01*
X166351561Y-71625341D01*
X166364133Y-71613946D01*
X166377762Y-71603839D01*
X166392316Y-71595116D01*
X166407654Y-71587861D01*
X166423630Y-71582145D01*
X166440089Y-71578022D01*
X166456873Y-71575533D01*
X166473820Y-71574700D01*
X166819620Y-71574700D01*
X166836567Y-71575533D01*
X166836567Y-71575533D01*
G37*
D12*
X166646720Y-71945500D03*
D11*
G36*
X152168347Y-60971033D02*
G01*
X152185131Y-60973522D01*
X152201590Y-60977645D01*
X152217566Y-60983361D01*
X152232904Y-60990616D01*
X152247458Y-60999339D01*
X152261087Y-61009446D01*
X152273659Y-61020841D01*
X152285054Y-61033413D01*
X152295161Y-61047042D01*
X152303884Y-61061596D01*
X152311139Y-61076934D01*
X152316855Y-61092910D01*
X152320978Y-61109369D01*
X152323467Y-61126153D01*
X152324300Y-61143100D01*
X152324300Y-61538900D01*
X152323467Y-61555847D01*
X152320978Y-61572631D01*
X152316855Y-61589090D01*
X152311139Y-61605066D01*
X152303884Y-61620404D01*
X152295161Y-61634958D01*
X152285054Y-61648587D01*
X152273659Y-61661159D01*
X152261087Y-61672554D01*
X152247458Y-61682661D01*
X152232904Y-61691384D01*
X152217566Y-61698639D01*
X152201590Y-61704355D01*
X152185131Y-61708478D01*
X152168347Y-61710967D01*
X152151400Y-61711800D01*
X151805600Y-61711800D01*
X151788653Y-61710967D01*
X151771869Y-61708478D01*
X151755410Y-61704355D01*
X151739434Y-61698639D01*
X151724096Y-61691384D01*
X151709542Y-61682661D01*
X151695913Y-61672554D01*
X151683341Y-61661159D01*
X151671946Y-61648587D01*
X151661839Y-61634958D01*
X151653116Y-61620404D01*
X151645861Y-61605066D01*
X151640145Y-61589090D01*
X151636022Y-61572631D01*
X151633533Y-61555847D01*
X151632700Y-61538900D01*
X151632700Y-61143100D01*
X151633533Y-61126153D01*
X151636022Y-61109369D01*
X151640145Y-61092910D01*
X151645861Y-61076934D01*
X151653116Y-61061596D01*
X151661839Y-61047042D01*
X151671946Y-61033413D01*
X151683341Y-61020841D01*
X151695913Y-61009446D01*
X151709542Y-60999339D01*
X151724096Y-60990616D01*
X151739434Y-60983361D01*
X151755410Y-60977645D01*
X151771869Y-60973522D01*
X151788653Y-60971033D01*
X151805600Y-60970200D01*
X152151400Y-60970200D01*
X152168347Y-60971033D01*
X152168347Y-60971033D01*
G37*
D12*
X151978500Y-61341000D03*
D11*
G36*
X153138347Y-60971033D02*
G01*
X153155131Y-60973522D01*
X153171590Y-60977645D01*
X153187566Y-60983361D01*
X153202904Y-60990616D01*
X153217458Y-60999339D01*
X153231087Y-61009446D01*
X153243659Y-61020841D01*
X153255054Y-61033413D01*
X153265161Y-61047042D01*
X153273884Y-61061596D01*
X153281139Y-61076934D01*
X153286855Y-61092910D01*
X153290978Y-61109369D01*
X153293467Y-61126153D01*
X153294300Y-61143100D01*
X153294300Y-61538900D01*
X153293467Y-61555847D01*
X153290978Y-61572631D01*
X153286855Y-61589090D01*
X153281139Y-61605066D01*
X153273884Y-61620404D01*
X153265161Y-61634958D01*
X153255054Y-61648587D01*
X153243659Y-61661159D01*
X153231087Y-61672554D01*
X153217458Y-61682661D01*
X153202904Y-61691384D01*
X153187566Y-61698639D01*
X153171590Y-61704355D01*
X153155131Y-61708478D01*
X153138347Y-61710967D01*
X153121400Y-61711800D01*
X152775600Y-61711800D01*
X152758653Y-61710967D01*
X152741869Y-61708478D01*
X152725410Y-61704355D01*
X152709434Y-61698639D01*
X152694096Y-61691384D01*
X152679542Y-61682661D01*
X152665913Y-61672554D01*
X152653341Y-61661159D01*
X152641946Y-61648587D01*
X152631839Y-61634958D01*
X152623116Y-61620404D01*
X152615861Y-61605066D01*
X152610145Y-61589090D01*
X152606022Y-61572631D01*
X152603533Y-61555847D01*
X152602700Y-61538900D01*
X152602700Y-61143100D01*
X152603533Y-61126153D01*
X152606022Y-61109369D01*
X152610145Y-61092910D01*
X152615861Y-61076934D01*
X152623116Y-61061596D01*
X152631839Y-61047042D01*
X152641946Y-61033413D01*
X152653341Y-61020841D01*
X152665913Y-61009446D01*
X152679542Y-60999339D01*
X152694096Y-60990616D01*
X152709434Y-60983361D01*
X152725410Y-60977645D01*
X152741869Y-60973522D01*
X152758653Y-60971033D01*
X152775600Y-60970200D01*
X153121400Y-60970200D01*
X153138347Y-60971033D01*
X153138347Y-60971033D01*
G37*
D12*
X152948500Y-61341000D03*
D19*
G36*
X185801000Y-63301868D02*
G01*
X185801000Y-66495394D01*
X182827394Y-69469000D01*
X179197000Y-69469000D01*
X179197000Y-60579000D01*
X182830599Y-60579000D01*
X185801000Y-63301868D01*
X185801000Y-63301868D01*
G37*
X185801000Y-63301868D02*
X185801000Y-66495394D01*
X182827394Y-69469000D01*
X179197000Y-69469000D01*
X179197000Y-60579000D01*
X182830599Y-60579000D01*
X185801000Y-63301868D01*
G36*
X170646125Y-69469000D02*
G01*
X167012526Y-69469000D01*
X164042125Y-66746132D01*
X164042125Y-63552606D01*
X167015731Y-60579000D01*
X170646125Y-60579000D01*
X170646125Y-69469000D01*
X170646125Y-69469000D01*
G37*
X170646125Y-69469000D02*
X167012526Y-69469000D01*
X164042125Y-66746132D01*
X164042125Y-63552606D01*
X167015731Y-60579000D01*
X170646125Y-60579000D01*
X170646125Y-69469000D01*
M02*
