<?xml version="1.0" standalone="no"?>
 <!DOCTYPE svg PUBLIC "-//W3C//DTD SVG 1.1//EN" 
 "http://www.w3.org/Graphics/SVG/1.1/DTD/svg11.dtd"> 
<svg xmlns="http://www.w3.org/2000/svg" version="1.1" 
    width="4.84378cm" height="4.84378cm" viewBox="0 0 19070 19070 ">
<title>SVG Picture created as SolarCellZ_v1-F_Paste.svg date 2019/11/01 14:37:33 </title>
  <desc>Picture generated by PCBNEW </desc>
<g style="fill:#000000; fill-opacity:1;stroke:#000000; stroke-opacity:1;
stroke-linecap:round; stroke-linejoin:round; "
 transform="translate(0 0) scale(1 1)">
</g>
<g style="fill:#000000; fill-opacity:0.0; 
stroke:#000000; stroke-width:-0.000393701; stroke-opacity:1; 
stroke-linecap:round; stroke-linejoin:round;">
<g >
</g>
<g >
</g>
<g >
</g>
<g >
</g>
<g >
</g>
<g >
</g>
<g >
</g>
<g >
</g>
<g style="fill:#000000; fill-opacity:0.0; 
stroke:#000000; stroke-width:-0.000393701; stroke-opacity:1; 
stroke-linecap:round; stroke-linejoin:round;">
</g>
<g style="fill:#000000; fill-opacity:0.0; 
stroke:#000000; stroke-width:0; stroke-opacity:1; 
stroke-linecap:round; stroke-linejoin:round;">
</g>
<g style="fill:#000000; fill-opacity:1.0; 
stroke:#000000; stroke-width:0; stroke-opacity:1; 
stroke-linecap:round; stroke-linejoin:round;">
<path style="fill:#000000; fill-opacity:1.0; 
stroke:#000000; stroke-width:0; stroke-opacity:1; 
stroke-linecap:round; stroke-linejoin:round;fill-rule:evenodd;"
d="M 14049,12150
13695,12150
13695,11875
14049,11875
14049,12150
Z" /> 
<path style="fill:#000000; fill-opacity:1.0; 
stroke:#000000; stroke-width:0; stroke-opacity:1; 
stroke-linecap:round; stroke-linejoin:round;fill-rule:evenodd;"
d="M 14049,12524
13695,12524
13695,12249
14049,12249
14049,12524
Z" /> 
<path style="fill:#000000; fill-opacity:1.0; 
stroke:#000000; stroke-width:0; stroke-opacity:1; 
stroke-linecap:round; stroke-linejoin:round;fill-rule:evenodd;"
d="M 14049,12898
13695,12898
13695,12623
14049,12623
14049,12898
Z" /> 
<path style="fill:#000000; fill-opacity:1.0; 
stroke:#000000; stroke-width:0; stroke-opacity:1; 
stroke-linecap:round; stroke-linejoin:round;fill-rule:evenodd;"
d="M 12908,12898
12553,12898
12553,12623
12908,12623
12908,12898
Z" /> 
<path style="fill:#000000; fill-opacity:1.0; 
stroke:#000000; stroke-width:0; stroke-opacity:1; 
stroke-linecap:round; stroke-linejoin:round;fill-rule:evenodd;"
d="M 12908,12524
12553,12524
12553,12249
12908,12249
12908,12524
Z" /> 
<path style="fill:#000000; fill-opacity:1.0; 
stroke:#000000; stroke-width:0; stroke-opacity:1; 
stroke-linecap:round; stroke-linejoin:round;fill-rule:evenodd;"
d="M 12908,12150
12553,12150
12553,11875
12908,11875
12908,12150
Z" /> 
</g>
<g >
</g>
<g style="fill:#000000; fill-opacity:1.0; 
stroke:#000000; stroke-width:0; stroke-opacity:1; 
stroke-linecap:round; stroke-linejoin:round;">
<path style="fill:#000000; fill-opacity:1.0; 
stroke:#000000; stroke-width:0; stroke-opacity:1; 
stroke-linecap:round; stroke-linejoin:round;fill-rule:evenodd;"
d="M 18021,3730
18021,816
18809,816
18809,3730
18021,3730
Z" /> 
<path style="fill:#000000; fill-opacity:1.0; 
stroke:#000000; stroke-width:0; stroke-opacity:1; 
stroke-linecap:round; stroke-linejoin:round;fill-rule:evenodd;"
d="M 9753,3730
9753,816
10541,816
10541,3730
9753,3730
Z" /> 
</g>
<g >
</g>
<g style="fill:#000000; fill-opacity:1.0; 
stroke:#000000; stroke-width:0; stroke-opacity:1; 
stroke-linecap:round; stroke-linejoin:round;">
<path style="fill:#000000; fill-opacity:1.0; 
stroke:#000000; stroke-width:0; stroke-opacity:1; 
stroke-linecap:round; stroke-linejoin:round;fill-rule:evenodd;"
d="M 994,816
994,3730
206,3730
206,816
994,816
Z" /> 
<path style="fill:#000000; fill-opacity:1.0; 
stroke:#000000; stroke-width:0; stroke-opacity:1; 
stroke-linecap:round; stroke-linejoin:round;fill-rule:evenodd;"
d="M 9261,816
9261,3730
8474,3730
8474,816
9261,816
Z" /> 
</g>
<g >
</g>
<g style="fill:#000000; fill-opacity:1.0; 
stroke:#000000; stroke-width:0; stroke-opacity:1; 
stroke-linecap:round; stroke-linejoin:round;">
<path style="fill:#000000; fill-opacity:1.0; 
stroke:#000000; stroke-width:0; stroke-opacity:1; 
stroke-linecap:round; stroke-linejoin:round;fill-rule:evenodd;"
d="M 15856,8159
15856,5246
16643,5246
16643,8159
15856,8159
Z" /> 
<path style="fill:#000000; fill-opacity:1.0; 
stroke:#000000; stroke-width:0; stroke-opacity:1; 
stroke-linecap:round; stroke-linejoin:round;fill-rule:evenodd;"
d="M 7588,8159
7588,5246
8375,5246
8375,8159
7588,8159
Z" /> 
</g>
<g >
</g>
<g style="fill:#000000; fill-opacity:1.0; 
stroke:#000000; stroke-width:0; stroke-opacity:1; 
stroke-linecap:round; stroke-linejoin:round;">
<path style="fill:#000000; fill-opacity:1.0; 
stroke:#000000; stroke-width:0; stroke-opacity:1; 
stroke-linecap:round; stroke-linejoin:round;fill-rule:evenodd;"
d="M 18021,11505
18021,8592
18809,8592
18809,11505
18021,11505
Z" /> 
<path style="fill:#000000; fill-opacity:1.0; 
stroke:#000000; stroke-width:0; stroke-opacity:1; 
stroke-linecap:round; stroke-linejoin:round;fill-rule:evenodd;"
d="M 9753,11505
9753,8592
10541,8592
10541,11505
9753,11505
Z" /> 
</g>
<g >
</g>
<g style="fill:#000000; fill-opacity:1.0; 
stroke:#000000; stroke-width:0; stroke-opacity:1; 
stroke-linecap:round; stroke-linejoin:round;">
<path style="fill:#000000; fill-opacity:1.0; 
stroke:#000000; stroke-width:0; stroke-opacity:1; 
stroke-linecap:round; stroke-linejoin:round;fill-rule:evenodd;"
d="M 8474,11505
8474,8592
9261,8592
9261,11505
8474,11505
Z" /> 
<path style="fill:#000000; fill-opacity:1.0; 
stroke:#000000; stroke-width:0; stroke-opacity:1; 
stroke-linecap:round; stroke-linejoin:round;fill-rule:evenodd;"
d="M 206,11505
206,8592
994,8592
994,11505
206,11505
Z" /> 
</g>
<g >
</g>
<g style="fill:#000000; fill-opacity:1.0; 
stroke:#000000; stroke-width:0; stroke-opacity:1; 
stroke-linecap:round; stroke-linejoin:round;">
<path style="fill:#000000; fill-opacity:1.0; 
stroke:#000000; stroke-width:0; stroke-opacity:1; 
stroke-linecap:round; stroke-linejoin:round;fill-rule:evenodd;"
d="M 11500,14852
11500,11938
12288,11938
12288,14852
11500,14852
Z" /> 
<path style="fill:#000000; fill-opacity:1.0; 
stroke:#000000; stroke-width:0; stroke-opacity:1; 
stroke-linecap:round; stroke-linejoin:round;fill-rule:evenodd;"
d="M 3233,14852
3233,11938
4020,11938
4020,14852
3233,14852
Z" /> 
</g>
<g >
</g>
<g style="fill:#000000; fill-opacity:1.0; 
stroke:#000000; stroke-width:0; stroke-opacity:1; 
stroke-linecap:round; stroke-linejoin:round;">
<path style="fill:#000000; fill-opacity:1.0; 
stroke:#000000; stroke-width:0; stroke-opacity:1; 
stroke-linecap:round; stroke-linejoin:round;fill-rule:evenodd;"
d="M 10541,15285
10541,18198
9753,18198
9753,15285
10541,15285
Z" /> 
<path style="fill:#000000; fill-opacity:1.0; 
stroke:#000000; stroke-width:0; stroke-opacity:1; 
stroke-linecap:round; stroke-linejoin:round;fill-rule:evenodd;"
d="M 18809,15285
18809,18198
18021,18198
18021,15285
18809,15285
Z" /> 
</g>
<g >
</g>
<g style="fill:#000000; fill-opacity:1.0; 
stroke:#000000; stroke-width:0; stroke-opacity:1; 
stroke-linecap:round; stroke-linejoin:round;">
<path style="fill:#000000; fill-opacity:1.0; 
stroke:#000000; stroke-width:0; stroke-opacity:1; 
stroke-linecap:round; stroke-linejoin:round;fill-rule:evenodd;"
d="M 8572,18198
8572,15285
9360,15285
9360,18198
8572,18198
Z" /> 
<path style="fill:#000000; fill-opacity:1.0; 
stroke:#000000; stroke-width:0; stroke-opacity:1; 
stroke-linecap:round; stroke-linejoin:round;fill-rule:evenodd;"
d="M 305,18198
305,15285
1092,15285
1092,18198
305,18198
Z" /> 
</g>
<g >
</g>
<g style="fill:#000000; fill-opacity:1.0; 
stroke:#000000; stroke-width:0; stroke-opacity:1; 
stroke-linecap:round; stroke-linejoin:round;">
<path style="fill:#000000; fill-opacity:1.0; 
stroke:#000000; stroke-width:0; stroke-opacity:1; 
stroke-linecap:round; stroke-linejoin:round;fill-rule:evenodd;"
d="M 15029,4714
15029,4163
15580,4163
15580,4714
15029,4714
Z" /> 
<path style="fill:#000000; fill-opacity:1.0; 
stroke:#000000; stroke-width:0; stroke-opacity:1; 
stroke-linecap:round; stroke-linejoin:round;fill-rule:evenodd;"
d="M 13572,4714
13572,4163
14635,4163
14635,4714
13572,4714
Z" /> 
</g>
<g >
</g>
<g style="fill:#000000; fill-opacity:1.0; 
stroke:#000000; stroke-width:0; stroke-opacity:1; 
stroke-linecap:round; stroke-linejoin:round;">
<path style="fill:#000000; fill-opacity:1.0; 
stroke:#000000; stroke-width:0; stroke-opacity:1; 
stroke-linecap:round; stroke-linejoin:round;fill-rule:evenodd;"
d="M 14374,14361
14374,14912
13822,14912
13822,14361
14374,14361
Z" /> 
<path style="fill:#000000; fill-opacity:1.0; 
stroke:#000000; stroke-width:0; stroke-opacity:1; 
stroke-linecap:round; stroke-linejoin:round;fill-rule:evenodd;"
d="M 15830,14361
15830,14912
14767,14912
14767,14361
15830,14361
Z" /> 
</g>
<g >
</g>
<g style="fill:#000000; fill-opacity:1.0; 
stroke:#000000; stroke-width:0; stroke-opacity:1; 
stroke-linecap:round; stroke-linejoin:round;">
<path style="fill:#000000; fill-opacity:1.0; 
stroke:#000000; stroke-width:0; stroke-opacity:1; 
stroke-linecap:round; stroke-linejoin:round;fill-rule:evenodd;"
d="M 13474,13336
13480,13336
13485,13338
13491,13340
13496,13342
13501,13345
13505,13349
13509,13352
13513,13357
13517,13361
13520,13366
13522,13371
13524,13377
13525,13382
13526,13388
13526,13393
13526,13529
13526,13535
13525,13541
13524,13546
13522,13551
13520,13557
13517,13561
13513,13566
13509,13570
13505,13574
13501,13578
13496,13580
13491,13583
13485,13585
13480,13586
13474,13587
13468,13587
13352,13587
13347,13587
13341,13586
13335,13585
13330,13583
13325,13580
13320,13578
13315,13574
13311,13570
13307,13566
13304,13561
13301,13557
13299,13551
13297,13546
13295,13541
13294,13535
13294,13529
13294,13393
13294,13388
13295,13382
13297,13377
13299,13371
13301,13366
13304,13361
13307,13357
13311,13352
13315,13349
13320,13345
13325,13342
13330,13340
13335,13338
13341,13336
13347,13336
13352,13335
13468,13335
13474,13336
Z" /> 
<path style="fill:#000000; fill-opacity:1.0; 
stroke:#000000; stroke-width:0; stroke-opacity:1; 
stroke-linecap:round; stroke-linejoin:round;fill-rule:evenodd;"
d="M 13856,13336
13862,13336
13867,13338
13873,13340
13878,13342
13883,13345
13887,13349
13891,13352
13895,13357
13899,13361
13902,13366
13904,13371
13906,13377
13907,13382
13908,13388
13908,13393
13908,13529
13908,13535
13907,13541
13906,13546
13904,13551
13902,13557
13899,13561
13895,13566
13891,13570
13887,13574
13883,13578
13878,13580
13873,13583
13867,13585
13862,13586
13856,13587
13850,13587
13734,13587
13728,13587
13723,13586
13717,13585
13712,13583
13707,13580
13702,13578
13697,13574
13693,13570
13689,13566
13686,13561
13683,13557
13680,13551
13679,13546
13677,13541
13676,13535
13676,13529
13676,13393
13676,13388
13677,13382
13679,13377
13680,13371
13683,13366
13686,13361
13689,13357
13693,13352
13697,13349
13702,13345
13707,13342
13712,13340
13717,13338
13723,13336
13728,13336
13734,13335
13850,13335
13856,13336
Z" /> 
</g>
<g >
</g>
<g style="fill:#000000; fill-opacity:1.0; 
stroke:#000000; stroke-width:0; stroke-opacity:1; 
stroke-linecap:round; stroke-linejoin:round;">
<path style="fill:#000000; fill-opacity:1.0; 
stroke:#000000; stroke-width:0; stroke-opacity:1; 
stroke-linecap:round; stroke-linejoin:round;fill-rule:evenodd;"
d="M 13092,13336
13098,13336
13103,13338
13109,13340
13114,13342
13119,13345
13123,13349
13127,13352
13131,13357
13135,13361
13138,13366
13140,13371
13142,13377
13143,13382
13144,13388
13144,13393
13144,13529
13144,13535
13143,13541
13142,13546
13140,13551
13138,13557
13135,13561
13131,13566
13127,13570
13123,13574
13119,13578
13114,13580
13109,13583
13103,13585
13098,13586
13092,13587
13086,13587
12970,13587
12965,13587
12959,13586
12953,13585
12948,13583
12943,13580
12938,13578
12933,13574
12929,13570
12925,13566
12922,13561
12919,13557
12917,13551
12915,13546
12913,13541
12912,13535
12912,13529
12912,13393
12912,13388
12913,13382
12915,13377
12917,13371
12919,13366
12922,13361
12925,13357
12929,13352
12933,13349
12938,13345
12943,13342
12948,13340
12953,13338
12959,13336
12965,13336
12970,13335
13086,13335
13092,13336
Z" /> 
<path style="fill:#000000; fill-opacity:1.0; 
stroke:#000000; stroke-width:0; stroke-opacity:1; 
stroke-linecap:round; stroke-linejoin:round;fill-rule:evenodd;"
d="M 13474,13336
13480,13336
13485,13338
13491,13340
13496,13342
13501,13345
13505,13349
13509,13352
13513,13357
13517,13361
13520,13366
13522,13371
13524,13377
13525,13382
13526,13388
13526,13393
13526,13529
13526,13535
13525,13541
13524,13546
13522,13551
13520,13557
13517,13561
13513,13566
13509,13570
13505,13574
13501,13578
13496,13580
13491,13583
13485,13585
13480,13586
13474,13587
13468,13587
13352,13587
13346,13587
13341,13586
13335,13585
13330,13583
13325,13580
13320,13578
13315,13574
13311,13570
13307,13566
13304,13561
13301,13557
13298,13551
13297,13546
13295,13541
13294,13535
13294,13529
13294,13393
13294,13388
13295,13382
13297,13377
13298,13371
13301,13366
13304,13361
13307,13357
13311,13352
13315,13349
13320,13345
13325,13342
13330,13340
13335,13338
13341,13336
13346,13336
13352,13335
13468,13335
13474,13336
Z" /> 
</g>
<g >
</g>
<g style="fill:#000000; fill-opacity:1.0; 
stroke:#000000; stroke-width:0; stroke-opacity:1; 
stroke-linecap:round; stroke-linejoin:round;">
<path style="fill:#000000; fill-opacity:1.0; 
stroke:#000000; stroke-width:0; stroke-opacity:1; 
stroke-linecap:round; stroke-linejoin:round;fill-rule:evenodd;"
d="M 13474,13886
13480,13886
13485,13888
13491,13890
13496,13892
13501,13895
13505,13899
13509,13902
13513,13907
13517,13911
13520,13916
13522,13921
13524,13927
13525,13932
13526,13938
13526,13943
13526,14079
13526,14085
13525,14091
13524,14096
13522,14101
13520,14107
13517,14111
13513,14116
13509,14120
13505,14124
13501,14128
13496,14130
13491,14133
13485,14135
13480,14136
13474,14137
13468,14137
13352,14137
13347,14137
13341,14136
13335,14135
13330,14133
13325,14130
13320,14128
13315,14124
13311,14120
13307,14116
13304,14111
13301,14107
13299,14101
13297,14096
13295,14091
13294,14085
13294,14079
13294,13943
13294,13938
13295,13932
13297,13927
13299,13921
13301,13916
13304,13911
13307,13907
13311,13902
13315,13899
13320,13895
13325,13892
13330,13890
13335,13888
13341,13886
13347,13886
13352,13885
13468,13885
13474,13886
Z" /> 
<path style="fill:#000000; fill-opacity:1.0; 
stroke:#000000; stroke-width:0; stroke-opacity:1; 
stroke-linecap:round; stroke-linejoin:round;fill-rule:evenodd;"
d="M 13856,13886
13862,13886
13867,13888
13873,13890
13878,13892
13883,13895
13887,13899
13891,13902
13895,13907
13899,13911
13902,13916
13904,13921
13906,13927
13907,13932
13908,13938
13908,13943
13908,14079
13908,14085
13907,14091
13906,14096
13904,14101
13902,14107
13899,14111
13895,14116
13891,14120
13887,14124
13883,14128
13878,14130
13873,14133
13867,14135
13862,14136
13856,14137
13850,14137
13734,14137
13728,14137
13723,14136
13717,14135
13712,14133
13707,14130
13702,14128
13697,14124
13693,14120
13689,14116
13686,14111
13683,14107
13680,14101
13679,14096
13677,14091
13676,14085
13676,14079
13676,13943
13676,13938
13677,13932
13679,13927
13680,13921
13683,13916
13686,13911
13689,13907
13693,13902
13697,13899
13702,13895
13707,13892
13712,13890
13717,13888
13723,13886
13728,13886
13734,13885
13850,13885
13856,13886
Z" /> 
</g>
<g >
</g>
<g style="fill:#000000; fill-opacity:1.0; 
stroke:#000000; stroke-width:0; stroke-opacity:1; 
stroke-linecap:round; stroke-linejoin:round;">
<path style="fill:#000000; fill-opacity:1.0; 
stroke:#000000; stroke-width:0; stroke-opacity:1; 
stroke-linecap:round; stroke-linejoin:round;fill-rule:evenodd;"
d="M 13092,13886
13098,13886
13103,13888
13109,13890
13114,13892
13119,13895
13123,13899
13127,13902
13131,13907
13135,13911
13138,13916
13140,13921
13142,13927
13143,13932
13144,13938
13144,13943
13144,14079
13144,14085
13143,14091
13142,14096
13140,14101
13138,14107
13135,14111
13131,14116
13127,14120
13123,14124
13119,14128
13114,14130
13109,14133
13103,14135
13098,14136
13092,14137
13086,14137
12970,14137
12965,14137
12959,14136
12953,14135
12948,14133
12943,14130
12938,14128
12933,14124
12929,14120
12925,14116
12922,14111
12919,14107
12917,14101
12915,14096
12913,14091
12912,14085
12912,14079
12912,13943
12912,13938
12913,13932
12915,13927
12917,13921
12919,13916
12922,13911
12925,13907
12929,13902
12933,13899
12938,13895
12943,13892
12948,13890
12953,13888
12959,13886
12965,13886
12970,13885
13086,13885
13092,13886
Z" /> 
<path style="fill:#000000; fill-opacity:1.0; 
stroke:#000000; stroke-width:0; stroke-opacity:1; 
stroke-linecap:round; stroke-linejoin:round;fill-rule:evenodd;"
d="M 13474,13886
13480,13886
13485,13888
13491,13890
13496,13892
13501,13895
13505,13899
13509,13902
13513,13907
13517,13911
13520,13916
13522,13921
13524,13927
13525,13932
13526,13938
13526,13943
13526,14079
13526,14085
13525,14091
13524,14096
13522,14101
13520,14107
13517,14111
13513,14116
13509,14120
13505,14124
13501,14128
13496,14130
13491,14133
13485,14135
13480,14136
13474,14137
13468,14137
13352,14137
13346,14137
13341,14136
13335,14135
13330,14133
13325,14130
13320,14128
13315,14124
13311,14120
13307,14116
13304,14111
13301,14107
13298,14101
13297,14096
13295,14091
13294,14085
13294,14079
13294,13943
13294,13938
13295,13932
13297,13927
13298,13921
13301,13916
13304,13911
13307,13907
13311,13902
13315,13899
13320,13895
13325,13892
13330,13890
13335,13888
13341,13886
13346,13886
13352,13885
13468,13885
13474,13886
Z" /> 
</g>
<g >
</g>
<g >
</g>
<g style="fill:#000000; fill-opacity:1.0; 
stroke:#000000; stroke-width:0; stroke-opacity:1; 
stroke-linecap:round; stroke-linejoin:round;">
<path style="fill:#000000; fill-opacity:1.0; 
stroke:#000000; stroke-width:0; stroke-opacity:1; 
stroke-linecap:round; stroke-linejoin:round;fill-rule:evenodd;"
d="M 14750,12289
14756,12289
14761,12291
14766,12293
14772,12295
14776,12298
14781,12301
14785,12305
14789,12310
14792,12314
14795,12319
14798,12324
14800,12329
14801,12335
14802,12341
14802,12346
14802,12462
14802,12468
14801,12474
14800,12479
14798,12485
14795,12490
14792,12495
14789,12499
14785,12504
14781,12507
14776,12511
14772,12514
14766,12516
14761,12518
14756,12519
14750,12520
14744,12521
14608,12521
14603,12520
14597,12519
14592,12518
14586,12516
14581,12514
14576,12511
14572,12507
14567,12504
14563,12499
14560,12495
14557,12490
14555,12485
14553,12479
14551,12474
14551,12468
14550,12462
14550,12346
14551,12341
14551,12335
14553,12329
14555,12324
14557,12319
14560,12314
14563,12310
14567,12305
14572,12301
14576,12298
14581,12295
14586,12293
14592,12291
14597,12289
14603,12289
14608,12288
14744,12288
14750,12289
Z" /> 
<path style="fill:#000000; fill-opacity:1.0; 
stroke:#000000; stroke-width:0; stroke-opacity:1; 
stroke-linecap:round; stroke-linejoin:round;fill-rule:evenodd;"
d="M 14750,12670
14756,12671
14761,12673
14766,12675
14772,12677
14776,12680
14781,12683
14785,12687
14789,12691
14792,12696
14795,12701
14798,12706
14800,12711
14801,12717
14802,12723
14802,12728
14802,12844
14802,12850
14801,12856
14800,12861
14798,12867
14795,12872
14792,12877
14789,12881
14785,12885
14781,12889
14776,12893
14772,12896
14766,12898
14761,12900
14756,12901
14750,12902
14744,12902
14608,12902
14603,12902
14597,12901
14592,12900
14586,12898
14581,12896
14576,12893
14572,12889
14567,12885
14563,12881
14560,12877
14557,12872
14555,12867
14553,12861
14551,12856
14551,12850
14550,12844
14550,12728
14551,12723
14551,12717
14553,12711
14555,12706
14557,12701
14560,12696
14563,12691
14567,12687
14572,12683
14576,12680
14581,12677
14586,12675
14592,12673
14597,12671
14603,12670
14608,12670
14744,12670
14750,12670
Z" /> 
</g>
<g >
</g>
<g style="fill:#000000; fill-opacity:1.0; 
stroke:#000000; stroke-width:0; stroke-opacity:1; 
stroke-linecap:round; stroke-linejoin:round;">
<path style="fill:#000000; fill-opacity:1.0; 
stroke:#000000; stroke-width:0; stroke-opacity:1; 
stroke-linecap:round; stroke-linejoin:round;fill-rule:evenodd;"
d="M 14750,11905
14756,11905
14761,11907
14766,11909
14772,11911
14776,11914
14781,11917
14785,11921
14789,11925
14792,11930
14795,11935
14798,11940
14800,11945
14801,11951
14802,11957
14802,11962
14802,12078
14802,12084
14801,12090
14800,12095
14798,12101
14795,12106
14792,12111
14789,12115
14785,12119
14781,12123
14776,12127
14772,12130
14766,12132
14761,12134
14756,12135
14750,12136
14744,12137
14608,12137
14603,12136
14597,12135
14592,12134
14586,12132
14581,12130
14576,12127
14572,12123
14567,12119
14563,12115
14560,12111
14557,12106
14555,12101
14553,12095
14551,12090
14551,12084
14550,12078
14550,11962
14551,11957
14551,11951
14553,11945
14555,11940
14557,11935
14560,11930
14563,11925
14567,11921
14572,11917
14576,11914
14581,11911
14586,11909
14592,11907
14597,11905
14603,11905
14608,11904
14744,11904
14750,11905
Z" /> 
<path style="fill:#000000; fill-opacity:1.0; 
stroke:#000000; stroke-width:0; stroke-opacity:1; 
stroke-linecap:round; stroke-linejoin:round;fill-rule:evenodd;"
d="M 14750,12286
14756,12287
14761,12289
14766,12291
14772,12293
14776,12296
14781,12299
14785,12303
14789,12307
14792,12312
14795,12317
14798,12322
14800,12327
14801,12333
14802,12338
14802,12344
14802,12460
14802,12466
14801,12472
14800,12477
14798,12483
14795,12488
14792,12493
14789,12497
14785,12501
14781,12505
14776,12509
14772,12512
14766,12514
14761,12516
14756,12517
14750,12518
14744,12518
14608,12518
14603,12518
14597,12517
14592,12516
14586,12514
14581,12512
14576,12509
14572,12505
14567,12501
14563,12497
14560,12493
14557,12488
14555,12483
14553,12477
14551,12472
14551,12466
14550,12460
14550,12344
14551,12338
14551,12333
14553,12327
14555,12322
14557,12317
14560,12312
14563,12307
14567,12303
14572,12299
14576,12296
14581,12293
14586,12291
14592,12289
14597,12287
14603,12286
14608,12286
14744,12286
14750,12286
Z" /> 
</g>
<g >
</g>
<g >
</g>
<g >
</g>
<g >
</g>
<g >
</g>
<g >
</g>
<g >
</g>
<g >
</g>
<g >
</g>
<g >
</g>
<g >
</g>
<g >
</g>
<g >
</g>
<g >
</g>
<g >
</g>
<g >
</g>
<g >
</g>
<g >
</g>
<g >
</g>
<g >
</g>
<g >
</g>
<g >
</g>
<g >
</g>
<g >
</g>
<g >
</g>
<g >
</g>
<g >
</g>
<g >
</g>
<g >
</g>
<g >
</g>
<g >
</g>
<g >
</g>
<g >
</g>
<g >
</g>
<g >
</g>
<g >
</g>
</g> 
</svg>
