<?xml version="1.0" standalone="no"?>
 <!DOCTYPE svg PUBLIC "-//W3C//DTD SVG 1.1//EN" 
 "http://www.w3.org/Graphics/SVG/1.1/DTD/svg11.dtd"> 
<svg xmlns="http://www.w3.org/2000/svg" version="1.1" 
    width="4.84378cm" height="4.84378cm" viewBox="0 0 19070 19070 ">
<title>SVG Picture created as SolarCellZ_v1-B_Paste.svg date 2019/11/01 14:37:33 </title>
  <desc>Picture generated by PCBNEW </desc>
<g style="fill:#000000; fill-opacity:1;stroke:#000000; stroke-opacity:1;
stroke-linecap:round; stroke-linejoin:round; "
 transform="translate(0 0) scale(1 1)">
</g>
<g style="fill:#000000; fill-opacity:0.0; 
stroke:#000000; stroke-width:-0.000393701; stroke-opacity:1; 
stroke-linecap:round; stroke-linejoin:round;">
<g >
</g>
<g >
</g>
<g >
</g>
<g style="fill:#000000; fill-opacity:0.0; 
stroke:#000000; stroke-width:-0.000393701; stroke-opacity:1; 
stroke-linecap:round; stroke-linejoin:round;">
</g>
<g style="fill:#000000; fill-opacity:0.0; 
stroke:#000000; stroke-width:0; stroke-opacity:1; 
stroke-linecap:round; stroke-linejoin:round;">
</g>
<g style="fill:#000000; fill-opacity:1.0; 
stroke:#000000; stroke-width:0; stroke-opacity:1; 
stroke-linecap:round; stroke-linejoin:round;">
<path style="fill:#000000; fill-opacity:1.0; 
stroke:#000000; stroke-width:0; stroke-opacity:1; 
stroke-linecap:round; stroke-linejoin:round;fill-rule:evenodd;"
d="M 7686,1991
8556,1991
8556,2231
7686,2231
7686,1991
Z" /> 
<path style="fill:#000000; fill-opacity:1.0; 
stroke:#000000; stroke-width:0; stroke-opacity:1; 
stroke-linecap:round; stroke-linejoin:round;fill-rule:evenodd;"
d="M 7686,2491
8556,2491
8556,2731
7686,2731
7686,2491
Z" /> 
<path style="fill:#000000; fill-opacity:1.0; 
stroke:#000000; stroke-width:0; stroke-opacity:1; 
stroke-linecap:round; stroke-linejoin:round;fill-rule:evenodd;"
d="M 7686,2991
8556,2991
8556,3231
7686,3231
7686,2991
Z" /> 
<path style="fill:#000000; fill-opacity:1.0; 
stroke:#000000; stroke-width:0; stroke-opacity:1; 
stroke-linecap:round; stroke-linejoin:round;fill-rule:evenodd;"
d="M 7686,3491
8556,3491
8556,3731
7686,3731
7686,3491
Z" /> 
<path style="fill:#000000; fill-opacity:1.0; 
stroke:#000000; stroke-width:0; stroke-opacity:1; 
stroke-linecap:round; stroke-linejoin:round;fill-rule:evenodd;"
d="M 9746,3491
10616,3491
10616,3731
9746,3731
9746,3491
Z" /> 
<path style="fill:#000000; fill-opacity:1.0; 
stroke:#000000; stroke-width:0; stroke-opacity:1; 
stroke-linecap:round; stroke-linejoin:round;fill-rule:evenodd;"
d="M 9746,2991
10616,2991
10616,3231
9746,3231
9746,2991
Z" /> 
<path style="fill:#000000; fill-opacity:1.0; 
stroke:#000000; stroke-width:0; stroke-opacity:1; 
stroke-linecap:round; stroke-linejoin:round;fill-rule:evenodd;"
d="M 9746,2491
10616,2491
10616,2731
9746,2731
9746,2491
Z" /> 
<path style="fill:#000000; fill-opacity:1.0; 
stroke:#000000; stroke-width:0; stroke-opacity:1; 
stroke-linecap:round; stroke-linejoin:round;fill-rule:evenodd;"
d="M 9746,1991
10616,1991
10616,2231
9746,2231
9746,1991
Z" /> 
</g>
<g >
</g>
<g style="fill:#000000; fill-opacity:1.0; 
stroke:#000000; stroke-width:0; stroke-opacity:1; 
stroke-linecap:round; stroke-linejoin:round;">
<path style="fill:#000000; fill-opacity:1.0; 
stroke:#000000; stroke-width:0; stroke-opacity:1; 
stroke-linecap:round; stroke-linejoin:round;fill-rule:evenodd;"
d="M 11225,2005
11231,2005
11236,2007
11241,2009
11247,2011
11251,2014
11256,2017
11260,2021
11264,2025
11267,2030
11270,2035
11273,2040
11275,2045
11276,2051
11277,2057
11277,2062
11277,2178
11277,2184
11276,2190
11275,2195
11273,2201
11270,2206
11267,2211
11264,2215
11260,2219
11256,2223
11251,2227
11247,2230
11241,2232
11236,2234
11231,2235
11225,2236
11219,2237
11083,2237
11078,2236
11072,2235
11067,2234
11061,2232
11056,2230
11051,2227
11047,2223
11042,2219
11038,2215
11035,2211
11032,2206
11030,2201
11028,2195
11026,2190
11026,2184
11025,2178
11025,2062
11026,2057
11026,2051
11028,2045
11030,2040
11032,2035
11035,2030
11038,2025
11042,2021
11047,2017
11051,2014
11056,2011
11061,2009
11067,2007
11072,2005
11078,2005
11083,2004
11219,2004
11225,2005
Z" /> 
<path style="fill:#000000; fill-opacity:1.0; 
stroke:#000000; stroke-width:0; stroke-opacity:1; 
stroke-linecap:round; stroke-linejoin:round;fill-rule:evenodd;"
d="M 11225,2386
11231,2387
11236,2389
11241,2391
11247,2393
11251,2396
11256,2399
11260,2403
11264,2407
11267,2412
11270,2417
11273,2422
11275,2427
11276,2433
11277,2438
11277,2444
11277,2560
11277,2566
11276,2572
11275,2577
11273,2583
11270,2588
11267,2593
11264,2597
11260,2601
11256,2605
11251,2609
11247,2612
11241,2614
11236,2616
11231,2617
11225,2618
11219,2618
11083,2618
11078,2618
11072,2617
11067,2616
11061,2614
11056,2612
11051,2609
11047,2605
11042,2601
11038,2597
11035,2593
11032,2588
11030,2583
11028,2577
11026,2572
11026,2566
11025,2560
11025,2444
11026,2438
11026,2433
11028,2427
11030,2422
11032,2417
11035,2412
11038,2407
11042,2403
11047,2399
11051,2396
11056,2393
11061,2391
11067,2389
11072,2387
11078,2386
11083,2386
11219,2386
11225,2386
Z" /> 
</g>
<g >
</g>
<g style="fill:#000000; fill-opacity:1.0; 
stroke:#000000; stroke-width:0; stroke-opacity:1; 
stroke-linecap:round; stroke-linejoin:round;">
<path style="fill:#000000; fill-opacity:1.0; 
stroke:#000000; stroke-width:0; stroke-opacity:1; 
stroke-linecap:round; stroke-linejoin:round;fill-rule:evenodd;"
d="M 12000,1980
12006,1980
12011,1982
12016,1984
12022,1986
12026,1989
12031,1992
12035,1996
12039,2000
12042,2005
12045,2010
12048,2015
12050,2020
12051,2026
12052,2032
12052,2037
12052,2153
12052,2159
12051,2165
12050,2170
12048,2176
12045,2181
12042,2186
12039,2190
12035,2194
12031,2198
12026,2202
12022,2205
12016,2207
12011,2209
12006,2210
12000,2211
11994,2212
11858,2212
11853,2211
11847,2210
11842,2209
11836,2207
11831,2205
11826,2202
11822,2198
11817,2194
11813,2190
11810,2186
11807,2181
11805,2176
11803,2170
11801,2165
11801,2159
11800,2153
11800,2037
11801,2032
11801,2026
11803,2020
11805,2015
11807,2010
11810,2005
11813,2000
11817,1996
11822,1992
11826,1989
11831,1986
11836,1984
11842,1982
11847,1980
11853,1980
11858,1979
11994,1979
12000,1980
Z" /> 
<path style="fill:#000000; fill-opacity:1.0; 
stroke:#000000; stroke-width:0; stroke-opacity:1; 
stroke-linecap:round; stroke-linejoin:round;fill-rule:evenodd;"
d="M 12000,2361
12006,2362
12011,2364
12016,2366
12022,2368
12026,2371
12031,2374
12035,2378
12039,2382
12042,2387
12045,2392
12048,2397
12050,2402
12051,2408
12052,2413
12052,2419
12052,2535
12052,2541
12051,2547
12050,2552
12048,2558
12045,2563
12042,2568
12039,2572
12035,2576
12031,2580
12026,2584
12022,2587
12016,2589
12011,2591
12006,2592
12000,2593
11994,2593
11858,2593
11853,2593
11847,2592
11842,2591
11836,2589
11831,2587
11826,2584
11822,2580
11817,2576
11813,2572
11810,2568
11807,2563
11805,2558
11803,2552
11801,2547
11801,2541
11800,2535
11800,2419
11801,2413
11801,2408
11803,2402
11805,2397
11807,2392
11810,2387
11813,2382
11817,2378
11822,2374
11826,2371
11831,2368
11836,2366
11842,2364
11847,2362
11853,2361
11858,2361
11994,2361
12000,2361
Z" /> 
</g>
<g >
</g>
<g style="fill:#000000; fill-opacity:1.0; 
stroke:#000000; stroke-width:0; stroke-opacity:1; 
stroke-linecap:round; stroke-linejoin:round;">
<path style="fill:#000000; fill-opacity:1.0; 
stroke:#000000; stroke-width:0; stroke-opacity:1; 
stroke-linecap:round; stroke-linejoin:round;fill-rule:evenodd;"
d="M 12650,3336
12656,3337
12661,3339
12666,3341
12672,3343
12676,3346
12681,3349
12685,3353
12689,3357
12692,3362
12695,3367
12698,3372
12700,3377
12701,3383
12702,3388
12702,3394
12702,3510
12702,3516
12701,3522
12700,3527
12698,3533
12695,3538
12692,3543
12689,3547
12685,3551
12681,3555
12676,3559
12672,3562
12666,3564
12661,3566
12656,3567
12650,3568
12644,3568
12508,3568
12503,3568
12497,3567
12492,3566
12486,3564
12481,3562
12476,3559
12472,3555
12467,3551
12463,3547
12460,3543
12457,3538
12455,3533
12453,3527
12451,3522
12451,3516
12450,3510
12450,3394
12451,3388
12451,3383
12453,3377
12455,3372
12457,3367
12460,3362
12463,3357
12467,3353
12472,3349
12476,3346
12481,3343
12486,3341
12492,3339
12497,3337
12503,3336
12508,3336
12644,3336
12650,3336
Z" /> 
<path style="fill:#000000; fill-opacity:1.0; 
stroke:#000000; stroke-width:0; stroke-opacity:1; 
stroke-linecap:round; stroke-linejoin:round;fill-rule:evenodd;"
d="M 12650,2955
12656,2955
12661,2957
12666,2959
12672,2961
12676,2964
12681,2967
12685,2971
12689,2975
12692,2980
12695,2985
12698,2990
12700,2995
12701,3001
12702,3007
12702,3012
12702,3128
12702,3134
12701,3140
12700,3145
12698,3151
12695,3156
12692,3161
12689,3165
12685,3169
12681,3173
12676,3177
12672,3180
12666,3182
12661,3184
12656,3185
12650,3186
12644,3187
12508,3187
12503,3186
12497,3185
12492,3184
12486,3182
12481,3180
12476,3177
12472,3173
12467,3169
12463,3165
12460,3161
12457,3156
12455,3151
12453,3145
12451,3140
12451,3134
12450,3128
12450,3012
12451,3007
12451,3001
12453,2995
12455,2990
12457,2985
12460,2980
12463,2975
12467,2971
12472,2967
12476,2964
12481,2961
12486,2959
12492,2957
12497,2955
12503,2955
12508,2954
12644,2954
12650,2955
Z" /> 
</g>
<g >
</g>
<g style="fill:#000000; fill-opacity:1.0; 
stroke:#000000; stroke-width:0; stroke-opacity:1; 
stroke-linecap:round; stroke-linejoin:round;">
<path style="fill:#000000; fill-opacity:1.0; 
stroke:#000000; stroke-width:0; stroke-opacity:1; 
stroke-linecap:round; stroke-linejoin:round;fill-rule:evenodd;"
d="M 11335,3329
11335,3644
10980,3644
10980,3329
11335,3329
Z" /> 
<path style="fill:#000000; fill-opacity:1.0; 
stroke:#000000; stroke-width:0; stroke-opacity:1; 
stroke-linecap:round; stroke-linejoin:round;fill-rule:evenodd;"
d="M 12122,3703
12122,4018
11768,4018
11768,3703
12122,3703
Z" /> 
<path style="fill:#000000; fill-opacity:1.0; 
stroke:#000000; stroke-width:0; stroke-opacity:1; 
stroke-linecap:round; stroke-linejoin:round;fill-rule:evenodd;"
d="M 12122,2955
12122,3270
11768,3270
11768,2955
12122,2955
Z" /> 
</g>
<g >
</g>
<g >
</g>
<g >
</g>
<g >
</g>
<g >
</g>
<g >
</g>
<g >
</g>
<g >
</g>
<g >
</g>
<g >
</g>
<g >
</g>
<g >
</g>
<g >
</g>
<g >
</g>
<g >
</g>
<g >
</g>
<g style="fill:#000000; fill-opacity:1.0; 
stroke:#000000; stroke-width:0; stroke-opacity:1; 
stroke-linecap:round; stroke-linejoin:round;">
<path style="fill:#000000; fill-opacity:1.0; 
stroke:#000000; stroke-width:0; stroke-opacity:1; 
stroke-linecap:round; stroke-linejoin:round;fill-rule:evenodd;"
d="M 4669,11277
4669,10962
4984,10962
4984,11277
4669,11277
Z" /> 
<path style="fill:#000000; fill-opacity:1.0; 
stroke:#000000; stroke-width:0; stroke-opacity:1; 
stroke-linecap:round; stroke-linejoin:round;fill-rule:evenodd;"
d="M 4610,12261
4610,11474
5043,11474
5043,12261
4610,12261
Z" /> 
</g>
<g >
</g>
<g >
</g>
<g >
</g>
<g style="fill:#000000; fill-opacity:1.0; 
stroke:#000000; stroke-width:0; stroke-opacity:1; 
stroke-linecap:round; stroke-linejoin:round;">
<path style="fill:#000000; fill-opacity:1.0; 
stroke:#000000; stroke-width:0; stroke-opacity:1; 
stroke-linecap:round; stroke-linejoin:round;fill-rule:evenodd;"
d="M 13200,11461
13206,11462
13211,11464
13216,11466
13222,11468
13226,11471
13231,11474
13235,11478
13239,11482
13242,11487
13245,11492
13248,11497
13250,11502
13251,11508
13252,11513
13252,11519
13252,11635
13252,11641
13251,11647
13250,11652
13248,11658
13245,11663
13242,11668
13239,11672
13235,11676
13231,11680
13226,11684
13222,11687
13216,11689
13211,11691
13206,11692
13200,11693
13194,11693
13058,11693
13053,11693
13047,11692
13042,11691
13036,11689
13031,11687
13026,11684
13022,11680
13017,11676
13013,11672
13010,11668
13007,11663
13005,11658
13003,11652
13001,11647
13001,11641
13000,11635
13000,11519
13001,11513
13001,11508
13003,11502
13005,11497
13007,11492
13010,11487
13013,11482
13017,11478
13022,11474
13026,11471
13031,11468
13036,11466
13042,11464
13047,11462
13053,11461
13058,11461
13194,11461
13200,11461
Z" /> 
<path style="fill:#000000; fill-opacity:1.0; 
stroke:#000000; stroke-width:0; stroke-opacity:1; 
stroke-linecap:round; stroke-linejoin:round;fill-rule:evenodd;"
d="M 13200,11080
13206,11080
13211,11082
13216,11084
13222,11086
13226,11089
13231,11092
13235,11096
13239,11100
13242,11105
13245,11110
13248,11115
13250,11120
13251,11126
13252,11132
13252,11137
13252,11253
13252,11259
13251,11265
13250,11270
13248,11276
13245,11281
13242,11286
13239,11290
13235,11294
13231,11298
13226,11302
13222,11305
13216,11307
13211,11309
13206,11310
13200,11311
13194,11312
13058,11312
13053,11311
13047,11310
13042,11309
13036,11307
13031,11305
13026,11302
13022,11298
13017,11294
13013,11290
13010,11286
13007,11281
13005,11276
13003,11270
13001,11265
13001,11259
13000,11253
13000,11137
13001,11132
13001,11126
13003,11120
13005,11115
13007,11110
13010,11105
13013,11100
13017,11096
13022,11092
13026,11089
13031,11086
13036,11084
13042,11082
13047,11080
13053,11080
13058,11079
13194,11079
13200,11080
Z" /> 
</g>
<g >
</g>
<g style="fill:#000000; fill-opacity:1.0; 
stroke:#000000; stroke-width:0; stroke-opacity:1; 
stroke-linecap:round; stroke-linejoin:round;">
<path style="fill:#000000; fill-opacity:1.0; 
stroke:#000000; stroke-width:0; stroke-opacity:1; 
stroke-linecap:round; stroke-linejoin:round;fill-rule:evenodd;"
d="M 9961,8400
9969,8401
9977,8403
9985,8406
9993,8409
10000,8414
10007,8419
10013,8424
10019,8431
10024,8437
10028,8445
10032,8452
10035,8460
10037,8468
10038,8477
10038,8485
10038,8657
10038,8666
10037,8674
10035,8682
10032,8690
10028,8698
10024,8705
10019,8712
10013,8718
10007,8724
10000,8729
9993,8733
9985,8737
9977,8740
9969,8742
9961,8743
9952,8744
9750,8744
9742,8743
9734,8742
9725,8740
9717,8737
9710,8733
9703,8729
9696,8724
9689,8718
9684,8712
9679,8705
9674,8698
9671,8690
9668,8682
9666,8674
9665,8666
9664,8657
9664,8485
9665,8477
9666,8468
9668,8460
9671,8452
9674,8445
9679,8437
9684,8431
9689,8424
9696,8419
9703,8414
9710,8409
9717,8406
9725,8403
9734,8401
9742,8400
9750,8399
9952,8399
9961,8400
Z" /> 
<path style="fill:#000000; fill-opacity:1.0; 
stroke:#000000; stroke-width:0; stroke-opacity:1; 
stroke-linecap:round; stroke-linejoin:round;fill-rule:evenodd;"
d="M 9961,7779
9969,7781
9977,7783
9985,7786
9993,7789
10000,7794
10007,7799
10013,7804
10019,7811
10024,7817
10028,7825
10032,7832
10035,7840
10037,7848
10038,7857
10038,7865
10038,8037
10038,8046
10037,8054
10035,8062
10032,8070
10028,8078
10024,8085
10019,8092
10013,8098
10007,8104
10000,8109
9993,8113
9985,8117
9977,8120
9969,8122
9961,8123
9952,8124
9750,8124
9742,8123
9734,8122
9725,8120
9717,8117
9710,8113
9703,8109
9696,8104
9689,8098
9684,8092
9679,8085
9674,8078
9671,8070
9668,8062
9666,8054
9665,8046
9664,8037
9664,7865
9665,7857
9666,7848
9668,7840
9671,7832
9674,7825
9679,7817
9684,7811
9689,7804
9696,7799
9703,7794
9710,7789
9717,7786
9725,7783
9734,7781
9742,7779
9750,7779
9952,7779
9961,7779
Z" /> 
</g>
<g >
</g>
<g style="fill:#000000; fill-opacity:1.0; 
stroke:#000000; stroke-width:0; stroke-opacity:1; 
stroke-linecap:round; stroke-linejoin:round;">
<path style="fill:#000000; fill-opacity:1.0; 
stroke:#000000; stroke-width:0; stroke-opacity:1; 
stroke-linecap:round; stroke-linejoin:round;fill-rule:evenodd;"
d="M 7998,11971
8004,11972
8009,11974
8015,11975
8020,11978
8025,11981
8029,11984
8033,11988
8037,11992
8041,11997
8043,12002
8046,12007
8048,12012
8049,12018
8050,12023
8050,12029
8050,12165
8050,12171
8049,12176
8048,12182
8046,12187
8043,12192
8041,12197
8037,12202
8033,12206
8029,12210
8025,12213
8020,12216
8015,12219
8009,12220
8004,12222
7998,12223
7992,12223
7876,12223
7870,12223
7865,12222
7859,12220
7854,12219
7849,12216
7844,12213
7839,12210
7835,12206
7831,12202
7828,12197
7825,12192
7822,12187
7821,12182
7819,12176
7818,12171
7818,12165
7818,12029
7818,12023
7819,12018
7821,12012
7822,12007
7825,12002
7828,11997
7831,11992
7835,11988
7839,11984
7844,11981
7849,11978
7854,11975
7859,11974
7865,11972
7870,11971
7876,11971
7992,11971
7998,11971
Z" /> 
<path style="fill:#000000; fill-opacity:1.0; 
stroke:#000000; stroke-width:0; stroke-opacity:1; 
stroke-linecap:round; stroke-linejoin:round;fill-rule:evenodd;"
d="M 7616,11971
7622,11972
7627,11974
7633,11975
7638,11978
7643,11981
7647,11984
7651,11988
7655,11992
7659,11997
7662,12002
7664,12007
7666,12012
7667,12018
7668,12023
7668,12029
7668,12165
7668,12171
7667,12176
7666,12182
7664,12187
7662,12192
7659,12197
7655,12202
7651,12206
7647,12210
7643,12213
7638,12216
7633,12219
7627,12220
7622,12222
7616,12223
7610,12223
7494,12223
7489,12223
7483,12222
7477,12220
7472,12219
7467,12216
7462,12213
7457,12210
7453,12206
7449,12202
7446,12197
7443,12192
7441,12187
7439,12182
7437,12176
7436,12171
7436,12165
7436,12029
7436,12023
7437,12018
7439,12012
7441,12007
7443,12002
7446,11997
7449,11992
7453,11988
7457,11984
7462,11981
7467,11978
7472,11975
7477,11974
7483,11972
7489,11971
7494,11971
7610,11971
7616,11971
Z" /> 
</g>
<g >
</g>
<g style="fill:#000000; fill-opacity:1.0; 
stroke:#000000; stroke-width:0; stroke-opacity:1; 
stroke-linecap:round; stroke-linejoin:round;">
<path style="fill:#000000; fill-opacity:1.0; 
stroke:#000000; stroke-width:0; stroke-opacity:1; 
stroke-linecap:round; stroke-linejoin:round;fill-rule:evenodd;"
d="M 12581,10575
12589,10576
12597,10578
12605,10581
12613,10584
12620,10589
12627,10594
12633,10600
12639,10606
12644,10613
12648,10620
12652,10627
12655,10635
12657,10644
12658,10652
12659,10660
12659,10862
12658,10871
12657,10879
12655,10887
12652,10895
12648,10903
12644,10910
12639,10917
12633,10923
12627,10929
12620,10934
12613,10938
12605,10942
12597,10945
12589,10947
12581,10948
12572,10948
12400,10948
12392,10948
12383,10947
12375,10945
12367,10942
12360,10938
12352,10934
12346,10929
12339,10923
12334,10917
12329,10910
12324,10903
12321,10895
12318,10887
12316,10879
12314,10871
12314,10862
12314,10660
12314,10652
12316,10644
12318,10635
12321,10627
12324,10620
12329,10613
12334,10606
12339,10600
12346,10594
12352,10589
12360,10584
12367,10581
12375,10578
12383,10576
12392,10575
12400,10574
12572,10574
12581,10575
Z" /> 
<path style="fill:#000000; fill-opacity:1.0; 
stroke:#000000; stroke-width:0; stroke-opacity:1; 
stroke-linecap:round; stroke-linejoin:round;fill-rule:evenodd;"
d="M 11961,10575
11969,10576
11977,10578
11985,10581
11993,10584
12000,10589
12007,10594
12013,10600
12019,10606
12024,10613
12028,10620
12032,10627
12035,10635
12037,10644
12038,10652
12038,10660
12038,10862
12038,10871
12037,10879
12035,10887
12032,10895
12028,10903
12024,10910
12019,10917
12013,10923
12007,10929
12000,10934
11993,10938
11985,10942
11977,10945
11969,10947
11961,10948
11952,10948
11780,10948
11772,10948
11763,10947
11755,10945
11747,10942
11740,10938
11732,10934
11725,10929
11719,10923
11714,10917
11709,10910
11704,10903
11701,10895
11698,10887
11696,10879
11694,10871
11694,10862
11694,10660
11694,10652
11696,10644
11698,10635
11701,10627
11704,10620
11709,10613
11714,10606
11719,10600
11725,10594
11732,10589
11740,10584
11747,10581
11755,10578
11763,10576
11772,10575
11780,10574
11952,10574
11961,10575
Z" /> 
</g>
<g >
</g>
<g style="fill:#000000; fill-opacity:1.0; 
stroke:#000000; stroke-width:0; stroke-opacity:1; 
stroke-linecap:round; stroke-linejoin:round;">
<path style="fill:#000000; fill-opacity:1.0; 
stroke:#000000; stroke-width:0; stroke-opacity:1; 
stroke-linecap:round; stroke-linejoin:round;fill-rule:evenodd;"
d="M 5600,9899
5403,9899
5403,9624
5600,9624
5600,9899
Z" /> 
<path style="fill:#000000; fill-opacity:1.0; 
stroke:#000000; stroke-width:0; stroke-opacity:1; 
stroke-linecap:round; stroke-linejoin:round;fill-rule:evenodd;"
d="M 5600,9387
5403,9387
5403,9112
5600,9112
5600,9387
Z" /> 
</g>
<g >
</g>
<g style="fill:#000000; fill-opacity:1.0; 
stroke:#000000; stroke-width:0; stroke-opacity:1; 
stroke-linecap:round; stroke-linejoin:round;">
<path style="fill:#000000; fill-opacity:1.0; 
stroke:#000000; stroke-width:0; stroke-opacity:1; 
stroke-linecap:round; stroke-linejoin:round;fill-rule:evenodd;"
d="M 7312,9920
7312,9074
8159,9074
8159,9920
7312,9920
Z" /> 
<path style="fill:#000000; fill-opacity:1.0; 
stroke:#000000; stroke-width:0; stroke-opacity:1; 
stroke-linecap:round; stroke-linejoin:round;fill-rule:evenodd;"
d="M 7283,10343
7283,9989
7401,9989
7401,10343
7283,10343
Z" /> 
<path style="fill:#000000; fill-opacity:1.0; 
stroke:#000000; stroke-width:0; stroke-opacity:1; 
stroke-linecap:round; stroke-linejoin:round;fill-rule:evenodd;"
d="M 7479,10343
7479,9989
7598,9989
7598,10343
7479,10343
Z" /> 
<path style="fill:#000000; fill-opacity:1.0; 
stroke:#000000; stroke-width:0; stroke-opacity:1; 
stroke-linecap:round; stroke-linejoin:round;fill-rule:evenodd;"
d="M 7676,10343
7676,9989
7794,9989
7794,10343
7676,10343
Z" /> 
<path style="fill:#000000; fill-opacity:1.0; 
stroke:#000000; stroke-width:0; stroke-opacity:1; 
stroke-linecap:round; stroke-linejoin:round;fill-rule:evenodd;"
d="M 7873,10343
7873,9989
7991,9989
7991,10343
7873,10343
Z" /> 
<path style="fill:#000000; fill-opacity:1.0; 
stroke:#000000; stroke-width:0; stroke-opacity:1; 
stroke-linecap:round; stroke-linejoin:round;fill-rule:evenodd;"
d="M 8070,10343
8070,9989
8188,9989
8188,10343
8070,10343
Z" /> 
<path style="fill:#000000; fill-opacity:1.0; 
stroke:#000000; stroke-width:0; stroke-opacity:1; 
stroke-linecap:round; stroke-linejoin:round;fill-rule:evenodd;"
d="M 8228,9832
8582,9832
8582,9950
8228,9950
8228,9832
Z" /> 
<path style="fill:#000000; fill-opacity:1.0; 
stroke:#000000; stroke-width:0; stroke-opacity:1; 
stroke-linecap:round; stroke-linejoin:round;fill-rule:evenodd;"
d="M 8228,9635
8582,9635
8582,9753
8228,9753
8228,9635
Z" /> 
<path style="fill:#000000; fill-opacity:1.0; 
stroke:#000000; stroke-width:0; stroke-opacity:1; 
stroke-linecap:round; stroke-linejoin:round;fill-rule:evenodd;"
d="M 8228,9438
8582,9438
8582,9556
8228,9556
8228,9438
Z" /> 
<path style="fill:#000000; fill-opacity:1.0; 
stroke:#000000; stroke-width:0; stroke-opacity:1; 
stroke-linecap:round; stroke-linejoin:round;fill-rule:evenodd;"
d="M 8228,9241
8582,9241
8582,9359
8228,9359
8228,9241
Z" /> 
<path style="fill:#000000; fill-opacity:1.0; 
stroke:#000000; stroke-width:0; stroke-opacity:1; 
stroke-linecap:round; stroke-linejoin:round;fill-rule:evenodd;"
d="M 8228,9044
8582,9044
8582,9162
8228,9162
8228,9044
Z" /> 
<path style="fill:#000000; fill-opacity:1.0; 
stroke:#000000; stroke-width:0; stroke-opacity:1; 
stroke-linecap:round; stroke-linejoin:round;fill-rule:evenodd;"
d="M 8070,9005
8070,8651
8188,8651
8188,9005
8070,9005
Z" /> 
<path style="fill:#000000; fill-opacity:1.0; 
stroke:#000000; stroke-width:0; stroke-opacity:1; 
stroke-linecap:round; stroke-linejoin:round;fill-rule:evenodd;"
d="M 7873,9005
7873,8651
7991,8651
7991,9005
7873,9005
Z" /> 
<path style="fill:#000000; fill-opacity:1.0; 
stroke:#000000; stroke-width:0; stroke-opacity:1; 
stroke-linecap:round; stroke-linejoin:round;fill-rule:evenodd;"
d="M 7676,9005
7676,8651
7794,8651
7794,9005
7676,9005
Z" /> 
<path style="fill:#000000; fill-opacity:1.0; 
stroke:#000000; stroke-width:0; stroke-opacity:1; 
stroke-linecap:round; stroke-linejoin:round;fill-rule:evenodd;"
d="M 7479,9005
7479,8651
7598,8651
7598,9005
7479,9005
Z" /> 
<path style="fill:#000000; fill-opacity:1.0; 
stroke:#000000; stroke-width:0; stroke-opacity:1; 
stroke-linecap:round; stroke-linejoin:round;fill-rule:evenodd;"
d="M 7283,9005
7283,8651
7401,8651
7401,9005
7283,9005
Z" /> 
<path style="fill:#000000; fill-opacity:1.0; 
stroke:#000000; stroke-width:0; stroke-opacity:1; 
stroke-linecap:round; stroke-linejoin:round;fill-rule:evenodd;"
d="M 6889,9044
7243,9044
7243,9162
6889,9162
6889,9044
Z" /> 
<path style="fill:#000000; fill-opacity:1.0; 
stroke:#000000; stroke-width:0; stroke-opacity:1; 
stroke-linecap:round; stroke-linejoin:round;fill-rule:evenodd;"
d="M 6889,9241
7243,9241
7243,9359
6889,9359
6889,9241
Z" /> 
<path style="fill:#000000; fill-opacity:1.0; 
stroke:#000000; stroke-width:0; stroke-opacity:1; 
stroke-linecap:round; stroke-linejoin:round;fill-rule:evenodd;"
d="M 6889,9438
7243,9438
7243,9556
6889,9556
6889,9438
Z" /> 
<path style="fill:#000000; fill-opacity:1.0; 
stroke:#000000; stroke-width:0; stroke-opacity:1; 
stroke-linecap:round; stroke-linejoin:round;fill-rule:evenodd;"
d="M 6889,9635
7243,9635
7243,9753
6889,9753
6889,9635
Z" /> 
<path style="fill:#000000; fill-opacity:1.0; 
stroke:#000000; stroke-width:0; stroke-opacity:1; 
stroke-linecap:round; stroke-linejoin:round;fill-rule:evenodd;"
d="M 6889,9832
7243,9832
7243,9950
6889,9950
6889,9832
Z" /> 
</g>
<g >
</g>
<g style="fill:#000000; fill-opacity:1.0; 
stroke:#000000; stroke-width:0; stroke-opacity:1; 
stroke-linecap:round; stroke-linejoin:round;">
<path style="fill:#000000; fill-opacity:1.0; 
stroke:#000000; stroke-width:0; stroke-opacity:1; 
stroke-linecap:round; stroke-linejoin:round;fill-rule:evenodd;"
d="M 10734,11546
10734,11861
10419,11861
10419,11546
10734,11546
Z" /> 
<path style="fill:#000000; fill-opacity:1.0; 
stroke:#000000; stroke-width:0; stroke-opacity:1; 
stroke-linecap:round; stroke-linejoin:round;fill-rule:evenodd;"
d="M 10793,10562
10793,11349
10360,11349
10360,10562
10793,10562
Z" /> 
</g>
<g >
</g>
<g style="fill:#000000; fill-opacity:1.0; 
stroke:#000000; stroke-width:0; stroke-opacity:1; 
stroke-linecap:round; stroke-linejoin:round;">
<path style="fill:#000000; fill-opacity:1.0; 
stroke:#000000; stroke-width:0; stroke-opacity:1; 
stroke-linecap:round; stroke-linejoin:round;fill-rule:evenodd;"
d="M 6656,7911
6662,7911
6667,7913
6673,7915
6678,7917
6683,7920
6687,7924
6691,7927
6695,7932
6699,7936
6702,7941
6704,7946
6706,7952
6707,7957
6708,7963
6708,7968
6708,8104
6708,8110
6707,8116
6706,8121
6704,8126
6702,8132
6699,8136
6695,8141
6691,8145
6687,8149
6683,8153
6678,8155
6673,8158
6667,8160
6662,8161
6656,8162
6650,8162
6534,8162
6528,8162
6523,8161
6517,8160
6512,8158
6507,8155
6502,8153
6497,8149
6493,8145
6489,8141
6486,8136
6483,8132
6480,8126
6479,8121
6477,8116
6476,8110
6476,8104
6476,7968
6476,7963
6477,7957
6479,7952
6480,7946
6483,7941
6486,7936
6489,7932
6493,7927
6497,7924
6502,7920
6507,7917
6512,7915
6517,7913
6523,7911
6528,7911
6534,7910
6650,7910
6656,7911
Z" /> 
<path style="fill:#000000; fill-opacity:1.0; 
stroke:#000000; stroke-width:0; stroke-opacity:1; 
stroke-linecap:round; stroke-linejoin:round;fill-rule:evenodd;"
d="M 6274,7911
6280,7911
6285,7913
6291,7915
6296,7917
6301,7920
6305,7924
6309,7927
6313,7932
6317,7936
6320,7941
6322,7946
6324,7952
6325,7957
6326,7963
6326,7968
6326,8104
6326,8110
6325,8116
6324,8121
6322,8126
6320,8132
6317,8136
6313,8141
6309,8145
6305,8149
6301,8153
6296,8155
6291,8158
6285,8160
6280,8161
6274,8162
6268,8162
6152,8162
6147,8162
6141,8161
6135,8160
6130,8158
6125,8155
6120,8153
6115,8149
6111,8145
6107,8141
6104,8136
6101,8132
6099,8126
6097,8121
6095,8116
6094,8110
6094,8104
6094,7968
6094,7963
6095,7957
6097,7952
6099,7946
6101,7941
6104,7936
6107,7932
6111,7927
6115,7924
6120,7920
6125,7917
6130,7915
6135,7913
6141,7911
6147,7911
6152,7910
6268,7910
6274,7911
Z" /> 
</g>
<g >
</g>
<g style="fill:#000000; fill-opacity:1.0; 
stroke:#000000; stroke-width:0; stroke-opacity:1; 
stroke-linecap:round; stroke-linejoin:round;">
<path style="fill:#000000; fill-opacity:1.0; 
stroke:#000000; stroke-width:0; stroke-opacity:1; 
stroke-linecap:round; stroke-linejoin:round;fill-rule:evenodd;"
d="M 7175,7555
7181,7555
7186,7557
7191,7559
7197,7561
7201,7564
7206,7567
7210,7571
7214,7575
7217,7580
7220,7585
7223,7590
7225,7595
7226,7601
7227,7607
7227,7612
7227,7728
7227,7734
7226,7740
7225,7745
7223,7751
7220,7756
7217,7761
7214,7765
7210,7769
7206,7773
7201,7777
7197,7780
7191,7782
7186,7784
7181,7785
7175,7786
7169,7787
7033,7787
7028,7786
7022,7785
7017,7784
7011,7782
7006,7780
7001,7777
6997,7773
6992,7769
6988,7765
6985,7761
6982,7756
6980,7751
6978,7745
6976,7740
6976,7734
6975,7728
6975,7612
6976,7607
6976,7601
6978,7595
6980,7590
6982,7585
6985,7580
6988,7575
6992,7571
6997,7567
7001,7564
7006,7561
7011,7559
7017,7557
7022,7555
7028,7555
7033,7554
7169,7554
7175,7555
Z" /> 
<path style="fill:#000000; fill-opacity:1.0; 
stroke:#000000; stroke-width:0; stroke-opacity:1; 
stroke-linecap:round; stroke-linejoin:round;fill-rule:evenodd;"
d="M 7175,7936
7181,7937
7186,7939
7191,7941
7197,7943
7201,7946
7206,7949
7210,7953
7214,7957
7217,7962
7220,7967
7223,7972
7225,7977
7226,7983
7227,7988
7227,7994
7227,8110
7227,8116
7226,8122
7225,8127
7223,8133
7220,8138
7217,8143
7214,8147
7210,8151
7206,8155
7201,8159
7197,8162
7191,8164
7186,8166
7181,8167
7175,8168
7169,8168
7033,8168
7028,8168
7022,8167
7017,8166
7011,8164
7006,8162
7001,8159
6997,8155
6992,8151
6988,8147
6985,8143
6982,8138
6980,8133
6978,8127
6976,8122
6976,8116
6975,8110
6975,7994
6976,7988
6976,7983
6978,7977
6980,7972
6982,7967
6985,7962
6988,7957
6992,7953
6997,7949
7001,7946
7006,7943
7011,7941
7017,7939
7022,7937
7028,7936
7033,7936
7169,7936
7175,7936
Z" /> 
</g>
<g >
</g>
<g style="fill:#000000; fill-opacity:1.0; 
stroke:#000000; stroke-width:0; stroke-opacity:1; 
stroke-linecap:round; stroke-linejoin:round;">
<path style="fill:#000000; fill-opacity:1.0; 
stroke:#000000; stroke-width:0; stroke-opacity:1; 
stroke-linecap:round; stroke-linejoin:round;fill-rule:evenodd;"
d="M 6474,12586
6480,12586
6485,12588
6491,12590
6496,12592
6501,12595
6505,12599
6509,12602
6513,12607
6517,12611
6520,12616
6522,12621
6524,12627
6525,12632
6526,12638
6526,12643
6526,12779
6526,12785
6525,12791
6524,12796
6522,12801
6520,12807
6517,12811
6513,12816
6509,12820
6505,12824
6501,12828
6496,12830
6491,12833
6485,12835
6480,12836
6474,12837
6468,12837
6352,12837
6347,12837
6341,12836
6335,12835
6330,12833
6325,12830
6320,12828
6315,12824
6311,12820
6307,12816
6304,12811
6301,12807
6299,12801
6297,12796
6295,12791
6294,12785
6294,12779
6294,12643
6294,12638
6295,12632
6297,12627
6299,12621
6301,12616
6304,12611
6307,12607
6311,12602
6315,12599
6320,12595
6325,12592
6330,12590
6335,12588
6341,12586
6347,12586
6352,12585
6468,12585
6474,12586
Z" /> 
<path style="fill:#000000; fill-opacity:1.0; 
stroke:#000000; stroke-width:0; stroke-opacity:1; 
stroke-linecap:round; stroke-linejoin:round;fill-rule:evenodd;"
d="M 6856,12586
6862,12586
6867,12588
6873,12590
6878,12592
6883,12595
6887,12599
6891,12602
6895,12607
6899,12611
6902,12616
6904,12621
6906,12627
6907,12632
6908,12638
6908,12643
6908,12779
6908,12785
6907,12791
6906,12796
6904,12801
6902,12807
6899,12811
6895,12816
6891,12820
6887,12824
6883,12828
6878,12830
6873,12833
6867,12835
6862,12836
6856,12837
6850,12837
6734,12837
6728,12837
6723,12836
6717,12835
6712,12833
6707,12830
6702,12828
6697,12824
6693,12820
6689,12816
6686,12811
6683,12807
6680,12801
6679,12796
6677,12791
6676,12785
6676,12779
6676,12643
6676,12638
6677,12632
6679,12627
6680,12621
6683,12616
6686,12611
6689,12607
6693,12602
6697,12599
6702,12595
6707,12592
6712,12590
6717,12588
6723,12586
6728,12586
6734,12585
6850,12585
6856,12586
Z" /> 
</g>
<g >
</g>
<g style="fill:#000000; fill-opacity:1.0; 
stroke:#000000; stroke-width:0; stroke-opacity:1; 
stroke-linecap:round; stroke-linejoin:round;">
<path style="fill:#000000; fill-opacity:1.0; 
stroke:#000000; stroke-width:0; stroke-opacity:1; 
stroke-linecap:round; stroke-linejoin:round;fill-rule:evenodd;"
d="M 7998,11211
8004,11211
8009,11213
8015,11215
8020,11217
8025,11220
8029,11224
8033,11227
8037,11232
8041,11236
8043,11241
8046,11246
8048,11252
8049,11257
8050,11263
8050,11268
8050,11404
8050,11410
8049,11416
8048,11421
8046,11426
8043,11432
8041,11436
8037,11441
8033,11445
8029,11449
8025,11453
8020,11455
8015,11458
8009,11460
8004,11461
7998,11462
7992,11462
7876,11462
7870,11462
7865,11461
7859,11460
7854,11458
7849,11455
7844,11453
7839,11449
7835,11445
7831,11441
7828,11436
7825,11432
7822,11426
7821,11421
7819,11416
7818,11410
7818,11404
7818,11268
7818,11263
7819,11257
7821,11252
7822,11246
7825,11241
7828,11236
7831,11232
7835,11227
7839,11224
7844,11220
7849,11217
7854,11215
7859,11213
7865,11211
7870,11211
7876,11210
7992,11210
7998,11211
Z" /> 
<path style="fill:#000000; fill-opacity:1.0; 
stroke:#000000; stroke-width:0; stroke-opacity:1; 
stroke-linecap:round; stroke-linejoin:round;fill-rule:evenodd;"
d="M 7616,11211
7622,11211
7627,11213
7633,11215
7638,11217
7643,11220
7647,11224
7651,11227
7655,11232
7659,11236
7662,11241
7664,11246
7666,11252
7667,11257
7668,11263
7668,11268
7668,11404
7668,11410
7667,11416
7666,11421
7664,11426
7662,11432
7659,11436
7655,11441
7651,11445
7647,11449
7643,11453
7638,11455
7633,11458
7627,11460
7622,11461
7616,11462
7610,11462
7494,11462
7489,11462
7483,11461
7477,11460
7472,11458
7467,11455
7462,11453
7457,11449
7453,11445
7449,11441
7446,11436
7443,11432
7441,11426
7439,11421
7437,11416
7436,11410
7436,11404
7436,11268
7436,11263
7437,11257
7439,11252
7441,11246
7443,11241
7446,11236
7449,11232
7453,11227
7457,11224
7462,11220
7467,11217
7472,11215
7477,11213
7483,11211
7489,11211
7494,11210
7610,11210
7616,11211
Z" /> 
</g>
<g >
</g>
<g style="fill:#000000; fill-opacity:1.0; 
stroke:#000000; stroke-width:0; stroke-opacity:1; 
stroke-linecap:round; stroke-linejoin:round;">
<path style="fill:#000000; fill-opacity:1.0; 
stroke:#000000; stroke-width:0; stroke-opacity:1; 
stroke-linecap:round; stroke-linejoin:round;fill-rule:evenodd;"
d="M 13232,9462
13232,10131
12641,10131
12641,9462
13232,9462
Z" /> 
<path style="fill:#000000; fill-opacity:1.0; 
stroke:#000000; stroke-width:0; stroke-opacity:1; 
stroke-linecap:round; stroke-linejoin:round;fill-rule:evenodd;"
d="M 13232,6391
13232,7061
12641,7061
12641,6391
13232,6391
Z" /> 
<path style="fill:#000000; fill-opacity:1.0; 
stroke:#000000; stroke-width:0; stroke-opacity:1; 
stroke-linecap:round; stroke-linejoin:round;fill-rule:evenodd;"
d="M 11185,9098
11618,9098
11618,9196
11185,9196
11185,9098
Z" /> 
<path style="fill:#000000; fill-opacity:1.0; 
stroke:#000000; stroke-width:0; stroke-opacity:1; 
stroke-linecap:round; stroke-linejoin:round;fill-rule:evenodd;"
d="M 11185,8901
11618,8901
11618,9000
11185,9000
11185,8901
Z" /> 
<path style="fill:#000000; fill-opacity:1.0; 
stroke:#000000; stroke-width:0; stroke-opacity:1; 
stroke-linecap:round; stroke-linejoin:round;fill-rule:evenodd;"
d="M 11185,8704
11618,8704
11618,8803
11185,8803
11185,8704
Z" /> 
<path style="fill:#000000; fill-opacity:1.0; 
stroke:#000000; stroke-width:0; stroke-opacity:1; 
stroke-linecap:round; stroke-linejoin:round;fill-rule:evenodd;"
d="M 11185,8507
11618,8507
11618,8606
11185,8606
11185,8507
Z" /> 
<path style="fill:#000000; fill-opacity:1.0; 
stroke:#000000; stroke-width:0; stroke-opacity:1; 
stroke-linecap:round; stroke-linejoin:round;fill-rule:evenodd;"
d="M 11185,8311
11618,8311
11618,8409
11185,8409
11185,8311
Z" /> 
<path style="fill:#000000; fill-opacity:1.0; 
stroke:#000000; stroke-width:0; stroke-opacity:1; 
stroke-linecap:round; stroke-linejoin:round;fill-rule:evenodd;"
d="M 11185,8114
11618,8114
11618,8212
11185,8212
11185,8114
Z" /> 
<path style="fill:#000000; fill-opacity:1.0; 
stroke:#000000; stroke-width:0; stroke-opacity:1; 
stroke-linecap:round; stroke-linejoin:round;fill-rule:evenodd;"
d="M 11185,7917
11618,7917
11618,8015
11185,8015
11185,7917
Z" /> 
<path style="fill:#000000; fill-opacity:1.0; 
stroke:#000000; stroke-width:0; stroke-opacity:1; 
stroke-linecap:round; stroke-linejoin:round;fill-rule:evenodd;"
d="M 11185,7720
11618,7720
11618,7818
11185,7818
11185,7720
Z" /> 
<path style="fill:#000000; fill-opacity:1.0; 
stroke:#000000; stroke-width:0; stroke-opacity:1; 
stroke-linecap:round; stroke-linejoin:round;fill-rule:evenodd;"
d="M 11185,7523
11618,7523
11618,7622
11185,7622
11185,7523
Z" /> 
<path style="fill:#000000; fill-opacity:1.0; 
stroke:#000000; stroke-width:0; stroke-opacity:1; 
stroke-linecap:round; stroke-linejoin:round;fill-rule:evenodd;"
d="M 11185,7326
11618,7326
11618,7425
11185,7425
11185,7326
Z" /> 
</g>
<g >
</g>
<g style="fill:#000000; fill-opacity:1.0; 
stroke:#000000; stroke-width:0; stroke-opacity:1; 
stroke-linecap:round; stroke-linejoin:round;">
<path style="fill:#000000; fill-opacity:1.0; 
stroke:#000000; stroke-width:0; stroke-opacity:1; 
stroke-linecap:round; stroke-linejoin:round;fill-rule:evenodd;"
d="M 12531,11525
12539,11526
12547,11528
12555,11531
12563,11534
12570,11539
12577,11544
12583,11550
12589,11556
12594,11563
12598,11570
12602,11577
12605,11585
12607,11594
12608,11602
12609,11610
12609,11812
12608,11821
12607,11829
12605,11837
12602,11845
12598,11853
12594,11860
12589,11867
12583,11873
12577,11879
12570,11884
12563,11888
12555,11892
12547,11895
12539,11897
12531,11898
12522,11898
12350,11898
12342,11898
12333,11897
12325,11895
12317,11892
12310,11888
12302,11884
12296,11879
12289,11873
12284,11867
12279,11860
12274,11853
12271,11845
12268,11837
12266,11829
12264,11821
12264,11812
12264,11610
12264,11602
12266,11594
12268,11585
12271,11577
12274,11570
12279,11563
12284,11556
12289,11550
12296,11544
12302,11539
12310,11534
12317,11531
12325,11528
12333,11526
12342,11525
12350,11524
12522,11524
12531,11525
Z" /> 
<path style="fill:#000000; fill-opacity:1.0; 
stroke:#000000; stroke-width:0; stroke-opacity:1; 
stroke-linecap:round; stroke-linejoin:round;fill-rule:evenodd;"
d="M 11911,11525
11919,11526
11927,11528
11935,11531
11943,11534
11950,11539
11957,11544
11963,11550
11969,11556
11974,11563
11978,11570
11982,11577
11985,11585
11987,11594
11988,11602
11988,11610
11988,11812
11988,11821
11987,11829
11985,11837
11982,11845
11978,11853
11974,11860
11969,11867
11963,11873
11957,11879
11950,11884
11943,11888
11935,11892
11927,11895
11919,11897
11911,11898
11902,11898
11730,11898
11722,11898
11713,11897
11705,11895
11697,11892
11690,11888
11682,11884
11675,11879
11669,11873
11664,11867
11659,11860
11654,11853
11651,11845
11648,11837
11646,11829
11644,11821
11644,11812
11644,11610
11644,11602
11646,11594
11648,11585
11651,11577
11654,11570
11659,11563
11664,11556
11669,11550
11675,11544
11682,11539
11690,11534
11697,11531
11705,11528
11713,11526
11722,11525
11730,11524
11902,11524
11911,11525
Z" /> 
</g>
<g >
</g>
<g style="fill:#000000; fill-opacity:1.0; 
stroke:#000000; stroke-width:0; stroke-opacity:1; 
stroke-linecap:round; stroke-linejoin:round;">
<path style="fill:#000000; fill-opacity:1.0; 
stroke:#000000; stroke-width:0; stroke-opacity:1; 
stroke-linecap:round; stroke-linejoin:round;fill-rule:evenodd;"
d="M 11300,10280
11306,10280
11311,10282
11316,10284
11322,10286
11326,10289
11331,10292
11335,10296
11339,10300
11342,10305
11345,10310
11348,10315
11350,10320
11351,10326
11352,10332
11352,10337
11352,10453
11352,10459
11351,10465
11350,10470
11348,10476
11345,10481
11342,10486
11339,10490
11335,10494
11331,10498
11326,10502
11322,10505
11316,10507
11311,10509
11306,10510
11300,10511
11294,10512
11158,10512
11153,10511
11147,10510
11142,10509
11136,10507
11131,10505
11126,10502
11122,10498
11117,10494
11113,10490
11110,10486
11107,10481
11105,10476
11103,10470
11101,10465
11101,10459
11100,10453
11100,10337
11101,10332
11101,10326
11103,10320
11105,10315
11107,10310
11110,10305
11113,10300
11117,10296
11122,10292
11126,10289
11131,10286
11136,10284
11142,10282
11147,10280
11153,10280
11158,10279
11294,10279
11300,10280
Z" /> 
<path style="fill:#000000; fill-opacity:1.0; 
stroke:#000000; stroke-width:0; stroke-opacity:1; 
stroke-linecap:round; stroke-linejoin:round;fill-rule:evenodd;"
d="M 11300,10661
11306,10662
11311,10664
11316,10666
11322,10668
11326,10671
11331,10674
11335,10678
11339,10682
11342,10687
11345,10692
11348,10697
11350,10702
11351,10708
11352,10713
11352,10719
11352,10835
11352,10841
11351,10847
11350,10852
11348,10858
11345,10863
11342,10868
11339,10872
11335,10876
11331,10880
11326,10884
11322,10887
11316,10889
11311,10891
11306,10892
11300,10893
11294,10893
11158,10893
11153,10893
11147,10892
11142,10891
11136,10889
11131,10887
11126,10884
11122,10880
11117,10876
11113,10872
11110,10868
11107,10863
11105,10858
11103,10852
11101,10847
11101,10841
11100,10835
11100,10719
11101,10713
11101,10708
11103,10702
11105,10697
11107,10692
11110,10687
11113,10682
11117,10678
11122,10674
11126,10671
11131,10668
11136,10666
11142,10664
11147,10662
11153,10661
11158,10661
11294,10661
11300,10661
Z" /> 
</g>
<g >
</g>
<g style="fill:#000000; fill-opacity:1.0; 
stroke:#000000; stroke-width:0; stroke-opacity:1; 
stroke-linecap:round; stroke-linejoin:round;">
<path style="fill:#000000; fill-opacity:1.0; 
stroke:#000000; stroke-width:0; stroke-opacity:1; 
stroke-linecap:round; stroke-linejoin:round;fill-rule:evenodd;"
d="M 7675,7936
7681,7937
7686,7939
7691,7941
7697,7943
7701,7946
7706,7949
7710,7953
7714,7957
7717,7962
7720,7967
7723,7972
7725,7977
7726,7983
7727,7988
7727,7994
7727,8110
7727,8116
7726,8122
7725,8127
7723,8133
7720,8138
7717,8143
7714,8147
7710,8151
7706,8155
7701,8159
7697,8162
7691,8164
7686,8166
7681,8167
7675,8168
7669,8168
7533,8168
7528,8168
7522,8167
7517,8166
7511,8164
7506,8162
7501,8159
7497,8155
7492,8151
7488,8147
7485,8143
7482,8138
7480,8133
7478,8127
7476,8122
7476,8116
7475,8110
7475,7994
7476,7988
7476,7983
7478,7977
7480,7972
7482,7967
7485,7962
7488,7957
7492,7953
7497,7949
7501,7946
7506,7943
7511,7941
7517,7939
7522,7937
7528,7936
7533,7936
7669,7936
7675,7936
Z" /> 
<path style="fill:#000000; fill-opacity:1.0; 
stroke:#000000; stroke-width:0; stroke-opacity:1; 
stroke-linecap:round; stroke-linejoin:round;fill-rule:evenodd;"
d="M 7675,7555
7681,7555
7686,7557
7691,7559
7697,7561
7701,7564
7706,7567
7710,7571
7714,7575
7717,7580
7720,7585
7723,7590
7725,7595
7726,7601
7727,7607
7727,7612
7727,7728
7727,7734
7726,7740
7725,7745
7723,7751
7720,7756
7717,7761
7714,7765
7710,7769
7706,7773
7701,7777
7697,7780
7691,7782
7686,7784
7681,7785
7675,7786
7669,7787
7533,7787
7528,7786
7522,7785
7517,7784
7511,7782
7506,7780
7501,7777
7497,7773
7492,7769
7488,7765
7485,7761
7482,7756
7480,7751
7478,7745
7476,7740
7476,7734
7475,7728
7475,7612
7476,7607
7476,7601
7478,7595
7480,7590
7482,7585
7485,7580
7488,7575
7492,7571
7497,7567
7501,7564
7506,7561
7511,7559
7517,7557
7522,7555
7528,7555
7533,7554
7669,7554
7675,7555
Z" /> 
</g>
<g >
</g>
<g style="fill:#000000; fill-opacity:1.0; 
stroke:#000000; stroke-width:0; stroke-opacity:1; 
stroke-linecap:round; stroke-linejoin:round;">
<path style="fill:#000000; fill-opacity:1.0; 
stroke:#000000; stroke-width:0; stroke-opacity:1; 
stroke-linecap:round; stroke-linejoin:round;fill-rule:evenodd;"
d="M 8999,8911
9005,8911
9010,8913
9016,8915
9021,8917
9026,8920
9030,8924
9034,8927
9038,8932
9042,8936
9045,8941
9047,8946
9049,8952
9050,8957
9051,8963
9051,8968
9051,9104
9051,9110
9050,9116
9049,9121
9047,9126
9045,9132
9042,9136
9038,9141
9034,9145
9030,9149
9026,9153
9021,9155
9016,9158
9010,9160
9005,9161
8999,9162
8993,9162
8877,9162
8872,9162
8866,9161
8860,9160
8855,9158
8850,9155
8845,9153
8840,9149
8836,9145
8832,9141
8829,9136
8826,9132
8824,9126
8822,9121
8820,9116
8819,9110
8819,9104
8819,8968
8819,8963
8820,8957
8822,8952
8824,8946
8826,8941
8829,8936
8832,8932
8836,8927
8840,8924
8845,8920
8850,8917
8855,8915
8860,8913
8866,8911
8872,8911
8877,8910
8993,8910
8999,8911
Z" /> 
<path style="fill:#000000; fill-opacity:1.0; 
stroke:#000000; stroke-width:0; stroke-opacity:1; 
stroke-linecap:round; stroke-linejoin:round;fill-rule:evenodd;"
d="M 9381,8911
9387,8911
9392,8913
9398,8915
9403,8917
9408,8920
9412,8924
9416,8927
9420,8932
9424,8936
9427,8941
9429,8946
9431,8952
9432,8957
9433,8963
9433,8968
9433,9104
9433,9110
9432,9116
9431,9121
9429,9126
9427,9132
9424,9136
9420,9141
9416,9145
9412,9149
9408,9153
9403,9155
9398,9158
9392,9160
9387,9161
9381,9162
9375,9162
9259,9162
9253,9162
9248,9161
9242,9160
9237,9158
9232,9155
9227,9153
9222,9149
9218,9145
9214,9141
9211,9136
9208,9132
9205,9126
9204,9121
9202,9116
9201,9110
9201,9104
9201,8968
9201,8963
9202,8957
9204,8952
9205,8946
9208,8941
9211,8936
9214,8932
9218,8927
9222,8924
9227,8920
9232,8917
9237,8915
9242,8913
9248,8911
9253,8911
9259,8910
9375,8910
9381,8911
Z" /> 
</g>
<g >
</g>
<g style="fill:#000000; fill-opacity:1.0; 
stroke:#000000; stroke-width:0; stroke-opacity:1; 
stroke-linecap:round; stroke-linejoin:round;">
<path style="fill:#000000; fill-opacity:1.0; 
stroke:#000000; stroke-width:0; stroke-opacity:1; 
stroke-linecap:round; stroke-linejoin:round;fill-rule:evenodd;"
d="M 8999,7911
9005,7911
9010,7913
9016,7915
9021,7917
9026,7920
9030,7924
9034,7927
9038,7932
9042,7936
9045,7941
9047,7946
9049,7952
9050,7957
9051,7963
9051,7968
9051,8104
9051,8110
9050,8116
9049,8121
9047,8126
9045,8132
9042,8136
9038,8141
9034,8145
9030,8149
9026,8153
9021,8155
9016,8158
9010,8160
9005,8161
8999,8162
8993,8162
8877,8162
8872,8162
8866,8161
8860,8160
8855,8158
8850,8155
8845,8153
8840,8149
8836,8145
8832,8141
8829,8136
8826,8132
8824,8126
8822,8121
8820,8116
8819,8110
8819,8104
8819,7968
8819,7963
8820,7957
8822,7952
8824,7946
8826,7941
8829,7936
8832,7932
8836,7927
8840,7924
8845,7920
8850,7917
8855,7915
8860,7913
8866,7911
8872,7911
8877,7910
8993,7910
8999,7911
Z" /> 
<path style="fill:#000000; fill-opacity:1.0; 
stroke:#000000; stroke-width:0; stroke-opacity:1; 
stroke-linecap:round; stroke-linejoin:round;fill-rule:evenodd;"
d="M 9381,7911
9387,7911
9392,7913
9398,7915
9403,7917
9408,7920
9412,7924
9416,7927
9420,7932
9424,7936
9427,7941
9429,7946
9431,7952
9432,7957
9433,7963
9433,7968
9433,8104
9433,8110
9432,8116
9431,8121
9429,8126
9427,8132
9424,8136
9420,8141
9416,8145
9412,8149
9408,8153
9403,8155
9398,8158
9392,8160
9387,8161
9381,8162
9375,8162
9259,8162
9253,8162
9248,8161
9242,8160
9237,8158
9232,8155
9227,8153
9222,8149
9218,8145
9214,8141
9211,8136
9208,8132
9205,8126
9204,8121
9202,8116
9201,8110
9201,8104
9201,7968
9201,7963
9202,7957
9204,7952
9205,7946
9208,7941
9211,7936
9214,7932
9218,7927
9222,7924
9227,7920
9232,7917
9237,7915
9242,7913
9248,7911
9253,7911
9259,7910
9375,7910
9381,7911
Z" /> 
</g>
<g >
</g>
<g style="fill:#000000; fill-opacity:1.0; 
stroke:#000000; stroke-width:0; stroke-opacity:1; 
stroke-linecap:round; stroke-linejoin:round;">
<path style="fill:#000000; fill-opacity:1.0; 
stroke:#000000; stroke-width:0; stroke-opacity:1; 
stroke-linecap:round; stroke-linejoin:round;fill-rule:evenodd;"
d="M 8999,8411
9005,8411
9010,8413
9016,8415
9021,8417
9026,8420
9030,8424
9034,8427
9038,8432
9042,8436
9045,8441
9047,8446
9049,8452
9050,8457
9051,8463
9051,8468
9051,8604
9051,8610
9050,8616
9049,8621
9047,8626
9045,8632
9042,8636
9038,8641
9034,8645
9030,8649
9026,8653
9021,8655
9016,8658
9010,8660
9005,8661
8999,8662
8993,8662
8877,8662
8872,8662
8866,8661
8860,8660
8855,8658
8850,8655
8845,8653
8840,8649
8836,8645
8832,8641
8829,8636
8826,8632
8824,8626
8822,8621
8820,8616
8819,8610
8819,8604
8819,8468
8819,8463
8820,8457
8822,8452
8824,8446
8826,8441
8829,8436
8832,8432
8836,8427
8840,8424
8845,8420
8850,8417
8855,8415
8860,8413
8866,8411
8872,8411
8877,8410
8993,8410
8999,8411
Z" /> 
<path style="fill:#000000; fill-opacity:1.0; 
stroke:#000000; stroke-width:0; stroke-opacity:1; 
stroke-linecap:round; stroke-linejoin:round;fill-rule:evenodd;"
d="M 9381,8411
9387,8411
9392,8413
9398,8415
9403,8417
9408,8420
9412,8424
9416,8427
9420,8432
9424,8436
9427,8441
9429,8446
9431,8452
9432,8457
9433,8463
9433,8468
9433,8604
9433,8610
9432,8616
9431,8621
9429,8626
9427,8632
9424,8636
9420,8641
9416,8645
9412,8649
9408,8653
9403,8655
9398,8658
9392,8660
9387,8661
9381,8662
9375,8662
9259,8662
9253,8662
9248,8661
9242,8660
9237,8658
9232,8655
9227,8653
9222,8649
9218,8645
9214,8641
9211,8636
9208,8632
9205,8626
9204,8621
9202,8616
9201,8610
9201,8604
9201,8468
9201,8463
9202,8457
9204,8452
9205,8446
9208,8441
9211,8436
9214,8432
9218,8427
9222,8424
9227,8420
9232,8417
9237,8415
9242,8413
9248,8411
9253,8411
9259,8410
9375,8410
9381,8411
Z" /> 
</g>
<g >
</g>
<g style="fill:#000000; fill-opacity:1.0; 
stroke:#000000; stroke-width:0; stroke-opacity:1; 
stroke-linecap:round; stroke-linejoin:round;">
<path style="fill:#000000; fill-opacity:1.0; 
stroke:#000000; stroke-width:0; stroke-opacity:1; 
stroke-linecap:round; stroke-linejoin:round;fill-rule:evenodd;"
d="M 8099,7911
8105,7911
8110,7913
8116,7915
8121,7917
8126,7920
8130,7924
8134,7927
8138,7932
8142,7936
8145,7941
8147,7946
8149,7952
8150,7957
8151,7963
8151,7968
8151,8104
8151,8110
8150,8116
8149,8121
8147,8126
8145,8132
8142,8136
8138,8141
8134,8145
8130,8149
8126,8153
8121,8155
8116,8158
8110,8160
8105,8161
8099,8162
8093,8162
7977,8162
7972,8162
7966,8161
7960,8160
7955,8158
7950,8155
7945,8153
7940,8149
7936,8145
7932,8141
7929,8136
7926,8132
7924,8126
7922,8121
7920,8116
7919,8110
7919,8104
7919,7968
7919,7963
7920,7957
7922,7952
7924,7946
7926,7941
7929,7936
7932,7932
7936,7927
7940,7924
7945,7920
7950,7917
7955,7915
7960,7913
7966,7911
7972,7911
7977,7910
8093,7910
8099,7911
Z" /> 
<path style="fill:#000000; fill-opacity:1.0; 
stroke:#000000; stroke-width:0; stroke-opacity:1; 
stroke-linecap:round; stroke-linejoin:round;fill-rule:evenodd;"
d="M 8481,7911
8487,7911
8492,7913
8498,7915
8503,7917
8508,7920
8512,7924
8516,7927
8520,7932
8524,7936
8527,7941
8529,7946
8531,7952
8532,7957
8533,7963
8533,7968
8533,8104
8533,8110
8532,8116
8531,8121
8529,8126
8527,8132
8524,8136
8520,8141
8516,8145
8512,8149
8508,8153
8503,8155
8498,8158
8492,8160
8487,8161
8481,8162
8475,8162
8359,8162
8353,8162
8348,8161
8342,8160
8337,8158
8332,8155
8327,8153
8322,8149
8318,8145
8314,8141
8311,8136
8308,8132
8305,8126
8304,8121
8302,8116
8301,8110
8301,8104
8301,7968
8301,7963
8302,7957
8304,7952
8305,7946
8308,7941
8311,7936
8314,7932
8318,7927
8322,7924
8327,7920
8332,7917
8337,7915
8342,7913
8348,7911
8353,7911
8359,7910
8475,7910
8481,7911
Z" /> 
</g>
<g >
</g>
<g style="fill:#000000; fill-opacity:1.0; 
stroke:#000000; stroke-width:0; stroke-opacity:1; 
stroke-linecap:round; stroke-linejoin:round;">
<path style="fill:#000000; fill-opacity:1.0; 
stroke:#000000; stroke-width:0; stroke-opacity:1; 
stroke-linecap:round; stroke-linejoin:round;fill-rule:evenodd;"
d="M 6074,9111
6080,9111
6085,9113
6091,9115
6096,9117
6101,9120
6105,9124
6109,9127
6113,9132
6117,9136
6120,9141
6122,9146
6124,9152
6125,9157
6126,9163
6126,9168
6126,9304
6126,9310
6125,9316
6124,9321
6122,9326
6120,9332
6117,9336
6113,9341
6109,9345
6105,9349
6101,9353
6096,9355
6091,9358
6085,9360
6080,9361
6074,9362
6068,9362
5952,9362
5947,9362
5941,9361
5935,9360
5930,9358
5925,9355
5920,9353
5915,9349
5911,9345
5907,9341
5904,9336
5901,9332
5899,9326
5897,9321
5895,9316
5894,9310
5894,9304
5894,9168
5894,9163
5895,9157
5897,9152
5899,9146
5901,9141
5904,9136
5907,9132
5911,9127
5915,9124
5920,9120
5925,9117
5930,9115
5935,9113
5941,9111
5947,9111
5952,9110
6068,9110
6074,9111
Z" /> 
<path style="fill:#000000; fill-opacity:1.0; 
stroke:#000000; stroke-width:0; stroke-opacity:1; 
stroke-linecap:round; stroke-linejoin:round;fill-rule:evenodd;"
d="M 6456,9111
6462,9111
6467,9113
6473,9115
6478,9117
6483,9120
6487,9124
6491,9127
6495,9132
6499,9136
6502,9141
6504,9146
6506,9152
6507,9157
6508,9163
6508,9168
6508,9304
6508,9310
6507,9316
6506,9321
6504,9326
6502,9332
6499,9336
6495,9341
6491,9345
6487,9349
6483,9353
6478,9355
6473,9358
6467,9360
6462,9361
6456,9362
6450,9362
6334,9362
6328,9362
6323,9361
6317,9360
6312,9358
6307,9355
6302,9353
6297,9349
6293,9345
6289,9341
6286,9336
6283,9332
6280,9326
6279,9321
6277,9316
6276,9310
6276,9304
6276,9168
6276,9163
6277,9157
6279,9152
6280,9146
6283,9141
6286,9136
6289,9132
6293,9127
6297,9124
6302,9120
6307,9117
6312,9115
6317,9113
6323,9111
6328,9111
6334,9110
6450,9110
6456,9111
Z" /> 
</g>
<g >
</g>
<g style="fill:#000000; fill-opacity:1.0; 
stroke:#000000; stroke-width:0; stroke-opacity:1; 
stroke-linecap:round; stroke-linejoin:round;">
<path style="fill:#000000; fill-opacity:1.0; 
stroke:#000000; stroke-width:0; stroke-opacity:1; 
stroke-linecap:round; stroke-linejoin:round;fill-rule:evenodd;"
d="M 5981,12586
5987,12586
5992,12588
5998,12590
6003,12592
6008,12595
6012,12599
6016,12602
6020,12607
6024,12611
6027,12616
6029,12621
6031,12627
6032,12632
6033,12638
6033,12643
6033,12779
6033,12785
6032,12791
6031,12796
6029,12801
6027,12807
6024,12811
6020,12816
6016,12820
6012,12824
6008,12828
6003,12830
5998,12833
5992,12835
5987,12836
5981,12837
5975,12837
5859,12837
5853,12837
5848,12836
5842,12835
5837,12833
5832,12830
5827,12828
5822,12824
5818,12820
5814,12816
5811,12811
5808,12807
5805,12801
5804,12796
5802,12791
5801,12785
5801,12779
5801,12643
5801,12638
5802,12632
5804,12627
5805,12621
5808,12616
5811,12611
5814,12607
5818,12602
5822,12599
5827,12595
5832,12592
5837,12590
5842,12588
5848,12586
5853,12586
5859,12585
5975,12585
5981,12586
Z" /> 
<path style="fill:#000000; fill-opacity:1.0; 
stroke:#000000; stroke-width:0; stroke-opacity:1; 
stroke-linecap:round; stroke-linejoin:round;fill-rule:evenodd;"
d="M 5599,12586
5605,12586
5610,12588
5616,12590
5621,12592
5626,12595
5630,12599
5634,12602
5638,12607
5642,12611
5645,12616
5647,12621
5649,12627
5650,12632
5651,12638
5651,12643
5651,12779
5651,12785
5650,12791
5649,12796
5647,12801
5645,12807
5642,12811
5638,12816
5634,12820
5630,12824
5626,12828
5621,12830
5616,12833
5610,12835
5605,12836
5599,12837
5593,12837
5477,12837
5472,12837
5466,12836
5460,12835
5455,12833
5450,12830
5445,12828
5440,12824
5436,12820
5432,12816
5429,12811
5426,12807
5424,12801
5422,12796
5420,12791
5419,12785
5419,12779
5419,12643
5419,12638
5420,12632
5422,12627
5424,12621
5426,12616
5429,12611
5432,12607
5436,12602
5440,12599
5445,12595
5450,12592
5455,12590
5460,12588
5466,12586
5472,12586
5477,12585
5593,12585
5599,12586
Z" /> 
</g>
<g >
</g>
<g style="fill:#000000; fill-opacity:1.0; 
stroke:#000000; stroke-width:0; stroke-opacity:1; 
stroke-linecap:round; stroke-linejoin:round;">
<path style="fill:#000000; fill-opacity:1.0; 
stroke:#000000; stroke-width:0; stroke-opacity:1; 
stroke-linecap:round; stroke-linejoin:round;fill-rule:evenodd;"
d="M 10425,7836
10431,7837
10436,7839
10441,7841
10447,7843
10451,7846
10456,7849
10460,7853
10464,7857
10467,7862
10470,7867
10473,7872
10475,7877
10476,7883
10477,7888
10477,7894
10477,8010
10477,8016
10476,8022
10475,8027
10473,8033
10470,8038
10467,8043
10464,8047
10460,8051
10456,8055
10451,8059
10447,8062
10441,8064
10436,8066
10431,8067
10425,8068
10419,8068
10283,8068
10278,8068
10272,8067
10267,8066
10261,8064
10256,8062
10251,8059
10247,8055
10242,8051
10238,8047
10235,8043
10232,8038
10230,8033
10228,8027
10226,8022
10226,8016
10225,8010
10225,7894
10226,7888
10226,7883
10228,7877
10230,7872
10232,7867
10235,7862
10238,7857
10242,7853
10247,7849
10251,7846
10256,7843
10261,7841
10267,7839
10272,7837
10278,7836
10283,7836
10419,7836
10425,7836
Z" /> 
<path style="fill:#000000; fill-opacity:1.0; 
stroke:#000000; stroke-width:0; stroke-opacity:1; 
stroke-linecap:round; stroke-linejoin:round;fill-rule:evenodd;"
d="M 10425,7455
10431,7455
10436,7457
10441,7459
10447,7461
10451,7464
10456,7467
10460,7471
10464,7475
10467,7480
10470,7485
10473,7490
10475,7495
10476,7501
10477,7507
10477,7512
10477,7628
10477,7634
10476,7640
10475,7645
10473,7651
10470,7656
10467,7661
10464,7665
10460,7669
10456,7673
10451,7677
10447,7680
10441,7682
10436,7684
10431,7685
10425,7686
10419,7687
10283,7687
10278,7686
10272,7685
10267,7684
10261,7682
10256,7680
10251,7677
10247,7673
10242,7669
10238,7665
10235,7661
10232,7656
10230,7651
10228,7645
10226,7640
10226,7634
10225,7628
10225,7512
10226,7507
10226,7501
10228,7495
10230,7490
10232,7485
10235,7480
10238,7475
10242,7471
10247,7467
10251,7464
10256,7461
10261,7459
10267,7457
10272,7455
10278,7455
10283,7454
10419,7454
10425,7455
Z" /> 
</g>
<g >
</g>
<g style="fill:#000000; fill-opacity:1.0; 
stroke:#000000; stroke-width:0; stroke-opacity:1; 
stroke-linecap:round; stroke-linejoin:round;">
<path style="fill:#000000; fill-opacity:1.0; 
stroke:#000000; stroke-width:0; stroke-opacity:1; 
stroke-linecap:round; stroke-linejoin:round;fill-rule:evenodd;"
d="M 10875,8011
10881,8012
10886,8014
10891,8016
10897,8018
10901,8021
10906,8024
10910,8028
10914,8032
10917,8037
10920,8042
10923,8047
10925,8052
10926,8058
10927,8063
10927,8069
10927,8185
10927,8191
10926,8197
10925,8202
10923,8208
10920,8213
10917,8218
10914,8222
10910,8226
10906,8230
10901,8234
10897,8237
10891,8239
10886,8241
10881,8242
10875,8243
10869,8243
10733,8243
10728,8243
10722,8242
10717,8241
10711,8239
10706,8237
10701,8234
10697,8230
10692,8226
10688,8222
10685,8218
10682,8213
10680,8208
10678,8202
10676,8197
10676,8191
10675,8185
10675,8069
10676,8063
10676,8058
10678,8052
10680,8047
10682,8042
10685,8037
10688,8032
10692,8028
10697,8024
10701,8021
10706,8018
10711,8016
10717,8014
10722,8012
10728,8011
10733,8011
10869,8011
10875,8011
Z" /> 
<path style="fill:#000000; fill-opacity:1.0; 
stroke:#000000; stroke-width:0; stroke-opacity:1; 
stroke-linecap:round; stroke-linejoin:round;fill-rule:evenodd;"
d="M 10875,7630
10881,7630
10886,7632
10891,7634
10897,7636
10901,7639
10906,7642
10910,7646
10914,7650
10917,7655
10920,7660
10923,7665
10925,7670
10926,7676
10927,7682
10927,7687
10927,7803
10927,7809
10926,7815
10925,7820
10923,7826
10920,7831
10917,7836
10914,7840
10910,7844
10906,7848
10901,7852
10897,7855
10891,7857
10886,7859
10881,7860
10875,7861
10869,7862
10733,7862
10728,7861
10722,7860
10717,7859
10711,7857
10706,7855
10701,7852
10697,7848
10692,7844
10688,7840
10685,7836
10682,7831
10680,7826
10678,7820
10676,7815
10676,7809
10675,7803
10675,7687
10676,7682
10676,7676
10678,7670
10680,7665
10682,7660
10685,7655
10688,7650
10692,7646
10697,7642
10701,7639
10706,7636
10711,7634
10717,7632
10722,7630
10728,7630
10733,7629
10869,7629
10875,7630
Z" /> 
</g>
<g >
</g>
<g style="fill:#000000; fill-opacity:1.0; 
stroke:#000000; stroke-width:0; stroke-opacity:1; 
stroke-linecap:round; stroke-linejoin:round;">
<path style="fill:#000000; fill-opacity:1.0; 
stroke:#000000; stroke-width:0; stroke-opacity:1; 
stroke-linecap:round; stroke-linejoin:round;fill-rule:evenodd;"
d="M 9381,9311
9387,9311
9392,9313
9398,9315
9403,9317
9408,9320
9412,9324
9416,9327
9420,9332
9424,9336
9427,9341
9429,9346
9431,9352
9432,9357
9433,9363
9433,9368
9433,9504
9433,9510
9432,9516
9431,9521
9429,9526
9427,9532
9424,9536
9420,9541
9416,9545
9412,9549
9408,9553
9403,9555
9398,9558
9392,9560
9387,9561
9381,9562
9375,9562
9259,9562
9253,9562
9248,9561
9242,9560
9237,9558
9232,9555
9227,9553
9222,9549
9218,9545
9214,9541
9211,9536
9208,9532
9205,9526
9204,9521
9202,9516
9201,9510
9201,9504
9201,9368
9201,9363
9202,9357
9204,9352
9205,9346
9208,9341
9211,9336
9214,9332
9218,9327
9222,9324
9227,9320
9232,9317
9237,9315
9242,9313
9248,9311
9253,9311
9259,9310
9375,9310
9381,9311
Z" /> 
<path style="fill:#000000; fill-opacity:1.0; 
stroke:#000000; stroke-width:0; stroke-opacity:1; 
stroke-linecap:round; stroke-linejoin:round;fill-rule:evenodd;"
d="M 8999,9311
9005,9311
9010,9313
9016,9315
9021,9317
9026,9320
9030,9324
9034,9327
9038,9332
9042,9336
9045,9341
9047,9346
9049,9352
9050,9357
9051,9363
9051,9368
9051,9504
9051,9510
9050,9516
9049,9521
9047,9526
9045,9532
9042,9536
9038,9541
9034,9545
9030,9549
9026,9553
9021,9555
9016,9558
9010,9560
9005,9561
8999,9562
8993,9562
8877,9562
8872,9562
8866,9561
8860,9560
8855,9558
8850,9555
8845,9553
8840,9549
8836,9545
8832,9541
8829,9536
8826,9532
8824,9526
8822,9521
8820,9516
8819,9510
8819,9504
8819,9368
8819,9363
8820,9357
8822,9352
8824,9346
8826,9341
8829,9336
8832,9332
8836,9327
8840,9324
8845,9320
8850,9317
8855,9315
8860,9313
8866,9311
8872,9311
8877,9310
8993,9310
8999,9311
Z" /> 
</g>
<g >
</g>
<g style="fill:#000000; fill-opacity:1.0; 
stroke:#000000; stroke-width:0; stroke-opacity:1; 
stroke-linecap:round; stroke-linejoin:round;">
<path style="fill:#000000; fill-opacity:1.0; 
stroke:#000000; stroke-width:0; stroke-opacity:1; 
stroke-linecap:round; stroke-linejoin:round;fill-rule:evenodd;"
d="M 9532,12263
9532,10533
10097,10533
10097,12263
9532,12263
Z" /> 
<path style="fill:#000000; fill-opacity:1.0; 
stroke:#000000; stroke-width:0; stroke-opacity:1; 
stroke-linecap:round; stroke-linejoin:round;fill-rule:evenodd;"
d="M 8367,12263
8367,10533
8932,10533
8932,12263
8367,12263
Z" /> 
</g>
<g >
</g>
<g style="fill:#000000; fill-opacity:1.0; 
stroke:#000000; stroke-width:0; stroke-opacity:1; 
stroke-linecap:round; stroke-linejoin:round;">
<path style="fill:#000000; fill-opacity:1.0; 
stroke:#000000; stroke-width:0; stroke-opacity:1; 
stroke-linecap:round; stroke-linejoin:round;fill-rule:evenodd;"
d="M 6426,12276
6426,10546
6991,10546
6991,12276
6426,12276
Z" /> 
<path style="fill:#000000; fill-opacity:1.0; 
stroke:#000000; stroke-width:0; stroke-opacity:1; 
stroke-linecap:round; stroke-linejoin:round;fill-rule:evenodd;"
d="M 5261,12276
5261,10546
5826,10546
5826,12276
5261,12276
Z" /> 
</g>
<g >
</g>
<g style="fill:#000000; fill-opacity:1.0; 
stroke:#000000; stroke-width:0; stroke-opacity:1; 
stroke-linecap:round; stroke-linejoin:round;">
<path style="fill:#000000; fill-opacity:1.0; 
stroke:#000000; stroke-width:0; stroke-opacity:1; 
stroke-linecap:round; stroke-linejoin:round;fill-rule:evenodd;"
d="M 8131,12525
8139,12526
8147,12528
8155,12531
8163,12534
8170,12539
8177,12544
8183,12550
8189,12556
8194,12563
8198,12570
8202,12577
8205,12585
8207,12594
8208,12602
8209,12610
8209,12812
8208,12821
8207,12829
8205,12837
8202,12845
8198,12853
8194,12860
8189,12867
8183,12873
8177,12879
8170,12884
8163,12888
8155,12892
8147,12895
8139,12897
8131,12898
8122,12898
7950,12898
7942,12898
7933,12897
7925,12895
7917,12892
7910,12888
7902,12884
7896,12879
7889,12873
7884,12867
7879,12860
7874,12853
7871,12845
7868,12837
7866,12829
7864,12821
7864,12812
7864,12610
7864,12602
7866,12594
7868,12585
7871,12577
7874,12570
7879,12563
7884,12556
7889,12550
7896,12544
7902,12539
7910,12534
7917,12531
7925,12528
7933,12526
7942,12525
7950,12524
8122,12524
8131,12525
Z" /> 
<path style="fill:#000000; fill-opacity:1.0; 
stroke:#000000; stroke-width:0; stroke-opacity:1; 
stroke-linecap:round; stroke-linejoin:round;fill-rule:evenodd;"
d="M 7511,12525
7519,12526
7527,12528
7535,12531
7543,12534
7550,12539
7557,12544
7563,12550
7569,12556
7574,12563
7578,12570
7582,12577
7585,12585
7587,12594
7588,12602
7588,12610
7588,12812
7588,12821
7587,12829
7585,12837
7582,12845
7578,12853
7574,12860
7569,12867
7563,12873
7557,12879
7550,12884
7543,12888
7535,12892
7527,12895
7519,12897
7511,12898
7502,12898
7330,12898
7322,12898
7313,12897
7305,12895
7297,12892
7290,12888
7282,12884
7275,12879
7269,12873
7264,12867
7259,12860
7254,12853
7251,12845
7248,12837
7246,12829
7244,12821
7244,12812
7244,12610
7244,12602
7246,12594
7248,12585
7251,12577
7254,12570
7259,12563
7264,12556
7269,12550
7275,12544
7282,12539
7290,12534
7297,12531
7305,12528
7313,12526
7322,12525
7330,12524
7502,12524
7511,12525
Z" /> 
</g>
<g >
</g>
<g style="fill:#000000; fill-opacity:1.0; 
stroke:#000000; stroke-width:0; stroke-opacity:1; 
stroke-linecap:round; stroke-linejoin:round;">
<path style="fill:#000000; fill-opacity:1.0; 
stroke:#000000; stroke-width:0; stroke-opacity:1; 
stroke-linecap:round; stroke-linejoin:round;fill-rule:evenodd;"
d="M 9299,10011
9305,10011
9310,10013
9316,10015
9321,10017
9326,10020
9330,10024
9334,10027
9338,10032
9342,10036
9345,10041
9347,10046
9349,10052
9350,10057
9351,10063
9351,10068
9351,10204
9351,10210
9350,10216
9349,10221
9347,10226
9345,10232
9342,10236
9338,10241
9334,10245
9330,10249
9326,10253
9321,10255
9316,10258
9310,10260
9305,10261
9299,10262
9293,10262
9177,10262
9172,10262
9166,10261
9160,10260
9155,10258
9150,10255
9145,10253
9140,10249
9136,10245
9132,10241
9129,10236
9126,10232
9124,10226
9122,10221
9120,10216
9119,10210
9119,10204
9119,10068
9119,10063
9120,10057
9122,10052
9124,10046
9126,10041
9129,10036
9132,10032
9136,10027
9140,10024
9145,10020
9150,10017
9155,10015
9160,10013
9166,10011
9172,10011
9177,10010
9293,10010
9299,10011
Z" /> 
<path style="fill:#000000; fill-opacity:1.0; 
stroke:#000000; stroke-width:0; stroke-opacity:1; 
stroke-linecap:round; stroke-linejoin:round;fill-rule:evenodd;"
d="M 9681,10011
9687,10011
9692,10013
9698,10015
9703,10017
9708,10020
9712,10024
9716,10027
9720,10032
9724,10036
9727,10041
9729,10046
9731,10052
9732,10057
9733,10063
9733,10068
9733,10204
9733,10210
9732,10216
9731,10221
9729,10226
9727,10232
9724,10236
9720,10241
9716,10245
9712,10249
9708,10253
9703,10255
9698,10258
9692,10260
9687,10261
9681,10262
9675,10262
9559,10262
9553,10262
9548,10261
9542,10260
9537,10258
9532,10255
9527,10253
9522,10249
9518,10245
9514,10241
9511,10236
9508,10232
9505,10226
9504,10221
9502,10216
9501,10210
9501,10204
9501,10068
9501,10063
9502,10057
9504,10052
9505,10046
9508,10041
9511,10036
9514,10032
9518,10027
9522,10024
9527,10020
9532,10017
9537,10015
9542,10013
9548,10011
9553,10011
9559,10010
9675,10010
9681,10011
Z" /> 
</g>
<g >
</g>
<g style="fill:#000000; fill-opacity:1.0; 
stroke:#000000; stroke-width:0; stroke-opacity:1; 
stroke-linecap:round; stroke-linejoin:round;">
<path style="fill:#000000; fill-opacity:1.0; 
stroke:#000000; stroke-width:0; stroke-opacity:1; 
stroke-linecap:round; stroke-linejoin:round;fill-rule:evenodd;"
d="M 6074,8686
6080,8686
6085,8688
6091,8690
6096,8692
6101,8695
6105,8699
6109,8702
6113,8707
6117,8711
6120,8716
6122,8721
6124,8727
6125,8732
6126,8738
6126,8743
6126,8879
6126,8885
6125,8891
6124,8896
6122,8901
6120,8907
6117,8911
6113,8916
6109,8920
6105,8924
6101,8928
6096,8930
6091,8933
6085,8935
6080,8936
6074,8937
6068,8937
5952,8937
5947,8937
5941,8936
5935,8935
5930,8933
5925,8930
5920,8928
5915,8924
5911,8920
5907,8916
5904,8911
5901,8907
5899,8901
5897,8896
5895,8891
5894,8885
5894,8879
5894,8743
5894,8738
5895,8732
5897,8727
5899,8721
5901,8716
5904,8711
5907,8707
5911,8702
5915,8699
5920,8695
5925,8692
5930,8690
5935,8688
5941,8686
5947,8686
5952,8685
6068,8685
6074,8686
Z" /> 
<path style="fill:#000000; fill-opacity:1.0; 
stroke:#000000; stroke-width:0; stroke-opacity:1; 
stroke-linecap:round; stroke-linejoin:round;fill-rule:evenodd;"
d="M 6456,8686
6462,8686
6467,8688
6473,8690
6478,8692
6483,8695
6487,8699
6491,8702
6495,8707
6499,8711
6502,8716
6504,8721
6506,8727
6507,8732
6508,8738
6508,8743
6508,8879
6508,8885
6507,8891
6506,8896
6504,8901
6502,8907
6499,8911
6495,8916
6491,8920
6487,8924
6483,8928
6478,8930
6473,8933
6467,8935
6462,8936
6456,8937
6450,8937
6334,8937
6328,8937
6323,8936
6317,8935
6312,8933
6307,8930
6302,8928
6297,8924
6293,8920
6289,8916
6286,8911
6283,8907
6280,8901
6279,8896
6277,8891
6276,8885
6276,8879
6276,8743
6276,8738
6277,8732
6279,8727
6280,8721
6283,8716
6286,8711
6289,8707
6293,8702
6297,8699
6302,8695
6307,8692
6312,8690
6317,8688
6323,8686
6328,8686
6334,8685
6450,8685
6456,8686
Z" /> 
</g>
<g >
</g>
<g style="fill:#000000; fill-opacity:1.0; 
stroke:#000000; stroke-width:0; stroke-opacity:1; 
stroke-linecap:round; stroke-linejoin:round;">
<path style="fill:#000000; fill-opacity:1.0; 
stroke:#000000; stroke-width:0; stroke-opacity:1; 
stroke-linecap:round; stroke-linejoin:round;fill-rule:evenodd;"
d="M 5156,12586
5162,12586
5167,12588
5173,12590
5178,12592
5183,12595
5187,12599
5191,12602
5195,12607
5199,12611
5202,12616
5204,12621
5206,12627
5207,12632
5208,12638
5208,12643
5208,12779
5208,12785
5207,12791
5206,12796
5204,12801
5202,12807
5199,12811
5195,12816
5191,12820
5187,12824
5183,12828
5178,12830
5173,12833
5167,12835
5162,12836
5156,12837
5150,12837
5034,12837
5028,12837
5023,12836
5017,12835
5012,12833
5007,12830
5002,12828
4997,12824
4993,12820
4989,12816
4986,12811
4983,12807
4980,12801
4979,12796
4977,12791
4976,12785
4976,12779
4976,12643
4976,12638
4977,12632
4979,12627
4980,12621
4983,12616
4986,12611
4989,12607
4993,12602
4997,12599
5002,12595
5007,12592
5012,12590
5017,12588
5023,12586
5028,12586
5034,12585
5150,12585
5156,12586
Z" /> 
<path style="fill:#000000; fill-opacity:1.0; 
stroke:#000000; stroke-width:0; stroke-opacity:1; 
stroke-linecap:round; stroke-linejoin:round;fill-rule:evenodd;"
d="M 4774,12586
4780,12586
4785,12588
4791,12590
4796,12592
4801,12595
4805,12599
4809,12602
4813,12607
4817,12611
4820,12616
4822,12621
4824,12627
4825,12632
4826,12638
4826,12643
4826,12779
4826,12785
4825,12791
4824,12796
4822,12801
4820,12807
4817,12811
4813,12816
4809,12820
4805,12824
4801,12828
4796,12830
4791,12833
4785,12835
4780,12836
4774,12837
4768,12837
4652,12837
4647,12837
4641,12836
4635,12835
4630,12833
4625,12830
4620,12828
4615,12824
4611,12820
4607,12816
4604,12811
4601,12807
4599,12801
4597,12796
4595,12791
4594,12785
4594,12779
4594,12643
4594,12638
4595,12632
4597,12627
4599,12621
4601,12616
4604,12611
4607,12607
4611,12602
4615,12599
4620,12595
4625,12592
4630,12590
4635,12588
4641,12586
4647,12586
4652,12585
4768,12585
4774,12586
Z" /> 
</g>
<g >
</g>
<g style="fill:#000000; fill-opacity:1.0; 
stroke:#000000; stroke-width:0; stroke-opacity:1; 
stroke-linecap:round; stroke-linejoin:round;">
<path style="fill:#000000; fill-opacity:1.0; 
stroke:#000000; stroke-width:0; stroke-opacity:1; 
stroke-linecap:round; stroke-linejoin:round;fill-rule:evenodd;"
d="M 11300,11230
11306,11230
11311,11232
11316,11234
11322,11236
11326,11239
11331,11242
11335,11246
11339,11250
11342,11255
11345,11260
11348,11265
11350,11270
11351,11276
11352,11282
11352,11287
11352,11403
11352,11409
11351,11415
11350,11420
11348,11426
11345,11431
11342,11436
11339,11440
11335,11444
11331,11448
11326,11452
11322,11455
11316,11457
11311,11459
11306,11460
11300,11461
11294,11462
11158,11462
11153,11461
11147,11460
11142,11459
11136,11457
11131,11455
11126,11452
11122,11448
11117,11444
11113,11440
11110,11436
11107,11431
11105,11426
11103,11420
11101,11415
11101,11409
11100,11403
11100,11287
11101,11282
11101,11276
11103,11270
11105,11265
11107,11260
11110,11255
11113,11250
11117,11246
11122,11242
11126,11239
11131,11236
11136,11234
11142,11232
11147,11230
11153,11230
11158,11229
11294,11229
11300,11230
Z" /> 
<path style="fill:#000000; fill-opacity:1.0; 
stroke:#000000; stroke-width:0; stroke-opacity:1; 
stroke-linecap:round; stroke-linejoin:round;fill-rule:evenodd;"
d="M 11300,11611
11306,11612
11311,11614
11316,11616
11322,11618
11326,11621
11331,11624
11335,11628
11339,11632
11342,11637
11345,11642
11348,11647
11350,11652
11351,11658
11352,11663
11352,11669
11352,11785
11352,11791
11351,11797
11350,11802
11348,11808
11345,11813
11342,11818
11339,11822
11335,11826
11331,11830
11326,11834
11322,11837
11316,11839
11311,11841
11306,11842
11300,11843
11294,11843
11158,11843
11153,11843
11147,11842
11142,11841
11136,11839
11131,11837
11126,11834
11122,11830
11117,11826
11113,11822
11110,11818
11107,11813
11105,11808
11103,11802
11101,11797
11101,11791
11100,11785
11100,11669
11101,11663
11101,11658
11103,11652
11105,11647
11107,11642
11110,11637
11113,11632
11117,11628
11122,11624
11126,11621
11131,11618
11136,11616
11142,11614
11147,11612
11153,11611
11158,11611
11294,11611
11300,11611
Z" /> 
</g>
<g >
</g>
<g style="fill:#000000; fill-opacity:1.0; 
stroke:#000000; stroke-width:0; stroke-opacity:1; 
stroke-linecap:round; stroke-linejoin:round;">
<path style="fill:#000000; fill-opacity:1.0; 
stroke:#000000; stroke-width:0; stroke-opacity:1; 
stroke-linecap:round; stroke-linejoin:round;fill-rule:evenodd;"
d="M 6074,9686
6080,9686
6085,9688
6091,9690
6096,9692
6101,9695
6105,9699
6109,9702
6113,9707
6117,9711
6120,9716
6122,9721
6124,9727
6125,9732
6126,9738
6126,9743
6126,9879
6126,9885
6125,9891
6124,9896
6122,9901
6120,9907
6117,9911
6113,9916
6109,9920
6105,9924
6101,9928
6096,9930
6091,9933
6085,9935
6080,9936
6074,9937
6068,9937
5952,9937
5947,9937
5941,9936
5935,9935
5930,9933
5925,9930
5920,9928
5915,9924
5911,9920
5907,9916
5904,9911
5901,9907
5899,9901
5897,9896
5895,9891
5894,9885
5894,9879
5894,9743
5894,9738
5895,9732
5897,9727
5899,9721
5901,9716
5904,9711
5907,9707
5911,9702
5915,9699
5920,9695
5925,9692
5930,9690
5935,9688
5941,9686
5947,9686
5952,9685
6068,9685
6074,9686
Z" /> 
<path style="fill:#000000; fill-opacity:1.0; 
stroke:#000000; stroke-width:0; stroke-opacity:1; 
stroke-linecap:round; stroke-linejoin:round;fill-rule:evenodd;"
d="M 6456,9686
6462,9686
6467,9688
6473,9690
6478,9692
6483,9695
6487,9699
6491,9702
6495,9707
6499,9711
6502,9716
6504,9721
6506,9727
6507,9732
6508,9738
6508,9743
6508,9879
6508,9885
6507,9891
6506,9896
6504,9901
6502,9907
6499,9911
6495,9916
6491,9920
6487,9924
6483,9928
6478,9930
6473,9933
6467,9935
6462,9936
6456,9937
6450,9937
6334,9937
6328,9937
6323,9936
6317,9935
6312,9933
6307,9930
6302,9928
6297,9924
6293,9920
6289,9916
6286,9911
6283,9907
6280,9901
6279,9896
6277,9891
6276,9885
6276,9879
6276,9743
6276,9738
6277,9732
6279,9727
6280,9721
6283,9716
6286,9711
6289,9707
6293,9702
6297,9699
6302,9695
6307,9692
6312,9690
6317,9688
6323,9686
6328,9686
6334,9685
6450,9685
6456,9686
Z" /> 
</g>
<g >
</g>
<g style="fill:#000000; fill-opacity:1.0; 
stroke:#000000; stroke-width:0; stroke-opacity:1; 
stroke-linecap:round; stroke-linejoin:round;">
<path style="fill:#000000; fill-opacity:1.0; 
stroke:#000000; stroke-width:0; stroke-opacity:1; 
stroke-linecap:round; stroke-linejoin:round;fill-rule:evenodd;"
d="M 10156,8911
10162,8911
10167,8913
10173,8915
10178,8917
10183,8920
10187,8924
10191,8927
10195,8932
10199,8936
10202,8941
10204,8946
10206,8952
10207,8957
10208,8963
10208,8968
10208,9104
10208,9110
10207,9116
10206,9121
10204,9126
10202,9132
10199,9136
10195,9141
10191,9145
10187,9149
10183,9153
10178,9155
10173,9158
10167,9160
10162,9161
10156,9162
10150,9162
10034,9162
10028,9162
10023,9161
10017,9160
10012,9158
10007,9155
10002,9153
9997,9149
9993,9145
9989,9141
9986,9136
9983,9132
9980,9126
9979,9121
9977,9116
9976,9110
9976,9104
9976,8968
9976,8963
9977,8957
9979,8952
9980,8946
9983,8941
9986,8936
9989,8932
9993,8927
9997,8924
10002,8920
10007,8917
10012,8915
10017,8913
10023,8911
10028,8911
10034,8910
10150,8910
10156,8911
Z" /> 
<path style="fill:#000000; fill-opacity:1.0; 
stroke:#000000; stroke-width:0; stroke-opacity:1; 
stroke-linecap:round; stroke-linejoin:round;fill-rule:evenodd;"
d="M 9774,8911
9780,8911
9785,8913
9791,8915
9796,8917
9801,8920
9805,8924
9809,8927
9813,8932
9817,8936
9820,8941
9822,8946
9824,8952
9825,8957
9826,8963
9826,8968
9826,9104
9826,9110
9825,9116
9824,9121
9822,9126
9820,9132
9817,9136
9813,9141
9809,9145
9805,9149
9801,9153
9796,9155
9791,9158
9785,9160
9780,9161
9774,9162
9768,9162
9652,9162
9647,9162
9641,9161
9635,9160
9630,9158
9625,9155
9620,9153
9615,9149
9611,9145
9607,9141
9604,9136
9601,9132
9599,9126
9597,9121
9595,9116
9594,9110
9594,9104
9594,8968
9594,8963
9595,8957
9597,8952
9599,8946
9601,8941
9604,8936
9607,8932
9611,8927
9615,8924
9620,8920
9625,8917
9630,8915
9635,8913
9641,8911
9647,8911
9652,8910
9768,8910
9774,8911
Z" /> 
</g>
<g >
</g>
<g >
</g>
<g >
</g>
</g> 
</svg>
