<?xml version="1.0" standalone="no"?>
 <!DOCTYPE svg PUBLIC "-//W3C//DTD SVG 1.1//EN" 
 "http://www.w3.org/Graphics/SVG/1.1/DTD/svg11.dtd"> 
<svg xmlns="http://www.w3.org/2000/svg" version="1.1" 
    width="6.40842cm" height="5.80898cm" viewBox="0 0 25230 22870 ">
<title>SVG Picture created as solarpcd-B_Paste.svg date 2019/11/01 14:38:56 </title>
  <desc>Picture generated by PCBNEW </desc>
<g style="fill:#000000; fill-opacity:1;stroke:#000000; stroke-opacity:1;
stroke-linecap:round; stroke-linejoin:round; "
 transform="translate(0 0) scale(1 1)">
</g>
<g style="fill:#000000; fill-opacity:0.0; 
stroke:#000000; stroke-width:-0.000393701; stroke-opacity:1; 
stroke-linecap:round; stroke-linejoin:round;">
<g >
</g>
<g >
</g>
<g >
</g>
<g >
</g>
<g >
</g>
<g >
</g>
<g >
</g>
<g style="fill:#000000; fill-opacity:0.0; 
stroke:#000000; stroke-width:-0.000393701; stroke-opacity:1; 
stroke-linecap:round; stroke-linejoin:round;">
</g>
<g style="fill:#000000; fill-opacity:0.0; 
stroke:#000000; stroke-width:0; stroke-opacity:1; 
stroke-linecap:round; stroke-linejoin:round;">
</g>
<g style="fill:#000000; fill-opacity:1.0; 
stroke:#000000; stroke-width:0; stroke-opacity:1; 
stroke-linecap:round; stroke-linejoin:round;">
<path style="fill:#000000; fill-opacity:1.0; 
stroke:#000000; stroke-width:0; stroke-opacity:1; 
stroke-linecap:round; stroke-linejoin:round;fill-rule:evenodd;"
d="M 16823,15710
16531,16002
16238,15710
16531,15417
16823,15710
Z" /> 
<path style="fill:#000000; fill-opacity:1.0; 
stroke:#000000; stroke-width:0; stroke-opacity:1; 
stroke-linecap:round; stroke-linejoin:round;fill-rule:evenodd;"
d="M 15528,15236
16155,15863
15862,16155
15236,15529
15528,15236
Z" /> 
<path style="fill:#000000; fill-opacity:1.0; 
stroke:#000000; stroke-width:0; stroke-opacity:1; 
stroke-linecap:round; stroke-linejoin:round;fill-rule:evenodd;"
d="M 16350,14415
16976,15042
16684,15334
16057,14707
16350,14415
Z" /> 
</g>
<g >
</g>
<g style="fill:#000000; fill-opacity:1.0; 
stroke:#000000; stroke-width:0; stroke-opacity:1; 
stroke-linecap:round; stroke-linejoin:round;">
<path style="fill:#000000; fill-opacity:1.0; 
stroke:#000000; stroke-width:0; stroke-opacity:1; 
stroke-linecap:round; stroke-linejoin:round;fill-rule:evenodd;"
d="M 18616,6628
18931,6628
18931,6943
18616,6943
18616,6628
Z" /> 
<path style="fill:#000000; fill-opacity:1.0; 
stroke:#000000; stroke-width:0; stroke-opacity:1; 
stroke-linecap:round; stroke-linejoin:round;fill-rule:evenodd;"
d="M 17631,6569
18419,6569
18419,7002
17631,7002
17631,6569
Z" /> 
</g>
<g >
</g>
<g style="fill:#000000; fill-opacity:1.0; 
stroke:#000000; stroke-width:0; stroke-opacity:1; 
stroke-linecap:round; stroke-linejoin:round;">
<path style="fill:#000000; fill-opacity:1.0; 
stroke:#000000; stroke-width:0; stroke-opacity:1; 
stroke-linecap:round; stroke-linejoin:round;fill-rule:evenodd;"
d="M 20480,15191
19811,15191
19811,14600
20480,14600
20480,15191
Z" /> 
<path style="fill:#000000; fill-opacity:1.0; 
stroke:#000000; stroke-width:0; stroke-opacity:1; 
stroke-linecap:round; stroke-linejoin:round;fill-rule:evenodd;"
d="M 23551,15191
22882,15191
22882,14600
23551,14600
23551,15191
Z" /> 
<path style="fill:#000000; fill-opacity:1.0; 
stroke:#000000; stroke-width:0; stroke-opacity:1; 
stroke-linecap:round; stroke-linejoin:round;fill-rule:evenodd;"
d="M 20844,13144
20844,13577
20746,13577
20746,13144
20844,13144
Z" /> 
<path style="fill:#000000; fill-opacity:1.0; 
stroke:#000000; stroke-width:0; stroke-opacity:1; 
stroke-linecap:round; stroke-linejoin:round;fill-rule:evenodd;"
d="M 21041,13144
21041,13577
20943,13577
20943,13144
21041,13144
Z" /> 
<path style="fill:#000000; fill-opacity:1.0; 
stroke:#000000; stroke-width:0; stroke-opacity:1; 
stroke-linecap:round; stroke-linejoin:round;fill-rule:evenodd;"
d="M 21238,13144
21238,13577
21140,13577
21140,13144
21238,13144
Z" /> 
<path style="fill:#000000; fill-opacity:1.0; 
stroke:#000000; stroke-width:0; stroke-opacity:1; 
stroke-linecap:round; stroke-linejoin:round;fill-rule:evenodd;"
d="M 21435,13144
21435,13577
21337,13577
21337,13144
21435,13144
Z" /> 
<path style="fill:#000000; fill-opacity:1.0; 
stroke:#000000; stroke-width:0; stroke-opacity:1; 
stroke-linecap:round; stroke-linejoin:round;fill-rule:evenodd;"
d="M 21632,13144
21632,13577
21533,13577
21533,13144
21632,13144
Z" /> 
<path style="fill:#000000; fill-opacity:1.0; 
stroke:#000000; stroke-width:0; stroke-opacity:1; 
stroke-linecap:round; stroke-linejoin:round;fill-rule:evenodd;"
d="M 21829,13144
21829,13577
21730,13577
21730,13144
21829,13144
Z" /> 
<path style="fill:#000000; fill-opacity:1.0; 
stroke:#000000; stroke-width:0; stroke-opacity:1; 
stroke-linecap:round; stroke-linejoin:round;fill-rule:evenodd;"
d="M 22025,13144
22025,13577
21927,13577
21927,13144
22025,13144
Z" /> 
<path style="fill:#000000; fill-opacity:1.0; 
stroke:#000000; stroke-width:0; stroke-opacity:1; 
stroke-linecap:round; stroke-linejoin:round;fill-rule:evenodd;"
d="M 22222,13144
22222,13577
22124,13577
22124,13144
22222,13144
Z" /> 
<path style="fill:#000000; fill-opacity:1.0; 
stroke:#000000; stroke-width:0; stroke-opacity:1; 
stroke-linecap:round; stroke-linejoin:round;fill-rule:evenodd;"
d="M 22419,13144
22419,13577
22321,13577
22321,13144
22419,13144
Z" /> 
<path style="fill:#000000; fill-opacity:1.0; 
stroke:#000000; stroke-width:0; stroke-opacity:1; 
stroke-linecap:round; stroke-linejoin:round;fill-rule:evenodd;"
d="M 22616,13144
22616,13577
22518,13577
22518,13144
22616,13144
Z" /> 
</g>
<g >
</g>
<g >
</g>
<g >
</g>
<g >
</g>
<g >
</g>
<g >
</g>
<g >
</g>
<g >
</g>
<g >
</g>
<g >
</g>
<g >
</g>
<g >
</g>
<g >
</g>
<g >
</g>
<g >
</g>
<g >
</g>
<g >
</g>
<g style="fill:#000000; fill-opacity:1.0; 
stroke:#000000; stroke-width:0; stroke-opacity:1; 
stroke-linecap:round; stroke-linejoin:round;">
<path style="fill:#000000; fill-opacity:1.0; 
stroke:#000000; stroke-width:0; stroke-opacity:1; 
stroke-linecap:round; stroke-linejoin:round;fill-rule:evenodd;"
d="M 21466,11624
21474,11625
21482,11627
21490,11630
21498,11633
21505,11638
21512,11643
21518,11648
21524,11655
21529,11661
21533,11669
21537,11676
21539,11684
21542,11692
21543,11701
21543,11709
21543,11911
21543,11919
21542,11928
21539,11936
21537,11944
21533,11952
21529,11959
21524,11966
21518,11972
21512,11978
21505,11983
21498,11987
21490,11991
21482,11993
21474,11995
21466,11997
21457,11997
21285,11997
21276,11997
21268,11995
21260,11993
21252,11991
21244,11987
21237,11983
21230,11978
21224,11972
21218,11966
21213,11959
21209,11952
21205,11944
21202,11936
21200,11928
21199,11919
21199,11911
21199,11709
21199,11701
21200,11692
21202,11684
21205,11676
21209,11669
21213,11661
21218,11655
21224,11648
21230,11643
21237,11638
21244,11633
21252,11630
21260,11627
21268,11625
21276,11624
21285,11623
21457,11623
21466,11624
Z" /> 
<path style="fill:#000000; fill-opacity:1.0; 
stroke:#000000; stroke-width:0; stroke-opacity:1; 
stroke-linecap:round; stroke-linejoin:round;fill-rule:evenodd;"
d="M 22086,11624
22094,11625
22102,11627
22110,11630
22118,11633
22125,11638
22132,11643
22138,11648
22144,11655
22149,11661
22153,11669
22157,11676
22160,11684
22162,11692
22163,11701
22163,11709
22163,11911
22163,11919
22162,11928
22160,11936
22157,11944
22153,11952
22149,11959
22144,11966
22138,11972
22132,11978
22125,11983
22118,11987
22110,11991
22102,11993
22094,11995
22086,11997
22077,11997
21905,11997
21896,11997
21888,11995
21880,11993
21872,11991
21864,11987
21857,11983
21850,11978
21844,11972
21838,11966
21833,11959
21829,11952
21825,11944
21823,11936
21820,11928
21819,11919
21819,11911
21819,11709
21819,11701
21820,11692
21823,11684
21825,11676
21829,11669
21833,11661
21838,11655
21844,11648
21850,11643
21857,11638
21864,11633
21872,11630
21880,11627
21888,11625
21896,11624
21905,11623
22077,11623
22086,11624
Z" /> 
</g>
<g >
</g>
<g style="fill:#000000; fill-opacity:1.0; 
stroke:#000000; stroke-width:0; stroke-opacity:1; 
stroke-linecap:round; stroke-linejoin:round;">
<path style="fill:#000000; fill-opacity:1.0; 
stroke:#000000; stroke-width:0; stroke-opacity:1; 
stroke-linecap:round; stroke-linejoin:round;fill-rule:evenodd;"
d="M 17919,9777
17925,9778
17930,9779
17935,9781
17941,9784
17945,9787
17950,9790
17954,9794
17958,9798
17962,9803
17964,9808
17967,9813
17969,9818
17970,9824
17971,9829
17971,9835
17971,9951
17971,9957
17970,9962
17969,9968
17967,9973
17964,9979
17962,9983
17958,9988
17954,9992
17950,9996
17945,9999
17941,10002
17935,10005
17930,10007
17925,10008
17919,10009
17913,10009
17777,10009
17772,10009
17766,10008
17761,10007
17755,10005
17750,10002
17745,9999
17741,9996
17736,9992
17733,9988
17729,9983
17726,9979
17724,9973
17722,9968
17720,9962
17720,9957
17719,9951
17719,9835
17720,9829
17720,9824
17722,9818
17724,9813
17726,9808
17729,9803
17733,9798
17736,9794
17741,9790
17745,9787
17750,9784
17755,9781
17761,9779
17766,9778
17772,9777
17777,9777
17913,9777
17919,9777
Z" /> 
<path style="fill:#000000; fill-opacity:1.0; 
stroke:#000000; stroke-width:0; stroke-opacity:1; 
stroke-linecap:round; stroke-linejoin:round;fill-rule:evenodd;"
d="M 17919,9395
17925,9396
17930,9398
17935,9399
17941,9402
17945,9405
17950,9408
17954,9412
17958,9416
17962,9421
17964,9426
17967,9431
17969,9436
17970,9442
17971,9447
17971,9453
17971,9569
17971,9575
17970,9581
17969,9586
17967,9591
17964,9597
17962,9602
17958,9606
17954,9610
17950,9614
17945,9618
17941,9620
17935,9623
17930,9625
17925,9626
17919,9627
17913,9627
17777,9627
17772,9627
17766,9626
17761,9625
17755,9623
17750,9620
17745,9618
17741,9614
17736,9610
17733,9606
17729,9602
17726,9597
17724,9591
17722,9586
17720,9581
17720,9575
17719,9569
17719,9453
17720,9447
17720,9442
17722,9436
17724,9431
17726,9426
17729,9421
17733,9416
17736,9412
17741,9408
17745,9405
17750,9402
17755,9399
17761,9398
17766,9396
17772,9395
17777,9395
17913,9395
17919,9395
Z" /> 
</g>
<g >
</g>
<g style="fill:#000000; fill-opacity:1.0; 
stroke:#000000; stroke-width:0; stroke-opacity:1; 
stroke-linecap:round; stroke-linejoin:round;">
<path style="fill:#000000; fill-opacity:1.0; 
stroke:#000000; stroke-width:0; stroke-opacity:1; 
stroke-linecap:round; stroke-linejoin:round;fill-rule:evenodd;"
d="M 19290,14273
19299,14275
19307,14277
19315,14279
19322,14283
19330,14287
19337,14292
19343,14298
19348,14304
19353,14311
19358,14318
19361,14326
19364,14334
19366,14342
19368,14351
19368,14359
19368,14531
19368,14540
19366,14548
19364,14556
19361,14564
19358,14572
19353,14579
19348,14586
19343,14592
19337,14598
19330,14603
19322,14607
19315,14611
19307,14614
19299,14616
19290,14617
19282,14617
19080,14617
19072,14617
19063,14616
19055,14614
19047,14611
19040,14607
19032,14603
19025,14598
19019,14592
19014,14586
19009,14579
19004,14572
19001,14564
18998,14556
18996,14548
18994,14540
18994,14531
18994,14359
18994,14351
18996,14342
18998,14334
19001,14326
19004,14318
19009,14311
19014,14304
19019,14298
19025,14292
19032,14287
19040,14283
19047,14279
19055,14277
19063,14275
19072,14273
19080,14273
19282,14273
19290,14273
Z" /> 
<path style="fill:#000000; fill-opacity:1.0; 
stroke:#000000; stroke-width:0; stroke-opacity:1; 
stroke-linecap:round; stroke-linejoin:round;fill-rule:evenodd;"
d="M 19290,13653
19299,13655
19307,13657
19315,13659
19322,13663
19330,13667
19337,13672
19343,13678
19348,13684
19353,13691
19358,13698
19361,13706
19364,13714
19366,13722
19368,13731
19368,13739
19368,13911
19368,13920
19366,13928
19364,13936
19361,13944
19358,13952
19353,13959
19348,13966
19343,13972
19337,13978
19330,13983
19322,13987
19315,13991
19307,13994
19299,13996
19290,13997
19282,13997
19080,13997
19072,13997
19063,13996
19055,13994
19047,13991
19040,13987
19032,13983
19025,13978
19019,13972
19014,13966
19009,13959
19004,13952
19001,13944
18998,13936
18996,13928
18994,13920
18994,13911
18994,13739
18994,13731
18996,13722
18998,13714
19001,13706
19004,13698
19009,13691
19014,13684
19019,13678
19025,13672
19032,13667
19040,13663
19047,13659
19055,13657
19063,13655
19072,13653
19080,13653
19282,13653
19290,13653
Z" /> 
</g>
<g >
</g>
<g style="fill:#000000; fill-opacity:1.0; 
stroke:#000000; stroke-width:0; stroke-opacity:1; 
stroke-linecap:round; stroke-linejoin:round;">
<path style="fill:#000000; fill-opacity:1.0; 
stroke:#000000; stroke-width:0; stroke-opacity:1; 
stroke-linecap:round; stroke-linejoin:round;fill-rule:evenodd;"
d="M 20043,7559
20043,7362
20319,7362
20319,7559
20043,7559
Z" /> 
<path style="fill:#000000; fill-opacity:1.0; 
stroke:#000000; stroke-width:0; stroke-opacity:1; 
stroke-linecap:round; stroke-linejoin:round;fill-rule:evenodd;"
d="M 20555,7559
20555,7362
20831,7362
20831,7559
20555,7559
Z" /> 
</g>
<g >
</g>
<g style="fill:#000000; fill-opacity:1.0; 
stroke:#000000; stroke-width:0; stroke-opacity:1; 
stroke-linecap:round; stroke-linejoin:round;">
<path style="fill:#000000; fill-opacity:1.0; 
stroke:#000000; stroke-width:0; stroke-opacity:1; 
stroke-linecap:round; stroke-linejoin:round;fill-rule:evenodd;"
d="M 20022,9271
20869,9271
20869,10117
20022,10117
20022,9271
Z" /> 
<path style="fill:#000000; fill-opacity:1.0; 
stroke:#000000; stroke-width:0; stroke-opacity:1; 
stroke-linecap:round; stroke-linejoin:round;fill-rule:evenodd;"
d="M 19599,9241
19953,9241
19953,9360
19599,9360
19599,9241
Z" /> 
<path style="fill:#000000; fill-opacity:1.0; 
stroke:#000000; stroke-width:0; stroke-opacity:1; 
stroke-linecap:round; stroke-linejoin:round;fill-rule:evenodd;"
d="M 19599,9438
19953,9438
19953,9556
19599,9556
19599,9438
Z" /> 
<path style="fill:#000000; fill-opacity:1.0; 
stroke:#000000; stroke-width:0; stroke-opacity:1; 
stroke-linecap:round; stroke-linejoin:round;fill-rule:evenodd;"
d="M 19599,9635
19953,9635
19953,9753
19599,9753
19599,9635
Z" /> 
<path style="fill:#000000; fill-opacity:1.0; 
stroke:#000000; stroke-width:0; stroke-opacity:1; 
stroke-linecap:round; stroke-linejoin:round;fill-rule:evenodd;"
d="M 19599,9832
19953,9832
19953,9950
19599,9950
19599,9832
Z" /> 
<path style="fill:#000000; fill-opacity:1.0; 
stroke:#000000; stroke-width:0; stroke-opacity:1; 
stroke-linecap:round; stroke-linejoin:round;fill-rule:evenodd;"
d="M 19599,10029
19953,10029
19953,10147
19599,10147
19599,10029
Z" /> 
<path style="fill:#000000; fill-opacity:1.0; 
stroke:#000000; stroke-width:0; stroke-opacity:1; 
stroke-linecap:round; stroke-linejoin:round;fill-rule:evenodd;"
d="M 20111,10186
20111,10541
19993,10541
19993,10186
20111,10186
Z" /> 
<path style="fill:#000000; fill-opacity:1.0; 
stroke:#000000; stroke-width:0; stroke-opacity:1; 
stroke-linecap:round; stroke-linejoin:round;fill-rule:evenodd;"
d="M 20308,10186
20308,10541
20189,10541
20189,10186
20308,10186
Z" /> 
<path style="fill:#000000; fill-opacity:1.0; 
stroke:#000000; stroke-width:0; stroke-opacity:1; 
stroke-linecap:round; stroke-linejoin:round;fill-rule:evenodd;"
d="M 20504,10186
20504,10541
20386,10541
20386,10186
20504,10186
Z" /> 
<path style="fill:#000000; fill-opacity:1.0; 
stroke:#000000; stroke-width:0; stroke-opacity:1; 
stroke-linecap:round; stroke-linejoin:round;fill-rule:evenodd;"
d="M 20701,10186
20701,10541
20583,10541
20583,10186
20701,10186
Z" /> 
<path style="fill:#000000; fill-opacity:1.0; 
stroke:#000000; stroke-width:0; stroke-opacity:1; 
stroke-linecap:round; stroke-linejoin:round;fill-rule:evenodd;"
d="M 20898,10186
20898,10541
20780,10541
20780,10186
20898,10186
Z" /> 
<path style="fill:#000000; fill-opacity:1.0; 
stroke:#000000; stroke-width:0; stroke-opacity:1; 
stroke-linecap:round; stroke-linejoin:round;fill-rule:evenodd;"
d="M 20937,10029
21292,10029
21292,10147
20937,10147
20937,10029
Z" /> 
<path style="fill:#000000; fill-opacity:1.0; 
stroke:#000000; stroke-width:0; stroke-opacity:1; 
stroke-linecap:round; stroke-linejoin:round;fill-rule:evenodd;"
d="M 20937,9832
21292,9832
21292,9950
20937,9950
20937,9832
Z" /> 
<path style="fill:#000000; fill-opacity:1.0; 
stroke:#000000; stroke-width:0; stroke-opacity:1; 
stroke-linecap:round; stroke-linejoin:round;fill-rule:evenodd;"
d="M 20937,9635
21292,9635
21292,9753
20937,9753
20937,9635
Z" /> 
<path style="fill:#000000; fill-opacity:1.0; 
stroke:#000000; stroke-width:0; stroke-opacity:1; 
stroke-linecap:round; stroke-linejoin:round;fill-rule:evenodd;"
d="M 20937,9438
21292,9438
21292,9556
20937,9556
20937,9438
Z" /> 
<path style="fill:#000000; fill-opacity:1.0; 
stroke:#000000; stroke-width:0; stroke-opacity:1; 
stroke-linecap:round; stroke-linejoin:round;fill-rule:evenodd;"
d="M 20937,9241
21292,9241
21292,9360
20937,9360
20937,9241
Z" /> 
<path style="fill:#000000; fill-opacity:1.0; 
stroke:#000000; stroke-width:0; stroke-opacity:1; 
stroke-linecap:round; stroke-linejoin:round;fill-rule:evenodd;"
d="M 20898,8848
20898,9202
20780,9202
20780,8848
20898,8848
Z" /> 
<path style="fill:#000000; fill-opacity:1.0; 
stroke:#000000; stroke-width:0; stroke-opacity:1; 
stroke-linecap:round; stroke-linejoin:round;fill-rule:evenodd;"
d="M 20701,8848
20701,9202
20583,9202
20583,8848
20701,8848
Z" /> 
<path style="fill:#000000; fill-opacity:1.0; 
stroke:#000000; stroke-width:0; stroke-opacity:1; 
stroke-linecap:round; stroke-linejoin:round;fill-rule:evenodd;"
d="M 20504,8848
20504,9202
20386,9202
20386,8848
20504,8848
Z" /> 
<path style="fill:#000000; fill-opacity:1.0; 
stroke:#000000; stroke-width:0; stroke-opacity:1; 
stroke-linecap:round; stroke-linejoin:round;fill-rule:evenodd;"
d="M 20308,8848
20308,9202
20189,9202
20189,8848
20308,8848
Z" /> 
<path style="fill:#000000; fill-opacity:1.0; 
stroke:#000000; stroke-width:0; stroke-opacity:1; 
stroke-linecap:round; stroke-linejoin:round;fill-rule:evenodd;"
d="M 20111,8848
20111,9202
19993,9202
19993,8848
20111,8848
Z" /> 
</g>
<g >
</g>
<g style="fill:#000000; fill-opacity:1.0; 
stroke:#000000; stroke-width:0; stroke-opacity:1; 
stroke-linecap:round; stroke-linejoin:round;">
<path style="fill:#000000; fill-opacity:1.0; 
stroke:#000000; stroke-width:0; stroke-opacity:1; 
stroke-linecap:round; stroke-linejoin:round;fill-rule:evenodd;"
d="M 18396,12693
18081,12693
18081,12378
18396,12378
18396,12693
Z" /> 
<path style="fill:#000000; fill-opacity:1.0; 
stroke:#000000; stroke-width:0; stroke-opacity:1; 
stroke-linecap:round; stroke-linejoin:round;fill-rule:evenodd;"
d="M 19381,12752
18593,12752
18593,12319
19381,12319
19381,12752
Z" /> 
</g>
<g >
</g>
<g style="fill:#000000; fill-opacity:1.0; 
stroke:#000000; stroke-width:0; stroke-opacity:1; 
stroke-linecap:round; stroke-linejoin:round;">
<path style="fill:#000000; fill-opacity:1.0; 
stroke:#000000; stroke-width:0; stroke-opacity:1; 
stroke-linecap:round; stroke-linejoin:round;fill-rule:evenodd;"
d="M 21980,8435
21985,8436
21991,8437
21996,8439
22001,8442
22006,8445
22011,8448
22015,8452
22019,8456
22022,8461
22025,8466
22028,8471
22029,8476
22031,8482
22032,8487
22032,8493
22032,8609
22032,8615
22031,8620
22029,8626
22028,8631
22025,8637
22022,8641
22019,8646
22015,8650
22011,8654
22006,8657
22001,8660
21996,8663
21991,8665
21985,8666
21980,8667
21974,8667
21838,8667
21832,8667
21827,8666
21821,8665
21816,8663
21811,8660
21806,8657
21801,8654
21797,8650
21793,8646
21790,8641
21787,8637
21784,8631
21783,8626
21781,8620
21780,8615
21780,8609
21780,8493
21780,8487
21781,8482
21783,8476
21784,8471
21787,8466
21790,8461
21793,8456
21797,8452
21801,8448
21806,8445
21811,8442
21816,8439
21821,8437
21827,8436
21832,8435
21838,8435
21974,8435
21980,8435
Z" /> 
<path style="fill:#000000; fill-opacity:1.0; 
stroke:#000000; stroke-width:0; stroke-opacity:1; 
stroke-linecap:round; stroke-linejoin:round;fill-rule:evenodd;"
d="M 21980,8053
21985,8054
21991,8056
21996,8057
22001,8060
22006,8063
22011,8066
22015,8070
22019,8074
22022,8079
22025,8084
22028,8089
22029,8094
22031,8100
22032,8105
22032,8111
22032,8227
22032,8233
22031,8239
22029,8244
22028,8249
22025,8255
22022,8260
22019,8264
22015,8268
22011,8272
22006,8276
22001,8278
21996,8281
21991,8283
21985,8284
21980,8285
21974,8285
21838,8285
21832,8285
21827,8284
21821,8283
21816,8281
21811,8278
21806,8276
21801,8272
21797,8268
21793,8264
21790,8260
21787,8255
21784,8249
21783,8244
21781,8239
21780,8233
21780,8227
21780,8111
21780,8105
21781,8100
21783,8094
21784,8089
21787,8084
21790,8079
21793,8074
21797,8070
21801,8066
21806,8063
21811,8060
21816,8057
21821,8056
21827,8054
21832,8053
21838,8053
21974,8053
21980,8053
Z" /> 
</g>
<g >
</g>
<g style="fill:#000000; fill-opacity:1.0; 
stroke:#000000; stroke-width:0; stroke-opacity:1; 
stroke-linecap:round; stroke-linejoin:round;">
<path style="fill:#000000; fill-opacity:1.0; 
stroke:#000000; stroke-width:0; stroke-opacity:1; 
stroke-linecap:round; stroke-linejoin:round;fill-rule:evenodd;"
d="M 22336,8934
22341,8935
22347,8937
22352,8939
22357,8941
22362,8944
22367,8947
22371,8951
22375,8955
22378,8960
22381,8965
22384,8970
22386,8975
22387,8981
22388,8987
22388,8992
22388,9128
22388,9134
22387,9139
22386,9145
22384,9150
22381,9155
22378,9160
22375,9165
22371,9169
22367,9173
22362,9176
22357,9179
22352,9182
22347,9184
22341,9185
22336,9186
22330,9186
22214,9186
22208,9186
22203,9185
22197,9184
22192,9182
22186,9179
22182,9176
22177,9173
22173,9169
22169,9165
22166,9160
22163,9155
22160,9150
22158,9145
22157,9139
22156,9134
22156,9128
22156,8992
22156,8987
22157,8981
22158,8975
22160,8970
22163,8965
22166,8960
22169,8955
22173,8951
22177,8947
22182,8944
22186,8941
22192,8939
22197,8937
22203,8935
22208,8934
22214,8934
22330,8934
22336,8934
Z" /> 
<path style="fill:#000000; fill-opacity:1.0; 
stroke:#000000; stroke-width:0; stroke-opacity:1; 
stroke-linecap:round; stroke-linejoin:round;fill-rule:evenodd;"
d="M 21954,8934
21959,8935
21965,8937
21970,8939
21975,8941
21980,8944
21985,8947
21989,8951
21993,8955
21996,8960
21999,8965
22002,8970
22004,8975
22005,8981
22006,8987
22006,8992
22006,9128
22006,9134
22005,9139
22004,9145
22002,9150
21999,9155
21996,9160
21993,9165
21989,9169
21985,9173
21980,9176
21975,9179
21970,9182
21965,9184
21959,9185
21954,9186
21948,9186
21832,9186
21826,9186
21821,9185
21815,9184
21810,9182
21805,9179
21800,9176
21795,9173
21791,9169
21787,9165
21784,9160
21781,9155
21778,9150
21776,9145
21775,9139
21774,9134
21774,9128
21774,8992
21774,8987
21775,8981
21776,8975
21778,8970
21781,8965
21784,8960
21787,8955
21791,8951
21795,8947
21800,8944
21805,8941
21810,8939
21815,8937
21821,8935
21826,8934
21832,8934
21948,8934
21954,8934
Z" /> 
</g>
<g >
</g>
<g style="fill:#000000; fill-opacity:1.0; 
stroke:#000000; stroke-width:0; stroke-opacity:1; 
stroke-linecap:round; stroke-linejoin:round;">
<path style="fill:#000000; fill-opacity:1.0; 
stroke:#000000; stroke-width:0; stroke-opacity:1; 
stroke-linecap:round; stroke-linejoin:round;fill-rule:evenodd;"
d="M 17305,8253
17310,8254
17316,8256
17321,8257
17326,8260
17331,8263
17336,8266
17340,8270
17344,8274
17347,8279
17350,8284
17353,8289
17354,8294
17356,8300
17357,8305
17357,8311
17357,8427
17357,8433
17356,8439
17354,8444
17353,8449
17350,8455
17347,8460
17344,8464
17340,8468
17336,8472
17331,8476
17326,8478
17321,8481
17316,8483
17310,8484
17305,8485
17299,8485
17163,8485
17157,8485
17152,8484
17146,8483
17141,8481
17136,8478
17131,8476
17126,8472
17122,8468
17118,8464
17115,8460
17112,8455
17109,8449
17108,8444
17106,8439
17105,8433
17105,8427
17105,8311
17105,8305
17106,8300
17108,8294
17109,8289
17112,8284
17115,8279
17118,8274
17122,8270
17126,8266
17131,8263
17136,8260
17141,8257
17146,8256
17152,8254
17157,8253
17163,8253
17299,8253
17305,8253
Z" /> 
<path style="fill:#000000; fill-opacity:1.0; 
stroke:#000000; stroke-width:0; stroke-opacity:1; 
stroke-linecap:round; stroke-linejoin:round;fill-rule:evenodd;"
d="M 17305,8635
17310,8636
17316,8637
17321,8639
17326,8642
17331,8645
17336,8648
17340,8652
17344,8656
17347,8661
17350,8666
17353,8671
17354,8676
17356,8682
17357,8687
17357,8693
17357,8809
17357,8815
17356,8820
17354,8826
17353,8831
17350,8837
17347,8841
17344,8846
17340,8850
17336,8854
17331,8857
17326,8860
17321,8863
17316,8865
17310,8866
17305,8867
17299,8867
17163,8867
17157,8867
17152,8866
17146,8865
17141,8863
17136,8860
17131,8857
17126,8854
17122,8850
17118,8846
17115,8841
17112,8837
17109,8831
17108,8826
17106,8820
17105,8815
17105,8809
17105,8693
17105,8687
17106,8682
17108,8676
17109,8671
17112,8666
17115,8661
17118,8656
17122,8652
17126,8648
17131,8645
17136,8642
17141,8639
17146,8637
17152,8636
17157,8635
17163,8635
17299,8635
17305,8635
Z" /> 
</g>
<g >
</g>
<g style="fill:#000000; fill-opacity:1.0; 
stroke:#000000; stroke-width:0; stroke-opacity:1; 
stroke-linecap:round; stroke-linejoin:round;">
<path style="fill:#000000; fill-opacity:1.0; 
stroke:#000000; stroke-width:0; stroke-opacity:1; 
stroke-linecap:round; stroke-linejoin:round;fill-rule:evenodd;"
d="M 18680,9777
18685,9778
18691,9779
18696,9781
18701,9784
18706,9787
18711,9790
18715,9794
18719,9798
18722,9803
18725,9808
18728,9813
18729,9818
18731,9824
18732,9829
18732,9835
18732,9951
18732,9957
18731,9962
18729,9968
18728,9973
18725,9979
18722,9983
18719,9988
18715,9992
18711,9996
18706,9999
18701,10002
18696,10005
18691,10007
18685,10008
18680,10009
18674,10009
18538,10009
18532,10009
18527,10008
18521,10007
18516,10005
18511,10002
18506,9999
18501,9996
18497,9992
18493,9988
18490,9983
18487,9979
18484,9973
18483,9968
18481,9962
18480,9957
18480,9951
18480,9835
18480,9829
18481,9824
18483,9818
18484,9813
18487,9808
18490,9803
18493,9798
18497,9794
18501,9790
18506,9787
18511,9784
18516,9781
18521,9779
18527,9778
18532,9777
18538,9777
18674,9777
18680,9777
Z" /> 
<path style="fill:#000000; fill-opacity:1.0; 
stroke:#000000; stroke-width:0; stroke-opacity:1; 
stroke-linecap:round; stroke-linejoin:round;fill-rule:evenodd;"
d="M 18680,9395
18685,9396
18691,9398
18696,9399
18701,9402
18706,9405
18711,9408
18715,9412
18719,9416
18722,9421
18725,9426
18728,9431
18729,9436
18731,9442
18732,9447
18732,9453
18732,9569
18732,9575
18731,9581
18729,9586
18728,9591
18725,9597
18722,9602
18719,9606
18715,9610
18711,9614
18706,9618
18701,9620
18696,9623
18691,9625
18685,9626
18680,9627
18674,9627
18538,9627
18532,9627
18527,9626
18521,9625
18516,9623
18511,9620
18506,9618
18501,9614
18497,9610
18493,9606
18490,9602
18487,9597
18484,9591
18483,9586
18481,9581
18480,9575
18480,9569
18480,9453
18480,9447
18481,9442
18483,9436
18484,9431
18487,9426
18490,9421
18493,9416
18497,9412
18501,9408
18506,9405
18511,9402
18516,9399
18521,9398
18527,9396
18532,9395
18538,9395
18674,9395
18680,9395
Z" /> 
</g>
<g >
</g>
<g style="fill:#000000; fill-opacity:1.0; 
stroke:#000000; stroke-width:0; stroke-opacity:1; 
stroke-linecap:round; stroke-linejoin:round;">
<path style="fill:#000000; fill-opacity:1.0; 
stroke:#000000; stroke-width:0; stroke-opacity:1; 
stroke-linecap:round; stroke-linejoin:round;fill-rule:evenodd;"
d="M 18340,14223
18349,14225
18357,14227
18365,14229
18372,14233
18380,14237
18387,14242
18393,14248
18398,14254
18403,14261
18408,14268
18411,14276
18414,14284
18416,14292
18418,14301
18418,14309
18418,14481
18418,14490
18416,14498
18414,14506
18411,14514
18408,14522
18403,14529
18398,14536
18393,14542
18387,14548
18380,14553
18372,14557
18365,14561
18357,14564
18349,14566
18340,14567
18332,14567
18130,14567
18122,14567
18113,14566
18105,14564
18097,14561
18090,14557
18082,14553
18075,14548
18069,14542
18064,14536
18059,14529
18054,14522
18051,14514
18048,14506
18046,14498
18044,14490
18044,14481
18044,14309
18044,14301
18046,14292
18048,14284
18051,14276
18054,14268
18059,14261
18064,14254
18069,14248
18075,14242
18082,14237
18090,14233
18097,14229
18105,14227
18113,14225
18122,14223
18130,14223
18332,14223
18340,14223
Z" /> 
<path style="fill:#000000; fill-opacity:1.0; 
stroke:#000000; stroke-width:0; stroke-opacity:1; 
stroke-linecap:round; stroke-linejoin:round;fill-rule:evenodd;"
d="M 18340,13603
18349,13605
18357,13607
18365,13609
18372,13613
18380,13617
18387,13622
18393,13628
18398,13634
18403,13641
18408,13648
18411,13656
18414,13664
18416,13672
18418,13681
18418,13689
18418,13861
18418,13870
18416,13878
18414,13886
18411,13894
18408,13902
18403,13909
18398,13916
18393,13922
18387,13928
18380,13933
18372,13937
18365,13941
18357,13944
18349,13946
18340,13947
18332,13947
18130,13947
18122,13947
18113,13946
18105,13944
18097,13941
18090,13937
18082,13933
18075,13928
18069,13922
18064,13916
18059,13909
18054,13902
18051,13894
18048,13886
18046,13878
18044,13870
18044,13861
18044,13689
18044,13681
18046,13672
18048,13664
18051,13656
18054,13648
18059,13641
18064,13634
18069,13628
18075,13622
18082,13617
18090,13613
18097,13609
18105,13607
18113,13605
18122,13603
18130,13603
18332,13603
18340,13603
Z" /> 
</g>
<g >
</g>
<g style="fill:#000000; fill-opacity:1.0; 
stroke:#000000; stroke-width:0; stroke-opacity:1; 
stroke-linecap:round; stroke-linejoin:round;">
<path style="fill:#000000; fill-opacity:1.0; 
stroke:#000000; stroke-width:0; stroke-opacity:1; 
stroke-linecap:round; stroke-linejoin:round;fill-rule:evenodd;"
d="M 19611,13059
19616,13060
19622,13062
19627,13064
19632,13066
19637,13069
19642,13072
19646,13076
19650,13080
19653,13085
19656,13090
19659,13095
19661,13100
19662,13106
19663,13112
19663,13117
19663,13253
19663,13259
19662,13264
19661,13270
19659,13275
19656,13280
19653,13285
19650,13290
19646,13294
19642,13298
19637,13301
19632,13304
19627,13307
19622,13309
19616,13310
19611,13311
19605,13311
19489,13311
19483,13311
19478,13310
19472,13309
19467,13307
19461,13304
19457,13301
19452,13298
19448,13294
19444,13290
19441,13285
19438,13280
19435,13275
19433,13270
19432,13264
19431,13259
19431,13253
19431,13117
19431,13112
19432,13106
19433,13100
19435,13095
19438,13090
19441,13085
19444,13080
19448,13076
19452,13072
19457,13069
19461,13066
19467,13064
19472,13062
19478,13060
19483,13059
19489,13059
19605,13059
19611,13059
Z" /> 
<path style="fill:#000000; fill-opacity:1.0; 
stroke:#000000; stroke-width:0; stroke-opacity:1; 
stroke-linecap:round; stroke-linejoin:round;fill-rule:evenodd;"
d="M 19229,13059
19234,13060
19240,13062
19245,13064
19250,13066
19255,13069
19260,13072
19264,13076
19268,13080
19271,13085
19274,13090
19277,13095
19279,13100
19280,13106
19281,13112
19281,13117
19281,13253
19281,13259
19280,13264
19279,13270
19277,13275
19274,13280
19271,13285
19268,13290
19264,13294
19260,13298
19255,13301
19250,13304
19245,13307
19240,13309
19234,13310
19229,13311
19223,13311
19107,13311
19101,13311
19096,13310
19090,13309
19085,13307
19080,13304
19075,13301
19070,13298
19066,13294
19062,13290
19059,13285
19056,13280
19053,13275
19051,13270
19050,13264
19049,13259
19049,13253
19049,13117
19049,13112
19050,13106
19051,13100
19053,13095
19056,13090
19059,13085
19062,13080
19066,13076
19070,13072
19075,13069
19080,13066
19085,13064
19090,13062
19096,13060
19101,13059
19107,13059
19223,13059
19229,13059
Z" /> 
</g>
<g >
</g>
<g style="fill:#000000; fill-opacity:1.0; 
stroke:#000000; stroke-width:0; stroke-opacity:1; 
stroke-linecap:round; stroke-linejoin:round;">
<path style="fill:#000000; fill-opacity:1.0; 
stroke:#000000; stroke-width:0; stroke-opacity:1; 
stroke-linecap:round; stroke-linejoin:round;fill-rule:evenodd;"
d="M 21954,9434
21959,9435
21965,9437
21970,9439
21975,9441
21980,9444
21985,9447
21989,9451
21993,9455
21996,9460
21999,9465
22002,9470
22004,9475
22005,9481
22006,9487
22006,9492
22006,9628
22006,9634
22005,9639
22004,9645
22002,9650
21999,9655
21996,9660
21993,9665
21989,9669
21985,9673
21980,9676
21975,9679
21970,9682
21965,9684
21959,9685
21954,9686
21948,9686
21832,9686
21826,9686
21821,9685
21815,9684
21810,9682
21805,9679
21800,9676
21795,9673
21791,9669
21787,9665
21784,9660
21781,9655
21778,9650
21776,9645
21775,9639
21774,9634
21774,9628
21774,9492
21774,9487
21775,9481
21776,9475
21778,9470
21781,9465
21784,9460
21787,9455
21791,9451
21795,9447
21800,9444
21805,9441
21810,9439
21815,9437
21821,9435
21826,9434
21832,9434
21948,9434
21954,9434
Z" /> 
<path style="fill:#000000; fill-opacity:1.0; 
stroke:#000000; stroke-width:0; stroke-opacity:1; 
stroke-linecap:round; stroke-linejoin:round;fill-rule:evenodd;"
d="M 22336,9434
22341,9435
22347,9437
22352,9439
22357,9441
22362,9444
22367,9447
22371,9451
22375,9455
22378,9460
22381,9465
22384,9470
22386,9475
22387,9481
22388,9487
22388,9492
22388,9628
22388,9634
22387,9639
22386,9645
22384,9650
22381,9655
22378,9660
22375,9665
22371,9669
22367,9673
22362,9676
22357,9679
22352,9682
22347,9684
22341,9685
22336,9686
22330,9686
22214,9686
22208,9686
22203,9685
22197,9684
22192,9682
22186,9679
22182,9676
22177,9673
22173,9669
22169,9665
22166,9660
22163,9655
22160,9650
22158,9645
22157,9639
22156,9634
22156,9628
22156,9492
22156,9487
22157,9481
22158,9475
22160,9470
22163,9465
22166,9460
22169,9455
22173,9451
22177,9447
22182,9444
22186,9441
22192,9439
22197,9437
22203,9435
22208,9434
22214,9434
22330,9434
22336,9434
Z" /> 
</g>
<g >
</g>
<g style="fill:#000000; fill-opacity:1.0; 
stroke:#000000; stroke-width:0; stroke-opacity:1; 
stroke-linecap:round; stroke-linejoin:round;">
<path style="fill:#000000; fill-opacity:1.0; 
stroke:#000000; stroke-width:0; stroke-opacity:1; 
stroke-linecap:round; stroke-linejoin:round;fill-rule:evenodd;"
d="M 20980,10778
20985,10779
20991,10781
20996,10782
21001,10785
21006,10788
21011,10791
21015,10795
21019,10799
21022,10804
21025,10809
21028,10814
21029,10819
21031,10825
21032,10830
21032,10836
21032,10952
21032,10958
21031,10964
21029,10969
21028,10974
21025,10980
21022,10985
21019,10989
21015,10993
21011,10997
21006,11001
21001,11003
20996,11006
20991,11008
20985,11009
20980,11010
20974,11010
20838,11010
20832,11010
20827,11009
20821,11008
20816,11006
20811,11003
20806,11001
20801,10997
20797,10993
20793,10989
20790,10985
20787,10980
20784,10974
20783,10969
20781,10964
20780,10958
20780,10952
20780,10836
20780,10830
20781,10825
20783,10819
20784,10814
20787,10809
20790,10804
20793,10799
20797,10795
20801,10791
20806,10788
20811,10785
20816,10782
20821,10781
20827,10779
20832,10778
20838,10778
20974,10778
20980,10778
Z" /> 
<path style="fill:#000000; fill-opacity:1.0; 
stroke:#000000; stroke-width:0; stroke-opacity:1; 
stroke-linecap:round; stroke-linejoin:round;fill-rule:evenodd;"
d="M 20980,11160
20985,11161
20991,11162
20996,11164
21001,11167
21006,11170
21011,11173
21015,11177
21019,11181
21022,11186
21025,11191
21028,11196
21029,11201
21031,11207
21032,11212
21032,11218
21032,11334
21032,11340
21031,11345
21029,11351
21028,11356
21025,11362
21022,11366
21019,11371
21015,11375
21011,11379
21006,11382
21001,11385
20996,11388
20991,11390
20985,11391
20980,11392
20974,11392
20838,11392
20832,11392
20827,11391
20821,11390
20816,11388
20811,11385
20806,11382
20801,11379
20797,11375
20793,11371
20790,11366
20787,11362
20784,11356
20783,11351
20781,11345
20780,11340
20780,11334
20780,11218
20780,11212
20781,11207
20783,11201
20784,11196
20787,11191
20790,11186
20793,11181
20797,11177
20801,11173
20806,11170
20811,11167
20816,11164
20821,11162
20827,11161
20832,11160
20838,11160
20974,11160
20980,11160
Z" /> 
</g>
<g >
</g>
<g style="fill:#000000; fill-opacity:1.0; 
stroke:#000000; stroke-width:0; stroke-opacity:1; 
stroke-linecap:round; stroke-linejoin:round;">
<path style="fill:#000000; fill-opacity:1.0; 
stroke:#000000; stroke-width:0; stroke-opacity:1; 
stroke-linecap:round; stroke-linejoin:round;fill-rule:evenodd;"
d="M 21980,10778
21985,10779
21991,10781
21996,10782
22001,10785
22006,10788
22011,10791
22015,10795
22019,10799
22022,10804
22025,10809
22028,10814
22029,10819
22031,10825
22032,10830
22032,10836
22032,10952
22032,10958
22031,10964
22029,10969
22028,10974
22025,10980
22022,10985
22019,10989
22015,10993
22011,10997
22006,11001
22001,11003
21996,11006
21991,11008
21985,11009
21980,11010
21974,11010
21838,11010
21832,11010
21827,11009
21821,11008
21816,11006
21811,11003
21806,11001
21801,10997
21797,10993
21793,10989
21790,10985
21787,10980
21784,10974
21783,10969
21781,10964
21780,10958
21780,10952
21780,10836
21780,10830
21781,10825
21783,10819
21784,10814
21787,10809
21790,10804
21793,10799
21797,10795
21801,10791
21806,10788
21811,10785
21816,10782
21821,10781
21827,10779
21832,10778
21838,10778
21974,10778
21980,10778
Z" /> 
<path style="fill:#000000; fill-opacity:1.0; 
stroke:#000000; stroke-width:0; stroke-opacity:1; 
stroke-linecap:round; stroke-linejoin:round;fill-rule:evenodd;"
d="M 21980,11160
21985,11161
21991,11162
21996,11164
22001,11167
22006,11170
22011,11173
22015,11177
22019,11181
22022,11186
22025,11191
22028,11196
22029,11201
22031,11207
22032,11212
22032,11218
22032,11334
22032,11340
22031,11345
22029,11351
22028,11356
22025,11362
22022,11366
22019,11371
22015,11375
22011,11379
22006,11382
22001,11385
21996,11388
21991,11390
21985,11391
21980,11392
21974,11392
21838,11392
21832,11392
21827,11391
21821,11390
21816,11388
21811,11385
21806,11382
21801,11379
21797,11375
21793,11371
21790,11366
21787,11362
21784,11356
21783,11351
21781,11345
21780,11340
21780,11334
21780,11218
21780,11212
21781,11207
21783,11201
21784,11196
21787,11191
21790,11186
21793,11181
21797,11177
21801,11173
21806,11170
21811,11167
21816,11164
21821,11162
21827,11161
21832,11160
21838,11160
21974,11160
21980,11160
Z" /> 
</g>
<g >
</g>
<g style="fill:#000000; fill-opacity:1.0; 
stroke:#000000; stroke-width:0; stroke-opacity:1; 
stroke-linecap:round; stroke-linejoin:round;">
<path style="fill:#000000; fill-opacity:1.0; 
stroke:#000000; stroke-width:0; stroke-opacity:1; 
stroke-linecap:round; stroke-linejoin:round;fill-rule:evenodd;"
d="M 21480,10778
21485,10779
21491,10781
21496,10782
21501,10785
21506,10788
21511,10791
21515,10795
21519,10799
21522,10804
21525,10809
21528,10814
21529,10819
21531,10825
21532,10830
21532,10836
21532,10952
21532,10958
21531,10964
21529,10969
21528,10974
21525,10980
21522,10985
21519,10989
21515,10993
21511,10997
21506,11001
21501,11003
21496,11006
21491,11008
21485,11009
21480,11010
21474,11010
21338,11010
21332,11010
21327,11009
21321,11008
21316,11006
21311,11003
21306,11001
21301,10997
21297,10993
21293,10989
21290,10985
21287,10980
21284,10974
21283,10969
21281,10964
21280,10958
21280,10952
21280,10836
21280,10830
21281,10825
21283,10819
21284,10814
21287,10809
21290,10804
21293,10799
21297,10795
21301,10791
21306,10788
21311,10785
21316,10782
21321,10781
21327,10779
21332,10778
21338,10778
21474,10778
21480,10778
Z" /> 
<path style="fill:#000000; fill-opacity:1.0; 
stroke:#000000; stroke-width:0; stroke-opacity:1; 
stroke-linecap:round; stroke-linejoin:round;fill-rule:evenodd;"
d="M 21480,11160
21485,11161
21491,11162
21496,11164
21501,11167
21506,11170
21511,11173
21515,11177
21519,11181
21522,11186
21525,11191
21528,11196
21529,11201
21531,11207
21532,11212
21532,11218
21532,11334
21532,11340
21531,11345
21529,11351
21528,11356
21525,11362
21522,11366
21519,11371
21515,11375
21511,11379
21506,11382
21501,11385
21496,11388
21491,11390
21485,11391
21480,11392
21474,11392
21338,11392
21332,11392
21327,11391
21321,11390
21316,11388
21311,11385
21306,11382
21301,11379
21297,11375
21293,11371
21290,11366
21287,11362
21284,11356
21283,11351
21281,11345
21280,11340
21280,11334
21280,11218
21280,11212
21281,11207
21283,11201
21284,11196
21287,11191
21290,11186
21293,11181
21297,11177
21301,11173
21306,11170
21311,11167
21316,11164
21321,11162
21327,11161
21332,11160
21338,11160
21474,11160
21480,11160
Z" /> 
</g>
<g >
</g>
<g style="fill:#000000; fill-opacity:1.0; 
stroke:#000000; stroke-width:0; stroke-opacity:1; 
stroke-linecap:round; stroke-linejoin:round;">
<path style="fill:#000000; fill-opacity:1.0; 
stroke:#000000; stroke-width:0; stroke-opacity:1; 
stroke-linecap:round; stroke-linejoin:round;fill-rule:evenodd;"
d="M 21980,9878
21985,9879
21991,9881
21996,9882
22001,9885
22006,9888
22011,9891
22015,9895
22019,9899
22022,9904
22025,9909
22028,9914
22029,9919
22031,9925
22032,9930
22032,9936
22032,10052
22032,10058
22031,10064
22029,10069
22028,10074
22025,10080
22022,10085
22019,10089
22015,10093
22011,10097
22006,10101
22001,10103
21996,10106
21991,10108
21985,10109
21980,10110
21974,10110
21838,10110
21832,10110
21827,10109
21821,10108
21816,10106
21811,10103
21806,10101
21801,10097
21797,10093
21793,10089
21790,10085
21787,10080
21784,10074
21783,10069
21781,10064
21780,10058
21780,10052
21780,9936
21780,9930
21781,9925
21783,9919
21784,9914
21787,9909
21790,9904
21793,9899
21797,9895
21801,9891
21806,9888
21811,9885
21816,9882
21821,9881
21827,9879
21832,9878
21838,9878
21974,9878
21980,9878
Z" /> 
<path style="fill:#000000; fill-opacity:1.0; 
stroke:#000000; stroke-width:0; stroke-opacity:1; 
stroke-linecap:round; stroke-linejoin:round;fill-rule:evenodd;"
d="M 21980,10260
21985,10261
21991,10262
21996,10264
22001,10267
22006,10270
22011,10273
22015,10277
22019,10281
22022,10286
22025,10291
22028,10296
22029,10301
22031,10307
22032,10312
22032,10318
22032,10434
22032,10440
22031,10445
22029,10451
22028,10456
22025,10462
22022,10466
22019,10471
22015,10475
22011,10479
22006,10482
22001,10485
21996,10488
21991,10490
21985,10491
21980,10492
21974,10492
21838,10492
21832,10492
21827,10491
21821,10490
21816,10488
21811,10485
21806,10482
21801,10479
21797,10475
21793,10471
21790,10466
21787,10462
21784,10456
21783,10451
21781,10445
21780,10440
21780,10434
21780,10318
21780,10312
21781,10307
21783,10301
21784,10296
21787,10291
21790,10286
21793,10281
21797,10277
21801,10273
21806,10270
21811,10267
21816,10264
21821,10262
21827,10261
21832,10260
21838,10260
21974,10260
21980,10260
Z" /> 
</g>
<g >
</g>
<g style="fill:#000000; fill-opacity:1.0; 
stroke:#000000; stroke-width:0; stroke-opacity:1; 
stroke-linecap:round; stroke-linejoin:round;">
<path style="fill:#000000; fill-opacity:1.0; 
stroke:#000000; stroke-width:0; stroke-opacity:1; 
stroke-linecap:round; stroke-linejoin:round;fill-rule:evenodd;"
d="M 20780,7853
20785,7854
20791,7856
20796,7857
20801,7860
20806,7863
20811,7866
20815,7870
20819,7874
20822,7879
20825,7884
20828,7889
20829,7894
20831,7900
20832,7905
20832,7911
20832,8027
20832,8033
20831,8039
20829,8044
20828,8049
20825,8055
20822,8060
20819,8064
20815,8068
20811,8072
20806,8076
20801,8078
20796,8081
20791,8083
20785,8084
20780,8085
20774,8085
20638,8085
20632,8085
20627,8084
20621,8083
20616,8081
20611,8078
20606,8076
20601,8072
20597,8068
20593,8064
20590,8060
20587,8055
20584,8049
20583,8044
20581,8039
20580,8033
20580,8027
20580,7911
20580,7905
20581,7900
20583,7894
20584,7889
20587,7884
20590,7879
20593,7874
20597,7870
20601,7866
20606,7863
20611,7860
20616,7857
20621,7856
20627,7854
20632,7853
20638,7853
20774,7853
20780,7853
Z" /> 
<path style="fill:#000000; fill-opacity:1.0; 
stroke:#000000; stroke-width:0; stroke-opacity:1; 
stroke-linecap:round; stroke-linejoin:round;fill-rule:evenodd;"
d="M 20780,8235
20785,8236
20791,8237
20796,8239
20801,8242
20806,8245
20811,8248
20815,8252
20819,8256
20822,8261
20825,8266
20828,8271
20829,8276
20831,8282
20832,8287
20832,8293
20832,8409
20832,8415
20831,8420
20829,8426
20828,8431
20825,8437
20822,8441
20819,8446
20815,8450
20811,8454
20806,8457
20801,8460
20796,8463
20791,8465
20785,8466
20780,8467
20774,8467
20638,8467
20632,8467
20627,8466
20621,8465
20616,8463
20611,8460
20606,8457
20601,8454
20597,8450
20593,8446
20590,8441
20587,8437
20584,8431
20583,8426
20581,8420
20580,8415
20580,8409
20580,8293
20580,8287
20581,8282
20583,8276
20584,8271
20587,8266
20590,8261
20593,8256
20597,8252
20601,8248
20606,8245
20611,8242
20616,8239
20621,8237
20627,8236
20632,8235
20638,8235
20774,8235
20780,8235
Z" /> 
</g>
<g >
</g>
<g style="fill:#000000; fill-opacity:1.0; 
stroke:#000000; stroke-width:0; stroke-opacity:1; 
stroke-linecap:round; stroke-linejoin:round;">
<path style="fill:#000000; fill-opacity:1.0; 
stroke:#000000; stroke-width:0; stroke-opacity:1; 
stroke-linecap:round; stroke-linejoin:round;fill-rule:evenodd;"
d="M 17305,7760
17310,7761
17316,7762
17321,7764
17326,7767
17331,7770
17336,7773
17340,7777
17344,7781
17347,7786
17350,7791
17353,7796
17354,7801
17356,7807
17357,7812
17357,7818
17357,7934
17357,7940
17356,7945
17354,7951
17353,7956
17350,7962
17347,7966
17344,7971
17340,7975
17336,7979
17331,7982
17326,7985
17321,7988
17316,7990
17310,7991
17305,7992
17299,7992
17163,7992
17157,7992
17152,7991
17146,7990
17141,7988
17136,7985
17131,7982
17126,7979
17122,7975
17118,7971
17115,7966
17112,7962
17109,7956
17108,7951
17106,7945
17105,7940
17105,7934
17105,7818
17105,7812
17106,7807
17108,7801
17109,7796
17112,7791
17115,7786
17118,7781
17122,7777
17126,7773
17131,7770
17136,7767
17141,7764
17146,7762
17152,7761
17157,7760
17163,7760
17299,7760
17305,7760
Z" /> 
<path style="fill:#000000; fill-opacity:1.0; 
stroke:#000000; stroke-width:0; stroke-opacity:1; 
stroke-linecap:round; stroke-linejoin:round;fill-rule:evenodd;"
d="M 17305,7378
17310,7379
17316,7381
17321,7382
17326,7385
17331,7388
17336,7391
17340,7395
17344,7399
17347,7404
17350,7409
17353,7414
17354,7419
17356,7425
17357,7430
17357,7436
17357,7552
17357,7558
17356,7564
17354,7569
17353,7574
17350,7580
17347,7585
17344,7589
17340,7593
17336,7597
17331,7601
17326,7603
17321,7606
17316,7608
17310,7609
17305,7610
17299,7610
17163,7610
17157,7610
17152,7609
17146,7608
17141,7606
17136,7603
17131,7601
17126,7597
17122,7593
17118,7589
17115,7585
17112,7580
17109,7574
17108,7569
17106,7564
17105,7558
17105,7552
17105,7436
17105,7430
17106,7425
17108,7419
17109,7414
17112,7409
17115,7404
17118,7399
17122,7395
17126,7391
17131,7388
17136,7385
17141,7382
17146,7381
17152,7379
17157,7378
17163,7378
17299,7378
17305,7378
Z" /> 
</g>
<g >
</g>
<g style="fill:#000000; fill-opacity:1.0; 
stroke:#000000; stroke-width:0; stroke-opacity:1; 
stroke-linecap:round; stroke-linejoin:round;">
<path style="fill:#000000; fill-opacity:1.0; 
stroke:#000000; stroke-width:0; stroke-opacity:1; 
stroke-linecap:round; stroke-linejoin:round;fill-rule:evenodd;"
d="M 22054,12184
22059,12185
22065,12187
22070,12189
22075,12191
22080,12194
22085,12197
22089,12201
22093,12205
22096,12210
22099,12215
22102,12220
22104,12225
22105,12231
22106,12237
22106,12242
22106,12378
22106,12384
22105,12389
22104,12395
22102,12400
22099,12405
22096,12410
22093,12415
22089,12419
22085,12423
22080,12426
22075,12429
22070,12432
22065,12434
22059,12435
22054,12436
22048,12436
21932,12436
21926,12436
21921,12435
21915,12434
21910,12432
21905,12429
21900,12426
21895,12423
21891,12419
21887,12415
21884,12410
21881,12405
21878,12400
21876,12395
21875,12389
21874,12384
21874,12378
21874,12242
21874,12237
21875,12231
21876,12225
21878,12220
21881,12215
21884,12210
21887,12205
21891,12201
21895,12197
21900,12194
21905,12191
21910,12189
21915,12187
21921,12185
21926,12184
21932,12184
22048,12184
22054,12184
Z" /> 
<path style="fill:#000000; fill-opacity:1.0; 
stroke:#000000; stroke-width:0; stroke-opacity:1; 
stroke-linecap:round; stroke-linejoin:round;fill-rule:evenodd;"
d="M 22436,12184
22441,12185
22447,12187
22452,12189
22457,12191
22462,12194
22467,12197
22471,12201
22475,12205
22478,12210
22481,12215
22484,12220
22486,12225
22487,12231
22488,12237
22488,12242
22488,12378
22488,12384
22487,12389
22486,12395
22484,12400
22481,12405
22478,12410
22475,12415
22471,12419
22467,12423
22462,12426
22457,12429
22452,12432
22447,12434
22441,12435
22436,12436
22430,12436
22314,12436
22308,12436
22303,12435
22297,12434
22292,12432
22286,12429
22282,12426
22277,12423
22273,12419
22269,12415
22266,12410
22263,12405
22260,12400
22258,12395
22257,12389
22256,12384
22256,12378
22256,12242
22256,12237
22257,12231
22258,12225
22260,12220
22263,12215
22266,12210
22269,12205
22273,12201
22277,12197
22282,12194
22286,12191
22292,12189
22297,12187
22303,12185
22308,12184
22314,12184
22430,12184
22436,12184
Z" /> 
</g>
<g >
</g>
<g style="fill:#000000; fill-opacity:1.0; 
stroke:#000000; stroke-width:0; stroke-opacity:1; 
stroke-linecap:round; stroke-linejoin:round;">
<path style="fill:#000000; fill-opacity:1.0; 
stroke:#000000; stroke-width:0; stroke-opacity:1; 
stroke-linecap:round; stroke-linejoin:round;fill-rule:evenodd;"
d="M 21879,12634
21884,12635
21890,12637
21895,12639
21900,12641
21905,12644
21910,12647
21914,12651
21918,12655
21921,12660
21924,12665
21927,12670
21929,12675
21930,12681
21931,12687
21931,12692
21931,12828
21931,12834
21930,12839
21929,12845
21927,12850
21924,12855
21921,12860
21918,12865
21914,12869
21910,12873
21905,12876
21900,12879
21895,12882
21890,12884
21884,12885
21879,12886
21873,12886
21757,12886
21751,12886
21746,12885
21740,12884
21735,12882
21730,12879
21725,12876
21720,12873
21716,12869
21712,12865
21709,12860
21706,12855
21703,12850
21701,12845
21700,12839
21699,12834
21699,12828
21699,12692
21699,12687
21700,12681
21701,12675
21703,12670
21706,12665
21709,12660
21712,12655
21716,12651
21720,12647
21725,12644
21730,12641
21735,12639
21740,12637
21746,12635
21751,12634
21757,12634
21873,12634
21879,12634
Z" /> 
<path style="fill:#000000; fill-opacity:1.0; 
stroke:#000000; stroke-width:0; stroke-opacity:1; 
stroke-linecap:round; stroke-linejoin:round;fill-rule:evenodd;"
d="M 22261,12634
22266,12635
22272,12637
22277,12639
22282,12641
22287,12644
22292,12647
22296,12651
22300,12655
22303,12660
22306,12665
22309,12670
22311,12675
22312,12681
22313,12687
22313,12692
22313,12828
22313,12834
22312,12839
22311,12845
22309,12850
22306,12855
22303,12860
22300,12865
22296,12869
22292,12873
22287,12876
22282,12879
22277,12882
22272,12884
22266,12885
22261,12886
22255,12886
22139,12886
22133,12886
22128,12885
22122,12884
22117,12882
22111,12879
22107,12876
22102,12873
22098,12869
22094,12865
22091,12860
22088,12855
22085,12850
22083,12845
22082,12839
22081,12834
22081,12828
22081,12692
22081,12687
22082,12681
22083,12675
22085,12670
22088,12665
22091,12660
22094,12655
22098,12651
22102,12647
22107,12644
22111,12641
22117,12639
22122,12637
22128,12635
22133,12634
22139,12634
22255,12634
22261,12634
Z" /> 
</g>
<g >
</g>
<g style="fill:#000000; fill-opacity:1.0; 
stroke:#000000; stroke-width:0; stroke-opacity:1; 
stroke-linecap:round; stroke-linejoin:round;">
<path style="fill:#000000; fill-opacity:1.0; 
stroke:#000000; stroke-width:0; stroke-opacity:1; 
stroke-linecap:round; stroke-linejoin:round;fill-rule:evenodd;"
d="M 20580,11160
20585,11161
20591,11162
20596,11164
20601,11167
20606,11170
20611,11173
20615,11177
20619,11181
20622,11186
20625,11191
20628,11196
20629,11201
20631,11207
20632,11212
20632,11218
20632,11334
20632,11340
20631,11345
20629,11351
20628,11356
20625,11362
20622,11366
20619,11371
20615,11375
20611,11379
20606,11382
20601,11385
20596,11388
20591,11390
20585,11391
20580,11392
20574,11392
20438,11392
20432,11392
20427,11391
20421,11390
20416,11388
20411,11385
20406,11382
20401,11379
20397,11375
20393,11371
20390,11366
20387,11362
20384,11356
20383,11351
20381,11345
20380,11340
20380,11334
20380,11218
20380,11212
20381,11207
20383,11201
20384,11196
20387,11191
20390,11186
20393,11181
20397,11177
20401,11173
20406,11170
20411,11167
20416,11164
20421,11162
20427,11161
20432,11160
20438,11160
20574,11160
20580,11160
Z" /> 
<path style="fill:#000000; fill-opacity:1.0; 
stroke:#000000; stroke-width:0; stroke-opacity:1; 
stroke-linecap:round; stroke-linejoin:round;fill-rule:evenodd;"
d="M 20580,10778
20585,10779
20591,10781
20596,10782
20601,10785
20606,10788
20611,10791
20615,10795
20619,10799
20622,10804
20625,10809
20628,10814
20629,10819
20631,10825
20632,10830
20632,10836
20632,10952
20632,10958
20631,10964
20629,10969
20628,10974
20625,10980
20622,10985
20619,10989
20615,10993
20611,10997
20606,11001
20601,11003
20596,11006
20591,11008
20585,11009
20580,11010
20574,11010
20438,11010
20432,11010
20427,11009
20421,11008
20416,11006
20411,11003
20406,11001
20401,10997
20397,10993
20393,10989
20390,10985
20387,10980
20384,10974
20383,10969
20381,10964
20380,10958
20380,10952
20380,10836
20380,10830
20381,10825
20383,10819
20384,10814
20387,10809
20390,10804
20393,10799
20397,10795
20401,10791
20406,10788
20411,10785
20416,10782
20421,10781
20427,10779
20432,10778
20438,10778
20574,10778
20580,10778
Z" /> 
</g>
<g >
</g>
<g style="fill:#000000; fill-opacity:1.0; 
stroke:#000000; stroke-width:0; stroke-opacity:1; 
stroke-linecap:round; stroke-linejoin:round;">
<path style="fill:#000000; fill-opacity:1.0; 
stroke:#000000; stroke-width:0; stroke-opacity:1; 
stroke-linecap:round; stroke-linejoin:round;fill-rule:evenodd;"
d="M 17679,11491
19409,11491
19409,12056
17679,12056
17679,11491
Z" /> 
<path style="fill:#000000; fill-opacity:1.0; 
stroke:#000000; stroke-width:0; stroke-opacity:1; 
stroke-linecap:round; stroke-linejoin:round;fill-rule:evenodd;"
d="M 17679,10326
19409,10326
19409,10891
17679,10891
17679,10326
Z" /> 
</g>
<g >
</g>
<g style="fill:#000000; fill-opacity:1.0; 
stroke:#000000; stroke-width:0; stroke-opacity:1; 
stroke-linecap:round; stroke-linejoin:round;">
<path style="fill:#000000; fill-opacity:1.0; 
stroke:#000000; stroke-width:0; stroke-opacity:1; 
stroke-linecap:round; stroke-linejoin:round;fill-rule:evenodd;"
d="M 17666,8385
19396,8385
19396,8950
17666,8950
17666,8385
Z" /> 
<path style="fill:#000000; fill-opacity:1.0; 
stroke:#000000; stroke-width:0; stroke-opacity:1; 
stroke-linecap:round; stroke-linejoin:round;fill-rule:evenodd;"
d="M 17666,7220
19396,7220
19396,7785
17666,7785
17666,7220
Z" /> 
</g>
<g >
</g>
<g style="fill:#000000; fill-opacity:1.0; 
stroke:#000000; stroke-width:0; stroke-opacity:1; 
stroke-linecap:round; stroke-linejoin:round;">
<path style="fill:#000000; fill-opacity:1.0; 
stroke:#000000; stroke-width:0; stroke-opacity:1; 
stroke-linecap:round; stroke-linejoin:round;fill-rule:evenodd;"
d="M 17340,9823
17349,9825
17357,9827
17365,9829
17372,9833
17380,9837
17387,9842
17393,9848
17398,9854
17403,9861
17408,9868
17411,9876
17414,9884
17416,9892
17418,9901
17418,9909
17418,10081
17418,10090
17416,10098
17414,10106
17411,10114
17408,10122
17403,10129
17398,10136
17393,10142
17387,10148
17380,10153
17372,10157
17365,10161
17357,10164
17349,10166
17340,10167
17332,10167
17130,10167
17122,10167
17113,10166
17105,10164
17097,10161
17090,10157
17082,10153
17075,10148
17069,10142
17064,10136
17059,10129
17054,10122
17051,10114
17048,10106
17046,10098
17044,10090
17044,10081
17044,9909
17044,9901
17046,9892
17048,9884
17051,9876
17054,9868
17059,9861
17064,9854
17069,9848
17075,9842
17082,9837
17090,9833
17097,9829
17105,9827
17113,9825
17122,9823
17130,9823
17332,9823
17340,9823
Z" /> 
<path style="fill:#000000; fill-opacity:1.0; 
stroke:#000000; stroke-width:0; stroke-opacity:1; 
stroke-linecap:round; stroke-linejoin:round;fill-rule:evenodd;"
d="M 17340,9203
17349,9205
17357,9207
17365,9209
17372,9213
17380,9217
17387,9222
17393,9228
17398,9234
17403,9241
17408,9248
17411,9256
17414,9264
17416,9272
17418,9281
17418,9289
17418,9461
17418,9470
17416,9478
17414,9486
17411,9494
17408,9502
17403,9509
17398,9516
17393,9522
17387,9528
17380,9533
17372,9537
17365,9541
17357,9544
17349,9546
17340,9547
17332,9547
17130,9547
17122,9547
17113,9546
17105,9544
17097,9541
17090,9537
17082,9533
17075,9528
17069,9522
17064,9516
17059,9509
17054,9502
17051,9494
17048,9486
17046,9478
17044,9470
17044,9461
17044,9289
17044,9281
17046,9272
17048,9264
17051,9256
17054,9248
17059,9241
17064,9234
17069,9228
17075,9222
17082,9217
17090,9213
17097,9209
17105,9207
17113,9205
17122,9203
17130,9203
17332,9203
17340,9203
Z" /> 
</g>
<g >
</g>
<g style="fill:#000000; fill-opacity:1.0; 
stroke:#000000; stroke-width:0; stroke-opacity:1; 
stroke-linecap:round; stroke-linejoin:round;">
<path style="fill:#000000; fill-opacity:1.0; 
stroke:#000000; stroke-width:0; stroke-opacity:1; 
stroke-linecap:round; stroke-linejoin:round;fill-rule:evenodd;"
d="M 19880,11078
19885,11079
19891,11081
19896,11082
19901,11085
19906,11088
19911,11091
19915,11095
19919,11099
19922,11104
19925,11109
19928,11114
19929,11119
19931,11125
19932,11130
19932,11136
19932,11252
19932,11258
19931,11264
19929,11269
19928,11274
19925,11280
19922,11285
19919,11289
19915,11293
19911,11297
19906,11301
19901,11303
19896,11306
19891,11308
19885,11309
19880,11310
19874,11310
19738,11310
19732,11310
19727,11309
19721,11308
19716,11306
19711,11303
19706,11301
19701,11297
19697,11293
19693,11289
19690,11285
19687,11280
19684,11274
19683,11269
19681,11264
19680,11258
19680,11252
19680,11136
19680,11130
19681,11125
19683,11119
19684,11114
19687,11109
19690,11104
19693,11099
19697,11095
19701,11091
19706,11088
19711,11085
19716,11082
19721,11081
19727,11079
19732,11078
19738,11078
19874,11078
19880,11078
Z" /> 
<path style="fill:#000000; fill-opacity:1.0; 
stroke:#000000; stroke-width:0; stroke-opacity:1; 
stroke-linecap:round; stroke-linejoin:round;fill-rule:evenodd;"
d="M 19880,11460
19885,11461
19891,11462
19896,11464
19901,11467
19906,11470
19911,11473
19915,11477
19919,11481
19922,11486
19925,11491
19928,11496
19929,11501
19931,11507
19932,11512
19932,11518
19932,11634
19932,11640
19931,11645
19929,11651
19928,11656
19925,11662
19922,11666
19919,11671
19915,11675
19911,11679
19906,11682
19901,11685
19896,11688
19891,11690
19885,11691
19880,11692
19874,11692
19738,11692
19732,11692
19727,11691
19721,11690
19716,11688
19711,11685
19706,11682
19701,11679
19697,11675
19693,11671
19690,11666
19687,11662
19684,11656
19683,11651
19681,11645
19680,11640
19680,11634
19680,11518
19680,11512
19681,11507
19683,11501
19684,11496
19687,11491
19690,11486
19693,11481
19697,11477
19701,11473
19706,11470
19711,11467
19716,11464
19721,11462
19727,11461
19732,11460
19738,11460
19874,11460
19880,11460
Z" /> 
</g>
<g >
</g>
<g style="fill:#000000; fill-opacity:1.0; 
stroke:#000000; stroke-width:0; stroke-opacity:1; 
stroke-linecap:round; stroke-linejoin:round;">
<path style="fill:#000000; fill-opacity:1.0; 
stroke:#000000; stroke-width:0; stroke-opacity:1; 
stroke-linecap:round; stroke-linejoin:round;fill-rule:evenodd;"
d="M 21205,7853
21210,7854
21216,7856
21221,7857
21226,7860
21231,7863
21236,7866
21240,7870
21244,7874
21247,7879
21250,7884
21253,7889
21254,7894
21256,7900
21257,7905
21257,7911
21257,8027
21257,8033
21256,8039
21254,8044
21253,8049
21250,8055
21247,8060
21244,8064
21240,8068
21236,8072
21231,8076
21226,8078
21221,8081
21216,8083
21210,8084
21205,8085
21199,8085
21063,8085
21057,8085
21052,8084
21046,8083
21041,8081
21036,8078
21031,8076
21026,8072
21022,8068
21018,8064
21015,8060
21012,8055
21009,8049
21008,8044
21006,8039
21005,8033
21005,8027
21005,7911
21005,7905
21006,7900
21008,7894
21009,7889
21012,7884
21015,7879
21018,7874
21022,7870
21026,7866
21031,7863
21036,7860
21041,7857
21046,7856
21052,7854
21057,7853
21063,7853
21199,7853
21205,7853
Z" /> 
<path style="fill:#000000; fill-opacity:1.0; 
stroke:#000000; stroke-width:0; stroke-opacity:1; 
stroke-linecap:round; stroke-linejoin:round;fill-rule:evenodd;"
d="M 21205,8235
21210,8236
21216,8237
21221,8239
21226,8242
21231,8245
21236,8248
21240,8252
21244,8256
21247,8261
21250,8266
21253,8271
21254,8276
21256,8282
21257,8287
21257,8293
21257,8409
21257,8415
21256,8420
21254,8426
21253,8431
21250,8437
21247,8441
21244,8446
21240,8450
21236,8454
21231,8457
21226,8460
21221,8463
21216,8465
21210,8466
21205,8467
21199,8467
21063,8467
21057,8467
21052,8466
21046,8465
21041,8463
21036,8460
21031,8457
21026,8454
21022,8450
21018,8446
21015,8441
21012,8437
21009,8431
21008,8426
21006,8420
21005,8415
21005,8409
21005,8293
21005,8287
21006,8282
21008,8276
21009,8271
21012,8266
21015,8261
21018,8256
21022,8252
21026,8248
21031,8245
21036,8242
21041,8239
21046,8237
21052,8236
21057,8235
21063,8235
21199,8235
21205,8235
Z" /> 
</g>
<g >
</g>
<g style="fill:#000000; fill-opacity:1.0; 
stroke:#000000; stroke-width:0; stroke-opacity:1; 
stroke-linecap:round; stroke-linejoin:round;">
<path style="fill:#000000; fill-opacity:1.0; 
stroke:#000000; stroke-width:0; stroke-opacity:1; 
stroke-linecap:round; stroke-linejoin:round;fill-rule:evenodd;"
d="M 17305,6935
17310,6936
17316,6937
17321,6939
17326,6942
17331,6945
17336,6948
17340,6952
17344,6956
17347,6961
17350,6966
17353,6971
17354,6976
17356,6982
17357,6987
17357,6993
17357,7109
17357,7115
17356,7120
17354,7126
17353,7131
17350,7137
17347,7141
17344,7146
17340,7150
17336,7154
17331,7157
17326,7160
17321,7163
17316,7165
17310,7166
17305,7167
17299,7167
17163,7167
17157,7167
17152,7166
17146,7165
17141,7163
17136,7160
17131,7157
17126,7154
17122,7150
17118,7146
17115,7141
17112,7137
17109,7131
17108,7126
17106,7120
17105,7115
17105,7109
17105,6993
17105,6987
17106,6982
17108,6976
17109,6971
17112,6966
17115,6961
17118,6956
17122,6952
17126,6948
17131,6945
17136,6942
17141,6939
17146,6937
17152,6936
17157,6935
17163,6935
17299,6935
17305,6935
Z" /> 
<path style="fill:#000000; fill-opacity:1.0; 
stroke:#000000; stroke-width:0; stroke-opacity:1; 
stroke-linecap:round; stroke-linejoin:round;fill-rule:evenodd;"
d="M 17305,6553
17310,6554
17316,6556
17321,6557
17326,6560
17331,6563
17336,6566
17340,6570
17344,6574
17347,6579
17350,6584
17353,6589
17354,6594
17356,6600
17357,6605
17357,6611
17357,6727
17357,6733
17356,6739
17354,6744
17353,6749
17350,6755
17347,6760
17344,6764
17340,6768
17336,6772
17331,6776
17326,6778
17321,6781
17316,6783
17310,6784
17305,6785
17299,6785
17163,6785
17157,6785
17152,6784
17146,6783
17141,6781
17136,6778
17131,6776
17126,6772
17122,6768
17118,6764
17115,6760
17112,6755
17109,6749
17108,6744
17106,6739
17105,6733
17105,6727
17105,6611
17105,6605
17106,6600
17108,6594
17109,6589
17112,6584
17115,6579
17118,6574
17122,6570
17126,6566
17131,6563
17136,6560
17141,6557
17146,6556
17152,6554
17157,6553
17163,6553
17299,6553
17305,6553
Z" /> 
</g>
<g >
</g>
<g style="fill:#000000; fill-opacity:1.0; 
stroke:#000000; stroke-width:0; stroke-opacity:1; 
stroke-linecap:round; stroke-linejoin:round;">
<path style="fill:#000000; fill-opacity:1.0; 
stroke:#000000; stroke-width:0; stroke-opacity:1; 
stroke-linecap:round; stroke-linejoin:round;fill-rule:evenodd;"
d="M 18661,13059
18666,13060
18672,13062
18677,13064
18682,13066
18687,13069
18692,13072
18696,13076
18700,13080
18703,13085
18706,13090
18709,13095
18711,13100
18712,13106
18713,13112
18713,13117
18713,13253
18713,13259
18712,13264
18711,13270
18709,13275
18706,13280
18703,13285
18700,13290
18696,13294
18692,13298
18687,13301
18682,13304
18677,13307
18672,13309
18666,13310
18661,13311
18655,13311
18539,13311
18533,13311
18528,13310
18522,13309
18517,13307
18511,13304
18507,13301
18502,13298
18498,13294
18494,13290
18491,13285
18488,13280
18485,13275
18483,13270
18482,13264
18481,13259
18481,13253
18481,13117
18481,13112
18482,13106
18483,13100
18485,13095
18488,13090
18491,13085
18494,13080
18498,13076
18502,13072
18507,13069
18511,13066
18517,13064
18522,13062
18528,13060
18533,13059
18539,13059
18655,13059
18661,13059
Z" /> 
<path style="fill:#000000; fill-opacity:1.0; 
stroke:#000000; stroke-width:0; stroke-opacity:1; 
stroke-linecap:round; stroke-linejoin:round;fill-rule:evenodd;"
d="M 18279,13059
18284,13060
18290,13062
18295,13064
18300,13066
18305,13069
18310,13072
18314,13076
18318,13080
18321,13085
18324,13090
18327,13095
18329,13100
18330,13106
18331,13112
18331,13117
18331,13253
18331,13259
18330,13264
18329,13270
18327,13275
18324,13280
18321,13285
18318,13290
18314,13294
18310,13298
18305,13301
18300,13304
18295,13307
18290,13309
18284,13310
18279,13311
18273,13311
18157,13311
18151,13311
18146,13310
18140,13309
18135,13307
18130,13304
18125,13301
18120,13298
18116,13294
18112,13290
18109,13285
18106,13280
18103,13275
18101,13270
18100,13264
18099,13259
18099,13253
18099,13117
18099,13112
18100,13106
18101,13100
18103,13095
18106,13090
18109,13085
18112,13080
18116,13076
18120,13072
18125,13069
18130,13066
18135,13064
18140,13062
18146,13060
18151,13059
18157,13059
18273,13059
18279,13059
Z" /> 
</g>
<g >
</g>
<g style="fill:#000000; fill-opacity:1.0; 
stroke:#000000; stroke-width:0; stroke-opacity:1; 
stroke-linecap:round; stroke-linejoin:round;">
<path style="fill:#000000; fill-opacity:1.0; 
stroke:#000000; stroke-width:0; stroke-opacity:1; 
stroke-linecap:round; stroke-linejoin:round;fill-rule:evenodd;"
d="M 20205,7853
20210,7854
20216,7856
20221,7857
20226,7860
20231,7863
20236,7866
20240,7870
20244,7874
20247,7879
20250,7884
20253,7889
20254,7894
20256,7900
20257,7905
20257,7911
20257,8027
20257,8033
20256,8039
20254,8044
20253,8049
20250,8055
20247,8060
20244,8064
20240,8068
20236,8072
20231,8076
20226,8078
20221,8081
20216,8083
20210,8084
20205,8085
20199,8085
20063,8085
20057,8085
20052,8084
20046,8083
20041,8081
20036,8078
20031,8076
20026,8072
20022,8068
20018,8064
20015,8060
20012,8055
20009,8049
20008,8044
20006,8039
20005,8033
20005,8027
20005,7911
20005,7905
20006,7900
20008,7894
20009,7889
20012,7884
20015,7879
20018,7874
20022,7870
20026,7866
20031,7863
20036,7860
20041,7857
20046,7856
20052,7854
20057,7853
20063,7853
20199,7853
20205,7853
Z" /> 
<path style="fill:#000000; fill-opacity:1.0; 
stroke:#000000; stroke-width:0; stroke-opacity:1; 
stroke-linecap:round; stroke-linejoin:round;fill-rule:evenodd;"
d="M 20205,8235
20210,8236
20216,8237
20221,8239
20226,8242
20231,8245
20236,8248
20240,8252
20244,8256
20247,8261
20250,8266
20253,8271
20254,8276
20256,8282
20257,8287
20257,8293
20257,8409
20257,8415
20256,8420
20254,8426
20253,8431
20250,8437
20247,8441
20244,8446
20240,8450
20236,8454
20231,8457
20226,8460
20221,8463
20216,8465
20210,8466
20205,8467
20199,8467
20063,8467
20057,8467
20052,8466
20046,8465
20041,8463
20036,8460
20031,8457
20026,8454
20022,8450
20018,8446
20015,8441
20012,8437
20009,8431
20008,8426
20006,8420
20005,8415
20005,8409
20005,8293
20005,8287
20006,8282
20008,8276
20009,8271
20012,8266
20015,8261
20018,8256
20022,8252
20026,8248
20031,8245
20036,8242
20041,8239
20046,8237
20052,8236
20057,8235
20063,8235
20199,8235
20205,8235
Z" /> 
</g>
<g >
</g>
<g style="fill:#000000; fill-opacity:1.0; 
stroke:#000000; stroke-width:0; stroke-opacity:1; 
stroke-linecap:round; stroke-linejoin:round;">
<path style="fill:#000000; fill-opacity:1.0; 
stroke:#000000; stroke-width:0; stroke-opacity:1; 
stroke-linecap:round; stroke-linejoin:round;fill-rule:evenodd;"
d="M 20980,11935
20985,11936
20991,11937
20996,11939
21001,11942
21006,11945
21011,11948
21015,11952
21019,11956
21022,11961
21025,11966
21028,11971
21029,11976
21031,11982
21032,11987
21032,11993
21032,12109
21032,12115
21031,12120
21029,12126
21028,12131
21025,12137
21022,12141
21019,12146
21015,12150
21011,12154
21006,12157
21001,12160
20996,12163
20991,12165
20985,12166
20980,12167
20974,12167
20838,12167
20832,12167
20827,12166
20821,12165
20816,12163
20811,12160
20806,12157
20801,12154
20797,12150
20793,12146
20790,12141
20787,12137
20784,12131
20783,12126
20781,12120
20780,12115
20780,12109
20780,11993
20780,11987
20781,11982
20783,11976
20784,11971
20787,11966
20790,11961
20793,11956
20797,11952
20801,11948
20806,11945
20811,11942
20816,11939
20821,11937
20827,11936
20832,11935
20838,11935
20974,11935
20980,11935
Z" /> 
<path style="fill:#000000; fill-opacity:1.0; 
stroke:#000000; stroke-width:0; stroke-opacity:1; 
stroke-linecap:round; stroke-linejoin:round;fill-rule:evenodd;"
d="M 20980,11553
20985,11554
20991,11556
20996,11557
21001,11560
21006,11563
21011,11566
21015,11570
21019,11574
21022,11579
21025,11584
21028,11589
21029,11594
21031,11600
21032,11605
21032,11611
21032,11727
21032,11733
21031,11739
21029,11744
21028,11749
21025,11755
21022,11760
21019,11764
21015,11768
21011,11772
21006,11776
21001,11778
20996,11781
20991,11783
20985,11784
20980,11785
20974,11785
20838,11785
20832,11785
20827,11784
20821,11783
20816,11781
20811,11778
20806,11776
20801,11772
20797,11768
20793,11764
20790,11760
20787,11755
20784,11749
20783,11744
20781,11739
20780,11733
20780,11727
20780,11611
20780,11605
20781,11600
20783,11594
20784,11589
20787,11584
20790,11579
20793,11574
20797,11570
20801,11566
20806,11563
20811,11560
20816,11557
20821,11556
20827,11554
20832,11553
20838,11553
20974,11553
20980,11553
Z" /> 
</g>
<g >
</g>
<g >
</g>
<g >
</g>
</g> 
</svg>
