<?xml version="1.0" standalone="no"?>
 <!DOCTYPE svg PUBLIC "-//W3C//DTD SVG 1.1//EN" 
 "http://www.w3.org/Graphics/SVG/1.1/DTD/svg11.dtd"> 
<svg xmlns="http://www.w3.org/2000/svg" version="1.1" 
    width="6.40842cm" height="5.80898cm" viewBox="0 0 25230 22870 ">
<title>SVG Picture created as solarpcd-F_Paste.svg date 2019/11/01 14:38:56 </title>
  <desc>Picture generated by PCBNEW </desc>
<g style="fill:#000000; fill-opacity:1;stroke:#000000; stroke-opacity:1;
stroke-linecap:round; stroke-linejoin:round; "
 transform="translate(0 0) scale(1 1)">
</g>
<g style="fill:#000000; fill-opacity:0.0; 
stroke:#000000; stroke-width:-0.000393701; stroke-opacity:1; 
stroke-linecap:round; stroke-linejoin:round;">
</g>
<g style="fill:#000000; fill-opacity:1.0; 
stroke:#000000; stroke-width:39.3701; stroke-opacity:1; 
stroke-linecap:round; stroke-linejoin:round;">
<path style="fill:#000000; fill-opacity:1.0; 
stroke:#000000; stroke-width:39.3701; stroke-opacity:1; 
stroke-linecap:round; stroke-linejoin:round;fill-rule:evenodd;"
d="M 17262,16212
17262,15425
16474,15425
16474,16212
Z" /> 
<path style="fill:#000000; fill-opacity:1.0; 
stroke:#000000; stroke-width:39.3701; stroke-opacity:1; 
stroke-linecap:round; stroke-linejoin:round;fill-rule:evenodd;"
d="M 15687,17196
15687,16015
14506,16015
14506,17196
Z" /> 
<path style="fill:#000000; fill-opacity:1.0; 
stroke:#000000; stroke-width:39.3701; stroke-opacity:1; 
stroke-linecap:round; stroke-linejoin:round;fill-rule:evenodd;"
d="M 19230,17196
19230,16015
18049,16015
18049,17196
Z" /> 
<path style="fill:#000000; fill-opacity:1.0; 
stroke:#000000; stroke-width:39.3701; stroke-opacity:1; 
stroke-linecap:round; stroke-linejoin:round;fill-rule:evenodd;"
d="M 15687,18968
15687,17787
14506,17787
14506,18968
Z" /> 
<path style="fill:#000000; fill-opacity:1.0; 
stroke:#000000; stroke-width:39.3701; stroke-opacity:1; 
stroke-linecap:round; stroke-linejoin:round;fill-rule:evenodd;"
d="M 19230,18968
19230,17787
18049,17787
18049,18968
Z" /> 
<path style="fill:#000000; fill-opacity:1.0; 
stroke:#000000; stroke-width:39.3701; stroke-opacity:1; 
stroke-linecap:round; stroke-linejoin:round;fill-rule:evenodd;"
d="M 15687,20740
15687,19559
14506,19559
14506,20740
Z" /> 
<path style="fill:#000000; fill-opacity:1.0; 
stroke:#000000; stroke-width:39.3701; stroke-opacity:1; 
stroke-linecap:round; stroke-linejoin:round;fill-rule:evenodd;"
d="M 17459,20740
17459,19559
16277,19559
16277,20740
Z" /> 
<path style="fill:#000000; fill-opacity:1.0; 
stroke:#000000; stroke-width:39.3701; stroke-opacity:1; 
stroke-linecap:round; stroke-linejoin:round;fill-rule:evenodd;"
d="M 19230,20740
19230,19559
18049,19559
18049,20740
Z" /> 
<path style="fill:#000000; fill-opacity:1.0; 
stroke:#000000; stroke-width:39.3701; stroke-opacity:1; 
stroke-linecap:round; stroke-linejoin:round;fill-rule:evenodd;"
d="M 17459,18968
17459,17787
16277,17787
16277,18968
Z" /> 
<g >
</g>
<g >
</g>
<g >
</g>
<g style="fill:#000000; fill-opacity:1.0; 
stroke:#000000; stroke-width:39.3701; stroke-opacity:1; 
stroke-linecap:round; stroke-linejoin:round;">
</g>
<g style="fill:#000000; fill-opacity:1.0; 
stroke:#000000; stroke-width:0; stroke-opacity:1; 
stroke-linecap:round; stroke-linejoin:round;">
<path style="fill:#000000; fill-opacity:1.0; 
stroke:#000000; stroke-width:0; stroke-opacity:1; 
stroke-linecap:round; stroke-linejoin:round;fill-rule:evenodd;"
d="M 12054,17384
12059,17385
12065,17387
12070,17389
12075,17391
12080,17394
12085,17397
12089,17401
12093,17405
12096,17410
12099,17415
12102,17420
12104,17425
12105,17431
12106,17437
12106,17442
12106,17578
12106,17584
12105,17589
12104,17595
12102,17600
12099,17605
12096,17610
12093,17615
12089,17619
12085,17623
12080,17626
12075,17629
12070,17632
12065,17634
12059,17635
12054,17636
12048,17636
11932,17636
11926,17636
11921,17635
11915,17634
11910,17632
11905,17629
11900,17626
11895,17623
11891,17619
11887,17615
11884,17610
11881,17605
11878,17600
11876,17595
11875,17589
11874,17584
11874,17578
11874,17442
11874,17437
11875,17431
11876,17425
11878,17420
11881,17415
11884,17410
11887,17405
11891,17401
11895,17397
11900,17394
11905,17391
11910,17389
11915,17387
11921,17385
11926,17384
11932,17384
12048,17384
12054,17384
Z" /> 
<path style="fill:#000000; fill-opacity:1.0; 
stroke:#000000; stroke-width:0; stroke-opacity:1; 
stroke-linecap:round; stroke-linejoin:round;fill-rule:evenodd;"
d="M 12436,17384
12441,17385
12447,17387
12452,17389
12457,17391
12462,17394
12467,17397
12471,17401
12475,17405
12478,17410
12481,17415
12484,17420
12486,17425
12487,17431
12488,17437
12488,17442
12488,17578
12488,17584
12487,17589
12486,17595
12484,17600
12481,17605
12478,17610
12475,17615
12471,17619
12467,17623
12462,17626
12457,17629
12452,17632
12447,17634
12441,17635
12436,17636
12430,17636
12314,17636
12308,17636
12303,17635
12297,17634
12292,17632
12286,17629
12282,17626
12277,17623
12273,17619
12269,17615
12266,17610
12263,17605
12260,17600
12258,17595
12257,17589
12256,17584
12256,17578
12256,17442
12256,17437
12257,17431
12258,17425
12260,17420
12263,17415
12266,17410
12269,17405
12273,17401
12277,17397
12282,17394
12286,17391
12292,17389
12297,17387
12303,17385
12308,17384
12314,17384
12430,17384
12436,17384
Z" /> 
</g>
<g >
</g>
<g >
</g>
<g >
</g>
<g >
</g>
<g >
</g>
<g >
</g>
<g >
</g>
<g style="fill:#000000; fill-opacity:1.0; 
stroke:#000000; stroke-width:0; stroke-opacity:1; 
stroke-linecap:round; stroke-linejoin:round;">
<path style="fill:#000000; fill-opacity:1.0; 
stroke:#000000; stroke-width:0; stroke-opacity:1; 
stroke-linecap:round; stroke-linejoin:round;fill-rule:evenodd;"
d="M 11737,18149
11383,18149
11383,17873
11737,17873
11737,18149
Z" /> 
<path style="fill:#000000; fill-opacity:1.0; 
stroke:#000000; stroke-width:0; stroke-opacity:1; 
stroke-linecap:round; stroke-linejoin:round;fill-rule:evenodd;"
d="M 11737,18523
11383,18523
11383,18247
11737,18247
11737,18523
Z" /> 
<path style="fill:#000000; fill-opacity:1.0; 
stroke:#000000; stroke-width:0; stroke-opacity:1; 
stroke-linecap:round; stroke-linejoin:round;fill-rule:evenodd;"
d="M 11737,18897
11383,18897
11383,18621
11737,18621
11737,18897
Z" /> 
<path style="fill:#000000; fill-opacity:1.0; 
stroke:#000000; stroke-width:0; stroke-opacity:1; 
stroke-linecap:round; stroke-linejoin:round;fill-rule:evenodd;"
d="M 12879,18897
12525,18897
12525,18621
12879,18621
12879,18897
Z" /> 
<path style="fill:#000000; fill-opacity:1.0; 
stroke:#000000; stroke-width:0; stroke-opacity:1; 
stroke-linecap:round; stroke-linejoin:round;fill-rule:evenodd;"
d="M 12879,18523
12525,18523
12525,18247
12879,18247
12879,18523
Z" /> 
<path style="fill:#000000; fill-opacity:1.0; 
stroke:#000000; stroke-width:0; stroke-opacity:1; 
stroke-linecap:round; stroke-linejoin:round;fill-rule:evenodd;"
d="M 12879,18149
12525,18149
12525,17873
12879,17873
12879,18149
Z" /> 
</g>
<g >
</g>
<g style="fill:#000000; fill-opacity:1.0; 
stroke:#000000; stroke-width:0; stroke-opacity:1; 
stroke-linecap:round; stroke-linejoin:round;">
<path style="fill:#000000; fill-opacity:1.0; 
stroke:#000000; stroke-width:0; stroke-opacity:1; 
stroke-linecap:round; stroke-linejoin:round;fill-rule:evenodd;"
d="M 15726,15976
15726,17236
14466,17236
14466,15976
15726,15976
Z" /> 
<path style="fill:#000000; fill-opacity:1.0; 
stroke:#000000; stroke-width:0; stroke-opacity:1; 
stroke-linecap:round; stroke-linejoin:round;fill-rule:evenodd;"
d="M 17301,15385
17301,16251
16435,16251
16435,15385
17301,15385
Z" /> 
<path style="fill:#000000; fill-opacity:1.0; 
stroke:#000000; stroke-width:0; stroke-opacity:1; 
stroke-linecap:round; stroke-linejoin:round;fill-rule:evenodd;"
d="M 19270,15976
19270,17236
18010,17236
18010,15976
19270,15976
Z" /> 
<path style="fill:#000000; fill-opacity:1.0; 
stroke:#000000; stroke-width:0; stroke-opacity:1; 
stroke-linecap:round; stroke-linejoin:round;fill-rule:evenodd;"
d="M 15726,17748
15726,19007
14466,19007
14466,17748
15726,17748
Z" /> 
<path style="fill:#000000; fill-opacity:1.0; 
stroke:#000000; stroke-width:0; stroke-opacity:1; 
stroke-linecap:round; stroke-linejoin:round;fill-rule:evenodd;"
d="M 17498,17748
17498,19007
16238,19007
16238,17748
17498,17748
Z" /> 
<path style="fill:#000000; fill-opacity:1.0; 
stroke:#000000; stroke-width:0; stroke-opacity:1; 
stroke-linecap:round; stroke-linejoin:round;fill-rule:evenodd;"
d="M 19270,17748
19270,19007
18010,19007
18010,17748
19270,17748
Z" /> 
<path style="fill:#000000; fill-opacity:1.0; 
stroke:#000000; stroke-width:0; stroke-opacity:1; 
stroke-linecap:round; stroke-linejoin:round;fill-rule:evenodd;"
d="M 15726,19519
15726,20779
14466,20779
14466,19519
15726,19519
Z" /> 
<path style="fill:#000000; fill-opacity:1.0; 
stroke:#000000; stroke-width:0; stroke-opacity:1; 
stroke-linecap:round; stroke-linejoin:round;fill-rule:evenodd;"
d="M 17498,19519
17498,20779
16238,20779
16238,19519
17498,19519
Z" /> 
<path style="fill:#000000; fill-opacity:1.0; 
stroke:#000000; stroke-width:0; stroke-opacity:1; 
stroke-linecap:round; stroke-linejoin:round;fill-rule:evenodd;"
d="M 19270,19519
19270,20779
18010,20779
18010,19519
19270,19519
Z" /> 
</g>
<g >
</g>
<g style="fill:#000000; fill-opacity:1.0; 
stroke:#000000; stroke-width:0; stroke-opacity:1; 
stroke-linecap:round; stroke-linejoin:round;">
<path style="fill:#000000; fill-opacity:1.0; 
stroke:#000000; stroke-width:0; stroke-opacity:1; 
stroke-linecap:round; stroke-linejoin:round;fill-rule:evenodd;"
d="M 3838,10649
925,10649
925,9862
3838,9862
3838,10649
Z" /> 
<path style="fill:#000000; fill-opacity:1.0; 
stroke:#000000; stroke-width:0; stroke-opacity:1; 
stroke-linecap:round; stroke-linejoin:round;fill-rule:evenodd;"
d="M 3838,2381
925,2381
925,1594
3838,1594
3838,2381
Z" /> 
</g>
<g >
</g>
<g style="fill:#000000; fill-opacity:1.0; 
stroke:#000000; stroke-width:0; stroke-opacity:1; 
stroke-linecap:round; stroke-linejoin:round;">
<path style="fill:#000000; fill-opacity:1.0; 
stroke:#000000; stroke-width:0; stroke-opacity:1; 
stroke-linecap:round; stroke-linejoin:round;fill-rule:evenodd;"
d="M 21397,12224
24311,12224
24311,13011
21397,13011
21397,12224
Z" /> 
<path style="fill:#000000; fill-opacity:1.0; 
stroke:#000000; stroke-width:0; stroke-opacity:1; 
stroke-linecap:round; stroke-linejoin:round;fill-rule:evenodd;"
d="M 21397,20492
24311,20492
24311,21279
21397,21279
21397,20492
Z" /> 
</g>
<g >
</g>
<g style="fill:#000000; fill-opacity:1.0; 
stroke:#000000; stroke-width:0; stroke-opacity:1; 
stroke-linecap:round; stroke-linejoin:round;">
<path style="fill:#000000; fill-opacity:1.0; 
stroke:#000000; stroke-width:0; stroke-opacity:1; 
stroke-linecap:round; stroke-linejoin:round;fill-rule:evenodd;"
d="M 19704,2106
19704,5019
18917,5019
18917,2106
19704,2106
Z" /> 
<path style="fill:#000000; fill-opacity:1.0; 
stroke:#000000; stroke-width:0; stroke-opacity:1; 
stroke-linecap:round; stroke-linejoin:round;fill-rule:evenodd;"
d="M 11437,2106
11437,5019
10649,5019
10649,2106
11437,2106
Z" /> 
</g>
<g >
</g>
<g style="fill:#000000; fill-opacity:1.0; 
stroke:#000000; stroke-width:0; stroke-opacity:1; 
stroke-linecap:round; stroke-linejoin:round;">
<path style="fill:#000000; fill-opacity:1.0; 
stroke:#000000; stroke-width:0; stroke-opacity:1; 
stroke-linecap:round; stroke-linejoin:round;fill-rule:evenodd;"
d="M 20374,14980
17460,14980
17460,14192
20374,14192
20374,14980
Z" /> 
<path style="fill:#000000; fill-opacity:1.0; 
stroke:#000000; stroke-width:0; stroke-opacity:1; 
stroke-linecap:round; stroke-linejoin:round;fill-rule:evenodd;"
d="M 20374,6712
17460,6712
17460,5925
20374,5925
20374,6712
Z" /> 
</g>
<g >
</g>
<g style="fill:#000000; fill-opacity:1.0; 
stroke:#000000; stroke-width:0; stroke-opacity:1; 
stroke-linecap:round; stroke-linejoin:round;">
<path style="fill:#000000; fill-opacity:1.0; 
stroke:#000000; stroke-width:0; stroke-opacity:1; 
stroke-linecap:round; stroke-linejoin:round;fill-rule:evenodd;"
d="M 925,12224
3838,12224
3838,13011
925,13011
925,12224
Z" /> 
<path style="fill:#000000; fill-opacity:1.0; 
stroke:#000000; stroke-width:0; stroke-opacity:1; 
stroke-linecap:round; stroke-linejoin:round;fill-rule:evenodd;"
d="M 925,20492
3838,20492
3838,21279
925,21279
925,20492
Z" /> 
</g>
<g >
</g>
<g style="fill:#000000; fill-opacity:1.0; 
stroke:#000000; stroke-width:0; stroke-opacity:1; 
stroke-linecap:round; stroke-linejoin:round;">
<path style="fill:#000000; fill-opacity:1.0; 
stroke:#000000; stroke-width:0; stroke-opacity:1; 
stroke-linecap:round; stroke-linejoin:round;fill-rule:evenodd;"
d="M 24311,10649
21397,10649
21397,9862
24311,9862
24311,10649
Z" /> 
<path style="fill:#000000; fill-opacity:1.0; 
stroke:#000000; stroke-width:0; stroke-opacity:1; 
stroke-linecap:round; stroke-linejoin:round;fill-rule:evenodd;"
d="M 24311,2381
21397,2381
21397,1594
24311,1594
24311,2381
Z" /> 
</g>
<g >
</g>
<g style="fill:#000000; fill-opacity:1.0; 
stroke:#000000; stroke-width:0; stroke-opacity:1; 
stroke-linecap:round; stroke-linejoin:round;">
<path style="fill:#000000; fill-opacity:1.0; 
stroke:#000000; stroke-width:0; stroke-opacity:1; 
stroke-linecap:round; stroke-linejoin:round;fill-rule:evenodd;"
d="M 4862,11614
5413,11614
5413,12677
4862,12677
4862,11614
Z" /> 
<path style="fill:#000000; fill-opacity:1.0; 
stroke:#000000; stroke-width:0; stroke-opacity:1; 
stroke-linecap:round; stroke-linejoin:round;fill-rule:evenodd;"
d="M 4862,13070
5413,13070
5413,13622
4862,13622
4862,13070
Z" /> 
</g>
<g >
</g>
<g style="fill:#000000; fill-opacity:1.0; 
stroke:#000000; stroke-width:0; stroke-opacity:1; 
stroke-linecap:round; stroke-linejoin:round;">
<path style="fill:#000000; fill-opacity:1.0; 
stroke:#000000; stroke-width:0; stroke-opacity:1; 
stroke-linecap:round; stroke-linejoin:round;fill-rule:evenodd;"
d="M 20335,7285
20335,7836
19272,7836
19272,7285
20335,7285
Z" /> 
<path style="fill:#000000; fill-opacity:1.0; 
stroke:#000000; stroke-width:0; stroke-opacity:1; 
stroke-linecap:round; stroke-linejoin:round;fill-rule:evenodd;"
d="M 18878,7285
18878,7836
18327,7836
18327,7285
18878,7285
Z" /> 
</g>
<g >
</g>
<g style="fill:#000000; fill-opacity:1.0; 
stroke:#000000; stroke-width:0; stroke-opacity:1; 
stroke-linecap:round; stroke-linejoin:round;">
<path style="fill:#000000; fill-opacity:1.0; 
stroke:#000000; stroke-width:0; stroke-opacity:1; 
stroke-linecap:round; stroke-linejoin:round;fill-rule:evenodd;"
d="M 12654,5934
12659,5935
12665,5937
12670,5939
12675,5941
12680,5944
12685,5947
12689,5951
12693,5955
12696,5960
12699,5965
12702,5970
12704,5975
12705,5981
12706,5987
12706,5992
12706,6128
12706,6134
12705,6139
12704,6145
12702,6150
12699,6155
12696,6160
12693,6165
12689,6169
12685,6173
12680,6176
12675,6179
12670,6182
12665,6184
12659,6185
12654,6186
12648,6186
12532,6186
12526,6186
12521,6185
12515,6184
12510,6182
12505,6179
12500,6176
12495,6173
12491,6169
12487,6165
12484,6160
12481,6155
12478,6150
12476,6145
12475,6139
12474,6134
12474,6128
12474,5992
12474,5987
12475,5981
12476,5975
12478,5970
12481,5965
12484,5960
12487,5955
12491,5951
12495,5947
12500,5944
12505,5941
12510,5939
12515,5937
12521,5935
12526,5934
12532,5934
12648,5934
12654,5934
Z" /> 
<path style="fill:#000000; fill-opacity:1.0; 
stroke:#000000; stroke-width:0; stroke-opacity:1; 
stroke-linecap:round; stroke-linejoin:round;fill-rule:evenodd;"
d="M 13036,5934
13041,5935
13047,5937
13052,5939
13057,5941
13062,5944
13067,5947
13071,5951
13075,5955
13078,5960
13081,5965
13084,5970
13086,5975
13087,5981
13088,5987
13088,5992
13088,6128
13088,6134
13087,6139
13086,6145
13084,6150
13081,6155
13078,6160
13075,6165
13071,6169
13067,6173
13062,6176
13057,6179
13052,6182
13047,6184
13041,6185
13036,6186
13030,6186
12914,6186
12908,6186
12903,6185
12897,6184
12892,6182
12886,6179
12882,6176
12877,6173
12873,6169
12869,6165
12866,6160
12863,6155
12860,6150
12858,6145
12857,6139
12856,6134
12856,6128
12856,5992
12856,5987
12857,5981
12858,5975
12860,5970
12863,5965
12866,5960
12869,5955
12873,5951
12877,5947
12882,5944
12886,5941
12892,5939
12897,5937
12903,5935
12908,5934
12914,5934
13030,5934
13036,5934
Z" /> 
</g>
<g >
</g>
<g style="fill:#000000; fill-opacity:1.0; 
stroke:#000000; stroke-width:0; stroke-opacity:1; 
stroke-linecap:round; stroke-linejoin:round;">
<path style="fill:#000000; fill-opacity:1.0; 
stroke:#000000; stroke-width:0; stroke-opacity:1; 
stroke-linecap:round; stroke-linejoin:round;fill-rule:evenodd;"
d="M 12272,5934
12277,5935
12283,5937
12288,5939
12293,5941
12298,5944
12303,5947
12307,5951
12311,5955
12314,5960
12317,5965
12320,5970
12322,5975
12323,5981
12324,5987
12324,5992
12324,6128
12324,6134
12323,6139
12322,6145
12320,6150
12317,6155
12314,6160
12311,6165
12307,6169
12303,6173
12298,6176
12293,6179
12288,6182
12283,6184
12277,6185
12272,6186
12266,6186
12150,6186
12144,6186
12139,6185
12133,6184
12128,6182
12123,6179
12118,6176
12113,6173
12109,6169
12105,6165
12102,6160
12099,6155
12096,6150
12094,6145
12093,6139
12092,6134
12092,6128
12092,5992
12092,5987
12093,5981
12094,5975
12096,5970
12099,5965
12102,5960
12105,5955
12109,5951
12113,5947
12118,5944
12123,5941
12128,5939
12133,5937
12139,5935
12144,5934
12150,5934
12266,5934
12272,5934
Z" /> 
<path style="fill:#000000; fill-opacity:1.0; 
stroke:#000000; stroke-width:0; stroke-opacity:1; 
stroke-linecap:round; stroke-linejoin:round;fill-rule:evenodd;"
d="M 12654,5934
12659,5935
12665,5937
12670,5939
12675,5941
12680,5944
12685,5947
12689,5951
12693,5955
12696,5960
12699,5965
12702,5970
12704,5975
12705,5981
12706,5987
12706,5992
12706,6128
12706,6134
12705,6139
12704,6145
12702,6150
12699,6155
12696,6160
12693,6165
12689,6169
12685,6173
12680,6176
12675,6179
12670,6182
12665,6184
12659,6185
12654,6186
12648,6186
12532,6186
12526,6186
12521,6185
12515,6184
12510,6182
12504,6179
12500,6176
12495,6173
12491,6169
12487,6165
12484,6160
12481,6155
12478,6150
12476,6145
12475,6139
12474,6134
12474,6128
12474,5992
12474,5987
12475,5981
12476,5975
12478,5970
12481,5965
12484,5960
12487,5955
12491,5951
12495,5947
12500,5944
12504,5941
12510,5939
12515,5937
12521,5935
12526,5934
12532,5934
12648,5934
12654,5934
Z" /> 
</g>
<g >
</g>
<g style="fill:#000000; fill-opacity:1.0; 
stroke:#000000; stroke-width:0; stroke-opacity:1; 
stroke-linecap:round; stroke-linejoin:round;">
<path style="fill:#000000; fill-opacity:1.0; 
stroke:#000000; stroke-width:0; stroke-opacity:1; 
stroke-linecap:round; stroke-linejoin:round;fill-rule:evenodd;"
d="M 12654,6484
12659,6485
12665,6487
12670,6489
12675,6491
12680,6494
12685,6497
12689,6501
12693,6505
12696,6510
12699,6515
12702,6520
12704,6525
12705,6531
12706,6537
12706,6542
12706,6678
12706,6684
12705,6689
12704,6695
12702,6700
12699,6705
12696,6710
12693,6715
12689,6719
12685,6723
12680,6726
12675,6729
12670,6732
12665,6734
12659,6735
12654,6736
12648,6736
12532,6736
12526,6736
12521,6735
12515,6734
12510,6732
12505,6729
12500,6726
12495,6723
12491,6719
12487,6715
12484,6710
12481,6705
12478,6700
12476,6695
12475,6689
12474,6684
12474,6678
12474,6542
12474,6537
12475,6531
12476,6525
12478,6520
12481,6515
12484,6510
12487,6505
12491,6501
12495,6497
12500,6494
12505,6491
12510,6489
12515,6487
12521,6485
12526,6484
12532,6484
12648,6484
12654,6484
Z" /> 
<path style="fill:#000000; fill-opacity:1.0; 
stroke:#000000; stroke-width:0; stroke-opacity:1; 
stroke-linecap:round; stroke-linejoin:round;fill-rule:evenodd;"
d="M 13036,6484
13041,6485
13047,6487
13052,6489
13057,6491
13062,6494
13067,6497
13071,6501
13075,6505
13078,6510
13081,6515
13084,6520
13086,6525
13087,6531
13088,6537
13088,6542
13088,6678
13088,6684
13087,6689
13086,6695
13084,6700
13081,6705
13078,6710
13075,6715
13071,6719
13067,6723
13062,6726
13057,6729
13052,6732
13047,6734
13041,6735
13036,6736
13030,6736
12914,6736
12908,6736
12903,6735
12897,6734
12892,6732
12886,6729
12882,6726
12877,6723
12873,6719
12869,6715
12866,6710
12863,6705
12860,6700
12858,6695
12857,6689
12856,6684
12856,6678
12856,6542
12856,6537
12857,6531
12858,6525
12860,6520
12863,6515
12866,6510
12869,6505
12873,6501
12877,6497
12882,6494
12886,6491
12892,6489
12897,6487
12903,6485
12908,6484
12914,6484
13030,6484
13036,6484
Z" /> 
</g>
<g >
</g>
<g style="fill:#000000; fill-opacity:1.0; 
stroke:#000000; stroke-width:0; stroke-opacity:1; 
stroke-linecap:round; stroke-linejoin:round;">
<path style="fill:#000000; fill-opacity:1.0; 
stroke:#000000; stroke-width:0; stroke-opacity:1; 
stroke-linecap:round; stroke-linejoin:round;fill-rule:evenodd;"
d="M 12272,6484
12277,6485
12283,6487
12288,6489
12293,6491
12298,6494
12303,6497
12307,6501
12311,6505
12314,6510
12317,6515
12320,6520
12322,6525
12323,6531
12324,6537
12324,6542
12324,6678
12324,6684
12323,6689
12322,6695
12320,6700
12317,6705
12314,6710
12311,6715
12307,6719
12303,6723
12298,6726
12293,6729
12288,6732
12283,6734
12277,6735
12272,6736
12266,6736
12150,6736
12144,6736
12139,6735
12133,6734
12128,6732
12123,6729
12118,6726
12113,6723
12109,6719
12105,6715
12102,6710
12099,6705
12096,6700
12094,6695
12093,6689
12092,6684
12092,6678
12092,6542
12092,6537
12093,6531
12094,6525
12096,6520
12099,6515
12102,6510
12105,6505
12109,6501
12113,6497
12118,6494
12123,6491
12128,6489
12133,6487
12139,6485
12144,6484
12150,6484
12266,6484
12272,6484
Z" /> 
<path style="fill:#000000; fill-opacity:1.0; 
stroke:#000000; stroke-width:0; stroke-opacity:1; 
stroke-linecap:round; stroke-linejoin:round;fill-rule:evenodd;"
d="M 12654,6484
12659,6485
12665,6487
12670,6489
12675,6491
12680,6494
12685,6497
12689,6501
12693,6505
12696,6510
12699,6515
12702,6520
12704,6525
12705,6531
12706,6537
12706,6542
12706,6678
12706,6684
12705,6689
12704,6695
12702,6700
12699,6705
12696,6710
12693,6715
12689,6719
12685,6723
12680,6726
12675,6729
12670,6732
12665,6734
12659,6735
12654,6736
12648,6736
12532,6736
12526,6736
12521,6735
12515,6734
12510,6732
12504,6729
12500,6726
12495,6723
12491,6719
12487,6715
12484,6710
12481,6705
12478,6700
12476,6695
12475,6689
12474,6684
12474,6678
12474,6542
12474,6537
12475,6531
12476,6525
12478,6520
12481,6515
12484,6510
12487,6505
12491,6501
12495,6497
12500,6494
12504,6491
12510,6489
12515,6487
12521,6485
12526,6484
12532,6484
12648,6484
12654,6484
Z" /> 
</g>
<g >
</g>
<g style="fill:#000000; fill-opacity:1.0; 
stroke:#000000; stroke-width:0; stroke-opacity:1; 
stroke-linecap:round; stroke-linejoin:round;">
<path style="fill:#000000; fill-opacity:1.0; 
stroke:#000000; stroke-width:0; stroke-opacity:1; 
stroke-linecap:round; stroke-linejoin:round;fill-rule:evenodd;"
d="M 10930,18262
10935,18263
10941,18265
10946,18267
10951,18269
10956,18272
10961,18275
10965,18279
10969,18283
10972,18288
10975,18293
10978,18298
10979,18303
10981,18309
10982,18314
10982,18320
10982,18436
10982,18442
10981,18448
10979,18453
10978,18459
10975,18464
10972,18469
10969,18473
10965,18477
10961,18481
10956,18485
10951,18488
10946,18490
10941,18492
10935,18493
10930,18494
10924,18494
10788,18494
10782,18494
10777,18493
10771,18492
10766,18490
10761,18488
10756,18485
10751,18481
10747,18477
10743,18473
10740,18469
10737,18464
10734,18459
10733,18453
10731,18448
10730,18442
10730,18436
10730,18320
10730,18314
10731,18309
10733,18303
10734,18298
10737,18293
10740,18288
10743,18283
10747,18279
10751,18275
10756,18272
10761,18269
10766,18267
10771,18265
10777,18263
10782,18262
10788,18262
10924,18262
10930,18262
Z" /> 
<path style="fill:#000000; fill-opacity:1.0; 
stroke:#000000; stroke-width:0; stroke-opacity:1; 
stroke-linecap:round; stroke-linejoin:round;fill-rule:evenodd;"
d="M 10930,18644
10935,18645
10941,18646
10946,18648
10951,18651
10956,18654
10961,18657
10965,18661
10969,18665
10972,18670
10975,18675
10978,18680
10979,18685
10981,18691
10982,18696
10982,18702
10982,18818
10982,18824
10981,18830
10979,18835
10978,18840
10975,18846
10972,18850
10969,18855
10965,18859
10961,18863
10956,18866
10951,18869
10946,18872
10941,18874
10935,18875
10930,18876
10924,18876
10788,18876
10782,18876
10777,18875
10771,18874
10766,18872
10761,18869
10756,18866
10751,18863
10747,18859
10743,18855
10740,18850
10737,18846
10734,18840
10733,18835
10731,18830
10730,18824
10730,18818
10730,18702
10730,18696
10731,18691
10733,18685
10734,18680
10737,18675
10740,18670
10743,18665
10747,18661
10751,18657
10756,18654
10761,18651
10766,18648
10771,18646
10777,18645
10782,18644
10788,18644
10924,18644
10930,18644
Z" /> 
</g>
<g >
</g>
<g style="fill:#000000; fill-opacity:1.0; 
stroke:#000000; stroke-width:0; stroke-opacity:1; 
stroke-linecap:round; stroke-linejoin:round;">
<path style="fill:#000000; fill-opacity:1.0; 
stroke:#000000; stroke-width:0; stroke-opacity:1; 
stroke-linecap:round; stroke-linejoin:round;fill-rule:evenodd;"
d="M 10930,17878
10935,17879
10941,17881
10946,17882
10951,17885
10956,17888
10961,17891
10965,17895
10969,17899
10972,17904
10975,17909
10978,17914
10979,17919
10981,17925
10982,17930
10982,17936
10982,18052
10982,18058
10981,18064
10979,18069
10978,18074
10975,18080
10972,18085
10969,18089
10965,18093
10961,18097
10956,18101
10951,18103
10946,18106
10941,18108
10935,18109
10930,18110
10924,18110
10788,18110
10782,18110
10777,18109
10771,18108
10766,18106
10761,18103
10756,18101
10751,18097
10747,18093
10743,18089
10740,18085
10737,18080
10734,18074
10733,18069
10731,18064
10730,18058
10730,18052
10730,17936
10730,17930
10731,17925
10733,17919
10734,17914
10737,17909
10740,17904
10743,17899
10747,17895
10751,17891
10756,17888
10761,17885
10766,17882
10771,17881
10777,17879
10782,17878
10788,17878
10924,17878
10930,17878
Z" /> 
<path style="fill:#000000; fill-opacity:1.0; 
stroke:#000000; stroke-width:0; stroke-opacity:1; 
stroke-linecap:round; stroke-linejoin:round;fill-rule:evenodd;"
d="M 10930,18260
10935,18261
10941,18262
10946,18264
10951,18267
10956,18270
10961,18273
10965,18277
10969,18281
10972,18286
10975,18291
10978,18296
10979,18301
10981,18307
10982,18312
10982,18318
10982,18434
10982,18440
10981,18445
10979,18451
10978,18456
10975,18462
10972,18466
10969,18471
10965,18475
10961,18479
10956,18482
10951,18485
10946,18488
10941,18490
10935,18491
10930,18492
10924,18492
10788,18492
10782,18492
10777,18491
10771,18490
10766,18488
10761,18485
10756,18482
10751,18479
10747,18475
10743,18471
10740,18466
10737,18462
10734,18456
10733,18451
10731,18445
10730,18440
10730,18434
10730,18318
10730,18312
10731,18307
10733,18301
10734,18296
10737,18291
10740,18286
10743,18281
10747,18277
10751,18273
10756,18270
10761,18267
10766,18264
10771,18262
10777,18261
10782,18260
10788,18260
10924,18260
10930,18260
Z" /> 
</g>
<g >
</g>
<g >
</g>
<g >
</g>
<g >
</g>
<g >
</g>
<g >
</g>
<g >
</g>
<g >
</g>
<g >
</g>
<g >
</g>
<g >
</g>
<g >
</g>
<g >
</g>
<g >
</g>
<g >
</g>
<g >
</g>
<g >
</g>
<g >
</g>
<g >
</g>
<g >
</g>
<g >
</g>
<g >
</g>
<g >
</g>
<g >
</g>
<g >
</g>
<g >
</g>
<g >
</g>
<g >
</g>
<g >
</g>
<g >
</g>
<g >
</g>
<g >
</g>
<g >
</g>
<g >
</g>
</g> 
</svg>
