<?xml version="1.0" standalone="no"?>
 <!DOCTYPE svg PUBLIC "-//W3C//DTD SVG 1.1//EN" 
 "http://www.w3.org/Graphics/SVG/1.1/DTD/svg11.dtd"> 
<svg xmlns="http://www.w3.org/2000/svg" version="1.1" 
    width="5.74294cm" height="4.94284cm" viewBox="0 0 22610 19460 ">
<title>SVG Picture created as SolarCellX_v3-B_Paste.svg date 2019/11/01 14:42:22 </title>
  <desc>Picture generated by PCBNEW </desc>
<g style="fill:#000000; fill-opacity:1;stroke:#000000; stroke-opacity:1;
stroke-linecap:round; stroke-linejoin:round; "
 transform="translate(0 0) scale(1 1)">
</g>
<g style="fill:#000000; fill-opacity:0.0; 
stroke:#000000; stroke-width:-0.000393701; stroke-opacity:1; 
stroke-linecap:round; stroke-linejoin:round;">
<g >
</g>
<g >
</g>
<g >
</g>
<g >
</g>
<g >
</g>
<g >
</g>
<g style="fill:#000000; fill-opacity:0.0; 
stroke:#000000; stroke-width:-0.000393701; stroke-opacity:1; 
stroke-linecap:round; stroke-linejoin:round;">
</g>
<g style="fill:#000000; fill-opacity:0.0; 
stroke:#000000; stroke-width:0; stroke-opacity:1; 
stroke-linecap:round; stroke-linejoin:round;">
</g>
<g style="fill:#000000; fill-opacity:1.0; 
stroke:#000000; stroke-width:0; stroke-opacity:1; 
stroke-linecap:round; stroke-linejoin:round;">
<path style="fill:#000000; fill-opacity:1.0; 
stroke:#000000; stroke-width:0; stroke-opacity:1; 
stroke-linecap:round; stroke-linejoin:round;fill-rule:evenodd;"
d="M 3594,6563
3594,6249
3909,6249
3909,6563
3594,6563
Z" /> 
<path style="fill:#000000; fill-opacity:1.0; 
stroke:#000000; stroke-width:0; stroke-opacity:1; 
stroke-linecap:round; stroke-linejoin:round;fill-rule:evenodd;"
d="M 3535,7548
3535,6760
3968,6760
3968,7548
3535,7548
Z" /> 
</g>
<g >
</g>
<g >
</g>
<g >
</g>
<g >
</g>
<g >
</g>
<g style="fill:#000000; fill-opacity:1.0; 
stroke:#000000; stroke-width:0; stroke-opacity:1; 
stroke-linecap:round; stroke-linejoin:round;">
<path style="fill:#000000; fill-opacity:1.0; 
stroke:#000000; stroke-width:0; stroke-opacity:1; 
stroke-linecap:round; stroke-linejoin:round;fill-rule:evenodd;"
d="M 8886,3686
8894,3688
8902,3690
8910,3692
8918,3696
8925,3700
8932,3705
8938,3711
8944,3717
8949,3724
8953,3731
8957,3739
8960,3747
8962,3755
8963,3764
8963,3772
8963,3944
8963,3953
8962,3961
8960,3969
8957,3977
8953,3985
8949,3992
8944,3999
8938,4005
8932,4011
8925,4016
8918,4020
8910,4024
8902,4027
8894,4029
8886,4030
8877,4030
8675,4030
8667,4030
8659,4029
8650,4027
8642,4024
8635,4020
8628,4016
8621,4011
8614,4005
8609,3999
8604,3992
8599,3985
8596,3977
8593,3969
8591,3961
8590,3953
8589,3944
8589,3772
8590,3764
8591,3755
8593,3747
8596,3739
8599,3731
8604,3724
8609,3717
8614,3711
8621,3705
8628,3700
8635,3696
8642,3692
8650,3690
8659,3688
8667,3686
8675,3686
8877,3686
8886,3686
Z" /> 
<path style="fill:#000000; fill-opacity:1.0; 
stroke:#000000; stroke-width:0; stroke-opacity:1; 
stroke-linecap:round; stroke-linejoin:round;fill-rule:evenodd;"
d="M 8886,3066
8894,3067
8902,3070
8910,3072
8918,3076
8925,3080
8932,3085
8938,3091
8944,3097
8949,3104
8953,3111
8957,3119
8960,3127
8962,3135
8963,3144
8963,3152
8963,3324
8963,3333
8962,3341
8960,3349
8957,3357
8953,3365
8949,3372
8944,3379
8938,3385
8932,3391
8925,3396
8918,3400
8910,3404
8902,3407
8894,3409
8886,3410
8877,3410
8675,3410
8667,3410
8659,3409
8650,3407
8642,3404
8635,3400
8628,3396
8621,3391
8614,3385
8609,3379
8604,3372
8599,3365
8596,3357
8593,3349
8591,3341
8590,3333
8589,3324
8589,3152
8590,3144
8591,3135
8593,3127
8596,3119
8599,3111
8604,3104
8609,3097
8614,3091
8621,3085
8628,3080
8635,3076
8642,3072
8650,3070
8659,3067
8667,3066
8675,3066
8877,3066
8886,3066
Z" /> 
</g>
<g >
</g>
<g style="fill:#000000; fill-opacity:1.0; 
stroke:#000000; stroke-width:0; stroke-opacity:1; 
stroke-linecap:round; stroke-linejoin:round;">
<path style="fill:#000000; fill-opacity:1.0; 
stroke:#000000; stroke-width:0; stroke-opacity:1; 
stroke-linecap:round; stroke-linejoin:round;fill-rule:evenodd;"
d="M 6923,7258
6929,7259
6934,7260
6940,7262
6945,7265
6950,7268
6954,7271
6958,7275
6962,7279
6966,7284
6968,7289
6971,7294
6973,7299
6974,7305
6975,7310
6975,7316
6975,7452
6975,7457
6974,7463
6973,7469
6971,7474
6968,7479
6966,7484
6962,7489
6958,7493
6954,7497
6950,7500
6945,7503
6940,7505
6934,7507
6929,7509
6923,7510
6917,7510
6801,7510
6795,7510
6790,7509
6784,7507
6779,7505
6774,7503
6769,7500
6764,7497
6760,7493
6756,7489
6753,7484
6750,7479
6747,7474
6746,7469
6744,7463
6743,7457
6743,7452
6743,7316
6743,7310
6744,7305
6746,7299
6747,7294
6750,7289
6753,7284
6756,7279
6760,7275
6764,7271
6769,7268
6774,7265
6779,7262
6784,7260
6790,7259
6795,7258
6801,7258
6917,7258
6923,7258
Z" /> 
<path style="fill:#000000; fill-opacity:1.0; 
stroke:#000000; stroke-width:0; stroke-opacity:1; 
stroke-linecap:round; stroke-linejoin:round;fill-rule:evenodd;"
d="M 6541,7258
6547,7259
6552,7260
6558,7262
6563,7265
6568,7268
6572,7271
6576,7275
6580,7279
6584,7284
6587,7289
6589,7294
6591,7299
6592,7305
6593,7310
6593,7316
6593,7452
6593,7457
6592,7463
6591,7469
6589,7474
6587,7479
6584,7484
6580,7489
6576,7493
6572,7497
6568,7500
6563,7503
6558,7505
6552,7507
6547,7509
6541,7510
6535,7510
6419,7510
6414,7510
6408,7509
6402,7507
6397,7505
6392,7503
6387,7500
6382,7497
6378,7493
6374,7489
6371,7484
6368,7479
6366,7474
6364,7469
6362,7463
6361,7457
6361,7452
6361,7316
6361,7310
6362,7305
6364,7299
6366,7294
6368,7289
6371,7284
6374,7279
6378,7275
6382,7271
6387,7268
6392,7265
6397,7262
6402,7260
6408,7259
6414,7258
6419,7258
6535,7258
6541,7258
Z" /> 
</g>
<g >
</g>
<g style="fill:#000000; fill-opacity:1.0; 
stroke:#000000; stroke-width:0; stroke-opacity:1; 
stroke-linecap:round; stroke-linejoin:round;">
<path style="fill:#000000; fill-opacity:1.0; 
stroke:#000000; stroke-width:0; stroke-opacity:1; 
stroke-linecap:round; stroke-linejoin:round;fill-rule:evenodd;"
d="M 11506,5862
11514,5863
11522,5865
11530,5868
11538,5871
11545,5876
11552,5881
11558,5886
11564,5893
11569,5899
11573,5907
11577,5914
11580,5922
11582,5930
11583,5939
11584,5947
11584,6149
11583,6157
11582,6166
11580,6174
11577,6182
11573,6190
11569,6197
11564,6204
11558,6210
11552,6216
11545,6221
11538,6225
11530,6229
11522,6231
11514,6233
11506,6235
11497,6235
11325,6235
11317,6235
11308,6233
11300,6231
11292,6229
11285,6225
11277,6221
11271,6216
11264,6210
11259,6204
11254,6197
11249,6190
11246,6182
11243,6174
11241,6166
11239,6157
11239,6149
11239,5947
11239,5939
11241,5930
11243,5922
11246,5914
11249,5907
11254,5899
11259,5893
11264,5886
11271,5881
11277,5876
11285,5871
11292,5868
11300,5865
11308,5863
11317,5862
11325,5861
11497,5861
11506,5862
Z" /> 
<path style="fill:#000000; fill-opacity:1.0; 
stroke:#000000; stroke-width:0; stroke-opacity:1; 
stroke-linecap:round; stroke-linejoin:round;fill-rule:evenodd;"
d="M 10886,5862
10894,5863
10902,5865
10910,5868
10918,5871
10925,5876
10932,5881
10938,5886
10944,5893
10949,5899
10953,5907
10957,5914
10960,5922
10962,5930
10963,5939
10963,5947
10963,6149
10963,6157
10962,6166
10960,6174
10957,6182
10953,6190
10949,6197
10944,6204
10938,6210
10932,6216
10925,6221
10918,6225
10910,6229
10902,6231
10894,6233
10886,6235
10877,6235
10705,6235
10697,6235
10688,6233
10680,6231
10672,6229
10665,6225
10657,6221
10650,6216
10644,6210
10639,6204
10634,6197
10629,6190
10626,6182
10623,6174
10621,6166
10619,6157
10619,6149
10619,5947
10619,5939
10621,5930
10623,5922
10626,5914
10629,5907
10634,5899
10639,5893
10644,5886
10650,5881
10657,5876
10665,5871
10672,5868
10680,5865
10688,5863
10697,5862
10705,5861
10877,5861
10886,5862
Z" /> 
</g>
<g >
</g>
<g style="fill:#000000; fill-opacity:1.0; 
stroke:#000000; stroke-width:0; stroke-opacity:1; 
stroke-linecap:round; stroke-linejoin:round;">
<path style="fill:#000000; fill-opacity:1.0; 
stroke:#000000; stroke-width:0; stroke-opacity:1; 
stroke-linecap:round; stroke-linejoin:round;fill-rule:evenodd;"
d="M 4525,5186
4328,5186
4328,4910
4525,4910
4525,5186
Z" /> 
<path style="fill:#000000; fill-opacity:1.0; 
stroke:#000000; stroke-width:0; stroke-opacity:1; 
stroke-linecap:round; stroke-linejoin:round;fill-rule:evenodd;"
d="M 4525,4674
4328,4674
4328,4399
4525,4399
4525,4674
Z" /> 
</g>
<g >
</g>
<g style="fill:#000000; fill-opacity:1.0; 
stroke:#000000; stroke-width:0; stroke-opacity:1; 
stroke-linecap:round; stroke-linejoin:round;">
<path style="fill:#000000; fill-opacity:1.0; 
stroke:#000000; stroke-width:0; stroke-opacity:1; 
stroke-linecap:round; stroke-linejoin:round;fill-rule:evenodd;"
d="M 6237,5207
6237,4361
7084,4361
7084,5207
6237,5207
Z" /> 
<path style="fill:#000000; fill-opacity:1.0; 
stroke:#000000; stroke-width:0; stroke-opacity:1; 
stroke-linecap:round; stroke-linejoin:round;fill-rule:evenodd;"
d="M 6208,5630
6208,5276
6326,5276
6326,5630
6208,5630
Z" /> 
<path style="fill:#000000; fill-opacity:1.0; 
stroke:#000000; stroke-width:0; stroke-opacity:1; 
stroke-linecap:round; stroke-linejoin:round;fill-rule:evenodd;"
d="M 6404,5630
6404,5276
6523,5276
6523,5630
6404,5630
Z" /> 
<path style="fill:#000000; fill-opacity:1.0; 
stroke:#000000; stroke-width:0; stroke-opacity:1; 
stroke-linecap:round; stroke-linejoin:round;fill-rule:evenodd;"
d="M 6601,5630
6601,5276
6719,5276
6719,5630
6601,5630
Z" /> 
<path style="fill:#000000; fill-opacity:1.0; 
stroke:#000000; stroke-width:0; stroke-opacity:1; 
stroke-linecap:round; stroke-linejoin:round;fill-rule:evenodd;"
d="M 6798,5630
6798,5276
6916,5276
6916,5630
6798,5630
Z" /> 
<path style="fill:#000000; fill-opacity:1.0; 
stroke:#000000; stroke-width:0; stroke-opacity:1; 
stroke-linecap:round; stroke-linejoin:round;fill-rule:evenodd;"
d="M 6995,5630
6995,5276
7113,5276
7113,5630
6995,5630
Z" /> 
<path style="fill:#000000; fill-opacity:1.0; 
stroke:#000000; stroke-width:0; stroke-opacity:1; 
stroke-linecap:round; stroke-linejoin:round;fill-rule:evenodd;"
d="M 7153,5118
7507,5118
7507,5237
7153,5237
7153,5118
Z" /> 
<path style="fill:#000000; fill-opacity:1.0; 
stroke:#000000; stroke-width:0; stroke-opacity:1; 
stroke-linecap:round; stroke-linejoin:round;fill-rule:evenodd;"
d="M 7153,4922
7507,4922
7507,5040
7153,5040
7153,4922
Z" /> 
<path style="fill:#000000; fill-opacity:1.0; 
stroke:#000000; stroke-width:0; stroke-opacity:1; 
stroke-linecap:round; stroke-linejoin:round;fill-rule:evenodd;"
d="M 7153,4725
7507,4725
7507,4843
7153,4843
7153,4725
Z" /> 
<path style="fill:#000000; fill-opacity:1.0; 
stroke:#000000; stroke-width:0; stroke-opacity:1; 
stroke-linecap:round; stroke-linejoin:round;fill-rule:evenodd;"
d="M 7153,4528
7507,4528
7507,4646
7153,4646
7153,4528
Z" /> 
<path style="fill:#000000; fill-opacity:1.0; 
stroke:#000000; stroke-width:0; stroke-opacity:1; 
stroke-linecap:round; stroke-linejoin:round;fill-rule:evenodd;"
d="M 7153,4331
7507,4331
7507,4449
7153,4449
7153,4331
Z" /> 
<path style="fill:#000000; fill-opacity:1.0; 
stroke:#000000; stroke-width:0; stroke-opacity:1; 
stroke-linecap:round; stroke-linejoin:round;fill-rule:evenodd;"
d="M 6995,4292
6995,3937
7113,3937
7113,4292
6995,4292
Z" /> 
<path style="fill:#000000; fill-opacity:1.0; 
stroke:#000000; stroke-width:0; stroke-opacity:1; 
stroke-linecap:round; stroke-linejoin:round;fill-rule:evenodd;"
d="M 6798,4292
6798,3937
6916,3937
6916,4292
6798,4292
Z" /> 
<path style="fill:#000000; fill-opacity:1.0; 
stroke:#000000; stroke-width:0; stroke-opacity:1; 
stroke-linecap:round; stroke-linejoin:round;fill-rule:evenodd;"
d="M 6601,4292
6601,3937
6719,3937
6719,4292
6601,4292
Z" /> 
<path style="fill:#000000; fill-opacity:1.0; 
stroke:#000000; stroke-width:0; stroke-opacity:1; 
stroke-linecap:round; stroke-linejoin:round;fill-rule:evenodd;"
d="M 6404,4292
6404,3937
6523,3937
6523,4292
6404,4292
Z" /> 
<path style="fill:#000000; fill-opacity:1.0; 
stroke:#000000; stroke-width:0; stroke-opacity:1; 
stroke-linecap:round; stroke-linejoin:round;fill-rule:evenodd;"
d="M 6208,4292
6208,3937
6326,3937
6326,4292
6208,4292
Z" /> 
<path style="fill:#000000; fill-opacity:1.0; 
stroke:#000000; stroke-width:0; stroke-opacity:1; 
stroke-linecap:round; stroke-linejoin:round;fill-rule:evenodd;"
d="M 5814,4331
6168,4331
6168,4449
5814,4449
5814,4331
Z" /> 
<path style="fill:#000000; fill-opacity:1.0; 
stroke:#000000; stroke-width:0; stroke-opacity:1; 
stroke-linecap:round; stroke-linejoin:round;fill-rule:evenodd;"
d="M 5814,4528
6168,4528
6168,4646
5814,4646
5814,4528
Z" /> 
<path style="fill:#000000; fill-opacity:1.0; 
stroke:#000000; stroke-width:0; stroke-opacity:1; 
stroke-linecap:round; stroke-linejoin:round;fill-rule:evenodd;"
d="M 5814,4725
6168,4725
6168,4843
5814,4843
5814,4725
Z" /> 
<path style="fill:#000000; fill-opacity:1.0; 
stroke:#000000; stroke-width:0; stroke-opacity:1; 
stroke-linecap:round; stroke-linejoin:round;fill-rule:evenodd;"
d="M 5814,4922
6168,4922
6168,5040
5814,5040
5814,4922
Z" /> 
<path style="fill:#000000; fill-opacity:1.0; 
stroke:#000000; stroke-width:0; stroke-opacity:1; 
stroke-linecap:round; stroke-linejoin:round;fill-rule:evenodd;"
d="M 5814,5118
6168,5118
6168,5237
5814,5237
5814,5118
Z" /> 
</g>
<g >
</g>
<g >
</g>
<g >
</g>
<g >
</g>
<g >
</g>
<g >
</g>
<g >
</g>
<g >
</g>
<g >
</g>
<g >
</g>
<g >
</g>
<g style="fill:#000000; fill-opacity:1.0; 
stroke:#000000; stroke-width:0; stroke-opacity:1; 
stroke-linecap:round; stroke-linejoin:round;">
<path style="fill:#000000; fill-opacity:1.0; 
stroke:#000000; stroke-width:0; stroke-opacity:1; 
stroke-linecap:round; stroke-linejoin:round;fill-rule:evenodd;"
d="M 9659,6833
9659,7148
9344,7148
9344,6833
9659,6833
Z" /> 
<path style="fill:#000000; fill-opacity:1.0; 
stroke:#000000; stroke-width:0; stroke-opacity:1; 
stroke-linecap:round; stroke-linejoin:round;fill-rule:evenodd;"
d="M 9718,5849
9718,6636
9285,6636
9285,5849
9718,5849
Z" /> 
</g>
<g >
</g>
<g style="fill:#000000; fill-opacity:1.0; 
stroke:#000000; stroke-width:0; stroke-opacity:1; 
stroke-linecap:round; stroke-linejoin:round;">
<path style="fill:#000000; fill-opacity:1.0; 
stroke:#000000; stroke-width:0; stroke-opacity:1; 
stroke-linecap:round; stroke-linejoin:round;fill-rule:evenodd;"
d="M 5581,3197
5587,3198
5592,3200
5598,3202
5603,3204
5608,3207
5612,3210
5616,3214
5620,3218
5624,3223
5627,3228
5629,3233
5631,3238
5632,3244
5633,3250
5633,3255
5633,3391
5633,3397
5632,3402
5631,3408
5629,3413
5627,3418
5624,3423
5620,3428
5616,3432
5612,3436
5608,3439
5603,3442
5598,3445
5592,3447
5587,3448
5581,3449
5575,3449
5459,3449
5453,3449
5448,3448
5442,3447
5437,3445
5432,3442
5427,3439
5422,3436
5418,3432
5414,3428
5411,3423
5408,3418
5405,3413
5404,3408
5402,3402
5401,3397
5401,3391
5401,3255
5401,3250
5402,3244
5404,3238
5405,3233
5408,3228
5411,3223
5414,3218
5418,3214
5422,3210
5427,3207
5432,3204
5437,3202
5442,3200
5448,3198
5453,3197
5459,3197
5575,3197
5581,3197
Z" /> 
<path style="fill:#000000; fill-opacity:1.0; 
stroke:#000000; stroke-width:0; stroke-opacity:1; 
stroke-linecap:round; stroke-linejoin:round;fill-rule:evenodd;"
d="M 5199,3197
5205,3198
5210,3200
5216,3202
5221,3204
5226,3207
5230,3210
5234,3214
5238,3218
5242,3223
5245,3228
5247,3233
5249,3238
5250,3244
5251,3250
5251,3255
5251,3391
5251,3397
5250,3402
5249,3408
5247,3413
5245,3418
5242,3423
5238,3428
5234,3432
5230,3436
5226,3439
5221,3442
5216,3445
5210,3447
5205,3448
5199,3449
5193,3449
5077,3449
5072,3449
5066,3448
5060,3447
5055,3445
5050,3442
5045,3439
5040,3436
5036,3432
5032,3428
5029,3423
5026,3418
5024,3413
5022,3408
5020,3402
5019,3397
5019,3391
5019,3255
5019,3250
5020,3244
5022,3238
5024,3233
5026,3228
5029,3223
5032,3218
5036,3214
5040,3210
5045,3207
5050,3204
5055,3202
5060,3200
5066,3198
5072,3197
5077,3197
5193,3197
5199,3197
Z" /> 
</g>
<g >
</g>
<g style="fill:#000000; fill-opacity:1.0; 
stroke:#000000; stroke-width:0; stroke-opacity:1; 
stroke-linecap:round; stroke-linejoin:round;">
<path style="fill:#000000; fill-opacity:1.0; 
stroke:#000000; stroke-width:0; stroke-opacity:1; 
stroke-linecap:round; stroke-linejoin:round;fill-rule:evenodd;"
d="M 6100,2841
6106,2842
6111,2844
6116,2845
6122,2848
6126,2851
6131,2854
6135,2858
6139,2862
6142,2867
6145,2872
6148,2877
6150,2882
6151,2888
6152,2893
6152,2899
6152,3015
6152,3021
6151,3027
6150,3032
6148,3037
6145,3043
6142,3048
6139,3052
6135,3056
6131,3060
6126,3064
6122,3066
6116,3069
6111,3071
6106,3072
6100,3073
6094,3073
5958,3073
5953,3073
5947,3072
5942,3071
5936,3069
5931,3066
5926,3064
5922,3060
5917,3056
5913,3052
5910,3048
5907,3043
5905,3037
5903,3032
5901,3027
5901,3021
5900,3015
5900,2899
5901,2893
5901,2888
5903,2882
5905,2877
5907,2872
5910,2867
5913,2862
5917,2858
5922,2854
5926,2851
5931,2848
5936,2845
5942,2844
5947,2842
5953,2841
5958,2841
6094,2841
6100,2841
Z" /> 
<path style="fill:#000000; fill-opacity:1.0; 
stroke:#000000; stroke-width:0; stroke-opacity:1; 
stroke-linecap:round; stroke-linejoin:round;fill-rule:evenodd;"
d="M 6100,3223
6106,3224
6111,3225
6116,3227
6122,3230
6126,3233
6131,3236
6135,3240
6139,3244
6142,3249
6145,3254
6148,3259
6150,3264
6151,3270
6152,3275
6152,3281
6152,3397
6152,3403
6151,3408
6150,3414
6148,3419
6145,3425
6142,3429
6139,3434
6135,3438
6131,3442
6126,3445
6122,3448
6116,3451
6111,3453
6106,3454
6100,3455
6094,3455
5958,3455
5953,3455
5947,3454
5942,3453
5936,3451
5931,3448
5926,3445
5922,3442
5917,3438
5913,3434
5910,3429
5907,3425
5905,3419
5903,3414
5901,3408
5901,3403
5900,3397
5900,3281
5901,3275
5901,3270
5903,3264
5905,3259
5907,3254
5910,3249
5913,3244
5917,3240
5922,3236
5926,3233
5931,3230
5936,3227
5942,3225
5947,3224
5953,3223
5958,3223
6094,3223
6100,3223
Z" /> 
</g>
<g >
</g>
<g style="fill:#000000; fill-opacity:1.0; 
stroke:#000000; stroke-width:0; stroke-opacity:1; 
stroke-linecap:round; stroke-linejoin:round;">
<path style="fill:#000000; fill-opacity:1.0; 
stroke:#000000; stroke-width:0; stroke-opacity:1; 
stroke-linecap:round; stroke-linejoin:round;fill-rule:evenodd;"
d="M 5399,7872
5405,7873
5410,7875
5416,7877
5421,7879
5426,7882
5430,7885
5434,7889
5438,7893
5442,7898
5445,7903
5447,7908
5449,7913
5450,7919
5451,7925
5451,7930
5451,8066
5451,8072
5450,8077
5449,8083
5447,8088
5445,8093
5442,8098
5438,8103
5434,8107
5430,8111
5426,8114
5421,8117
5416,8120
5410,8122
5405,8123
5399,8124
5393,8124
5277,8124
5272,8124
5266,8123
5260,8122
5255,8120
5250,8117
5245,8114
5240,8111
5236,8107
5232,8103
5229,8098
5226,8093
5224,8088
5222,8083
5220,8077
5219,8072
5219,8066
5219,7930
5219,7925
5220,7919
5222,7913
5224,7908
5226,7903
5229,7898
5232,7893
5236,7889
5240,7885
5245,7882
5250,7879
5255,7877
5260,7875
5266,7873
5272,7872
5277,7872
5393,7872
5399,7872
Z" /> 
<path style="fill:#000000; fill-opacity:1.0; 
stroke:#000000; stroke-width:0; stroke-opacity:1; 
stroke-linecap:round; stroke-linejoin:round;fill-rule:evenodd;"
d="M 5781,7872
5787,7873
5792,7875
5798,7877
5803,7879
5808,7882
5812,7885
5816,7889
5820,7893
5824,7898
5827,7903
5829,7908
5831,7913
5832,7919
5833,7925
5833,7930
5833,8066
5833,8072
5832,8077
5831,8083
5829,8088
5827,8093
5824,8098
5820,8103
5816,8107
5812,8111
5808,8114
5803,8117
5798,8120
5792,8122
5787,8123
5781,8124
5775,8124
5659,8124
5653,8124
5648,8123
5642,8122
5637,8120
5632,8117
5627,8114
5622,8111
5618,8107
5614,8103
5611,8098
5608,8093
5605,8088
5604,8083
5602,8077
5601,8072
5601,8066
5601,7930
5601,7925
5602,7919
5604,7913
5605,7908
5608,7903
5611,7898
5614,7893
5618,7889
5622,7885
5627,7882
5632,7879
5637,7877
5642,7875
5648,7873
5653,7872
5659,7872
5775,7872
5781,7872
Z" /> 
</g>
<g >
</g>
<g style="fill:#000000; fill-opacity:1.0; 
stroke:#000000; stroke-width:0; stroke-opacity:1; 
stroke-linecap:round; stroke-linejoin:round;">
<path style="fill:#000000; fill-opacity:1.0; 
stroke:#000000; stroke-width:0; stroke-opacity:1; 
stroke-linecap:round; stroke-linejoin:round;fill-rule:evenodd;"
d="M 6923,6497
6929,6498
6934,6500
6940,6502
6945,6504
6950,6507
6954,6510
6958,6514
6962,6518
6966,6523
6968,6528
6971,6533
6973,6538
6974,6544
6975,6550
6975,6555
6975,6691
6975,6697
6974,6702
6973,6708
6971,6713
6968,6718
6966,6723
6962,6728
6958,6732
6954,6736
6950,6739
6945,6742
6940,6745
6934,6747
6929,6748
6923,6749
6917,6749
6801,6749
6795,6749
6790,6748
6784,6747
6779,6745
6774,6742
6769,6739
6764,6736
6760,6732
6756,6728
6753,6723
6750,6718
6747,6713
6746,6708
6744,6702
6743,6697
6743,6691
6743,6555
6743,6550
6744,6544
6746,6538
6747,6533
6750,6528
6753,6523
6756,6518
6760,6514
6764,6510
6769,6507
6774,6504
6779,6502
6784,6500
6790,6498
6795,6497
6801,6497
6917,6497
6923,6497
Z" /> 
<path style="fill:#000000; fill-opacity:1.0; 
stroke:#000000; stroke-width:0; stroke-opacity:1; 
stroke-linecap:round; stroke-linejoin:round;fill-rule:evenodd;"
d="M 6541,6497
6547,6498
6552,6500
6558,6502
6563,6504
6568,6507
6572,6510
6576,6514
6580,6518
6584,6523
6587,6528
6589,6533
6591,6538
6592,6544
6593,6550
6593,6555
6593,6691
6593,6697
6592,6702
6591,6708
6589,6713
6587,6718
6584,6723
6580,6728
6576,6732
6572,6736
6568,6739
6563,6742
6558,6745
6552,6747
6547,6748
6541,6749
6535,6749
6419,6749
6414,6749
6408,6748
6402,6747
6397,6745
6392,6742
6387,6739
6382,6736
6378,6732
6374,6728
6371,6723
6368,6718
6366,6713
6364,6708
6362,6702
6361,6697
6361,6691
6361,6555
6361,6550
6362,6544
6364,6538
6366,6533
6368,6528
6371,6523
6374,6518
6378,6514
6382,6510
6387,6507
6392,6504
6397,6502
6402,6500
6408,6498
6414,6497
6419,6497
6535,6497
6541,6497
Z" /> 
</g>
<g >
</g>
<g style="fill:#000000; fill-opacity:1.0; 
stroke:#000000; stroke-width:0; stroke-opacity:1; 
stroke-linecap:round; stroke-linejoin:round;">
<path style="fill:#000000; fill-opacity:1.0; 
stroke:#000000; stroke-width:0; stroke-opacity:1; 
stroke-linecap:round; stroke-linejoin:round;fill-rule:evenodd;"
d="M 12157,4749
12157,5418
11566,5418
11566,4749
12157,4749
Z" /> 
<path style="fill:#000000; fill-opacity:1.0; 
stroke:#000000; stroke-width:0; stroke-opacity:1; 
stroke-linecap:round; stroke-linejoin:round;fill-rule:evenodd;"
d="M 12157,1678
12157,2347
11566,2347
11566,1678
12157,1678
Z" /> 
<path style="fill:#000000; fill-opacity:1.0; 
stroke:#000000; stroke-width:0; stroke-opacity:1; 
stroke-linecap:round; stroke-linejoin:round;fill-rule:evenodd;"
d="M 10110,4385
10543,4385
10543,4483
10110,4483
10110,4385
Z" /> 
<path style="fill:#000000; fill-opacity:1.0; 
stroke:#000000; stroke-width:0; stroke-opacity:1; 
stroke-linecap:round; stroke-linejoin:round;fill-rule:evenodd;"
d="M 10110,4188
10543,4188
10543,4286
10110,4286
10110,4188
Z" /> 
<path style="fill:#000000; fill-opacity:1.0; 
stroke:#000000; stroke-width:0; stroke-opacity:1; 
stroke-linecap:round; stroke-linejoin:round;fill-rule:evenodd;"
d="M 10110,3991
10543,3991
10543,4089
10110,4089
10110,3991
Z" /> 
<path style="fill:#000000; fill-opacity:1.0; 
stroke:#000000; stroke-width:0; stroke-opacity:1; 
stroke-linecap:round; stroke-linejoin:round;fill-rule:evenodd;"
d="M 10110,3794
10543,3794
10543,3893
10110,3893
10110,3794
Z" /> 
<path style="fill:#000000; fill-opacity:1.0; 
stroke:#000000; stroke-width:0; stroke-opacity:1; 
stroke-linecap:round; stroke-linejoin:round;fill-rule:evenodd;"
d="M 10110,3597
10543,3597
10543,3696
10110,3696
10110,3597
Z" /> 
<path style="fill:#000000; fill-opacity:1.0; 
stroke:#000000; stroke-width:0; stroke-opacity:1; 
stroke-linecap:round; stroke-linejoin:round;fill-rule:evenodd;"
d="M 10110,3400
10543,3400
10543,3499
10110,3499
10110,3400
Z" /> 
<path style="fill:#000000; fill-opacity:1.0; 
stroke:#000000; stroke-width:0; stroke-opacity:1; 
stroke-linecap:round; stroke-linejoin:round;fill-rule:evenodd;"
d="M 10110,3204
10543,3204
10543,3302
10110,3302
10110,3204
Z" /> 
<path style="fill:#000000; fill-opacity:1.0; 
stroke:#000000; stroke-width:0; stroke-opacity:1; 
stroke-linecap:round; stroke-linejoin:round;fill-rule:evenodd;"
d="M 10110,3007
10543,3007
10543,3105
10110,3105
10110,3007
Z" /> 
<path style="fill:#000000; fill-opacity:1.0; 
stroke:#000000; stroke-width:0; stroke-opacity:1; 
stroke-linecap:round; stroke-linejoin:round;fill-rule:evenodd;"
d="M 10110,2810
10543,2810
10543,2908
10110,2908
10110,2810
Z" /> 
<path style="fill:#000000; fill-opacity:1.0; 
stroke:#000000; stroke-width:0; stroke-opacity:1; 
stroke-linecap:round; stroke-linejoin:round;fill-rule:evenodd;"
d="M 10110,2613
10543,2613
10543,2712
10110,2712
10110,2613
Z" /> 
</g>
<g >
</g>
<g style="fill:#000000; fill-opacity:1.0; 
stroke:#000000; stroke-width:0; stroke-opacity:1; 
stroke-linecap:round; stroke-linejoin:round;">
<path style="fill:#000000; fill-opacity:1.0; 
stroke:#000000; stroke-width:0; stroke-opacity:1; 
stroke-linecap:round; stroke-linejoin:round;fill-rule:evenodd;"
d="M 11456,6812
11464,6813
11472,6815
11480,6818
11488,6821
11495,6826
11502,6831
11508,6836
11514,6843
11519,6849
11523,6857
11527,6864
11530,6872
11532,6880
11533,6889
11534,6897
11534,7099
11533,7107
11532,7116
11530,7124
11527,7132
11523,7140
11519,7147
11514,7154
11508,7160
11502,7166
11495,7171
11488,7175
11480,7179
11472,7181
11464,7183
11456,7185
11447,7185
11275,7185
11267,7185
11258,7183
11250,7181
11242,7179
11235,7175
11227,7171
11221,7166
11214,7160
11209,7154
11204,7147
11199,7140
11196,7132
11193,7124
11191,7116
11189,7107
11189,7099
11189,6897
11189,6889
11191,6880
11193,6872
11196,6864
11199,6857
11204,6849
11209,6843
11214,6836
11221,6831
11227,6826
11235,6821
11242,6818
11250,6815
11258,6813
11267,6812
11275,6811
11447,6811
11456,6812
Z" /> 
<path style="fill:#000000; fill-opacity:1.0; 
stroke:#000000; stroke-width:0; stroke-opacity:1; 
stroke-linecap:round; stroke-linejoin:round;fill-rule:evenodd;"
d="M 10836,6812
10844,6813
10852,6815
10860,6818
10868,6821
10875,6826
10882,6831
10888,6836
10894,6843
10899,6849
10903,6857
10907,6864
10910,6872
10912,6880
10913,6889
10913,6897
10913,7099
10913,7107
10912,7116
10910,7124
10907,7132
10903,7140
10899,7147
10894,7154
10888,7160
10882,7166
10875,7171
10868,7175
10860,7179
10852,7181
10844,7183
10836,7185
10827,7185
10655,7185
10647,7185
10638,7183
10630,7181
10622,7179
10615,7175
10607,7171
10600,7166
10594,7160
10589,7154
10584,7147
10579,7140
10576,7132
10573,7124
10571,7116
10569,7107
10569,7099
10569,6897
10569,6889
10571,6880
10573,6872
10576,6864
10579,6857
10584,6849
10589,6843
10594,6836
10600,6831
10607,6826
10615,6821
10622,6818
10630,6815
10638,6813
10647,6812
10655,6811
10827,6811
10836,6812
Z" /> 
</g>
<g >
</g>
<g style="fill:#000000; fill-opacity:1.0; 
stroke:#000000; stroke-width:0; stroke-opacity:1; 
stroke-linecap:round; stroke-linejoin:round;">
<path style="fill:#000000; fill-opacity:1.0; 
stroke:#000000; stroke-width:0; stroke-opacity:1; 
stroke-linecap:round; stroke-linejoin:round;fill-rule:evenodd;"
d="M 10225,5566
10231,5567
10236,5569
10241,5570
10247,5573
10251,5576
10256,5579
10260,5583
10264,5587
10267,5592
10270,5597
10273,5602
10275,5607
10276,5613
10277,5618
10277,5624
10277,5740
10277,5746
10276,5752
10275,5757
10273,5762
10270,5768
10267,5773
10264,5777
10260,5781
10256,5785
10251,5789
10247,5791
10241,5794
10236,5796
10231,5797
10225,5798
10219,5798
10083,5798
10078,5798
10072,5797
10067,5796
10061,5794
10056,5791
10051,5789
10047,5785
10042,5781
10038,5777
10035,5773
10032,5768
10030,5762
10028,5757
10026,5752
10026,5746
10025,5740
10025,5624
10026,5618
10026,5613
10028,5607
10030,5602
10032,5597
10035,5592
10038,5587
10042,5583
10047,5579
10051,5576
10056,5573
10061,5570
10067,5569
10072,5567
10078,5566
10083,5566
10219,5566
10225,5566
Z" /> 
<path style="fill:#000000; fill-opacity:1.0; 
stroke:#000000; stroke-width:0; stroke-opacity:1; 
stroke-linecap:round; stroke-linejoin:round;fill-rule:evenodd;"
d="M 10225,5948
10231,5949
10236,5950
10241,5952
10247,5955
10251,5958
10256,5961
10260,5965
10264,5969
10267,5974
10270,5979
10273,5984
10275,5989
10276,5995
10277,6000
10277,6006
10277,6122
10277,6128
10276,6133
10275,6139
10273,6144
10270,6150
10267,6154
10264,6159
10260,6163
10256,6167
10251,6170
10247,6173
10241,6176
10236,6178
10231,6179
10225,6180
10219,6180
10083,6180
10078,6180
10072,6179
10067,6178
10061,6176
10056,6173
10051,6170
10047,6167
10042,6163
10038,6159
10035,6154
10032,6150
10030,6144
10028,6139
10026,6133
10026,6128
10025,6122
10025,6006
10026,6000
10026,5995
10028,5989
10030,5984
10032,5979
10035,5974
10038,5969
10042,5965
10047,5961
10051,5958
10056,5955
10061,5952
10067,5950
10072,5949
10078,5948
10083,5948
10219,5948
10225,5948
Z" /> 
</g>
<g >
</g>
<g style="fill:#000000; fill-opacity:1.0; 
stroke:#000000; stroke-width:0; stroke-opacity:1; 
stroke-linecap:round; stroke-linejoin:round;">
<path style="fill:#000000; fill-opacity:1.0; 
stroke:#000000; stroke-width:0; stroke-opacity:1; 
stroke-linecap:round; stroke-linejoin:round;fill-rule:evenodd;"
d="M 6600,3223
6606,3224
6611,3225
6616,3227
6622,3230
6626,3233
6631,3236
6635,3240
6639,3244
6642,3249
6645,3254
6648,3259
6650,3264
6651,3270
6652,3275
6652,3281
6652,3397
6652,3403
6651,3408
6650,3414
6648,3419
6645,3425
6642,3429
6639,3434
6635,3438
6631,3442
6626,3445
6622,3448
6616,3451
6611,3453
6606,3454
6600,3455
6594,3455
6458,3455
6453,3455
6447,3454
6442,3453
6436,3451
6431,3448
6426,3445
6422,3442
6417,3438
6413,3434
6410,3429
6407,3425
6405,3419
6403,3414
6401,3408
6401,3403
6400,3397
6400,3281
6401,3275
6401,3270
6403,3264
6405,3259
6407,3254
6410,3249
6413,3244
6417,3240
6422,3236
6426,3233
6431,3230
6436,3227
6442,3225
6447,3224
6453,3223
6458,3223
6594,3223
6600,3223
Z" /> 
<path style="fill:#000000; fill-opacity:1.0; 
stroke:#000000; stroke-width:0; stroke-opacity:1; 
stroke-linecap:round; stroke-linejoin:round;fill-rule:evenodd;"
d="M 6600,2841
6606,2842
6611,2844
6616,2845
6622,2848
6626,2851
6631,2854
6635,2858
6639,2862
6642,2867
6645,2872
6648,2877
6650,2882
6651,2888
6652,2893
6652,2899
6652,3015
6652,3021
6651,3027
6650,3032
6648,3037
6645,3043
6642,3048
6639,3052
6635,3056
6631,3060
6626,3064
6622,3066
6616,3069
6611,3071
6606,3072
6600,3073
6594,3073
6458,3073
6453,3073
6447,3072
6442,3071
6436,3069
6431,3066
6426,3064
6422,3060
6417,3056
6413,3052
6410,3048
6407,3043
6405,3037
6403,3032
6401,3027
6401,3021
6400,3015
6400,2899
6401,2893
6401,2888
6403,2882
6405,2877
6407,2872
6410,2867
6413,2862
6417,2858
6422,2854
6426,2851
6431,2848
6436,2845
6442,2844
6447,2842
6453,2841
6458,2841
6594,2841
6600,2841
Z" /> 
</g>
<g >
</g>
<g style="fill:#000000; fill-opacity:1.0; 
stroke:#000000; stroke-width:0; stroke-opacity:1; 
stroke-linecap:round; stroke-linejoin:round;">
<path style="fill:#000000; fill-opacity:1.0; 
stroke:#000000; stroke-width:0; stroke-opacity:1; 
stroke-linecap:round; stroke-linejoin:round;fill-rule:evenodd;"
d="M 7924,4197
7930,4198
7935,4200
7941,4202
7946,4204
7951,4207
7955,4210
7959,4214
7963,4218
7967,4223
7970,4228
7972,4233
7974,4238
7975,4244
7976,4250
7976,4255
7976,4391
7976,4397
7975,4402
7974,4408
7972,4413
7970,4418
7967,4423
7963,4428
7959,4432
7955,4436
7951,4439
7946,4442
7941,4445
7935,4447
7930,4448
7924,4449
7918,4449
7802,4449
7797,4449
7791,4448
7785,4447
7780,4445
7775,4442
7770,4439
7765,4436
7761,4432
7757,4428
7754,4423
7751,4418
7749,4413
7747,4408
7745,4402
7744,4397
7744,4391
7744,4255
7744,4250
7745,4244
7747,4238
7749,4233
7751,4228
7754,4223
7757,4218
7761,4214
7765,4210
7770,4207
7775,4204
7780,4202
7785,4200
7791,4198
7797,4197
7802,4197
7918,4197
7924,4197
Z" /> 
<path style="fill:#000000; fill-opacity:1.0; 
stroke:#000000; stroke-width:0; stroke-opacity:1; 
stroke-linecap:round; stroke-linejoin:round;fill-rule:evenodd;"
d="M 8306,4197
8312,4198
8317,4200
8323,4202
8328,4204
8333,4207
8337,4210
8341,4214
8345,4218
8349,4223
8352,4228
8354,4233
8356,4238
8357,4244
8358,4250
8358,4255
8358,4391
8358,4397
8357,4402
8356,4408
8354,4413
8352,4418
8349,4423
8345,4428
8341,4432
8337,4436
8333,4439
8328,4442
8323,4445
8317,4447
8312,4448
8306,4449
8300,4449
8184,4449
8178,4449
8173,4448
8167,4447
8162,4445
8157,4442
8152,4439
8147,4436
8143,4432
8139,4428
8136,4423
8133,4418
8130,4413
8129,4408
8127,4402
8126,4397
8126,4391
8126,4255
8126,4250
8127,4244
8129,4238
8130,4233
8133,4228
8136,4223
8139,4218
8143,4214
8147,4210
8152,4207
8157,4204
8162,4202
8167,4200
8173,4198
8178,4197
8184,4197
8300,4197
8306,4197
Z" /> 
</g>
<g >
</g>
<g style="fill:#000000; fill-opacity:1.0; 
stroke:#000000; stroke-width:0; stroke-opacity:1; 
stroke-linecap:round; stroke-linejoin:round;">
<path style="fill:#000000; fill-opacity:1.0; 
stroke:#000000; stroke-width:0; stroke-opacity:1; 
stroke-linecap:round; stroke-linejoin:round;fill-rule:evenodd;"
d="M 7924,3197
7930,3198
7935,3200
7941,3202
7946,3204
7951,3207
7955,3210
7959,3214
7963,3218
7967,3223
7970,3228
7972,3233
7974,3238
7975,3244
7976,3250
7976,3255
7976,3391
7976,3397
7975,3402
7974,3408
7972,3413
7970,3418
7967,3423
7963,3428
7959,3432
7955,3436
7951,3439
7946,3442
7941,3445
7935,3447
7930,3448
7924,3449
7918,3449
7802,3449
7797,3449
7791,3448
7785,3447
7780,3445
7775,3442
7770,3439
7765,3436
7761,3432
7757,3428
7754,3423
7751,3418
7749,3413
7747,3408
7745,3402
7744,3397
7744,3391
7744,3255
7744,3250
7745,3244
7747,3238
7749,3233
7751,3228
7754,3223
7757,3218
7761,3214
7765,3210
7770,3207
7775,3204
7780,3202
7785,3200
7791,3198
7797,3197
7802,3197
7918,3197
7924,3197
Z" /> 
<path style="fill:#000000; fill-opacity:1.0; 
stroke:#000000; stroke-width:0; stroke-opacity:1; 
stroke-linecap:round; stroke-linejoin:round;fill-rule:evenodd;"
d="M 8306,3197
8312,3198
8317,3200
8323,3202
8328,3204
8333,3207
8337,3210
8341,3214
8345,3218
8349,3223
8352,3228
8354,3233
8356,3238
8357,3244
8358,3250
8358,3255
8358,3391
8358,3397
8357,3402
8356,3408
8354,3413
8352,3418
8349,3423
8345,3428
8341,3432
8337,3436
8333,3439
8328,3442
8323,3445
8317,3447
8312,3448
8306,3449
8300,3449
8184,3449
8178,3449
8173,3448
8167,3447
8162,3445
8157,3442
8152,3439
8147,3436
8143,3432
8139,3428
8136,3423
8133,3418
8130,3413
8129,3408
8127,3402
8126,3397
8126,3391
8126,3255
8126,3250
8127,3244
8129,3238
8130,3233
8133,3228
8136,3223
8139,3218
8143,3214
8147,3210
8152,3207
8157,3204
8162,3202
8167,3200
8173,3198
8178,3197
8184,3197
8300,3197
8306,3197
Z" /> 
</g>
<g >
</g>
<g style="fill:#000000; fill-opacity:1.0; 
stroke:#000000; stroke-width:0; stroke-opacity:1; 
stroke-linecap:round; stroke-linejoin:round;">
<path style="fill:#000000; fill-opacity:1.0; 
stroke:#000000; stroke-width:0; stroke-opacity:1; 
stroke-linecap:round; stroke-linejoin:round;fill-rule:evenodd;"
d="M 7924,3697
7930,3698
7935,3700
7941,3702
7946,3704
7951,3707
7955,3710
7959,3714
7963,3718
7967,3723
7970,3728
7972,3733
7974,3738
7975,3744
7976,3750
7976,3755
7976,3891
7976,3897
7975,3902
7974,3908
7972,3913
7970,3918
7967,3923
7963,3928
7959,3932
7955,3936
7951,3939
7946,3942
7941,3945
7935,3947
7930,3948
7924,3949
7918,3949
7802,3949
7797,3949
7791,3948
7785,3947
7780,3945
7775,3942
7770,3939
7765,3936
7761,3932
7757,3928
7754,3923
7751,3918
7749,3913
7747,3908
7745,3902
7744,3897
7744,3891
7744,3755
7744,3750
7745,3744
7747,3738
7749,3733
7751,3728
7754,3723
7757,3718
7761,3714
7765,3710
7770,3707
7775,3704
7780,3702
7785,3700
7791,3698
7797,3697
7802,3697
7918,3697
7924,3697
Z" /> 
<path style="fill:#000000; fill-opacity:1.0; 
stroke:#000000; stroke-width:0; stroke-opacity:1; 
stroke-linecap:round; stroke-linejoin:round;fill-rule:evenodd;"
d="M 8306,3697
8312,3698
8317,3700
8323,3702
8328,3704
8333,3707
8337,3710
8341,3714
8345,3718
8349,3723
8352,3728
8354,3733
8356,3738
8357,3744
8358,3750
8358,3755
8358,3891
8358,3897
8357,3902
8356,3908
8354,3913
8352,3918
8349,3923
8345,3928
8341,3932
8337,3936
8333,3939
8328,3942
8323,3945
8317,3947
8312,3948
8306,3949
8300,3949
8184,3949
8178,3949
8173,3948
8167,3947
8162,3945
8157,3942
8152,3939
8147,3936
8143,3932
8139,3928
8136,3923
8133,3918
8130,3913
8129,3908
8127,3902
8126,3897
8126,3891
8126,3755
8126,3750
8127,3744
8129,3738
8130,3733
8133,3728
8136,3723
8139,3718
8143,3714
8147,3710
8152,3707
8157,3704
8162,3702
8167,3700
8173,3698
8178,3697
8184,3697
8300,3697
8306,3697
Z" /> 
</g>
<g >
</g>
<g style="fill:#000000; fill-opacity:1.0; 
stroke:#000000; stroke-width:0; stroke-opacity:1; 
stroke-linecap:round; stroke-linejoin:round;">
<path style="fill:#000000; fill-opacity:1.0; 
stroke:#000000; stroke-width:0; stroke-opacity:1; 
stroke-linecap:round; stroke-linejoin:round;fill-rule:evenodd;"
d="M 7024,3197
7030,3198
7035,3200
7041,3202
7046,3204
7051,3207
7055,3210
7059,3214
7063,3218
7067,3223
7070,3228
7072,3233
7074,3238
7075,3244
7076,3250
7076,3255
7076,3391
7076,3397
7075,3402
7074,3408
7072,3413
7070,3418
7067,3423
7063,3428
7059,3432
7055,3436
7051,3439
7046,3442
7041,3445
7035,3447
7030,3448
7024,3449
7018,3449
6902,3449
6897,3449
6891,3448
6885,3447
6880,3445
6875,3442
6870,3439
6865,3436
6861,3432
6857,3428
6854,3423
6851,3418
6849,3413
6847,3408
6845,3402
6844,3397
6844,3391
6844,3255
6844,3250
6845,3244
6847,3238
6849,3233
6851,3228
6854,3223
6857,3218
6861,3214
6865,3210
6870,3207
6875,3204
6880,3202
6885,3200
6891,3198
6897,3197
6902,3197
7018,3197
7024,3197
Z" /> 
<path style="fill:#000000; fill-opacity:1.0; 
stroke:#000000; stroke-width:0; stroke-opacity:1; 
stroke-linecap:round; stroke-linejoin:round;fill-rule:evenodd;"
d="M 7406,3197
7412,3198
7417,3200
7423,3202
7428,3204
7433,3207
7437,3210
7441,3214
7445,3218
7449,3223
7452,3228
7454,3233
7456,3238
7457,3244
7458,3250
7458,3255
7458,3391
7458,3397
7457,3402
7456,3408
7454,3413
7452,3418
7449,3423
7445,3428
7441,3432
7437,3436
7433,3439
7428,3442
7423,3445
7417,3447
7412,3448
7406,3449
7400,3449
7284,3449
7278,3449
7273,3448
7267,3447
7262,3445
7257,3442
7252,3439
7247,3436
7243,3432
7239,3428
7236,3423
7233,3418
7230,3413
7229,3408
7227,3402
7226,3397
7226,3391
7226,3255
7226,3250
7227,3244
7229,3238
7230,3233
7233,3228
7236,3223
7239,3218
7243,3214
7247,3210
7252,3207
7257,3204
7262,3202
7267,3200
7273,3198
7278,3197
7284,3197
7400,3197
7406,3197
Z" /> 
</g>
<g >
</g>
<g style="fill:#000000; fill-opacity:1.0; 
stroke:#000000; stroke-width:0; stroke-opacity:1; 
stroke-linecap:round; stroke-linejoin:round;">
<path style="fill:#000000; fill-opacity:1.0; 
stroke:#000000; stroke-width:0; stroke-opacity:1; 
stroke-linecap:round; stroke-linejoin:round;fill-rule:evenodd;"
d="M 4999,4397
5005,4398
5010,4400
5016,4402
5021,4404
5026,4407
5030,4410
5034,4414
5038,4418
5042,4423
5045,4428
5047,4433
5049,4438
5050,4444
5051,4450
5051,4455
5051,4591
5051,4597
5050,4602
5049,4608
5047,4613
5045,4618
5042,4623
5038,4628
5034,4632
5030,4636
5026,4639
5021,4642
5016,4645
5010,4647
5005,4648
4999,4649
4993,4649
4877,4649
4872,4649
4866,4648
4860,4647
4855,4645
4850,4642
4845,4639
4840,4636
4836,4632
4832,4628
4829,4623
4826,4618
4824,4613
4822,4608
4820,4602
4819,4597
4819,4591
4819,4455
4819,4450
4820,4444
4822,4438
4824,4433
4826,4428
4829,4423
4832,4418
4836,4414
4840,4410
4845,4407
4850,4404
4855,4402
4860,4400
4866,4398
4872,4397
4877,4397
4993,4397
4999,4397
Z" /> 
<path style="fill:#000000; fill-opacity:1.0; 
stroke:#000000; stroke-width:0; stroke-opacity:1; 
stroke-linecap:round; stroke-linejoin:round;fill-rule:evenodd;"
d="M 5381,4397
5387,4398
5392,4400
5398,4402
5403,4404
5408,4407
5412,4410
5416,4414
5420,4418
5424,4423
5427,4428
5429,4433
5431,4438
5432,4444
5433,4450
5433,4455
5433,4591
5433,4597
5432,4602
5431,4608
5429,4613
5427,4618
5424,4623
5420,4628
5416,4632
5412,4636
5408,4639
5403,4642
5398,4645
5392,4647
5387,4648
5381,4649
5375,4649
5259,4649
5253,4649
5248,4648
5242,4647
5237,4645
5232,4642
5227,4639
5222,4636
5218,4632
5214,4628
5211,4623
5208,4618
5205,4613
5204,4608
5202,4602
5201,4597
5201,4591
5201,4455
5201,4450
5202,4444
5204,4438
5205,4433
5208,4428
5211,4423
5214,4418
5218,4414
5222,4410
5227,4407
5232,4404
5237,4402
5242,4400
5248,4398
5253,4397
5259,4397
5375,4397
5381,4397
Z" /> 
</g>
<g >
</g>
<g style="fill:#000000; fill-opacity:1.0; 
stroke:#000000; stroke-width:0; stroke-opacity:1; 
stroke-linecap:round; stroke-linejoin:round;">
<path style="fill:#000000; fill-opacity:1.0; 
stroke:#000000; stroke-width:0; stroke-opacity:1; 
stroke-linecap:round; stroke-linejoin:round;fill-rule:evenodd;"
d="M 4906,7872
4912,7873
4917,7875
4923,7877
4928,7879
4933,7882
4937,7885
4941,7889
4945,7893
4949,7898
4952,7903
4954,7908
4956,7913
4957,7919
4958,7925
4958,7930
4958,8066
4958,8072
4957,8077
4956,8083
4954,8088
4952,8093
4949,8098
4945,8103
4941,8107
4937,8111
4933,8114
4928,8117
4923,8120
4917,8122
4912,8123
4906,8124
4900,8124
4784,8124
4778,8124
4773,8123
4767,8122
4762,8120
4757,8117
4752,8114
4747,8111
4743,8107
4739,8103
4736,8098
4733,8093
4730,8088
4729,8083
4727,8077
4726,8072
4726,8066
4726,7930
4726,7925
4727,7919
4729,7913
4730,7908
4733,7903
4736,7898
4739,7893
4743,7889
4747,7885
4752,7882
4757,7879
4762,7877
4767,7875
4773,7873
4778,7872
4784,7872
4900,7872
4906,7872
Z" /> 
<path style="fill:#000000; fill-opacity:1.0; 
stroke:#000000; stroke-width:0; stroke-opacity:1; 
stroke-linecap:round; stroke-linejoin:round;fill-rule:evenodd;"
d="M 4524,7872
4530,7873
4535,7875
4541,7877
4546,7879
4551,7882
4555,7885
4559,7889
4563,7893
4567,7898
4570,7903
4572,7908
4574,7913
4575,7919
4576,7925
4576,7930
4576,8066
4576,8072
4575,8077
4574,8083
4572,8088
4570,8093
4567,8098
4563,8103
4559,8107
4555,8111
4551,8114
4546,8117
4541,8120
4535,8122
4530,8123
4524,8124
4518,8124
4402,8124
4397,8124
4391,8123
4385,8122
4380,8120
4375,8117
4370,8114
4365,8111
4361,8107
4357,8103
4354,8098
4351,8093
4349,8088
4347,8083
4345,8077
4344,8072
4344,8066
4344,7930
4344,7925
4345,7919
4347,7913
4349,7908
4351,7903
4354,7898
4357,7893
4361,7889
4365,7885
4370,7882
4375,7879
4380,7877
4385,7875
4391,7873
4397,7872
4402,7872
4518,7872
4524,7872
Z" /> 
</g>
<g >
</g>
<g style="fill:#000000; fill-opacity:1.0; 
stroke:#000000; stroke-width:0; stroke-opacity:1; 
stroke-linecap:round; stroke-linejoin:round;">
<path style="fill:#000000; fill-opacity:1.0; 
stroke:#000000; stroke-width:0; stroke-opacity:1; 
stroke-linecap:round; stroke-linejoin:round;fill-rule:evenodd;"
d="M 9350,3123
9356,3124
9361,3125
9366,3127
9372,3130
9376,3133
9381,3136
9385,3140
9389,3144
9392,3149
9395,3154
9398,3159
9400,3164
9401,3170
9402,3175
9402,3181
9402,3297
9402,3303
9401,3308
9400,3314
9398,3319
9395,3325
9392,3329
9389,3334
9385,3338
9381,3342
9376,3345
9372,3348
9366,3351
9361,3353
9356,3354
9350,3355
9344,3355
9208,3355
9203,3355
9197,3354
9192,3353
9186,3351
9181,3348
9176,3345
9172,3342
9167,3338
9163,3334
9160,3329
9157,3325
9155,3319
9153,3314
9151,3308
9151,3303
9150,3297
9150,3181
9151,3175
9151,3170
9153,3164
9155,3159
9157,3154
9160,3149
9163,3144
9167,3140
9172,3136
9176,3133
9181,3130
9186,3127
9192,3125
9197,3124
9203,3123
9208,3123
9344,3123
9350,3123
Z" /> 
<path style="fill:#000000; fill-opacity:1.0; 
stroke:#000000; stroke-width:0; stroke-opacity:1; 
stroke-linecap:round; stroke-linejoin:round;fill-rule:evenodd;"
d="M 9350,2741
9356,2742
9361,2744
9366,2745
9372,2748
9376,2751
9381,2754
9385,2758
9389,2762
9392,2767
9395,2772
9398,2777
9400,2782
9401,2788
9402,2793
9402,2799
9402,2915
9402,2921
9401,2927
9400,2932
9398,2937
9395,2943
9392,2948
9389,2952
9385,2956
9381,2960
9376,2964
9372,2966
9366,2969
9361,2971
9356,2972
9350,2973
9344,2973
9208,2973
9203,2973
9197,2972
9192,2971
9186,2969
9181,2966
9176,2964
9172,2960
9167,2956
9163,2952
9160,2948
9157,2943
9155,2937
9153,2932
9151,2927
9151,2921
9150,2915
9150,2799
9151,2793
9151,2788
9153,2782
9155,2777
9157,2772
9160,2767
9163,2762
9167,2758
9172,2754
9176,2751
9181,2748
9186,2745
9192,2744
9197,2742
9203,2741
9208,2741
9344,2741
9350,2741
Z" /> 
</g>
<g >
</g>
<g style="fill:#000000; fill-opacity:1.0; 
stroke:#000000; stroke-width:0; stroke-opacity:1; 
stroke-linecap:round; stroke-linejoin:round;">
<path style="fill:#000000; fill-opacity:1.0; 
stroke:#000000; stroke-width:0; stroke-opacity:1; 
stroke-linecap:round; stroke-linejoin:round;fill-rule:evenodd;"
d="M 9800,3298
9806,3299
9811,3300
9816,3302
9822,3305
9826,3308
9831,3311
9835,3315
9839,3319
9842,3324
9845,3329
9848,3334
9850,3339
9851,3345
9852,3350
9852,3356
9852,3472
9852,3478
9851,3483
9850,3489
9848,3494
9845,3500
9842,3504
9839,3509
9835,3513
9831,3517
9826,3520
9822,3523
9816,3526
9811,3528
9806,3529
9800,3530
9794,3530
9658,3530
9653,3530
9647,3529
9642,3528
9636,3526
9631,3523
9626,3520
9622,3517
9617,3513
9613,3509
9610,3504
9607,3500
9605,3494
9603,3489
9601,3483
9601,3478
9600,3472
9600,3356
9601,3350
9601,3345
9603,3339
9605,3334
9607,3329
9610,3324
9613,3319
9617,3315
9622,3311
9626,3308
9631,3305
9636,3302
9642,3300
9647,3299
9653,3298
9658,3298
9794,3298
9800,3298
Z" /> 
<path style="fill:#000000; fill-opacity:1.0; 
stroke:#000000; stroke-width:0; stroke-opacity:1; 
stroke-linecap:round; stroke-linejoin:round;fill-rule:evenodd;"
d="M 9800,2916
9806,2917
9811,2919
9816,2920
9822,2923
9826,2926
9831,2929
9835,2933
9839,2937
9842,2942
9845,2947
9848,2952
9850,2957
9851,2963
9852,2968
9852,2974
9852,3090
9852,3096
9851,3102
9850,3107
9848,3112
9845,3118
9842,3123
9839,3127
9835,3131
9831,3135
9826,3139
9822,3141
9816,3144
9811,3146
9806,3147
9800,3148
9794,3148
9658,3148
9653,3148
9647,3147
9642,3146
9636,3144
9631,3141
9626,3139
9622,3135
9617,3131
9613,3127
9610,3123
9607,3118
9605,3112
9603,3107
9601,3102
9601,3096
9600,3090
9600,2974
9601,2968
9601,2963
9603,2957
9605,2952
9607,2947
9610,2942
9613,2937
9617,2933
9622,2929
9626,2926
9631,2923
9636,2920
9642,2919
9647,2917
9653,2916
9658,2916
9794,2916
9800,2916
Z" /> 
</g>
<g >
</g>
<g style="fill:#000000; fill-opacity:1.0; 
stroke:#000000; stroke-width:0; stroke-opacity:1; 
stroke-linecap:round; stroke-linejoin:round;">
<path style="fill:#000000; fill-opacity:1.0; 
stroke:#000000; stroke-width:0; stroke-opacity:1; 
stroke-linecap:round; stroke-linejoin:round;fill-rule:evenodd;"
d="M 8306,4597
8312,4598
8317,4600
8323,4602
8328,4604
8333,4607
8337,4610
8341,4614
8345,4618
8349,4623
8352,4628
8354,4633
8356,4638
8357,4644
8358,4650
8358,4655
8358,4791
8358,4797
8357,4802
8356,4808
8354,4813
8352,4818
8349,4823
8345,4828
8341,4832
8337,4836
8333,4839
8328,4842
8323,4845
8317,4847
8312,4848
8306,4849
8300,4849
8184,4849
8178,4849
8173,4848
8167,4847
8162,4845
8157,4842
8152,4839
8147,4836
8143,4832
8139,4828
8136,4823
8133,4818
8130,4813
8129,4808
8127,4802
8126,4797
8126,4791
8126,4655
8126,4650
8127,4644
8129,4638
8130,4633
8133,4628
8136,4623
8139,4618
8143,4614
8147,4610
8152,4607
8157,4604
8162,4602
8167,4600
8173,4598
8178,4597
8184,4597
8300,4597
8306,4597
Z" /> 
<path style="fill:#000000; fill-opacity:1.0; 
stroke:#000000; stroke-width:0; stroke-opacity:1; 
stroke-linecap:round; stroke-linejoin:round;fill-rule:evenodd;"
d="M 7924,4597
7930,4598
7935,4600
7941,4602
7946,4604
7951,4607
7955,4610
7959,4614
7963,4618
7967,4623
7970,4628
7972,4633
7974,4638
7975,4644
7976,4650
7976,4655
7976,4791
7976,4797
7975,4802
7974,4808
7972,4813
7970,4818
7967,4823
7963,4828
7959,4832
7955,4836
7951,4839
7946,4842
7941,4845
7935,4847
7930,4848
7924,4849
7918,4849
7802,4849
7797,4849
7791,4848
7785,4847
7780,4845
7775,4842
7770,4839
7765,4836
7761,4832
7757,4828
7754,4823
7751,4818
7749,4813
7747,4808
7745,4802
7744,4797
7744,4791
7744,4655
7744,4650
7745,4644
7747,4638
7749,4633
7751,4628
7754,4623
7757,4618
7761,4614
7765,4610
7770,4607
7775,4604
7780,4602
7785,4600
7791,4598
7797,4597
7802,4597
7918,4597
7924,4597
Z" /> 
</g>
<g >
</g>
<g style="fill:#000000; fill-opacity:1.0; 
stroke:#000000; stroke-width:0; stroke-opacity:1; 
stroke-linecap:round; stroke-linejoin:round;">
<path style="fill:#000000; fill-opacity:1.0; 
stroke:#000000; stroke-width:0; stroke-opacity:1; 
stroke-linecap:round; stroke-linejoin:round;fill-rule:evenodd;"
d="M 8457,7550
8457,5820
9022,5820
9022,7550
8457,7550
Z" /> 
<path style="fill:#000000; fill-opacity:1.0; 
stroke:#000000; stroke-width:0; stroke-opacity:1; 
stroke-linecap:round; stroke-linejoin:round;fill-rule:evenodd;"
d="M 7292,7550
7292,5820
7857,5820
7857,7550
7292,7550
Z" /> 
</g>
<g >
</g>
<g style="fill:#000000; fill-opacity:1.0; 
stroke:#000000; stroke-width:0; stroke-opacity:1; 
stroke-linecap:round; stroke-linejoin:round;">
<path style="fill:#000000; fill-opacity:1.0; 
stroke:#000000; stroke-width:0; stroke-opacity:1; 
stroke-linecap:round; stroke-linejoin:round;fill-rule:evenodd;"
d="M 5351,7563
5351,5833
5916,5833
5916,7563
5351,7563
Z" /> 
<path style="fill:#000000; fill-opacity:1.0; 
stroke:#000000; stroke-width:0; stroke-opacity:1; 
stroke-linecap:round; stroke-linejoin:round;fill-rule:evenodd;"
d="M 4186,7563
4186,5833
4751,5833
4751,7563
4186,7563
Z" /> 
</g>
<g >
</g>
<g style="fill:#000000; fill-opacity:1.0; 
stroke:#000000; stroke-width:0; stroke-opacity:1; 
stroke-linecap:round; stroke-linejoin:round;">
<path style="fill:#000000; fill-opacity:1.0; 
stroke:#000000; stroke-width:0; stroke-opacity:1; 
stroke-linecap:round; stroke-linejoin:round;fill-rule:evenodd;"
d="M 7056,7812
7064,7813
7072,7815
7080,7818
7088,7821
7095,7826
7102,7831
7108,7836
7114,7843
7119,7849
7123,7857
7127,7864
7130,7872
7132,7880
7133,7889
7134,7897
7134,8099
7133,8107
7132,8116
7130,8124
7127,8132
7123,8140
7119,8147
7114,8154
7108,8160
7102,8166
7095,8171
7088,8175
7080,8179
7072,8181
7064,8183
7056,8185
7047,8185
6875,8185
6867,8185
6858,8183
6850,8181
6842,8179
6835,8175
6827,8171
6821,8166
6814,8160
6809,8154
6804,8147
6799,8140
6796,8132
6793,8124
6791,8116
6789,8107
6789,8099
6789,7897
6789,7889
6791,7880
6793,7872
6796,7864
6799,7857
6804,7849
6809,7843
6814,7836
6821,7831
6827,7826
6835,7821
6842,7818
6850,7815
6858,7813
6867,7812
6875,7811
7047,7811
7056,7812
Z" /> 
<path style="fill:#000000; fill-opacity:1.0; 
stroke:#000000; stroke-width:0; stroke-opacity:1; 
stroke-linecap:round; stroke-linejoin:round;fill-rule:evenodd;"
d="M 6436,7812
6444,7813
6452,7815
6460,7818
6468,7821
6475,7826
6482,7831
6488,7836
6494,7843
6499,7849
6503,7857
6507,7864
6510,7872
6512,7880
6513,7889
6513,7897
6513,8099
6513,8107
6512,8116
6510,8124
6507,8132
6503,8140
6499,8147
6494,8154
6488,8160
6482,8166
6475,8171
6468,8175
6460,8179
6452,8181
6444,8183
6436,8185
6427,8185
6255,8185
6247,8185
6238,8183
6230,8181
6222,8179
6215,8175
6207,8171
6200,8166
6194,8160
6189,8154
6184,8147
6179,8140
6176,8132
6173,8124
6171,8116
6169,8107
6169,8099
6169,7897
6169,7889
6171,7880
6173,7872
6176,7864
6179,7857
6184,7849
6189,7843
6194,7836
6200,7831
6207,7826
6215,7821
6222,7818
6230,7815
6238,7813
6247,7812
6255,7811
6427,7811
6436,7812
Z" /> 
</g>
<g >
</g>
<g style="fill:#000000; fill-opacity:1.0; 
stroke:#000000; stroke-width:0; stroke-opacity:1; 
stroke-linecap:round; stroke-linejoin:round;">
<path style="fill:#000000; fill-opacity:1.0; 
stroke:#000000; stroke-width:0; stroke-opacity:1; 
stroke-linecap:round; stroke-linejoin:round;fill-rule:evenodd;"
d="M 8224,5297
8230,5298
8235,5300
8241,5302
8246,5304
8251,5307
8255,5310
8259,5314
8263,5318
8267,5323
8270,5328
8272,5333
8274,5338
8275,5344
8276,5350
8276,5355
8276,5491
8276,5497
8275,5502
8274,5508
8272,5513
8270,5518
8267,5523
8263,5528
8259,5532
8255,5536
8251,5539
8246,5542
8241,5545
8235,5547
8230,5548
8224,5549
8218,5549
8102,5549
8097,5549
8091,5548
8085,5547
8080,5545
8075,5542
8070,5539
8065,5536
8061,5532
8057,5528
8054,5523
8051,5518
8049,5513
8047,5508
8045,5502
8044,5497
8044,5491
8044,5355
8044,5350
8045,5344
8047,5338
8049,5333
8051,5328
8054,5323
8057,5318
8061,5314
8065,5310
8070,5307
8075,5304
8080,5302
8085,5300
8091,5298
8097,5297
8102,5297
8218,5297
8224,5297
Z" /> 
<path style="fill:#000000; fill-opacity:1.0; 
stroke:#000000; stroke-width:0; stroke-opacity:1; 
stroke-linecap:round; stroke-linejoin:round;fill-rule:evenodd;"
d="M 8606,5297
8612,5298
8617,5300
8623,5302
8628,5304
8633,5307
8637,5310
8641,5314
8645,5318
8649,5323
8652,5328
8654,5333
8656,5338
8657,5344
8658,5350
8658,5355
8658,5491
8658,5497
8657,5502
8656,5508
8654,5513
8652,5518
8649,5523
8645,5528
8641,5532
8637,5536
8633,5539
8628,5542
8623,5545
8617,5547
8612,5548
8606,5549
8600,5549
8484,5549
8478,5549
8473,5548
8467,5547
8462,5545
8457,5542
8452,5539
8447,5536
8443,5532
8439,5528
8436,5523
8433,5518
8430,5513
8429,5508
8427,5502
8426,5497
8426,5491
8426,5355
8426,5350
8427,5344
8429,5338
8430,5333
8433,5328
8436,5323
8439,5318
8443,5314
8447,5310
8452,5307
8457,5304
8462,5302
8467,5300
8473,5298
8478,5297
8484,5297
8600,5297
8606,5297
Z" /> 
</g>
<g >
</g>
<g style="fill:#000000; fill-opacity:1.0; 
stroke:#000000; stroke-width:0; stroke-opacity:1; 
stroke-linecap:round; stroke-linejoin:round;">
<path style="fill:#000000; fill-opacity:1.0; 
stroke:#000000; stroke-width:0; stroke-opacity:1; 
stroke-linecap:round; stroke-linejoin:round;fill-rule:evenodd;"
d="M 4999,3972
5005,3973
5010,3975
5016,3977
5021,3979
5026,3982
5030,3985
5034,3989
5038,3993
5042,3998
5045,4003
5047,4008
5049,4013
5050,4019
5051,4025
5051,4030
5051,4166
5051,4172
5050,4177
5049,4183
5047,4188
5045,4193
5042,4198
5038,4203
5034,4207
5030,4211
5026,4214
5021,4217
5016,4220
5010,4222
5005,4223
4999,4224
4993,4224
4877,4224
4872,4224
4866,4223
4860,4222
4855,4220
4850,4217
4845,4214
4840,4211
4836,4207
4832,4203
4829,4198
4826,4193
4824,4188
4822,4183
4820,4177
4819,4172
4819,4166
4819,4030
4819,4025
4820,4019
4822,4013
4824,4008
4826,4003
4829,3998
4832,3993
4836,3989
4840,3985
4845,3982
4850,3979
4855,3977
4860,3975
4866,3973
4872,3972
4877,3972
4993,3972
4999,3972
Z" /> 
<path style="fill:#000000; fill-opacity:1.0; 
stroke:#000000; stroke-width:0; stroke-opacity:1; 
stroke-linecap:round; stroke-linejoin:round;fill-rule:evenodd;"
d="M 5381,3972
5387,3973
5392,3975
5398,3977
5403,3979
5408,3982
5412,3985
5416,3989
5420,3993
5424,3998
5427,4003
5429,4008
5431,4013
5432,4019
5433,4025
5433,4030
5433,4166
5433,4172
5432,4177
5431,4183
5429,4188
5427,4193
5424,4198
5420,4203
5416,4207
5412,4211
5408,4214
5403,4217
5398,4220
5392,4222
5387,4223
5381,4224
5375,4224
5259,4224
5253,4224
5248,4223
5242,4222
5237,4220
5232,4217
5227,4214
5222,4211
5218,4207
5214,4203
5211,4198
5208,4193
5205,4188
5204,4183
5202,4177
5201,4172
5201,4166
5201,4030
5201,4025
5202,4019
5204,4013
5205,4008
5208,4003
5211,3998
5214,3993
5218,3989
5222,3985
5227,3982
5232,3979
5237,3977
5242,3975
5248,3973
5253,3972
5259,3972
5375,3972
5381,3972
Z" /> 
</g>
<g >
</g>
<g style="fill:#000000; fill-opacity:1.0; 
stroke:#000000; stroke-width:0; stroke-opacity:1; 
stroke-linecap:round; stroke-linejoin:round;">
<path style="fill:#000000; fill-opacity:1.0; 
stroke:#000000; stroke-width:0; stroke-opacity:1; 
stroke-linecap:round; stroke-linejoin:round;fill-rule:evenodd;"
d="M 4081,7872
4087,7873
4092,7875
4098,7877
4103,7879
4108,7882
4112,7885
4116,7889
4120,7893
4124,7898
4127,7903
4129,7908
4131,7913
4132,7919
4133,7925
4133,7930
4133,8066
4133,8072
4132,8077
4131,8083
4129,8088
4127,8093
4124,8098
4120,8103
4116,8107
4112,8111
4108,8114
4103,8117
4098,8120
4092,8122
4087,8123
4081,8124
4075,8124
3959,8124
3953,8124
3948,8123
3942,8122
3937,8120
3932,8117
3927,8114
3922,8111
3918,8107
3914,8103
3911,8098
3908,8093
3905,8088
3904,8083
3902,8077
3901,8072
3901,8066
3901,7930
3901,7925
3902,7919
3904,7913
3905,7908
3908,7903
3911,7898
3914,7893
3918,7889
3922,7885
3927,7882
3932,7879
3937,7877
3942,7875
3948,7873
3953,7872
3959,7872
4075,7872
4081,7872
Z" /> 
<path style="fill:#000000; fill-opacity:1.0; 
stroke:#000000; stroke-width:0; stroke-opacity:1; 
stroke-linecap:round; stroke-linejoin:round;fill-rule:evenodd;"
d="M 3699,7872
3705,7873
3710,7875
3716,7877
3721,7879
3726,7882
3730,7885
3734,7889
3738,7893
3742,7898
3745,7903
3747,7908
3749,7913
3750,7919
3751,7925
3751,7930
3751,8066
3751,8072
3750,8077
3749,8083
3747,8088
3745,8093
3742,8098
3738,8103
3734,8107
3730,8111
3726,8114
3721,8117
3716,8120
3710,8122
3705,8123
3699,8124
3693,8124
3577,8124
3572,8124
3566,8123
3560,8122
3555,8120
3550,8117
3545,8114
3540,8111
3536,8107
3532,8103
3529,8098
3526,8093
3524,8088
3522,8083
3520,8077
3519,8072
3519,8066
3519,7930
3519,7925
3520,7919
3522,7913
3524,7908
3526,7903
3529,7898
3532,7893
3536,7889
3540,7885
3545,7882
3550,7879
3555,7877
3560,7875
3566,7873
3572,7872
3577,7872
3693,7872
3699,7872
Z" /> 
</g>
<g >
</g>
<g style="fill:#000000; fill-opacity:1.0; 
stroke:#000000; stroke-width:0; stroke-opacity:1; 
stroke-linecap:round; stroke-linejoin:round;">
<path style="fill:#000000; fill-opacity:1.0; 
stroke:#000000; stroke-width:0; stroke-opacity:1; 
stroke-linecap:round; stroke-linejoin:round;fill-rule:evenodd;"
d="M 10225,6516
10231,6517
10236,6519
10241,6520
10247,6523
10251,6526
10256,6529
10260,6533
10264,6537
10267,6542
10270,6547
10273,6552
10275,6557
10276,6563
10277,6568
10277,6574
10277,6690
10277,6696
10276,6702
10275,6707
10273,6712
10270,6718
10267,6723
10264,6727
10260,6731
10256,6735
10251,6739
10247,6741
10241,6744
10236,6746
10231,6747
10225,6748
10219,6748
10083,6748
10078,6748
10072,6747
10067,6746
10061,6744
10056,6741
10051,6739
10047,6735
10042,6731
10038,6727
10035,6723
10032,6718
10030,6712
10028,6707
10026,6702
10026,6696
10025,6690
10025,6574
10026,6568
10026,6563
10028,6557
10030,6552
10032,6547
10035,6542
10038,6537
10042,6533
10047,6529
10051,6526
10056,6523
10061,6520
10067,6519
10072,6517
10078,6516
10083,6516
10219,6516
10225,6516
Z" /> 
<path style="fill:#000000; fill-opacity:1.0; 
stroke:#000000; stroke-width:0; stroke-opacity:1; 
stroke-linecap:round; stroke-linejoin:round;fill-rule:evenodd;"
d="M 10225,6898
10231,6899
10236,6900
10241,6902
10247,6905
10251,6908
10256,6911
10260,6915
10264,6919
10267,6924
10270,6929
10273,6934
10275,6939
10276,6945
10277,6950
10277,6956
10277,7072
10277,7078
10276,7083
10275,7089
10273,7094
10270,7100
10267,7104
10264,7109
10260,7113
10256,7117
10251,7120
10247,7123
10241,7126
10236,7128
10231,7129
10225,7130
10219,7130
10083,7130
10078,7130
10072,7129
10067,7128
10061,7126
10056,7123
10051,7120
10047,7117
10042,7113
10038,7109
10035,7104
10032,7100
10030,7094
10028,7089
10026,7083
10026,7078
10025,7072
10025,6956
10026,6950
10026,6945
10028,6939
10030,6934
10032,6929
10035,6924
10038,6919
10042,6915
10047,6911
10051,6908
10056,6905
10061,6902
10067,6900
10072,6899
10078,6898
10083,6898
10219,6898
10225,6898
Z" /> 
</g>
<g >
</g>
<g style="fill:#000000; fill-opacity:1.0; 
stroke:#000000; stroke-width:0; stroke-opacity:1; 
stroke-linecap:round; stroke-linejoin:round;">
<path style="fill:#000000; fill-opacity:1.0; 
stroke:#000000; stroke-width:0; stroke-opacity:1; 
stroke-linecap:round; stroke-linejoin:round;fill-rule:evenodd;"
d="M 4999,4972
5005,4973
5010,4975
5016,4977
5021,4979
5026,4982
5030,4985
5034,4989
5038,4993
5042,4998
5045,5003
5047,5008
5049,5013
5050,5019
5051,5025
5051,5030
5051,5166
5051,5172
5050,5177
5049,5183
5047,5188
5045,5193
5042,5198
5038,5203
5034,5207
5030,5211
5026,5214
5021,5217
5016,5220
5010,5222
5005,5223
4999,5224
4993,5224
4877,5224
4872,5224
4866,5223
4860,5222
4855,5220
4850,5217
4845,5214
4840,5211
4836,5207
4832,5203
4829,5198
4826,5193
4824,5188
4822,5183
4820,5177
4819,5172
4819,5166
4819,5030
4819,5025
4820,5019
4822,5013
4824,5008
4826,5003
4829,4998
4832,4993
4836,4989
4840,4985
4845,4982
4850,4979
4855,4977
4860,4975
4866,4973
4872,4972
4877,4972
4993,4972
4999,4972
Z" /> 
<path style="fill:#000000; fill-opacity:1.0; 
stroke:#000000; stroke-width:0; stroke-opacity:1; 
stroke-linecap:round; stroke-linejoin:round;fill-rule:evenodd;"
d="M 5381,4972
5387,4973
5392,4975
5398,4977
5403,4979
5408,4982
5412,4985
5416,4989
5420,4993
5424,4998
5427,5003
5429,5008
5431,5013
5432,5019
5433,5025
5433,5030
5433,5166
5433,5172
5432,5177
5431,5183
5429,5188
5427,5193
5424,5198
5420,5203
5416,5207
5412,5211
5408,5214
5403,5217
5398,5220
5392,5222
5387,5223
5381,5224
5375,5224
5259,5224
5253,5224
5248,5223
5242,5222
5237,5220
5232,5217
5227,5214
5222,5211
5218,5207
5214,5203
5211,5198
5208,5193
5205,5188
5204,5183
5202,5177
5201,5172
5201,5166
5201,5030
5201,5025
5202,5019
5204,5013
5205,5008
5208,5003
5211,4998
5214,4993
5218,4989
5222,4985
5227,4982
5232,4979
5237,4977
5242,4975
5248,4973
5253,4972
5259,4972
5375,4972
5381,4972
Z" /> 
</g>
<g >
</g>
<g style="fill:#000000; fill-opacity:1.0; 
stroke:#000000; stroke-width:0; stroke-opacity:1; 
stroke-linecap:round; stroke-linejoin:round;">
<path style="fill:#000000; fill-opacity:1.0; 
stroke:#000000; stroke-width:0; stroke-opacity:1; 
stroke-linecap:round; stroke-linejoin:round;fill-rule:evenodd;"
d="M 9081,4197
9087,4198
9092,4200
9098,4202
9103,4204
9108,4207
9112,4210
9116,4214
9120,4218
9124,4223
9127,4228
9129,4233
9131,4238
9132,4244
9133,4250
9133,4255
9133,4391
9133,4397
9132,4402
9131,4408
9129,4413
9127,4418
9124,4423
9120,4428
9116,4432
9112,4436
9108,4439
9103,4442
9098,4445
9092,4447
9087,4448
9081,4449
9075,4449
8959,4449
8953,4449
8948,4448
8942,4447
8937,4445
8932,4442
8927,4439
8922,4436
8918,4432
8914,4428
8911,4423
8908,4418
8905,4413
8904,4408
8902,4402
8901,4397
8901,4391
8901,4255
8901,4250
8902,4244
8904,4238
8905,4233
8908,4228
8911,4223
8914,4218
8918,4214
8922,4210
8927,4207
8932,4204
8937,4202
8942,4200
8948,4198
8953,4197
8959,4197
9075,4197
9081,4197
Z" /> 
<path style="fill:#000000; fill-opacity:1.0; 
stroke:#000000; stroke-width:0; stroke-opacity:1; 
stroke-linecap:round; stroke-linejoin:round;fill-rule:evenodd;"
d="M 8699,4197
8705,4198
8710,4200
8716,4202
8721,4204
8726,4207
8730,4210
8734,4214
8738,4218
8742,4223
8745,4228
8747,4233
8749,4238
8750,4244
8751,4250
8751,4255
8751,4391
8751,4397
8750,4402
8749,4408
8747,4413
8745,4418
8742,4423
8738,4428
8734,4432
8730,4436
8726,4439
8721,4442
8716,4445
8710,4447
8705,4448
8699,4449
8693,4449
8577,4449
8572,4449
8566,4448
8560,4447
8555,4445
8550,4442
8545,4439
8540,4436
8536,4432
8532,4428
8529,4423
8526,4418
8524,4413
8522,4408
8520,4402
8519,4397
8519,4391
8519,4255
8519,4250
8520,4244
8522,4238
8524,4233
8526,4228
8529,4223
8532,4218
8536,4214
8540,4210
8545,4207
8550,4204
8555,4202
8560,4200
8566,4198
8572,4197
8577,4197
8693,4197
8699,4197
Z" /> 
</g>
<g >
</g>
<g >
</g>
<g >
</g>
</g> 
</svg>
