<?xml version="1.0" standalone="no"?>
 <!DOCTYPE svg PUBLIC "-//W3C//DTD SVG 1.1//EN" 
 "http://www.w3.org/Graphics/SVG/1.1/DTD/svg11.dtd"> 
<svg xmlns="http://www.w3.org/2000/svg" version="1.1" 
    width="5.74294cm" height="4.94284cm" viewBox="0 0 22610 19460 ">
<title>SVG Picture created as SolarCellX_v3-F_Paste.svg date 2019/11/01 14:42:22 </title>
  <desc>Picture generated by PCBNEW </desc>
<g style="fill:#000000; fill-opacity:1;stroke:#000000; stroke-opacity:1;
stroke-linecap:round; stroke-linejoin:round; "
 transform="translate(0 0) scale(1 1)">
</g>
<g style="fill:#000000; fill-opacity:0.0; 
stroke:#000000; stroke-width:-0.000393701; stroke-opacity:1; 
stroke-linecap:round; stroke-linejoin:round;">
<g >
</g>
<g >
</g>
<g style="fill:#000000; fill-opacity:0.0; 
stroke:#000000; stroke-width:-0.000393701; stroke-opacity:1; 
stroke-linecap:round; stroke-linejoin:round;">
</g>
<g style="fill:#000000; fill-opacity:0.0; 
stroke:#000000; stroke-width:0; stroke-opacity:1; 
stroke-linecap:round; stroke-linejoin:round;">
</g>
<g style="fill:#000000; fill-opacity:1.0; 
stroke:#000000; stroke-width:0; stroke-opacity:1; 
stroke-linecap:round; stroke-linejoin:round;">
<path style="fill:#000000; fill-opacity:1.0; 
stroke:#000000; stroke-width:0; stroke-opacity:1; 
stroke-linecap:round; stroke-linejoin:round;fill-rule:evenodd;"
d="M 9674,4172
9680,4173
9685,4175
9691,4177
9696,4179
9701,4182
9705,4185
9709,4189
9713,4193
9717,4198
9720,4203
9722,4208
9724,4213
9725,4219
9726,4225
9726,4230
9726,4366
9726,4372
9725,4377
9724,4383
9722,4388
9720,4393
9717,4398
9713,4403
9709,4407
9705,4411
9701,4414
9696,4417
9691,4420
9685,4422
9680,4423
9674,4424
9668,4424
9552,4424
9547,4424
9541,4423
9535,4422
9530,4420
9525,4417
9520,4414
9515,4411
9511,4407
9507,4403
9504,4398
9501,4393
9499,4388
9497,4383
9495,4377
9494,4372
9494,4366
9494,4230
9494,4225
9495,4219
9497,4213
9499,4208
9501,4203
9504,4198
9507,4193
9511,4189
9515,4185
9520,4182
9525,4179
9530,4177
9535,4175
9541,4173
9547,4172
9552,4172
9668,4172
9674,4172
Z" /> 
<path style="fill:#000000; fill-opacity:1.0; 
stroke:#000000; stroke-width:0; stroke-opacity:1; 
stroke-linecap:round; stroke-linejoin:round;fill-rule:evenodd;"
d="M 10056,4172
10062,4173
10067,4175
10073,4177
10078,4179
10083,4182
10087,4185
10091,4189
10095,4193
10099,4198
10102,4203
10104,4208
10106,4213
10107,4219
10108,4225
10108,4230
10108,4366
10108,4372
10107,4377
10106,4383
10104,4388
10102,4393
10099,4398
10095,4403
10091,4407
10087,4411
10083,4414
10078,4417
10073,4420
10067,4422
10062,4423
10056,4424
10050,4424
9934,4424
9928,4424
9923,4423
9917,4422
9912,4420
9907,4417
9902,4414
9897,4411
9893,4407
9889,4403
9886,4398
9883,4393
9880,4388
9879,4383
9877,4377
9876,4372
9876,4366
9876,4230
9876,4225
9877,4219
9879,4213
9880,4208
9883,4203
9886,4198
9889,4193
9893,4189
9897,4185
9902,4182
9907,4179
9912,4177
9917,4175
9923,4173
9928,4172
9934,4172
10050,4172
10056,4172
Z" /> 
</g>
<g >
</g>
<g style="fill:#000000; fill-opacity:1.0; 
stroke:#000000; stroke-width:0; stroke-opacity:1; 
stroke-linecap:round; stroke-linejoin:round;">
<path style="fill:#000000; fill-opacity:1.0; 
stroke:#000000; stroke-width:0; stroke-opacity:1; 
stroke-linecap:round; stroke-linejoin:round;fill-rule:evenodd;"
d="M 9292,4172
9298,4173
9303,4175
9309,4177
9314,4179
9319,4182
9323,4185
9327,4189
9331,4193
9335,4198
9338,4203
9340,4208
9342,4213
9343,4219
9344,4225
9344,4230
9344,4366
9344,4372
9343,4377
9342,4383
9340,4388
9338,4393
9335,4398
9331,4403
9327,4407
9323,4411
9319,4414
9314,4417
9309,4420
9303,4422
9298,4423
9292,4424
9286,4424
9170,4424
9165,4424
9159,4423
9153,4422
9148,4420
9143,4417
9138,4414
9133,4411
9129,4407
9125,4403
9122,4398
9119,4393
9117,4388
9115,4383
9113,4377
9112,4372
9112,4366
9112,4230
9112,4225
9113,4219
9115,4213
9117,4208
9119,4203
9122,4198
9125,4193
9129,4189
9133,4185
9138,4182
9143,4179
9148,4177
9153,4175
9159,4173
9165,4172
9170,4172
9286,4172
9292,4172
Z" /> 
<path style="fill:#000000; fill-opacity:1.0; 
stroke:#000000; stroke-width:0; stroke-opacity:1; 
stroke-linecap:round; stroke-linejoin:round;fill-rule:evenodd;"
d="M 9674,4172
9680,4173
9685,4175
9691,4177
9696,4179
9701,4182
9705,4185
9709,4189
9713,4193
9717,4198
9720,4203
9722,4208
9724,4213
9725,4219
9726,4225
9726,4230
9726,4366
9726,4372
9725,4377
9724,4383
9722,4388
9720,4393
9717,4398
9713,4403
9709,4407
9705,4411
9701,4414
9696,4417
9691,4420
9685,4422
9680,4423
9674,4424
9668,4424
9552,4424
9546,4424
9541,4423
9535,4422
9530,4420
9525,4417
9520,4414
9515,4411
9511,4407
9507,4403
9504,4398
9501,4393
9498,4388
9497,4383
9495,4377
9494,4372
9494,4366
9494,4230
9494,4225
9495,4219
9497,4213
9498,4208
9501,4203
9504,4198
9507,4193
9511,4189
9515,4185
9520,4182
9525,4179
9530,4177
9535,4175
9541,4173
9546,4172
9552,4172
9668,4172
9674,4172
Z" /> 
</g>
<g >
</g>
<g style="fill:#000000; fill-opacity:1.0; 
stroke:#000000; stroke-width:0; stroke-opacity:1; 
stroke-linecap:round; stroke-linejoin:round;">
<path style="fill:#000000; fill-opacity:1.0; 
stroke:#000000; stroke-width:0; stroke-opacity:1; 
stroke-linecap:round; stroke-linejoin:round;fill-rule:evenodd;"
d="M 9674,4722
9680,4723
9685,4725
9691,4727
9696,4729
9701,4732
9705,4735
9709,4739
9713,4743
9717,4748
9720,4753
9722,4758
9724,4763
9725,4769
9726,4775
9726,4780
9726,4916
9726,4922
9725,4927
9724,4933
9722,4938
9720,4943
9717,4948
9713,4953
9709,4957
9705,4961
9701,4964
9696,4967
9691,4970
9685,4972
9680,4973
9674,4974
9668,4974
9552,4974
9547,4974
9541,4973
9535,4972
9530,4970
9525,4967
9520,4964
9515,4961
9511,4957
9507,4953
9504,4948
9501,4943
9499,4938
9497,4933
9495,4927
9494,4922
9494,4916
9494,4780
9494,4775
9495,4769
9497,4763
9499,4758
9501,4753
9504,4748
9507,4743
9511,4739
9515,4735
9520,4732
9525,4729
9530,4727
9535,4725
9541,4723
9547,4722
9552,4722
9668,4722
9674,4722
Z" /> 
<path style="fill:#000000; fill-opacity:1.0; 
stroke:#000000; stroke-width:0; stroke-opacity:1; 
stroke-linecap:round; stroke-linejoin:round;fill-rule:evenodd;"
d="M 10056,4722
10062,4723
10067,4725
10073,4727
10078,4729
10083,4732
10087,4735
10091,4739
10095,4743
10099,4748
10102,4753
10104,4758
10106,4763
10107,4769
10108,4775
10108,4780
10108,4916
10108,4922
10107,4927
10106,4933
10104,4938
10102,4943
10099,4948
10095,4953
10091,4957
10087,4961
10083,4964
10078,4967
10073,4970
10067,4972
10062,4973
10056,4974
10050,4974
9934,4974
9928,4974
9923,4973
9917,4972
9912,4970
9907,4967
9902,4964
9897,4961
9893,4957
9889,4953
9886,4948
9883,4943
9880,4938
9879,4933
9877,4927
9876,4922
9876,4916
9876,4780
9876,4775
9877,4769
9879,4763
9880,4758
9883,4753
9886,4748
9889,4743
9893,4739
9897,4735
9902,4732
9907,4729
9912,4727
9917,4725
9923,4723
9928,4722
9934,4722
10050,4722
10056,4722
Z" /> 
</g>
<g >
</g>
<g style="fill:#000000; fill-opacity:1.0; 
stroke:#000000; stroke-width:0; stroke-opacity:1; 
stroke-linecap:round; stroke-linejoin:round;">
<path style="fill:#000000; fill-opacity:1.0; 
stroke:#000000; stroke-width:0; stroke-opacity:1; 
stroke-linecap:round; stroke-linejoin:round;fill-rule:evenodd;"
d="M 9292,4722
9298,4723
9303,4725
9309,4727
9314,4729
9319,4732
9323,4735
9327,4739
9331,4743
9335,4748
9338,4753
9340,4758
9342,4763
9343,4769
9344,4775
9344,4780
9344,4916
9344,4922
9343,4927
9342,4933
9340,4938
9338,4943
9335,4948
9331,4953
9327,4957
9323,4961
9319,4964
9314,4967
9309,4970
9303,4972
9298,4973
9292,4974
9286,4974
9170,4974
9165,4974
9159,4973
9153,4972
9148,4970
9143,4967
9138,4964
9133,4961
9129,4957
9125,4953
9122,4948
9119,4943
9117,4938
9115,4933
9113,4927
9112,4922
9112,4916
9112,4780
9112,4775
9113,4769
9115,4763
9117,4758
9119,4753
9122,4748
9125,4743
9129,4739
9133,4735
9138,4732
9143,4729
9148,4727
9153,4725
9159,4723
9165,4722
9170,4722
9286,4722
9292,4722
Z" /> 
<path style="fill:#000000; fill-opacity:1.0; 
stroke:#000000; stroke-width:0; stroke-opacity:1; 
stroke-linecap:round; stroke-linejoin:round;fill-rule:evenodd;"
d="M 9674,4722
9680,4723
9685,4725
9691,4727
9696,4729
9701,4732
9705,4735
9709,4739
9713,4743
9717,4748
9720,4753
9722,4758
9724,4763
9725,4769
9726,4775
9726,4780
9726,4916
9726,4922
9725,4927
9724,4933
9722,4938
9720,4943
9717,4948
9713,4953
9709,4957
9705,4961
9701,4964
9696,4967
9691,4970
9685,4972
9680,4973
9674,4974
9668,4974
9552,4974
9546,4974
9541,4973
9535,4972
9530,4970
9525,4967
9520,4964
9515,4961
9511,4957
9507,4953
9504,4948
9501,4943
9498,4938
9497,4933
9495,4927
9494,4922
9494,4916
9494,4780
9494,4775
9495,4769
9497,4763
9498,4758
9501,4753
9504,4748
9507,4743
9511,4739
9515,4735
9520,4732
9525,4729
9530,4727
9535,4725
9541,4723
9546,4722
9552,4722
9668,4722
9674,4722
Z" /> 
</g>
<g >
</g>
<g >
</g>
<g style="fill:#000000; fill-opacity:1.0; 
stroke:#000000; stroke-width:0; stroke-opacity:1; 
stroke-linecap:round; stroke-linejoin:round;">
<path style="fill:#000000; fill-opacity:1.0; 
stroke:#000000; stroke-width:0; stroke-opacity:1; 
stroke-linecap:round; stroke-linejoin:round;fill-rule:evenodd;"
d="M 15124,3512
14770,3512
14770,3236
15124,3236
15124,3512
Z" /> 
<path style="fill:#000000; fill-opacity:1.0; 
stroke:#000000; stroke-width:0; stroke-opacity:1; 
stroke-linecap:round; stroke-linejoin:round;fill-rule:evenodd;"
d="M 15124,3886
14770,3886
14770,3610
15124,3610
15124,3886
Z" /> 
<path style="fill:#000000; fill-opacity:1.0; 
stroke:#000000; stroke-width:0; stroke-opacity:1; 
stroke-linecap:round; stroke-linejoin:round;fill-rule:evenodd;"
d="M 15124,4260
14770,4260
14770,3984
15124,3984
15124,4260
Z" /> 
<path style="fill:#000000; fill-opacity:1.0; 
stroke:#000000; stroke-width:0; stroke-opacity:1; 
stroke-linecap:round; stroke-linejoin:round;fill-rule:evenodd;"
d="M 13983,4260
13628,4260
13628,3984
13983,3984
13983,4260
Z" /> 
<path style="fill:#000000; fill-opacity:1.0; 
stroke:#000000; stroke-width:0; stroke-opacity:1; 
stroke-linecap:round; stroke-linejoin:round;fill-rule:evenodd;"
d="M 13983,3886
13628,3886
13628,3610
13983,3610
13983,3886
Z" /> 
<path style="fill:#000000; fill-opacity:1.0; 
stroke:#000000; stroke-width:0; stroke-opacity:1; 
stroke-linecap:round; stroke-linejoin:round;fill-rule:evenodd;"
d="M 13983,3512
13628,3512
13628,3236
13983,3236
13983,3512
Z" /> 
</g>
<g >
</g>
<g style="fill:#000000; fill-opacity:1.0; 
stroke:#000000; stroke-width:0; stroke-opacity:1; 
stroke-linecap:round; stroke-linejoin:round;">
<path style="fill:#000000; fill-opacity:1.0; 
stroke:#000000; stroke-width:0; stroke-opacity:1; 
stroke-linecap:round; stroke-linejoin:round;fill-rule:evenodd;"
d="M 14372,4572
14378,4573
14383,4575
14388,4577
14394,4579
14398,4582
14403,4585
14407,4589
14411,4593
14415,4598
14417,4603
14420,4608
14422,4613
14423,4619
14424,4625
14424,4630
14424,4766
14424,4772
14423,4777
14422,4783
14420,4788
14417,4793
14415,4798
14411,4803
14407,4807
14403,4811
14398,4814
14394,4817
14388,4820
14383,4822
14378,4823
14372,4824
14366,4824
14250,4824
14244,4824
14239,4823
14233,4822
14228,4820
14223,4817
14218,4814
14213,4811
14209,4807
14205,4803
14202,4798
14199,4793
14196,4788
14195,4783
14193,4777
14192,4772
14192,4766
14192,4630
14192,4625
14193,4619
14195,4613
14196,4608
14199,4603
14202,4598
14205,4593
14209,4589
14213,4585
14218,4582
14223,4579
14228,4577
14233,4575
14239,4573
14244,4572
14250,4572
14366,4572
14372,4572
Z" /> 
<path style="fill:#000000; fill-opacity:1.0; 
stroke:#000000; stroke-width:0; stroke-opacity:1; 
stroke-linecap:round; stroke-linejoin:round;fill-rule:evenodd;"
d="M 13990,4572
13996,4573
14001,4575
14007,4577
14012,4579
14017,4582
14021,4585
14025,4589
14029,4593
14033,4598
14036,4603
14038,4608
14040,4613
14041,4619
14042,4625
14042,4630
14042,4766
14042,4772
14041,4777
14040,4783
14038,4788
14036,4793
14033,4798
14029,4803
14025,4807
14021,4811
14017,4814
14012,4817
14007,4820
14001,4822
13996,4823
13990,4824
13984,4824
13868,4824
13863,4824
13857,4823
13851,4822
13846,4820
13841,4817
13836,4814
13831,4811
13827,4807
13823,4803
13820,4798
13817,4793
13815,4788
13813,4783
13811,4777
13810,4772
13810,4766
13810,4630
13810,4625
13811,4619
13813,4613
13815,4608
13817,4603
13820,4598
13823,4593
13827,4589
13831,4585
13836,4582
13841,4579
13846,4577
13851,4575
13857,4573
13863,4572
13868,4572
13984,4572
13990,4572
Z" /> 
</g>
<g >
</g>
<g style="fill:#000000; fill-opacity:1.0; 
stroke:#000000; stroke-width:0; stroke-opacity:1; 
stroke-linecap:round; stroke-linejoin:round;">
<path style="fill:#000000; fill-opacity:1.0; 
stroke:#000000; stroke-width:0; stroke-opacity:1; 
stroke-linecap:round; stroke-linejoin:round;fill-rule:evenodd;"
d="M 14756,4572
14762,4573
14767,4575
14773,4577
14778,4579
14783,4582
14787,4585
14791,4589
14795,4593
14799,4598
14802,4603
14804,4608
14806,4613
14807,4619
14808,4625
14808,4630
14808,4766
14808,4772
14807,4777
14806,4783
14804,4788
14802,4793
14799,4798
14795,4803
14791,4807
14787,4811
14783,4814
14778,4817
14773,4820
14767,4822
14762,4823
14756,4824
14750,4824
14634,4824
14628,4824
14623,4823
14617,4822
14612,4820
14607,4817
14602,4814
14597,4811
14593,4807
14589,4803
14586,4798
14583,4793
14580,4788
14579,4783
14577,4777
14576,4772
14576,4766
14576,4630
14576,4625
14577,4619
14579,4613
14580,4608
14583,4603
14586,4598
14589,4593
14593,4589
14597,4585
14602,4582
14607,4579
14612,4577
14617,4575
14623,4573
14628,4572
14634,4572
14750,4572
14756,4572
Z" /> 
<path style="fill:#000000; fill-opacity:1.0; 
stroke:#000000; stroke-width:0; stroke-opacity:1; 
stroke-linecap:round; stroke-linejoin:round;fill-rule:evenodd;"
d="M 14374,4572
14380,4573
14385,4575
14391,4577
14396,4579
14401,4582
14405,4585
14409,4589
14413,4593
14417,4598
14420,4603
14422,4608
14424,4613
14425,4619
14426,4625
14426,4630
14426,4766
14426,4772
14425,4777
14424,4783
14422,4788
14420,4793
14417,4798
14413,4803
14409,4807
14405,4811
14401,4814
14396,4817
14391,4820
14385,4822
14380,4823
14374,4824
14368,4824
14252,4824
14247,4824
14241,4823
14235,4822
14230,4820
14225,4817
14220,4814
14215,4811
14211,4807
14207,4803
14204,4798
14201,4793
14199,4788
14197,4783
14195,4777
14194,4772
14194,4766
14194,4630
14194,4625
14195,4619
14197,4613
14199,4608
14201,4603
14204,4598
14207,4593
14211,4589
14215,4585
14220,4582
14225,4579
14230,4577
14235,4575
14241,4573
14247,4572
14252,4572
14368,4572
14374,4572
Z" /> 
</g>
<g >
</g>
<g style="fill:#000000; fill-opacity:1.0; 
stroke:#000000; stroke-width:0; stroke-opacity:1; 
stroke-linecap:round; stroke-linejoin:round;">
<path style="fill:#000000; fill-opacity:1.0; 
stroke:#000000; stroke-width:0; stroke-opacity:1; 
stroke-linecap:round; stroke-linejoin:round;fill-rule:evenodd;"
d="M 13425,3266
13431,3267
13436,3269
13441,3270
13447,3273
13451,3276
13456,3279
13460,3283
13464,3287
13467,3292
13470,3297
13473,3302
13475,3307
13476,3313
13477,3318
13477,3324
13477,3440
13477,3446
13476,3452
13475,3457
13473,3462
13470,3468
13467,3473
13464,3477
13460,3481
13456,3485
13451,3489
13447,3491
13441,3494
13436,3496
13431,3497
13425,3498
13419,3498
13283,3498
13278,3498
13272,3497
13267,3496
13261,3494
13256,3491
13251,3489
13247,3485
13242,3481
13238,3477
13235,3473
13232,3468
13230,3462
13228,3457
13226,3452
13226,3446
13225,3440
13225,3324
13226,3318
13226,3313
13228,3307
13230,3302
13232,3297
13235,3292
13238,3287
13242,3283
13247,3279
13251,3276
13256,3273
13261,3270
13267,3269
13272,3267
13278,3266
13283,3266
13419,3266
13425,3266
Z" /> 
<path style="fill:#000000; fill-opacity:1.0; 
stroke:#000000; stroke-width:0; stroke-opacity:1; 
stroke-linecap:round; stroke-linejoin:round;fill-rule:evenodd;"
d="M 13425,3648
13431,3649
13436,3650
13441,3652
13447,3655
13451,3658
13456,3661
13460,3665
13464,3669
13467,3674
13470,3679
13473,3684
13475,3689
13476,3695
13477,3700
13477,3706
13477,3822
13477,3828
13476,3833
13475,3839
13473,3844
13470,3850
13467,3854
13464,3859
13460,3863
13456,3867
13451,3870
13447,3873
13441,3876
13436,3878
13431,3879
13425,3880
13419,3880
13283,3880
13278,3880
13272,3879
13267,3878
13261,3876
13256,3873
13251,3870
13247,3867
13242,3863
13238,3859
13235,3854
13232,3850
13230,3844
13228,3839
13226,3833
13226,3828
13225,3822
13225,3706
13226,3700
13226,3695
13228,3689
13230,3684
13232,3679
13235,3674
13238,3669
13242,3665
13247,3661
13251,3658
13256,3655
13261,3652
13267,3650
13272,3649
13278,3648
13283,3648
13419,3648
13425,3648
Z" /> 
</g>
<g >
</g>
<g >
</g>
<g >
</g>
<g >
</g>
<g >
</g>
<g >
</g>
<g style="fill:#000000; fill-opacity:1.0; 
stroke:#000000; stroke-width:0; stroke-opacity:1; 
stroke-linecap:round; stroke-linejoin:round;">
<path style="fill:#000000; fill-opacity:1.0; 
stroke:#000000; stroke-width:0; stroke-opacity:1; 
stroke-linecap:round; stroke-linejoin:round;fill-rule:evenodd;"
d="M 3047,4806
3047,4254
4110,4254
4110,4806
3047,4806
Z" /> 
<path style="fill:#000000; fill-opacity:1.0; 
stroke:#000000; stroke-width:0; stroke-opacity:1; 
stroke-linecap:round; stroke-linejoin:round;fill-rule:evenodd;"
d="M 4504,4806
4504,4254
5055,4254
5055,4806
4504,4806
Z" /> 
</g>
<g >
</g>
<g style="fill:#000000; fill-opacity:1.0; 
stroke:#000000; stroke-width:0; stroke-opacity:1; 
stroke-linecap:round; stroke-linejoin:round;">
<path style="fill:#000000; fill-opacity:1.0; 
stroke:#000000; stroke-width:0; stroke-opacity:1; 
stroke-linecap:round; stroke-linejoin:round;fill-rule:evenodd;"
d="M 12729,4806
12729,4254
13280,4254
13280,4806
12729,4806
Z" /> 
<path style="fill:#000000; fill-opacity:1.0; 
stroke:#000000; stroke-width:0; stroke-opacity:1; 
stroke-linecap:round; stroke-linejoin:round;fill-rule:evenodd;"
d="M 11272,4806
11272,4254
12335,4254
12335,4806
11272,4806
Z" /> 
</g>
<g >
</g>
<g style="fill:#000000; fill-opacity:1.0; 
stroke:#000000; stroke-width:0; stroke-opacity:1; 
stroke-linecap:round; stroke-linejoin:round;">
<path style="fill:#000000; fill-opacity:1.0; 
stroke:#000000; stroke-width:0; stroke-opacity:1; 
stroke-linecap:round; stroke-linejoin:round;fill-rule:evenodd;"
d="M 11525,19077
11525,16164
12312,16164
12312,19077
11525,19077
Z" /> 
<path style="fill:#000000; fill-opacity:1.0; 
stroke:#000000; stroke-width:0; stroke-opacity:1; 
stroke-linecap:round; stroke-linejoin:round;fill-rule:evenodd;"
d="M 3257,19077
3257,16164
4045,16164
4045,19077
3257,19077
Z" /> 
</g>
<g >
</g>
<g style="fill:#000000; fill-opacity:1.0; 
stroke:#000000; stroke-width:0; stroke-opacity:1; 
stroke-linecap:round; stroke-linejoin:round;">
<path style="fill:#000000; fill-opacity:1.0; 
stroke:#000000; stroke-width:0; stroke-opacity:1; 
stroke-linecap:round; stroke-linejoin:round;fill-rule:evenodd;"
d="M 18021,15436
18021,12522
18809,12522
18809,15436
18021,15436
Z" /> 
<path style="fill:#000000; fill-opacity:1.0; 
stroke:#000000; stroke-width:0; stroke-opacity:1; 
stroke-linecap:round; stroke-linejoin:round;fill-rule:evenodd;"
d="M 9753,15436
9753,12522
10541,12522
10541,15436
9753,15436
Z" /> 
</g>
<g >
</g>
<g style="fill:#000000; fill-opacity:1.0; 
stroke:#000000; stroke-width:0; stroke-opacity:1; 
stroke-linecap:round; stroke-linejoin:round;">
<path style="fill:#000000; fill-opacity:1.0; 
stroke:#000000; stroke-width:0; stroke-opacity:1; 
stroke-linecap:round; stroke-linejoin:round;fill-rule:evenodd;"
d="M 18021,11794
18021,8880
18809,8880
18809,11794
18021,11794
Z" /> 
<path style="fill:#000000; fill-opacity:1.0; 
stroke:#000000; stroke-width:0; stroke-opacity:1; 
stroke-linecap:round; stroke-linejoin:round;fill-rule:evenodd;"
d="M 9753,11794
9753,8880
10541,8880
10541,11794
9753,11794
Z" /> 
</g>
<g >
</g>
<g style="fill:#000000; fill-opacity:1.0; 
stroke:#000000; stroke-width:0; stroke-opacity:1; 
stroke-linecap:round; stroke-linejoin:round;">
<path style="fill:#000000; fill-opacity:1.0; 
stroke:#000000; stroke-width:0; stroke-opacity:1; 
stroke-linecap:round; stroke-linejoin:round;fill-rule:evenodd;"
d="M 18021,8250
18021,5337
18809,5337
18809,8250
18021,8250
Z" /> 
<path style="fill:#000000; fill-opacity:1.0; 
stroke:#000000; stroke-width:0; stroke-opacity:1; 
stroke-linecap:round; stroke-linejoin:round;fill-rule:evenodd;"
d="M 9753,8250
9753,5337
10541,5337
10541,8250
9753,8250
Z" /> 
</g>
<g >
</g>
<g style="fill:#000000; fill-opacity:1.0; 
stroke:#000000; stroke-width:0; stroke-opacity:1; 
stroke-linecap:round; stroke-linejoin:round;">
<path style="fill:#000000; fill-opacity:1.0; 
stroke:#000000; stroke-width:0; stroke-opacity:1; 
stroke-linecap:round; stroke-linejoin:round;fill-rule:evenodd;"
d="M 11427,3723
11427,810
12214,810
12214,3723
11427,3723
Z" /> 
<path style="fill:#000000; fill-opacity:1.0; 
stroke:#000000; stroke-width:0; stroke-opacity:1; 
stroke-linecap:round; stroke-linejoin:round;fill-rule:evenodd;"
d="M 3159,3723
3159,810
3946,810
3946,3723
3159,3723
Z" /> 
</g>
<g >
</g>
<g style="fill:#000000; fill-opacity:1.0; 
stroke:#000000; stroke-width:0; stroke-opacity:1; 
stroke-linecap:round; stroke-linejoin:round;">
<path style="fill:#000000; fill-opacity:1.0; 
stroke:#000000; stroke-width:0; stroke-opacity:1; 
stroke-linecap:round; stroke-linejoin:round;fill-rule:evenodd;"
d="M 8572,8250
8572,5337
9360,5337
9360,8250
8572,8250
Z" /> 
<path style="fill:#000000; fill-opacity:1.0; 
stroke:#000000; stroke-width:0; stroke-opacity:1; 
stroke-linecap:round; stroke-linejoin:round;fill-rule:evenodd;"
d="M 305,8250
305,5337
1092,5337
1092,8250
305,8250
Z" /> 
</g>
<g >
</g>
<g style="fill:#000000; fill-opacity:1.0; 
stroke:#000000; stroke-width:0; stroke-opacity:1; 
stroke-linecap:round; stroke-linejoin:round;">
<path style="fill:#000000; fill-opacity:1.0; 
stroke:#000000; stroke-width:0; stroke-opacity:1; 
stroke-linecap:round; stroke-linejoin:round;fill-rule:evenodd;"
d="M 8572,11794
8572,8880
9360,8880
9360,11794
8572,11794
Z" /> 
<path style="fill:#000000; fill-opacity:1.0; 
stroke:#000000; stroke-width:0; stroke-opacity:1; 
stroke-linecap:round; stroke-linejoin:round;fill-rule:evenodd;"
d="M 305,11794
305,8880
1092,8880
1092,11794
305,11794
Z" /> 
</g>
<g >
</g>
<g style="fill:#000000; fill-opacity:1.0; 
stroke:#000000; stroke-width:0; stroke-opacity:1; 
stroke-linecap:round; stroke-linejoin:round;">
<path style="fill:#000000; fill-opacity:1.0; 
stroke:#000000; stroke-width:0; stroke-opacity:1; 
stroke-linecap:round; stroke-linejoin:round;fill-rule:evenodd;"
d="M 8572,15436
8572,12522
9360,12522
9360,15436
8572,15436
Z" /> 
<path style="fill:#000000; fill-opacity:1.0; 
stroke:#000000; stroke-width:0; stroke-opacity:1; 
stroke-linecap:round; stroke-linejoin:round;fill-rule:evenodd;"
d="M 305,15436
305,12522
1092,12522
1092,15436
305,15436
Z" /> 
</g>
<g >
</g>
<g >
</g>
<g >
</g>
<g >
</g>
<g >
</g>
<g >
</g>
<g >
</g>
<g >
</g>
<g >
</g>
<g >
</g>
<g >
</g>
<g >
</g>
<g >
</g>
<g >
</g>
<g >
</g>
<g >
</g>
<g >
</g>
<g >
</g>
<g >
</g>
<g >
</g>
<g >
</g>
<g >
</g>
<g >
</g>
<g >
</g>
<g >
</g>
<g >
</g>
<g >
</g>
<g >
</g>
<g >
</g>
<g >
</g>
</g> 
</svg>
