M48
INCH,TZ
T1C0.0150
T2C0.0157
T3C0.0472
%
G90
G05
T1
X56450Y-45550
X56450Y-46100
X56775Y-46300
X56875Y-33875
X57050Y-33325
X57050Y-34425
X57250Y-33875
X57488Y-45063
X57975Y-45550
X59350Y-43250
X59565Y-45065
X59565Y-46865
X60450Y-45900
X60575Y-44475
X61300Y-44925
X61300Y-43550
X61337Y-46837
X61950Y-35675
X62025Y-44500
X62250Y-45900
X63100Y-43250
X63675Y-34475
X63814Y-37242
X63925Y-34475
X64025Y-41350
X64373Y-36214
X64375Y-38225
X64674Y-36982
X64674Y-37482
X64914Y-36152
X64935Y-37246
X64975Y-40900
X65050Y-39100
X65164Y-36982
X65174Y-37485
X65250Y-40425
X65650Y-40025
X65675Y-38175
X65700Y-36550
X65896Y-41425
X66050Y-37225
X66375Y-41325
X66450Y-41625
X66925Y-39475
X66975Y-41525
T2
X47300Y-34400
X47300Y-34800
X47300Y-44250
X48700Y-47600
X48700Y-48000
T3
X49350Y-42300
X51350Y-42300
X53350Y-42300
X51350Y-37952
X51350Y-39470
X49350Y-35650
X51350Y-35650
X53350Y-35650
T0
M30
