%TF.GenerationSoftware,KiCad,Pcbnew,(5.1.4)-1*%
%TF.CreationDate,2019-10-25T20:54:22-07:00*%
%TF.ProjectId,solarpcd,736f6c61-7270-4636-942e-6b696361645f,rev?*%
%TF.SameCoordinates,Original*%
%TF.FileFunction,Copper,L1,Top*%
%TF.FilePolarity,Positive*%
%FSLAX46Y46*%
G04 Gerber Fmt 4.6, Leading zero omitted, Abs format (unit mm)*
G04 Created by KiCad (PCBNEW (5.1.4)-1) date 2019-10-25 20:54:22*
%MOMM*%
%LPD*%
G04 APERTURE LIST*
%ADD10C,0.300000*%
%ADD11C,0.050000*%
%ADD12C,0.120000*%
%ADD13C,0.100000*%
%ADD14C,0.590000*%
%ADD15C,1.524000*%
%ADD16C,2.032000*%
%ADD17R,2.032000X2.032000*%
%ADD18R,0.900000X0.700000*%
%ADD19R,3.200000X3.200000*%
%ADD20R,2.200000X2.200000*%
%ADD21R,7.400000X2.000000*%
%ADD22R,2.000000X7.400000*%
%ADD23R,1.400000X2.700000*%
%ADD24R,1.400000X1.400000*%
%ADD25R,2.700000X1.400000*%
%ADD26C,0.584200*%
%ADD27C,0.800000*%
%ADD28C,1.000000*%
%ADD29C,0.250000*%
%ADD30C,0.609600*%
%ADD31C,0.248920*%
G04 APERTURE END LIST*
D10*
X164715071Y-77223714D02*
X165715071Y-76866571D01*
X164715071Y-76509428D01*
X164215071Y-75652285D02*
X164215071Y-75509428D01*
X164286500Y-75366571D01*
X164357928Y-75295142D01*
X164500785Y-75223714D01*
X164786500Y-75152285D01*
X165143642Y-75152285D01*
X165429357Y-75223714D01*
X165572214Y-75295142D01*
X165643642Y-75366571D01*
X165715071Y-75509428D01*
X165715071Y-75652285D01*
X165643642Y-75795142D01*
X165572214Y-75866571D01*
X165429357Y-75938000D01*
X165143642Y-76009428D01*
X164786500Y-76009428D01*
X164500785Y-75938000D01*
X164357928Y-75866571D01*
X164286500Y-75795142D01*
X164215071Y-75652285D01*
X164215071Y-74223714D02*
X164215071Y-74080857D01*
X164286500Y-73938000D01*
X164357928Y-73866571D01*
X164500785Y-73795142D01*
X164786500Y-73723714D01*
X165143642Y-73723714D01*
X165429357Y-73795142D01*
X165572214Y-73866571D01*
X165643642Y-73938000D01*
X165715071Y-74080857D01*
X165715071Y-74223714D01*
X165643642Y-74366571D01*
X165572214Y-74438000D01*
X165429357Y-74509428D01*
X165143642Y-74580857D01*
X164786500Y-74580857D01*
X164500785Y-74509428D01*
X164357928Y-74438000D01*
X164286500Y-74366571D01*
X164215071Y-74223714D01*
D11*
X156000000Y-99000000D02*
G75*
G03X156000000Y-99000000I-11000000J0D01*
G01*
X134727563Y-111650000D02*
G75*
G03X134727563Y-111650000I-1029563J0D01*
G01*
X128202563Y-111650000D02*
G75*
G03X128202563Y-111650000I-1029563J0D01*
G01*
X134704563Y-86350000D02*
G75*
G03X134704563Y-86350000I-1029563J0D01*
G01*
X128229563Y-86350000D02*
G75*
G03X128229563Y-86350000I-1029563J0D01*
G01*
X166000000Y-79100000D02*
G75*
G03X166000000Y-79100000I-1100000J0D01*
G01*
X126200000Y-79100000D02*
G75*
G03X126200000Y-79100000I-1100000J0D01*
G01*
X166000000Y-118900000D02*
G75*
G03X166000000Y-118900000I-1100000J0D01*
G01*
D12*
X126200000Y-118900000D02*
G75*
G03X126200000Y-118900000I-1100000J0D01*
G01*
D13*
X177000000Y-70000000D02*
X113000000Y-70000000D01*
X113000000Y-128000000D02*
X177000000Y-128000000D01*
X177000000Y-128000000D02*
X177000000Y-70000000D01*
X113000000Y-70000000D02*
X113000000Y-128000000D01*
G36*
X143567958Y-114107710D02*
G01*
X143582276Y-114109834D01*
X143596317Y-114113351D01*
X143609946Y-114118228D01*
X143623031Y-114124417D01*
X143635447Y-114131858D01*
X143647073Y-114140481D01*
X143657798Y-114150202D01*
X143667519Y-114160927D01*
X143676142Y-114172553D01*
X143683583Y-114184969D01*
X143689772Y-114198054D01*
X143694649Y-114211683D01*
X143698166Y-114225724D01*
X143700290Y-114240042D01*
X143701000Y-114254500D01*
X143701000Y-114599500D01*
X143700290Y-114613958D01*
X143698166Y-114628276D01*
X143694649Y-114642317D01*
X143689772Y-114655946D01*
X143683583Y-114669031D01*
X143676142Y-114681447D01*
X143667519Y-114693073D01*
X143657798Y-114703798D01*
X143647073Y-114713519D01*
X143635447Y-114722142D01*
X143623031Y-114729583D01*
X143609946Y-114735772D01*
X143596317Y-114740649D01*
X143582276Y-114744166D01*
X143567958Y-114746290D01*
X143553500Y-114747000D01*
X143258500Y-114747000D01*
X143244042Y-114746290D01*
X143229724Y-114744166D01*
X143215683Y-114740649D01*
X143202054Y-114735772D01*
X143188969Y-114729583D01*
X143176553Y-114722142D01*
X143164927Y-114713519D01*
X143154202Y-114703798D01*
X143144481Y-114693073D01*
X143135858Y-114681447D01*
X143128417Y-114669031D01*
X143122228Y-114655946D01*
X143117351Y-114642317D01*
X143113834Y-114628276D01*
X143111710Y-114613958D01*
X143111000Y-114599500D01*
X143111000Y-114254500D01*
X143111710Y-114240042D01*
X143113834Y-114225724D01*
X143117351Y-114211683D01*
X143122228Y-114198054D01*
X143128417Y-114184969D01*
X143135858Y-114172553D01*
X143144481Y-114160927D01*
X143154202Y-114150202D01*
X143164927Y-114140481D01*
X143176553Y-114131858D01*
X143188969Y-114124417D01*
X143202054Y-114118228D01*
X143215683Y-114113351D01*
X143229724Y-114109834D01*
X143244042Y-114107710D01*
X143258500Y-114107000D01*
X143553500Y-114107000D01*
X143567958Y-114107710D01*
X143567958Y-114107710D01*
G37*
D14*
X143406000Y-114427000D03*
D13*
G36*
X144537958Y-114107710D02*
G01*
X144552276Y-114109834D01*
X144566317Y-114113351D01*
X144579946Y-114118228D01*
X144593031Y-114124417D01*
X144605447Y-114131858D01*
X144617073Y-114140481D01*
X144627798Y-114150202D01*
X144637519Y-114160927D01*
X144646142Y-114172553D01*
X144653583Y-114184969D01*
X144659772Y-114198054D01*
X144664649Y-114211683D01*
X144668166Y-114225724D01*
X144670290Y-114240042D01*
X144671000Y-114254500D01*
X144671000Y-114599500D01*
X144670290Y-114613958D01*
X144668166Y-114628276D01*
X144664649Y-114642317D01*
X144659772Y-114655946D01*
X144653583Y-114669031D01*
X144646142Y-114681447D01*
X144637519Y-114693073D01*
X144627798Y-114703798D01*
X144617073Y-114713519D01*
X144605447Y-114722142D01*
X144593031Y-114729583D01*
X144579946Y-114735772D01*
X144566317Y-114740649D01*
X144552276Y-114744166D01*
X144537958Y-114746290D01*
X144523500Y-114747000D01*
X144228500Y-114747000D01*
X144214042Y-114746290D01*
X144199724Y-114744166D01*
X144185683Y-114740649D01*
X144172054Y-114735772D01*
X144158969Y-114729583D01*
X144146553Y-114722142D01*
X144134927Y-114713519D01*
X144124202Y-114703798D01*
X144114481Y-114693073D01*
X144105858Y-114681447D01*
X144098417Y-114669031D01*
X144092228Y-114655946D01*
X144087351Y-114642317D01*
X144083834Y-114628276D01*
X144081710Y-114613958D01*
X144081000Y-114599500D01*
X144081000Y-114254500D01*
X144081710Y-114240042D01*
X144083834Y-114225724D01*
X144087351Y-114211683D01*
X144092228Y-114198054D01*
X144098417Y-114184969D01*
X144105858Y-114172553D01*
X144114481Y-114160927D01*
X144124202Y-114150202D01*
X144134927Y-114140481D01*
X144146553Y-114131858D01*
X144158969Y-114124417D01*
X144172054Y-114118228D01*
X144185683Y-114113351D01*
X144199724Y-114109834D01*
X144214042Y-114107710D01*
X144228500Y-114107000D01*
X144523500Y-114107000D01*
X144537958Y-114107710D01*
X144537958Y-114107710D01*
G37*
D14*
X144376000Y-114427000D03*
D15*
X135509000Y-107442000D03*
X130429000Y-107442000D03*
X125349000Y-107442000D03*
X125349000Y-90551000D03*
X130429000Y-90551000D03*
X135509000Y-90551000D03*
D16*
X130429000Y-96398200D03*
D17*
X130429000Y-100253800D03*
D18*
X142314000Y-115699500D03*
X142314000Y-116649500D03*
X142314000Y-117599500D03*
X145214000Y-117599500D03*
X145214000Y-116649500D03*
X145214000Y-115699500D03*
D19*
X151296000Y-112130000D03*
D20*
X155796000Y-110130000D03*
D19*
X160296000Y-112130000D03*
X151296000Y-116630000D03*
X155796000Y-116630000D03*
X160296000Y-116630000D03*
X151296000Y-121130000D03*
X155796000Y-121130000D03*
X160296000Y-121130000D03*
D21*
X119000000Y-96000000D03*
X119000000Y-75000000D03*
X171000000Y-102000000D03*
X171000000Y-123000000D03*
D22*
X162000000Y-79000000D03*
X141000000Y-79000000D03*
D21*
X161000000Y-107000000D03*
X161000000Y-86000000D03*
X119000000Y-102000000D03*
X119000000Y-123000000D03*
X171000000Y-96000000D03*
X171000000Y-75000000D03*
D23*
X126000000Y-100800000D03*
D24*
X126000000Y-103850000D03*
D25*
X163252000Y-89154000D03*
D24*
X160202000Y-89154000D03*
D13*
G36*
X145091958Y-85024710D02*
G01*
X145106276Y-85026834D01*
X145120317Y-85030351D01*
X145133946Y-85035228D01*
X145147031Y-85041417D01*
X145159447Y-85048858D01*
X145171073Y-85057481D01*
X145181798Y-85067202D01*
X145191519Y-85077927D01*
X145200142Y-85089553D01*
X145207583Y-85101969D01*
X145213772Y-85115054D01*
X145218649Y-85128683D01*
X145222166Y-85142724D01*
X145224290Y-85157042D01*
X145225000Y-85171500D01*
X145225000Y-85516500D01*
X145224290Y-85530958D01*
X145222166Y-85545276D01*
X145218649Y-85559317D01*
X145213772Y-85572946D01*
X145207583Y-85586031D01*
X145200142Y-85598447D01*
X145191519Y-85610073D01*
X145181798Y-85620798D01*
X145171073Y-85630519D01*
X145159447Y-85639142D01*
X145147031Y-85646583D01*
X145133946Y-85652772D01*
X145120317Y-85657649D01*
X145106276Y-85661166D01*
X145091958Y-85663290D01*
X145077500Y-85664000D01*
X144782500Y-85664000D01*
X144768042Y-85663290D01*
X144753724Y-85661166D01*
X144739683Y-85657649D01*
X144726054Y-85652772D01*
X144712969Y-85646583D01*
X144700553Y-85639142D01*
X144688927Y-85630519D01*
X144678202Y-85620798D01*
X144668481Y-85610073D01*
X144659858Y-85598447D01*
X144652417Y-85586031D01*
X144646228Y-85572946D01*
X144641351Y-85559317D01*
X144637834Y-85545276D01*
X144635710Y-85530958D01*
X144635000Y-85516500D01*
X144635000Y-85171500D01*
X144635710Y-85157042D01*
X144637834Y-85142724D01*
X144641351Y-85128683D01*
X144646228Y-85115054D01*
X144652417Y-85101969D01*
X144659858Y-85089553D01*
X144668481Y-85077927D01*
X144678202Y-85067202D01*
X144688927Y-85057481D01*
X144700553Y-85048858D01*
X144712969Y-85041417D01*
X144726054Y-85035228D01*
X144739683Y-85030351D01*
X144753724Y-85026834D01*
X144768042Y-85024710D01*
X144782500Y-85024000D01*
X145077500Y-85024000D01*
X145091958Y-85024710D01*
X145091958Y-85024710D01*
G37*
D14*
X144930000Y-85344000D03*
D13*
G36*
X146061958Y-85024710D02*
G01*
X146076276Y-85026834D01*
X146090317Y-85030351D01*
X146103946Y-85035228D01*
X146117031Y-85041417D01*
X146129447Y-85048858D01*
X146141073Y-85057481D01*
X146151798Y-85067202D01*
X146161519Y-85077927D01*
X146170142Y-85089553D01*
X146177583Y-85101969D01*
X146183772Y-85115054D01*
X146188649Y-85128683D01*
X146192166Y-85142724D01*
X146194290Y-85157042D01*
X146195000Y-85171500D01*
X146195000Y-85516500D01*
X146194290Y-85530958D01*
X146192166Y-85545276D01*
X146188649Y-85559317D01*
X146183772Y-85572946D01*
X146177583Y-85586031D01*
X146170142Y-85598447D01*
X146161519Y-85610073D01*
X146151798Y-85620798D01*
X146141073Y-85630519D01*
X146129447Y-85639142D01*
X146117031Y-85646583D01*
X146103946Y-85652772D01*
X146090317Y-85657649D01*
X146076276Y-85661166D01*
X146061958Y-85663290D01*
X146047500Y-85664000D01*
X145752500Y-85664000D01*
X145738042Y-85663290D01*
X145723724Y-85661166D01*
X145709683Y-85657649D01*
X145696054Y-85652772D01*
X145682969Y-85646583D01*
X145670553Y-85639142D01*
X145658927Y-85630519D01*
X145648202Y-85620798D01*
X145638481Y-85610073D01*
X145629858Y-85598447D01*
X145622417Y-85586031D01*
X145616228Y-85572946D01*
X145611351Y-85559317D01*
X145607834Y-85545276D01*
X145605710Y-85530958D01*
X145605000Y-85516500D01*
X145605000Y-85171500D01*
X145605710Y-85157042D01*
X145607834Y-85142724D01*
X145611351Y-85128683D01*
X145616228Y-85115054D01*
X145622417Y-85101969D01*
X145629858Y-85089553D01*
X145638481Y-85077927D01*
X145648202Y-85067202D01*
X145658927Y-85057481D01*
X145670553Y-85048858D01*
X145682969Y-85041417D01*
X145696054Y-85035228D01*
X145709683Y-85030351D01*
X145723724Y-85026834D01*
X145738042Y-85024710D01*
X145752500Y-85024000D01*
X146047500Y-85024000D01*
X146061958Y-85024710D01*
X146061958Y-85024710D01*
G37*
D14*
X145900000Y-85344000D03*
D13*
G36*
X144121678Y-85024710D02*
G01*
X144135996Y-85026834D01*
X144150037Y-85030351D01*
X144163666Y-85035228D01*
X144176751Y-85041417D01*
X144189167Y-85048858D01*
X144200793Y-85057481D01*
X144211518Y-85067202D01*
X144221239Y-85077927D01*
X144229862Y-85089553D01*
X144237303Y-85101969D01*
X144243492Y-85115054D01*
X144248369Y-85128683D01*
X144251886Y-85142724D01*
X144254010Y-85157042D01*
X144254720Y-85171500D01*
X144254720Y-85516500D01*
X144254010Y-85530958D01*
X144251886Y-85545276D01*
X144248369Y-85559317D01*
X144243492Y-85572946D01*
X144237303Y-85586031D01*
X144229862Y-85598447D01*
X144221239Y-85610073D01*
X144211518Y-85620798D01*
X144200793Y-85630519D01*
X144189167Y-85639142D01*
X144176751Y-85646583D01*
X144163666Y-85652772D01*
X144150037Y-85657649D01*
X144135996Y-85661166D01*
X144121678Y-85663290D01*
X144107220Y-85664000D01*
X143812220Y-85664000D01*
X143797762Y-85663290D01*
X143783444Y-85661166D01*
X143769403Y-85657649D01*
X143755774Y-85652772D01*
X143742689Y-85646583D01*
X143730273Y-85639142D01*
X143718647Y-85630519D01*
X143707922Y-85620798D01*
X143698201Y-85610073D01*
X143689578Y-85598447D01*
X143682137Y-85586031D01*
X143675948Y-85572946D01*
X143671071Y-85559317D01*
X143667554Y-85545276D01*
X143665430Y-85530958D01*
X143664720Y-85516500D01*
X143664720Y-85171500D01*
X143665430Y-85157042D01*
X143667554Y-85142724D01*
X143671071Y-85128683D01*
X143675948Y-85115054D01*
X143682137Y-85101969D01*
X143689578Y-85089553D01*
X143698201Y-85077927D01*
X143707922Y-85067202D01*
X143718647Y-85057481D01*
X143730273Y-85048858D01*
X143742689Y-85041417D01*
X143755774Y-85035228D01*
X143769403Y-85030351D01*
X143783444Y-85026834D01*
X143797762Y-85024710D01*
X143812220Y-85024000D01*
X144107220Y-85024000D01*
X144121678Y-85024710D01*
X144121678Y-85024710D01*
G37*
D14*
X143959720Y-85344000D03*
D13*
G36*
X145091678Y-85024710D02*
G01*
X145105996Y-85026834D01*
X145120037Y-85030351D01*
X145133666Y-85035228D01*
X145146751Y-85041417D01*
X145159167Y-85048858D01*
X145170793Y-85057481D01*
X145181518Y-85067202D01*
X145191239Y-85077927D01*
X145199862Y-85089553D01*
X145207303Y-85101969D01*
X145213492Y-85115054D01*
X145218369Y-85128683D01*
X145221886Y-85142724D01*
X145224010Y-85157042D01*
X145224720Y-85171500D01*
X145224720Y-85516500D01*
X145224010Y-85530958D01*
X145221886Y-85545276D01*
X145218369Y-85559317D01*
X145213492Y-85572946D01*
X145207303Y-85586031D01*
X145199862Y-85598447D01*
X145191239Y-85610073D01*
X145181518Y-85620798D01*
X145170793Y-85630519D01*
X145159167Y-85639142D01*
X145146751Y-85646583D01*
X145133666Y-85652772D01*
X145120037Y-85657649D01*
X145105996Y-85661166D01*
X145091678Y-85663290D01*
X145077220Y-85664000D01*
X144782220Y-85664000D01*
X144767762Y-85663290D01*
X144753444Y-85661166D01*
X144739403Y-85657649D01*
X144725774Y-85652772D01*
X144712689Y-85646583D01*
X144700273Y-85639142D01*
X144688647Y-85630519D01*
X144677922Y-85620798D01*
X144668201Y-85610073D01*
X144659578Y-85598447D01*
X144652137Y-85586031D01*
X144645948Y-85572946D01*
X144641071Y-85559317D01*
X144637554Y-85545276D01*
X144635430Y-85530958D01*
X144634720Y-85516500D01*
X144634720Y-85171500D01*
X144635430Y-85157042D01*
X144637554Y-85142724D01*
X144641071Y-85128683D01*
X144645948Y-85115054D01*
X144652137Y-85101969D01*
X144659578Y-85089553D01*
X144668201Y-85077927D01*
X144677922Y-85067202D01*
X144688647Y-85057481D01*
X144700273Y-85048858D01*
X144712689Y-85041417D01*
X144725774Y-85035228D01*
X144739403Y-85030351D01*
X144753444Y-85026834D01*
X144767762Y-85024710D01*
X144782220Y-85024000D01*
X145077220Y-85024000D01*
X145091678Y-85024710D01*
X145091678Y-85024710D01*
G37*
D14*
X144929720Y-85344000D03*
D13*
G36*
X145091958Y-86421710D02*
G01*
X145106276Y-86423834D01*
X145120317Y-86427351D01*
X145133946Y-86432228D01*
X145147031Y-86438417D01*
X145159447Y-86445858D01*
X145171073Y-86454481D01*
X145181798Y-86464202D01*
X145191519Y-86474927D01*
X145200142Y-86486553D01*
X145207583Y-86498969D01*
X145213772Y-86512054D01*
X145218649Y-86525683D01*
X145222166Y-86539724D01*
X145224290Y-86554042D01*
X145225000Y-86568500D01*
X145225000Y-86913500D01*
X145224290Y-86927958D01*
X145222166Y-86942276D01*
X145218649Y-86956317D01*
X145213772Y-86969946D01*
X145207583Y-86983031D01*
X145200142Y-86995447D01*
X145191519Y-87007073D01*
X145181798Y-87017798D01*
X145171073Y-87027519D01*
X145159447Y-87036142D01*
X145147031Y-87043583D01*
X145133946Y-87049772D01*
X145120317Y-87054649D01*
X145106276Y-87058166D01*
X145091958Y-87060290D01*
X145077500Y-87061000D01*
X144782500Y-87061000D01*
X144768042Y-87060290D01*
X144753724Y-87058166D01*
X144739683Y-87054649D01*
X144726054Y-87049772D01*
X144712969Y-87043583D01*
X144700553Y-87036142D01*
X144688927Y-87027519D01*
X144678202Y-87017798D01*
X144668481Y-87007073D01*
X144659858Y-86995447D01*
X144652417Y-86983031D01*
X144646228Y-86969946D01*
X144641351Y-86956317D01*
X144637834Y-86942276D01*
X144635710Y-86927958D01*
X144635000Y-86913500D01*
X144635000Y-86568500D01*
X144635710Y-86554042D01*
X144637834Y-86539724D01*
X144641351Y-86525683D01*
X144646228Y-86512054D01*
X144652417Y-86498969D01*
X144659858Y-86486553D01*
X144668481Y-86474927D01*
X144678202Y-86464202D01*
X144688927Y-86454481D01*
X144700553Y-86445858D01*
X144712969Y-86438417D01*
X144726054Y-86432228D01*
X144739683Y-86427351D01*
X144753724Y-86423834D01*
X144768042Y-86421710D01*
X144782500Y-86421000D01*
X145077500Y-86421000D01*
X145091958Y-86421710D01*
X145091958Y-86421710D01*
G37*
D14*
X144930000Y-86741000D03*
D13*
G36*
X146061958Y-86421710D02*
G01*
X146076276Y-86423834D01*
X146090317Y-86427351D01*
X146103946Y-86432228D01*
X146117031Y-86438417D01*
X146129447Y-86445858D01*
X146141073Y-86454481D01*
X146151798Y-86464202D01*
X146161519Y-86474927D01*
X146170142Y-86486553D01*
X146177583Y-86498969D01*
X146183772Y-86512054D01*
X146188649Y-86525683D01*
X146192166Y-86539724D01*
X146194290Y-86554042D01*
X146195000Y-86568500D01*
X146195000Y-86913500D01*
X146194290Y-86927958D01*
X146192166Y-86942276D01*
X146188649Y-86956317D01*
X146183772Y-86969946D01*
X146177583Y-86983031D01*
X146170142Y-86995447D01*
X146161519Y-87007073D01*
X146151798Y-87017798D01*
X146141073Y-87027519D01*
X146129447Y-87036142D01*
X146117031Y-87043583D01*
X146103946Y-87049772D01*
X146090317Y-87054649D01*
X146076276Y-87058166D01*
X146061958Y-87060290D01*
X146047500Y-87061000D01*
X145752500Y-87061000D01*
X145738042Y-87060290D01*
X145723724Y-87058166D01*
X145709683Y-87054649D01*
X145696054Y-87049772D01*
X145682969Y-87043583D01*
X145670553Y-87036142D01*
X145658927Y-87027519D01*
X145648202Y-87017798D01*
X145638481Y-87007073D01*
X145629858Y-86995447D01*
X145622417Y-86983031D01*
X145616228Y-86969946D01*
X145611351Y-86956317D01*
X145607834Y-86942276D01*
X145605710Y-86927958D01*
X145605000Y-86913500D01*
X145605000Y-86568500D01*
X145605710Y-86554042D01*
X145607834Y-86539724D01*
X145611351Y-86525683D01*
X145616228Y-86512054D01*
X145622417Y-86498969D01*
X145629858Y-86486553D01*
X145638481Y-86474927D01*
X145648202Y-86464202D01*
X145658927Y-86454481D01*
X145670553Y-86445858D01*
X145682969Y-86438417D01*
X145696054Y-86432228D01*
X145709683Y-86427351D01*
X145723724Y-86423834D01*
X145738042Y-86421710D01*
X145752500Y-86421000D01*
X146047500Y-86421000D01*
X146061958Y-86421710D01*
X146061958Y-86421710D01*
G37*
D14*
X145900000Y-86741000D03*
D13*
G36*
X144121678Y-86421710D02*
G01*
X144135996Y-86423834D01*
X144150037Y-86427351D01*
X144163666Y-86432228D01*
X144176751Y-86438417D01*
X144189167Y-86445858D01*
X144200793Y-86454481D01*
X144211518Y-86464202D01*
X144221239Y-86474927D01*
X144229862Y-86486553D01*
X144237303Y-86498969D01*
X144243492Y-86512054D01*
X144248369Y-86525683D01*
X144251886Y-86539724D01*
X144254010Y-86554042D01*
X144254720Y-86568500D01*
X144254720Y-86913500D01*
X144254010Y-86927958D01*
X144251886Y-86942276D01*
X144248369Y-86956317D01*
X144243492Y-86969946D01*
X144237303Y-86983031D01*
X144229862Y-86995447D01*
X144221239Y-87007073D01*
X144211518Y-87017798D01*
X144200793Y-87027519D01*
X144189167Y-87036142D01*
X144176751Y-87043583D01*
X144163666Y-87049772D01*
X144150037Y-87054649D01*
X144135996Y-87058166D01*
X144121678Y-87060290D01*
X144107220Y-87061000D01*
X143812220Y-87061000D01*
X143797762Y-87060290D01*
X143783444Y-87058166D01*
X143769403Y-87054649D01*
X143755774Y-87049772D01*
X143742689Y-87043583D01*
X143730273Y-87036142D01*
X143718647Y-87027519D01*
X143707922Y-87017798D01*
X143698201Y-87007073D01*
X143689578Y-86995447D01*
X143682137Y-86983031D01*
X143675948Y-86969946D01*
X143671071Y-86956317D01*
X143667554Y-86942276D01*
X143665430Y-86927958D01*
X143664720Y-86913500D01*
X143664720Y-86568500D01*
X143665430Y-86554042D01*
X143667554Y-86539724D01*
X143671071Y-86525683D01*
X143675948Y-86512054D01*
X143682137Y-86498969D01*
X143689578Y-86486553D01*
X143698201Y-86474927D01*
X143707922Y-86464202D01*
X143718647Y-86454481D01*
X143730273Y-86445858D01*
X143742689Y-86438417D01*
X143755774Y-86432228D01*
X143769403Y-86427351D01*
X143783444Y-86423834D01*
X143797762Y-86421710D01*
X143812220Y-86421000D01*
X144107220Y-86421000D01*
X144121678Y-86421710D01*
X144121678Y-86421710D01*
G37*
D14*
X143959720Y-86741000D03*
D13*
G36*
X145091678Y-86421710D02*
G01*
X145105996Y-86423834D01*
X145120037Y-86427351D01*
X145133666Y-86432228D01*
X145146751Y-86438417D01*
X145159167Y-86445858D01*
X145170793Y-86454481D01*
X145181518Y-86464202D01*
X145191239Y-86474927D01*
X145199862Y-86486553D01*
X145207303Y-86498969D01*
X145213492Y-86512054D01*
X145218369Y-86525683D01*
X145221886Y-86539724D01*
X145224010Y-86554042D01*
X145224720Y-86568500D01*
X145224720Y-86913500D01*
X145224010Y-86927958D01*
X145221886Y-86942276D01*
X145218369Y-86956317D01*
X145213492Y-86969946D01*
X145207303Y-86983031D01*
X145199862Y-86995447D01*
X145191239Y-87007073D01*
X145181518Y-87017798D01*
X145170793Y-87027519D01*
X145159167Y-87036142D01*
X145146751Y-87043583D01*
X145133666Y-87049772D01*
X145120037Y-87054649D01*
X145105996Y-87058166D01*
X145091678Y-87060290D01*
X145077220Y-87061000D01*
X144782220Y-87061000D01*
X144767762Y-87060290D01*
X144753444Y-87058166D01*
X144739403Y-87054649D01*
X144725774Y-87049772D01*
X144712689Y-87043583D01*
X144700273Y-87036142D01*
X144688647Y-87027519D01*
X144677922Y-87017798D01*
X144668201Y-87007073D01*
X144659578Y-86995447D01*
X144652137Y-86983031D01*
X144645948Y-86969946D01*
X144641071Y-86956317D01*
X144637554Y-86942276D01*
X144635430Y-86927958D01*
X144634720Y-86913500D01*
X144634720Y-86568500D01*
X144635430Y-86554042D01*
X144637554Y-86539724D01*
X144641071Y-86525683D01*
X144645948Y-86512054D01*
X144652137Y-86498969D01*
X144659578Y-86486553D01*
X144668201Y-86474927D01*
X144677922Y-86464202D01*
X144688647Y-86454481D01*
X144700273Y-86445858D01*
X144712689Y-86438417D01*
X144725774Y-86432228D01*
X144739403Y-86427351D01*
X144753444Y-86423834D01*
X144767762Y-86421710D01*
X144782220Y-86421000D01*
X145077220Y-86421000D01*
X145091678Y-86421710D01*
X145091678Y-86421710D01*
G37*
D14*
X144929720Y-86741000D03*
D13*
G36*
X140712458Y-116337710D02*
G01*
X140726776Y-116339834D01*
X140740817Y-116343351D01*
X140754446Y-116348228D01*
X140767531Y-116354417D01*
X140779947Y-116361858D01*
X140791573Y-116370481D01*
X140802298Y-116380202D01*
X140812019Y-116390927D01*
X140820642Y-116402553D01*
X140828083Y-116414969D01*
X140834272Y-116428054D01*
X140839149Y-116441683D01*
X140842666Y-116455724D01*
X140844790Y-116470042D01*
X140845500Y-116484500D01*
X140845500Y-116779500D01*
X140844790Y-116793958D01*
X140842666Y-116808276D01*
X140839149Y-116822317D01*
X140834272Y-116835946D01*
X140828083Y-116849031D01*
X140820642Y-116861447D01*
X140812019Y-116873073D01*
X140802298Y-116883798D01*
X140791573Y-116893519D01*
X140779947Y-116902142D01*
X140767531Y-116909583D01*
X140754446Y-116915772D01*
X140740817Y-116920649D01*
X140726776Y-116924166D01*
X140712458Y-116926290D01*
X140698000Y-116927000D01*
X140353000Y-116927000D01*
X140338542Y-116926290D01*
X140324224Y-116924166D01*
X140310183Y-116920649D01*
X140296554Y-116915772D01*
X140283469Y-116909583D01*
X140271053Y-116902142D01*
X140259427Y-116893519D01*
X140248702Y-116883798D01*
X140238981Y-116873073D01*
X140230358Y-116861447D01*
X140222917Y-116849031D01*
X140216728Y-116835946D01*
X140211851Y-116822317D01*
X140208334Y-116808276D01*
X140206210Y-116793958D01*
X140205500Y-116779500D01*
X140205500Y-116484500D01*
X140206210Y-116470042D01*
X140208334Y-116455724D01*
X140211851Y-116441683D01*
X140216728Y-116428054D01*
X140222917Y-116414969D01*
X140230358Y-116402553D01*
X140238981Y-116390927D01*
X140248702Y-116380202D01*
X140259427Y-116370481D01*
X140271053Y-116361858D01*
X140283469Y-116354417D01*
X140296554Y-116348228D01*
X140310183Y-116343351D01*
X140324224Y-116339834D01*
X140338542Y-116337710D01*
X140353000Y-116337000D01*
X140698000Y-116337000D01*
X140712458Y-116337710D01*
X140712458Y-116337710D01*
G37*
D14*
X140525500Y-116632000D03*
D13*
G36*
X140712458Y-117307710D02*
G01*
X140726776Y-117309834D01*
X140740817Y-117313351D01*
X140754446Y-117318228D01*
X140767531Y-117324417D01*
X140779947Y-117331858D01*
X140791573Y-117340481D01*
X140802298Y-117350202D01*
X140812019Y-117360927D01*
X140820642Y-117372553D01*
X140828083Y-117384969D01*
X140834272Y-117398054D01*
X140839149Y-117411683D01*
X140842666Y-117425724D01*
X140844790Y-117440042D01*
X140845500Y-117454500D01*
X140845500Y-117749500D01*
X140844790Y-117763958D01*
X140842666Y-117778276D01*
X140839149Y-117792317D01*
X140834272Y-117805946D01*
X140828083Y-117819031D01*
X140820642Y-117831447D01*
X140812019Y-117843073D01*
X140802298Y-117853798D01*
X140791573Y-117863519D01*
X140779947Y-117872142D01*
X140767531Y-117879583D01*
X140754446Y-117885772D01*
X140740817Y-117890649D01*
X140726776Y-117894166D01*
X140712458Y-117896290D01*
X140698000Y-117897000D01*
X140353000Y-117897000D01*
X140338542Y-117896290D01*
X140324224Y-117894166D01*
X140310183Y-117890649D01*
X140296554Y-117885772D01*
X140283469Y-117879583D01*
X140271053Y-117872142D01*
X140259427Y-117863519D01*
X140248702Y-117853798D01*
X140238981Y-117843073D01*
X140230358Y-117831447D01*
X140222917Y-117819031D01*
X140216728Y-117805946D01*
X140211851Y-117792317D01*
X140208334Y-117778276D01*
X140206210Y-117763958D01*
X140205500Y-117749500D01*
X140205500Y-117454500D01*
X140206210Y-117440042D01*
X140208334Y-117425724D01*
X140211851Y-117411683D01*
X140216728Y-117398054D01*
X140222917Y-117384969D01*
X140230358Y-117372553D01*
X140238981Y-117360927D01*
X140248702Y-117350202D01*
X140259427Y-117340481D01*
X140271053Y-117331858D01*
X140283469Y-117324417D01*
X140296554Y-117318228D01*
X140310183Y-117313351D01*
X140324224Y-117309834D01*
X140338542Y-117307710D01*
X140353000Y-117307000D01*
X140698000Y-117307000D01*
X140712458Y-117307710D01*
X140712458Y-117307710D01*
G37*
D14*
X140525500Y-117602000D03*
D13*
G36*
X140712458Y-115362210D02*
G01*
X140726776Y-115364334D01*
X140740817Y-115367851D01*
X140754446Y-115372728D01*
X140767531Y-115378917D01*
X140779947Y-115386358D01*
X140791573Y-115394981D01*
X140802298Y-115404702D01*
X140812019Y-115415427D01*
X140820642Y-115427053D01*
X140828083Y-115439469D01*
X140834272Y-115452554D01*
X140839149Y-115466183D01*
X140842666Y-115480224D01*
X140844790Y-115494542D01*
X140845500Y-115509000D01*
X140845500Y-115804000D01*
X140844790Y-115818458D01*
X140842666Y-115832776D01*
X140839149Y-115846817D01*
X140834272Y-115860446D01*
X140828083Y-115873531D01*
X140820642Y-115885947D01*
X140812019Y-115897573D01*
X140802298Y-115908298D01*
X140791573Y-115918019D01*
X140779947Y-115926642D01*
X140767531Y-115934083D01*
X140754446Y-115940272D01*
X140740817Y-115945149D01*
X140726776Y-115948666D01*
X140712458Y-115950790D01*
X140698000Y-115951500D01*
X140353000Y-115951500D01*
X140338542Y-115950790D01*
X140324224Y-115948666D01*
X140310183Y-115945149D01*
X140296554Y-115940272D01*
X140283469Y-115934083D01*
X140271053Y-115926642D01*
X140259427Y-115918019D01*
X140248702Y-115908298D01*
X140238981Y-115897573D01*
X140230358Y-115885947D01*
X140222917Y-115873531D01*
X140216728Y-115860446D01*
X140211851Y-115846817D01*
X140208334Y-115832776D01*
X140206210Y-115818458D01*
X140205500Y-115804000D01*
X140205500Y-115509000D01*
X140206210Y-115494542D01*
X140208334Y-115480224D01*
X140211851Y-115466183D01*
X140216728Y-115452554D01*
X140222917Y-115439469D01*
X140230358Y-115427053D01*
X140238981Y-115415427D01*
X140248702Y-115404702D01*
X140259427Y-115394981D01*
X140271053Y-115386358D01*
X140283469Y-115378917D01*
X140296554Y-115372728D01*
X140310183Y-115367851D01*
X140324224Y-115364334D01*
X140338542Y-115362210D01*
X140353000Y-115361500D01*
X140698000Y-115361500D01*
X140712458Y-115362210D01*
X140712458Y-115362210D01*
G37*
D14*
X140525500Y-115656500D03*
D13*
G36*
X140712458Y-116332210D02*
G01*
X140726776Y-116334334D01*
X140740817Y-116337851D01*
X140754446Y-116342728D01*
X140767531Y-116348917D01*
X140779947Y-116356358D01*
X140791573Y-116364981D01*
X140802298Y-116374702D01*
X140812019Y-116385427D01*
X140820642Y-116397053D01*
X140828083Y-116409469D01*
X140834272Y-116422554D01*
X140839149Y-116436183D01*
X140842666Y-116450224D01*
X140844790Y-116464542D01*
X140845500Y-116479000D01*
X140845500Y-116774000D01*
X140844790Y-116788458D01*
X140842666Y-116802776D01*
X140839149Y-116816817D01*
X140834272Y-116830446D01*
X140828083Y-116843531D01*
X140820642Y-116855947D01*
X140812019Y-116867573D01*
X140802298Y-116878298D01*
X140791573Y-116888019D01*
X140779947Y-116896642D01*
X140767531Y-116904083D01*
X140754446Y-116910272D01*
X140740817Y-116915149D01*
X140726776Y-116918666D01*
X140712458Y-116920790D01*
X140698000Y-116921500D01*
X140353000Y-116921500D01*
X140338542Y-116920790D01*
X140324224Y-116918666D01*
X140310183Y-116915149D01*
X140296554Y-116910272D01*
X140283469Y-116904083D01*
X140271053Y-116896642D01*
X140259427Y-116888019D01*
X140248702Y-116878298D01*
X140238981Y-116867573D01*
X140230358Y-116855947D01*
X140222917Y-116843531D01*
X140216728Y-116830446D01*
X140211851Y-116816817D01*
X140208334Y-116802776D01*
X140206210Y-116788458D01*
X140205500Y-116774000D01*
X140205500Y-116479000D01*
X140206210Y-116464542D01*
X140208334Y-116450224D01*
X140211851Y-116436183D01*
X140216728Y-116422554D01*
X140222917Y-116409469D01*
X140230358Y-116397053D01*
X140238981Y-116385427D01*
X140248702Y-116374702D01*
X140259427Y-116364981D01*
X140271053Y-116356358D01*
X140283469Y-116348917D01*
X140296554Y-116342728D01*
X140310183Y-116337851D01*
X140324224Y-116334334D01*
X140338542Y-116332210D01*
X140353000Y-116331500D01*
X140698000Y-116331500D01*
X140712458Y-116332210D01*
X140712458Y-116332210D01*
G37*
D14*
X140525500Y-116626500D03*
D26*
X164934900Y-94604840D03*
X165541960Y-95211900D03*
X163512500Y-97091500D03*
X164272744Y-95204260D03*
X165517344Y-93934260D03*
X164272744Y-93934260D03*
X163507307Y-91983012D03*
X143383006Y-117094000D03*
X146018250Y-114458750D03*
X155796000Y-118966000D03*
X151296000Y-119038000D03*
X151296000Y-114466000D03*
X153543000Y-116586000D03*
X158115000Y-116586000D03*
X155702000Y-114109500D03*
X157543500Y-113030000D03*
X153860500Y-112966500D03*
X160274000Y-109855000D03*
X150749000Y-109855000D03*
X165227000Y-99314000D03*
X166878000Y-92837000D03*
X162623500Y-105029000D03*
X167376209Y-105218610D03*
X143383000Y-115697000D03*
X162088344Y-94594660D03*
X166751000Y-101663500D03*
X168592498Y-104965500D03*
X144208500Y-117601994D03*
X168783225Y-105728740D03*
X147256488Y-115697000D03*
X165735000Y-102679500D03*
X144907000Y-84645500D03*
X170116500Y-105473500D03*
X169989500Y-100266500D03*
X165036500Y-103886000D03*
X144907000Y-87439500D03*
D27*
X120142000Y-112395000D03*
X123698000Y-120904000D03*
X120142000Y-88392000D03*
X123698000Y-121920000D03*
X120142000Y-87376000D03*
D26*
X145415000Y-86042500D03*
X144462500Y-86042500D03*
X162369500Y-87566500D03*
X161734500Y-87566500D03*
X167767000Y-94551500D03*
X166814500Y-96964500D03*
X157353000Y-90614500D03*
X164882344Y-91825156D03*
X155702016Y-110617000D03*
D28*
X119000000Y-96000000D02*
X119000000Y-102000000D01*
X159798000Y-78994000D02*
X161798000Y-78994000D01*
X154792000Y-84000000D02*
X159798000Y-78994000D01*
X176000000Y-123000000D02*
X171000000Y-123000000D01*
X176000000Y-75000000D02*
X176000000Y-123000000D01*
X171000000Y-75000000D02*
X176000000Y-75000000D01*
X171000000Y-75000000D02*
X171000000Y-77000000D01*
X124800000Y-102000000D02*
X126000000Y-100800000D01*
X119000000Y-102000000D02*
X124800000Y-102000000D01*
X171000000Y-80700000D02*
X171000000Y-77000000D01*
X165700000Y-86000000D02*
X171000000Y-80700000D01*
X161000000Y-86000000D02*
X165700000Y-86000000D01*
X160202000Y-86288000D02*
X160020000Y-86106000D01*
X160202000Y-89154000D02*
X160202000Y-86288000D01*
X156000000Y-85208000D02*
X154792000Y-84000000D01*
X161000000Y-86000000D02*
X156792000Y-86000000D01*
X156792000Y-86000000D02*
X156000000Y-85208000D01*
X121729500Y-83629500D02*
X154421500Y-83629500D01*
X154421500Y-83629500D02*
X154792000Y-84000000D01*
X119000000Y-96000000D02*
X119000000Y-86359000D01*
X119000000Y-86359000D02*
X121729500Y-83629500D01*
X114000000Y-123000000D02*
X119000000Y-123000000D01*
X114000000Y-75000000D02*
X114000000Y-123000000D01*
X119000000Y-75000000D02*
X114000000Y-75000000D01*
X124300000Y-103850000D02*
X126000000Y-103850000D01*
X119000000Y-109150000D02*
X124300000Y-103850000D01*
X119000000Y-123000000D02*
X119000000Y-109150000D01*
X138798000Y-78994000D02*
X140798000Y-78994000D01*
X134804000Y-75000000D02*
X138798000Y-78994000D01*
X119000000Y-75000000D02*
X126000000Y-75000000D01*
X126000000Y-75000000D02*
X134804000Y-75000000D01*
D29*
X142311500Y-117602000D02*
X142314000Y-117599500D01*
X140525500Y-117602000D02*
X142311500Y-117602000D01*
X142314000Y-117599500D02*
X143014000Y-117599500D01*
X143383006Y-117230494D02*
X143383006Y-117094000D01*
X143014000Y-117599500D02*
X143383006Y-117230494D01*
X145986500Y-114427000D02*
X146018250Y-114458750D01*
X144376000Y-114427000D02*
X145986500Y-114427000D01*
D28*
X151296000Y-116630000D02*
X155796000Y-116630000D01*
X151296000Y-121130000D02*
X155796000Y-121130000D01*
X155796000Y-116630000D02*
X160296000Y-116630000D01*
X160296000Y-116630000D02*
X160296000Y-121130000D01*
X160296000Y-116630000D02*
X160296000Y-112130000D01*
X151384000Y-113030000D02*
X160274000Y-113030000D01*
X155796000Y-121130000D02*
X160296000Y-121130000D01*
X155702000Y-117602000D02*
X155702000Y-113102000D01*
X155796000Y-121130000D02*
X155796000Y-118966000D01*
X155796000Y-118966000D02*
X155796000Y-116630000D01*
X151296000Y-116630000D02*
X151296000Y-119038000D01*
X151296000Y-119038000D02*
X151296000Y-121130000D01*
X151296000Y-112130000D02*
X151296000Y-114466000D01*
X151296000Y-114466000D02*
X151296000Y-116630000D01*
D30*
X160274000Y-112108000D02*
X160296000Y-112130000D01*
X160274000Y-109855000D02*
X160274000Y-112108000D01*
X151296000Y-112130000D02*
X151296000Y-110402000D01*
X151296000Y-110402000D02*
X150749000Y-109855000D01*
D29*
X142314000Y-115699500D02*
X143380500Y-115699500D01*
X143380500Y-115699500D02*
X143383000Y-115697000D01*
X142271000Y-115656500D02*
X142314000Y-115699500D01*
X140525500Y-115656500D02*
X142271000Y-115656500D01*
X143406000Y-115674000D02*
X143383000Y-115697000D01*
X143406000Y-114427000D02*
X143406000Y-115674000D01*
X142291000Y-116626500D02*
X142314000Y-116649500D01*
X140525500Y-116626500D02*
X142291000Y-116626500D01*
X144210994Y-117599500D02*
X144208500Y-117601994D01*
X145214000Y-117599500D02*
X144210994Y-117599500D01*
X145214000Y-115699500D02*
X147253988Y-115699500D01*
X147253988Y-115699500D02*
X147256488Y-115697000D01*
D31*
X144929720Y-84668220D02*
X144907000Y-84645500D01*
X144929720Y-85344000D02*
X144929720Y-84668220D01*
X144930000Y-86741000D02*
X144930000Y-87416500D01*
X144930000Y-87416500D02*
X144907000Y-87439500D01*
X145900000Y-85344000D02*
X145900000Y-85557500D01*
X143959720Y-86741000D02*
X143959720Y-86545280D01*
X143959720Y-85344000D02*
X143959720Y-85539720D01*
X143959720Y-85539720D02*
X144462500Y-86042500D01*
X143959720Y-86545280D02*
X144462500Y-86042500D01*
X145900000Y-85557500D02*
X145415000Y-86042500D01*
X145900000Y-86741000D02*
X145900000Y-86527500D01*
X145900000Y-86527500D02*
X145415000Y-86042500D01*
D28*
X165602000Y-89154000D02*
X163252000Y-89154000D01*
X166154000Y-89154000D02*
X165602000Y-89154000D01*
X171000000Y-94000000D02*
X166154000Y-89154000D01*
X171000000Y-96000000D02*
X171000000Y-94000000D01*
D30*
X161734500Y-87566500D02*
X162369500Y-87566500D01*
X162369500Y-87566500D02*
X163004500Y-87566500D01*
X163252000Y-87814000D02*
X163252000Y-89154000D01*
X163004500Y-87566500D02*
X163252000Y-87814000D01*
D28*
X171577000Y-102577000D02*
X171000000Y-102000000D01*
X171577000Y-105346500D02*
X171577000Y-102577000D01*
X170942000Y-105981500D02*
X171577000Y-105346500D01*
X170942000Y-106008270D02*
X170942000Y-105981500D01*
X161000000Y-107000000D02*
X169950270Y-107000000D01*
X169950270Y-107000000D02*
X170942000Y-106008270D01*
X171767500Y-96767500D02*
X171000000Y-96000000D01*
X171000000Y-102000000D02*
X171767500Y-101232500D01*
X171767500Y-101232500D02*
X171767500Y-96767500D01*
M02*
