M48
; DRILL file {KiCad (5.1.4)-1} date 10/25/2019 8:54:26 PM
; FORMAT={-:-/ absolute / inch / decimal}
; #@! TF.CreationDate,2019-10-25T20:54:26-07:00
; #@! TF.GenerationSoftware,Kicad,Pcbnew,(5.1.4)-1
FMAT,2
INCH
T1C0.0150
T2C0.0157
T3C0.0472
%
G90
G05
T1
X5.645Y-4.555
X5.645Y-4.61
X5.6775Y-4.63
X5.6875Y-3.3875
X5.705Y-3.3325
X5.705Y-3.4425
X5.725Y-3.3875
X5.7488Y-4.5062
X5.7975Y-4.555
X5.935Y-4.325
X5.9565Y-4.5065
X5.9565Y-4.6865
X6.045Y-4.59
X6.0575Y-4.4475
X6.13Y-4.4925
X6.13Y-4.355
X6.1337Y-4.6837
X6.195Y-3.5675
X6.2025Y-4.45
X6.225Y-4.59
X6.31Y-4.325
X6.3675Y-3.4475
X6.3814Y-3.7242
X6.3925Y-3.4475
X6.4025Y-4.135
X6.4373Y-3.6214
X6.4375Y-3.8225
X6.4674Y-3.6982
X6.4674Y-3.7482
X6.4914Y-3.6152
X6.4935Y-3.7246
X6.4975Y-4.09
X6.505Y-3.91
X6.5164Y-3.6982
X6.5174Y-3.7485
X6.525Y-4.0425
X6.565Y-4.0025
X6.5675Y-3.8175
X6.57Y-3.655
X6.5896Y-4.1425
X6.605Y-3.7225
X6.6375Y-4.1325
X6.645Y-4.1625
X6.6925Y-3.9475
X6.6975Y-4.1525
T2
X4.73Y-3.44
X4.73Y-3.48
X4.73Y-4.425
X4.87Y-4.76
X4.87Y-4.8
T3
X5.135Y-3.7952
X5.135Y-3.947
X4.935Y-4.23
X5.135Y-4.23
X5.335Y-4.23
X4.935Y-3.565
X5.135Y-3.565
X5.335Y-3.565
T0
M30
