G04 #@! TF.GenerationSoftware,KiCad,Pcbnew,(5.1.4)-1*
G04 #@! TF.CreationDate,2019-10-25T18:21:12-07:00*
G04 #@! TF.ProjectId,solarpcd,736f6c61-7270-4636-942e-6b696361645f,rev?*
G04 #@! TF.SameCoordinates,Original*
G04 #@! TF.FileFunction,Legend,Top*
G04 #@! TF.FilePolarity,Positive*
%FSLAX46Y46*%
G04 Gerber Fmt 4.6, Leading zero omitted, Abs format (unit mm)*
G04 Created by KiCad (PCBNEW (5.1.4)-1) date 2019-10-25 18:21:12*
%MOMM*%
%LPD*%
G04 APERTURE LIST*
%ADD10C,0.050000*%
%ADD11C,0.100000*%
%ADD12C,0.120000*%
%ADD13C,0.203200*%
%ADD14C,0.127000*%
%ADD15C,0.010000*%
%ADD16C,0.150000*%
G04 APERTURE END LIST*
D10*
X156000000Y-99000000D02*
G75*
G03X156000000Y-99000000I-11000000J0D01*
G01*
D11*
X154516666Y-104735714D02*
X154897619Y-104735714D01*
X154707142Y-104926190D02*
X154707142Y-104545238D01*
X155064285Y-104426190D02*
X155230952Y-104926190D01*
X155397619Y-104426190D01*
X155445238Y-104973809D02*
X155826190Y-104973809D01*
X155921428Y-104902380D02*
X155992857Y-104926190D01*
X156111904Y-104926190D01*
X156159523Y-104902380D01*
X156183333Y-104878571D01*
X156207142Y-104830952D01*
X156207142Y-104783333D01*
X156183333Y-104735714D01*
X156159523Y-104711904D01*
X156111904Y-104688095D01*
X156016666Y-104664285D01*
X155969047Y-104640476D01*
X155945238Y-104616666D01*
X155921428Y-104569047D01*
X155921428Y-104521428D01*
X155945238Y-104473809D01*
X155969047Y-104450000D01*
X156016666Y-104426190D01*
X156135714Y-104426190D01*
X156207142Y-104450000D01*
X156707142Y-104878571D02*
X156683333Y-104902380D01*
X156611904Y-104926190D01*
X156564285Y-104926190D01*
X156492857Y-104902380D01*
X156445238Y-104854761D01*
X156421428Y-104807142D01*
X156397619Y-104711904D01*
X156397619Y-104640476D01*
X156421428Y-104545238D01*
X156445238Y-104497619D01*
X156492857Y-104450000D01*
X156564285Y-104426190D01*
X156611904Y-104426190D01*
X156683333Y-104450000D01*
X156707142Y-104473809D01*
D10*
X134727563Y-111650000D02*
G75*
G03X134727563Y-111650000I-1029563J0D01*
G01*
X128202563Y-111650000D02*
G75*
G03X128202563Y-111650000I-1029563J0D01*
G01*
X134704563Y-86350000D02*
G75*
G03X134704563Y-86350000I-1029563J0D01*
G01*
X128229563Y-86350000D02*
G75*
G03X128229563Y-86350000I-1029563J0D01*
G01*
X166000000Y-79100000D02*
G75*
G03X166000000Y-79100000I-1100000J0D01*
G01*
X126200000Y-79100000D02*
G75*
G03X126200000Y-79100000I-1100000J0D01*
G01*
X166000000Y-118900000D02*
G75*
G03X166000000Y-118900000I-1100000J0D01*
G01*
D12*
X126200000Y-118900000D02*
G75*
G03X126200000Y-118900000I-1100000J0D01*
G01*
D11*
X177000000Y-70000000D02*
X113000000Y-70000000D01*
X113000000Y-128000000D02*
X177000000Y-128000000D01*
X177000000Y-128000000D02*
X177000000Y-70000000D01*
X113000000Y-70000000D02*
X113000000Y-128000000D01*
D13*
X146821071Y-86060642D02*
X147691928Y-86060642D01*
D14*
X145312190Y-87853761D02*
X145312190Y-87218761D01*
X145554095Y-87218761D01*
X145614571Y-87249000D01*
X145644809Y-87279238D01*
X145675047Y-87339714D01*
X145675047Y-87430428D01*
X145644809Y-87490904D01*
X145614571Y-87521142D01*
X145554095Y-87551380D01*
X145312190Y-87551380D01*
X145723428Y-84104238D02*
X145723428Y-84739238D01*
X145360571Y-84104238D01*
X145360571Y-84739238D01*
D13*
X142185571Y-86124142D02*
X143056428Y-86124142D01*
X142621000Y-86559571D02*
X142621000Y-85688714D01*
D12*
X143827500Y-86042500D02*
X143510000Y-86042500D01*
X145034000Y-86042500D02*
X144716500Y-86042500D01*
X144081500Y-86042500D02*
X144399000Y-86042500D01*
X145415000Y-86042500D02*
X145732500Y-86042500D01*
X146367500Y-86042500D02*
X146050000Y-86042500D01*
D15*
G36*
X152041594Y-84724875D02*
G01*
X152132989Y-84939734D01*
X152215086Y-85133253D01*
X152288698Y-85307390D01*
X152354637Y-85464106D01*
X152413714Y-85605361D01*
X152466741Y-85733115D01*
X152514530Y-85849328D01*
X152557893Y-85955960D01*
X152597642Y-86054972D01*
X152634589Y-86148323D01*
X152669545Y-86237974D01*
X152685993Y-86280625D01*
X152711452Y-86345488D01*
X152734303Y-86401116D01*
X152752841Y-86443563D01*
X152765364Y-86468881D01*
X152769600Y-86474299D01*
X152778091Y-86463295D01*
X152792329Y-86434132D01*
X152809558Y-86392586D01*
X152813526Y-86382225D01*
X152847743Y-86291852D01*
X152880809Y-86205230D01*
X152913519Y-86120401D01*
X152946673Y-86035410D01*
X152981068Y-85948299D01*
X153017500Y-85857112D01*
X153056767Y-85759891D01*
X153099668Y-85654680D01*
X153146998Y-85539521D01*
X153199557Y-85412459D01*
X153258140Y-85271535D01*
X153323546Y-85114794D01*
X153396572Y-84940279D01*
X153478016Y-84746032D01*
X153556210Y-84559775D01*
X153840245Y-83883500D01*
X155359993Y-83883500D01*
X155345097Y-83912075D01*
X155337261Y-83926191D01*
X155317614Y-83961206D01*
X155286839Y-84015905D01*
X155245623Y-84089073D01*
X155194651Y-84179495D01*
X155134608Y-84285957D01*
X155066180Y-84407245D01*
X154990051Y-84542144D01*
X154906908Y-84689439D01*
X154817436Y-84847916D01*
X154722319Y-85016360D01*
X154622244Y-85193557D01*
X154517896Y-85378293D01*
X154409960Y-85569352D01*
X154360400Y-85657070D01*
X153390600Y-87373490D01*
X153390600Y-89877900D01*
X152031700Y-89877900D01*
X152031700Y-87427888D01*
X151085550Y-85660734D01*
X150980014Y-85463590D01*
X150877783Y-85272558D01*
X150779496Y-85088836D01*
X150685793Y-84913621D01*
X150597312Y-84748110D01*
X150514694Y-84593500D01*
X150438576Y-84450990D01*
X150369599Y-84321777D01*
X150308402Y-84207057D01*
X150255625Y-84108029D01*
X150211905Y-84025890D01*
X150177883Y-83961837D01*
X150154199Y-83917068D01*
X150141490Y-83892780D01*
X150139400Y-83888539D01*
X150151736Y-83887642D01*
X150187292Y-83886796D01*
X150243886Y-83886015D01*
X150319337Y-83885314D01*
X150411465Y-83884707D01*
X150518088Y-83884207D01*
X150637027Y-83883830D01*
X150766099Y-83883590D01*
X150903125Y-83883500D01*
X151683319Y-83883500D01*
X152041594Y-84724875D01*
X152041594Y-84724875D01*
G37*
X152041594Y-84724875D02*
X152132989Y-84939734D01*
X152215086Y-85133253D01*
X152288698Y-85307390D01*
X152354637Y-85464106D01*
X152413714Y-85605361D01*
X152466741Y-85733115D01*
X152514530Y-85849328D01*
X152557893Y-85955960D01*
X152597642Y-86054972D01*
X152634589Y-86148323D01*
X152669545Y-86237974D01*
X152685993Y-86280625D01*
X152711452Y-86345488D01*
X152734303Y-86401116D01*
X152752841Y-86443563D01*
X152765364Y-86468881D01*
X152769600Y-86474299D01*
X152778091Y-86463295D01*
X152792329Y-86434132D01*
X152809558Y-86392586D01*
X152813526Y-86382225D01*
X152847743Y-86291852D01*
X152880809Y-86205230D01*
X152913519Y-86120401D01*
X152946673Y-86035410D01*
X152981068Y-85948299D01*
X153017500Y-85857112D01*
X153056767Y-85759891D01*
X153099668Y-85654680D01*
X153146998Y-85539521D01*
X153199557Y-85412459D01*
X153258140Y-85271535D01*
X153323546Y-85114794D01*
X153396572Y-84940279D01*
X153478016Y-84746032D01*
X153556210Y-84559775D01*
X153840245Y-83883500D01*
X155359993Y-83883500D01*
X155345097Y-83912075D01*
X155337261Y-83926191D01*
X155317614Y-83961206D01*
X155286839Y-84015905D01*
X155245623Y-84089073D01*
X155194651Y-84179495D01*
X155134608Y-84285957D01*
X155066180Y-84407245D01*
X154990051Y-84542144D01*
X154906908Y-84689439D01*
X154817436Y-84847916D01*
X154722319Y-85016360D01*
X154622244Y-85193557D01*
X154517896Y-85378293D01*
X154409960Y-85569352D01*
X154360400Y-85657070D01*
X153390600Y-87373490D01*
X153390600Y-89877900D01*
X152031700Y-89877900D01*
X152031700Y-87427888D01*
X151085550Y-85660734D01*
X150980014Y-85463590D01*
X150877783Y-85272558D01*
X150779496Y-85088836D01*
X150685793Y-84913621D01*
X150597312Y-84748110D01*
X150514694Y-84593500D01*
X150438576Y-84450990D01*
X150369599Y-84321777D01*
X150308402Y-84207057D01*
X150255625Y-84108029D01*
X150211905Y-84025890D01*
X150177883Y-83961837D01*
X150154199Y-83917068D01*
X150141490Y-83892780D01*
X150139400Y-83888539D01*
X150151736Y-83887642D01*
X150187292Y-83886796D01*
X150243886Y-83886015D01*
X150319337Y-83885314D01*
X150411465Y-83884707D01*
X150518088Y-83884207D01*
X150637027Y-83883830D01*
X150766099Y-83883590D01*
X150903125Y-83883500D01*
X151683319Y-83883500D01*
X152041594Y-84724875D01*
D12*
X135529000Y-107442000D02*
X135529000Y-110042000D01*
X130429000Y-107442000D02*
X130429000Y-110042000D01*
X125329000Y-107442000D02*
X125329000Y-110042000D01*
X136829000Y-116642000D02*
X124029000Y-116642000D01*
X124029000Y-110142000D02*
X124029000Y-116642000D01*
X124029000Y-110142000D02*
X136829000Y-110142000D01*
X136829000Y-116642000D02*
X136829000Y-110142000D01*
X128179000Y-111642000D02*
G75*
G03X128179000Y-111642000I-1000000J0D01*
G01*
X134679000Y-111642000D02*
G75*
G03X134679000Y-111642000I-1000000J0D01*
G01*
X126429000Y-122642000D02*
G75*
G03X126429000Y-122642000I-2400000J0D01*
G01*
X135929000Y-116642000D02*
X126029000Y-121142000D01*
X125329000Y-90551000D02*
X125329000Y-87951000D01*
X130429000Y-90551000D02*
X130429000Y-87951000D01*
X135529000Y-90551000D02*
X135529000Y-87951000D01*
X124029000Y-81351000D02*
X136829000Y-81351000D01*
X136829000Y-87851000D02*
X136829000Y-81351000D01*
X136829000Y-87851000D02*
X124029000Y-87851000D01*
X124029000Y-81351000D02*
X124029000Y-87851000D01*
X134679000Y-86351000D02*
G75*
G03X134679000Y-86351000I-1000000J0D01*
G01*
X128179000Y-86351000D02*
G75*
G03X128179000Y-86351000I-1000000J0D01*
G01*
X139229000Y-75351000D02*
G75*
G03X139229000Y-75351000I-2400000J0D01*
G01*
X124929000Y-81351000D02*
X134829000Y-76851000D01*
D11*
X143264000Y-115349500D02*
X144264000Y-115346500D01*
X143264000Y-117949500D02*
X144264000Y-117956500D01*
X141564000Y-115699500D02*
X141564000Y-115699500D01*
X141464000Y-115699500D02*
X141464000Y-115699500D01*
X141464000Y-115699500D02*
G75*
G02X141564000Y-115699500I50000J0D01*
G01*
X141564000Y-115699500D02*
G75*
G02X141464000Y-115699500I-50000J0D01*
G01*
D12*
X115000000Y-97000000D02*
X115000000Y-74000000D01*
X115000000Y-74000000D02*
X123000000Y-74000000D01*
X123000000Y-74000000D02*
X123000000Y-97000000D01*
X123000000Y-97000000D02*
X115000000Y-97000000D01*
X118000000Y-93300000D02*
X120000000Y-93300000D01*
X119000000Y-94300000D02*
X119000000Y-92300000D01*
X119000000Y-79000000D02*
X119000000Y-77000000D01*
X175000000Y-101000000D02*
X175000000Y-124000000D01*
X175000000Y-124000000D02*
X167000000Y-124000000D01*
X167000000Y-124000000D02*
X167000000Y-101000000D01*
X167000000Y-101000000D02*
X175000000Y-101000000D01*
X172000000Y-104700000D02*
X170000000Y-104700000D01*
X171000000Y-103700000D02*
X171000000Y-105700000D01*
X171000000Y-119000000D02*
X171000000Y-121000000D01*
X163000000Y-83000000D02*
X140000000Y-83000000D01*
X140000000Y-83000000D02*
X140000000Y-75000000D01*
X140000000Y-75000000D02*
X163000000Y-75000000D01*
X163000000Y-75000000D02*
X163000000Y-83000000D01*
X159300000Y-80000000D02*
X159300000Y-78000000D01*
X160300000Y-79000000D02*
X158300000Y-79000000D01*
X145000000Y-79000000D02*
X143000000Y-79000000D01*
X157000000Y-108000000D02*
X157000000Y-85000000D01*
X157000000Y-85000000D02*
X165000000Y-85000000D01*
X165000000Y-85000000D02*
X165000000Y-108000000D01*
X165000000Y-108000000D02*
X157000000Y-108000000D01*
X160000000Y-104300000D02*
X162000000Y-104300000D01*
X161000000Y-105300000D02*
X161000000Y-103300000D01*
X161000000Y-90000000D02*
X161000000Y-88000000D01*
X123000000Y-101000000D02*
X123000000Y-124000000D01*
X123000000Y-124000000D02*
X115000000Y-124000000D01*
X115000000Y-124000000D02*
X115000000Y-101000000D01*
X115000000Y-101000000D02*
X123000000Y-101000000D01*
X120000000Y-104700000D02*
X118000000Y-104700000D01*
X119000000Y-103700000D02*
X119000000Y-105700000D01*
X119000000Y-119000000D02*
X119000000Y-121000000D01*
X167000000Y-97000000D02*
X167000000Y-74000000D01*
X167000000Y-74000000D02*
X175000000Y-74000000D01*
X175000000Y-74000000D02*
X175000000Y-97000000D01*
X175000000Y-97000000D02*
X167000000Y-97000000D01*
X170000000Y-93300000D02*
X172000000Y-93300000D01*
X171000000Y-94300000D02*
X171000000Y-92300000D01*
X171000000Y-79000000D02*
X171000000Y-77000000D01*
X126900000Y-103400000D02*
X125100000Y-103400000D01*
X125100000Y-103400000D02*
X125100000Y-100600000D01*
X125100000Y-100600000D02*
X126900000Y-100600000D01*
X126900000Y-100600000D02*
X126900000Y-103400000D01*
X125000000Y-101200000D02*
X125000000Y-101600000D01*
X160652000Y-90054000D02*
X160652000Y-88254000D01*
X160652000Y-88254000D02*
X163452000Y-88254000D01*
X163452000Y-88254000D02*
X163452000Y-90054000D01*
X163452000Y-90054000D02*
X160652000Y-90054000D01*
X162852000Y-88154000D02*
X162452000Y-88154000D01*
D16*
X143724333Y-115954142D02*
X143676714Y-116001761D01*
X143533857Y-116049380D01*
X143438619Y-116049380D01*
X143295761Y-116001761D01*
X143200523Y-115906523D01*
X143152904Y-115811285D01*
X143105285Y-115620809D01*
X143105285Y-115477952D01*
X143152904Y-115287476D01*
X143200523Y-115192238D01*
X143295761Y-115097000D01*
X143438619Y-115049380D01*
X143533857Y-115049380D01*
X143676714Y-115097000D01*
X143724333Y-115144619D01*
X144629095Y-115049380D02*
X144152904Y-115049380D01*
X144105285Y-115525571D01*
X144152904Y-115477952D01*
X144248142Y-115430333D01*
X144486238Y-115430333D01*
X144581476Y-115477952D01*
X144629095Y-115525571D01*
X144676714Y-115620809D01*
X144676714Y-115858904D01*
X144629095Y-115954142D01*
X144581476Y-116001761D01*
X144486238Y-116049380D01*
X144248142Y-116049380D01*
X144152904Y-116001761D01*
X144105285Y-115954142D01*
X129667095Y-114944380D02*
X129667095Y-115753904D01*
X129714714Y-115849142D01*
X129762333Y-115896761D01*
X129857571Y-115944380D01*
X130048047Y-115944380D01*
X130143285Y-115896761D01*
X130190904Y-115849142D01*
X130238523Y-115753904D01*
X130238523Y-114944380D01*
X131143285Y-115277714D02*
X131143285Y-115944380D01*
X130905190Y-114896761D02*
X130667095Y-115611047D01*
X131286142Y-115611047D01*
X129667095Y-81953380D02*
X129667095Y-82762904D01*
X129714714Y-82858142D01*
X129762333Y-82905761D01*
X129857571Y-82953380D01*
X130048047Y-82953380D01*
X130143285Y-82905761D01*
X130190904Y-82858142D01*
X130238523Y-82762904D01*
X130238523Y-81953380D01*
X130619476Y-81953380D02*
X131238523Y-81953380D01*
X130905190Y-82334333D01*
X131048047Y-82334333D01*
X131143285Y-82381952D01*
X131190904Y-82429571D01*
X131238523Y-82524809D01*
X131238523Y-82762904D01*
X131190904Y-82858142D01*
X131143285Y-82905761D01*
X131048047Y-82953380D01*
X130762333Y-82953380D01*
X130667095Y-82905761D01*
X130619476Y-82858142D01*
X154834095Y-122882380D02*
X154834095Y-123691904D01*
X154881714Y-123787142D01*
X154929333Y-123834761D01*
X155024571Y-123882380D01*
X155215047Y-123882380D01*
X155310285Y-123834761D01*
X155357904Y-123787142D01*
X155405523Y-123691904D01*
X155405523Y-122882380D01*
X156405523Y-123882380D02*
X155834095Y-123882380D01*
X156119809Y-123882380D02*
X156119809Y-122882380D01*
X156024571Y-123025238D01*
X155929333Y-123120476D01*
X155834095Y-123168095D01*
X119404761Y-86561904D02*
X119452380Y-86419047D01*
X119452380Y-86180952D01*
X119404761Y-86085714D01*
X119357142Y-86038095D01*
X119261904Y-85990476D01*
X119166666Y-85990476D01*
X119071428Y-86038095D01*
X119023809Y-86085714D01*
X118976190Y-86180952D01*
X118928571Y-86371428D01*
X118880952Y-86466666D01*
X118833333Y-86514285D01*
X118738095Y-86561904D01*
X118642857Y-86561904D01*
X118547619Y-86514285D01*
X118500000Y-86466666D01*
X118452380Y-86371428D01*
X118452380Y-86133333D01*
X118500000Y-85990476D01*
X119357142Y-84990476D02*
X119404761Y-85038095D01*
X119452380Y-85180952D01*
X119452380Y-85276190D01*
X119404761Y-85419047D01*
X119309523Y-85514285D01*
X119214285Y-85561904D01*
X119023809Y-85609523D01*
X118880952Y-85609523D01*
X118690476Y-85561904D01*
X118595238Y-85514285D01*
X118500000Y-85419047D01*
X118452380Y-85276190D01*
X118452380Y-85180952D01*
X118500000Y-85038095D01*
X118547619Y-84990476D01*
X118452380Y-84133333D02*
X118452380Y-84323809D01*
X118500000Y-84419047D01*
X118547619Y-84466666D01*
X118690476Y-84561904D01*
X118880952Y-84609523D01*
X119261904Y-84609523D01*
X119357142Y-84561904D01*
X119404761Y-84514285D01*
X119452380Y-84419047D01*
X119452380Y-84228571D01*
X119404761Y-84133333D01*
X119357142Y-84085714D01*
X119261904Y-84038095D01*
X119023809Y-84038095D01*
X118928571Y-84085714D01*
X118880952Y-84133333D01*
X118833333Y-84228571D01*
X118833333Y-84419047D01*
X118880952Y-84514285D01*
X118928571Y-84561904D01*
X119023809Y-84609523D01*
X171404761Y-113961904D02*
X171452380Y-113819047D01*
X171452380Y-113580952D01*
X171404761Y-113485714D01*
X171357142Y-113438095D01*
X171261904Y-113390476D01*
X171166666Y-113390476D01*
X171071428Y-113438095D01*
X171023809Y-113485714D01*
X170976190Y-113580952D01*
X170928571Y-113771428D01*
X170880952Y-113866666D01*
X170833333Y-113914285D01*
X170738095Y-113961904D01*
X170642857Y-113961904D01*
X170547619Y-113914285D01*
X170500000Y-113866666D01*
X170452380Y-113771428D01*
X170452380Y-113533333D01*
X170500000Y-113390476D01*
X171357142Y-112390476D02*
X171404761Y-112438095D01*
X171452380Y-112580952D01*
X171452380Y-112676190D01*
X171404761Y-112819047D01*
X171309523Y-112914285D01*
X171214285Y-112961904D01*
X171023809Y-113009523D01*
X170880952Y-113009523D01*
X170690476Y-112961904D01*
X170595238Y-112914285D01*
X170500000Y-112819047D01*
X170452380Y-112676190D01*
X170452380Y-112580952D01*
X170500000Y-112438095D01*
X170547619Y-112390476D01*
X170452380Y-111485714D02*
X170452380Y-111961904D01*
X170928571Y-112009523D01*
X170880952Y-111961904D01*
X170833333Y-111866666D01*
X170833333Y-111628571D01*
X170880952Y-111533333D01*
X170928571Y-111485714D01*
X171023809Y-111438095D01*
X171261904Y-111438095D01*
X171357142Y-111485714D01*
X171404761Y-111533333D01*
X171452380Y-111628571D01*
X171452380Y-111866666D01*
X171404761Y-111961904D01*
X171357142Y-112009523D01*
X150038095Y-79404761D02*
X150180952Y-79452380D01*
X150419047Y-79452380D01*
X150514285Y-79404761D01*
X150561904Y-79357142D01*
X150609523Y-79261904D01*
X150609523Y-79166666D01*
X150561904Y-79071428D01*
X150514285Y-79023809D01*
X150419047Y-78976190D01*
X150228571Y-78928571D01*
X150133333Y-78880952D01*
X150085714Y-78833333D01*
X150038095Y-78738095D01*
X150038095Y-78642857D01*
X150085714Y-78547619D01*
X150133333Y-78500000D01*
X150228571Y-78452380D01*
X150466666Y-78452380D01*
X150609523Y-78500000D01*
X151609523Y-79357142D02*
X151561904Y-79404761D01*
X151419047Y-79452380D01*
X151323809Y-79452380D01*
X151180952Y-79404761D01*
X151085714Y-79309523D01*
X151038095Y-79214285D01*
X150990476Y-79023809D01*
X150990476Y-78880952D01*
X151038095Y-78690476D01*
X151085714Y-78595238D01*
X151180952Y-78500000D01*
X151323809Y-78452380D01*
X151419047Y-78452380D01*
X151561904Y-78500000D01*
X151609523Y-78547619D01*
X152466666Y-78785714D02*
X152466666Y-79452380D01*
X152228571Y-78404761D02*
X151990476Y-79119047D01*
X152609523Y-79119047D01*
X161404761Y-97561904D02*
X161452380Y-97419047D01*
X161452380Y-97180952D01*
X161404761Y-97085714D01*
X161357142Y-97038095D01*
X161261904Y-96990476D01*
X161166666Y-96990476D01*
X161071428Y-97038095D01*
X161023809Y-97085714D01*
X160976190Y-97180952D01*
X160928571Y-97371428D01*
X160880952Y-97466666D01*
X160833333Y-97514285D01*
X160738095Y-97561904D01*
X160642857Y-97561904D01*
X160547619Y-97514285D01*
X160500000Y-97466666D01*
X160452380Y-97371428D01*
X160452380Y-97133333D01*
X160500000Y-96990476D01*
X161357142Y-95990476D02*
X161404761Y-96038095D01*
X161452380Y-96180952D01*
X161452380Y-96276190D01*
X161404761Y-96419047D01*
X161309523Y-96514285D01*
X161214285Y-96561904D01*
X161023809Y-96609523D01*
X160880952Y-96609523D01*
X160690476Y-96561904D01*
X160595238Y-96514285D01*
X160500000Y-96419047D01*
X160452380Y-96276190D01*
X160452380Y-96180952D01*
X160500000Y-96038095D01*
X160547619Y-95990476D01*
X160452380Y-95657142D02*
X160452380Y-95038095D01*
X160833333Y-95371428D01*
X160833333Y-95228571D01*
X160880952Y-95133333D01*
X160928571Y-95085714D01*
X161023809Y-95038095D01*
X161261904Y-95038095D01*
X161357142Y-95085714D01*
X161404761Y-95133333D01*
X161452380Y-95228571D01*
X161452380Y-95514285D01*
X161404761Y-95609523D01*
X161357142Y-95657142D01*
X119404761Y-113961904D02*
X119452380Y-113819047D01*
X119452380Y-113580952D01*
X119404761Y-113485714D01*
X119357142Y-113438095D01*
X119261904Y-113390476D01*
X119166666Y-113390476D01*
X119071428Y-113438095D01*
X119023809Y-113485714D01*
X118976190Y-113580952D01*
X118928571Y-113771428D01*
X118880952Y-113866666D01*
X118833333Y-113914285D01*
X118738095Y-113961904D01*
X118642857Y-113961904D01*
X118547619Y-113914285D01*
X118500000Y-113866666D01*
X118452380Y-113771428D01*
X118452380Y-113533333D01*
X118500000Y-113390476D01*
X119357142Y-112390476D02*
X119404761Y-112438095D01*
X119452380Y-112580952D01*
X119452380Y-112676190D01*
X119404761Y-112819047D01*
X119309523Y-112914285D01*
X119214285Y-112961904D01*
X119023809Y-113009523D01*
X118880952Y-113009523D01*
X118690476Y-112961904D01*
X118595238Y-112914285D01*
X118500000Y-112819047D01*
X118452380Y-112676190D01*
X118452380Y-112580952D01*
X118500000Y-112438095D01*
X118547619Y-112390476D01*
X118547619Y-112009523D02*
X118500000Y-111961904D01*
X118452380Y-111866666D01*
X118452380Y-111628571D01*
X118500000Y-111533333D01*
X118547619Y-111485714D01*
X118642857Y-111438095D01*
X118738095Y-111438095D01*
X118880952Y-111485714D01*
X119452380Y-112057142D01*
X119452380Y-111438095D01*
X171404761Y-86561904D02*
X171452380Y-86419047D01*
X171452380Y-86180952D01*
X171404761Y-86085714D01*
X171357142Y-86038095D01*
X171261904Y-85990476D01*
X171166666Y-85990476D01*
X171071428Y-86038095D01*
X171023809Y-86085714D01*
X170976190Y-86180952D01*
X170928571Y-86371428D01*
X170880952Y-86466666D01*
X170833333Y-86514285D01*
X170738095Y-86561904D01*
X170642857Y-86561904D01*
X170547619Y-86514285D01*
X170500000Y-86466666D01*
X170452380Y-86371428D01*
X170452380Y-86133333D01*
X170500000Y-85990476D01*
X171357142Y-84990476D02*
X171404761Y-85038095D01*
X171452380Y-85180952D01*
X171452380Y-85276190D01*
X171404761Y-85419047D01*
X171309523Y-85514285D01*
X171214285Y-85561904D01*
X171023809Y-85609523D01*
X170880952Y-85609523D01*
X170690476Y-85561904D01*
X170595238Y-85514285D01*
X170500000Y-85419047D01*
X170452380Y-85276190D01*
X170452380Y-85180952D01*
X170500000Y-85038095D01*
X170547619Y-84990476D01*
X171452380Y-84038095D02*
X171452380Y-84609523D01*
X171452380Y-84323809D02*
X170452380Y-84323809D01*
X170595238Y-84419047D01*
X170690476Y-84514285D01*
X170738095Y-84609523D01*
X124452380Y-103714285D02*
X123452380Y-103714285D01*
X123452380Y-103476190D01*
X123500000Y-103333333D01*
X123595238Y-103238095D01*
X123690476Y-103190476D01*
X123880952Y-103142857D01*
X124023809Y-103142857D01*
X124214285Y-103190476D01*
X124309523Y-103238095D01*
X124404761Y-103333333D01*
X124452380Y-103476190D01*
X124452380Y-103714285D01*
X124452380Y-102190476D02*
X124452380Y-102761904D01*
X124452380Y-102476190D02*
X123452380Y-102476190D01*
X123595238Y-102571428D01*
X123690476Y-102666666D01*
X123738095Y-102761904D01*
X123547619Y-101809523D02*
X123500000Y-101761904D01*
X123452380Y-101666666D01*
X123452380Y-101428571D01*
X123500000Y-101333333D01*
X123547619Y-101285714D01*
X123642857Y-101238095D01*
X123738095Y-101238095D01*
X123880952Y-101285714D01*
X124452380Y-101857142D01*
X124452380Y-101238095D01*
X160337714Y-87606380D02*
X160337714Y-86606380D01*
X160575809Y-86606380D01*
X160718666Y-86654000D01*
X160813904Y-86749238D01*
X160861523Y-86844476D01*
X160909142Y-87034952D01*
X160909142Y-87177809D01*
X160861523Y-87368285D01*
X160813904Y-87463523D01*
X160718666Y-87558761D01*
X160575809Y-87606380D01*
X160337714Y-87606380D01*
X161861523Y-87606380D02*
X161290095Y-87606380D01*
X161575809Y-87606380D02*
X161575809Y-86606380D01*
X161480571Y-86749238D01*
X161385333Y-86844476D01*
X161290095Y-86892095D01*
X162813904Y-87606380D02*
X162242476Y-87606380D01*
X162528190Y-87606380D02*
X162528190Y-86606380D01*
X162432952Y-86749238D01*
X162337714Y-86844476D01*
X162242476Y-86892095D01*
M02*
