%TF.GenerationSoftware,KiCad,Pcbnew,(5.1.4)-1*%
%TF.CreationDate,2019-10-25T20:54:23-07:00*%
%TF.ProjectId,solarpcd,736f6c61-7270-4636-942e-6b696361645f,rev?*%
%TF.SameCoordinates,Original*%
%TF.FileFunction,Paste,Bot*%
%TF.FilePolarity,Positive*%
%FSLAX46Y46*%
G04 Gerber Fmt 4.6, Leading zero omitted, Abs format (unit mm)*
G04 Created by KiCad (PCBNEW (5.1.4)-1) date 2019-10-25 20:54:23*
%MOMM*%
%LPD*%
G04 APERTURE LIST*
%ADD10C,0.050000*%
%ADD11C,0.120000*%
%ADD12C,0.100000*%
%ADD13C,1.050000*%
%ADD14R,0.800000X0.800000*%
%ADD15R,2.000000X1.100000*%
%ADD16R,1.700000X1.500000*%
%ADD17R,0.250000X1.100000*%
%ADD18C,0.875000*%
%ADD19C,0.590000*%
%ADD20R,0.700000X0.500000*%
%ADD21R,2.150000X2.150000*%
%ADD22R,0.900000X0.300000*%
%ADD23R,0.300000X0.900000*%
%ADD24R,4.394200X1.435100*%
G04 APERTURE END LIST*
D10*
X156000000Y-99000000D02*
G75*
G03X156000000Y-99000000I-11000000J0D01*
G01*
X134727563Y-111650000D02*
G75*
G03X134727563Y-111650000I-1029563J0D01*
G01*
X128202563Y-111650000D02*
G75*
G03X128202563Y-111650000I-1029563J0D01*
G01*
X134704563Y-86350000D02*
G75*
G03X134704563Y-86350000I-1029563J0D01*
G01*
X128229563Y-86350000D02*
G75*
G03X128229563Y-86350000I-1029563J0D01*
G01*
X166000000Y-79100000D02*
G75*
G03X166000000Y-79100000I-1100000J0D01*
G01*
X126200000Y-79100000D02*
G75*
G03X126200000Y-79100000I-1100000J0D01*
G01*
X166000000Y-118900000D02*
G75*
G03X166000000Y-118900000I-1100000J0D01*
G01*
D11*
X126200000Y-118900000D02*
G75*
G03X126200000Y-118900000I-1100000J0D01*
G01*
D12*
X177000000Y-70000000D02*
X113000000Y-70000000D01*
X113000000Y-128000000D02*
X177000000Y-128000000D01*
X177000000Y-128000000D02*
X177000000Y-70000000D01*
X113000000Y-70000000D02*
X113000000Y-128000000D01*
D13*
X154938838Y-109853838D03*
D12*
G36*
X155681300Y-109853838D02*
G01*
X154938838Y-110596300D01*
X154196376Y-109853838D01*
X154938838Y-109111376D01*
X155681300Y-109853838D01*
X155681300Y-109853838D01*
G37*
D13*
X152817517Y-109818483D03*
D12*
G36*
X152393253Y-108651757D02*
G01*
X153984243Y-110242747D01*
X153241781Y-110985209D01*
X151650791Y-109394219D01*
X152393253Y-108651757D01*
X152393253Y-108651757D01*
G37*
D13*
X154903483Y-107732517D03*
D12*
G36*
X154479219Y-106565791D02*
G01*
X156070209Y-108156781D01*
X155327747Y-108899243D01*
X153736757Y-107308253D01*
X154479219Y-106565791D01*
X154479219Y-106565791D01*
G37*
D14*
X160635000Y-87185500D03*
D15*
X158735000Y-87185500D03*
D16*
X164121000Y-107786000D03*
X171921000Y-107786000D03*
D17*
X165771000Y-103886000D03*
X166271000Y-103886000D03*
X166771000Y-103886000D03*
X167271000Y-103886000D03*
X167771000Y-103886000D03*
X168271000Y-103886000D03*
X168771000Y-103886000D03*
X169271000Y-103886000D03*
X169771000Y-103886000D03*
X170271000Y-103886000D03*
D12*
G36*
X167473691Y-99475053D02*
G01*
X167494926Y-99478203D01*
X167515750Y-99483419D01*
X167535962Y-99490651D01*
X167555368Y-99499830D01*
X167573781Y-99510866D01*
X167591024Y-99523654D01*
X167606930Y-99538070D01*
X167621346Y-99553976D01*
X167634134Y-99571219D01*
X167645170Y-99589632D01*
X167654349Y-99609038D01*
X167661581Y-99629250D01*
X167666797Y-99650074D01*
X167669947Y-99671309D01*
X167671000Y-99692750D01*
X167671000Y-100205250D01*
X167669947Y-100226691D01*
X167666797Y-100247926D01*
X167661581Y-100268750D01*
X167654349Y-100288962D01*
X167645170Y-100308368D01*
X167634134Y-100326781D01*
X167621346Y-100344024D01*
X167606930Y-100359930D01*
X167591024Y-100374346D01*
X167573781Y-100387134D01*
X167555368Y-100398170D01*
X167535962Y-100407349D01*
X167515750Y-100414581D01*
X167494926Y-100419797D01*
X167473691Y-100422947D01*
X167452250Y-100424000D01*
X167014750Y-100424000D01*
X166993309Y-100422947D01*
X166972074Y-100419797D01*
X166951250Y-100414581D01*
X166931038Y-100407349D01*
X166911632Y-100398170D01*
X166893219Y-100387134D01*
X166875976Y-100374346D01*
X166860070Y-100359930D01*
X166845654Y-100344024D01*
X166832866Y-100326781D01*
X166821830Y-100308368D01*
X166812651Y-100288962D01*
X166805419Y-100268750D01*
X166800203Y-100247926D01*
X166797053Y-100226691D01*
X166796000Y-100205250D01*
X166796000Y-99692750D01*
X166797053Y-99671309D01*
X166800203Y-99650074D01*
X166805419Y-99629250D01*
X166812651Y-99609038D01*
X166821830Y-99589632D01*
X166832866Y-99571219D01*
X166845654Y-99553976D01*
X166860070Y-99538070D01*
X166875976Y-99523654D01*
X166893219Y-99510866D01*
X166911632Y-99499830D01*
X166931038Y-99490651D01*
X166951250Y-99483419D01*
X166972074Y-99478203D01*
X166993309Y-99475053D01*
X167014750Y-99474000D01*
X167452250Y-99474000D01*
X167473691Y-99475053D01*
X167473691Y-99475053D01*
G37*
D18*
X167233500Y-99949000D03*
D12*
G36*
X169048691Y-99475053D02*
G01*
X169069926Y-99478203D01*
X169090750Y-99483419D01*
X169110962Y-99490651D01*
X169130368Y-99499830D01*
X169148781Y-99510866D01*
X169166024Y-99523654D01*
X169181930Y-99538070D01*
X169196346Y-99553976D01*
X169209134Y-99571219D01*
X169220170Y-99589632D01*
X169229349Y-99609038D01*
X169236581Y-99629250D01*
X169241797Y-99650074D01*
X169244947Y-99671309D01*
X169246000Y-99692750D01*
X169246000Y-100205250D01*
X169244947Y-100226691D01*
X169241797Y-100247926D01*
X169236581Y-100268750D01*
X169229349Y-100288962D01*
X169220170Y-100308368D01*
X169209134Y-100326781D01*
X169196346Y-100344024D01*
X169181930Y-100359930D01*
X169166024Y-100374346D01*
X169148781Y-100387134D01*
X169130368Y-100398170D01*
X169110962Y-100407349D01*
X169090750Y-100414581D01*
X169069926Y-100419797D01*
X169048691Y-100422947D01*
X169027250Y-100424000D01*
X168589750Y-100424000D01*
X168568309Y-100422947D01*
X168547074Y-100419797D01*
X168526250Y-100414581D01*
X168506038Y-100407349D01*
X168486632Y-100398170D01*
X168468219Y-100387134D01*
X168450976Y-100374346D01*
X168435070Y-100359930D01*
X168420654Y-100344024D01*
X168407866Y-100326781D01*
X168396830Y-100308368D01*
X168387651Y-100288962D01*
X168380419Y-100268750D01*
X168375203Y-100247926D01*
X168372053Y-100226691D01*
X168371000Y-100205250D01*
X168371000Y-99692750D01*
X168372053Y-99671309D01*
X168375203Y-99650074D01*
X168380419Y-99629250D01*
X168387651Y-99609038D01*
X168396830Y-99589632D01*
X168407866Y-99571219D01*
X168420654Y-99553976D01*
X168435070Y-99538070D01*
X168450976Y-99523654D01*
X168468219Y-99510866D01*
X168486632Y-99499830D01*
X168506038Y-99490651D01*
X168526250Y-99483419D01*
X168547074Y-99478203D01*
X168568309Y-99475053D01*
X168589750Y-99474000D01*
X169027250Y-99474000D01*
X169048691Y-99475053D01*
X169048691Y-99475053D01*
G37*
D18*
X168808500Y-99949000D03*
D12*
G36*
X158465302Y-94785370D02*
G01*
X158479620Y-94787494D01*
X158493661Y-94791011D01*
X158507290Y-94795888D01*
X158520375Y-94802077D01*
X158532791Y-94809518D01*
X158544417Y-94818141D01*
X158555142Y-94827862D01*
X158564863Y-94838587D01*
X158573486Y-94850213D01*
X158580927Y-94862629D01*
X158587116Y-94875714D01*
X158591993Y-94889343D01*
X158595510Y-94903384D01*
X158597634Y-94917702D01*
X158598344Y-94932160D01*
X158598344Y-95227160D01*
X158597634Y-95241618D01*
X158595510Y-95255936D01*
X158591993Y-95269977D01*
X158587116Y-95283606D01*
X158580927Y-95296691D01*
X158573486Y-95309107D01*
X158564863Y-95320733D01*
X158555142Y-95331458D01*
X158544417Y-95341179D01*
X158532791Y-95349802D01*
X158520375Y-95357243D01*
X158507290Y-95363432D01*
X158493661Y-95368309D01*
X158479620Y-95371826D01*
X158465302Y-95373950D01*
X158450844Y-95374660D01*
X158105844Y-95374660D01*
X158091386Y-95373950D01*
X158077068Y-95371826D01*
X158063027Y-95368309D01*
X158049398Y-95363432D01*
X158036313Y-95357243D01*
X158023897Y-95349802D01*
X158012271Y-95341179D01*
X158001546Y-95331458D01*
X157991825Y-95320733D01*
X157983202Y-95309107D01*
X157975761Y-95296691D01*
X157969572Y-95283606D01*
X157964695Y-95269977D01*
X157961178Y-95255936D01*
X157959054Y-95241618D01*
X157958344Y-95227160D01*
X157958344Y-94932160D01*
X157959054Y-94917702D01*
X157961178Y-94903384D01*
X157964695Y-94889343D01*
X157969572Y-94875714D01*
X157975761Y-94862629D01*
X157983202Y-94850213D01*
X157991825Y-94838587D01*
X158001546Y-94827862D01*
X158012271Y-94818141D01*
X158023897Y-94809518D01*
X158036313Y-94802077D01*
X158049398Y-94795888D01*
X158063027Y-94791011D01*
X158077068Y-94787494D01*
X158091386Y-94785370D01*
X158105844Y-94784660D01*
X158450844Y-94784660D01*
X158465302Y-94785370D01*
X158465302Y-94785370D01*
G37*
D19*
X158278344Y-95079660D03*
D12*
G36*
X158465302Y-93815370D02*
G01*
X158479620Y-93817494D01*
X158493661Y-93821011D01*
X158507290Y-93825888D01*
X158520375Y-93832077D01*
X158532791Y-93839518D01*
X158544417Y-93848141D01*
X158555142Y-93857862D01*
X158564863Y-93868587D01*
X158573486Y-93880213D01*
X158580927Y-93892629D01*
X158587116Y-93905714D01*
X158591993Y-93919343D01*
X158595510Y-93933384D01*
X158597634Y-93947702D01*
X158598344Y-93962160D01*
X158598344Y-94257160D01*
X158597634Y-94271618D01*
X158595510Y-94285936D01*
X158591993Y-94299977D01*
X158587116Y-94313606D01*
X158580927Y-94326691D01*
X158573486Y-94339107D01*
X158564863Y-94350733D01*
X158555142Y-94361458D01*
X158544417Y-94371179D01*
X158532791Y-94379802D01*
X158520375Y-94387243D01*
X158507290Y-94393432D01*
X158493661Y-94398309D01*
X158479620Y-94401826D01*
X158465302Y-94403950D01*
X158450844Y-94404660D01*
X158105844Y-94404660D01*
X158091386Y-94403950D01*
X158077068Y-94401826D01*
X158063027Y-94398309D01*
X158049398Y-94393432D01*
X158036313Y-94387243D01*
X158023897Y-94379802D01*
X158012271Y-94371179D01*
X158001546Y-94361458D01*
X157991825Y-94350733D01*
X157983202Y-94339107D01*
X157975761Y-94326691D01*
X157969572Y-94313606D01*
X157964695Y-94299977D01*
X157961178Y-94285936D01*
X157959054Y-94271618D01*
X157958344Y-94257160D01*
X157958344Y-93962160D01*
X157959054Y-93947702D01*
X157961178Y-93933384D01*
X157964695Y-93919343D01*
X157969572Y-93905714D01*
X157975761Y-93892629D01*
X157983202Y-93880213D01*
X157991825Y-93868587D01*
X158001546Y-93857862D01*
X158012271Y-93848141D01*
X158023897Y-93839518D01*
X158036313Y-93832077D01*
X158049398Y-93825888D01*
X158063027Y-93821011D01*
X158077068Y-93817494D01*
X158091386Y-93815370D01*
X158105844Y-93814660D01*
X158450844Y-93814660D01*
X158465302Y-93815370D01*
X158465302Y-93815370D01*
G37*
D19*
X158278344Y-94109660D03*
D12*
G36*
X161948691Y-106205553D02*
G01*
X161969926Y-106208703D01*
X161990750Y-106213919D01*
X162010962Y-106221151D01*
X162030368Y-106230330D01*
X162048781Y-106241366D01*
X162066024Y-106254154D01*
X162081930Y-106268570D01*
X162096346Y-106284476D01*
X162109134Y-106301719D01*
X162120170Y-106320132D01*
X162129349Y-106339538D01*
X162136581Y-106359750D01*
X162141797Y-106380574D01*
X162144947Y-106401809D01*
X162146000Y-106423250D01*
X162146000Y-106860750D01*
X162144947Y-106882191D01*
X162141797Y-106903426D01*
X162136581Y-106924250D01*
X162129349Y-106944462D01*
X162120170Y-106963868D01*
X162109134Y-106982281D01*
X162096346Y-106999524D01*
X162081930Y-107015430D01*
X162066024Y-107029846D01*
X162048781Y-107042634D01*
X162030368Y-107053670D01*
X162010962Y-107062849D01*
X161990750Y-107070081D01*
X161969926Y-107075297D01*
X161948691Y-107078447D01*
X161927250Y-107079500D01*
X161414750Y-107079500D01*
X161393309Y-107078447D01*
X161372074Y-107075297D01*
X161351250Y-107070081D01*
X161331038Y-107062849D01*
X161311632Y-107053670D01*
X161293219Y-107042634D01*
X161275976Y-107029846D01*
X161260070Y-107015430D01*
X161245654Y-106999524D01*
X161232866Y-106982281D01*
X161221830Y-106963868D01*
X161212651Y-106944462D01*
X161205419Y-106924250D01*
X161200203Y-106903426D01*
X161197053Y-106882191D01*
X161196000Y-106860750D01*
X161196000Y-106423250D01*
X161197053Y-106401809D01*
X161200203Y-106380574D01*
X161205419Y-106359750D01*
X161212651Y-106339538D01*
X161221830Y-106320132D01*
X161232866Y-106301719D01*
X161245654Y-106284476D01*
X161260070Y-106268570D01*
X161275976Y-106254154D01*
X161293219Y-106241366D01*
X161311632Y-106230330D01*
X161331038Y-106221151D01*
X161351250Y-106213919D01*
X161372074Y-106208703D01*
X161393309Y-106205553D01*
X161414750Y-106204500D01*
X161927250Y-106204500D01*
X161948691Y-106205553D01*
X161948691Y-106205553D01*
G37*
D18*
X161671000Y-106642000D03*
D12*
G36*
X161948691Y-104630553D02*
G01*
X161969926Y-104633703D01*
X161990750Y-104638919D01*
X162010962Y-104646151D01*
X162030368Y-104655330D01*
X162048781Y-104666366D01*
X162066024Y-104679154D01*
X162081930Y-104693570D01*
X162096346Y-104709476D01*
X162109134Y-104726719D01*
X162120170Y-104745132D01*
X162129349Y-104764538D01*
X162136581Y-104784750D01*
X162141797Y-104805574D01*
X162144947Y-104826809D01*
X162146000Y-104848250D01*
X162146000Y-105285750D01*
X162144947Y-105307191D01*
X162141797Y-105328426D01*
X162136581Y-105349250D01*
X162129349Y-105369462D01*
X162120170Y-105388868D01*
X162109134Y-105407281D01*
X162096346Y-105424524D01*
X162081930Y-105440430D01*
X162066024Y-105454846D01*
X162048781Y-105467634D01*
X162030368Y-105478670D01*
X162010962Y-105487849D01*
X161990750Y-105495081D01*
X161969926Y-105500297D01*
X161948691Y-105503447D01*
X161927250Y-105504500D01*
X161414750Y-105504500D01*
X161393309Y-105503447D01*
X161372074Y-105500297D01*
X161351250Y-105495081D01*
X161331038Y-105487849D01*
X161311632Y-105478670D01*
X161293219Y-105467634D01*
X161275976Y-105454846D01*
X161260070Y-105440430D01*
X161245654Y-105424524D01*
X161232866Y-105407281D01*
X161221830Y-105388868D01*
X161212651Y-105369462D01*
X161205419Y-105349250D01*
X161200203Y-105328426D01*
X161197053Y-105307191D01*
X161196000Y-105285750D01*
X161196000Y-104848250D01*
X161197053Y-104826809D01*
X161200203Y-104805574D01*
X161205419Y-104784750D01*
X161212651Y-104764538D01*
X161221830Y-104745132D01*
X161232866Y-104726719D01*
X161245654Y-104709476D01*
X161260070Y-104693570D01*
X161275976Y-104679154D01*
X161293219Y-104666366D01*
X161311632Y-104655330D01*
X161331038Y-104646151D01*
X161351250Y-104638919D01*
X161372074Y-104633703D01*
X161393309Y-104630553D01*
X161414750Y-104629500D01*
X161927250Y-104629500D01*
X161948691Y-104630553D01*
X161948691Y-104630553D01*
G37*
D18*
X161671000Y-105067000D03*
D20*
X164211000Y-88900000D03*
X165511000Y-88900000D03*
D21*
X164882344Y-94574660D03*
D22*
X163182344Y-93574660D03*
X163182344Y-94074660D03*
X163182344Y-94574660D03*
X163182344Y-95074660D03*
X163182344Y-95574660D03*
D23*
X163882344Y-96274660D03*
X164382344Y-96274660D03*
X164882344Y-96274660D03*
X165382344Y-96274660D03*
X165882344Y-96274660D03*
D22*
X166582344Y-95574660D03*
X166582344Y-95074660D03*
X166582344Y-94574660D03*
X166582344Y-94074660D03*
X166582344Y-93574660D03*
D23*
X165882344Y-92874660D03*
X165382344Y-92874660D03*
X164882344Y-92874660D03*
X164382344Y-92874660D03*
X163882344Y-92874660D03*
D14*
X159278000Y-101790500D03*
D15*
X161178000Y-101790500D03*
D12*
G36*
X168779458Y-91376710D02*
G01*
X168793776Y-91378834D01*
X168807817Y-91382351D01*
X168821446Y-91387228D01*
X168834531Y-91393417D01*
X168846947Y-91400858D01*
X168858573Y-91409481D01*
X168869298Y-91419202D01*
X168879019Y-91429927D01*
X168887642Y-91441553D01*
X168895083Y-91453969D01*
X168901272Y-91467054D01*
X168906149Y-91480683D01*
X168909666Y-91494724D01*
X168911790Y-91509042D01*
X168912500Y-91523500D01*
X168912500Y-91818500D01*
X168911790Y-91832958D01*
X168909666Y-91847276D01*
X168906149Y-91861317D01*
X168901272Y-91874946D01*
X168895083Y-91888031D01*
X168887642Y-91900447D01*
X168879019Y-91912073D01*
X168869298Y-91922798D01*
X168858573Y-91932519D01*
X168846947Y-91941142D01*
X168834531Y-91948583D01*
X168821446Y-91954772D01*
X168807817Y-91959649D01*
X168793776Y-91963166D01*
X168779458Y-91965290D01*
X168765000Y-91966000D01*
X168420000Y-91966000D01*
X168405542Y-91965290D01*
X168391224Y-91963166D01*
X168377183Y-91959649D01*
X168363554Y-91954772D01*
X168350469Y-91948583D01*
X168338053Y-91941142D01*
X168326427Y-91932519D01*
X168315702Y-91922798D01*
X168305981Y-91912073D01*
X168297358Y-91900447D01*
X168289917Y-91888031D01*
X168283728Y-91874946D01*
X168278851Y-91861317D01*
X168275334Y-91847276D01*
X168273210Y-91832958D01*
X168272500Y-91818500D01*
X168272500Y-91523500D01*
X168273210Y-91509042D01*
X168275334Y-91494724D01*
X168278851Y-91480683D01*
X168283728Y-91467054D01*
X168289917Y-91453969D01*
X168297358Y-91441553D01*
X168305981Y-91429927D01*
X168315702Y-91419202D01*
X168326427Y-91409481D01*
X168338053Y-91400858D01*
X168350469Y-91393417D01*
X168363554Y-91387228D01*
X168377183Y-91382351D01*
X168391224Y-91378834D01*
X168405542Y-91376710D01*
X168420000Y-91376000D01*
X168765000Y-91376000D01*
X168779458Y-91376710D01*
X168779458Y-91376710D01*
G37*
D19*
X168592500Y-91671000D03*
D12*
G36*
X168779458Y-90406710D02*
G01*
X168793776Y-90408834D01*
X168807817Y-90412351D01*
X168821446Y-90417228D01*
X168834531Y-90423417D01*
X168846947Y-90430858D01*
X168858573Y-90439481D01*
X168869298Y-90449202D01*
X168879019Y-90459927D01*
X168887642Y-90471553D01*
X168895083Y-90483969D01*
X168901272Y-90497054D01*
X168906149Y-90510683D01*
X168909666Y-90524724D01*
X168911790Y-90539042D01*
X168912500Y-90553500D01*
X168912500Y-90848500D01*
X168911790Y-90862958D01*
X168909666Y-90877276D01*
X168906149Y-90891317D01*
X168901272Y-90904946D01*
X168895083Y-90918031D01*
X168887642Y-90930447D01*
X168879019Y-90942073D01*
X168869298Y-90952798D01*
X168858573Y-90962519D01*
X168846947Y-90971142D01*
X168834531Y-90978583D01*
X168821446Y-90984772D01*
X168807817Y-90989649D01*
X168793776Y-90993166D01*
X168779458Y-90995290D01*
X168765000Y-90996000D01*
X168420000Y-90996000D01*
X168405542Y-90995290D01*
X168391224Y-90993166D01*
X168377183Y-90989649D01*
X168363554Y-90984772D01*
X168350469Y-90978583D01*
X168338053Y-90971142D01*
X168326427Y-90962519D01*
X168315702Y-90952798D01*
X168305981Y-90942073D01*
X168297358Y-90930447D01*
X168289917Y-90918031D01*
X168283728Y-90904946D01*
X168278851Y-90891317D01*
X168275334Y-90877276D01*
X168273210Y-90862958D01*
X168272500Y-90848500D01*
X168272500Y-90553500D01*
X168273210Y-90539042D01*
X168275334Y-90524724D01*
X168278851Y-90510683D01*
X168283728Y-90497054D01*
X168289917Y-90483969D01*
X168297358Y-90471553D01*
X168305981Y-90459927D01*
X168315702Y-90449202D01*
X168326427Y-90439481D01*
X168338053Y-90430858D01*
X168350469Y-90423417D01*
X168363554Y-90417228D01*
X168377183Y-90412351D01*
X168391224Y-90408834D01*
X168405542Y-90406710D01*
X168420000Y-90406000D01*
X168765000Y-90406000D01*
X168779458Y-90406710D01*
X168779458Y-90406710D01*
G37*
D19*
X168592500Y-90701000D03*
D12*
G36*
X169683958Y-92644710D02*
G01*
X169698276Y-92646834D01*
X169712317Y-92650351D01*
X169725946Y-92655228D01*
X169739031Y-92661417D01*
X169751447Y-92668858D01*
X169763073Y-92677481D01*
X169773798Y-92687202D01*
X169783519Y-92697927D01*
X169792142Y-92709553D01*
X169799583Y-92721969D01*
X169805772Y-92735054D01*
X169810649Y-92748683D01*
X169814166Y-92762724D01*
X169816290Y-92777042D01*
X169817000Y-92791500D01*
X169817000Y-93136500D01*
X169816290Y-93150958D01*
X169814166Y-93165276D01*
X169810649Y-93179317D01*
X169805772Y-93192946D01*
X169799583Y-93206031D01*
X169792142Y-93218447D01*
X169783519Y-93230073D01*
X169773798Y-93240798D01*
X169763073Y-93250519D01*
X169751447Y-93259142D01*
X169739031Y-93266583D01*
X169725946Y-93272772D01*
X169712317Y-93277649D01*
X169698276Y-93281166D01*
X169683958Y-93283290D01*
X169669500Y-93284000D01*
X169374500Y-93284000D01*
X169360042Y-93283290D01*
X169345724Y-93281166D01*
X169331683Y-93277649D01*
X169318054Y-93272772D01*
X169304969Y-93266583D01*
X169292553Y-93259142D01*
X169280927Y-93250519D01*
X169270202Y-93240798D01*
X169260481Y-93230073D01*
X169251858Y-93218447D01*
X169244417Y-93206031D01*
X169238228Y-93192946D01*
X169233351Y-93179317D01*
X169229834Y-93165276D01*
X169227710Y-93150958D01*
X169227000Y-93136500D01*
X169227000Y-92791500D01*
X169227710Y-92777042D01*
X169229834Y-92762724D01*
X169233351Y-92748683D01*
X169238228Y-92735054D01*
X169244417Y-92721969D01*
X169251858Y-92709553D01*
X169260481Y-92697927D01*
X169270202Y-92687202D01*
X169280927Y-92677481D01*
X169292553Y-92668858D01*
X169304969Y-92661417D01*
X169318054Y-92655228D01*
X169331683Y-92650351D01*
X169345724Y-92646834D01*
X169360042Y-92644710D01*
X169374500Y-92644000D01*
X169669500Y-92644000D01*
X169683958Y-92644710D01*
X169683958Y-92644710D01*
G37*
D19*
X169522000Y-92964000D03*
D12*
G36*
X168713958Y-92644710D02*
G01*
X168728276Y-92646834D01*
X168742317Y-92650351D01*
X168755946Y-92655228D01*
X168769031Y-92661417D01*
X168781447Y-92668858D01*
X168793073Y-92677481D01*
X168803798Y-92687202D01*
X168813519Y-92697927D01*
X168822142Y-92709553D01*
X168829583Y-92721969D01*
X168835772Y-92735054D01*
X168840649Y-92748683D01*
X168844166Y-92762724D01*
X168846290Y-92777042D01*
X168847000Y-92791500D01*
X168847000Y-93136500D01*
X168846290Y-93150958D01*
X168844166Y-93165276D01*
X168840649Y-93179317D01*
X168835772Y-93192946D01*
X168829583Y-93206031D01*
X168822142Y-93218447D01*
X168813519Y-93230073D01*
X168803798Y-93240798D01*
X168793073Y-93250519D01*
X168781447Y-93259142D01*
X168769031Y-93266583D01*
X168755946Y-93272772D01*
X168742317Y-93277649D01*
X168728276Y-93281166D01*
X168713958Y-93283290D01*
X168699500Y-93284000D01*
X168404500Y-93284000D01*
X168390042Y-93283290D01*
X168375724Y-93281166D01*
X168361683Y-93277649D01*
X168348054Y-93272772D01*
X168334969Y-93266583D01*
X168322553Y-93259142D01*
X168310927Y-93250519D01*
X168300202Y-93240798D01*
X168290481Y-93230073D01*
X168281858Y-93218447D01*
X168274417Y-93206031D01*
X168268228Y-93192946D01*
X168263351Y-93179317D01*
X168259834Y-93165276D01*
X168257710Y-93150958D01*
X168257000Y-93136500D01*
X168257000Y-92791500D01*
X168257710Y-92777042D01*
X168259834Y-92762724D01*
X168263351Y-92748683D01*
X168268228Y-92735054D01*
X168274417Y-92721969D01*
X168281858Y-92709553D01*
X168290481Y-92697927D01*
X168300202Y-92687202D01*
X168310927Y-92677481D01*
X168322553Y-92668858D01*
X168334969Y-92661417D01*
X168348054Y-92655228D01*
X168361683Y-92650351D01*
X168375724Y-92646834D01*
X168390042Y-92644710D01*
X168404500Y-92644000D01*
X168699500Y-92644000D01*
X168713958Y-92644710D01*
X168713958Y-92644710D01*
G37*
D19*
X168552000Y-92964000D03*
D12*
G36*
X156904958Y-90914710D02*
G01*
X156919276Y-90916834D01*
X156933317Y-90920351D01*
X156946946Y-90925228D01*
X156960031Y-90931417D01*
X156972447Y-90938858D01*
X156984073Y-90947481D01*
X156994798Y-90957202D01*
X157004519Y-90967927D01*
X157013142Y-90979553D01*
X157020583Y-90991969D01*
X157026772Y-91005054D01*
X157031649Y-91018683D01*
X157035166Y-91032724D01*
X157037290Y-91047042D01*
X157038000Y-91061500D01*
X157038000Y-91356500D01*
X157037290Y-91370958D01*
X157035166Y-91385276D01*
X157031649Y-91399317D01*
X157026772Y-91412946D01*
X157020583Y-91426031D01*
X157013142Y-91438447D01*
X157004519Y-91450073D01*
X156994798Y-91460798D01*
X156984073Y-91470519D01*
X156972447Y-91479142D01*
X156960031Y-91486583D01*
X156946946Y-91492772D01*
X156933317Y-91497649D01*
X156919276Y-91501166D01*
X156904958Y-91503290D01*
X156890500Y-91504000D01*
X156545500Y-91504000D01*
X156531042Y-91503290D01*
X156516724Y-91501166D01*
X156502683Y-91497649D01*
X156489054Y-91492772D01*
X156475969Y-91486583D01*
X156463553Y-91479142D01*
X156451927Y-91470519D01*
X156441202Y-91460798D01*
X156431481Y-91450073D01*
X156422858Y-91438447D01*
X156415417Y-91426031D01*
X156409228Y-91412946D01*
X156404351Y-91399317D01*
X156400834Y-91385276D01*
X156398710Y-91370958D01*
X156398000Y-91356500D01*
X156398000Y-91061500D01*
X156398710Y-91047042D01*
X156400834Y-91032724D01*
X156404351Y-91018683D01*
X156409228Y-91005054D01*
X156415417Y-90991969D01*
X156422858Y-90979553D01*
X156431481Y-90967927D01*
X156441202Y-90957202D01*
X156451927Y-90947481D01*
X156463553Y-90938858D01*
X156475969Y-90931417D01*
X156489054Y-90925228D01*
X156502683Y-90920351D01*
X156516724Y-90916834D01*
X156531042Y-90914710D01*
X156545500Y-90914000D01*
X156890500Y-90914000D01*
X156904958Y-90914710D01*
X156904958Y-90914710D01*
G37*
D19*
X156718000Y-91209000D03*
D12*
G36*
X156904958Y-91884710D02*
G01*
X156919276Y-91886834D01*
X156933317Y-91890351D01*
X156946946Y-91895228D01*
X156960031Y-91901417D01*
X156972447Y-91908858D01*
X156984073Y-91917481D01*
X156994798Y-91927202D01*
X157004519Y-91937927D01*
X157013142Y-91949553D01*
X157020583Y-91961969D01*
X157026772Y-91975054D01*
X157031649Y-91988683D01*
X157035166Y-92002724D01*
X157037290Y-92017042D01*
X157038000Y-92031500D01*
X157038000Y-92326500D01*
X157037290Y-92340958D01*
X157035166Y-92355276D01*
X157031649Y-92369317D01*
X157026772Y-92382946D01*
X157020583Y-92396031D01*
X157013142Y-92408447D01*
X157004519Y-92420073D01*
X156994798Y-92430798D01*
X156984073Y-92440519D01*
X156972447Y-92449142D01*
X156960031Y-92456583D01*
X156946946Y-92462772D01*
X156933317Y-92467649D01*
X156919276Y-92471166D01*
X156904958Y-92473290D01*
X156890500Y-92474000D01*
X156545500Y-92474000D01*
X156531042Y-92473290D01*
X156516724Y-92471166D01*
X156502683Y-92467649D01*
X156489054Y-92462772D01*
X156475969Y-92456583D01*
X156463553Y-92449142D01*
X156451927Y-92440519D01*
X156441202Y-92430798D01*
X156431481Y-92420073D01*
X156422858Y-92408447D01*
X156415417Y-92396031D01*
X156409228Y-92382946D01*
X156404351Y-92369317D01*
X156400834Y-92355276D01*
X156398710Y-92340958D01*
X156398000Y-92326500D01*
X156398000Y-92031500D01*
X156398710Y-92017042D01*
X156400834Y-92002724D01*
X156404351Y-91988683D01*
X156409228Y-91975054D01*
X156415417Y-91961969D01*
X156422858Y-91949553D01*
X156431481Y-91937927D01*
X156441202Y-91927202D01*
X156451927Y-91917481D01*
X156463553Y-91908858D01*
X156475969Y-91901417D01*
X156489054Y-91895228D01*
X156502683Y-91890351D01*
X156516724Y-91886834D01*
X156531042Y-91884710D01*
X156545500Y-91884000D01*
X156890500Y-91884000D01*
X156904958Y-91884710D01*
X156904958Y-91884710D01*
G37*
D19*
X156718000Y-92179000D03*
D12*
G36*
X160397458Y-94785370D02*
G01*
X160411776Y-94787494D01*
X160425817Y-94791011D01*
X160439446Y-94795888D01*
X160452531Y-94802077D01*
X160464947Y-94809518D01*
X160476573Y-94818141D01*
X160487298Y-94827862D01*
X160497019Y-94838587D01*
X160505642Y-94850213D01*
X160513083Y-94862629D01*
X160519272Y-94875714D01*
X160524149Y-94889343D01*
X160527666Y-94903384D01*
X160529790Y-94917702D01*
X160530500Y-94932160D01*
X160530500Y-95227160D01*
X160529790Y-95241618D01*
X160527666Y-95255936D01*
X160524149Y-95269977D01*
X160519272Y-95283606D01*
X160513083Y-95296691D01*
X160505642Y-95309107D01*
X160497019Y-95320733D01*
X160487298Y-95331458D01*
X160476573Y-95341179D01*
X160464947Y-95349802D01*
X160452531Y-95357243D01*
X160439446Y-95363432D01*
X160425817Y-95368309D01*
X160411776Y-95371826D01*
X160397458Y-95373950D01*
X160383000Y-95374660D01*
X160038000Y-95374660D01*
X160023542Y-95373950D01*
X160009224Y-95371826D01*
X159995183Y-95368309D01*
X159981554Y-95363432D01*
X159968469Y-95357243D01*
X159956053Y-95349802D01*
X159944427Y-95341179D01*
X159933702Y-95331458D01*
X159923981Y-95320733D01*
X159915358Y-95309107D01*
X159907917Y-95296691D01*
X159901728Y-95283606D01*
X159896851Y-95269977D01*
X159893334Y-95255936D01*
X159891210Y-95241618D01*
X159890500Y-95227160D01*
X159890500Y-94932160D01*
X159891210Y-94917702D01*
X159893334Y-94903384D01*
X159896851Y-94889343D01*
X159901728Y-94875714D01*
X159907917Y-94862629D01*
X159915358Y-94850213D01*
X159923981Y-94838587D01*
X159933702Y-94827862D01*
X159944427Y-94818141D01*
X159956053Y-94809518D01*
X159968469Y-94802077D01*
X159981554Y-94795888D01*
X159995183Y-94791011D01*
X160009224Y-94787494D01*
X160023542Y-94785370D01*
X160038000Y-94784660D01*
X160383000Y-94784660D01*
X160397458Y-94785370D01*
X160397458Y-94785370D01*
G37*
D19*
X160210500Y-95079660D03*
D12*
G36*
X160397458Y-93815370D02*
G01*
X160411776Y-93817494D01*
X160425817Y-93821011D01*
X160439446Y-93825888D01*
X160452531Y-93832077D01*
X160464947Y-93839518D01*
X160476573Y-93848141D01*
X160487298Y-93857862D01*
X160497019Y-93868587D01*
X160505642Y-93880213D01*
X160513083Y-93892629D01*
X160519272Y-93905714D01*
X160524149Y-93919343D01*
X160527666Y-93933384D01*
X160529790Y-93947702D01*
X160530500Y-93962160D01*
X160530500Y-94257160D01*
X160529790Y-94271618D01*
X160527666Y-94285936D01*
X160524149Y-94299977D01*
X160519272Y-94313606D01*
X160513083Y-94326691D01*
X160505642Y-94339107D01*
X160497019Y-94350733D01*
X160487298Y-94361458D01*
X160476573Y-94371179D01*
X160464947Y-94379802D01*
X160452531Y-94387243D01*
X160439446Y-94393432D01*
X160425817Y-94398309D01*
X160411776Y-94401826D01*
X160397458Y-94403950D01*
X160383000Y-94404660D01*
X160038000Y-94404660D01*
X160023542Y-94403950D01*
X160009224Y-94401826D01*
X159995183Y-94398309D01*
X159981554Y-94393432D01*
X159968469Y-94387243D01*
X159956053Y-94379802D01*
X159944427Y-94371179D01*
X159933702Y-94361458D01*
X159923981Y-94350733D01*
X159915358Y-94339107D01*
X159907917Y-94326691D01*
X159901728Y-94313606D01*
X159896851Y-94299977D01*
X159893334Y-94285936D01*
X159891210Y-94271618D01*
X159890500Y-94257160D01*
X159890500Y-93962160D01*
X159891210Y-93947702D01*
X159893334Y-93933384D01*
X159896851Y-93919343D01*
X159901728Y-93905714D01*
X159907917Y-93892629D01*
X159915358Y-93880213D01*
X159923981Y-93868587D01*
X159933702Y-93857862D01*
X159944427Y-93848141D01*
X159956053Y-93839518D01*
X159968469Y-93832077D01*
X159981554Y-93825888D01*
X159995183Y-93821011D01*
X160009224Y-93817494D01*
X160023542Y-93815370D01*
X160038000Y-93814660D01*
X160383000Y-93814660D01*
X160397458Y-93815370D01*
X160397458Y-93815370D01*
G37*
D19*
X160210500Y-94109660D03*
D12*
G36*
X159535691Y-106078553D02*
G01*
X159556926Y-106081703D01*
X159577750Y-106086919D01*
X159597962Y-106094151D01*
X159617368Y-106103330D01*
X159635781Y-106114366D01*
X159653024Y-106127154D01*
X159668930Y-106141570D01*
X159683346Y-106157476D01*
X159696134Y-106174719D01*
X159707170Y-106193132D01*
X159716349Y-106212538D01*
X159723581Y-106232750D01*
X159728797Y-106253574D01*
X159731947Y-106274809D01*
X159733000Y-106296250D01*
X159733000Y-106733750D01*
X159731947Y-106755191D01*
X159728797Y-106776426D01*
X159723581Y-106797250D01*
X159716349Y-106817462D01*
X159707170Y-106836868D01*
X159696134Y-106855281D01*
X159683346Y-106872524D01*
X159668930Y-106888430D01*
X159653024Y-106902846D01*
X159635781Y-106915634D01*
X159617368Y-106926670D01*
X159597962Y-106935849D01*
X159577750Y-106943081D01*
X159556926Y-106948297D01*
X159535691Y-106951447D01*
X159514250Y-106952500D01*
X159001750Y-106952500D01*
X158980309Y-106951447D01*
X158959074Y-106948297D01*
X158938250Y-106943081D01*
X158918038Y-106935849D01*
X158898632Y-106926670D01*
X158880219Y-106915634D01*
X158862976Y-106902846D01*
X158847070Y-106888430D01*
X158832654Y-106872524D01*
X158819866Y-106855281D01*
X158808830Y-106836868D01*
X158799651Y-106817462D01*
X158792419Y-106797250D01*
X158787203Y-106776426D01*
X158784053Y-106755191D01*
X158783000Y-106733750D01*
X158783000Y-106296250D01*
X158784053Y-106274809D01*
X158787203Y-106253574D01*
X158792419Y-106232750D01*
X158799651Y-106212538D01*
X158808830Y-106193132D01*
X158819866Y-106174719D01*
X158832654Y-106157476D01*
X158847070Y-106141570D01*
X158862976Y-106127154D01*
X158880219Y-106114366D01*
X158898632Y-106103330D01*
X158918038Y-106094151D01*
X158938250Y-106086919D01*
X158959074Y-106081703D01*
X158980309Y-106078553D01*
X159001750Y-106077500D01*
X159514250Y-106077500D01*
X159535691Y-106078553D01*
X159535691Y-106078553D01*
G37*
D18*
X159258000Y-106515000D03*
D12*
G36*
X159535691Y-104503553D02*
G01*
X159556926Y-104506703D01*
X159577750Y-104511919D01*
X159597962Y-104519151D01*
X159617368Y-104528330D01*
X159635781Y-104539366D01*
X159653024Y-104552154D01*
X159668930Y-104566570D01*
X159683346Y-104582476D01*
X159696134Y-104599719D01*
X159707170Y-104618132D01*
X159716349Y-104637538D01*
X159723581Y-104657750D01*
X159728797Y-104678574D01*
X159731947Y-104699809D01*
X159733000Y-104721250D01*
X159733000Y-105158750D01*
X159731947Y-105180191D01*
X159728797Y-105201426D01*
X159723581Y-105222250D01*
X159716349Y-105242462D01*
X159707170Y-105261868D01*
X159696134Y-105280281D01*
X159683346Y-105297524D01*
X159668930Y-105313430D01*
X159653024Y-105327846D01*
X159635781Y-105340634D01*
X159617368Y-105351670D01*
X159597962Y-105360849D01*
X159577750Y-105368081D01*
X159556926Y-105373297D01*
X159535691Y-105376447D01*
X159514250Y-105377500D01*
X159001750Y-105377500D01*
X158980309Y-105376447D01*
X158959074Y-105373297D01*
X158938250Y-105368081D01*
X158918038Y-105360849D01*
X158898632Y-105351670D01*
X158880219Y-105340634D01*
X158862976Y-105327846D01*
X158847070Y-105313430D01*
X158832654Y-105297524D01*
X158819866Y-105280281D01*
X158808830Y-105261868D01*
X158799651Y-105242462D01*
X158792419Y-105222250D01*
X158787203Y-105201426D01*
X158784053Y-105180191D01*
X158783000Y-105158750D01*
X158783000Y-104721250D01*
X158784053Y-104699809D01*
X158787203Y-104678574D01*
X158792419Y-104657750D01*
X158799651Y-104637538D01*
X158808830Y-104618132D01*
X158819866Y-104599719D01*
X158832654Y-104582476D01*
X158847070Y-104566570D01*
X158862976Y-104552154D01*
X158880219Y-104539366D01*
X158898632Y-104528330D01*
X158918038Y-104519151D01*
X158938250Y-104511919D01*
X158959074Y-104506703D01*
X158980309Y-104503553D01*
X159001750Y-104502500D01*
X159514250Y-104502500D01*
X159535691Y-104503553D01*
X159535691Y-104503553D01*
G37*
D18*
X159258000Y-104940000D03*
D12*
G36*
X162762458Y-103122210D02*
G01*
X162776776Y-103124334D01*
X162790817Y-103127851D01*
X162804446Y-103132728D01*
X162817531Y-103138917D01*
X162829947Y-103146358D01*
X162841573Y-103154981D01*
X162852298Y-103164702D01*
X162862019Y-103175427D01*
X162870642Y-103187053D01*
X162878083Y-103199469D01*
X162884272Y-103212554D01*
X162889149Y-103226183D01*
X162892666Y-103240224D01*
X162894790Y-103254542D01*
X162895500Y-103269000D01*
X162895500Y-103614000D01*
X162894790Y-103628458D01*
X162892666Y-103642776D01*
X162889149Y-103656817D01*
X162884272Y-103670446D01*
X162878083Y-103683531D01*
X162870642Y-103695947D01*
X162862019Y-103707573D01*
X162852298Y-103718298D01*
X162841573Y-103728019D01*
X162829947Y-103736642D01*
X162817531Y-103744083D01*
X162804446Y-103750272D01*
X162790817Y-103755149D01*
X162776776Y-103758666D01*
X162762458Y-103760790D01*
X162748000Y-103761500D01*
X162453000Y-103761500D01*
X162438542Y-103760790D01*
X162424224Y-103758666D01*
X162410183Y-103755149D01*
X162396554Y-103750272D01*
X162383469Y-103744083D01*
X162371053Y-103736642D01*
X162359427Y-103728019D01*
X162348702Y-103718298D01*
X162338981Y-103707573D01*
X162330358Y-103695947D01*
X162322917Y-103683531D01*
X162316728Y-103670446D01*
X162311851Y-103656817D01*
X162308334Y-103642776D01*
X162306210Y-103628458D01*
X162305500Y-103614000D01*
X162305500Y-103269000D01*
X162306210Y-103254542D01*
X162308334Y-103240224D01*
X162311851Y-103226183D01*
X162316728Y-103212554D01*
X162322917Y-103199469D01*
X162330358Y-103187053D01*
X162338981Y-103175427D01*
X162348702Y-103164702D01*
X162359427Y-103154981D01*
X162371053Y-103146358D01*
X162383469Y-103138917D01*
X162396554Y-103132728D01*
X162410183Y-103127851D01*
X162424224Y-103124334D01*
X162438542Y-103122210D01*
X162453000Y-103121500D01*
X162748000Y-103121500D01*
X162762458Y-103122210D01*
X162762458Y-103122210D01*
G37*
D19*
X162600500Y-103441500D03*
D12*
G36*
X161792458Y-103122210D02*
G01*
X161806776Y-103124334D01*
X161820817Y-103127851D01*
X161834446Y-103132728D01*
X161847531Y-103138917D01*
X161859947Y-103146358D01*
X161871573Y-103154981D01*
X161882298Y-103164702D01*
X161892019Y-103175427D01*
X161900642Y-103187053D01*
X161908083Y-103199469D01*
X161914272Y-103212554D01*
X161919149Y-103226183D01*
X161922666Y-103240224D01*
X161924790Y-103254542D01*
X161925500Y-103269000D01*
X161925500Y-103614000D01*
X161924790Y-103628458D01*
X161922666Y-103642776D01*
X161919149Y-103656817D01*
X161914272Y-103670446D01*
X161908083Y-103683531D01*
X161900642Y-103695947D01*
X161892019Y-103707573D01*
X161882298Y-103718298D01*
X161871573Y-103728019D01*
X161859947Y-103736642D01*
X161847531Y-103744083D01*
X161834446Y-103750272D01*
X161820817Y-103755149D01*
X161806776Y-103758666D01*
X161792458Y-103760790D01*
X161778000Y-103761500D01*
X161483000Y-103761500D01*
X161468542Y-103760790D01*
X161454224Y-103758666D01*
X161440183Y-103755149D01*
X161426554Y-103750272D01*
X161413469Y-103744083D01*
X161401053Y-103736642D01*
X161389427Y-103728019D01*
X161378702Y-103718298D01*
X161368981Y-103707573D01*
X161360358Y-103695947D01*
X161352917Y-103683531D01*
X161346728Y-103670446D01*
X161341851Y-103656817D01*
X161338334Y-103642776D01*
X161336210Y-103628458D01*
X161335500Y-103614000D01*
X161335500Y-103269000D01*
X161336210Y-103254542D01*
X161338334Y-103240224D01*
X161341851Y-103226183D01*
X161346728Y-103212554D01*
X161352917Y-103199469D01*
X161360358Y-103187053D01*
X161368981Y-103175427D01*
X161378702Y-103164702D01*
X161389427Y-103154981D01*
X161401053Y-103146358D01*
X161413469Y-103138917D01*
X161426554Y-103132728D01*
X161440183Y-103127851D01*
X161454224Y-103124334D01*
X161468542Y-103122210D01*
X161483000Y-103121500D01*
X161778000Y-103121500D01*
X161792458Y-103122210D01*
X161792458Y-103122210D01*
G37*
D19*
X161630500Y-103441500D03*
D12*
G36*
X168713958Y-93914710D02*
G01*
X168728276Y-93916834D01*
X168742317Y-93920351D01*
X168755946Y-93925228D01*
X168769031Y-93931417D01*
X168781447Y-93938858D01*
X168793073Y-93947481D01*
X168803798Y-93957202D01*
X168813519Y-93967927D01*
X168822142Y-93979553D01*
X168829583Y-93991969D01*
X168835772Y-94005054D01*
X168840649Y-94018683D01*
X168844166Y-94032724D01*
X168846290Y-94047042D01*
X168847000Y-94061500D01*
X168847000Y-94406500D01*
X168846290Y-94420958D01*
X168844166Y-94435276D01*
X168840649Y-94449317D01*
X168835772Y-94462946D01*
X168829583Y-94476031D01*
X168822142Y-94488447D01*
X168813519Y-94500073D01*
X168803798Y-94510798D01*
X168793073Y-94520519D01*
X168781447Y-94529142D01*
X168769031Y-94536583D01*
X168755946Y-94542772D01*
X168742317Y-94547649D01*
X168728276Y-94551166D01*
X168713958Y-94553290D01*
X168699500Y-94554000D01*
X168404500Y-94554000D01*
X168390042Y-94553290D01*
X168375724Y-94551166D01*
X168361683Y-94547649D01*
X168348054Y-94542772D01*
X168334969Y-94536583D01*
X168322553Y-94529142D01*
X168310927Y-94520519D01*
X168300202Y-94510798D01*
X168290481Y-94500073D01*
X168281858Y-94488447D01*
X168274417Y-94476031D01*
X168268228Y-94462946D01*
X168263351Y-94449317D01*
X168259834Y-94435276D01*
X168257710Y-94420958D01*
X168257000Y-94406500D01*
X168257000Y-94061500D01*
X168257710Y-94047042D01*
X168259834Y-94032724D01*
X168263351Y-94018683D01*
X168268228Y-94005054D01*
X168274417Y-93991969D01*
X168281858Y-93979553D01*
X168290481Y-93967927D01*
X168300202Y-93957202D01*
X168310927Y-93947481D01*
X168322553Y-93938858D01*
X168334969Y-93931417D01*
X168348054Y-93925228D01*
X168361683Y-93920351D01*
X168375724Y-93916834D01*
X168390042Y-93914710D01*
X168404500Y-93914000D01*
X168699500Y-93914000D01*
X168713958Y-93914710D01*
X168713958Y-93914710D01*
G37*
D19*
X168552000Y-94234000D03*
D12*
G36*
X169683958Y-93914710D02*
G01*
X169698276Y-93916834D01*
X169712317Y-93920351D01*
X169725946Y-93925228D01*
X169739031Y-93931417D01*
X169751447Y-93938858D01*
X169763073Y-93947481D01*
X169773798Y-93957202D01*
X169783519Y-93967927D01*
X169792142Y-93979553D01*
X169799583Y-93991969D01*
X169805772Y-94005054D01*
X169810649Y-94018683D01*
X169814166Y-94032724D01*
X169816290Y-94047042D01*
X169817000Y-94061500D01*
X169817000Y-94406500D01*
X169816290Y-94420958D01*
X169814166Y-94435276D01*
X169810649Y-94449317D01*
X169805772Y-94462946D01*
X169799583Y-94476031D01*
X169792142Y-94488447D01*
X169783519Y-94500073D01*
X169773798Y-94510798D01*
X169763073Y-94520519D01*
X169751447Y-94529142D01*
X169739031Y-94536583D01*
X169725946Y-94542772D01*
X169712317Y-94547649D01*
X169698276Y-94551166D01*
X169683958Y-94553290D01*
X169669500Y-94554000D01*
X169374500Y-94554000D01*
X169360042Y-94553290D01*
X169345724Y-94551166D01*
X169331683Y-94547649D01*
X169318054Y-94542772D01*
X169304969Y-94536583D01*
X169292553Y-94529142D01*
X169280927Y-94520519D01*
X169270202Y-94510798D01*
X169260481Y-94500073D01*
X169251858Y-94488447D01*
X169244417Y-94476031D01*
X169238228Y-94462946D01*
X169233351Y-94449317D01*
X169229834Y-94435276D01*
X169227710Y-94420958D01*
X169227000Y-94406500D01*
X169227000Y-94061500D01*
X169227710Y-94047042D01*
X169229834Y-94032724D01*
X169233351Y-94018683D01*
X169238228Y-94005054D01*
X169244417Y-93991969D01*
X169251858Y-93979553D01*
X169260481Y-93967927D01*
X169270202Y-93957202D01*
X169280927Y-93947481D01*
X169292553Y-93938858D01*
X169304969Y-93931417D01*
X169318054Y-93925228D01*
X169331683Y-93920351D01*
X169345724Y-93916834D01*
X169360042Y-93914710D01*
X169374500Y-93914000D01*
X169669500Y-93914000D01*
X169683958Y-93914710D01*
X169683958Y-93914710D01*
G37*
D19*
X169522000Y-94234000D03*
D12*
G36*
X166239458Y-97328210D02*
G01*
X166253776Y-97330334D01*
X166267817Y-97333851D01*
X166281446Y-97338728D01*
X166294531Y-97344917D01*
X166306947Y-97352358D01*
X166318573Y-97360981D01*
X166329298Y-97370702D01*
X166339019Y-97381427D01*
X166347642Y-97393053D01*
X166355083Y-97405469D01*
X166361272Y-97418554D01*
X166366149Y-97432183D01*
X166369666Y-97446224D01*
X166371790Y-97460542D01*
X166372500Y-97475000D01*
X166372500Y-97770000D01*
X166371790Y-97784458D01*
X166369666Y-97798776D01*
X166366149Y-97812817D01*
X166361272Y-97826446D01*
X166355083Y-97839531D01*
X166347642Y-97851947D01*
X166339019Y-97863573D01*
X166329298Y-97874298D01*
X166318573Y-97884019D01*
X166306947Y-97892642D01*
X166294531Y-97900083D01*
X166281446Y-97906272D01*
X166267817Y-97911149D01*
X166253776Y-97914666D01*
X166239458Y-97916790D01*
X166225000Y-97917500D01*
X165880000Y-97917500D01*
X165865542Y-97916790D01*
X165851224Y-97914666D01*
X165837183Y-97911149D01*
X165823554Y-97906272D01*
X165810469Y-97900083D01*
X165798053Y-97892642D01*
X165786427Y-97884019D01*
X165775702Y-97874298D01*
X165765981Y-97863573D01*
X165757358Y-97851947D01*
X165749917Y-97839531D01*
X165743728Y-97826446D01*
X165738851Y-97812817D01*
X165735334Y-97798776D01*
X165733210Y-97784458D01*
X165732500Y-97770000D01*
X165732500Y-97475000D01*
X165733210Y-97460542D01*
X165735334Y-97446224D01*
X165738851Y-97432183D01*
X165743728Y-97418554D01*
X165749917Y-97405469D01*
X165757358Y-97393053D01*
X165765981Y-97381427D01*
X165775702Y-97370702D01*
X165786427Y-97360981D01*
X165798053Y-97352358D01*
X165810469Y-97344917D01*
X165823554Y-97338728D01*
X165837183Y-97333851D01*
X165851224Y-97330334D01*
X165865542Y-97328210D01*
X165880000Y-97327500D01*
X166225000Y-97327500D01*
X166239458Y-97328210D01*
X166239458Y-97328210D01*
G37*
D19*
X166052500Y-97622500D03*
D12*
G36*
X166239458Y-98298210D02*
G01*
X166253776Y-98300334D01*
X166267817Y-98303851D01*
X166281446Y-98308728D01*
X166294531Y-98314917D01*
X166306947Y-98322358D01*
X166318573Y-98330981D01*
X166329298Y-98340702D01*
X166339019Y-98351427D01*
X166347642Y-98363053D01*
X166355083Y-98375469D01*
X166361272Y-98388554D01*
X166366149Y-98402183D01*
X166369666Y-98416224D01*
X166371790Y-98430542D01*
X166372500Y-98445000D01*
X166372500Y-98740000D01*
X166371790Y-98754458D01*
X166369666Y-98768776D01*
X166366149Y-98782817D01*
X166361272Y-98796446D01*
X166355083Y-98809531D01*
X166347642Y-98821947D01*
X166339019Y-98833573D01*
X166329298Y-98844298D01*
X166318573Y-98854019D01*
X166306947Y-98862642D01*
X166294531Y-98870083D01*
X166281446Y-98876272D01*
X166267817Y-98881149D01*
X166253776Y-98884666D01*
X166239458Y-98886790D01*
X166225000Y-98887500D01*
X165880000Y-98887500D01*
X165865542Y-98886790D01*
X165851224Y-98884666D01*
X165837183Y-98881149D01*
X165823554Y-98876272D01*
X165810469Y-98870083D01*
X165798053Y-98862642D01*
X165786427Y-98854019D01*
X165775702Y-98844298D01*
X165765981Y-98833573D01*
X165757358Y-98821947D01*
X165749917Y-98809531D01*
X165743728Y-98796446D01*
X165738851Y-98782817D01*
X165735334Y-98768776D01*
X165733210Y-98754458D01*
X165732500Y-98740000D01*
X165732500Y-98445000D01*
X165733210Y-98430542D01*
X165735334Y-98416224D01*
X165738851Y-98402183D01*
X165743728Y-98388554D01*
X165749917Y-98375469D01*
X165757358Y-98363053D01*
X165765981Y-98351427D01*
X165775702Y-98340702D01*
X165786427Y-98330981D01*
X165798053Y-98322358D01*
X165810469Y-98314917D01*
X165823554Y-98308728D01*
X165837183Y-98303851D01*
X165851224Y-98300334D01*
X165865542Y-98298210D01*
X165880000Y-98297500D01*
X166225000Y-98297500D01*
X166239458Y-98298210D01*
X166239458Y-98298210D01*
G37*
D19*
X166052500Y-98592500D03*
D12*
G36*
X168779458Y-97328210D02*
G01*
X168793776Y-97330334D01*
X168807817Y-97333851D01*
X168821446Y-97338728D01*
X168834531Y-97344917D01*
X168846947Y-97352358D01*
X168858573Y-97360981D01*
X168869298Y-97370702D01*
X168879019Y-97381427D01*
X168887642Y-97393053D01*
X168895083Y-97405469D01*
X168901272Y-97418554D01*
X168906149Y-97432183D01*
X168909666Y-97446224D01*
X168911790Y-97460542D01*
X168912500Y-97475000D01*
X168912500Y-97770000D01*
X168911790Y-97784458D01*
X168909666Y-97798776D01*
X168906149Y-97812817D01*
X168901272Y-97826446D01*
X168895083Y-97839531D01*
X168887642Y-97851947D01*
X168879019Y-97863573D01*
X168869298Y-97874298D01*
X168858573Y-97884019D01*
X168846947Y-97892642D01*
X168834531Y-97900083D01*
X168821446Y-97906272D01*
X168807817Y-97911149D01*
X168793776Y-97914666D01*
X168779458Y-97916790D01*
X168765000Y-97917500D01*
X168420000Y-97917500D01*
X168405542Y-97916790D01*
X168391224Y-97914666D01*
X168377183Y-97911149D01*
X168363554Y-97906272D01*
X168350469Y-97900083D01*
X168338053Y-97892642D01*
X168326427Y-97884019D01*
X168315702Y-97874298D01*
X168305981Y-97863573D01*
X168297358Y-97851947D01*
X168289917Y-97839531D01*
X168283728Y-97826446D01*
X168278851Y-97812817D01*
X168275334Y-97798776D01*
X168273210Y-97784458D01*
X168272500Y-97770000D01*
X168272500Y-97475000D01*
X168273210Y-97460542D01*
X168275334Y-97446224D01*
X168278851Y-97432183D01*
X168283728Y-97418554D01*
X168289917Y-97405469D01*
X168297358Y-97393053D01*
X168305981Y-97381427D01*
X168315702Y-97370702D01*
X168326427Y-97360981D01*
X168338053Y-97352358D01*
X168350469Y-97344917D01*
X168363554Y-97338728D01*
X168377183Y-97333851D01*
X168391224Y-97330334D01*
X168405542Y-97328210D01*
X168420000Y-97327500D01*
X168765000Y-97327500D01*
X168779458Y-97328210D01*
X168779458Y-97328210D01*
G37*
D19*
X168592500Y-97622500D03*
D12*
G36*
X168779458Y-98298210D02*
G01*
X168793776Y-98300334D01*
X168807817Y-98303851D01*
X168821446Y-98308728D01*
X168834531Y-98314917D01*
X168846947Y-98322358D01*
X168858573Y-98330981D01*
X168869298Y-98340702D01*
X168879019Y-98351427D01*
X168887642Y-98363053D01*
X168895083Y-98375469D01*
X168901272Y-98388554D01*
X168906149Y-98402183D01*
X168909666Y-98416224D01*
X168911790Y-98430542D01*
X168912500Y-98445000D01*
X168912500Y-98740000D01*
X168911790Y-98754458D01*
X168909666Y-98768776D01*
X168906149Y-98782817D01*
X168901272Y-98796446D01*
X168895083Y-98809531D01*
X168887642Y-98821947D01*
X168879019Y-98833573D01*
X168869298Y-98844298D01*
X168858573Y-98854019D01*
X168846947Y-98862642D01*
X168834531Y-98870083D01*
X168821446Y-98876272D01*
X168807817Y-98881149D01*
X168793776Y-98884666D01*
X168779458Y-98886790D01*
X168765000Y-98887500D01*
X168420000Y-98887500D01*
X168405542Y-98886790D01*
X168391224Y-98884666D01*
X168377183Y-98881149D01*
X168363554Y-98876272D01*
X168350469Y-98870083D01*
X168338053Y-98862642D01*
X168326427Y-98854019D01*
X168315702Y-98844298D01*
X168305981Y-98833573D01*
X168297358Y-98821947D01*
X168289917Y-98809531D01*
X168283728Y-98796446D01*
X168278851Y-98782817D01*
X168275334Y-98768776D01*
X168273210Y-98754458D01*
X168272500Y-98740000D01*
X168272500Y-98445000D01*
X168273210Y-98430542D01*
X168275334Y-98416224D01*
X168278851Y-98402183D01*
X168283728Y-98388554D01*
X168289917Y-98375469D01*
X168297358Y-98363053D01*
X168305981Y-98351427D01*
X168315702Y-98340702D01*
X168326427Y-98330981D01*
X168338053Y-98322358D01*
X168350469Y-98314917D01*
X168363554Y-98308728D01*
X168377183Y-98303851D01*
X168391224Y-98300334D01*
X168405542Y-98298210D01*
X168420000Y-98297500D01*
X168765000Y-98297500D01*
X168779458Y-98298210D01*
X168779458Y-98298210D01*
G37*
D19*
X168592500Y-98592500D03*
D12*
G36*
X167509458Y-97328210D02*
G01*
X167523776Y-97330334D01*
X167537817Y-97333851D01*
X167551446Y-97338728D01*
X167564531Y-97344917D01*
X167576947Y-97352358D01*
X167588573Y-97360981D01*
X167599298Y-97370702D01*
X167609019Y-97381427D01*
X167617642Y-97393053D01*
X167625083Y-97405469D01*
X167631272Y-97418554D01*
X167636149Y-97432183D01*
X167639666Y-97446224D01*
X167641790Y-97460542D01*
X167642500Y-97475000D01*
X167642500Y-97770000D01*
X167641790Y-97784458D01*
X167639666Y-97798776D01*
X167636149Y-97812817D01*
X167631272Y-97826446D01*
X167625083Y-97839531D01*
X167617642Y-97851947D01*
X167609019Y-97863573D01*
X167599298Y-97874298D01*
X167588573Y-97884019D01*
X167576947Y-97892642D01*
X167564531Y-97900083D01*
X167551446Y-97906272D01*
X167537817Y-97911149D01*
X167523776Y-97914666D01*
X167509458Y-97916790D01*
X167495000Y-97917500D01*
X167150000Y-97917500D01*
X167135542Y-97916790D01*
X167121224Y-97914666D01*
X167107183Y-97911149D01*
X167093554Y-97906272D01*
X167080469Y-97900083D01*
X167068053Y-97892642D01*
X167056427Y-97884019D01*
X167045702Y-97874298D01*
X167035981Y-97863573D01*
X167027358Y-97851947D01*
X167019917Y-97839531D01*
X167013728Y-97826446D01*
X167008851Y-97812817D01*
X167005334Y-97798776D01*
X167003210Y-97784458D01*
X167002500Y-97770000D01*
X167002500Y-97475000D01*
X167003210Y-97460542D01*
X167005334Y-97446224D01*
X167008851Y-97432183D01*
X167013728Y-97418554D01*
X167019917Y-97405469D01*
X167027358Y-97393053D01*
X167035981Y-97381427D01*
X167045702Y-97370702D01*
X167056427Y-97360981D01*
X167068053Y-97352358D01*
X167080469Y-97344917D01*
X167093554Y-97338728D01*
X167107183Y-97333851D01*
X167121224Y-97330334D01*
X167135542Y-97328210D01*
X167150000Y-97327500D01*
X167495000Y-97327500D01*
X167509458Y-97328210D01*
X167509458Y-97328210D01*
G37*
D19*
X167322500Y-97622500D03*
D12*
G36*
X167509458Y-98298210D02*
G01*
X167523776Y-98300334D01*
X167537817Y-98303851D01*
X167551446Y-98308728D01*
X167564531Y-98314917D01*
X167576947Y-98322358D01*
X167588573Y-98330981D01*
X167599298Y-98340702D01*
X167609019Y-98351427D01*
X167617642Y-98363053D01*
X167625083Y-98375469D01*
X167631272Y-98388554D01*
X167636149Y-98402183D01*
X167639666Y-98416224D01*
X167641790Y-98430542D01*
X167642500Y-98445000D01*
X167642500Y-98740000D01*
X167641790Y-98754458D01*
X167639666Y-98768776D01*
X167636149Y-98782817D01*
X167631272Y-98796446D01*
X167625083Y-98809531D01*
X167617642Y-98821947D01*
X167609019Y-98833573D01*
X167599298Y-98844298D01*
X167588573Y-98854019D01*
X167576947Y-98862642D01*
X167564531Y-98870083D01*
X167551446Y-98876272D01*
X167537817Y-98881149D01*
X167523776Y-98884666D01*
X167509458Y-98886790D01*
X167495000Y-98887500D01*
X167150000Y-98887500D01*
X167135542Y-98886790D01*
X167121224Y-98884666D01*
X167107183Y-98881149D01*
X167093554Y-98876272D01*
X167080469Y-98870083D01*
X167068053Y-98862642D01*
X167056427Y-98854019D01*
X167045702Y-98844298D01*
X167035981Y-98833573D01*
X167027358Y-98821947D01*
X167019917Y-98809531D01*
X167013728Y-98796446D01*
X167008851Y-98782817D01*
X167005334Y-98768776D01*
X167003210Y-98754458D01*
X167002500Y-98740000D01*
X167002500Y-98445000D01*
X167003210Y-98430542D01*
X167005334Y-98416224D01*
X167008851Y-98402183D01*
X167013728Y-98388554D01*
X167019917Y-98375469D01*
X167027358Y-98363053D01*
X167035981Y-98351427D01*
X167045702Y-98340702D01*
X167056427Y-98330981D01*
X167068053Y-98322358D01*
X167080469Y-98314917D01*
X167093554Y-98308728D01*
X167107183Y-98303851D01*
X167121224Y-98300334D01*
X167135542Y-98298210D01*
X167150000Y-98297500D01*
X167495000Y-98297500D01*
X167509458Y-98298210D01*
X167509458Y-98298210D01*
G37*
D19*
X167322500Y-98592500D03*
D12*
G36*
X168779458Y-95042210D02*
G01*
X168793776Y-95044334D01*
X168807817Y-95047851D01*
X168821446Y-95052728D01*
X168834531Y-95058917D01*
X168846947Y-95066358D01*
X168858573Y-95074981D01*
X168869298Y-95084702D01*
X168879019Y-95095427D01*
X168887642Y-95107053D01*
X168895083Y-95119469D01*
X168901272Y-95132554D01*
X168906149Y-95146183D01*
X168909666Y-95160224D01*
X168911790Y-95174542D01*
X168912500Y-95189000D01*
X168912500Y-95484000D01*
X168911790Y-95498458D01*
X168909666Y-95512776D01*
X168906149Y-95526817D01*
X168901272Y-95540446D01*
X168895083Y-95553531D01*
X168887642Y-95565947D01*
X168879019Y-95577573D01*
X168869298Y-95588298D01*
X168858573Y-95598019D01*
X168846947Y-95606642D01*
X168834531Y-95614083D01*
X168821446Y-95620272D01*
X168807817Y-95625149D01*
X168793776Y-95628666D01*
X168779458Y-95630790D01*
X168765000Y-95631500D01*
X168420000Y-95631500D01*
X168405542Y-95630790D01*
X168391224Y-95628666D01*
X168377183Y-95625149D01*
X168363554Y-95620272D01*
X168350469Y-95614083D01*
X168338053Y-95606642D01*
X168326427Y-95598019D01*
X168315702Y-95588298D01*
X168305981Y-95577573D01*
X168297358Y-95565947D01*
X168289917Y-95553531D01*
X168283728Y-95540446D01*
X168278851Y-95526817D01*
X168275334Y-95512776D01*
X168273210Y-95498458D01*
X168272500Y-95484000D01*
X168272500Y-95189000D01*
X168273210Y-95174542D01*
X168275334Y-95160224D01*
X168278851Y-95146183D01*
X168283728Y-95132554D01*
X168289917Y-95119469D01*
X168297358Y-95107053D01*
X168305981Y-95095427D01*
X168315702Y-95084702D01*
X168326427Y-95074981D01*
X168338053Y-95066358D01*
X168350469Y-95058917D01*
X168363554Y-95052728D01*
X168377183Y-95047851D01*
X168391224Y-95044334D01*
X168405542Y-95042210D01*
X168420000Y-95041500D01*
X168765000Y-95041500D01*
X168779458Y-95042210D01*
X168779458Y-95042210D01*
G37*
D19*
X168592500Y-95336500D03*
D12*
G36*
X168779458Y-96012210D02*
G01*
X168793776Y-96014334D01*
X168807817Y-96017851D01*
X168821446Y-96022728D01*
X168834531Y-96028917D01*
X168846947Y-96036358D01*
X168858573Y-96044981D01*
X168869298Y-96054702D01*
X168879019Y-96065427D01*
X168887642Y-96077053D01*
X168895083Y-96089469D01*
X168901272Y-96102554D01*
X168906149Y-96116183D01*
X168909666Y-96130224D01*
X168911790Y-96144542D01*
X168912500Y-96159000D01*
X168912500Y-96454000D01*
X168911790Y-96468458D01*
X168909666Y-96482776D01*
X168906149Y-96496817D01*
X168901272Y-96510446D01*
X168895083Y-96523531D01*
X168887642Y-96535947D01*
X168879019Y-96547573D01*
X168869298Y-96558298D01*
X168858573Y-96568019D01*
X168846947Y-96576642D01*
X168834531Y-96584083D01*
X168821446Y-96590272D01*
X168807817Y-96595149D01*
X168793776Y-96598666D01*
X168779458Y-96600790D01*
X168765000Y-96601500D01*
X168420000Y-96601500D01*
X168405542Y-96600790D01*
X168391224Y-96598666D01*
X168377183Y-96595149D01*
X168363554Y-96590272D01*
X168350469Y-96584083D01*
X168338053Y-96576642D01*
X168326427Y-96568019D01*
X168315702Y-96558298D01*
X168305981Y-96547573D01*
X168297358Y-96535947D01*
X168289917Y-96523531D01*
X168283728Y-96510446D01*
X168278851Y-96496817D01*
X168275334Y-96482776D01*
X168273210Y-96468458D01*
X168272500Y-96454000D01*
X168272500Y-96159000D01*
X168273210Y-96144542D01*
X168275334Y-96130224D01*
X168278851Y-96116183D01*
X168283728Y-96102554D01*
X168289917Y-96089469D01*
X168297358Y-96077053D01*
X168305981Y-96065427D01*
X168315702Y-96054702D01*
X168326427Y-96044981D01*
X168338053Y-96036358D01*
X168350469Y-96028917D01*
X168363554Y-96022728D01*
X168377183Y-96017851D01*
X168391224Y-96014334D01*
X168405542Y-96012210D01*
X168420000Y-96011500D01*
X168765000Y-96011500D01*
X168779458Y-96012210D01*
X168779458Y-96012210D01*
G37*
D19*
X168592500Y-96306500D03*
D12*
G36*
X165731458Y-89898710D02*
G01*
X165745776Y-89900834D01*
X165759817Y-89904351D01*
X165773446Y-89909228D01*
X165786531Y-89915417D01*
X165798947Y-89922858D01*
X165810573Y-89931481D01*
X165821298Y-89941202D01*
X165831019Y-89951927D01*
X165839642Y-89963553D01*
X165847083Y-89975969D01*
X165853272Y-89989054D01*
X165858149Y-90002683D01*
X165861666Y-90016724D01*
X165863790Y-90031042D01*
X165864500Y-90045500D01*
X165864500Y-90340500D01*
X165863790Y-90354958D01*
X165861666Y-90369276D01*
X165858149Y-90383317D01*
X165853272Y-90396946D01*
X165847083Y-90410031D01*
X165839642Y-90422447D01*
X165831019Y-90434073D01*
X165821298Y-90444798D01*
X165810573Y-90454519D01*
X165798947Y-90463142D01*
X165786531Y-90470583D01*
X165773446Y-90476772D01*
X165759817Y-90481649D01*
X165745776Y-90485166D01*
X165731458Y-90487290D01*
X165717000Y-90488000D01*
X165372000Y-90488000D01*
X165357542Y-90487290D01*
X165343224Y-90485166D01*
X165329183Y-90481649D01*
X165315554Y-90476772D01*
X165302469Y-90470583D01*
X165290053Y-90463142D01*
X165278427Y-90454519D01*
X165267702Y-90444798D01*
X165257981Y-90434073D01*
X165249358Y-90422447D01*
X165241917Y-90410031D01*
X165235728Y-90396946D01*
X165230851Y-90383317D01*
X165227334Y-90369276D01*
X165225210Y-90354958D01*
X165224500Y-90340500D01*
X165224500Y-90045500D01*
X165225210Y-90031042D01*
X165227334Y-90016724D01*
X165230851Y-90002683D01*
X165235728Y-89989054D01*
X165241917Y-89975969D01*
X165249358Y-89963553D01*
X165257981Y-89951927D01*
X165267702Y-89941202D01*
X165278427Y-89931481D01*
X165290053Y-89922858D01*
X165302469Y-89915417D01*
X165315554Y-89909228D01*
X165329183Y-89904351D01*
X165343224Y-89900834D01*
X165357542Y-89898710D01*
X165372000Y-89898000D01*
X165717000Y-89898000D01*
X165731458Y-89898710D01*
X165731458Y-89898710D01*
G37*
D19*
X165544500Y-90193000D03*
D12*
G36*
X165731458Y-90868710D02*
G01*
X165745776Y-90870834D01*
X165759817Y-90874351D01*
X165773446Y-90879228D01*
X165786531Y-90885417D01*
X165798947Y-90892858D01*
X165810573Y-90901481D01*
X165821298Y-90911202D01*
X165831019Y-90921927D01*
X165839642Y-90933553D01*
X165847083Y-90945969D01*
X165853272Y-90959054D01*
X165858149Y-90972683D01*
X165861666Y-90986724D01*
X165863790Y-91001042D01*
X165864500Y-91015500D01*
X165864500Y-91310500D01*
X165863790Y-91324958D01*
X165861666Y-91339276D01*
X165858149Y-91353317D01*
X165853272Y-91366946D01*
X165847083Y-91380031D01*
X165839642Y-91392447D01*
X165831019Y-91404073D01*
X165821298Y-91414798D01*
X165810573Y-91424519D01*
X165798947Y-91433142D01*
X165786531Y-91440583D01*
X165773446Y-91446772D01*
X165759817Y-91451649D01*
X165745776Y-91455166D01*
X165731458Y-91457290D01*
X165717000Y-91458000D01*
X165372000Y-91458000D01*
X165357542Y-91457290D01*
X165343224Y-91455166D01*
X165329183Y-91451649D01*
X165315554Y-91446772D01*
X165302469Y-91440583D01*
X165290053Y-91433142D01*
X165278427Y-91424519D01*
X165267702Y-91414798D01*
X165257981Y-91404073D01*
X165249358Y-91392447D01*
X165241917Y-91380031D01*
X165235728Y-91366946D01*
X165230851Y-91353317D01*
X165227334Y-91339276D01*
X165225210Y-91324958D01*
X165224500Y-91310500D01*
X165224500Y-91015500D01*
X165225210Y-91001042D01*
X165227334Y-90986724D01*
X165230851Y-90972683D01*
X165235728Y-90959054D01*
X165241917Y-90945969D01*
X165249358Y-90933553D01*
X165257981Y-90921927D01*
X165267702Y-90911202D01*
X165278427Y-90901481D01*
X165290053Y-90892858D01*
X165302469Y-90885417D01*
X165315554Y-90879228D01*
X165329183Y-90874351D01*
X165343224Y-90870834D01*
X165357542Y-90868710D01*
X165372000Y-90868000D01*
X165717000Y-90868000D01*
X165731458Y-90868710D01*
X165731458Y-90868710D01*
G37*
D19*
X165544500Y-91163000D03*
D12*
G36*
X156904958Y-89662210D02*
G01*
X156919276Y-89664334D01*
X156933317Y-89667851D01*
X156946946Y-89672728D01*
X156960031Y-89678917D01*
X156972447Y-89686358D01*
X156984073Y-89694981D01*
X156994798Y-89704702D01*
X157004519Y-89715427D01*
X157013142Y-89727053D01*
X157020583Y-89739469D01*
X157026772Y-89752554D01*
X157031649Y-89766183D01*
X157035166Y-89780224D01*
X157037290Y-89794542D01*
X157038000Y-89809000D01*
X157038000Y-90104000D01*
X157037290Y-90118458D01*
X157035166Y-90132776D01*
X157031649Y-90146817D01*
X157026772Y-90160446D01*
X157020583Y-90173531D01*
X157013142Y-90185947D01*
X157004519Y-90197573D01*
X156994798Y-90208298D01*
X156984073Y-90218019D01*
X156972447Y-90226642D01*
X156960031Y-90234083D01*
X156946946Y-90240272D01*
X156933317Y-90245149D01*
X156919276Y-90248666D01*
X156904958Y-90250790D01*
X156890500Y-90251500D01*
X156545500Y-90251500D01*
X156531042Y-90250790D01*
X156516724Y-90248666D01*
X156502683Y-90245149D01*
X156489054Y-90240272D01*
X156475969Y-90234083D01*
X156463553Y-90226642D01*
X156451927Y-90218019D01*
X156441202Y-90208298D01*
X156431481Y-90197573D01*
X156422858Y-90185947D01*
X156415417Y-90173531D01*
X156409228Y-90160446D01*
X156404351Y-90146817D01*
X156400834Y-90132776D01*
X156398710Y-90118458D01*
X156398000Y-90104000D01*
X156398000Y-89809000D01*
X156398710Y-89794542D01*
X156400834Y-89780224D01*
X156404351Y-89766183D01*
X156409228Y-89752554D01*
X156415417Y-89739469D01*
X156422858Y-89727053D01*
X156431481Y-89715427D01*
X156441202Y-89704702D01*
X156451927Y-89694981D01*
X156463553Y-89686358D01*
X156475969Y-89678917D01*
X156489054Y-89672728D01*
X156502683Y-89667851D01*
X156516724Y-89664334D01*
X156531042Y-89662210D01*
X156545500Y-89661500D01*
X156890500Y-89661500D01*
X156904958Y-89662210D01*
X156904958Y-89662210D01*
G37*
D19*
X156718000Y-89956500D03*
D12*
G36*
X156904958Y-88692210D02*
G01*
X156919276Y-88694334D01*
X156933317Y-88697851D01*
X156946946Y-88702728D01*
X156960031Y-88708917D01*
X156972447Y-88716358D01*
X156984073Y-88724981D01*
X156994798Y-88734702D01*
X157004519Y-88745427D01*
X157013142Y-88757053D01*
X157020583Y-88769469D01*
X157026772Y-88782554D01*
X157031649Y-88796183D01*
X157035166Y-88810224D01*
X157037290Y-88824542D01*
X157038000Y-88839000D01*
X157038000Y-89134000D01*
X157037290Y-89148458D01*
X157035166Y-89162776D01*
X157031649Y-89176817D01*
X157026772Y-89190446D01*
X157020583Y-89203531D01*
X157013142Y-89215947D01*
X157004519Y-89227573D01*
X156994798Y-89238298D01*
X156984073Y-89248019D01*
X156972447Y-89256642D01*
X156960031Y-89264083D01*
X156946946Y-89270272D01*
X156933317Y-89275149D01*
X156919276Y-89278666D01*
X156904958Y-89280790D01*
X156890500Y-89281500D01*
X156545500Y-89281500D01*
X156531042Y-89280790D01*
X156516724Y-89278666D01*
X156502683Y-89275149D01*
X156489054Y-89270272D01*
X156475969Y-89264083D01*
X156463553Y-89256642D01*
X156451927Y-89248019D01*
X156441202Y-89238298D01*
X156431481Y-89227573D01*
X156422858Y-89215947D01*
X156415417Y-89203531D01*
X156409228Y-89190446D01*
X156404351Y-89176817D01*
X156400834Y-89162776D01*
X156398710Y-89148458D01*
X156398000Y-89134000D01*
X156398000Y-88839000D01*
X156398710Y-88824542D01*
X156400834Y-88810224D01*
X156404351Y-88796183D01*
X156409228Y-88782554D01*
X156415417Y-88769469D01*
X156422858Y-88757053D01*
X156431481Y-88745427D01*
X156441202Y-88734702D01*
X156451927Y-88724981D01*
X156463553Y-88716358D01*
X156475969Y-88708917D01*
X156489054Y-88702728D01*
X156502683Y-88697851D01*
X156516724Y-88694334D01*
X156531042Y-88692210D01*
X156545500Y-88691500D01*
X156890500Y-88691500D01*
X156904958Y-88692210D01*
X156904958Y-88692210D01*
G37*
D19*
X156718000Y-88986500D03*
D12*
G36*
X168967958Y-100899710D02*
G01*
X168982276Y-100901834D01*
X168996317Y-100905351D01*
X169009946Y-100910228D01*
X169023031Y-100916417D01*
X169035447Y-100923858D01*
X169047073Y-100932481D01*
X169057798Y-100942202D01*
X169067519Y-100952927D01*
X169076142Y-100964553D01*
X169083583Y-100976969D01*
X169089772Y-100990054D01*
X169094649Y-101003683D01*
X169098166Y-101017724D01*
X169100290Y-101032042D01*
X169101000Y-101046500D01*
X169101000Y-101391500D01*
X169100290Y-101405958D01*
X169098166Y-101420276D01*
X169094649Y-101434317D01*
X169089772Y-101447946D01*
X169083583Y-101461031D01*
X169076142Y-101473447D01*
X169067519Y-101485073D01*
X169057798Y-101495798D01*
X169047073Y-101505519D01*
X169035447Y-101514142D01*
X169023031Y-101521583D01*
X169009946Y-101527772D01*
X168996317Y-101532649D01*
X168982276Y-101536166D01*
X168967958Y-101538290D01*
X168953500Y-101539000D01*
X168658500Y-101539000D01*
X168644042Y-101538290D01*
X168629724Y-101536166D01*
X168615683Y-101532649D01*
X168602054Y-101527772D01*
X168588969Y-101521583D01*
X168576553Y-101514142D01*
X168564927Y-101505519D01*
X168554202Y-101495798D01*
X168544481Y-101485073D01*
X168535858Y-101473447D01*
X168528417Y-101461031D01*
X168522228Y-101447946D01*
X168517351Y-101434317D01*
X168513834Y-101420276D01*
X168511710Y-101405958D01*
X168511000Y-101391500D01*
X168511000Y-101046500D01*
X168511710Y-101032042D01*
X168513834Y-101017724D01*
X168517351Y-101003683D01*
X168522228Y-100990054D01*
X168528417Y-100976969D01*
X168535858Y-100964553D01*
X168544481Y-100952927D01*
X168554202Y-100942202D01*
X168564927Y-100932481D01*
X168576553Y-100923858D01*
X168588969Y-100916417D01*
X168602054Y-100910228D01*
X168615683Y-100905351D01*
X168629724Y-100901834D01*
X168644042Y-100899710D01*
X168658500Y-100899000D01*
X168953500Y-100899000D01*
X168967958Y-100899710D01*
X168967958Y-100899710D01*
G37*
D19*
X168806000Y-101219000D03*
D12*
G36*
X169937958Y-100899710D02*
G01*
X169952276Y-100901834D01*
X169966317Y-100905351D01*
X169979946Y-100910228D01*
X169993031Y-100916417D01*
X170005447Y-100923858D01*
X170017073Y-100932481D01*
X170027798Y-100942202D01*
X170037519Y-100952927D01*
X170046142Y-100964553D01*
X170053583Y-100976969D01*
X170059772Y-100990054D01*
X170064649Y-101003683D01*
X170068166Y-101017724D01*
X170070290Y-101032042D01*
X170071000Y-101046500D01*
X170071000Y-101391500D01*
X170070290Y-101405958D01*
X170068166Y-101420276D01*
X170064649Y-101434317D01*
X170059772Y-101447946D01*
X170053583Y-101461031D01*
X170046142Y-101473447D01*
X170037519Y-101485073D01*
X170027798Y-101495798D01*
X170017073Y-101505519D01*
X170005447Y-101514142D01*
X169993031Y-101521583D01*
X169979946Y-101527772D01*
X169966317Y-101532649D01*
X169952276Y-101536166D01*
X169937958Y-101538290D01*
X169923500Y-101539000D01*
X169628500Y-101539000D01*
X169614042Y-101538290D01*
X169599724Y-101536166D01*
X169585683Y-101532649D01*
X169572054Y-101527772D01*
X169558969Y-101521583D01*
X169546553Y-101514142D01*
X169534927Y-101505519D01*
X169524202Y-101495798D01*
X169514481Y-101485073D01*
X169505858Y-101473447D01*
X169498417Y-101461031D01*
X169492228Y-101447946D01*
X169487351Y-101434317D01*
X169483834Y-101420276D01*
X169481710Y-101405958D01*
X169481000Y-101391500D01*
X169481000Y-101046500D01*
X169481710Y-101032042D01*
X169483834Y-101017724D01*
X169487351Y-101003683D01*
X169492228Y-100990054D01*
X169498417Y-100976969D01*
X169505858Y-100964553D01*
X169514481Y-100952927D01*
X169524202Y-100942202D01*
X169534927Y-100932481D01*
X169546553Y-100923858D01*
X169558969Y-100916417D01*
X169572054Y-100910228D01*
X169585683Y-100905351D01*
X169599724Y-100901834D01*
X169614042Y-100899710D01*
X169628500Y-100899000D01*
X169923500Y-100899000D01*
X169937958Y-100899710D01*
X169937958Y-100899710D01*
G37*
D19*
X169776000Y-101219000D03*
D12*
G36*
X168523458Y-102042710D02*
G01*
X168537776Y-102044834D01*
X168551817Y-102048351D01*
X168565446Y-102053228D01*
X168578531Y-102059417D01*
X168590947Y-102066858D01*
X168602573Y-102075481D01*
X168613298Y-102085202D01*
X168623019Y-102095927D01*
X168631642Y-102107553D01*
X168639083Y-102119969D01*
X168645272Y-102133054D01*
X168650149Y-102146683D01*
X168653666Y-102160724D01*
X168655790Y-102175042D01*
X168656500Y-102189500D01*
X168656500Y-102534500D01*
X168655790Y-102548958D01*
X168653666Y-102563276D01*
X168650149Y-102577317D01*
X168645272Y-102590946D01*
X168639083Y-102604031D01*
X168631642Y-102616447D01*
X168623019Y-102628073D01*
X168613298Y-102638798D01*
X168602573Y-102648519D01*
X168590947Y-102657142D01*
X168578531Y-102664583D01*
X168565446Y-102670772D01*
X168551817Y-102675649D01*
X168537776Y-102679166D01*
X168523458Y-102681290D01*
X168509000Y-102682000D01*
X168214000Y-102682000D01*
X168199542Y-102681290D01*
X168185224Y-102679166D01*
X168171183Y-102675649D01*
X168157554Y-102670772D01*
X168144469Y-102664583D01*
X168132053Y-102657142D01*
X168120427Y-102648519D01*
X168109702Y-102638798D01*
X168099981Y-102628073D01*
X168091358Y-102616447D01*
X168083917Y-102604031D01*
X168077728Y-102590946D01*
X168072851Y-102577317D01*
X168069334Y-102563276D01*
X168067210Y-102548958D01*
X168066500Y-102534500D01*
X168066500Y-102189500D01*
X168067210Y-102175042D01*
X168069334Y-102160724D01*
X168072851Y-102146683D01*
X168077728Y-102133054D01*
X168083917Y-102119969D01*
X168091358Y-102107553D01*
X168099981Y-102095927D01*
X168109702Y-102085202D01*
X168120427Y-102075481D01*
X168132053Y-102066858D01*
X168144469Y-102059417D01*
X168157554Y-102053228D01*
X168171183Y-102048351D01*
X168185224Y-102044834D01*
X168199542Y-102042710D01*
X168214000Y-102042000D01*
X168509000Y-102042000D01*
X168523458Y-102042710D01*
X168523458Y-102042710D01*
G37*
D19*
X168361500Y-102362000D03*
D12*
G36*
X169493458Y-102042710D02*
G01*
X169507776Y-102044834D01*
X169521817Y-102048351D01*
X169535446Y-102053228D01*
X169548531Y-102059417D01*
X169560947Y-102066858D01*
X169572573Y-102075481D01*
X169583298Y-102085202D01*
X169593019Y-102095927D01*
X169601642Y-102107553D01*
X169609083Y-102119969D01*
X169615272Y-102133054D01*
X169620149Y-102146683D01*
X169623666Y-102160724D01*
X169625790Y-102175042D01*
X169626500Y-102189500D01*
X169626500Y-102534500D01*
X169625790Y-102548958D01*
X169623666Y-102563276D01*
X169620149Y-102577317D01*
X169615272Y-102590946D01*
X169609083Y-102604031D01*
X169601642Y-102616447D01*
X169593019Y-102628073D01*
X169583298Y-102638798D01*
X169572573Y-102648519D01*
X169560947Y-102657142D01*
X169548531Y-102664583D01*
X169535446Y-102670772D01*
X169521817Y-102675649D01*
X169507776Y-102679166D01*
X169493458Y-102681290D01*
X169479000Y-102682000D01*
X169184000Y-102682000D01*
X169169542Y-102681290D01*
X169155224Y-102679166D01*
X169141183Y-102675649D01*
X169127554Y-102670772D01*
X169114469Y-102664583D01*
X169102053Y-102657142D01*
X169090427Y-102648519D01*
X169079702Y-102638798D01*
X169069981Y-102628073D01*
X169061358Y-102616447D01*
X169053917Y-102604031D01*
X169047728Y-102590946D01*
X169042851Y-102577317D01*
X169039334Y-102563276D01*
X169037210Y-102548958D01*
X169036500Y-102534500D01*
X169036500Y-102189500D01*
X169037210Y-102175042D01*
X169039334Y-102160724D01*
X169042851Y-102146683D01*
X169047728Y-102133054D01*
X169053917Y-102119969D01*
X169061358Y-102107553D01*
X169069981Y-102095927D01*
X169079702Y-102085202D01*
X169090427Y-102075481D01*
X169102053Y-102066858D01*
X169114469Y-102059417D01*
X169127554Y-102053228D01*
X169141183Y-102048351D01*
X169155224Y-102044834D01*
X169169542Y-102042710D01*
X169184000Y-102042000D01*
X169479000Y-102042000D01*
X169493458Y-102042710D01*
X169493458Y-102042710D01*
G37*
D19*
X169331500Y-102362000D03*
D12*
G36*
X165223458Y-98298210D02*
G01*
X165237776Y-98300334D01*
X165251817Y-98303851D01*
X165265446Y-98308728D01*
X165278531Y-98314917D01*
X165290947Y-98322358D01*
X165302573Y-98330981D01*
X165313298Y-98340702D01*
X165323019Y-98351427D01*
X165331642Y-98363053D01*
X165339083Y-98375469D01*
X165345272Y-98388554D01*
X165350149Y-98402183D01*
X165353666Y-98416224D01*
X165355790Y-98430542D01*
X165356500Y-98445000D01*
X165356500Y-98740000D01*
X165355790Y-98754458D01*
X165353666Y-98768776D01*
X165350149Y-98782817D01*
X165345272Y-98796446D01*
X165339083Y-98809531D01*
X165331642Y-98821947D01*
X165323019Y-98833573D01*
X165313298Y-98844298D01*
X165302573Y-98854019D01*
X165290947Y-98862642D01*
X165278531Y-98870083D01*
X165265446Y-98876272D01*
X165251817Y-98881149D01*
X165237776Y-98884666D01*
X165223458Y-98886790D01*
X165209000Y-98887500D01*
X164864000Y-98887500D01*
X164849542Y-98886790D01*
X164835224Y-98884666D01*
X164821183Y-98881149D01*
X164807554Y-98876272D01*
X164794469Y-98870083D01*
X164782053Y-98862642D01*
X164770427Y-98854019D01*
X164759702Y-98844298D01*
X164749981Y-98833573D01*
X164741358Y-98821947D01*
X164733917Y-98809531D01*
X164727728Y-98796446D01*
X164722851Y-98782817D01*
X164719334Y-98768776D01*
X164717210Y-98754458D01*
X164716500Y-98740000D01*
X164716500Y-98445000D01*
X164717210Y-98430542D01*
X164719334Y-98416224D01*
X164722851Y-98402183D01*
X164727728Y-98388554D01*
X164733917Y-98375469D01*
X164741358Y-98363053D01*
X164749981Y-98351427D01*
X164759702Y-98340702D01*
X164770427Y-98330981D01*
X164782053Y-98322358D01*
X164794469Y-98314917D01*
X164807554Y-98308728D01*
X164821183Y-98303851D01*
X164835224Y-98300334D01*
X164849542Y-98298210D01*
X164864000Y-98297500D01*
X165209000Y-98297500D01*
X165223458Y-98298210D01*
X165223458Y-98298210D01*
G37*
D19*
X165036500Y-98592500D03*
D12*
G36*
X165223458Y-97328210D02*
G01*
X165237776Y-97330334D01*
X165251817Y-97333851D01*
X165265446Y-97338728D01*
X165278531Y-97344917D01*
X165290947Y-97352358D01*
X165302573Y-97360981D01*
X165313298Y-97370702D01*
X165323019Y-97381427D01*
X165331642Y-97393053D01*
X165339083Y-97405469D01*
X165345272Y-97418554D01*
X165350149Y-97432183D01*
X165353666Y-97446224D01*
X165355790Y-97460542D01*
X165356500Y-97475000D01*
X165356500Y-97770000D01*
X165355790Y-97784458D01*
X165353666Y-97798776D01*
X165350149Y-97812817D01*
X165345272Y-97826446D01*
X165339083Y-97839531D01*
X165331642Y-97851947D01*
X165323019Y-97863573D01*
X165313298Y-97874298D01*
X165302573Y-97884019D01*
X165290947Y-97892642D01*
X165278531Y-97900083D01*
X165265446Y-97906272D01*
X165251817Y-97911149D01*
X165237776Y-97914666D01*
X165223458Y-97916790D01*
X165209000Y-97917500D01*
X164864000Y-97917500D01*
X164849542Y-97916790D01*
X164835224Y-97914666D01*
X164821183Y-97911149D01*
X164807554Y-97906272D01*
X164794469Y-97900083D01*
X164782053Y-97892642D01*
X164770427Y-97884019D01*
X164759702Y-97874298D01*
X164749981Y-97863573D01*
X164741358Y-97851947D01*
X164733917Y-97839531D01*
X164727728Y-97826446D01*
X164722851Y-97812817D01*
X164719334Y-97798776D01*
X164717210Y-97784458D01*
X164716500Y-97770000D01*
X164716500Y-97475000D01*
X164717210Y-97460542D01*
X164719334Y-97446224D01*
X164722851Y-97432183D01*
X164727728Y-97418554D01*
X164733917Y-97405469D01*
X164741358Y-97393053D01*
X164749981Y-97381427D01*
X164759702Y-97370702D01*
X164770427Y-97360981D01*
X164782053Y-97352358D01*
X164794469Y-97344917D01*
X164807554Y-97338728D01*
X164821183Y-97333851D01*
X164835224Y-97330334D01*
X164849542Y-97328210D01*
X164864000Y-97327500D01*
X165209000Y-97327500D01*
X165223458Y-97328210D01*
X165223458Y-97328210D01*
G37*
D19*
X165036500Y-97622500D03*
D24*
X160053020Y-99856290D03*
X160053020Y-96897190D03*
X160020000Y-91967050D03*
X160020000Y-89007950D03*
D12*
G36*
X156995691Y-94902553D02*
G01*
X157016926Y-94905703D01*
X157037750Y-94910919D01*
X157057962Y-94918151D01*
X157077368Y-94927330D01*
X157095781Y-94938366D01*
X157113024Y-94951154D01*
X157128930Y-94965570D01*
X157143346Y-94981476D01*
X157156134Y-94998719D01*
X157167170Y-95017132D01*
X157176349Y-95036538D01*
X157183581Y-95056750D01*
X157188797Y-95077574D01*
X157191947Y-95098809D01*
X157193000Y-95120250D01*
X157193000Y-95557750D01*
X157191947Y-95579191D01*
X157188797Y-95600426D01*
X157183581Y-95621250D01*
X157176349Y-95641462D01*
X157167170Y-95660868D01*
X157156134Y-95679281D01*
X157143346Y-95696524D01*
X157128930Y-95712430D01*
X157113024Y-95726846D01*
X157095781Y-95739634D01*
X157077368Y-95750670D01*
X157057962Y-95759849D01*
X157037750Y-95767081D01*
X157016926Y-95772297D01*
X156995691Y-95775447D01*
X156974250Y-95776500D01*
X156461750Y-95776500D01*
X156440309Y-95775447D01*
X156419074Y-95772297D01*
X156398250Y-95767081D01*
X156378038Y-95759849D01*
X156358632Y-95750670D01*
X156340219Y-95739634D01*
X156322976Y-95726846D01*
X156307070Y-95712430D01*
X156292654Y-95696524D01*
X156279866Y-95679281D01*
X156268830Y-95660868D01*
X156259651Y-95641462D01*
X156252419Y-95621250D01*
X156247203Y-95600426D01*
X156244053Y-95579191D01*
X156243000Y-95557750D01*
X156243000Y-95120250D01*
X156244053Y-95098809D01*
X156247203Y-95077574D01*
X156252419Y-95056750D01*
X156259651Y-95036538D01*
X156268830Y-95017132D01*
X156279866Y-94998719D01*
X156292654Y-94981476D01*
X156307070Y-94965570D01*
X156322976Y-94951154D01*
X156340219Y-94938366D01*
X156358632Y-94927330D01*
X156378038Y-94918151D01*
X156398250Y-94910919D01*
X156419074Y-94905703D01*
X156440309Y-94902553D01*
X156461750Y-94901500D01*
X156974250Y-94901500D01*
X156995691Y-94902553D01*
X156995691Y-94902553D01*
G37*
D18*
X156718000Y-95339000D03*
D12*
G36*
X156995691Y-93327553D02*
G01*
X157016926Y-93330703D01*
X157037750Y-93335919D01*
X157057962Y-93343151D01*
X157077368Y-93352330D01*
X157095781Y-93363366D01*
X157113024Y-93376154D01*
X157128930Y-93390570D01*
X157143346Y-93406476D01*
X157156134Y-93423719D01*
X157167170Y-93442132D01*
X157176349Y-93461538D01*
X157183581Y-93481750D01*
X157188797Y-93502574D01*
X157191947Y-93523809D01*
X157193000Y-93545250D01*
X157193000Y-93982750D01*
X157191947Y-94004191D01*
X157188797Y-94025426D01*
X157183581Y-94046250D01*
X157176349Y-94066462D01*
X157167170Y-94085868D01*
X157156134Y-94104281D01*
X157143346Y-94121524D01*
X157128930Y-94137430D01*
X157113024Y-94151846D01*
X157095781Y-94164634D01*
X157077368Y-94175670D01*
X157057962Y-94184849D01*
X157037750Y-94192081D01*
X157016926Y-94197297D01*
X156995691Y-94200447D01*
X156974250Y-94201500D01*
X156461750Y-94201500D01*
X156440309Y-94200447D01*
X156419074Y-94197297D01*
X156398250Y-94192081D01*
X156378038Y-94184849D01*
X156358632Y-94175670D01*
X156340219Y-94164634D01*
X156322976Y-94151846D01*
X156307070Y-94137430D01*
X156292654Y-94121524D01*
X156279866Y-94104281D01*
X156268830Y-94085868D01*
X156259651Y-94066462D01*
X156252419Y-94046250D01*
X156247203Y-94025426D01*
X156244053Y-94004191D01*
X156243000Y-93982750D01*
X156243000Y-93545250D01*
X156244053Y-93523809D01*
X156247203Y-93502574D01*
X156252419Y-93481750D01*
X156259651Y-93461538D01*
X156268830Y-93442132D01*
X156279866Y-93423719D01*
X156292654Y-93406476D01*
X156307070Y-93390570D01*
X156322976Y-93376154D01*
X156340219Y-93363366D01*
X156358632Y-93352330D01*
X156378038Y-93343151D01*
X156398250Y-93335919D01*
X156419074Y-93330703D01*
X156440309Y-93327553D01*
X156461750Y-93326500D01*
X156974250Y-93326500D01*
X156995691Y-93327553D01*
X156995691Y-93327553D01*
G37*
D18*
X156718000Y-93764000D03*
D12*
G36*
X163445458Y-98090210D02*
G01*
X163459776Y-98092334D01*
X163473817Y-98095851D01*
X163487446Y-98100728D01*
X163500531Y-98106917D01*
X163512947Y-98114358D01*
X163524573Y-98122981D01*
X163535298Y-98132702D01*
X163545019Y-98143427D01*
X163553642Y-98155053D01*
X163561083Y-98167469D01*
X163567272Y-98180554D01*
X163572149Y-98194183D01*
X163575666Y-98208224D01*
X163577790Y-98222542D01*
X163578500Y-98237000D01*
X163578500Y-98532000D01*
X163577790Y-98546458D01*
X163575666Y-98560776D01*
X163572149Y-98574817D01*
X163567272Y-98588446D01*
X163561083Y-98601531D01*
X163553642Y-98613947D01*
X163545019Y-98625573D01*
X163535298Y-98636298D01*
X163524573Y-98646019D01*
X163512947Y-98654642D01*
X163500531Y-98662083D01*
X163487446Y-98668272D01*
X163473817Y-98673149D01*
X163459776Y-98676666D01*
X163445458Y-98678790D01*
X163431000Y-98679500D01*
X163086000Y-98679500D01*
X163071542Y-98678790D01*
X163057224Y-98676666D01*
X163043183Y-98673149D01*
X163029554Y-98668272D01*
X163016469Y-98662083D01*
X163004053Y-98654642D01*
X162992427Y-98646019D01*
X162981702Y-98636298D01*
X162971981Y-98625573D01*
X162963358Y-98613947D01*
X162955917Y-98601531D01*
X162949728Y-98588446D01*
X162944851Y-98574817D01*
X162941334Y-98560776D01*
X162939210Y-98546458D01*
X162938500Y-98532000D01*
X162938500Y-98237000D01*
X162939210Y-98222542D01*
X162941334Y-98208224D01*
X162944851Y-98194183D01*
X162949728Y-98180554D01*
X162955917Y-98167469D01*
X162963358Y-98155053D01*
X162971981Y-98143427D01*
X162981702Y-98132702D01*
X162992427Y-98122981D01*
X163004053Y-98114358D01*
X163016469Y-98106917D01*
X163029554Y-98100728D01*
X163043183Y-98095851D01*
X163057224Y-98092334D01*
X163071542Y-98090210D01*
X163086000Y-98089500D01*
X163431000Y-98089500D01*
X163445458Y-98090210D01*
X163445458Y-98090210D01*
G37*
D19*
X163258500Y-98384500D03*
D12*
G36*
X163445458Y-99060210D02*
G01*
X163459776Y-99062334D01*
X163473817Y-99065851D01*
X163487446Y-99070728D01*
X163500531Y-99076917D01*
X163512947Y-99084358D01*
X163524573Y-99092981D01*
X163535298Y-99102702D01*
X163545019Y-99113427D01*
X163553642Y-99125053D01*
X163561083Y-99137469D01*
X163567272Y-99150554D01*
X163572149Y-99164183D01*
X163575666Y-99178224D01*
X163577790Y-99192542D01*
X163578500Y-99207000D01*
X163578500Y-99502000D01*
X163577790Y-99516458D01*
X163575666Y-99530776D01*
X163572149Y-99544817D01*
X163567272Y-99558446D01*
X163561083Y-99571531D01*
X163553642Y-99583947D01*
X163545019Y-99595573D01*
X163535298Y-99606298D01*
X163524573Y-99616019D01*
X163512947Y-99624642D01*
X163500531Y-99632083D01*
X163487446Y-99638272D01*
X163473817Y-99643149D01*
X163459776Y-99646666D01*
X163445458Y-99648790D01*
X163431000Y-99649500D01*
X163086000Y-99649500D01*
X163071542Y-99648790D01*
X163057224Y-99646666D01*
X163043183Y-99643149D01*
X163029554Y-99638272D01*
X163016469Y-99632083D01*
X163004053Y-99624642D01*
X162992427Y-99616019D01*
X162981702Y-99606298D01*
X162971981Y-99595573D01*
X162963358Y-99583947D01*
X162955917Y-99571531D01*
X162949728Y-99558446D01*
X162944851Y-99544817D01*
X162941334Y-99530776D01*
X162939210Y-99516458D01*
X162938500Y-99502000D01*
X162938500Y-99207000D01*
X162939210Y-99192542D01*
X162941334Y-99178224D01*
X162944851Y-99164183D01*
X162949728Y-99150554D01*
X162955917Y-99137469D01*
X162963358Y-99125053D01*
X162971981Y-99113427D01*
X162981702Y-99102702D01*
X162992427Y-99092981D01*
X163004053Y-99084358D01*
X163016469Y-99076917D01*
X163029554Y-99070728D01*
X163043183Y-99065851D01*
X163057224Y-99062334D01*
X163071542Y-99060210D01*
X163086000Y-99059500D01*
X163431000Y-99059500D01*
X163445458Y-99060210D01*
X163445458Y-99060210D01*
G37*
D19*
X163258500Y-99354500D03*
D12*
G36*
X166810958Y-89898710D02*
G01*
X166825276Y-89900834D01*
X166839317Y-89904351D01*
X166852946Y-89909228D01*
X166866031Y-89915417D01*
X166878447Y-89922858D01*
X166890073Y-89931481D01*
X166900798Y-89941202D01*
X166910519Y-89951927D01*
X166919142Y-89963553D01*
X166926583Y-89975969D01*
X166932772Y-89989054D01*
X166937649Y-90002683D01*
X166941166Y-90016724D01*
X166943290Y-90031042D01*
X166944000Y-90045500D01*
X166944000Y-90340500D01*
X166943290Y-90354958D01*
X166941166Y-90369276D01*
X166937649Y-90383317D01*
X166932772Y-90396946D01*
X166926583Y-90410031D01*
X166919142Y-90422447D01*
X166910519Y-90434073D01*
X166900798Y-90444798D01*
X166890073Y-90454519D01*
X166878447Y-90463142D01*
X166866031Y-90470583D01*
X166852946Y-90476772D01*
X166839317Y-90481649D01*
X166825276Y-90485166D01*
X166810958Y-90487290D01*
X166796500Y-90488000D01*
X166451500Y-90488000D01*
X166437042Y-90487290D01*
X166422724Y-90485166D01*
X166408683Y-90481649D01*
X166395054Y-90476772D01*
X166381969Y-90470583D01*
X166369553Y-90463142D01*
X166357927Y-90454519D01*
X166347202Y-90444798D01*
X166337481Y-90434073D01*
X166328858Y-90422447D01*
X166321417Y-90410031D01*
X166315228Y-90396946D01*
X166310351Y-90383317D01*
X166306834Y-90369276D01*
X166304710Y-90354958D01*
X166304000Y-90340500D01*
X166304000Y-90045500D01*
X166304710Y-90031042D01*
X166306834Y-90016724D01*
X166310351Y-90002683D01*
X166315228Y-89989054D01*
X166321417Y-89975969D01*
X166328858Y-89963553D01*
X166337481Y-89951927D01*
X166347202Y-89941202D01*
X166357927Y-89931481D01*
X166369553Y-89922858D01*
X166381969Y-89915417D01*
X166395054Y-89909228D01*
X166408683Y-89904351D01*
X166422724Y-89900834D01*
X166437042Y-89898710D01*
X166451500Y-89898000D01*
X166796500Y-89898000D01*
X166810958Y-89898710D01*
X166810958Y-89898710D01*
G37*
D19*
X166624000Y-90193000D03*
D12*
G36*
X166810958Y-90868710D02*
G01*
X166825276Y-90870834D01*
X166839317Y-90874351D01*
X166852946Y-90879228D01*
X166866031Y-90885417D01*
X166878447Y-90892858D01*
X166890073Y-90901481D01*
X166900798Y-90911202D01*
X166910519Y-90921927D01*
X166919142Y-90933553D01*
X166926583Y-90945969D01*
X166932772Y-90959054D01*
X166937649Y-90972683D01*
X166941166Y-90986724D01*
X166943290Y-91001042D01*
X166944000Y-91015500D01*
X166944000Y-91310500D01*
X166943290Y-91324958D01*
X166941166Y-91339276D01*
X166937649Y-91353317D01*
X166932772Y-91366946D01*
X166926583Y-91380031D01*
X166919142Y-91392447D01*
X166910519Y-91404073D01*
X166900798Y-91414798D01*
X166890073Y-91424519D01*
X166878447Y-91433142D01*
X166866031Y-91440583D01*
X166852946Y-91446772D01*
X166839317Y-91451649D01*
X166825276Y-91455166D01*
X166810958Y-91457290D01*
X166796500Y-91458000D01*
X166451500Y-91458000D01*
X166437042Y-91457290D01*
X166422724Y-91455166D01*
X166408683Y-91451649D01*
X166395054Y-91446772D01*
X166381969Y-91440583D01*
X166369553Y-91433142D01*
X166357927Y-91424519D01*
X166347202Y-91414798D01*
X166337481Y-91404073D01*
X166328858Y-91392447D01*
X166321417Y-91380031D01*
X166315228Y-91366946D01*
X166310351Y-91353317D01*
X166306834Y-91339276D01*
X166304710Y-91324958D01*
X166304000Y-91310500D01*
X166304000Y-91015500D01*
X166304710Y-91001042D01*
X166306834Y-90986724D01*
X166310351Y-90972683D01*
X166315228Y-90959054D01*
X166321417Y-90945969D01*
X166328858Y-90933553D01*
X166337481Y-90921927D01*
X166347202Y-90911202D01*
X166357927Y-90901481D01*
X166369553Y-90892858D01*
X166381969Y-90885417D01*
X166395054Y-90879228D01*
X166408683Y-90874351D01*
X166422724Y-90870834D01*
X166437042Y-90868710D01*
X166451500Y-90868000D01*
X166796500Y-90868000D01*
X166810958Y-90868710D01*
X166810958Y-90868710D01*
G37*
D19*
X166624000Y-91163000D03*
D12*
G36*
X156904958Y-87566710D02*
G01*
X156919276Y-87568834D01*
X156933317Y-87572351D01*
X156946946Y-87577228D01*
X156960031Y-87583417D01*
X156972447Y-87590858D01*
X156984073Y-87599481D01*
X156994798Y-87609202D01*
X157004519Y-87619927D01*
X157013142Y-87631553D01*
X157020583Y-87643969D01*
X157026772Y-87657054D01*
X157031649Y-87670683D01*
X157035166Y-87684724D01*
X157037290Y-87699042D01*
X157038000Y-87713500D01*
X157038000Y-88008500D01*
X157037290Y-88022958D01*
X157035166Y-88037276D01*
X157031649Y-88051317D01*
X157026772Y-88064946D01*
X157020583Y-88078031D01*
X157013142Y-88090447D01*
X157004519Y-88102073D01*
X156994798Y-88112798D01*
X156984073Y-88122519D01*
X156972447Y-88131142D01*
X156960031Y-88138583D01*
X156946946Y-88144772D01*
X156933317Y-88149649D01*
X156919276Y-88153166D01*
X156904958Y-88155290D01*
X156890500Y-88156000D01*
X156545500Y-88156000D01*
X156531042Y-88155290D01*
X156516724Y-88153166D01*
X156502683Y-88149649D01*
X156489054Y-88144772D01*
X156475969Y-88138583D01*
X156463553Y-88131142D01*
X156451927Y-88122519D01*
X156441202Y-88112798D01*
X156431481Y-88102073D01*
X156422858Y-88090447D01*
X156415417Y-88078031D01*
X156409228Y-88064946D01*
X156404351Y-88051317D01*
X156400834Y-88037276D01*
X156398710Y-88022958D01*
X156398000Y-88008500D01*
X156398000Y-87713500D01*
X156398710Y-87699042D01*
X156400834Y-87684724D01*
X156404351Y-87670683D01*
X156409228Y-87657054D01*
X156415417Y-87643969D01*
X156422858Y-87631553D01*
X156431481Y-87619927D01*
X156441202Y-87609202D01*
X156451927Y-87599481D01*
X156463553Y-87590858D01*
X156475969Y-87583417D01*
X156489054Y-87577228D01*
X156502683Y-87572351D01*
X156516724Y-87568834D01*
X156531042Y-87566710D01*
X156545500Y-87566000D01*
X156890500Y-87566000D01*
X156904958Y-87566710D01*
X156904958Y-87566710D01*
G37*
D19*
X156718000Y-87861000D03*
D12*
G36*
X156904958Y-86596710D02*
G01*
X156919276Y-86598834D01*
X156933317Y-86602351D01*
X156946946Y-86607228D01*
X156960031Y-86613417D01*
X156972447Y-86620858D01*
X156984073Y-86629481D01*
X156994798Y-86639202D01*
X157004519Y-86649927D01*
X157013142Y-86661553D01*
X157020583Y-86673969D01*
X157026772Y-86687054D01*
X157031649Y-86700683D01*
X157035166Y-86714724D01*
X157037290Y-86729042D01*
X157038000Y-86743500D01*
X157038000Y-87038500D01*
X157037290Y-87052958D01*
X157035166Y-87067276D01*
X157031649Y-87081317D01*
X157026772Y-87094946D01*
X157020583Y-87108031D01*
X157013142Y-87120447D01*
X157004519Y-87132073D01*
X156994798Y-87142798D01*
X156984073Y-87152519D01*
X156972447Y-87161142D01*
X156960031Y-87168583D01*
X156946946Y-87174772D01*
X156933317Y-87179649D01*
X156919276Y-87183166D01*
X156904958Y-87185290D01*
X156890500Y-87186000D01*
X156545500Y-87186000D01*
X156531042Y-87185290D01*
X156516724Y-87183166D01*
X156502683Y-87179649D01*
X156489054Y-87174772D01*
X156475969Y-87168583D01*
X156463553Y-87161142D01*
X156451927Y-87152519D01*
X156441202Y-87142798D01*
X156431481Y-87132073D01*
X156422858Y-87120447D01*
X156415417Y-87108031D01*
X156409228Y-87094946D01*
X156404351Y-87081317D01*
X156400834Y-87067276D01*
X156398710Y-87052958D01*
X156398000Y-87038500D01*
X156398000Y-86743500D01*
X156398710Y-86729042D01*
X156400834Y-86714724D01*
X156404351Y-86700683D01*
X156409228Y-86687054D01*
X156415417Y-86673969D01*
X156422858Y-86661553D01*
X156431481Y-86649927D01*
X156441202Y-86639202D01*
X156451927Y-86629481D01*
X156463553Y-86620858D01*
X156475969Y-86613417D01*
X156489054Y-86607228D01*
X156502683Y-86602351D01*
X156516724Y-86598834D01*
X156531042Y-86596710D01*
X156545500Y-86596000D01*
X156890500Y-86596000D01*
X156904958Y-86596710D01*
X156904958Y-86596710D01*
G37*
D19*
X156718000Y-86891000D03*
D12*
G36*
X160349458Y-103122210D02*
G01*
X160363776Y-103124334D01*
X160377817Y-103127851D01*
X160391446Y-103132728D01*
X160404531Y-103138917D01*
X160416947Y-103146358D01*
X160428573Y-103154981D01*
X160439298Y-103164702D01*
X160449019Y-103175427D01*
X160457642Y-103187053D01*
X160465083Y-103199469D01*
X160471272Y-103212554D01*
X160476149Y-103226183D01*
X160479666Y-103240224D01*
X160481790Y-103254542D01*
X160482500Y-103269000D01*
X160482500Y-103614000D01*
X160481790Y-103628458D01*
X160479666Y-103642776D01*
X160476149Y-103656817D01*
X160471272Y-103670446D01*
X160465083Y-103683531D01*
X160457642Y-103695947D01*
X160449019Y-103707573D01*
X160439298Y-103718298D01*
X160428573Y-103728019D01*
X160416947Y-103736642D01*
X160404531Y-103744083D01*
X160391446Y-103750272D01*
X160377817Y-103755149D01*
X160363776Y-103758666D01*
X160349458Y-103760790D01*
X160335000Y-103761500D01*
X160040000Y-103761500D01*
X160025542Y-103760790D01*
X160011224Y-103758666D01*
X159997183Y-103755149D01*
X159983554Y-103750272D01*
X159970469Y-103744083D01*
X159958053Y-103736642D01*
X159946427Y-103728019D01*
X159935702Y-103718298D01*
X159925981Y-103707573D01*
X159917358Y-103695947D01*
X159909917Y-103683531D01*
X159903728Y-103670446D01*
X159898851Y-103656817D01*
X159895334Y-103642776D01*
X159893210Y-103628458D01*
X159892500Y-103614000D01*
X159892500Y-103269000D01*
X159893210Y-103254542D01*
X159895334Y-103240224D01*
X159898851Y-103226183D01*
X159903728Y-103212554D01*
X159909917Y-103199469D01*
X159917358Y-103187053D01*
X159925981Y-103175427D01*
X159935702Y-103164702D01*
X159946427Y-103154981D01*
X159958053Y-103146358D01*
X159970469Y-103138917D01*
X159983554Y-103132728D01*
X159997183Y-103127851D01*
X160011224Y-103124334D01*
X160025542Y-103122210D01*
X160040000Y-103121500D01*
X160335000Y-103121500D01*
X160349458Y-103122210D01*
X160349458Y-103122210D01*
G37*
D19*
X160187500Y-103441500D03*
D12*
G36*
X159379458Y-103122210D02*
G01*
X159393776Y-103124334D01*
X159407817Y-103127851D01*
X159421446Y-103132728D01*
X159434531Y-103138917D01*
X159446947Y-103146358D01*
X159458573Y-103154981D01*
X159469298Y-103164702D01*
X159479019Y-103175427D01*
X159487642Y-103187053D01*
X159495083Y-103199469D01*
X159501272Y-103212554D01*
X159506149Y-103226183D01*
X159509666Y-103240224D01*
X159511790Y-103254542D01*
X159512500Y-103269000D01*
X159512500Y-103614000D01*
X159511790Y-103628458D01*
X159509666Y-103642776D01*
X159506149Y-103656817D01*
X159501272Y-103670446D01*
X159495083Y-103683531D01*
X159487642Y-103695947D01*
X159479019Y-103707573D01*
X159469298Y-103718298D01*
X159458573Y-103728019D01*
X159446947Y-103736642D01*
X159434531Y-103744083D01*
X159421446Y-103750272D01*
X159407817Y-103755149D01*
X159393776Y-103758666D01*
X159379458Y-103760790D01*
X159365000Y-103761500D01*
X159070000Y-103761500D01*
X159055542Y-103760790D01*
X159041224Y-103758666D01*
X159027183Y-103755149D01*
X159013554Y-103750272D01*
X159000469Y-103744083D01*
X158988053Y-103736642D01*
X158976427Y-103728019D01*
X158965702Y-103718298D01*
X158955981Y-103707573D01*
X158947358Y-103695947D01*
X158939917Y-103683531D01*
X158933728Y-103670446D01*
X158928851Y-103656817D01*
X158925334Y-103642776D01*
X158923210Y-103628458D01*
X158922500Y-103614000D01*
X158922500Y-103269000D01*
X158923210Y-103254542D01*
X158925334Y-103240224D01*
X158928851Y-103226183D01*
X158933728Y-103212554D01*
X158939917Y-103199469D01*
X158947358Y-103187053D01*
X158955981Y-103175427D01*
X158965702Y-103164702D01*
X158976427Y-103154981D01*
X158988053Y-103146358D01*
X159000469Y-103138917D01*
X159013554Y-103132728D01*
X159027183Y-103127851D01*
X159041224Y-103124334D01*
X159055542Y-103122210D01*
X159070000Y-103121500D01*
X159365000Y-103121500D01*
X159379458Y-103122210D01*
X159379458Y-103122210D01*
G37*
D19*
X159217500Y-103441500D03*
D12*
G36*
X164270958Y-89898710D02*
G01*
X164285276Y-89900834D01*
X164299317Y-89904351D01*
X164312946Y-89909228D01*
X164326031Y-89915417D01*
X164338447Y-89922858D01*
X164350073Y-89931481D01*
X164360798Y-89941202D01*
X164370519Y-89951927D01*
X164379142Y-89963553D01*
X164386583Y-89975969D01*
X164392772Y-89989054D01*
X164397649Y-90002683D01*
X164401166Y-90016724D01*
X164403290Y-90031042D01*
X164404000Y-90045500D01*
X164404000Y-90340500D01*
X164403290Y-90354958D01*
X164401166Y-90369276D01*
X164397649Y-90383317D01*
X164392772Y-90396946D01*
X164386583Y-90410031D01*
X164379142Y-90422447D01*
X164370519Y-90434073D01*
X164360798Y-90444798D01*
X164350073Y-90454519D01*
X164338447Y-90463142D01*
X164326031Y-90470583D01*
X164312946Y-90476772D01*
X164299317Y-90481649D01*
X164285276Y-90485166D01*
X164270958Y-90487290D01*
X164256500Y-90488000D01*
X163911500Y-90488000D01*
X163897042Y-90487290D01*
X163882724Y-90485166D01*
X163868683Y-90481649D01*
X163855054Y-90476772D01*
X163841969Y-90470583D01*
X163829553Y-90463142D01*
X163817927Y-90454519D01*
X163807202Y-90444798D01*
X163797481Y-90434073D01*
X163788858Y-90422447D01*
X163781417Y-90410031D01*
X163775228Y-90396946D01*
X163770351Y-90383317D01*
X163766834Y-90369276D01*
X163764710Y-90354958D01*
X163764000Y-90340500D01*
X163764000Y-90045500D01*
X163764710Y-90031042D01*
X163766834Y-90016724D01*
X163770351Y-90002683D01*
X163775228Y-89989054D01*
X163781417Y-89975969D01*
X163788858Y-89963553D01*
X163797481Y-89951927D01*
X163807202Y-89941202D01*
X163817927Y-89931481D01*
X163829553Y-89922858D01*
X163841969Y-89915417D01*
X163855054Y-89909228D01*
X163868683Y-89904351D01*
X163882724Y-89900834D01*
X163897042Y-89898710D01*
X163911500Y-89898000D01*
X164256500Y-89898000D01*
X164270958Y-89898710D01*
X164270958Y-89898710D01*
G37*
D19*
X164084000Y-90193000D03*
D12*
G36*
X164270958Y-90868710D02*
G01*
X164285276Y-90870834D01*
X164299317Y-90874351D01*
X164312946Y-90879228D01*
X164326031Y-90885417D01*
X164338447Y-90892858D01*
X164350073Y-90901481D01*
X164360798Y-90911202D01*
X164370519Y-90921927D01*
X164379142Y-90933553D01*
X164386583Y-90945969D01*
X164392772Y-90959054D01*
X164397649Y-90972683D01*
X164401166Y-90986724D01*
X164403290Y-91001042D01*
X164404000Y-91015500D01*
X164404000Y-91310500D01*
X164403290Y-91324958D01*
X164401166Y-91339276D01*
X164397649Y-91353317D01*
X164392772Y-91366946D01*
X164386583Y-91380031D01*
X164379142Y-91392447D01*
X164370519Y-91404073D01*
X164360798Y-91414798D01*
X164350073Y-91424519D01*
X164338447Y-91433142D01*
X164326031Y-91440583D01*
X164312946Y-91446772D01*
X164299317Y-91451649D01*
X164285276Y-91455166D01*
X164270958Y-91457290D01*
X164256500Y-91458000D01*
X163911500Y-91458000D01*
X163897042Y-91457290D01*
X163882724Y-91455166D01*
X163868683Y-91451649D01*
X163855054Y-91446772D01*
X163841969Y-91440583D01*
X163829553Y-91433142D01*
X163817927Y-91424519D01*
X163807202Y-91414798D01*
X163797481Y-91404073D01*
X163788858Y-91392447D01*
X163781417Y-91380031D01*
X163775228Y-91366946D01*
X163770351Y-91353317D01*
X163766834Y-91339276D01*
X163764710Y-91324958D01*
X163764000Y-91310500D01*
X163764000Y-91015500D01*
X163764710Y-91001042D01*
X163766834Y-90986724D01*
X163770351Y-90972683D01*
X163775228Y-90959054D01*
X163781417Y-90945969D01*
X163788858Y-90933553D01*
X163797481Y-90921927D01*
X163807202Y-90911202D01*
X163817927Y-90901481D01*
X163829553Y-90892858D01*
X163841969Y-90885417D01*
X163855054Y-90879228D01*
X163868683Y-90874351D01*
X163882724Y-90870834D01*
X163897042Y-90868710D01*
X163911500Y-90868000D01*
X164256500Y-90868000D01*
X164270958Y-90868710D01*
X164270958Y-90868710D01*
G37*
D19*
X164084000Y-91163000D03*
D12*
G36*
X166239458Y-100266710D02*
G01*
X166253776Y-100268834D01*
X166267817Y-100272351D01*
X166281446Y-100277228D01*
X166294531Y-100283417D01*
X166306947Y-100290858D01*
X166318573Y-100299481D01*
X166329298Y-100309202D01*
X166339019Y-100319927D01*
X166347642Y-100331553D01*
X166355083Y-100343969D01*
X166361272Y-100357054D01*
X166366149Y-100370683D01*
X166369666Y-100384724D01*
X166371790Y-100399042D01*
X166372500Y-100413500D01*
X166372500Y-100708500D01*
X166371790Y-100722958D01*
X166369666Y-100737276D01*
X166366149Y-100751317D01*
X166361272Y-100764946D01*
X166355083Y-100778031D01*
X166347642Y-100790447D01*
X166339019Y-100802073D01*
X166329298Y-100812798D01*
X166318573Y-100822519D01*
X166306947Y-100831142D01*
X166294531Y-100838583D01*
X166281446Y-100844772D01*
X166267817Y-100849649D01*
X166253776Y-100853166D01*
X166239458Y-100855290D01*
X166225000Y-100856000D01*
X165880000Y-100856000D01*
X165865542Y-100855290D01*
X165851224Y-100853166D01*
X165837183Y-100849649D01*
X165823554Y-100844772D01*
X165810469Y-100838583D01*
X165798053Y-100831142D01*
X165786427Y-100822519D01*
X165775702Y-100812798D01*
X165765981Y-100802073D01*
X165757358Y-100790447D01*
X165749917Y-100778031D01*
X165743728Y-100764946D01*
X165738851Y-100751317D01*
X165735334Y-100737276D01*
X165733210Y-100722958D01*
X165732500Y-100708500D01*
X165732500Y-100413500D01*
X165733210Y-100399042D01*
X165735334Y-100384724D01*
X165738851Y-100370683D01*
X165743728Y-100357054D01*
X165749917Y-100343969D01*
X165757358Y-100331553D01*
X165765981Y-100319927D01*
X165775702Y-100309202D01*
X165786427Y-100299481D01*
X165798053Y-100290858D01*
X165810469Y-100283417D01*
X165823554Y-100277228D01*
X165837183Y-100272351D01*
X165851224Y-100268834D01*
X165865542Y-100266710D01*
X165880000Y-100266000D01*
X166225000Y-100266000D01*
X166239458Y-100266710D01*
X166239458Y-100266710D01*
G37*
D19*
X166052500Y-100561000D03*
D12*
G36*
X166239458Y-99296710D02*
G01*
X166253776Y-99298834D01*
X166267817Y-99302351D01*
X166281446Y-99307228D01*
X166294531Y-99313417D01*
X166306947Y-99320858D01*
X166318573Y-99329481D01*
X166329298Y-99339202D01*
X166339019Y-99349927D01*
X166347642Y-99361553D01*
X166355083Y-99373969D01*
X166361272Y-99387054D01*
X166366149Y-99400683D01*
X166369666Y-99414724D01*
X166371790Y-99429042D01*
X166372500Y-99443500D01*
X166372500Y-99738500D01*
X166371790Y-99752958D01*
X166369666Y-99767276D01*
X166366149Y-99781317D01*
X166361272Y-99794946D01*
X166355083Y-99808031D01*
X166347642Y-99820447D01*
X166339019Y-99832073D01*
X166329298Y-99842798D01*
X166318573Y-99852519D01*
X166306947Y-99861142D01*
X166294531Y-99868583D01*
X166281446Y-99874772D01*
X166267817Y-99879649D01*
X166253776Y-99883166D01*
X166239458Y-99885290D01*
X166225000Y-99886000D01*
X165880000Y-99886000D01*
X165865542Y-99885290D01*
X165851224Y-99883166D01*
X165837183Y-99879649D01*
X165823554Y-99874772D01*
X165810469Y-99868583D01*
X165798053Y-99861142D01*
X165786427Y-99852519D01*
X165775702Y-99842798D01*
X165765981Y-99832073D01*
X165757358Y-99820447D01*
X165749917Y-99808031D01*
X165743728Y-99794946D01*
X165738851Y-99781317D01*
X165735334Y-99767276D01*
X165733210Y-99752958D01*
X165732500Y-99738500D01*
X165732500Y-99443500D01*
X165733210Y-99429042D01*
X165735334Y-99414724D01*
X165738851Y-99400683D01*
X165743728Y-99387054D01*
X165749917Y-99373969D01*
X165757358Y-99361553D01*
X165765981Y-99349927D01*
X165775702Y-99339202D01*
X165786427Y-99329481D01*
X165798053Y-99320858D01*
X165810469Y-99313417D01*
X165823554Y-99307228D01*
X165837183Y-99302351D01*
X165851224Y-99298834D01*
X165865542Y-99296710D01*
X165880000Y-99296000D01*
X166225000Y-99296000D01*
X166239458Y-99296710D01*
X166239458Y-99296710D01*
G37*
D19*
X166052500Y-99591000D03*
M02*
