G04 #@! TF.GenerationSoftware,KiCad,Pcbnew,(5.1.4)-1*
G04 #@! TF.CreationDate,2019-10-25T18:21:12-07:00*
G04 #@! TF.ProjectId,solarpcd,736f6c61-7270-4636-942e-6b696361645f,rev?*
G04 #@! TF.SameCoordinates,Original*
G04 #@! TF.FileFunction,Soldermask,Bot*
G04 #@! TF.FilePolarity,Negative*
%FSLAX46Y46*%
G04 Gerber Fmt 4.6, Leading zero omitted, Abs format (unit mm)*
G04 Created by KiCad (PCBNEW (5.1.4)-1) date 2019-10-25 18:21:12*
%MOMM*%
%LPD*%
G04 APERTURE LIST*
%ADD10C,0.050000*%
%ADD11C,0.120000*%
%ADD12C,0.100000*%
%ADD13C,0.300000*%
%ADD14C,1.625600*%
%ADD15C,2.159000*%
%ADD16R,2.159000X2.159000*%
%ADD17C,1.151600*%
%ADD18R,0.901600X0.901600*%
%ADD19R,2.101600X1.201600*%
%ADD20R,1.801600X1.601600*%
%ADD21R,0.351600X1.201600*%
%ADD22C,0.976600*%
%ADD23C,0.691600*%
%ADD24R,0.827000X0.627000*%
%ADD25R,2.251600X2.251600*%
%ADD26R,1.001600X0.401600*%
%ADD27R,0.401600X1.001600*%
%ADD28R,4.521200X1.562100*%
G04 APERTURE END LIST*
D10*
X156000000Y-99000000D02*
G75*
G03X156000000Y-99000000I-11000000J0D01*
G01*
X134727563Y-111650000D02*
G75*
G03X134727563Y-111650000I-1029563J0D01*
G01*
X128202563Y-111650000D02*
G75*
G03X128202563Y-111650000I-1029563J0D01*
G01*
X134704563Y-86350000D02*
G75*
G03X134704563Y-86350000I-1029563J0D01*
G01*
X128229563Y-86350000D02*
G75*
G03X128229563Y-86350000I-1029563J0D01*
G01*
X166000000Y-79100000D02*
G75*
G03X166000000Y-79100000I-1100000J0D01*
G01*
X126200000Y-79100000D02*
G75*
G03X126200000Y-79100000I-1100000J0D01*
G01*
X166000000Y-118900000D02*
G75*
G03X166000000Y-118900000I-1100000J0D01*
G01*
D11*
X126200000Y-118900000D02*
G75*
G03X126200000Y-118900000I-1100000J0D01*
G01*
D12*
X177000000Y-70000000D02*
X113000000Y-70000000D01*
X113000000Y-128000000D02*
X177000000Y-128000000D01*
X177000000Y-128000000D02*
X177000000Y-70000000D01*
X113000000Y-70000000D02*
X113000000Y-128000000D01*
D13*
X164715071Y-73906285D02*
X165715071Y-74263428D01*
X164715071Y-74620571D01*
X164215071Y-75477714D02*
X164215071Y-75620571D01*
X164286500Y-75763428D01*
X164357928Y-75834857D01*
X164500785Y-75906285D01*
X164786500Y-75977714D01*
X165143642Y-75977714D01*
X165429357Y-75906285D01*
X165572214Y-75834857D01*
X165643642Y-75763428D01*
X165715071Y-75620571D01*
X165715071Y-75477714D01*
X165643642Y-75334857D01*
X165572214Y-75263428D01*
X165429357Y-75192000D01*
X165143642Y-75120571D01*
X164786500Y-75120571D01*
X164500785Y-75192000D01*
X164357928Y-75263428D01*
X164286500Y-75334857D01*
X164215071Y-75477714D01*
X164215071Y-76906285D02*
X164215071Y-77049142D01*
X164286500Y-77192000D01*
X164357928Y-77263428D01*
X164500785Y-77334857D01*
X164786500Y-77406285D01*
X165143642Y-77406285D01*
X165429357Y-77334857D01*
X165572214Y-77263428D01*
X165643642Y-77192000D01*
X165715071Y-77049142D01*
X165715071Y-76906285D01*
X165643642Y-76763428D01*
X165572214Y-76692000D01*
X165429357Y-76620571D01*
X165143642Y-76549142D01*
X164786500Y-76549142D01*
X164500785Y-76620571D01*
X164357928Y-76692000D01*
X164286500Y-76763428D01*
X164215071Y-76906285D01*
D14*
X135509000Y-107442000D03*
X130429000Y-107442000D03*
X125349000Y-107442000D03*
X125349000Y-90551000D03*
X130429000Y-90551000D03*
X135509000Y-90551000D03*
D15*
X130429000Y-96398200D03*
D16*
X130429000Y-100253800D03*
D17*
X154938838Y-109853838D03*
D12*
G36*
X155753142Y-109853838D02*
G01*
X154938838Y-110668142D01*
X154124534Y-109853838D01*
X154938838Y-109039534D01*
X155753142Y-109853838D01*
X155753142Y-109853838D01*
G37*
D17*
X152817517Y-109818483D03*
D12*
G36*
X152393253Y-108579915D02*
G01*
X154056085Y-110242747D01*
X153241781Y-111057051D01*
X151578949Y-109394219D01*
X152393253Y-108579915D01*
X152393253Y-108579915D01*
G37*
D17*
X154903483Y-107732517D03*
D12*
G36*
X154479219Y-106493949D02*
G01*
X156142051Y-108156781D01*
X155327747Y-108971085D01*
X153664915Y-107308253D01*
X154479219Y-106493949D01*
X154479219Y-106493949D01*
G37*
D18*
X160635000Y-87185500D03*
D19*
X158735000Y-87185500D03*
D20*
X164121000Y-107786000D03*
X171921000Y-107786000D03*
D21*
X165771000Y-103886000D03*
X166271000Y-103886000D03*
X166771000Y-103886000D03*
X167271000Y-103886000D03*
X167771000Y-103886000D03*
X168271000Y-103886000D03*
X168771000Y-103886000D03*
X169271000Y-103886000D03*
X169771000Y-103886000D03*
X170271000Y-103886000D03*
D12*
G36*
X167501581Y-99424376D02*
G01*
X167525281Y-99427891D01*
X167548523Y-99433713D01*
X167571082Y-99441785D01*
X167592742Y-99452029D01*
X167613292Y-99464347D01*
X167632537Y-99478619D01*
X167650290Y-99494710D01*
X167666381Y-99512463D01*
X167680653Y-99531708D01*
X167692971Y-99552258D01*
X167703215Y-99573918D01*
X167711287Y-99596477D01*
X167717109Y-99619719D01*
X167720624Y-99643419D01*
X167721800Y-99667350D01*
X167721800Y-100230650D01*
X167720624Y-100254581D01*
X167717109Y-100278281D01*
X167711287Y-100301523D01*
X167703215Y-100324082D01*
X167692971Y-100345742D01*
X167680653Y-100366292D01*
X167666381Y-100385537D01*
X167650290Y-100403290D01*
X167632537Y-100419381D01*
X167613292Y-100433653D01*
X167592742Y-100445971D01*
X167571082Y-100456215D01*
X167548523Y-100464287D01*
X167525281Y-100470109D01*
X167501581Y-100473624D01*
X167477650Y-100474800D01*
X166989350Y-100474800D01*
X166965419Y-100473624D01*
X166941719Y-100470109D01*
X166918477Y-100464287D01*
X166895918Y-100456215D01*
X166874258Y-100445971D01*
X166853708Y-100433653D01*
X166834463Y-100419381D01*
X166816710Y-100403290D01*
X166800619Y-100385537D01*
X166786347Y-100366292D01*
X166774029Y-100345742D01*
X166763785Y-100324082D01*
X166755713Y-100301523D01*
X166749891Y-100278281D01*
X166746376Y-100254581D01*
X166745200Y-100230650D01*
X166745200Y-99667350D01*
X166746376Y-99643419D01*
X166749891Y-99619719D01*
X166755713Y-99596477D01*
X166763785Y-99573918D01*
X166774029Y-99552258D01*
X166786347Y-99531708D01*
X166800619Y-99512463D01*
X166816710Y-99494710D01*
X166834463Y-99478619D01*
X166853708Y-99464347D01*
X166874258Y-99452029D01*
X166895918Y-99441785D01*
X166918477Y-99433713D01*
X166941719Y-99427891D01*
X166965419Y-99424376D01*
X166989350Y-99423200D01*
X167477650Y-99423200D01*
X167501581Y-99424376D01*
X167501581Y-99424376D01*
G37*
D22*
X167233500Y-99949000D03*
D12*
G36*
X169076581Y-99424376D02*
G01*
X169100281Y-99427891D01*
X169123523Y-99433713D01*
X169146082Y-99441785D01*
X169167742Y-99452029D01*
X169188292Y-99464347D01*
X169207537Y-99478619D01*
X169225290Y-99494710D01*
X169241381Y-99512463D01*
X169255653Y-99531708D01*
X169267971Y-99552258D01*
X169278215Y-99573918D01*
X169286287Y-99596477D01*
X169292109Y-99619719D01*
X169295624Y-99643419D01*
X169296800Y-99667350D01*
X169296800Y-100230650D01*
X169295624Y-100254581D01*
X169292109Y-100278281D01*
X169286287Y-100301523D01*
X169278215Y-100324082D01*
X169267971Y-100345742D01*
X169255653Y-100366292D01*
X169241381Y-100385537D01*
X169225290Y-100403290D01*
X169207537Y-100419381D01*
X169188292Y-100433653D01*
X169167742Y-100445971D01*
X169146082Y-100456215D01*
X169123523Y-100464287D01*
X169100281Y-100470109D01*
X169076581Y-100473624D01*
X169052650Y-100474800D01*
X168564350Y-100474800D01*
X168540419Y-100473624D01*
X168516719Y-100470109D01*
X168493477Y-100464287D01*
X168470918Y-100456215D01*
X168449258Y-100445971D01*
X168428708Y-100433653D01*
X168409463Y-100419381D01*
X168391710Y-100403290D01*
X168375619Y-100385537D01*
X168361347Y-100366292D01*
X168349029Y-100345742D01*
X168338785Y-100324082D01*
X168330713Y-100301523D01*
X168324891Y-100278281D01*
X168321376Y-100254581D01*
X168320200Y-100230650D01*
X168320200Y-99667350D01*
X168321376Y-99643419D01*
X168324891Y-99619719D01*
X168330713Y-99596477D01*
X168338785Y-99573918D01*
X168349029Y-99552258D01*
X168361347Y-99531708D01*
X168375619Y-99512463D01*
X168391710Y-99494710D01*
X168409463Y-99478619D01*
X168428708Y-99464347D01*
X168449258Y-99452029D01*
X168470918Y-99441785D01*
X168493477Y-99433713D01*
X168516719Y-99427891D01*
X168540419Y-99424376D01*
X168564350Y-99423200D01*
X169052650Y-99423200D01*
X169076581Y-99424376D01*
X169076581Y-99424376D01*
G37*
D22*
X168808500Y-99949000D03*
D12*
G36*
X158493191Y-94734693D02*
G01*
X158509975Y-94737182D01*
X158526434Y-94741305D01*
X158542410Y-94747021D01*
X158557748Y-94754276D01*
X158572302Y-94762999D01*
X158585931Y-94773106D01*
X158598503Y-94784501D01*
X158609898Y-94797073D01*
X158620005Y-94810702D01*
X158628728Y-94825256D01*
X158635983Y-94840594D01*
X158641699Y-94856570D01*
X158645822Y-94873029D01*
X158648311Y-94889813D01*
X158649144Y-94906760D01*
X158649144Y-95252560D01*
X158648311Y-95269507D01*
X158645822Y-95286291D01*
X158641699Y-95302750D01*
X158635983Y-95318726D01*
X158628728Y-95334064D01*
X158620005Y-95348618D01*
X158609898Y-95362247D01*
X158598503Y-95374819D01*
X158585931Y-95386214D01*
X158572302Y-95396321D01*
X158557748Y-95405044D01*
X158542410Y-95412299D01*
X158526434Y-95418015D01*
X158509975Y-95422138D01*
X158493191Y-95424627D01*
X158476244Y-95425460D01*
X158080444Y-95425460D01*
X158063497Y-95424627D01*
X158046713Y-95422138D01*
X158030254Y-95418015D01*
X158014278Y-95412299D01*
X157998940Y-95405044D01*
X157984386Y-95396321D01*
X157970757Y-95386214D01*
X157958185Y-95374819D01*
X157946790Y-95362247D01*
X157936683Y-95348618D01*
X157927960Y-95334064D01*
X157920705Y-95318726D01*
X157914989Y-95302750D01*
X157910866Y-95286291D01*
X157908377Y-95269507D01*
X157907544Y-95252560D01*
X157907544Y-94906760D01*
X157908377Y-94889813D01*
X157910866Y-94873029D01*
X157914989Y-94856570D01*
X157920705Y-94840594D01*
X157927960Y-94825256D01*
X157936683Y-94810702D01*
X157946790Y-94797073D01*
X157958185Y-94784501D01*
X157970757Y-94773106D01*
X157984386Y-94762999D01*
X157998940Y-94754276D01*
X158014278Y-94747021D01*
X158030254Y-94741305D01*
X158046713Y-94737182D01*
X158063497Y-94734693D01*
X158080444Y-94733860D01*
X158476244Y-94733860D01*
X158493191Y-94734693D01*
X158493191Y-94734693D01*
G37*
D23*
X158278344Y-95079660D03*
D12*
G36*
X158493191Y-93764693D02*
G01*
X158509975Y-93767182D01*
X158526434Y-93771305D01*
X158542410Y-93777021D01*
X158557748Y-93784276D01*
X158572302Y-93792999D01*
X158585931Y-93803106D01*
X158598503Y-93814501D01*
X158609898Y-93827073D01*
X158620005Y-93840702D01*
X158628728Y-93855256D01*
X158635983Y-93870594D01*
X158641699Y-93886570D01*
X158645822Y-93903029D01*
X158648311Y-93919813D01*
X158649144Y-93936760D01*
X158649144Y-94282560D01*
X158648311Y-94299507D01*
X158645822Y-94316291D01*
X158641699Y-94332750D01*
X158635983Y-94348726D01*
X158628728Y-94364064D01*
X158620005Y-94378618D01*
X158609898Y-94392247D01*
X158598503Y-94404819D01*
X158585931Y-94416214D01*
X158572302Y-94426321D01*
X158557748Y-94435044D01*
X158542410Y-94442299D01*
X158526434Y-94448015D01*
X158509975Y-94452138D01*
X158493191Y-94454627D01*
X158476244Y-94455460D01*
X158080444Y-94455460D01*
X158063497Y-94454627D01*
X158046713Y-94452138D01*
X158030254Y-94448015D01*
X158014278Y-94442299D01*
X157998940Y-94435044D01*
X157984386Y-94426321D01*
X157970757Y-94416214D01*
X157958185Y-94404819D01*
X157946790Y-94392247D01*
X157936683Y-94378618D01*
X157927960Y-94364064D01*
X157920705Y-94348726D01*
X157914989Y-94332750D01*
X157910866Y-94316291D01*
X157908377Y-94299507D01*
X157907544Y-94282560D01*
X157907544Y-93936760D01*
X157908377Y-93919813D01*
X157910866Y-93903029D01*
X157914989Y-93886570D01*
X157920705Y-93870594D01*
X157927960Y-93855256D01*
X157936683Y-93840702D01*
X157946790Y-93827073D01*
X157958185Y-93814501D01*
X157970757Y-93803106D01*
X157984386Y-93792999D01*
X157998940Y-93784276D01*
X158014278Y-93777021D01*
X158030254Y-93771305D01*
X158046713Y-93767182D01*
X158063497Y-93764693D01*
X158080444Y-93763860D01*
X158476244Y-93763860D01*
X158493191Y-93764693D01*
X158493191Y-93764693D01*
G37*
D23*
X158278344Y-94109660D03*
D12*
G36*
X161976581Y-106154876D02*
G01*
X162000281Y-106158391D01*
X162023523Y-106164213D01*
X162046082Y-106172285D01*
X162067742Y-106182529D01*
X162088292Y-106194847D01*
X162107537Y-106209119D01*
X162125290Y-106225210D01*
X162141381Y-106242963D01*
X162155653Y-106262208D01*
X162167971Y-106282758D01*
X162178215Y-106304418D01*
X162186287Y-106326977D01*
X162192109Y-106350219D01*
X162195624Y-106373919D01*
X162196800Y-106397850D01*
X162196800Y-106886150D01*
X162195624Y-106910081D01*
X162192109Y-106933781D01*
X162186287Y-106957023D01*
X162178215Y-106979582D01*
X162167971Y-107001242D01*
X162155653Y-107021792D01*
X162141381Y-107041037D01*
X162125290Y-107058790D01*
X162107537Y-107074881D01*
X162088292Y-107089153D01*
X162067742Y-107101471D01*
X162046082Y-107111715D01*
X162023523Y-107119787D01*
X162000281Y-107125609D01*
X161976581Y-107129124D01*
X161952650Y-107130300D01*
X161389350Y-107130300D01*
X161365419Y-107129124D01*
X161341719Y-107125609D01*
X161318477Y-107119787D01*
X161295918Y-107111715D01*
X161274258Y-107101471D01*
X161253708Y-107089153D01*
X161234463Y-107074881D01*
X161216710Y-107058790D01*
X161200619Y-107041037D01*
X161186347Y-107021792D01*
X161174029Y-107001242D01*
X161163785Y-106979582D01*
X161155713Y-106957023D01*
X161149891Y-106933781D01*
X161146376Y-106910081D01*
X161145200Y-106886150D01*
X161145200Y-106397850D01*
X161146376Y-106373919D01*
X161149891Y-106350219D01*
X161155713Y-106326977D01*
X161163785Y-106304418D01*
X161174029Y-106282758D01*
X161186347Y-106262208D01*
X161200619Y-106242963D01*
X161216710Y-106225210D01*
X161234463Y-106209119D01*
X161253708Y-106194847D01*
X161274258Y-106182529D01*
X161295918Y-106172285D01*
X161318477Y-106164213D01*
X161341719Y-106158391D01*
X161365419Y-106154876D01*
X161389350Y-106153700D01*
X161952650Y-106153700D01*
X161976581Y-106154876D01*
X161976581Y-106154876D01*
G37*
D22*
X161671000Y-106642000D03*
D12*
G36*
X161976581Y-104579876D02*
G01*
X162000281Y-104583391D01*
X162023523Y-104589213D01*
X162046082Y-104597285D01*
X162067742Y-104607529D01*
X162088292Y-104619847D01*
X162107537Y-104634119D01*
X162125290Y-104650210D01*
X162141381Y-104667963D01*
X162155653Y-104687208D01*
X162167971Y-104707758D01*
X162178215Y-104729418D01*
X162186287Y-104751977D01*
X162192109Y-104775219D01*
X162195624Y-104798919D01*
X162196800Y-104822850D01*
X162196800Y-105311150D01*
X162195624Y-105335081D01*
X162192109Y-105358781D01*
X162186287Y-105382023D01*
X162178215Y-105404582D01*
X162167971Y-105426242D01*
X162155653Y-105446792D01*
X162141381Y-105466037D01*
X162125290Y-105483790D01*
X162107537Y-105499881D01*
X162088292Y-105514153D01*
X162067742Y-105526471D01*
X162046082Y-105536715D01*
X162023523Y-105544787D01*
X162000281Y-105550609D01*
X161976581Y-105554124D01*
X161952650Y-105555300D01*
X161389350Y-105555300D01*
X161365419Y-105554124D01*
X161341719Y-105550609D01*
X161318477Y-105544787D01*
X161295918Y-105536715D01*
X161274258Y-105526471D01*
X161253708Y-105514153D01*
X161234463Y-105499881D01*
X161216710Y-105483790D01*
X161200619Y-105466037D01*
X161186347Y-105446792D01*
X161174029Y-105426242D01*
X161163785Y-105404582D01*
X161155713Y-105382023D01*
X161149891Y-105358781D01*
X161146376Y-105335081D01*
X161145200Y-105311150D01*
X161145200Y-104822850D01*
X161146376Y-104798919D01*
X161149891Y-104775219D01*
X161155713Y-104751977D01*
X161163785Y-104729418D01*
X161174029Y-104707758D01*
X161186347Y-104687208D01*
X161200619Y-104667963D01*
X161216710Y-104650210D01*
X161234463Y-104634119D01*
X161253708Y-104619847D01*
X161274258Y-104607529D01*
X161295918Y-104597285D01*
X161318477Y-104589213D01*
X161341719Y-104583391D01*
X161365419Y-104579876D01*
X161389350Y-104578700D01*
X161952650Y-104578700D01*
X161976581Y-104579876D01*
X161976581Y-104579876D01*
G37*
D22*
X161671000Y-105067000D03*
D24*
X164211000Y-88900000D03*
X165511000Y-88900000D03*
D25*
X164882344Y-94574660D03*
D26*
X163182344Y-93574660D03*
X163182344Y-94074660D03*
X163182344Y-94574660D03*
X163182344Y-95074660D03*
X163182344Y-95574660D03*
D27*
X163882344Y-96274660D03*
X164382344Y-96274660D03*
X164882344Y-96274660D03*
X165382344Y-96274660D03*
X165882344Y-96274660D03*
D26*
X166582344Y-95574660D03*
X166582344Y-95074660D03*
X166582344Y-94574660D03*
X166582344Y-94074660D03*
X166582344Y-93574660D03*
D27*
X165882344Y-92874660D03*
X165382344Y-92874660D03*
X164882344Y-92874660D03*
X164382344Y-92874660D03*
X163882344Y-92874660D03*
D18*
X159278000Y-101790500D03*
D19*
X161178000Y-101790500D03*
D12*
G36*
X168807347Y-91326033D02*
G01*
X168824131Y-91328522D01*
X168840590Y-91332645D01*
X168856566Y-91338361D01*
X168871904Y-91345616D01*
X168886458Y-91354339D01*
X168900087Y-91364446D01*
X168912659Y-91375841D01*
X168924054Y-91388413D01*
X168934161Y-91402042D01*
X168942884Y-91416596D01*
X168950139Y-91431934D01*
X168955855Y-91447910D01*
X168959978Y-91464369D01*
X168962467Y-91481153D01*
X168963300Y-91498100D01*
X168963300Y-91843900D01*
X168962467Y-91860847D01*
X168959978Y-91877631D01*
X168955855Y-91894090D01*
X168950139Y-91910066D01*
X168942884Y-91925404D01*
X168934161Y-91939958D01*
X168924054Y-91953587D01*
X168912659Y-91966159D01*
X168900087Y-91977554D01*
X168886458Y-91987661D01*
X168871904Y-91996384D01*
X168856566Y-92003639D01*
X168840590Y-92009355D01*
X168824131Y-92013478D01*
X168807347Y-92015967D01*
X168790400Y-92016800D01*
X168394600Y-92016800D01*
X168377653Y-92015967D01*
X168360869Y-92013478D01*
X168344410Y-92009355D01*
X168328434Y-92003639D01*
X168313096Y-91996384D01*
X168298542Y-91987661D01*
X168284913Y-91977554D01*
X168272341Y-91966159D01*
X168260946Y-91953587D01*
X168250839Y-91939958D01*
X168242116Y-91925404D01*
X168234861Y-91910066D01*
X168229145Y-91894090D01*
X168225022Y-91877631D01*
X168222533Y-91860847D01*
X168221700Y-91843900D01*
X168221700Y-91498100D01*
X168222533Y-91481153D01*
X168225022Y-91464369D01*
X168229145Y-91447910D01*
X168234861Y-91431934D01*
X168242116Y-91416596D01*
X168250839Y-91402042D01*
X168260946Y-91388413D01*
X168272341Y-91375841D01*
X168284913Y-91364446D01*
X168298542Y-91354339D01*
X168313096Y-91345616D01*
X168328434Y-91338361D01*
X168344410Y-91332645D01*
X168360869Y-91328522D01*
X168377653Y-91326033D01*
X168394600Y-91325200D01*
X168790400Y-91325200D01*
X168807347Y-91326033D01*
X168807347Y-91326033D01*
G37*
D23*
X168592500Y-91671000D03*
D12*
G36*
X168807347Y-90356033D02*
G01*
X168824131Y-90358522D01*
X168840590Y-90362645D01*
X168856566Y-90368361D01*
X168871904Y-90375616D01*
X168886458Y-90384339D01*
X168900087Y-90394446D01*
X168912659Y-90405841D01*
X168924054Y-90418413D01*
X168934161Y-90432042D01*
X168942884Y-90446596D01*
X168950139Y-90461934D01*
X168955855Y-90477910D01*
X168959978Y-90494369D01*
X168962467Y-90511153D01*
X168963300Y-90528100D01*
X168963300Y-90873900D01*
X168962467Y-90890847D01*
X168959978Y-90907631D01*
X168955855Y-90924090D01*
X168950139Y-90940066D01*
X168942884Y-90955404D01*
X168934161Y-90969958D01*
X168924054Y-90983587D01*
X168912659Y-90996159D01*
X168900087Y-91007554D01*
X168886458Y-91017661D01*
X168871904Y-91026384D01*
X168856566Y-91033639D01*
X168840590Y-91039355D01*
X168824131Y-91043478D01*
X168807347Y-91045967D01*
X168790400Y-91046800D01*
X168394600Y-91046800D01*
X168377653Y-91045967D01*
X168360869Y-91043478D01*
X168344410Y-91039355D01*
X168328434Y-91033639D01*
X168313096Y-91026384D01*
X168298542Y-91017661D01*
X168284913Y-91007554D01*
X168272341Y-90996159D01*
X168260946Y-90983587D01*
X168250839Y-90969958D01*
X168242116Y-90955404D01*
X168234861Y-90940066D01*
X168229145Y-90924090D01*
X168225022Y-90907631D01*
X168222533Y-90890847D01*
X168221700Y-90873900D01*
X168221700Y-90528100D01*
X168222533Y-90511153D01*
X168225022Y-90494369D01*
X168229145Y-90477910D01*
X168234861Y-90461934D01*
X168242116Y-90446596D01*
X168250839Y-90432042D01*
X168260946Y-90418413D01*
X168272341Y-90405841D01*
X168284913Y-90394446D01*
X168298542Y-90384339D01*
X168313096Y-90375616D01*
X168328434Y-90368361D01*
X168344410Y-90362645D01*
X168360869Y-90358522D01*
X168377653Y-90356033D01*
X168394600Y-90355200D01*
X168790400Y-90355200D01*
X168807347Y-90356033D01*
X168807347Y-90356033D01*
G37*
D23*
X168592500Y-90701000D03*
D12*
G36*
X169711847Y-92594033D02*
G01*
X169728631Y-92596522D01*
X169745090Y-92600645D01*
X169761066Y-92606361D01*
X169776404Y-92613616D01*
X169790958Y-92622339D01*
X169804587Y-92632446D01*
X169817159Y-92643841D01*
X169828554Y-92656413D01*
X169838661Y-92670042D01*
X169847384Y-92684596D01*
X169854639Y-92699934D01*
X169860355Y-92715910D01*
X169864478Y-92732369D01*
X169866967Y-92749153D01*
X169867800Y-92766100D01*
X169867800Y-93161900D01*
X169866967Y-93178847D01*
X169864478Y-93195631D01*
X169860355Y-93212090D01*
X169854639Y-93228066D01*
X169847384Y-93243404D01*
X169838661Y-93257958D01*
X169828554Y-93271587D01*
X169817159Y-93284159D01*
X169804587Y-93295554D01*
X169790958Y-93305661D01*
X169776404Y-93314384D01*
X169761066Y-93321639D01*
X169745090Y-93327355D01*
X169728631Y-93331478D01*
X169711847Y-93333967D01*
X169694900Y-93334800D01*
X169349100Y-93334800D01*
X169332153Y-93333967D01*
X169315369Y-93331478D01*
X169298910Y-93327355D01*
X169282934Y-93321639D01*
X169267596Y-93314384D01*
X169253042Y-93305661D01*
X169239413Y-93295554D01*
X169226841Y-93284159D01*
X169215446Y-93271587D01*
X169205339Y-93257958D01*
X169196616Y-93243404D01*
X169189361Y-93228066D01*
X169183645Y-93212090D01*
X169179522Y-93195631D01*
X169177033Y-93178847D01*
X169176200Y-93161900D01*
X169176200Y-92766100D01*
X169177033Y-92749153D01*
X169179522Y-92732369D01*
X169183645Y-92715910D01*
X169189361Y-92699934D01*
X169196616Y-92684596D01*
X169205339Y-92670042D01*
X169215446Y-92656413D01*
X169226841Y-92643841D01*
X169239413Y-92632446D01*
X169253042Y-92622339D01*
X169267596Y-92613616D01*
X169282934Y-92606361D01*
X169298910Y-92600645D01*
X169315369Y-92596522D01*
X169332153Y-92594033D01*
X169349100Y-92593200D01*
X169694900Y-92593200D01*
X169711847Y-92594033D01*
X169711847Y-92594033D01*
G37*
D23*
X169522000Y-92964000D03*
D12*
G36*
X168741847Y-92594033D02*
G01*
X168758631Y-92596522D01*
X168775090Y-92600645D01*
X168791066Y-92606361D01*
X168806404Y-92613616D01*
X168820958Y-92622339D01*
X168834587Y-92632446D01*
X168847159Y-92643841D01*
X168858554Y-92656413D01*
X168868661Y-92670042D01*
X168877384Y-92684596D01*
X168884639Y-92699934D01*
X168890355Y-92715910D01*
X168894478Y-92732369D01*
X168896967Y-92749153D01*
X168897800Y-92766100D01*
X168897800Y-93161900D01*
X168896967Y-93178847D01*
X168894478Y-93195631D01*
X168890355Y-93212090D01*
X168884639Y-93228066D01*
X168877384Y-93243404D01*
X168868661Y-93257958D01*
X168858554Y-93271587D01*
X168847159Y-93284159D01*
X168834587Y-93295554D01*
X168820958Y-93305661D01*
X168806404Y-93314384D01*
X168791066Y-93321639D01*
X168775090Y-93327355D01*
X168758631Y-93331478D01*
X168741847Y-93333967D01*
X168724900Y-93334800D01*
X168379100Y-93334800D01*
X168362153Y-93333967D01*
X168345369Y-93331478D01*
X168328910Y-93327355D01*
X168312934Y-93321639D01*
X168297596Y-93314384D01*
X168283042Y-93305661D01*
X168269413Y-93295554D01*
X168256841Y-93284159D01*
X168245446Y-93271587D01*
X168235339Y-93257958D01*
X168226616Y-93243404D01*
X168219361Y-93228066D01*
X168213645Y-93212090D01*
X168209522Y-93195631D01*
X168207033Y-93178847D01*
X168206200Y-93161900D01*
X168206200Y-92766100D01*
X168207033Y-92749153D01*
X168209522Y-92732369D01*
X168213645Y-92715910D01*
X168219361Y-92699934D01*
X168226616Y-92684596D01*
X168235339Y-92670042D01*
X168245446Y-92656413D01*
X168256841Y-92643841D01*
X168269413Y-92632446D01*
X168283042Y-92622339D01*
X168297596Y-92613616D01*
X168312934Y-92606361D01*
X168328910Y-92600645D01*
X168345369Y-92596522D01*
X168362153Y-92594033D01*
X168379100Y-92593200D01*
X168724900Y-92593200D01*
X168741847Y-92594033D01*
X168741847Y-92594033D01*
G37*
D23*
X168552000Y-92964000D03*
D12*
G36*
X156932847Y-90864033D02*
G01*
X156949631Y-90866522D01*
X156966090Y-90870645D01*
X156982066Y-90876361D01*
X156997404Y-90883616D01*
X157011958Y-90892339D01*
X157025587Y-90902446D01*
X157038159Y-90913841D01*
X157049554Y-90926413D01*
X157059661Y-90940042D01*
X157068384Y-90954596D01*
X157075639Y-90969934D01*
X157081355Y-90985910D01*
X157085478Y-91002369D01*
X157087967Y-91019153D01*
X157088800Y-91036100D01*
X157088800Y-91381900D01*
X157087967Y-91398847D01*
X157085478Y-91415631D01*
X157081355Y-91432090D01*
X157075639Y-91448066D01*
X157068384Y-91463404D01*
X157059661Y-91477958D01*
X157049554Y-91491587D01*
X157038159Y-91504159D01*
X157025587Y-91515554D01*
X157011958Y-91525661D01*
X156997404Y-91534384D01*
X156982066Y-91541639D01*
X156966090Y-91547355D01*
X156949631Y-91551478D01*
X156932847Y-91553967D01*
X156915900Y-91554800D01*
X156520100Y-91554800D01*
X156503153Y-91553967D01*
X156486369Y-91551478D01*
X156469910Y-91547355D01*
X156453934Y-91541639D01*
X156438596Y-91534384D01*
X156424042Y-91525661D01*
X156410413Y-91515554D01*
X156397841Y-91504159D01*
X156386446Y-91491587D01*
X156376339Y-91477958D01*
X156367616Y-91463404D01*
X156360361Y-91448066D01*
X156354645Y-91432090D01*
X156350522Y-91415631D01*
X156348033Y-91398847D01*
X156347200Y-91381900D01*
X156347200Y-91036100D01*
X156348033Y-91019153D01*
X156350522Y-91002369D01*
X156354645Y-90985910D01*
X156360361Y-90969934D01*
X156367616Y-90954596D01*
X156376339Y-90940042D01*
X156386446Y-90926413D01*
X156397841Y-90913841D01*
X156410413Y-90902446D01*
X156424042Y-90892339D01*
X156438596Y-90883616D01*
X156453934Y-90876361D01*
X156469910Y-90870645D01*
X156486369Y-90866522D01*
X156503153Y-90864033D01*
X156520100Y-90863200D01*
X156915900Y-90863200D01*
X156932847Y-90864033D01*
X156932847Y-90864033D01*
G37*
D23*
X156718000Y-91209000D03*
D12*
G36*
X156932847Y-91834033D02*
G01*
X156949631Y-91836522D01*
X156966090Y-91840645D01*
X156982066Y-91846361D01*
X156997404Y-91853616D01*
X157011958Y-91862339D01*
X157025587Y-91872446D01*
X157038159Y-91883841D01*
X157049554Y-91896413D01*
X157059661Y-91910042D01*
X157068384Y-91924596D01*
X157075639Y-91939934D01*
X157081355Y-91955910D01*
X157085478Y-91972369D01*
X157087967Y-91989153D01*
X157088800Y-92006100D01*
X157088800Y-92351900D01*
X157087967Y-92368847D01*
X157085478Y-92385631D01*
X157081355Y-92402090D01*
X157075639Y-92418066D01*
X157068384Y-92433404D01*
X157059661Y-92447958D01*
X157049554Y-92461587D01*
X157038159Y-92474159D01*
X157025587Y-92485554D01*
X157011958Y-92495661D01*
X156997404Y-92504384D01*
X156982066Y-92511639D01*
X156966090Y-92517355D01*
X156949631Y-92521478D01*
X156932847Y-92523967D01*
X156915900Y-92524800D01*
X156520100Y-92524800D01*
X156503153Y-92523967D01*
X156486369Y-92521478D01*
X156469910Y-92517355D01*
X156453934Y-92511639D01*
X156438596Y-92504384D01*
X156424042Y-92495661D01*
X156410413Y-92485554D01*
X156397841Y-92474159D01*
X156386446Y-92461587D01*
X156376339Y-92447958D01*
X156367616Y-92433404D01*
X156360361Y-92418066D01*
X156354645Y-92402090D01*
X156350522Y-92385631D01*
X156348033Y-92368847D01*
X156347200Y-92351900D01*
X156347200Y-92006100D01*
X156348033Y-91989153D01*
X156350522Y-91972369D01*
X156354645Y-91955910D01*
X156360361Y-91939934D01*
X156367616Y-91924596D01*
X156376339Y-91910042D01*
X156386446Y-91896413D01*
X156397841Y-91883841D01*
X156410413Y-91872446D01*
X156424042Y-91862339D01*
X156438596Y-91853616D01*
X156453934Y-91846361D01*
X156469910Y-91840645D01*
X156486369Y-91836522D01*
X156503153Y-91834033D01*
X156520100Y-91833200D01*
X156915900Y-91833200D01*
X156932847Y-91834033D01*
X156932847Y-91834033D01*
G37*
D23*
X156718000Y-92179000D03*
D12*
G36*
X160425347Y-94734693D02*
G01*
X160442131Y-94737182D01*
X160458590Y-94741305D01*
X160474566Y-94747021D01*
X160489904Y-94754276D01*
X160504458Y-94762999D01*
X160518087Y-94773106D01*
X160530659Y-94784501D01*
X160542054Y-94797073D01*
X160552161Y-94810702D01*
X160560884Y-94825256D01*
X160568139Y-94840594D01*
X160573855Y-94856570D01*
X160577978Y-94873029D01*
X160580467Y-94889813D01*
X160581300Y-94906760D01*
X160581300Y-95252560D01*
X160580467Y-95269507D01*
X160577978Y-95286291D01*
X160573855Y-95302750D01*
X160568139Y-95318726D01*
X160560884Y-95334064D01*
X160552161Y-95348618D01*
X160542054Y-95362247D01*
X160530659Y-95374819D01*
X160518087Y-95386214D01*
X160504458Y-95396321D01*
X160489904Y-95405044D01*
X160474566Y-95412299D01*
X160458590Y-95418015D01*
X160442131Y-95422138D01*
X160425347Y-95424627D01*
X160408400Y-95425460D01*
X160012600Y-95425460D01*
X159995653Y-95424627D01*
X159978869Y-95422138D01*
X159962410Y-95418015D01*
X159946434Y-95412299D01*
X159931096Y-95405044D01*
X159916542Y-95396321D01*
X159902913Y-95386214D01*
X159890341Y-95374819D01*
X159878946Y-95362247D01*
X159868839Y-95348618D01*
X159860116Y-95334064D01*
X159852861Y-95318726D01*
X159847145Y-95302750D01*
X159843022Y-95286291D01*
X159840533Y-95269507D01*
X159839700Y-95252560D01*
X159839700Y-94906760D01*
X159840533Y-94889813D01*
X159843022Y-94873029D01*
X159847145Y-94856570D01*
X159852861Y-94840594D01*
X159860116Y-94825256D01*
X159868839Y-94810702D01*
X159878946Y-94797073D01*
X159890341Y-94784501D01*
X159902913Y-94773106D01*
X159916542Y-94762999D01*
X159931096Y-94754276D01*
X159946434Y-94747021D01*
X159962410Y-94741305D01*
X159978869Y-94737182D01*
X159995653Y-94734693D01*
X160012600Y-94733860D01*
X160408400Y-94733860D01*
X160425347Y-94734693D01*
X160425347Y-94734693D01*
G37*
D23*
X160210500Y-95079660D03*
D12*
G36*
X160425347Y-93764693D02*
G01*
X160442131Y-93767182D01*
X160458590Y-93771305D01*
X160474566Y-93777021D01*
X160489904Y-93784276D01*
X160504458Y-93792999D01*
X160518087Y-93803106D01*
X160530659Y-93814501D01*
X160542054Y-93827073D01*
X160552161Y-93840702D01*
X160560884Y-93855256D01*
X160568139Y-93870594D01*
X160573855Y-93886570D01*
X160577978Y-93903029D01*
X160580467Y-93919813D01*
X160581300Y-93936760D01*
X160581300Y-94282560D01*
X160580467Y-94299507D01*
X160577978Y-94316291D01*
X160573855Y-94332750D01*
X160568139Y-94348726D01*
X160560884Y-94364064D01*
X160552161Y-94378618D01*
X160542054Y-94392247D01*
X160530659Y-94404819D01*
X160518087Y-94416214D01*
X160504458Y-94426321D01*
X160489904Y-94435044D01*
X160474566Y-94442299D01*
X160458590Y-94448015D01*
X160442131Y-94452138D01*
X160425347Y-94454627D01*
X160408400Y-94455460D01*
X160012600Y-94455460D01*
X159995653Y-94454627D01*
X159978869Y-94452138D01*
X159962410Y-94448015D01*
X159946434Y-94442299D01*
X159931096Y-94435044D01*
X159916542Y-94426321D01*
X159902913Y-94416214D01*
X159890341Y-94404819D01*
X159878946Y-94392247D01*
X159868839Y-94378618D01*
X159860116Y-94364064D01*
X159852861Y-94348726D01*
X159847145Y-94332750D01*
X159843022Y-94316291D01*
X159840533Y-94299507D01*
X159839700Y-94282560D01*
X159839700Y-93936760D01*
X159840533Y-93919813D01*
X159843022Y-93903029D01*
X159847145Y-93886570D01*
X159852861Y-93870594D01*
X159860116Y-93855256D01*
X159868839Y-93840702D01*
X159878946Y-93827073D01*
X159890341Y-93814501D01*
X159902913Y-93803106D01*
X159916542Y-93792999D01*
X159931096Y-93784276D01*
X159946434Y-93777021D01*
X159962410Y-93771305D01*
X159978869Y-93767182D01*
X159995653Y-93764693D01*
X160012600Y-93763860D01*
X160408400Y-93763860D01*
X160425347Y-93764693D01*
X160425347Y-93764693D01*
G37*
D23*
X160210500Y-94109660D03*
D12*
G36*
X159563581Y-106027876D02*
G01*
X159587281Y-106031391D01*
X159610523Y-106037213D01*
X159633082Y-106045285D01*
X159654742Y-106055529D01*
X159675292Y-106067847D01*
X159694537Y-106082119D01*
X159712290Y-106098210D01*
X159728381Y-106115963D01*
X159742653Y-106135208D01*
X159754971Y-106155758D01*
X159765215Y-106177418D01*
X159773287Y-106199977D01*
X159779109Y-106223219D01*
X159782624Y-106246919D01*
X159783800Y-106270850D01*
X159783800Y-106759150D01*
X159782624Y-106783081D01*
X159779109Y-106806781D01*
X159773287Y-106830023D01*
X159765215Y-106852582D01*
X159754971Y-106874242D01*
X159742653Y-106894792D01*
X159728381Y-106914037D01*
X159712290Y-106931790D01*
X159694537Y-106947881D01*
X159675292Y-106962153D01*
X159654742Y-106974471D01*
X159633082Y-106984715D01*
X159610523Y-106992787D01*
X159587281Y-106998609D01*
X159563581Y-107002124D01*
X159539650Y-107003300D01*
X158976350Y-107003300D01*
X158952419Y-107002124D01*
X158928719Y-106998609D01*
X158905477Y-106992787D01*
X158882918Y-106984715D01*
X158861258Y-106974471D01*
X158840708Y-106962153D01*
X158821463Y-106947881D01*
X158803710Y-106931790D01*
X158787619Y-106914037D01*
X158773347Y-106894792D01*
X158761029Y-106874242D01*
X158750785Y-106852582D01*
X158742713Y-106830023D01*
X158736891Y-106806781D01*
X158733376Y-106783081D01*
X158732200Y-106759150D01*
X158732200Y-106270850D01*
X158733376Y-106246919D01*
X158736891Y-106223219D01*
X158742713Y-106199977D01*
X158750785Y-106177418D01*
X158761029Y-106155758D01*
X158773347Y-106135208D01*
X158787619Y-106115963D01*
X158803710Y-106098210D01*
X158821463Y-106082119D01*
X158840708Y-106067847D01*
X158861258Y-106055529D01*
X158882918Y-106045285D01*
X158905477Y-106037213D01*
X158928719Y-106031391D01*
X158952419Y-106027876D01*
X158976350Y-106026700D01*
X159539650Y-106026700D01*
X159563581Y-106027876D01*
X159563581Y-106027876D01*
G37*
D22*
X159258000Y-106515000D03*
D12*
G36*
X159563581Y-104452876D02*
G01*
X159587281Y-104456391D01*
X159610523Y-104462213D01*
X159633082Y-104470285D01*
X159654742Y-104480529D01*
X159675292Y-104492847D01*
X159694537Y-104507119D01*
X159712290Y-104523210D01*
X159728381Y-104540963D01*
X159742653Y-104560208D01*
X159754971Y-104580758D01*
X159765215Y-104602418D01*
X159773287Y-104624977D01*
X159779109Y-104648219D01*
X159782624Y-104671919D01*
X159783800Y-104695850D01*
X159783800Y-105184150D01*
X159782624Y-105208081D01*
X159779109Y-105231781D01*
X159773287Y-105255023D01*
X159765215Y-105277582D01*
X159754971Y-105299242D01*
X159742653Y-105319792D01*
X159728381Y-105339037D01*
X159712290Y-105356790D01*
X159694537Y-105372881D01*
X159675292Y-105387153D01*
X159654742Y-105399471D01*
X159633082Y-105409715D01*
X159610523Y-105417787D01*
X159587281Y-105423609D01*
X159563581Y-105427124D01*
X159539650Y-105428300D01*
X158976350Y-105428300D01*
X158952419Y-105427124D01*
X158928719Y-105423609D01*
X158905477Y-105417787D01*
X158882918Y-105409715D01*
X158861258Y-105399471D01*
X158840708Y-105387153D01*
X158821463Y-105372881D01*
X158803710Y-105356790D01*
X158787619Y-105339037D01*
X158773347Y-105319792D01*
X158761029Y-105299242D01*
X158750785Y-105277582D01*
X158742713Y-105255023D01*
X158736891Y-105231781D01*
X158733376Y-105208081D01*
X158732200Y-105184150D01*
X158732200Y-104695850D01*
X158733376Y-104671919D01*
X158736891Y-104648219D01*
X158742713Y-104624977D01*
X158750785Y-104602418D01*
X158761029Y-104580758D01*
X158773347Y-104560208D01*
X158787619Y-104540963D01*
X158803710Y-104523210D01*
X158821463Y-104507119D01*
X158840708Y-104492847D01*
X158861258Y-104480529D01*
X158882918Y-104470285D01*
X158905477Y-104462213D01*
X158928719Y-104456391D01*
X158952419Y-104452876D01*
X158976350Y-104451700D01*
X159539650Y-104451700D01*
X159563581Y-104452876D01*
X159563581Y-104452876D01*
G37*
D22*
X159258000Y-104940000D03*
D12*
G36*
X162790347Y-103071533D02*
G01*
X162807131Y-103074022D01*
X162823590Y-103078145D01*
X162839566Y-103083861D01*
X162854904Y-103091116D01*
X162869458Y-103099839D01*
X162883087Y-103109946D01*
X162895659Y-103121341D01*
X162907054Y-103133913D01*
X162917161Y-103147542D01*
X162925884Y-103162096D01*
X162933139Y-103177434D01*
X162938855Y-103193410D01*
X162942978Y-103209869D01*
X162945467Y-103226653D01*
X162946300Y-103243600D01*
X162946300Y-103639400D01*
X162945467Y-103656347D01*
X162942978Y-103673131D01*
X162938855Y-103689590D01*
X162933139Y-103705566D01*
X162925884Y-103720904D01*
X162917161Y-103735458D01*
X162907054Y-103749087D01*
X162895659Y-103761659D01*
X162883087Y-103773054D01*
X162869458Y-103783161D01*
X162854904Y-103791884D01*
X162839566Y-103799139D01*
X162823590Y-103804855D01*
X162807131Y-103808978D01*
X162790347Y-103811467D01*
X162773400Y-103812300D01*
X162427600Y-103812300D01*
X162410653Y-103811467D01*
X162393869Y-103808978D01*
X162377410Y-103804855D01*
X162361434Y-103799139D01*
X162346096Y-103791884D01*
X162331542Y-103783161D01*
X162317913Y-103773054D01*
X162305341Y-103761659D01*
X162293946Y-103749087D01*
X162283839Y-103735458D01*
X162275116Y-103720904D01*
X162267861Y-103705566D01*
X162262145Y-103689590D01*
X162258022Y-103673131D01*
X162255533Y-103656347D01*
X162254700Y-103639400D01*
X162254700Y-103243600D01*
X162255533Y-103226653D01*
X162258022Y-103209869D01*
X162262145Y-103193410D01*
X162267861Y-103177434D01*
X162275116Y-103162096D01*
X162283839Y-103147542D01*
X162293946Y-103133913D01*
X162305341Y-103121341D01*
X162317913Y-103109946D01*
X162331542Y-103099839D01*
X162346096Y-103091116D01*
X162361434Y-103083861D01*
X162377410Y-103078145D01*
X162393869Y-103074022D01*
X162410653Y-103071533D01*
X162427600Y-103070700D01*
X162773400Y-103070700D01*
X162790347Y-103071533D01*
X162790347Y-103071533D01*
G37*
D23*
X162600500Y-103441500D03*
D12*
G36*
X161820347Y-103071533D02*
G01*
X161837131Y-103074022D01*
X161853590Y-103078145D01*
X161869566Y-103083861D01*
X161884904Y-103091116D01*
X161899458Y-103099839D01*
X161913087Y-103109946D01*
X161925659Y-103121341D01*
X161937054Y-103133913D01*
X161947161Y-103147542D01*
X161955884Y-103162096D01*
X161963139Y-103177434D01*
X161968855Y-103193410D01*
X161972978Y-103209869D01*
X161975467Y-103226653D01*
X161976300Y-103243600D01*
X161976300Y-103639400D01*
X161975467Y-103656347D01*
X161972978Y-103673131D01*
X161968855Y-103689590D01*
X161963139Y-103705566D01*
X161955884Y-103720904D01*
X161947161Y-103735458D01*
X161937054Y-103749087D01*
X161925659Y-103761659D01*
X161913087Y-103773054D01*
X161899458Y-103783161D01*
X161884904Y-103791884D01*
X161869566Y-103799139D01*
X161853590Y-103804855D01*
X161837131Y-103808978D01*
X161820347Y-103811467D01*
X161803400Y-103812300D01*
X161457600Y-103812300D01*
X161440653Y-103811467D01*
X161423869Y-103808978D01*
X161407410Y-103804855D01*
X161391434Y-103799139D01*
X161376096Y-103791884D01*
X161361542Y-103783161D01*
X161347913Y-103773054D01*
X161335341Y-103761659D01*
X161323946Y-103749087D01*
X161313839Y-103735458D01*
X161305116Y-103720904D01*
X161297861Y-103705566D01*
X161292145Y-103689590D01*
X161288022Y-103673131D01*
X161285533Y-103656347D01*
X161284700Y-103639400D01*
X161284700Y-103243600D01*
X161285533Y-103226653D01*
X161288022Y-103209869D01*
X161292145Y-103193410D01*
X161297861Y-103177434D01*
X161305116Y-103162096D01*
X161313839Y-103147542D01*
X161323946Y-103133913D01*
X161335341Y-103121341D01*
X161347913Y-103109946D01*
X161361542Y-103099839D01*
X161376096Y-103091116D01*
X161391434Y-103083861D01*
X161407410Y-103078145D01*
X161423869Y-103074022D01*
X161440653Y-103071533D01*
X161457600Y-103070700D01*
X161803400Y-103070700D01*
X161820347Y-103071533D01*
X161820347Y-103071533D01*
G37*
D23*
X161630500Y-103441500D03*
D12*
G36*
X168741847Y-93864033D02*
G01*
X168758631Y-93866522D01*
X168775090Y-93870645D01*
X168791066Y-93876361D01*
X168806404Y-93883616D01*
X168820958Y-93892339D01*
X168834587Y-93902446D01*
X168847159Y-93913841D01*
X168858554Y-93926413D01*
X168868661Y-93940042D01*
X168877384Y-93954596D01*
X168884639Y-93969934D01*
X168890355Y-93985910D01*
X168894478Y-94002369D01*
X168896967Y-94019153D01*
X168897800Y-94036100D01*
X168897800Y-94431900D01*
X168896967Y-94448847D01*
X168894478Y-94465631D01*
X168890355Y-94482090D01*
X168884639Y-94498066D01*
X168877384Y-94513404D01*
X168868661Y-94527958D01*
X168858554Y-94541587D01*
X168847159Y-94554159D01*
X168834587Y-94565554D01*
X168820958Y-94575661D01*
X168806404Y-94584384D01*
X168791066Y-94591639D01*
X168775090Y-94597355D01*
X168758631Y-94601478D01*
X168741847Y-94603967D01*
X168724900Y-94604800D01*
X168379100Y-94604800D01*
X168362153Y-94603967D01*
X168345369Y-94601478D01*
X168328910Y-94597355D01*
X168312934Y-94591639D01*
X168297596Y-94584384D01*
X168283042Y-94575661D01*
X168269413Y-94565554D01*
X168256841Y-94554159D01*
X168245446Y-94541587D01*
X168235339Y-94527958D01*
X168226616Y-94513404D01*
X168219361Y-94498066D01*
X168213645Y-94482090D01*
X168209522Y-94465631D01*
X168207033Y-94448847D01*
X168206200Y-94431900D01*
X168206200Y-94036100D01*
X168207033Y-94019153D01*
X168209522Y-94002369D01*
X168213645Y-93985910D01*
X168219361Y-93969934D01*
X168226616Y-93954596D01*
X168235339Y-93940042D01*
X168245446Y-93926413D01*
X168256841Y-93913841D01*
X168269413Y-93902446D01*
X168283042Y-93892339D01*
X168297596Y-93883616D01*
X168312934Y-93876361D01*
X168328910Y-93870645D01*
X168345369Y-93866522D01*
X168362153Y-93864033D01*
X168379100Y-93863200D01*
X168724900Y-93863200D01*
X168741847Y-93864033D01*
X168741847Y-93864033D01*
G37*
D23*
X168552000Y-94234000D03*
D12*
G36*
X169711847Y-93864033D02*
G01*
X169728631Y-93866522D01*
X169745090Y-93870645D01*
X169761066Y-93876361D01*
X169776404Y-93883616D01*
X169790958Y-93892339D01*
X169804587Y-93902446D01*
X169817159Y-93913841D01*
X169828554Y-93926413D01*
X169838661Y-93940042D01*
X169847384Y-93954596D01*
X169854639Y-93969934D01*
X169860355Y-93985910D01*
X169864478Y-94002369D01*
X169866967Y-94019153D01*
X169867800Y-94036100D01*
X169867800Y-94431900D01*
X169866967Y-94448847D01*
X169864478Y-94465631D01*
X169860355Y-94482090D01*
X169854639Y-94498066D01*
X169847384Y-94513404D01*
X169838661Y-94527958D01*
X169828554Y-94541587D01*
X169817159Y-94554159D01*
X169804587Y-94565554D01*
X169790958Y-94575661D01*
X169776404Y-94584384D01*
X169761066Y-94591639D01*
X169745090Y-94597355D01*
X169728631Y-94601478D01*
X169711847Y-94603967D01*
X169694900Y-94604800D01*
X169349100Y-94604800D01*
X169332153Y-94603967D01*
X169315369Y-94601478D01*
X169298910Y-94597355D01*
X169282934Y-94591639D01*
X169267596Y-94584384D01*
X169253042Y-94575661D01*
X169239413Y-94565554D01*
X169226841Y-94554159D01*
X169215446Y-94541587D01*
X169205339Y-94527958D01*
X169196616Y-94513404D01*
X169189361Y-94498066D01*
X169183645Y-94482090D01*
X169179522Y-94465631D01*
X169177033Y-94448847D01*
X169176200Y-94431900D01*
X169176200Y-94036100D01*
X169177033Y-94019153D01*
X169179522Y-94002369D01*
X169183645Y-93985910D01*
X169189361Y-93969934D01*
X169196616Y-93954596D01*
X169205339Y-93940042D01*
X169215446Y-93926413D01*
X169226841Y-93913841D01*
X169239413Y-93902446D01*
X169253042Y-93892339D01*
X169267596Y-93883616D01*
X169282934Y-93876361D01*
X169298910Y-93870645D01*
X169315369Y-93866522D01*
X169332153Y-93864033D01*
X169349100Y-93863200D01*
X169694900Y-93863200D01*
X169711847Y-93864033D01*
X169711847Y-93864033D01*
G37*
D23*
X169522000Y-94234000D03*
D12*
G36*
X166267347Y-97277533D02*
G01*
X166284131Y-97280022D01*
X166300590Y-97284145D01*
X166316566Y-97289861D01*
X166331904Y-97297116D01*
X166346458Y-97305839D01*
X166360087Y-97315946D01*
X166372659Y-97327341D01*
X166384054Y-97339913D01*
X166394161Y-97353542D01*
X166402884Y-97368096D01*
X166410139Y-97383434D01*
X166415855Y-97399410D01*
X166419978Y-97415869D01*
X166422467Y-97432653D01*
X166423300Y-97449600D01*
X166423300Y-97795400D01*
X166422467Y-97812347D01*
X166419978Y-97829131D01*
X166415855Y-97845590D01*
X166410139Y-97861566D01*
X166402884Y-97876904D01*
X166394161Y-97891458D01*
X166384054Y-97905087D01*
X166372659Y-97917659D01*
X166360087Y-97929054D01*
X166346458Y-97939161D01*
X166331904Y-97947884D01*
X166316566Y-97955139D01*
X166300590Y-97960855D01*
X166284131Y-97964978D01*
X166267347Y-97967467D01*
X166250400Y-97968300D01*
X165854600Y-97968300D01*
X165837653Y-97967467D01*
X165820869Y-97964978D01*
X165804410Y-97960855D01*
X165788434Y-97955139D01*
X165773096Y-97947884D01*
X165758542Y-97939161D01*
X165744913Y-97929054D01*
X165732341Y-97917659D01*
X165720946Y-97905087D01*
X165710839Y-97891458D01*
X165702116Y-97876904D01*
X165694861Y-97861566D01*
X165689145Y-97845590D01*
X165685022Y-97829131D01*
X165682533Y-97812347D01*
X165681700Y-97795400D01*
X165681700Y-97449600D01*
X165682533Y-97432653D01*
X165685022Y-97415869D01*
X165689145Y-97399410D01*
X165694861Y-97383434D01*
X165702116Y-97368096D01*
X165710839Y-97353542D01*
X165720946Y-97339913D01*
X165732341Y-97327341D01*
X165744913Y-97315946D01*
X165758542Y-97305839D01*
X165773096Y-97297116D01*
X165788434Y-97289861D01*
X165804410Y-97284145D01*
X165820869Y-97280022D01*
X165837653Y-97277533D01*
X165854600Y-97276700D01*
X166250400Y-97276700D01*
X166267347Y-97277533D01*
X166267347Y-97277533D01*
G37*
D23*
X166052500Y-97622500D03*
D12*
G36*
X166267347Y-98247533D02*
G01*
X166284131Y-98250022D01*
X166300590Y-98254145D01*
X166316566Y-98259861D01*
X166331904Y-98267116D01*
X166346458Y-98275839D01*
X166360087Y-98285946D01*
X166372659Y-98297341D01*
X166384054Y-98309913D01*
X166394161Y-98323542D01*
X166402884Y-98338096D01*
X166410139Y-98353434D01*
X166415855Y-98369410D01*
X166419978Y-98385869D01*
X166422467Y-98402653D01*
X166423300Y-98419600D01*
X166423300Y-98765400D01*
X166422467Y-98782347D01*
X166419978Y-98799131D01*
X166415855Y-98815590D01*
X166410139Y-98831566D01*
X166402884Y-98846904D01*
X166394161Y-98861458D01*
X166384054Y-98875087D01*
X166372659Y-98887659D01*
X166360087Y-98899054D01*
X166346458Y-98909161D01*
X166331904Y-98917884D01*
X166316566Y-98925139D01*
X166300590Y-98930855D01*
X166284131Y-98934978D01*
X166267347Y-98937467D01*
X166250400Y-98938300D01*
X165854600Y-98938300D01*
X165837653Y-98937467D01*
X165820869Y-98934978D01*
X165804410Y-98930855D01*
X165788434Y-98925139D01*
X165773096Y-98917884D01*
X165758542Y-98909161D01*
X165744913Y-98899054D01*
X165732341Y-98887659D01*
X165720946Y-98875087D01*
X165710839Y-98861458D01*
X165702116Y-98846904D01*
X165694861Y-98831566D01*
X165689145Y-98815590D01*
X165685022Y-98799131D01*
X165682533Y-98782347D01*
X165681700Y-98765400D01*
X165681700Y-98419600D01*
X165682533Y-98402653D01*
X165685022Y-98385869D01*
X165689145Y-98369410D01*
X165694861Y-98353434D01*
X165702116Y-98338096D01*
X165710839Y-98323542D01*
X165720946Y-98309913D01*
X165732341Y-98297341D01*
X165744913Y-98285946D01*
X165758542Y-98275839D01*
X165773096Y-98267116D01*
X165788434Y-98259861D01*
X165804410Y-98254145D01*
X165820869Y-98250022D01*
X165837653Y-98247533D01*
X165854600Y-98246700D01*
X166250400Y-98246700D01*
X166267347Y-98247533D01*
X166267347Y-98247533D01*
G37*
D23*
X166052500Y-98592500D03*
D12*
G36*
X168807347Y-97277533D02*
G01*
X168824131Y-97280022D01*
X168840590Y-97284145D01*
X168856566Y-97289861D01*
X168871904Y-97297116D01*
X168886458Y-97305839D01*
X168900087Y-97315946D01*
X168912659Y-97327341D01*
X168924054Y-97339913D01*
X168934161Y-97353542D01*
X168942884Y-97368096D01*
X168950139Y-97383434D01*
X168955855Y-97399410D01*
X168959978Y-97415869D01*
X168962467Y-97432653D01*
X168963300Y-97449600D01*
X168963300Y-97795400D01*
X168962467Y-97812347D01*
X168959978Y-97829131D01*
X168955855Y-97845590D01*
X168950139Y-97861566D01*
X168942884Y-97876904D01*
X168934161Y-97891458D01*
X168924054Y-97905087D01*
X168912659Y-97917659D01*
X168900087Y-97929054D01*
X168886458Y-97939161D01*
X168871904Y-97947884D01*
X168856566Y-97955139D01*
X168840590Y-97960855D01*
X168824131Y-97964978D01*
X168807347Y-97967467D01*
X168790400Y-97968300D01*
X168394600Y-97968300D01*
X168377653Y-97967467D01*
X168360869Y-97964978D01*
X168344410Y-97960855D01*
X168328434Y-97955139D01*
X168313096Y-97947884D01*
X168298542Y-97939161D01*
X168284913Y-97929054D01*
X168272341Y-97917659D01*
X168260946Y-97905087D01*
X168250839Y-97891458D01*
X168242116Y-97876904D01*
X168234861Y-97861566D01*
X168229145Y-97845590D01*
X168225022Y-97829131D01*
X168222533Y-97812347D01*
X168221700Y-97795400D01*
X168221700Y-97449600D01*
X168222533Y-97432653D01*
X168225022Y-97415869D01*
X168229145Y-97399410D01*
X168234861Y-97383434D01*
X168242116Y-97368096D01*
X168250839Y-97353542D01*
X168260946Y-97339913D01*
X168272341Y-97327341D01*
X168284913Y-97315946D01*
X168298542Y-97305839D01*
X168313096Y-97297116D01*
X168328434Y-97289861D01*
X168344410Y-97284145D01*
X168360869Y-97280022D01*
X168377653Y-97277533D01*
X168394600Y-97276700D01*
X168790400Y-97276700D01*
X168807347Y-97277533D01*
X168807347Y-97277533D01*
G37*
D23*
X168592500Y-97622500D03*
D12*
G36*
X168807347Y-98247533D02*
G01*
X168824131Y-98250022D01*
X168840590Y-98254145D01*
X168856566Y-98259861D01*
X168871904Y-98267116D01*
X168886458Y-98275839D01*
X168900087Y-98285946D01*
X168912659Y-98297341D01*
X168924054Y-98309913D01*
X168934161Y-98323542D01*
X168942884Y-98338096D01*
X168950139Y-98353434D01*
X168955855Y-98369410D01*
X168959978Y-98385869D01*
X168962467Y-98402653D01*
X168963300Y-98419600D01*
X168963300Y-98765400D01*
X168962467Y-98782347D01*
X168959978Y-98799131D01*
X168955855Y-98815590D01*
X168950139Y-98831566D01*
X168942884Y-98846904D01*
X168934161Y-98861458D01*
X168924054Y-98875087D01*
X168912659Y-98887659D01*
X168900087Y-98899054D01*
X168886458Y-98909161D01*
X168871904Y-98917884D01*
X168856566Y-98925139D01*
X168840590Y-98930855D01*
X168824131Y-98934978D01*
X168807347Y-98937467D01*
X168790400Y-98938300D01*
X168394600Y-98938300D01*
X168377653Y-98937467D01*
X168360869Y-98934978D01*
X168344410Y-98930855D01*
X168328434Y-98925139D01*
X168313096Y-98917884D01*
X168298542Y-98909161D01*
X168284913Y-98899054D01*
X168272341Y-98887659D01*
X168260946Y-98875087D01*
X168250839Y-98861458D01*
X168242116Y-98846904D01*
X168234861Y-98831566D01*
X168229145Y-98815590D01*
X168225022Y-98799131D01*
X168222533Y-98782347D01*
X168221700Y-98765400D01*
X168221700Y-98419600D01*
X168222533Y-98402653D01*
X168225022Y-98385869D01*
X168229145Y-98369410D01*
X168234861Y-98353434D01*
X168242116Y-98338096D01*
X168250839Y-98323542D01*
X168260946Y-98309913D01*
X168272341Y-98297341D01*
X168284913Y-98285946D01*
X168298542Y-98275839D01*
X168313096Y-98267116D01*
X168328434Y-98259861D01*
X168344410Y-98254145D01*
X168360869Y-98250022D01*
X168377653Y-98247533D01*
X168394600Y-98246700D01*
X168790400Y-98246700D01*
X168807347Y-98247533D01*
X168807347Y-98247533D01*
G37*
D23*
X168592500Y-98592500D03*
D12*
G36*
X167537347Y-97277533D02*
G01*
X167554131Y-97280022D01*
X167570590Y-97284145D01*
X167586566Y-97289861D01*
X167601904Y-97297116D01*
X167616458Y-97305839D01*
X167630087Y-97315946D01*
X167642659Y-97327341D01*
X167654054Y-97339913D01*
X167664161Y-97353542D01*
X167672884Y-97368096D01*
X167680139Y-97383434D01*
X167685855Y-97399410D01*
X167689978Y-97415869D01*
X167692467Y-97432653D01*
X167693300Y-97449600D01*
X167693300Y-97795400D01*
X167692467Y-97812347D01*
X167689978Y-97829131D01*
X167685855Y-97845590D01*
X167680139Y-97861566D01*
X167672884Y-97876904D01*
X167664161Y-97891458D01*
X167654054Y-97905087D01*
X167642659Y-97917659D01*
X167630087Y-97929054D01*
X167616458Y-97939161D01*
X167601904Y-97947884D01*
X167586566Y-97955139D01*
X167570590Y-97960855D01*
X167554131Y-97964978D01*
X167537347Y-97967467D01*
X167520400Y-97968300D01*
X167124600Y-97968300D01*
X167107653Y-97967467D01*
X167090869Y-97964978D01*
X167074410Y-97960855D01*
X167058434Y-97955139D01*
X167043096Y-97947884D01*
X167028542Y-97939161D01*
X167014913Y-97929054D01*
X167002341Y-97917659D01*
X166990946Y-97905087D01*
X166980839Y-97891458D01*
X166972116Y-97876904D01*
X166964861Y-97861566D01*
X166959145Y-97845590D01*
X166955022Y-97829131D01*
X166952533Y-97812347D01*
X166951700Y-97795400D01*
X166951700Y-97449600D01*
X166952533Y-97432653D01*
X166955022Y-97415869D01*
X166959145Y-97399410D01*
X166964861Y-97383434D01*
X166972116Y-97368096D01*
X166980839Y-97353542D01*
X166990946Y-97339913D01*
X167002341Y-97327341D01*
X167014913Y-97315946D01*
X167028542Y-97305839D01*
X167043096Y-97297116D01*
X167058434Y-97289861D01*
X167074410Y-97284145D01*
X167090869Y-97280022D01*
X167107653Y-97277533D01*
X167124600Y-97276700D01*
X167520400Y-97276700D01*
X167537347Y-97277533D01*
X167537347Y-97277533D01*
G37*
D23*
X167322500Y-97622500D03*
D12*
G36*
X167537347Y-98247533D02*
G01*
X167554131Y-98250022D01*
X167570590Y-98254145D01*
X167586566Y-98259861D01*
X167601904Y-98267116D01*
X167616458Y-98275839D01*
X167630087Y-98285946D01*
X167642659Y-98297341D01*
X167654054Y-98309913D01*
X167664161Y-98323542D01*
X167672884Y-98338096D01*
X167680139Y-98353434D01*
X167685855Y-98369410D01*
X167689978Y-98385869D01*
X167692467Y-98402653D01*
X167693300Y-98419600D01*
X167693300Y-98765400D01*
X167692467Y-98782347D01*
X167689978Y-98799131D01*
X167685855Y-98815590D01*
X167680139Y-98831566D01*
X167672884Y-98846904D01*
X167664161Y-98861458D01*
X167654054Y-98875087D01*
X167642659Y-98887659D01*
X167630087Y-98899054D01*
X167616458Y-98909161D01*
X167601904Y-98917884D01*
X167586566Y-98925139D01*
X167570590Y-98930855D01*
X167554131Y-98934978D01*
X167537347Y-98937467D01*
X167520400Y-98938300D01*
X167124600Y-98938300D01*
X167107653Y-98937467D01*
X167090869Y-98934978D01*
X167074410Y-98930855D01*
X167058434Y-98925139D01*
X167043096Y-98917884D01*
X167028542Y-98909161D01*
X167014913Y-98899054D01*
X167002341Y-98887659D01*
X166990946Y-98875087D01*
X166980839Y-98861458D01*
X166972116Y-98846904D01*
X166964861Y-98831566D01*
X166959145Y-98815590D01*
X166955022Y-98799131D01*
X166952533Y-98782347D01*
X166951700Y-98765400D01*
X166951700Y-98419600D01*
X166952533Y-98402653D01*
X166955022Y-98385869D01*
X166959145Y-98369410D01*
X166964861Y-98353434D01*
X166972116Y-98338096D01*
X166980839Y-98323542D01*
X166990946Y-98309913D01*
X167002341Y-98297341D01*
X167014913Y-98285946D01*
X167028542Y-98275839D01*
X167043096Y-98267116D01*
X167058434Y-98259861D01*
X167074410Y-98254145D01*
X167090869Y-98250022D01*
X167107653Y-98247533D01*
X167124600Y-98246700D01*
X167520400Y-98246700D01*
X167537347Y-98247533D01*
X167537347Y-98247533D01*
G37*
D23*
X167322500Y-98592500D03*
D12*
G36*
X168807347Y-94991533D02*
G01*
X168824131Y-94994022D01*
X168840590Y-94998145D01*
X168856566Y-95003861D01*
X168871904Y-95011116D01*
X168886458Y-95019839D01*
X168900087Y-95029946D01*
X168912659Y-95041341D01*
X168924054Y-95053913D01*
X168934161Y-95067542D01*
X168942884Y-95082096D01*
X168950139Y-95097434D01*
X168955855Y-95113410D01*
X168959978Y-95129869D01*
X168962467Y-95146653D01*
X168963300Y-95163600D01*
X168963300Y-95509400D01*
X168962467Y-95526347D01*
X168959978Y-95543131D01*
X168955855Y-95559590D01*
X168950139Y-95575566D01*
X168942884Y-95590904D01*
X168934161Y-95605458D01*
X168924054Y-95619087D01*
X168912659Y-95631659D01*
X168900087Y-95643054D01*
X168886458Y-95653161D01*
X168871904Y-95661884D01*
X168856566Y-95669139D01*
X168840590Y-95674855D01*
X168824131Y-95678978D01*
X168807347Y-95681467D01*
X168790400Y-95682300D01*
X168394600Y-95682300D01*
X168377653Y-95681467D01*
X168360869Y-95678978D01*
X168344410Y-95674855D01*
X168328434Y-95669139D01*
X168313096Y-95661884D01*
X168298542Y-95653161D01*
X168284913Y-95643054D01*
X168272341Y-95631659D01*
X168260946Y-95619087D01*
X168250839Y-95605458D01*
X168242116Y-95590904D01*
X168234861Y-95575566D01*
X168229145Y-95559590D01*
X168225022Y-95543131D01*
X168222533Y-95526347D01*
X168221700Y-95509400D01*
X168221700Y-95163600D01*
X168222533Y-95146653D01*
X168225022Y-95129869D01*
X168229145Y-95113410D01*
X168234861Y-95097434D01*
X168242116Y-95082096D01*
X168250839Y-95067542D01*
X168260946Y-95053913D01*
X168272341Y-95041341D01*
X168284913Y-95029946D01*
X168298542Y-95019839D01*
X168313096Y-95011116D01*
X168328434Y-95003861D01*
X168344410Y-94998145D01*
X168360869Y-94994022D01*
X168377653Y-94991533D01*
X168394600Y-94990700D01*
X168790400Y-94990700D01*
X168807347Y-94991533D01*
X168807347Y-94991533D01*
G37*
D23*
X168592500Y-95336500D03*
D12*
G36*
X168807347Y-95961533D02*
G01*
X168824131Y-95964022D01*
X168840590Y-95968145D01*
X168856566Y-95973861D01*
X168871904Y-95981116D01*
X168886458Y-95989839D01*
X168900087Y-95999946D01*
X168912659Y-96011341D01*
X168924054Y-96023913D01*
X168934161Y-96037542D01*
X168942884Y-96052096D01*
X168950139Y-96067434D01*
X168955855Y-96083410D01*
X168959978Y-96099869D01*
X168962467Y-96116653D01*
X168963300Y-96133600D01*
X168963300Y-96479400D01*
X168962467Y-96496347D01*
X168959978Y-96513131D01*
X168955855Y-96529590D01*
X168950139Y-96545566D01*
X168942884Y-96560904D01*
X168934161Y-96575458D01*
X168924054Y-96589087D01*
X168912659Y-96601659D01*
X168900087Y-96613054D01*
X168886458Y-96623161D01*
X168871904Y-96631884D01*
X168856566Y-96639139D01*
X168840590Y-96644855D01*
X168824131Y-96648978D01*
X168807347Y-96651467D01*
X168790400Y-96652300D01*
X168394600Y-96652300D01*
X168377653Y-96651467D01*
X168360869Y-96648978D01*
X168344410Y-96644855D01*
X168328434Y-96639139D01*
X168313096Y-96631884D01*
X168298542Y-96623161D01*
X168284913Y-96613054D01*
X168272341Y-96601659D01*
X168260946Y-96589087D01*
X168250839Y-96575458D01*
X168242116Y-96560904D01*
X168234861Y-96545566D01*
X168229145Y-96529590D01*
X168225022Y-96513131D01*
X168222533Y-96496347D01*
X168221700Y-96479400D01*
X168221700Y-96133600D01*
X168222533Y-96116653D01*
X168225022Y-96099869D01*
X168229145Y-96083410D01*
X168234861Y-96067434D01*
X168242116Y-96052096D01*
X168250839Y-96037542D01*
X168260946Y-96023913D01*
X168272341Y-96011341D01*
X168284913Y-95999946D01*
X168298542Y-95989839D01*
X168313096Y-95981116D01*
X168328434Y-95973861D01*
X168344410Y-95968145D01*
X168360869Y-95964022D01*
X168377653Y-95961533D01*
X168394600Y-95960700D01*
X168790400Y-95960700D01*
X168807347Y-95961533D01*
X168807347Y-95961533D01*
G37*
D23*
X168592500Y-96306500D03*
D12*
G36*
X165759347Y-89848033D02*
G01*
X165776131Y-89850522D01*
X165792590Y-89854645D01*
X165808566Y-89860361D01*
X165823904Y-89867616D01*
X165838458Y-89876339D01*
X165852087Y-89886446D01*
X165864659Y-89897841D01*
X165876054Y-89910413D01*
X165886161Y-89924042D01*
X165894884Y-89938596D01*
X165902139Y-89953934D01*
X165907855Y-89969910D01*
X165911978Y-89986369D01*
X165914467Y-90003153D01*
X165915300Y-90020100D01*
X165915300Y-90365900D01*
X165914467Y-90382847D01*
X165911978Y-90399631D01*
X165907855Y-90416090D01*
X165902139Y-90432066D01*
X165894884Y-90447404D01*
X165886161Y-90461958D01*
X165876054Y-90475587D01*
X165864659Y-90488159D01*
X165852087Y-90499554D01*
X165838458Y-90509661D01*
X165823904Y-90518384D01*
X165808566Y-90525639D01*
X165792590Y-90531355D01*
X165776131Y-90535478D01*
X165759347Y-90537967D01*
X165742400Y-90538800D01*
X165346600Y-90538800D01*
X165329653Y-90537967D01*
X165312869Y-90535478D01*
X165296410Y-90531355D01*
X165280434Y-90525639D01*
X165265096Y-90518384D01*
X165250542Y-90509661D01*
X165236913Y-90499554D01*
X165224341Y-90488159D01*
X165212946Y-90475587D01*
X165202839Y-90461958D01*
X165194116Y-90447404D01*
X165186861Y-90432066D01*
X165181145Y-90416090D01*
X165177022Y-90399631D01*
X165174533Y-90382847D01*
X165173700Y-90365900D01*
X165173700Y-90020100D01*
X165174533Y-90003153D01*
X165177022Y-89986369D01*
X165181145Y-89969910D01*
X165186861Y-89953934D01*
X165194116Y-89938596D01*
X165202839Y-89924042D01*
X165212946Y-89910413D01*
X165224341Y-89897841D01*
X165236913Y-89886446D01*
X165250542Y-89876339D01*
X165265096Y-89867616D01*
X165280434Y-89860361D01*
X165296410Y-89854645D01*
X165312869Y-89850522D01*
X165329653Y-89848033D01*
X165346600Y-89847200D01*
X165742400Y-89847200D01*
X165759347Y-89848033D01*
X165759347Y-89848033D01*
G37*
D23*
X165544500Y-90193000D03*
D12*
G36*
X165759347Y-90818033D02*
G01*
X165776131Y-90820522D01*
X165792590Y-90824645D01*
X165808566Y-90830361D01*
X165823904Y-90837616D01*
X165838458Y-90846339D01*
X165852087Y-90856446D01*
X165864659Y-90867841D01*
X165876054Y-90880413D01*
X165886161Y-90894042D01*
X165894884Y-90908596D01*
X165902139Y-90923934D01*
X165907855Y-90939910D01*
X165911978Y-90956369D01*
X165914467Y-90973153D01*
X165915300Y-90990100D01*
X165915300Y-91335900D01*
X165914467Y-91352847D01*
X165911978Y-91369631D01*
X165907855Y-91386090D01*
X165902139Y-91402066D01*
X165894884Y-91417404D01*
X165886161Y-91431958D01*
X165876054Y-91445587D01*
X165864659Y-91458159D01*
X165852087Y-91469554D01*
X165838458Y-91479661D01*
X165823904Y-91488384D01*
X165808566Y-91495639D01*
X165792590Y-91501355D01*
X165776131Y-91505478D01*
X165759347Y-91507967D01*
X165742400Y-91508800D01*
X165346600Y-91508800D01*
X165329653Y-91507967D01*
X165312869Y-91505478D01*
X165296410Y-91501355D01*
X165280434Y-91495639D01*
X165265096Y-91488384D01*
X165250542Y-91479661D01*
X165236913Y-91469554D01*
X165224341Y-91458159D01*
X165212946Y-91445587D01*
X165202839Y-91431958D01*
X165194116Y-91417404D01*
X165186861Y-91402066D01*
X165181145Y-91386090D01*
X165177022Y-91369631D01*
X165174533Y-91352847D01*
X165173700Y-91335900D01*
X165173700Y-90990100D01*
X165174533Y-90973153D01*
X165177022Y-90956369D01*
X165181145Y-90939910D01*
X165186861Y-90923934D01*
X165194116Y-90908596D01*
X165202839Y-90894042D01*
X165212946Y-90880413D01*
X165224341Y-90867841D01*
X165236913Y-90856446D01*
X165250542Y-90846339D01*
X165265096Y-90837616D01*
X165280434Y-90830361D01*
X165296410Y-90824645D01*
X165312869Y-90820522D01*
X165329653Y-90818033D01*
X165346600Y-90817200D01*
X165742400Y-90817200D01*
X165759347Y-90818033D01*
X165759347Y-90818033D01*
G37*
D23*
X165544500Y-91163000D03*
D12*
G36*
X156932847Y-89611533D02*
G01*
X156949631Y-89614022D01*
X156966090Y-89618145D01*
X156982066Y-89623861D01*
X156997404Y-89631116D01*
X157011958Y-89639839D01*
X157025587Y-89649946D01*
X157038159Y-89661341D01*
X157049554Y-89673913D01*
X157059661Y-89687542D01*
X157068384Y-89702096D01*
X157075639Y-89717434D01*
X157081355Y-89733410D01*
X157085478Y-89749869D01*
X157087967Y-89766653D01*
X157088800Y-89783600D01*
X157088800Y-90129400D01*
X157087967Y-90146347D01*
X157085478Y-90163131D01*
X157081355Y-90179590D01*
X157075639Y-90195566D01*
X157068384Y-90210904D01*
X157059661Y-90225458D01*
X157049554Y-90239087D01*
X157038159Y-90251659D01*
X157025587Y-90263054D01*
X157011958Y-90273161D01*
X156997404Y-90281884D01*
X156982066Y-90289139D01*
X156966090Y-90294855D01*
X156949631Y-90298978D01*
X156932847Y-90301467D01*
X156915900Y-90302300D01*
X156520100Y-90302300D01*
X156503153Y-90301467D01*
X156486369Y-90298978D01*
X156469910Y-90294855D01*
X156453934Y-90289139D01*
X156438596Y-90281884D01*
X156424042Y-90273161D01*
X156410413Y-90263054D01*
X156397841Y-90251659D01*
X156386446Y-90239087D01*
X156376339Y-90225458D01*
X156367616Y-90210904D01*
X156360361Y-90195566D01*
X156354645Y-90179590D01*
X156350522Y-90163131D01*
X156348033Y-90146347D01*
X156347200Y-90129400D01*
X156347200Y-89783600D01*
X156348033Y-89766653D01*
X156350522Y-89749869D01*
X156354645Y-89733410D01*
X156360361Y-89717434D01*
X156367616Y-89702096D01*
X156376339Y-89687542D01*
X156386446Y-89673913D01*
X156397841Y-89661341D01*
X156410413Y-89649946D01*
X156424042Y-89639839D01*
X156438596Y-89631116D01*
X156453934Y-89623861D01*
X156469910Y-89618145D01*
X156486369Y-89614022D01*
X156503153Y-89611533D01*
X156520100Y-89610700D01*
X156915900Y-89610700D01*
X156932847Y-89611533D01*
X156932847Y-89611533D01*
G37*
D23*
X156718000Y-89956500D03*
D12*
G36*
X156932847Y-88641533D02*
G01*
X156949631Y-88644022D01*
X156966090Y-88648145D01*
X156982066Y-88653861D01*
X156997404Y-88661116D01*
X157011958Y-88669839D01*
X157025587Y-88679946D01*
X157038159Y-88691341D01*
X157049554Y-88703913D01*
X157059661Y-88717542D01*
X157068384Y-88732096D01*
X157075639Y-88747434D01*
X157081355Y-88763410D01*
X157085478Y-88779869D01*
X157087967Y-88796653D01*
X157088800Y-88813600D01*
X157088800Y-89159400D01*
X157087967Y-89176347D01*
X157085478Y-89193131D01*
X157081355Y-89209590D01*
X157075639Y-89225566D01*
X157068384Y-89240904D01*
X157059661Y-89255458D01*
X157049554Y-89269087D01*
X157038159Y-89281659D01*
X157025587Y-89293054D01*
X157011958Y-89303161D01*
X156997404Y-89311884D01*
X156982066Y-89319139D01*
X156966090Y-89324855D01*
X156949631Y-89328978D01*
X156932847Y-89331467D01*
X156915900Y-89332300D01*
X156520100Y-89332300D01*
X156503153Y-89331467D01*
X156486369Y-89328978D01*
X156469910Y-89324855D01*
X156453934Y-89319139D01*
X156438596Y-89311884D01*
X156424042Y-89303161D01*
X156410413Y-89293054D01*
X156397841Y-89281659D01*
X156386446Y-89269087D01*
X156376339Y-89255458D01*
X156367616Y-89240904D01*
X156360361Y-89225566D01*
X156354645Y-89209590D01*
X156350522Y-89193131D01*
X156348033Y-89176347D01*
X156347200Y-89159400D01*
X156347200Y-88813600D01*
X156348033Y-88796653D01*
X156350522Y-88779869D01*
X156354645Y-88763410D01*
X156360361Y-88747434D01*
X156367616Y-88732096D01*
X156376339Y-88717542D01*
X156386446Y-88703913D01*
X156397841Y-88691341D01*
X156410413Y-88679946D01*
X156424042Y-88669839D01*
X156438596Y-88661116D01*
X156453934Y-88653861D01*
X156469910Y-88648145D01*
X156486369Y-88644022D01*
X156503153Y-88641533D01*
X156520100Y-88640700D01*
X156915900Y-88640700D01*
X156932847Y-88641533D01*
X156932847Y-88641533D01*
G37*
D23*
X156718000Y-88986500D03*
D12*
G36*
X168995847Y-100849033D02*
G01*
X169012631Y-100851522D01*
X169029090Y-100855645D01*
X169045066Y-100861361D01*
X169060404Y-100868616D01*
X169074958Y-100877339D01*
X169088587Y-100887446D01*
X169101159Y-100898841D01*
X169112554Y-100911413D01*
X169122661Y-100925042D01*
X169131384Y-100939596D01*
X169138639Y-100954934D01*
X169144355Y-100970910D01*
X169148478Y-100987369D01*
X169150967Y-101004153D01*
X169151800Y-101021100D01*
X169151800Y-101416900D01*
X169150967Y-101433847D01*
X169148478Y-101450631D01*
X169144355Y-101467090D01*
X169138639Y-101483066D01*
X169131384Y-101498404D01*
X169122661Y-101512958D01*
X169112554Y-101526587D01*
X169101159Y-101539159D01*
X169088587Y-101550554D01*
X169074958Y-101560661D01*
X169060404Y-101569384D01*
X169045066Y-101576639D01*
X169029090Y-101582355D01*
X169012631Y-101586478D01*
X168995847Y-101588967D01*
X168978900Y-101589800D01*
X168633100Y-101589800D01*
X168616153Y-101588967D01*
X168599369Y-101586478D01*
X168582910Y-101582355D01*
X168566934Y-101576639D01*
X168551596Y-101569384D01*
X168537042Y-101560661D01*
X168523413Y-101550554D01*
X168510841Y-101539159D01*
X168499446Y-101526587D01*
X168489339Y-101512958D01*
X168480616Y-101498404D01*
X168473361Y-101483066D01*
X168467645Y-101467090D01*
X168463522Y-101450631D01*
X168461033Y-101433847D01*
X168460200Y-101416900D01*
X168460200Y-101021100D01*
X168461033Y-101004153D01*
X168463522Y-100987369D01*
X168467645Y-100970910D01*
X168473361Y-100954934D01*
X168480616Y-100939596D01*
X168489339Y-100925042D01*
X168499446Y-100911413D01*
X168510841Y-100898841D01*
X168523413Y-100887446D01*
X168537042Y-100877339D01*
X168551596Y-100868616D01*
X168566934Y-100861361D01*
X168582910Y-100855645D01*
X168599369Y-100851522D01*
X168616153Y-100849033D01*
X168633100Y-100848200D01*
X168978900Y-100848200D01*
X168995847Y-100849033D01*
X168995847Y-100849033D01*
G37*
D23*
X168806000Y-101219000D03*
D12*
G36*
X169965847Y-100849033D02*
G01*
X169982631Y-100851522D01*
X169999090Y-100855645D01*
X170015066Y-100861361D01*
X170030404Y-100868616D01*
X170044958Y-100877339D01*
X170058587Y-100887446D01*
X170071159Y-100898841D01*
X170082554Y-100911413D01*
X170092661Y-100925042D01*
X170101384Y-100939596D01*
X170108639Y-100954934D01*
X170114355Y-100970910D01*
X170118478Y-100987369D01*
X170120967Y-101004153D01*
X170121800Y-101021100D01*
X170121800Y-101416900D01*
X170120967Y-101433847D01*
X170118478Y-101450631D01*
X170114355Y-101467090D01*
X170108639Y-101483066D01*
X170101384Y-101498404D01*
X170092661Y-101512958D01*
X170082554Y-101526587D01*
X170071159Y-101539159D01*
X170058587Y-101550554D01*
X170044958Y-101560661D01*
X170030404Y-101569384D01*
X170015066Y-101576639D01*
X169999090Y-101582355D01*
X169982631Y-101586478D01*
X169965847Y-101588967D01*
X169948900Y-101589800D01*
X169603100Y-101589800D01*
X169586153Y-101588967D01*
X169569369Y-101586478D01*
X169552910Y-101582355D01*
X169536934Y-101576639D01*
X169521596Y-101569384D01*
X169507042Y-101560661D01*
X169493413Y-101550554D01*
X169480841Y-101539159D01*
X169469446Y-101526587D01*
X169459339Y-101512958D01*
X169450616Y-101498404D01*
X169443361Y-101483066D01*
X169437645Y-101467090D01*
X169433522Y-101450631D01*
X169431033Y-101433847D01*
X169430200Y-101416900D01*
X169430200Y-101021100D01*
X169431033Y-101004153D01*
X169433522Y-100987369D01*
X169437645Y-100970910D01*
X169443361Y-100954934D01*
X169450616Y-100939596D01*
X169459339Y-100925042D01*
X169469446Y-100911413D01*
X169480841Y-100898841D01*
X169493413Y-100887446D01*
X169507042Y-100877339D01*
X169521596Y-100868616D01*
X169536934Y-100861361D01*
X169552910Y-100855645D01*
X169569369Y-100851522D01*
X169586153Y-100849033D01*
X169603100Y-100848200D01*
X169948900Y-100848200D01*
X169965847Y-100849033D01*
X169965847Y-100849033D01*
G37*
D23*
X169776000Y-101219000D03*
D12*
G36*
X168551347Y-101992033D02*
G01*
X168568131Y-101994522D01*
X168584590Y-101998645D01*
X168600566Y-102004361D01*
X168615904Y-102011616D01*
X168630458Y-102020339D01*
X168644087Y-102030446D01*
X168656659Y-102041841D01*
X168668054Y-102054413D01*
X168678161Y-102068042D01*
X168686884Y-102082596D01*
X168694139Y-102097934D01*
X168699855Y-102113910D01*
X168703978Y-102130369D01*
X168706467Y-102147153D01*
X168707300Y-102164100D01*
X168707300Y-102559900D01*
X168706467Y-102576847D01*
X168703978Y-102593631D01*
X168699855Y-102610090D01*
X168694139Y-102626066D01*
X168686884Y-102641404D01*
X168678161Y-102655958D01*
X168668054Y-102669587D01*
X168656659Y-102682159D01*
X168644087Y-102693554D01*
X168630458Y-102703661D01*
X168615904Y-102712384D01*
X168600566Y-102719639D01*
X168584590Y-102725355D01*
X168568131Y-102729478D01*
X168551347Y-102731967D01*
X168534400Y-102732800D01*
X168188600Y-102732800D01*
X168171653Y-102731967D01*
X168154869Y-102729478D01*
X168138410Y-102725355D01*
X168122434Y-102719639D01*
X168107096Y-102712384D01*
X168092542Y-102703661D01*
X168078913Y-102693554D01*
X168066341Y-102682159D01*
X168054946Y-102669587D01*
X168044839Y-102655958D01*
X168036116Y-102641404D01*
X168028861Y-102626066D01*
X168023145Y-102610090D01*
X168019022Y-102593631D01*
X168016533Y-102576847D01*
X168015700Y-102559900D01*
X168015700Y-102164100D01*
X168016533Y-102147153D01*
X168019022Y-102130369D01*
X168023145Y-102113910D01*
X168028861Y-102097934D01*
X168036116Y-102082596D01*
X168044839Y-102068042D01*
X168054946Y-102054413D01*
X168066341Y-102041841D01*
X168078913Y-102030446D01*
X168092542Y-102020339D01*
X168107096Y-102011616D01*
X168122434Y-102004361D01*
X168138410Y-101998645D01*
X168154869Y-101994522D01*
X168171653Y-101992033D01*
X168188600Y-101991200D01*
X168534400Y-101991200D01*
X168551347Y-101992033D01*
X168551347Y-101992033D01*
G37*
D23*
X168361500Y-102362000D03*
D12*
G36*
X169521347Y-101992033D02*
G01*
X169538131Y-101994522D01*
X169554590Y-101998645D01*
X169570566Y-102004361D01*
X169585904Y-102011616D01*
X169600458Y-102020339D01*
X169614087Y-102030446D01*
X169626659Y-102041841D01*
X169638054Y-102054413D01*
X169648161Y-102068042D01*
X169656884Y-102082596D01*
X169664139Y-102097934D01*
X169669855Y-102113910D01*
X169673978Y-102130369D01*
X169676467Y-102147153D01*
X169677300Y-102164100D01*
X169677300Y-102559900D01*
X169676467Y-102576847D01*
X169673978Y-102593631D01*
X169669855Y-102610090D01*
X169664139Y-102626066D01*
X169656884Y-102641404D01*
X169648161Y-102655958D01*
X169638054Y-102669587D01*
X169626659Y-102682159D01*
X169614087Y-102693554D01*
X169600458Y-102703661D01*
X169585904Y-102712384D01*
X169570566Y-102719639D01*
X169554590Y-102725355D01*
X169538131Y-102729478D01*
X169521347Y-102731967D01*
X169504400Y-102732800D01*
X169158600Y-102732800D01*
X169141653Y-102731967D01*
X169124869Y-102729478D01*
X169108410Y-102725355D01*
X169092434Y-102719639D01*
X169077096Y-102712384D01*
X169062542Y-102703661D01*
X169048913Y-102693554D01*
X169036341Y-102682159D01*
X169024946Y-102669587D01*
X169014839Y-102655958D01*
X169006116Y-102641404D01*
X168998861Y-102626066D01*
X168993145Y-102610090D01*
X168989022Y-102593631D01*
X168986533Y-102576847D01*
X168985700Y-102559900D01*
X168985700Y-102164100D01*
X168986533Y-102147153D01*
X168989022Y-102130369D01*
X168993145Y-102113910D01*
X168998861Y-102097934D01*
X169006116Y-102082596D01*
X169014839Y-102068042D01*
X169024946Y-102054413D01*
X169036341Y-102041841D01*
X169048913Y-102030446D01*
X169062542Y-102020339D01*
X169077096Y-102011616D01*
X169092434Y-102004361D01*
X169108410Y-101998645D01*
X169124869Y-101994522D01*
X169141653Y-101992033D01*
X169158600Y-101991200D01*
X169504400Y-101991200D01*
X169521347Y-101992033D01*
X169521347Y-101992033D01*
G37*
D23*
X169331500Y-102362000D03*
D12*
G36*
X165251347Y-98247533D02*
G01*
X165268131Y-98250022D01*
X165284590Y-98254145D01*
X165300566Y-98259861D01*
X165315904Y-98267116D01*
X165330458Y-98275839D01*
X165344087Y-98285946D01*
X165356659Y-98297341D01*
X165368054Y-98309913D01*
X165378161Y-98323542D01*
X165386884Y-98338096D01*
X165394139Y-98353434D01*
X165399855Y-98369410D01*
X165403978Y-98385869D01*
X165406467Y-98402653D01*
X165407300Y-98419600D01*
X165407300Y-98765400D01*
X165406467Y-98782347D01*
X165403978Y-98799131D01*
X165399855Y-98815590D01*
X165394139Y-98831566D01*
X165386884Y-98846904D01*
X165378161Y-98861458D01*
X165368054Y-98875087D01*
X165356659Y-98887659D01*
X165344087Y-98899054D01*
X165330458Y-98909161D01*
X165315904Y-98917884D01*
X165300566Y-98925139D01*
X165284590Y-98930855D01*
X165268131Y-98934978D01*
X165251347Y-98937467D01*
X165234400Y-98938300D01*
X164838600Y-98938300D01*
X164821653Y-98937467D01*
X164804869Y-98934978D01*
X164788410Y-98930855D01*
X164772434Y-98925139D01*
X164757096Y-98917884D01*
X164742542Y-98909161D01*
X164728913Y-98899054D01*
X164716341Y-98887659D01*
X164704946Y-98875087D01*
X164694839Y-98861458D01*
X164686116Y-98846904D01*
X164678861Y-98831566D01*
X164673145Y-98815590D01*
X164669022Y-98799131D01*
X164666533Y-98782347D01*
X164665700Y-98765400D01*
X164665700Y-98419600D01*
X164666533Y-98402653D01*
X164669022Y-98385869D01*
X164673145Y-98369410D01*
X164678861Y-98353434D01*
X164686116Y-98338096D01*
X164694839Y-98323542D01*
X164704946Y-98309913D01*
X164716341Y-98297341D01*
X164728913Y-98285946D01*
X164742542Y-98275839D01*
X164757096Y-98267116D01*
X164772434Y-98259861D01*
X164788410Y-98254145D01*
X164804869Y-98250022D01*
X164821653Y-98247533D01*
X164838600Y-98246700D01*
X165234400Y-98246700D01*
X165251347Y-98247533D01*
X165251347Y-98247533D01*
G37*
D23*
X165036500Y-98592500D03*
D12*
G36*
X165251347Y-97277533D02*
G01*
X165268131Y-97280022D01*
X165284590Y-97284145D01*
X165300566Y-97289861D01*
X165315904Y-97297116D01*
X165330458Y-97305839D01*
X165344087Y-97315946D01*
X165356659Y-97327341D01*
X165368054Y-97339913D01*
X165378161Y-97353542D01*
X165386884Y-97368096D01*
X165394139Y-97383434D01*
X165399855Y-97399410D01*
X165403978Y-97415869D01*
X165406467Y-97432653D01*
X165407300Y-97449600D01*
X165407300Y-97795400D01*
X165406467Y-97812347D01*
X165403978Y-97829131D01*
X165399855Y-97845590D01*
X165394139Y-97861566D01*
X165386884Y-97876904D01*
X165378161Y-97891458D01*
X165368054Y-97905087D01*
X165356659Y-97917659D01*
X165344087Y-97929054D01*
X165330458Y-97939161D01*
X165315904Y-97947884D01*
X165300566Y-97955139D01*
X165284590Y-97960855D01*
X165268131Y-97964978D01*
X165251347Y-97967467D01*
X165234400Y-97968300D01*
X164838600Y-97968300D01*
X164821653Y-97967467D01*
X164804869Y-97964978D01*
X164788410Y-97960855D01*
X164772434Y-97955139D01*
X164757096Y-97947884D01*
X164742542Y-97939161D01*
X164728913Y-97929054D01*
X164716341Y-97917659D01*
X164704946Y-97905087D01*
X164694839Y-97891458D01*
X164686116Y-97876904D01*
X164678861Y-97861566D01*
X164673145Y-97845590D01*
X164669022Y-97829131D01*
X164666533Y-97812347D01*
X164665700Y-97795400D01*
X164665700Y-97449600D01*
X164666533Y-97432653D01*
X164669022Y-97415869D01*
X164673145Y-97399410D01*
X164678861Y-97383434D01*
X164686116Y-97368096D01*
X164694839Y-97353542D01*
X164704946Y-97339913D01*
X164716341Y-97327341D01*
X164728913Y-97315946D01*
X164742542Y-97305839D01*
X164757096Y-97297116D01*
X164772434Y-97289861D01*
X164788410Y-97284145D01*
X164804869Y-97280022D01*
X164821653Y-97277533D01*
X164838600Y-97276700D01*
X165234400Y-97276700D01*
X165251347Y-97277533D01*
X165251347Y-97277533D01*
G37*
D23*
X165036500Y-97622500D03*
D28*
X160053020Y-99856290D03*
X160053020Y-96897190D03*
X160020000Y-91967050D03*
X160020000Y-89007950D03*
D12*
G36*
X157023581Y-94851876D02*
G01*
X157047281Y-94855391D01*
X157070523Y-94861213D01*
X157093082Y-94869285D01*
X157114742Y-94879529D01*
X157135292Y-94891847D01*
X157154537Y-94906119D01*
X157172290Y-94922210D01*
X157188381Y-94939963D01*
X157202653Y-94959208D01*
X157214971Y-94979758D01*
X157225215Y-95001418D01*
X157233287Y-95023977D01*
X157239109Y-95047219D01*
X157242624Y-95070919D01*
X157243800Y-95094850D01*
X157243800Y-95583150D01*
X157242624Y-95607081D01*
X157239109Y-95630781D01*
X157233287Y-95654023D01*
X157225215Y-95676582D01*
X157214971Y-95698242D01*
X157202653Y-95718792D01*
X157188381Y-95738037D01*
X157172290Y-95755790D01*
X157154537Y-95771881D01*
X157135292Y-95786153D01*
X157114742Y-95798471D01*
X157093082Y-95808715D01*
X157070523Y-95816787D01*
X157047281Y-95822609D01*
X157023581Y-95826124D01*
X156999650Y-95827300D01*
X156436350Y-95827300D01*
X156412419Y-95826124D01*
X156388719Y-95822609D01*
X156365477Y-95816787D01*
X156342918Y-95808715D01*
X156321258Y-95798471D01*
X156300708Y-95786153D01*
X156281463Y-95771881D01*
X156263710Y-95755790D01*
X156247619Y-95738037D01*
X156233347Y-95718792D01*
X156221029Y-95698242D01*
X156210785Y-95676582D01*
X156202713Y-95654023D01*
X156196891Y-95630781D01*
X156193376Y-95607081D01*
X156192200Y-95583150D01*
X156192200Y-95094850D01*
X156193376Y-95070919D01*
X156196891Y-95047219D01*
X156202713Y-95023977D01*
X156210785Y-95001418D01*
X156221029Y-94979758D01*
X156233347Y-94959208D01*
X156247619Y-94939963D01*
X156263710Y-94922210D01*
X156281463Y-94906119D01*
X156300708Y-94891847D01*
X156321258Y-94879529D01*
X156342918Y-94869285D01*
X156365477Y-94861213D01*
X156388719Y-94855391D01*
X156412419Y-94851876D01*
X156436350Y-94850700D01*
X156999650Y-94850700D01*
X157023581Y-94851876D01*
X157023581Y-94851876D01*
G37*
D22*
X156718000Y-95339000D03*
D12*
G36*
X157023581Y-93276876D02*
G01*
X157047281Y-93280391D01*
X157070523Y-93286213D01*
X157093082Y-93294285D01*
X157114742Y-93304529D01*
X157135292Y-93316847D01*
X157154537Y-93331119D01*
X157172290Y-93347210D01*
X157188381Y-93364963D01*
X157202653Y-93384208D01*
X157214971Y-93404758D01*
X157225215Y-93426418D01*
X157233287Y-93448977D01*
X157239109Y-93472219D01*
X157242624Y-93495919D01*
X157243800Y-93519850D01*
X157243800Y-94008150D01*
X157242624Y-94032081D01*
X157239109Y-94055781D01*
X157233287Y-94079023D01*
X157225215Y-94101582D01*
X157214971Y-94123242D01*
X157202653Y-94143792D01*
X157188381Y-94163037D01*
X157172290Y-94180790D01*
X157154537Y-94196881D01*
X157135292Y-94211153D01*
X157114742Y-94223471D01*
X157093082Y-94233715D01*
X157070523Y-94241787D01*
X157047281Y-94247609D01*
X157023581Y-94251124D01*
X156999650Y-94252300D01*
X156436350Y-94252300D01*
X156412419Y-94251124D01*
X156388719Y-94247609D01*
X156365477Y-94241787D01*
X156342918Y-94233715D01*
X156321258Y-94223471D01*
X156300708Y-94211153D01*
X156281463Y-94196881D01*
X156263710Y-94180790D01*
X156247619Y-94163037D01*
X156233347Y-94143792D01*
X156221029Y-94123242D01*
X156210785Y-94101582D01*
X156202713Y-94079023D01*
X156196891Y-94055781D01*
X156193376Y-94032081D01*
X156192200Y-94008150D01*
X156192200Y-93519850D01*
X156193376Y-93495919D01*
X156196891Y-93472219D01*
X156202713Y-93448977D01*
X156210785Y-93426418D01*
X156221029Y-93404758D01*
X156233347Y-93384208D01*
X156247619Y-93364963D01*
X156263710Y-93347210D01*
X156281463Y-93331119D01*
X156300708Y-93316847D01*
X156321258Y-93304529D01*
X156342918Y-93294285D01*
X156365477Y-93286213D01*
X156388719Y-93280391D01*
X156412419Y-93276876D01*
X156436350Y-93275700D01*
X156999650Y-93275700D01*
X157023581Y-93276876D01*
X157023581Y-93276876D01*
G37*
D22*
X156718000Y-93764000D03*
D12*
G36*
X163473347Y-98039533D02*
G01*
X163490131Y-98042022D01*
X163506590Y-98046145D01*
X163522566Y-98051861D01*
X163537904Y-98059116D01*
X163552458Y-98067839D01*
X163566087Y-98077946D01*
X163578659Y-98089341D01*
X163590054Y-98101913D01*
X163600161Y-98115542D01*
X163608884Y-98130096D01*
X163616139Y-98145434D01*
X163621855Y-98161410D01*
X163625978Y-98177869D01*
X163628467Y-98194653D01*
X163629300Y-98211600D01*
X163629300Y-98557400D01*
X163628467Y-98574347D01*
X163625978Y-98591131D01*
X163621855Y-98607590D01*
X163616139Y-98623566D01*
X163608884Y-98638904D01*
X163600161Y-98653458D01*
X163590054Y-98667087D01*
X163578659Y-98679659D01*
X163566087Y-98691054D01*
X163552458Y-98701161D01*
X163537904Y-98709884D01*
X163522566Y-98717139D01*
X163506590Y-98722855D01*
X163490131Y-98726978D01*
X163473347Y-98729467D01*
X163456400Y-98730300D01*
X163060600Y-98730300D01*
X163043653Y-98729467D01*
X163026869Y-98726978D01*
X163010410Y-98722855D01*
X162994434Y-98717139D01*
X162979096Y-98709884D01*
X162964542Y-98701161D01*
X162950913Y-98691054D01*
X162938341Y-98679659D01*
X162926946Y-98667087D01*
X162916839Y-98653458D01*
X162908116Y-98638904D01*
X162900861Y-98623566D01*
X162895145Y-98607590D01*
X162891022Y-98591131D01*
X162888533Y-98574347D01*
X162887700Y-98557400D01*
X162887700Y-98211600D01*
X162888533Y-98194653D01*
X162891022Y-98177869D01*
X162895145Y-98161410D01*
X162900861Y-98145434D01*
X162908116Y-98130096D01*
X162916839Y-98115542D01*
X162926946Y-98101913D01*
X162938341Y-98089341D01*
X162950913Y-98077946D01*
X162964542Y-98067839D01*
X162979096Y-98059116D01*
X162994434Y-98051861D01*
X163010410Y-98046145D01*
X163026869Y-98042022D01*
X163043653Y-98039533D01*
X163060600Y-98038700D01*
X163456400Y-98038700D01*
X163473347Y-98039533D01*
X163473347Y-98039533D01*
G37*
D23*
X163258500Y-98384500D03*
D12*
G36*
X163473347Y-99009533D02*
G01*
X163490131Y-99012022D01*
X163506590Y-99016145D01*
X163522566Y-99021861D01*
X163537904Y-99029116D01*
X163552458Y-99037839D01*
X163566087Y-99047946D01*
X163578659Y-99059341D01*
X163590054Y-99071913D01*
X163600161Y-99085542D01*
X163608884Y-99100096D01*
X163616139Y-99115434D01*
X163621855Y-99131410D01*
X163625978Y-99147869D01*
X163628467Y-99164653D01*
X163629300Y-99181600D01*
X163629300Y-99527400D01*
X163628467Y-99544347D01*
X163625978Y-99561131D01*
X163621855Y-99577590D01*
X163616139Y-99593566D01*
X163608884Y-99608904D01*
X163600161Y-99623458D01*
X163590054Y-99637087D01*
X163578659Y-99649659D01*
X163566087Y-99661054D01*
X163552458Y-99671161D01*
X163537904Y-99679884D01*
X163522566Y-99687139D01*
X163506590Y-99692855D01*
X163490131Y-99696978D01*
X163473347Y-99699467D01*
X163456400Y-99700300D01*
X163060600Y-99700300D01*
X163043653Y-99699467D01*
X163026869Y-99696978D01*
X163010410Y-99692855D01*
X162994434Y-99687139D01*
X162979096Y-99679884D01*
X162964542Y-99671161D01*
X162950913Y-99661054D01*
X162938341Y-99649659D01*
X162926946Y-99637087D01*
X162916839Y-99623458D01*
X162908116Y-99608904D01*
X162900861Y-99593566D01*
X162895145Y-99577590D01*
X162891022Y-99561131D01*
X162888533Y-99544347D01*
X162887700Y-99527400D01*
X162887700Y-99181600D01*
X162888533Y-99164653D01*
X162891022Y-99147869D01*
X162895145Y-99131410D01*
X162900861Y-99115434D01*
X162908116Y-99100096D01*
X162916839Y-99085542D01*
X162926946Y-99071913D01*
X162938341Y-99059341D01*
X162950913Y-99047946D01*
X162964542Y-99037839D01*
X162979096Y-99029116D01*
X162994434Y-99021861D01*
X163010410Y-99016145D01*
X163026869Y-99012022D01*
X163043653Y-99009533D01*
X163060600Y-99008700D01*
X163456400Y-99008700D01*
X163473347Y-99009533D01*
X163473347Y-99009533D01*
G37*
D23*
X163258500Y-99354500D03*
D12*
G36*
X166838847Y-89848033D02*
G01*
X166855631Y-89850522D01*
X166872090Y-89854645D01*
X166888066Y-89860361D01*
X166903404Y-89867616D01*
X166917958Y-89876339D01*
X166931587Y-89886446D01*
X166944159Y-89897841D01*
X166955554Y-89910413D01*
X166965661Y-89924042D01*
X166974384Y-89938596D01*
X166981639Y-89953934D01*
X166987355Y-89969910D01*
X166991478Y-89986369D01*
X166993967Y-90003153D01*
X166994800Y-90020100D01*
X166994800Y-90365900D01*
X166993967Y-90382847D01*
X166991478Y-90399631D01*
X166987355Y-90416090D01*
X166981639Y-90432066D01*
X166974384Y-90447404D01*
X166965661Y-90461958D01*
X166955554Y-90475587D01*
X166944159Y-90488159D01*
X166931587Y-90499554D01*
X166917958Y-90509661D01*
X166903404Y-90518384D01*
X166888066Y-90525639D01*
X166872090Y-90531355D01*
X166855631Y-90535478D01*
X166838847Y-90537967D01*
X166821900Y-90538800D01*
X166426100Y-90538800D01*
X166409153Y-90537967D01*
X166392369Y-90535478D01*
X166375910Y-90531355D01*
X166359934Y-90525639D01*
X166344596Y-90518384D01*
X166330042Y-90509661D01*
X166316413Y-90499554D01*
X166303841Y-90488159D01*
X166292446Y-90475587D01*
X166282339Y-90461958D01*
X166273616Y-90447404D01*
X166266361Y-90432066D01*
X166260645Y-90416090D01*
X166256522Y-90399631D01*
X166254033Y-90382847D01*
X166253200Y-90365900D01*
X166253200Y-90020100D01*
X166254033Y-90003153D01*
X166256522Y-89986369D01*
X166260645Y-89969910D01*
X166266361Y-89953934D01*
X166273616Y-89938596D01*
X166282339Y-89924042D01*
X166292446Y-89910413D01*
X166303841Y-89897841D01*
X166316413Y-89886446D01*
X166330042Y-89876339D01*
X166344596Y-89867616D01*
X166359934Y-89860361D01*
X166375910Y-89854645D01*
X166392369Y-89850522D01*
X166409153Y-89848033D01*
X166426100Y-89847200D01*
X166821900Y-89847200D01*
X166838847Y-89848033D01*
X166838847Y-89848033D01*
G37*
D23*
X166624000Y-90193000D03*
D12*
G36*
X166838847Y-90818033D02*
G01*
X166855631Y-90820522D01*
X166872090Y-90824645D01*
X166888066Y-90830361D01*
X166903404Y-90837616D01*
X166917958Y-90846339D01*
X166931587Y-90856446D01*
X166944159Y-90867841D01*
X166955554Y-90880413D01*
X166965661Y-90894042D01*
X166974384Y-90908596D01*
X166981639Y-90923934D01*
X166987355Y-90939910D01*
X166991478Y-90956369D01*
X166993967Y-90973153D01*
X166994800Y-90990100D01*
X166994800Y-91335900D01*
X166993967Y-91352847D01*
X166991478Y-91369631D01*
X166987355Y-91386090D01*
X166981639Y-91402066D01*
X166974384Y-91417404D01*
X166965661Y-91431958D01*
X166955554Y-91445587D01*
X166944159Y-91458159D01*
X166931587Y-91469554D01*
X166917958Y-91479661D01*
X166903404Y-91488384D01*
X166888066Y-91495639D01*
X166872090Y-91501355D01*
X166855631Y-91505478D01*
X166838847Y-91507967D01*
X166821900Y-91508800D01*
X166426100Y-91508800D01*
X166409153Y-91507967D01*
X166392369Y-91505478D01*
X166375910Y-91501355D01*
X166359934Y-91495639D01*
X166344596Y-91488384D01*
X166330042Y-91479661D01*
X166316413Y-91469554D01*
X166303841Y-91458159D01*
X166292446Y-91445587D01*
X166282339Y-91431958D01*
X166273616Y-91417404D01*
X166266361Y-91402066D01*
X166260645Y-91386090D01*
X166256522Y-91369631D01*
X166254033Y-91352847D01*
X166253200Y-91335900D01*
X166253200Y-90990100D01*
X166254033Y-90973153D01*
X166256522Y-90956369D01*
X166260645Y-90939910D01*
X166266361Y-90923934D01*
X166273616Y-90908596D01*
X166282339Y-90894042D01*
X166292446Y-90880413D01*
X166303841Y-90867841D01*
X166316413Y-90856446D01*
X166330042Y-90846339D01*
X166344596Y-90837616D01*
X166359934Y-90830361D01*
X166375910Y-90824645D01*
X166392369Y-90820522D01*
X166409153Y-90818033D01*
X166426100Y-90817200D01*
X166821900Y-90817200D01*
X166838847Y-90818033D01*
X166838847Y-90818033D01*
G37*
D23*
X166624000Y-91163000D03*
D12*
G36*
X156932847Y-87516033D02*
G01*
X156949631Y-87518522D01*
X156966090Y-87522645D01*
X156982066Y-87528361D01*
X156997404Y-87535616D01*
X157011958Y-87544339D01*
X157025587Y-87554446D01*
X157038159Y-87565841D01*
X157049554Y-87578413D01*
X157059661Y-87592042D01*
X157068384Y-87606596D01*
X157075639Y-87621934D01*
X157081355Y-87637910D01*
X157085478Y-87654369D01*
X157087967Y-87671153D01*
X157088800Y-87688100D01*
X157088800Y-88033900D01*
X157087967Y-88050847D01*
X157085478Y-88067631D01*
X157081355Y-88084090D01*
X157075639Y-88100066D01*
X157068384Y-88115404D01*
X157059661Y-88129958D01*
X157049554Y-88143587D01*
X157038159Y-88156159D01*
X157025587Y-88167554D01*
X157011958Y-88177661D01*
X156997404Y-88186384D01*
X156982066Y-88193639D01*
X156966090Y-88199355D01*
X156949631Y-88203478D01*
X156932847Y-88205967D01*
X156915900Y-88206800D01*
X156520100Y-88206800D01*
X156503153Y-88205967D01*
X156486369Y-88203478D01*
X156469910Y-88199355D01*
X156453934Y-88193639D01*
X156438596Y-88186384D01*
X156424042Y-88177661D01*
X156410413Y-88167554D01*
X156397841Y-88156159D01*
X156386446Y-88143587D01*
X156376339Y-88129958D01*
X156367616Y-88115404D01*
X156360361Y-88100066D01*
X156354645Y-88084090D01*
X156350522Y-88067631D01*
X156348033Y-88050847D01*
X156347200Y-88033900D01*
X156347200Y-87688100D01*
X156348033Y-87671153D01*
X156350522Y-87654369D01*
X156354645Y-87637910D01*
X156360361Y-87621934D01*
X156367616Y-87606596D01*
X156376339Y-87592042D01*
X156386446Y-87578413D01*
X156397841Y-87565841D01*
X156410413Y-87554446D01*
X156424042Y-87544339D01*
X156438596Y-87535616D01*
X156453934Y-87528361D01*
X156469910Y-87522645D01*
X156486369Y-87518522D01*
X156503153Y-87516033D01*
X156520100Y-87515200D01*
X156915900Y-87515200D01*
X156932847Y-87516033D01*
X156932847Y-87516033D01*
G37*
D23*
X156718000Y-87861000D03*
D12*
G36*
X156932847Y-86546033D02*
G01*
X156949631Y-86548522D01*
X156966090Y-86552645D01*
X156982066Y-86558361D01*
X156997404Y-86565616D01*
X157011958Y-86574339D01*
X157025587Y-86584446D01*
X157038159Y-86595841D01*
X157049554Y-86608413D01*
X157059661Y-86622042D01*
X157068384Y-86636596D01*
X157075639Y-86651934D01*
X157081355Y-86667910D01*
X157085478Y-86684369D01*
X157087967Y-86701153D01*
X157088800Y-86718100D01*
X157088800Y-87063900D01*
X157087967Y-87080847D01*
X157085478Y-87097631D01*
X157081355Y-87114090D01*
X157075639Y-87130066D01*
X157068384Y-87145404D01*
X157059661Y-87159958D01*
X157049554Y-87173587D01*
X157038159Y-87186159D01*
X157025587Y-87197554D01*
X157011958Y-87207661D01*
X156997404Y-87216384D01*
X156982066Y-87223639D01*
X156966090Y-87229355D01*
X156949631Y-87233478D01*
X156932847Y-87235967D01*
X156915900Y-87236800D01*
X156520100Y-87236800D01*
X156503153Y-87235967D01*
X156486369Y-87233478D01*
X156469910Y-87229355D01*
X156453934Y-87223639D01*
X156438596Y-87216384D01*
X156424042Y-87207661D01*
X156410413Y-87197554D01*
X156397841Y-87186159D01*
X156386446Y-87173587D01*
X156376339Y-87159958D01*
X156367616Y-87145404D01*
X156360361Y-87130066D01*
X156354645Y-87114090D01*
X156350522Y-87097631D01*
X156348033Y-87080847D01*
X156347200Y-87063900D01*
X156347200Y-86718100D01*
X156348033Y-86701153D01*
X156350522Y-86684369D01*
X156354645Y-86667910D01*
X156360361Y-86651934D01*
X156367616Y-86636596D01*
X156376339Y-86622042D01*
X156386446Y-86608413D01*
X156397841Y-86595841D01*
X156410413Y-86584446D01*
X156424042Y-86574339D01*
X156438596Y-86565616D01*
X156453934Y-86558361D01*
X156469910Y-86552645D01*
X156486369Y-86548522D01*
X156503153Y-86546033D01*
X156520100Y-86545200D01*
X156915900Y-86545200D01*
X156932847Y-86546033D01*
X156932847Y-86546033D01*
G37*
D23*
X156718000Y-86891000D03*
D12*
G36*
X160377347Y-103071533D02*
G01*
X160394131Y-103074022D01*
X160410590Y-103078145D01*
X160426566Y-103083861D01*
X160441904Y-103091116D01*
X160456458Y-103099839D01*
X160470087Y-103109946D01*
X160482659Y-103121341D01*
X160494054Y-103133913D01*
X160504161Y-103147542D01*
X160512884Y-103162096D01*
X160520139Y-103177434D01*
X160525855Y-103193410D01*
X160529978Y-103209869D01*
X160532467Y-103226653D01*
X160533300Y-103243600D01*
X160533300Y-103639400D01*
X160532467Y-103656347D01*
X160529978Y-103673131D01*
X160525855Y-103689590D01*
X160520139Y-103705566D01*
X160512884Y-103720904D01*
X160504161Y-103735458D01*
X160494054Y-103749087D01*
X160482659Y-103761659D01*
X160470087Y-103773054D01*
X160456458Y-103783161D01*
X160441904Y-103791884D01*
X160426566Y-103799139D01*
X160410590Y-103804855D01*
X160394131Y-103808978D01*
X160377347Y-103811467D01*
X160360400Y-103812300D01*
X160014600Y-103812300D01*
X159997653Y-103811467D01*
X159980869Y-103808978D01*
X159964410Y-103804855D01*
X159948434Y-103799139D01*
X159933096Y-103791884D01*
X159918542Y-103783161D01*
X159904913Y-103773054D01*
X159892341Y-103761659D01*
X159880946Y-103749087D01*
X159870839Y-103735458D01*
X159862116Y-103720904D01*
X159854861Y-103705566D01*
X159849145Y-103689590D01*
X159845022Y-103673131D01*
X159842533Y-103656347D01*
X159841700Y-103639400D01*
X159841700Y-103243600D01*
X159842533Y-103226653D01*
X159845022Y-103209869D01*
X159849145Y-103193410D01*
X159854861Y-103177434D01*
X159862116Y-103162096D01*
X159870839Y-103147542D01*
X159880946Y-103133913D01*
X159892341Y-103121341D01*
X159904913Y-103109946D01*
X159918542Y-103099839D01*
X159933096Y-103091116D01*
X159948434Y-103083861D01*
X159964410Y-103078145D01*
X159980869Y-103074022D01*
X159997653Y-103071533D01*
X160014600Y-103070700D01*
X160360400Y-103070700D01*
X160377347Y-103071533D01*
X160377347Y-103071533D01*
G37*
D23*
X160187500Y-103441500D03*
D12*
G36*
X159407347Y-103071533D02*
G01*
X159424131Y-103074022D01*
X159440590Y-103078145D01*
X159456566Y-103083861D01*
X159471904Y-103091116D01*
X159486458Y-103099839D01*
X159500087Y-103109946D01*
X159512659Y-103121341D01*
X159524054Y-103133913D01*
X159534161Y-103147542D01*
X159542884Y-103162096D01*
X159550139Y-103177434D01*
X159555855Y-103193410D01*
X159559978Y-103209869D01*
X159562467Y-103226653D01*
X159563300Y-103243600D01*
X159563300Y-103639400D01*
X159562467Y-103656347D01*
X159559978Y-103673131D01*
X159555855Y-103689590D01*
X159550139Y-103705566D01*
X159542884Y-103720904D01*
X159534161Y-103735458D01*
X159524054Y-103749087D01*
X159512659Y-103761659D01*
X159500087Y-103773054D01*
X159486458Y-103783161D01*
X159471904Y-103791884D01*
X159456566Y-103799139D01*
X159440590Y-103804855D01*
X159424131Y-103808978D01*
X159407347Y-103811467D01*
X159390400Y-103812300D01*
X159044600Y-103812300D01*
X159027653Y-103811467D01*
X159010869Y-103808978D01*
X158994410Y-103804855D01*
X158978434Y-103799139D01*
X158963096Y-103791884D01*
X158948542Y-103783161D01*
X158934913Y-103773054D01*
X158922341Y-103761659D01*
X158910946Y-103749087D01*
X158900839Y-103735458D01*
X158892116Y-103720904D01*
X158884861Y-103705566D01*
X158879145Y-103689590D01*
X158875022Y-103673131D01*
X158872533Y-103656347D01*
X158871700Y-103639400D01*
X158871700Y-103243600D01*
X158872533Y-103226653D01*
X158875022Y-103209869D01*
X158879145Y-103193410D01*
X158884861Y-103177434D01*
X158892116Y-103162096D01*
X158900839Y-103147542D01*
X158910946Y-103133913D01*
X158922341Y-103121341D01*
X158934913Y-103109946D01*
X158948542Y-103099839D01*
X158963096Y-103091116D01*
X158978434Y-103083861D01*
X158994410Y-103078145D01*
X159010869Y-103074022D01*
X159027653Y-103071533D01*
X159044600Y-103070700D01*
X159390400Y-103070700D01*
X159407347Y-103071533D01*
X159407347Y-103071533D01*
G37*
D23*
X159217500Y-103441500D03*
D12*
G36*
X164298847Y-89848033D02*
G01*
X164315631Y-89850522D01*
X164332090Y-89854645D01*
X164348066Y-89860361D01*
X164363404Y-89867616D01*
X164377958Y-89876339D01*
X164391587Y-89886446D01*
X164404159Y-89897841D01*
X164415554Y-89910413D01*
X164425661Y-89924042D01*
X164434384Y-89938596D01*
X164441639Y-89953934D01*
X164447355Y-89969910D01*
X164451478Y-89986369D01*
X164453967Y-90003153D01*
X164454800Y-90020100D01*
X164454800Y-90365900D01*
X164453967Y-90382847D01*
X164451478Y-90399631D01*
X164447355Y-90416090D01*
X164441639Y-90432066D01*
X164434384Y-90447404D01*
X164425661Y-90461958D01*
X164415554Y-90475587D01*
X164404159Y-90488159D01*
X164391587Y-90499554D01*
X164377958Y-90509661D01*
X164363404Y-90518384D01*
X164348066Y-90525639D01*
X164332090Y-90531355D01*
X164315631Y-90535478D01*
X164298847Y-90537967D01*
X164281900Y-90538800D01*
X163886100Y-90538800D01*
X163869153Y-90537967D01*
X163852369Y-90535478D01*
X163835910Y-90531355D01*
X163819934Y-90525639D01*
X163804596Y-90518384D01*
X163790042Y-90509661D01*
X163776413Y-90499554D01*
X163763841Y-90488159D01*
X163752446Y-90475587D01*
X163742339Y-90461958D01*
X163733616Y-90447404D01*
X163726361Y-90432066D01*
X163720645Y-90416090D01*
X163716522Y-90399631D01*
X163714033Y-90382847D01*
X163713200Y-90365900D01*
X163713200Y-90020100D01*
X163714033Y-90003153D01*
X163716522Y-89986369D01*
X163720645Y-89969910D01*
X163726361Y-89953934D01*
X163733616Y-89938596D01*
X163742339Y-89924042D01*
X163752446Y-89910413D01*
X163763841Y-89897841D01*
X163776413Y-89886446D01*
X163790042Y-89876339D01*
X163804596Y-89867616D01*
X163819934Y-89860361D01*
X163835910Y-89854645D01*
X163852369Y-89850522D01*
X163869153Y-89848033D01*
X163886100Y-89847200D01*
X164281900Y-89847200D01*
X164298847Y-89848033D01*
X164298847Y-89848033D01*
G37*
D23*
X164084000Y-90193000D03*
D12*
G36*
X164298847Y-90818033D02*
G01*
X164315631Y-90820522D01*
X164332090Y-90824645D01*
X164348066Y-90830361D01*
X164363404Y-90837616D01*
X164377958Y-90846339D01*
X164391587Y-90856446D01*
X164404159Y-90867841D01*
X164415554Y-90880413D01*
X164425661Y-90894042D01*
X164434384Y-90908596D01*
X164441639Y-90923934D01*
X164447355Y-90939910D01*
X164451478Y-90956369D01*
X164453967Y-90973153D01*
X164454800Y-90990100D01*
X164454800Y-91335900D01*
X164453967Y-91352847D01*
X164451478Y-91369631D01*
X164447355Y-91386090D01*
X164441639Y-91402066D01*
X164434384Y-91417404D01*
X164425661Y-91431958D01*
X164415554Y-91445587D01*
X164404159Y-91458159D01*
X164391587Y-91469554D01*
X164377958Y-91479661D01*
X164363404Y-91488384D01*
X164348066Y-91495639D01*
X164332090Y-91501355D01*
X164315631Y-91505478D01*
X164298847Y-91507967D01*
X164281900Y-91508800D01*
X163886100Y-91508800D01*
X163869153Y-91507967D01*
X163852369Y-91505478D01*
X163835910Y-91501355D01*
X163819934Y-91495639D01*
X163804596Y-91488384D01*
X163790042Y-91479661D01*
X163776413Y-91469554D01*
X163763841Y-91458159D01*
X163752446Y-91445587D01*
X163742339Y-91431958D01*
X163733616Y-91417404D01*
X163726361Y-91402066D01*
X163720645Y-91386090D01*
X163716522Y-91369631D01*
X163714033Y-91352847D01*
X163713200Y-91335900D01*
X163713200Y-90990100D01*
X163714033Y-90973153D01*
X163716522Y-90956369D01*
X163720645Y-90939910D01*
X163726361Y-90923934D01*
X163733616Y-90908596D01*
X163742339Y-90894042D01*
X163752446Y-90880413D01*
X163763841Y-90867841D01*
X163776413Y-90856446D01*
X163790042Y-90846339D01*
X163804596Y-90837616D01*
X163819934Y-90830361D01*
X163835910Y-90824645D01*
X163852369Y-90820522D01*
X163869153Y-90818033D01*
X163886100Y-90817200D01*
X164281900Y-90817200D01*
X164298847Y-90818033D01*
X164298847Y-90818033D01*
G37*
D23*
X164084000Y-91163000D03*
D12*
G36*
X166267347Y-100216033D02*
G01*
X166284131Y-100218522D01*
X166300590Y-100222645D01*
X166316566Y-100228361D01*
X166331904Y-100235616D01*
X166346458Y-100244339D01*
X166360087Y-100254446D01*
X166372659Y-100265841D01*
X166384054Y-100278413D01*
X166394161Y-100292042D01*
X166402884Y-100306596D01*
X166410139Y-100321934D01*
X166415855Y-100337910D01*
X166419978Y-100354369D01*
X166422467Y-100371153D01*
X166423300Y-100388100D01*
X166423300Y-100733900D01*
X166422467Y-100750847D01*
X166419978Y-100767631D01*
X166415855Y-100784090D01*
X166410139Y-100800066D01*
X166402884Y-100815404D01*
X166394161Y-100829958D01*
X166384054Y-100843587D01*
X166372659Y-100856159D01*
X166360087Y-100867554D01*
X166346458Y-100877661D01*
X166331904Y-100886384D01*
X166316566Y-100893639D01*
X166300590Y-100899355D01*
X166284131Y-100903478D01*
X166267347Y-100905967D01*
X166250400Y-100906800D01*
X165854600Y-100906800D01*
X165837653Y-100905967D01*
X165820869Y-100903478D01*
X165804410Y-100899355D01*
X165788434Y-100893639D01*
X165773096Y-100886384D01*
X165758542Y-100877661D01*
X165744913Y-100867554D01*
X165732341Y-100856159D01*
X165720946Y-100843587D01*
X165710839Y-100829958D01*
X165702116Y-100815404D01*
X165694861Y-100800066D01*
X165689145Y-100784090D01*
X165685022Y-100767631D01*
X165682533Y-100750847D01*
X165681700Y-100733900D01*
X165681700Y-100388100D01*
X165682533Y-100371153D01*
X165685022Y-100354369D01*
X165689145Y-100337910D01*
X165694861Y-100321934D01*
X165702116Y-100306596D01*
X165710839Y-100292042D01*
X165720946Y-100278413D01*
X165732341Y-100265841D01*
X165744913Y-100254446D01*
X165758542Y-100244339D01*
X165773096Y-100235616D01*
X165788434Y-100228361D01*
X165804410Y-100222645D01*
X165820869Y-100218522D01*
X165837653Y-100216033D01*
X165854600Y-100215200D01*
X166250400Y-100215200D01*
X166267347Y-100216033D01*
X166267347Y-100216033D01*
G37*
D23*
X166052500Y-100561000D03*
D12*
G36*
X166267347Y-99246033D02*
G01*
X166284131Y-99248522D01*
X166300590Y-99252645D01*
X166316566Y-99258361D01*
X166331904Y-99265616D01*
X166346458Y-99274339D01*
X166360087Y-99284446D01*
X166372659Y-99295841D01*
X166384054Y-99308413D01*
X166394161Y-99322042D01*
X166402884Y-99336596D01*
X166410139Y-99351934D01*
X166415855Y-99367910D01*
X166419978Y-99384369D01*
X166422467Y-99401153D01*
X166423300Y-99418100D01*
X166423300Y-99763900D01*
X166422467Y-99780847D01*
X166419978Y-99797631D01*
X166415855Y-99814090D01*
X166410139Y-99830066D01*
X166402884Y-99845404D01*
X166394161Y-99859958D01*
X166384054Y-99873587D01*
X166372659Y-99886159D01*
X166360087Y-99897554D01*
X166346458Y-99907661D01*
X166331904Y-99916384D01*
X166316566Y-99923639D01*
X166300590Y-99929355D01*
X166284131Y-99933478D01*
X166267347Y-99935967D01*
X166250400Y-99936800D01*
X165854600Y-99936800D01*
X165837653Y-99935967D01*
X165820869Y-99933478D01*
X165804410Y-99929355D01*
X165788434Y-99923639D01*
X165773096Y-99916384D01*
X165758542Y-99907661D01*
X165744913Y-99897554D01*
X165732341Y-99886159D01*
X165720946Y-99873587D01*
X165710839Y-99859958D01*
X165702116Y-99845404D01*
X165694861Y-99830066D01*
X165689145Y-99814090D01*
X165685022Y-99797631D01*
X165682533Y-99780847D01*
X165681700Y-99763900D01*
X165681700Y-99418100D01*
X165682533Y-99401153D01*
X165685022Y-99384369D01*
X165689145Y-99367910D01*
X165694861Y-99351934D01*
X165702116Y-99336596D01*
X165710839Y-99322042D01*
X165720946Y-99308413D01*
X165732341Y-99295841D01*
X165744913Y-99284446D01*
X165758542Y-99274339D01*
X165773096Y-99265616D01*
X165788434Y-99258361D01*
X165804410Y-99252645D01*
X165820869Y-99248522D01*
X165837653Y-99246033D01*
X165854600Y-99245200D01*
X166250400Y-99245200D01*
X166267347Y-99246033D01*
X166267347Y-99246033D01*
G37*
D23*
X166052500Y-99591000D03*
M02*
