G04 #@! TF.GenerationSoftware,KiCad,Pcbnew,(5.1.4)-1*
G04 #@! TF.CreationDate,2019-10-25T18:21:12-07:00*
G04 #@! TF.ProjectId,solarpcd,736f6c61-7270-4636-942e-6b696361645f,rev?*
G04 #@! TF.SameCoordinates,Original*
G04 #@! TF.FileFunction,Copper,L3,Inr*
G04 #@! TF.FilePolarity,Positive*
%FSLAX46Y46*%
G04 Gerber Fmt 4.6, Leading zero omitted, Abs format (unit mm)*
G04 Created by KiCad (PCBNEW (5.1.4)-1) date 2019-10-25 18:21:12*
%MOMM*%
%LPD*%
G04 APERTURE LIST*
%ADD10C,0.050000*%
%ADD11C,0.120000*%
%ADD12C,0.100000*%
%ADD13C,1.524000*%
%ADD14C,2.032000*%
%ADD15R,2.032000X2.032000*%
%ADD16C,0.584200*%
%ADD17C,0.800000*%
%ADD18C,0.127000*%
G04 APERTURE END LIST*
D10*
X156000000Y-99000000D02*
G75*
G03X156000000Y-99000000I-11000000J0D01*
G01*
X134727563Y-111650000D02*
G75*
G03X134727563Y-111650000I-1029563J0D01*
G01*
X128202563Y-111650000D02*
G75*
G03X128202563Y-111650000I-1029563J0D01*
G01*
X134704563Y-86350000D02*
G75*
G03X134704563Y-86350000I-1029563J0D01*
G01*
X128229563Y-86350000D02*
G75*
G03X128229563Y-86350000I-1029563J0D01*
G01*
X166000000Y-79100000D02*
G75*
G03X166000000Y-79100000I-1100000J0D01*
G01*
X126200000Y-79100000D02*
G75*
G03X126200000Y-79100000I-1100000J0D01*
G01*
X166000000Y-118900000D02*
G75*
G03X166000000Y-118900000I-1100000J0D01*
G01*
D11*
X126200000Y-118900000D02*
G75*
G03X126200000Y-118900000I-1100000J0D01*
G01*
D12*
X177000000Y-70000000D02*
X113000000Y-70000000D01*
X113000000Y-128000000D02*
X177000000Y-128000000D01*
X177000000Y-128000000D02*
X177000000Y-70000000D01*
X113000000Y-70000000D02*
X113000000Y-128000000D01*
D13*
X135509000Y-107442000D03*
X130429000Y-107442000D03*
X125349000Y-107442000D03*
X125349000Y-90551000D03*
X130429000Y-90551000D03*
X135509000Y-90551000D03*
D14*
X130429000Y-96398200D03*
D15*
X130429000Y-100253800D03*
D16*
X164934900Y-94604840D03*
X165541960Y-95211900D03*
X163512500Y-97091500D03*
X164272744Y-95204260D03*
X165517344Y-93934260D03*
X164272744Y-93934260D03*
X163507307Y-91983012D03*
X143383006Y-117094000D03*
X146018250Y-114458750D03*
X155796000Y-118966000D03*
X151296000Y-119038000D03*
X151296000Y-114466000D03*
X153543000Y-116586000D03*
X158115000Y-116586000D03*
X155702000Y-114109500D03*
X157543500Y-113030000D03*
X153860500Y-112966500D03*
X160274000Y-109855000D03*
X150749000Y-109855000D03*
X165227000Y-99314000D03*
X166878000Y-92837000D03*
X162623500Y-105029000D03*
X167376209Y-105218610D03*
X143383000Y-115697000D03*
X162088344Y-94594660D03*
X166751000Y-101663500D03*
X168592498Y-104965500D03*
X144208500Y-117601994D03*
X168783225Y-105728740D03*
X147256488Y-115697000D03*
X165735000Y-102679500D03*
X144907000Y-84645500D03*
X170116500Y-105473500D03*
X169989500Y-100266500D03*
X165036500Y-103886000D03*
X144907000Y-87439500D03*
D17*
X120142000Y-112395000D03*
X123698000Y-120904000D03*
X120142000Y-88392000D03*
X123698000Y-121920000D03*
X120142000Y-87376000D03*
D16*
X145415000Y-86042500D03*
X144462500Y-86042500D03*
X162369500Y-87566500D03*
X161734500Y-87566500D03*
X167767000Y-94551500D03*
X166814500Y-96964500D03*
X157353000Y-90614500D03*
X164882344Y-91825156D03*
X155702016Y-110617000D03*
D18*
X123063000Y-120594000D02*
X123500000Y-121031000D01*
X123063000Y-116840000D02*
X123063000Y-120594000D01*
X127127000Y-123825000D02*
X127127000Y-116840000D01*
X162814000Y-116840000D02*
X162814000Y-123825000D01*
X167132000Y-116840000D02*
X162814000Y-116840000D01*
X167132000Y-74168000D02*
X175895000Y-74168000D01*
X167132000Y-81153000D02*
X167132000Y-74168000D01*
X114173000Y-74168000D02*
X122809000Y-74168000D01*
X114173000Y-124079000D02*
X114173000Y-74168000D01*
X122809000Y-124079000D02*
X114173000Y-124079000D01*
X162560000Y-123571000D02*
X127381000Y-123571000D01*
X175895000Y-74168000D02*
X175895000Y-123825000D01*
X167386000Y-116586000D02*
X162560000Y-116586000D01*
X175641000Y-123571000D02*
X167386000Y-123571000D01*
X162560000Y-81407000D02*
X167386000Y-81407000D01*
X162560000Y-74422000D02*
X162560000Y-81407000D01*
X127381000Y-74422000D02*
X162560000Y-74422000D01*
X122555000Y-81407000D02*
X127381000Y-81407000D01*
X122555000Y-74422000D02*
X122555000Y-81407000D01*
X114427000Y-74422000D02*
X122555000Y-74422000D01*
X114427000Y-123825000D02*
X114427000Y-74422000D01*
X127635000Y-123317000D02*
X127635000Y-116332000D01*
X167640000Y-116332000D02*
X162306000Y-116332000D01*
X167640000Y-123317000D02*
X167640000Y-116332000D01*
X175387000Y-74676000D02*
X175387000Y-123317000D01*
X167640000Y-74676000D02*
X175387000Y-74676000D01*
X162560000Y-116586000D02*
X162560000Y-123571000D01*
X167640000Y-81661000D02*
X167640000Y-74676000D01*
X162306000Y-81661000D02*
X167640000Y-81661000D01*
X114681000Y-123571000D02*
X114681000Y-74676000D01*
X122301000Y-116078000D02*
X122301000Y-123571000D01*
X127889000Y-116078000D02*
X122301000Y-116078000D01*
X127889000Y-123063000D02*
X127889000Y-116078000D01*
X162052000Y-123063000D02*
X127889000Y-123063000D01*
X175133000Y-74930000D02*
X175133000Y-123063000D01*
X162052000Y-81915000D02*
X167894000Y-81915000D01*
X127889000Y-81915000D02*
X127889000Y-74930000D01*
X114935000Y-123317000D02*
X114935000Y-74930000D01*
X122047000Y-123317000D02*
X114935000Y-123317000D01*
X167894000Y-81915000D02*
X167894000Y-74930000D01*
X122047000Y-115824000D02*
X122047000Y-123317000D01*
X128143000Y-115824000D02*
X122047000Y-115824000D01*
X128143000Y-122809000D02*
X128143000Y-115824000D01*
X168148000Y-115824000D02*
X161798000Y-115824000D01*
X168148000Y-122809000D02*
X168148000Y-115824000D01*
X174879000Y-75184000D02*
X174879000Y-122809000D01*
X161798000Y-82169000D02*
X168148000Y-82169000D01*
X128143000Y-75184000D02*
X161798000Y-75184000D01*
X128143000Y-82169000D02*
X128143000Y-75184000D01*
X121793000Y-82169000D02*
X128143000Y-82169000D01*
X161798000Y-75184000D02*
X161798000Y-82169000D01*
X121793000Y-75184000D02*
X121793000Y-82169000D01*
X115189000Y-75184000D02*
X121793000Y-75184000D01*
X121793000Y-123063000D02*
X115189000Y-123063000D01*
X121793000Y-115570000D02*
X121793000Y-123063000D01*
X128397000Y-122555000D02*
X128397000Y-115570000D01*
X161544000Y-115570000D02*
X161544000Y-122555000D01*
X168402000Y-115570000D02*
X161544000Y-115570000D01*
X168402000Y-122555000D02*
X168402000Y-115570000D01*
X174625000Y-75438000D02*
X174625000Y-122555000D01*
X168402000Y-75438000D02*
X174625000Y-75438000D01*
X127889000Y-74930000D02*
X162052000Y-74930000D01*
X161544000Y-82423000D02*
X168402000Y-82423000D01*
X175133000Y-123063000D02*
X167894000Y-123063000D01*
X161544000Y-75438000D02*
X161544000Y-82423000D01*
X127381000Y-123571000D02*
X127381000Y-116586000D01*
X128397000Y-82423000D02*
X128397000Y-75438000D01*
X121539000Y-122809000D02*
X115443000Y-122809000D01*
X121539000Y-115316000D02*
X121539000Y-122809000D01*
X128651000Y-115316000D02*
X121539000Y-115316000D01*
X128651000Y-122301000D02*
X128651000Y-115316000D01*
X161290000Y-122301000D02*
X128651000Y-122301000D01*
X168656000Y-115316000D02*
X161290000Y-115316000D01*
X167894000Y-116078000D02*
X162052000Y-116078000D01*
X168656000Y-122301000D02*
X168656000Y-115316000D01*
X174371000Y-75692000D02*
X174371000Y-122301000D01*
X168656000Y-75692000D02*
X174371000Y-75692000D01*
X161290000Y-82677000D02*
X168656000Y-82677000D01*
X167132000Y-123825000D02*
X167132000Y-116840000D01*
X161290000Y-75692000D02*
X161290000Y-82677000D01*
X121285000Y-75692000D02*
X121285000Y-82677000D01*
X115697000Y-75692000D02*
X121285000Y-75692000D01*
X121285000Y-122555000D02*
X115697000Y-122555000D01*
X128905000Y-115062000D02*
X121285000Y-115062000D01*
X128905000Y-122047000D02*
X128905000Y-115062000D01*
X161036000Y-122047000D02*
X128905000Y-122047000D01*
X168910000Y-122047000D02*
X168910000Y-115062000D01*
X168910000Y-82931000D02*
X168910000Y-75946000D01*
X161036000Y-75946000D02*
X161036000Y-82931000D01*
X128905000Y-82931000D02*
X128905000Y-75946000D01*
X121031000Y-82931000D02*
X128905000Y-82931000D01*
X121031000Y-75946000D02*
X121031000Y-82931000D01*
X115951000Y-75946000D02*
X121031000Y-75946000D01*
X115951000Y-122301000D02*
X115951000Y-75946000D01*
X175641000Y-74422000D02*
X175641000Y-123571000D01*
X121031000Y-122301000D02*
X115951000Y-122301000D01*
X129159000Y-114808000D02*
X121031000Y-114808000D01*
X129159000Y-121793000D02*
X129159000Y-114808000D01*
X160782000Y-114808000D02*
X160782000Y-121793000D01*
X169164000Y-114808000D02*
X160782000Y-114808000D01*
X169164000Y-121793000D02*
X169164000Y-114808000D01*
X160782000Y-121793000D02*
X129159000Y-121793000D01*
X173863000Y-121793000D02*
X169164000Y-121793000D01*
X122301000Y-74676000D02*
X122301000Y-81661000D01*
X169164000Y-76200000D02*
X173863000Y-76200000D01*
X169164000Y-83185000D02*
X169164000Y-76200000D01*
X160782000Y-83185000D02*
X169164000Y-83185000D01*
X127635000Y-74676000D02*
X162306000Y-74676000D01*
X160782000Y-76200000D02*
X160782000Y-83185000D01*
X129159000Y-76200000D02*
X160782000Y-76200000D01*
X129159000Y-83185000D02*
X129159000Y-76200000D01*
X116205000Y-76200000D02*
X120777000Y-76200000D01*
X116205000Y-122047000D02*
X116205000Y-76200000D01*
X120777000Y-114554000D02*
X120777000Y-122047000D01*
X122555000Y-123825000D02*
X114427000Y-123825000D01*
X129413000Y-121539000D02*
X129413000Y-114554000D01*
X160528000Y-121539000D02*
X129413000Y-121539000D01*
X173609000Y-121539000D02*
X169418000Y-121539000D01*
X169418000Y-83439000D02*
X169418000Y-76454000D01*
X127127000Y-81153000D02*
X127127000Y-74168000D01*
X160528000Y-83439000D02*
X169418000Y-83439000D01*
X160528000Y-76454000D02*
X160528000Y-83439000D01*
X129413000Y-76454000D02*
X160528000Y-76454000D01*
X129413000Y-83439000D02*
X129413000Y-76454000D01*
X116459000Y-121793000D02*
X116459000Y-76454000D01*
X160274000Y-121285000D02*
X129667000Y-121285000D01*
X160274000Y-114300000D02*
X160274000Y-121285000D01*
X169672000Y-114300000D02*
X160274000Y-114300000D01*
X174879000Y-122809000D02*
X168148000Y-122809000D01*
X173355000Y-121285000D02*
X169672000Y-121285000D01*
X168910000Y-115062000D02*
X161036000Y-115062000D01*
X173355000Y-76708000D02*
X173355000Y-121285000D01*
X169672000Y-76708000D02*
X173355000Y-76708000D01*
X162814000Y-81153000D02*
X167132000Y-81153000D01*
X119507000Y-77470000D02*
X119507000Y-84455000D01*
X129667000Y-76708000D02*
X160274000Y-76708000D01*
X120269000Y-83693000D02*
X129667000Y-83693000D01*
X115189000Y-123063000D02*
X115189000Y-75184000D01*
X129921000Y-114046000D02*
X120269000Y-114046000D01*
X173101000Y-76962000D02*
X173101000Y-121031000D01*
X120523000Y-114300000D02*
X120523000Y-121793000D01*
X169926000Y-83947000D02*
X169926000Y-76962000D01*
X116713000Y-76708000D02*
X120269000Y-76708000D01*
X160020000Y-76962000D02*
X160020000Y-83947000D01*
X129921000Y-76962000D02*
X160020000Y-76962000D01*
X120015000Y-83947000D02*
X129921000Y-83947000D01*
X116967000Y-76962000D02*
X120015000Y-76962000D01*
X129921000Y-83947000D02*
X129921000Y-76962000D01*
X130175000Y-113792000D02*
X120015000Y-113792000D01*
X159766000Y-113792000D02*
X159766000Y-120777000D01*
X172847000Y-120777000D02*
X170180000Y-120777000D01*
X168656000Y-82677000D02*
X168656000Y-75692000D01*
X159766000Y-84201000D02*
X170180000Y-84201000D01*
X159766000Y-77216000D02*
X159766000Y-84201000D01*
X119761000Y-77216000D02*
X119761000Y-84201000D01*
X117221000Y-121031000D02*
X117221000Y-77216000D01*
X170434000Y-113538000D02*
X159512000Y-113538000D01*
X120015000Y-121285000D02*
X116967000Y-121285000D01*
X172593000Y-120523000D02*
X170434000Y-120523000D01*
X170434000Y-77470000D02*
X172593000Y-77470000D01*
X170434000Y-84455000D02*
X170434000Y-77470000D01*
X159512000Y-84455000D02*
X170434000Y-84455000D01*
X130429000Y-84455000D02*
X130429000Y-77470000D01*
X119507000Y-84455000D02*
X130429000Y-84455000D01*
X117475000Y-120777000D02*
X117475000Y-77470000D01*
X130683000Y-113284000D02*
X119507000Y-113284000D01*
X169418000Y-114554000D02*
X160528000Y-114554000D01*
X130683000Y-120269000D02*
X130683000Y-113284000D01*
X161036000Y-82931000D02*
X168910000Y-82931000D01*
X159258000Y-120269000D02*
X130683000Y-120269000D01*
X159258000Y-113284000D02*
X159258000Y-120269000D01*
X172339000Y-77724000D02*
X172339000Y-120269000D01*
X114681000Y-74676000D02*
X122301000Y-74676000D01*
X170688000Y-77724000D02*
X172339000Y-77724000D01*
X159258000Y-77724000D02*
X159258000Y-84709000D01*
X130683000Y-77724000D02*
X159258000Y-77724000D01*
X168402000Y-82423000D02*
X168402000Y-75438000D01*
X120015000Y-76962000D02*
X120015000Y-83947000D01*
X120523000Y-76454000D02*
X120523000Y-83439000D01*
X117729000Y-77724000D02*
X119253000Y-77724000D01*
X119253000Y-113030000D02*
X119253000Y-120523000D01*
X129413000Y-114554000D02*
X120777000Y-114554000D01*
X130937000Y-113030000D02*
X119253000Y-113030000D01*
X169418000Y-76454000D02*
X173609000Y-76454000D01*
X161290000Y-115316000D02*
X161290000Y-122301000D01*
X162306000Y-123317000D02*
X127635000Y-123317000D01*
X159766000Y-120777000D02*
X130175000Y-120777000D01*
X167894000Y-74930000D02*
X175133000Y-74930000D01*
X173609000Y-76454000D02*
X173609000Y-121539000D01*
X115697000Y-122555000D02*
X115697000Y-75692000D01*
X167386000Y-123571000D02*
X167386000Y-116586000D01*
X122301000Y-81661000D02*
X127635000Y-81661000D01*
X175387000Y-123317000D02*
X167640000Y-123317000D01*
X162306000Y-74676000D02*
X162306000Y-81661000D01*
X128397000Y-75438000D02*
X161544000Y-75438000D01*
X170180000Y-120777000D02*
X170180000Y-113792000D01*
X119761000Y-84201000D02*
X130175000Y-84201000D01*
X167386000Y-74422000D02*
X175641000Y-74422000D01*
X120523000Y-121793000D02*
X116459000Y-121793000D01*
X119507000Y-113284000D02*
X119507000Y-120777000D01*
X167386000Y-81407000D02*
X167386000Y-74422000D01*
X170180000Y-84201000D02*
X170180000Y-77216000D01*
X174117000Y-122047000D02*
X168910000Y-122047000D01*
X129667000Y-121285000D02*
X129667000Y-114300000D01*
X173101000Y-121031000D02*
X169926000Y-121031000D01*
X162814000Y-74168000D02*
X162814000Y-81153000D01*
X117475000Y-77470000D02*
X119507000Y-77470000D01*
X122555000Y-116332000D02*
X122555000Y-123825000D01*
X127635000Y-81661000D02*
X127635000Y-74676000D01*
X169672000Y-83693000D02*
X169672000Y-76708000D01*
X130175000Y-84201000D02*
X130175000Y-77216000D01*
X114935000Y-74930000D02*
X122047000Y-74930000D01*
X119507000Y-120777000D02*
X117475000Y-120777000D01*
X122047000Y-81915000D02*
X127889000Y-81915000D01*
X127381000Y-81407000D02*
X127381000Y-74422000D01*
X169672000Y-121285000D02*
X169672000Y-114300000D01*
X170688000Y-84709000D02*
X170688000Y-77724000D01*
X169926000Y-121031000D02*
X169926000Y-114046000D01*
X116713000Y-121539000D02*
X116713000Y-76708000D01*
X130429000Y-77470000D02*
X159512000Y-77470000D01*
X159258000Y-84709000D02*
X170688000Y-84709000D01*
X160020000Y-121031000D02*
X129921000Y-121031000D01*
X119253000Y-120523000D02*
X117729000Y-120523000D01*
X162306000Y-116332000D02*
X162306000Y-123317000D01*
X160274000Y-83693000D02*
X169672000Y-83693000D01*
X119253000Y-77724000D02*
X119253000Y-84709000D01*
X168148000Y-75184000D02*
X174879000Y-75184000D01*
X170688000Y-120269000D02*
X170688000Y-113284000D01*
X121539000Y-82423000D02*
X128397000Y-82423000D01*
X120269000Y-121539000D02*
X116713000Y-121539000D01*
X161036000Y-115062000D02*
X161036000Y-122047000D01*
X172847000Y-77216000D02*
X172847000Y-120777000D01*
X162052000Y-116078000D02*
X162052000Y-123063000D01*
X128905000Y-75946000D02*
X161036000Y-75946000D01*
X127127000Y-116840000D02*
X123063000Y-116840000D01*
X130175000Y-120777000D02*
X130175000Y-113792000D01*
X119761000Y-121031000D02*
X117221000Y-121031000D01*
X162052000Y-74930000D02*
X162052000Y-81915000D01*
X161798000Y-115824000D02*
X161798000Y-122809000D01*
X168148000Y-82169000D02*
X168148000Y-75184000D01*
X130429000Y-113538000D02*
X119761000Y-113538000D01*
X115443000Y-75438000D02*
X121539000Y-75438000D01*
X120777000Y-76200000D02*
X120777000Y-83185000D01*
X120777000Y-122047000D02*
X116205000Y-122047000D01*
X170180000Y-77216000D02*
X172847000Y-77216000D01*
X173863000Y-76200000D02*
X173863000Y-121793000D01*
X122301000Y-123571000D02*
X114681000Y-123571000D01*
X169418000Y-121539000D02*
X169418000Y-114554000D01*
X121285000Y-82677000D02*
X128651000Y-82677000D01*
X130429000Y-120523000D02*
X130429000Y-113538000D01*
X121031000Y-114808000D02*
X121031000Y-122301000D01*
X120015000Y-113792000D02*
X120015000Y-121285000D01*
X119253000Y-84709000D02*
X130683000Y-84709000D01*
X128651000Y-82677000D02*
X128651000Y-75692000D01*
X160020000Y-114046000D02*
X160020000Y-121031000D01*
X159512000Y-120523000D02*
X130429000Y-120523000D01*
X161544000Y-122555000D02*
X128397000Y-122555000D01*
X162814000Y-123825000D02*
X127127000Y-123825000D01*
X168910000Y-75946000D02*
X174117000Y-75946000D01*
X160274000Y-76708000D02*
X160274000Y-83693000D01*
X170434000Y-120523000D02*
X170434000Y-113538000D01*
X174371000Y-122301000D02*
X168656000Y-122301000D01*
X129667000Y-114300000D02*
X120523000Y-114300000D01*
X129667000Y-83693000D02*
X129667000Y-76708000D01*
X116459000Y-76454000D02*
X120523000Y-76454000D01*
X128651000Y-75692000D02*
X161290000Y-75692000D01*
X161798000Y-122809000D02*
X128143000Y-122809000D01*
X120777000Y-83185000D02*
X129159000Y-83185000D01*
X127127000Y-74168000D02*
X162814000Y-74168000D01*
X127381000Y-116586000D02*
X122809000Y-116586000D01*
X130175000Y-77216000D02*
X159766000Y-77216000D01*
X121285000Y-115062000D02*
X121285000Y-122555000D01*
X169926000Y-76962000D02*
X173101000Y-76962000D01*
X172593000Y-77470000D02*
X172593000Y-120523000D01*
X175895000Y-123825000D02*
X167132000Y-123825000D01*
X122809000Y-116586000D02*
X122809000Y-124079000D01*
X120523000Y-83439000D02*
X129413000Y-83439000D01*
X122047000Y-74930000D02*
X122047000Y-81915000D01*
X121539000Y-75438000D02*
X121539000Y-82423000D01*
X116967000Y-121285000D02*
X116967000Y-76962000D01*
X120269000Y-76708000D02*
X120269000Y-83693000D01*
X128397000Y-115570000D02*
X121793000Y-115570000D01*
X120269000Y-114046000D02*
X120269000Y-121539000D01*
X122809000Y-74168000D02*
X122809000Y-81153000D01*
X160528000Y-114554000D02*
X160528000Y-121539000D01*
X129921000Y-121031000D02*
X129921000Y-114046000D01*
X170688000Y-113284000D02*
X159258000Y-113284000D01*
X127635000Y-116332000D02*
X122555000Y-116332000D01*
X117221000Y-77216000D02*
X119761000Y-77216000D01*
X174117000Y-75946000D02*
X174117000Y-122047000D01*
X174625000Y-122555000D02*
X168402000Y-122555000D01*
X130683000Y-84709000D02*
X130683000Y-77724000D01*
X159512000Y-77470000D02*
X159512000Y-84455000D01*
X170180000Y-113792000D02*
X159766000Y-113792000D01*
X160020000Y-83947000D02*
X169926000Y-83947000D01*
X119761000Y-113538000D02*
X119761000Y-121031000D01*
X169926000Y-114046000D02*
X160020000Y-114046000D01*
X130937000Y-120015000D02*
X130937000Y-113030000D01*
X167894000Y-123063000D02*
X167894000Y-116078000D01*
X159512000Y-113538000D02*
X159512000Y-120523000D01*
X172339000Y-120269000D02*
X170688000Y-120269000D01*
X115443000Y-122809000D02*
X115443000Y-75438000D01*
X117729000Y-120523000D02*
X117729000Y-77724000D01*
X122809000Y-81153000D02*
X127127000Y-81153000D01*
X123500000Y-121031000D02*
X123500000Y-121031000D01*
X159004000Y-120015000D02*
X130937000Y-120015000D01*
X159004000Y-113030000D02*
X159004000Y-120015000D01*
X170942000Y-113030000D02*
X159004000Y-113030000D01*
X170942000Y-120015000D02*
X170942000Y-113030000D01*
X172085000Y-120015000D02*
X170942000Y-120015000D01*
X172085000Y-77978000D02*
X172085000Y-120015000D01*
X170942000Y-77978000D02*
X172085000Y-77978000D01*
X170942000Y-84963000D02*
X170942000Y-77978000D01*
X159004000Y-84963000D02*
X170942000Y-84963000D01*
X159004000Y-77978000D02*
X159004000Y-84963000D01*
X130937000Y-77978000D02*
X159004000Y-77978000D01*
X130937000Y-84963000D02*
X130937000Y-77978000D01*
X118999000Y-84963000D02*
X130937000Y-84963000D01*
X118999000Y-77978000D02*
X118999000Y-84963000D01*
X117983000Y-77978000D02*
X118999000Y-77978000D01*
X117983000Y-120269000D02*
X117983000Y-77978000D01*
X118999000Y-120269000D02*
X117983000Y-120269000D01*
X118999000Y-112776000D02*
X118999000Y-120269000D01*
X119380000Y-112395000D02*
X120142000Y-112395000D01*
X118999000Y-112776000D02*
X119380000Y-112395000D01*
M02*
